M48
METRIC,LZ,000.000
;FILE_FORMAT=3:3
;TYPE=PLATED
;Layer: PTH_Through
;EasyEDA v6.5.57, 2026-08-21 14:04:48
;6babd1ff1e854c829ccbb43ea7f903ec,73b71592eb5d450092b712373c5d4a3f,10
;Gerber Generator version 0.2
;Holesize 1 = 0.310 mm
T01C0.310
;Holesize 2 = 0.762 mm
T02C0.762
;Holesize 3 = 0.800 mm
T03C0.800
;Holesize 4 = 0.900 mm
T04C0.900
;Holesize 5 = 0.901 mm
T05C0.901
;Holesize 6 = 0.915 mm
T06C0.915
;Holesize 7 = 1.000 mm
T07C1.000
;Holesize 8 = 1.016 mm
T08C1.016
;Holesize 9 = 1.021 mm
T09C1.021
;Holesize 10 = 1.800 mm
T10C1.800
%
G05
G90
T01
X045974Y-018034
X045974Y-019558
X095123Y-047371
X045974Y-016510
T02
X046866Y-039751G85X046860Y-039751
X041310Y-039751G85X041304Y-039751
X016507Y-042672G85X016513Y-042672
X022063Y-042672G85X022069Y-042672
T03
X105029Y-034290
X105029Y-033020
X105029Y-031750
T04
X078867Y-008890
X088773Y-008890
X053975Y-003810
X044069Y-003810
X019812Y-003683
X029718Y-003683
X018161Y-037592
X008255Y-037592
X107315Y-043180
X107315Y-053086
X103124Y-053086
X103124Y-043180
X089789Y-033020
X099695Y-033020
T05
X011542Y-053507G85X013642Y-053507
X008892Y-047858G85X008892Y-050058
X015193Y-050083G85X015193Y-047883
X037957Y-003810
X035957Y-003810
T06
X106807Y-009017
X106807Y-011557
X106807Y-014097
X100584Y-009017
X100584Y-011557
X100584Y-014097
X094234Y-009017
X094234Y-011557
X094234Y-014097
X099441Y-058801
X101981Y-058801
X104521Y-058801
X107061Y-058801
X099441Y-065151
X101981Y-065151
X104521Y-065151
X107061Y-065151
T07
X055372Y-041402
X060452Y-041402
X034798Y-043561
X029718Y-043561
X049914Y-010193G85X049908Y-010193
X047374Y-010193G85X047368Y-010193
X044834Y-010193G85X044828Y-010193
X042294Y-010193G85X042288Y-010193
X039754Y-010193G85X039748Y-010193
X037214Y-010193G85X037208Y-010193
X034674Y-010193G85X034668Y-010193
X032134Y-010193G85X032128Y-010193
X029594Y-010193G85X029588Y-010193
X027054Y-010193G85X027048Y-010193
X024514Y-010193G85X024508Y-010193
X021974Y-010193G85X021968Y-010193
X019434Y-010193G85X019428Y-010193
X016894Y-010193G85X016888Y-010193
X014354Y-010193G85X014348Y-010193
X011814Y-010193G85X011808Y-010193
X009274Y-010193G85X009268Y-010193
X006734Y-010193G85X006728Y-010193
X004194Y-010193G85X004188Y-010193
X049914Y-032893G85X049908Y-032893
X047374Y-032893G85X047368Y-032893
X044834Y-032893G85X044828Y-032893
X042294Y-032893G85X042288Y-032893
X039754Y-032893G85X039748Y-032893
X037214Y-032893G85X037208Y-032893
X034674Y-032893G85X034668Y-032893
X032134Y-032893G85X032128Y-032893
X029594Y-032893G85X029588Y-032893
X027054Y-032893G85X027048Y-032893
X024514Y-032893G85X024508Y-032893
X021974Y-032893G85X021968Y-032893
X019434Y-032893G85X019428Y-032893
X016894Y-032893G85X016888Y-032893
X014354Y-032893G85X014348Y-032893
X011814Y-032893G85X011808Y-032893
X009274Y-032893G85X009268Y-032893
X006734Y-032893G85X006728Y-032893
X004194Y-032893G85X004188Y-032893
T08
X088265Y-062230
X085725Y-062230
X083185Y-062230
X080645Y-062230
X078105Y-062230
X075565Y-062230
X075565Y-052070
X078105Y-052070
X080645Y-052070
X083185Y-052070
X085725Y-052070
X088265Y-052070
X010414Y-003683
X012954Y-003683
X112903Y-034417
X112903Y-031877
T09
X041275Y-065659
X041275Y-063119
X041275Y-054991
X041275Y-052451
X059817Y-052451
X059817Y-054991
X059817Y-063119
X059817Y-065659
T10
X011303Y-061338G85X011303Y-061344
X032893Y-061338G85X032893Y-061344
M30
