M48
METRIC,LZ,000.000
;FILE_FORMAT=3:3
;TYPE=PLATED
;Layer: PTH_Through
;EasyEDA v6.5.57, 2026-08-22 12:43:49
;d5c1c7cf252c4259a0bd62168661ddc8,73b71592eb5d450092b712373c5d4a3f,10
;Gerber Generator version 0.2
;Holesize 1 = 0.310 mm
T01C0.310
;Holesize 2 = 0.411 mm
T02C0.411
;Holesize 3 = 0.762 mm
T03C0.762
;Holesize 4 = 0.800 mm
T04C0.800
;Holesize 5 = 0.900 mm
T05C0.900
;Holesize 6 = 0.901 mm
T06C0.901
;Holesize 7 = 0.915 mm
T07C0.915
;Holesize 8 = 1.000 mm
T08C1.000
;Holesize 9 = 1.016 mm
T09C1.016
;Holesize 10 = 1.021 mm
T10C1.021
;Holesize 11 = 1.800 mm
T11C1.800
%
G05
G90
T01
X054356Y-026416
X047879Y-017653
X047879Y-015875
X070231Y-038989
T02
X076000Y-001501
X076000Y-006500
X073500Y-004001
X078500Y-004001
X077778Y-002223
X074222Y-002223
X077778Y-005779
X074222Y-005779
X004001Y-058500
X004001Y-063500
X001501Y-061000
X006500Y-061000
X005779Y-059222
X002223Y-059222
X005779Y-062778
X002223Y-062778
X076000Y-058500
X076000Y-063500
X073500Y-061000
X078500Y-061000
X077778Y-059222
X074222Y-059222
X077778Y-062778
X074222Y-062778
X004001Y-001501
X004001Y-006500
X001501Y-004001
X006500Y-004001
X005779Y-002223
X002223Y-002223
X005779Y-005779
X002223Y-005779
T03
X044453Y-042164G85X044447Y-042164
X038897Y-042164G85X038891Y-042164
X003680Y-037338G85X003686Y-037338
X009236Y-037338G85X009242Y-037338
T04
X072644Y-030226
X073914Y-030226
X075184Y-030226
T05
X057531Y-014605
X057531Y-004699
X045085Y-004953
X035179Y-004953
X016256Y-004953
X026162Y-004953
X054229Y-004826
X054229Y-014732
X077470Y-040894
X067564Y-040894
X067564Y-044450
X077470Y-044450
X060579Y-004699
X070485Y-004699
T06
X012431Y-048808G85X014531Y-048808
X009781Y-043159G85X009781Y-045359
X016082Y-045384G85X016082Y-043184
X031480Y-004953
X029480Y-004953
T07
X075946Y-012319
X075946Y-014859
X075946Y-017399
X069469Y-012319
X069469Y-014859
X069469Y-017399
X063119Y-012319
X063119Y-014859
X063119Y-017399
X066548Y-049403
X069088Y-049403
X071628Y-049403
X074168Y-049403
X066548Y-055245
X069088Y-055245
X071628Y-055245
X074168Y-055245
X070104Y-024638
X072644Y-024638
X075184Y-024638
T08
X034544Y-045974
X029464Y-045974
X020066Y-040303
X025146Y-040215
X049914Y-010193G85X049908Y-010193
X047374Y-010193G85X047368Y-010193
X044834Y-010193G85X044828Y-010193
X042294Y-010193G85X042288Y-010193
X039754Y-010193G85X039748Y-010193
X037214Y-010193G85X037208Y-010193
X034674Y-010193G85X034668Y-010193
X032134Y-010193G85X032128Y-010193
X029594Y-010193G85X029588Y-010193
X027054Y-010193G85X027048Y-010193
X024514Y-010193G85X024508Y-010193
X021974Y-010193G85X021968Y-010193
X019434Y-010193G85X019428Y-010193
X016894Y-010193G85X016888Y-010193
X014354Y-010193G85X014348Y-010193
X011814Y-010193G85X011808Y-010193
X009274Y-010193G85X009268Y-010193
X006734Y-010193G85X006728Y-010193
X004194Y-010193G85X004188Y-010193
X049914Y-032893G85X049908Y-032893
X047374Y-032893G85X047368Y-032893
X044834Y-032893G85X044828Y-032893
X042294Y-032893G85X042288Y-032893
X039754Y-032893G85X039748Y-032893
X037214Y-032893G85X037208Y-032893
X034674Y-032893G85X034668Y-032893
X032134Y-032893G85X032128Y-032893
X029594Y-032893G85X029588Y-032893
X027054Y-032893G85X027048Y-032893
X024514Y-032893G85X024508Y-032893
X021974Y-032893G85X021968Y-032893
X019434Y-032893G85X019428Y-032893
X016894Y-032893G85X016888Y-032893
X014354Y-032893G85X014348Y-032893
X011814Y-032893G85X011808Y-032893
X009274Y-032893G85X009268Y-032893
X006734Y-032893G85X006728Y-032893
X004194Y-032893G85X004188Y-032893
T09
X054356Y-041656
X054356Y-039116
X054356Y-036576
X054356Y-034036
X054356Y-031496
X054356Y-028956
X064516Y-028956
X064516Y-031496
X064516Y-034036
X064516Y-036576
X064516Y-039116
X064516Y-041656
X010160Y-004953
X012700Y-004953
X073025Y-035687
X075565Y-035687
T10
X059207Y-046436
X059207Y-048976
X059207Y-057704
X059207Y-060244
X040107Y-060244
X040107Y-057704
X040107Y-048976
X040107Y-046436
T11
X011303Y-056639G85X011303Y-056645
X032893Y-056639G85X032893Y-056645
M30
