M48
METRIC,LZ,000.000
;FILE_FORMAT=3:3
;TYPE=PLATED
;Layer: PTH_Through
;EasyEDA v6.5.57, 2026-08-21 18:24:28
;95df02b17ae24060b49c9fd1e424970a,73b71592eb5d450092b712373c5d4a3f,10
;Gerber Generator version 0.2
;Holesize 1 = 0.310 mm
T01C0.310
;Holesize 2 = 0.411 mm
T02C0.411
;Holesize 3 = 0.762 mm
T03C0.762
;Holesize 4 = 0.800 mm
T04C0.800
;Holesize 5 = 0.900 mm
T05C0.900
;Holesize 6 = 0.901 mm
T06C0.901
;Holesize 7 = 0.915 mm
T07C0.915
;Holesize 8 = 1.000 mm
T08C1.000
;Holesize 9 = 1.016 mm
T09C1.016
;Holesize 10 = 1.021 mm
T10C1.021
;Holesize 11 = 1.800 mm
T11C1.800
%
G05
G90
T01
X045974Y-018034
X045974Y-019558
X095123Y-047371
X045974Y-016510
T02
X115999Y-001501
X115999Y-006500
X113499Y-004001
X118499Y-004001
X117777Y-002223
X114221Y-002223
X117777Y-005779
X114221Y-005779
X004001Y-063499
X004001Y-068499
X001501Y-065999
X006500Y-065999
X005779Y-064221
X002223Y-064221
X005779Y-067777
X002223Y-067777
X115999Y-063499
X115999Y-068499
X113499Y-065999
X118499Y-065999
X117777Y-064221
X114221Y-064221
X117777Y-067777
X114221Y-067777
X004001Y-001501
X004001Y-006500
X001501Y-004001
X006500Y-004001
X005779Y-002223
X002223Y-002223
X005779Y-005779
X002223Y-005779
T03
X046866Y-039751G85X046860Y-039751
X041310Y-039751G85X041304Y-039751
X016507Y-042672G85X016513Y-042672
X022063Y-042672G85X022069Y-042672
T04
X105029Y-034290
X105029Y-033020
X105029Y-031750
T05
X078867Y-008890
X088773Y-008890
X051943Y-004826
X042037Y-004826
X018923Y-004953
X028829Y-004953
X018161Y-037592
X008255Y-037592
X107315Y-043180
X107315Y-053086
X103124Y-053086
X103124Y-043180
X089789Y-033020
X099695Y-033020
T06
X012304Y-053507G85X014404Y-053507
X009654Y-047858G85X009654Y-050058
X015955Y-050083G85X015955Y-047883
X036179Y-004826
X034179Y-004826
T07
X106807Y-009017
X106807Y-011557
X106807Y-014097
X100584Y-009017
X100584Y-011557
X100584Y-014097
X094234Y-009017
X094234Y-011557
X094234Y-014097
X099441Y-058801
X101981Y-058801
X104521Y-058801
X107061Y-058801
X099441Y-065151
X101981Y-065151
X104521Y-065151
X107061Y-065151
T08
X055372Y-041402
X060452Y-041402
X034798Y-043561
X029718Y-043561
X049914Y-010193G85X049908Y-010193
X047374Y-010193G85X047368Y-010193
X044834Y-010193G85X044828Y-010193
X042294Y-010193G85X042288Y-010193
X039754Y-010193G85X039748Y-010193
X037214Y-010193G85X037208Y-010193
X034674Y-010193G85X034668Y-010193
X032134Y-010193G85X032128Y-010193
X029594Y-010193G85X029588Y-010193
X027054Y-010193G85X027048Y-010193
X024514Y-010193G85X024508Y-010193
X021974Y-010193G85X021968Y-010193
X019434Y-010193G85X019428Y-010193
X016894Y-010193G85X016888Y-010193
X014354Y-010193G85X014348Y-010193
X011814Y-010193G85X011808Y-010193
X009274Y-010193G85X009268Y-010193
X006734Y-010193G85X006728Y-010193
X004194Y-010193G85X004188Y-010193
X049914Y-032893G85X049908Y-032893
X047374Y-032893G85X047368Y-032893
X044834Y-032893G85X044828Y-032893
X042294Y-032893G85X042288Y-032893
X039754Y-032893G85X039748Y-032893
X037214Y-032893G85X037208Y-032893
X034674Y-032893G85X034668Y-032893
X032134Y-032893G85X032128Y-032893
X029594Y-032893G85X029588Y-032893
X027054Y-032893G85X027048Y-032893
X024514Y-032893G85X024508Y-032893
X021974Y-032893G85X021968Y-032893
X019434Y-032893G85X019428Y-032893
X016894Y-032893G85X016888Y-032893
X014354Y-032893G85X014348Y-032893
X011814Y-032893G85X011808Y-032893
X009274Y-032893G85X009268Y-032893
X006734Y-032893G85X006728Y-032893
X004194Y-032893G85X004188Y-032893
T09
X088265Y-062230
X085725Y-062230
X083185Y-062230
X080645Y-062230
X078105Y-062230
X075565Y-062230
X075565Y-052070
X078105Y-052070
X080645Y-052070
X083185Y-052070
X085725Y-052070
X088265Y-052070
X011303Y-004953
X013843Y-004953
X112903Y-034417
X112903Y-031877
T10
X040996Y-065959
X040996Y-063419
X040996Y-054691
X040996Y-052151
X060096Y-052151
X060096Y-054691
X060096Y-063419
X060096Y-065959
T11
X011303Y-061338G85X011303Y-061344
X032893Y-061338G85X032893Y-061344
M30
