M48
METRIC,LZ,000.000
;FILE_FORMAT=3:3
;TYPE=PLATED
;Layer: PTH_Through
;EasyEDA v6.5.57, 2026-08-28 16:13:09
;5e0a217a3e3e4001abd121eb4e72d0a8,73b71592eb5d450092b712373c5d4a3f,10
;Gerber Generator version 0.2
;Holesize 1 = 0.310 mm
T01C0.310
;Holesize 2 = 0.400 mm
T02C0.400
;Holesize 3 = 0.411 mm
T03C0.411
;Holesize 4 = 0.901 mm
T04C0.901
;Holesize 5 = 0.915 mm
T05C0.915
;Holesize 6 = 1.000 mm
T06C1.000
;Holesize 7 = 1.016 mm
T07C1.016
;Holesize 8 = 1.021 mm
T08C1.021
;Holesize 9 = 1.050 mm
T09C1.050
%
G05
G90
T01
X044450Y-013589
X044450Y-008636
T02
X054610Y-006223
X056261Y-008382
X053467Y-009779
X048133Y-004064
X046609Y-004064
X051054Y-004064
X049530Y-004064
X048133Y-017526
X046609Y-011811
X056261Y-009779
X056261Y-011430
X056261Y-012954
T03
X004000Y-001500
X004000Y-006500
X001500Y-004000
X006500Y-004000
X005778Y-002222
X002222Y-002222
X005778Y-005778
X002222Y-005778
X071000Y-001500
X071000Y-006500
X068500Y-004000
X073500Y-004000
X072778Y-002222
X069222Y-002222
X072778Y-005778
X069222Y-005778
X004000Y-039500
X004000Y-044500
X001500Y-042000
X006500Y-042000
X005778Y-040222
X002222Y-040222
X005778Y-043778
X002222Y-043778
X071000Y-039500
X071000Y-044500
X068500Y-042000
X073500Y-042000
X072778Y-040222
X069222Y-040222
X072778Y-043778
X069222Y-043778
X004318Y-011938
T04
X011288Y-037505G85X013388Y-037505
X008638Y-031856G85X008638Y-034056
X014939Y-034081G85X014939Y-031881
T05
X061468Y-031000
X064008Y-031000
X066548Y-031000
X069088Y-031000
X061468Y-024500
X064008Y-024500
X066548Y-024500
X069088Y-024500
X072517Y-017145
X072517Y-014605
X072517Y-012065
X066263Y-017145
X066263Y-014605
X066263Y-012065
X060071Y-017145
X060071Y-014605
X060071Y-012065
X004445Y-021082
X004445Y-023622
X004445Y-026162
T06
X020066Y-032385
X025146Y-032385
X055372Y-039497
X060452Y-039497
T07
X063754Y-002159
X061214Y-002159
T08
X030455Y-043226
X030455Y-040686
X030455Y-031958
X030455Y-029418
X049555Y-029418
X049555Y-031958
X049555Y-040686
X049555Y-043226
T09
X009271Y-002159
X011811Y-002159
X014351Y-002159
X016891Y-002159
X019431Y-002159
X021971Y-002159
X024511Y-002159
X027051Y-002159
X029591Y-002159
X032131Y-002159
X034671Y-002159
X037211Y-002159
X039751Y-002159
X042291Y-002159
X044831Y-002159
X047371Y-002159
X049911Y-002159
X052451Y-002159
X054991Y-002159
X009271Y-024859
X011811Y-024859
X014351Y-024859
X016891Y-024859
X019431Y-024859
X021971Y-024859
X024511Y-024859
X027051Y-024859
X029591Y-024859
X032131Y-024859
X034671Y-024859
X037211Y-024859
X039751Y-024859
X042291Y-024859
X044831Y-024859
X047371Y-024859
X049911Y-024859
X052451Y-024859
X054991Y-024859
M30
