G04 Layer: TopSilkscreenLayer*
G04 EasyEDA v6.5.57, 2026-08-22 12:43:49*
G04 d5c1c7cf252c4259a0bd62168661ddc8,73b71592eb5d450092b712373c5d4a3f,10*
G04 Gerber Generator version 0.2*
G04 Scale: 100 percent, Rotated: No, Reflected: No *
G04 Dimensions in millimeters *
G04 leading zeros omitted , absolute positions ,4 integer and 5 decimal *
%FSLAX45Y45*%
%MOMM*%

%ADD10C,0.2032*%
%ADD11C,0.1520*%
%ADD12C,0.1524*%
%ADD13C,0.2540*%
%ADD14C,0.2032*%
%ADD15C,0.0171*%
%ADD16C,0.1270*%

%LPD*%
G36*
X4381500Y-3620109D02*
G01*
X4381500Y-3644290D01*
X4402023Y-3644290D01*
X4402023Y-3620109D01*
G37*
G36*
X3925265Y-3628186D02*
G01*
X3925265Y-3737457D01*
X3945788Y-3737457D01*
X3945788Y-3707028D01*
X3952798Y-3701034D01*
X3974033Y-3737457D01*
X3996436Y-3737457D01*
X3996436Y-3736848D01*
X3965295Y-3688029D01*
X3995318Y-3658971D01*
X3970172Y-3658971D01*
X3946194Y-3684930D01*
X3945788Y-3628186D01*
G37*
G36*
X3662679Y-3631692D02*
G01*
X3662679Y-3649268D01*
X3683203Y-3649268D01*
X3699713Y-3649827D01*
X3705555Y-3652723D01*
X3708501Y-3657854D01*
X3708501Y-3669588D01*
X3705555Y-3674668D01*
X3700475Y-3677665D01*
X3683203Y-3678174D01*
X3683203Y-3649268D01*
X3662679Y-3649268D01*
X3662679Y-3737508D01*
X3682847Y-3737101D01*
X3683254Y-3695649D01*
X3691331Y-3695649D01*
X3696157Y-3697681D01*
X3700627Y-3703065D01*
X3717188Y-3737457D01*
X3738981Y-3737457D01*
X3738981Y-3735984D01*
X3717747Y-3693566D01*
X3713124Y-3688334D01*
X3711092Y-3688334D01*
X3711092Y-3686860D01*
X3714445Y-3686860D01*
X3722065Y-3683050D01*
X3727297Y-3676954D01*
X3730345Y-3666896D01*
X3729583Y-3653485D01*
X3727043Y-3646119D01*
X3722878Y-3640074D01*
X3715715Y-3635501D01*
X3704132Y-3632352D01*
G37*
G36*
X4091787Y-3632555D02*
G01*
X4091787Y-3737457D01*
X4110126Y-3737457D01*
X4110228Y-3655669D01*
X4121099Y-3699357D01*
X4137609Y-3698951D01*
X4147870Y-3656126D01*
X4148277Y-3737457D01*
X4166565Y-3737457D01*
X4166565Y-3632555D01*
X4141419Y-3632911D01*
X4129532Y-3677310D01*
X4128770Y-3677310D01*
X4116578Y-3632555D01*
G37*
G36*
X4459986Y-3636213D02*
G01*
X4459986Y-3658260D01*
X4440174Y-3658260D01*
X4440174Y-3674364D01*
X4459884Y-3674364D01*
X4460392Y-3720947D01*
X4463745Y-3729329D01*
X4469536Y-3734308D01*
X4477969Y-3736898D01*
X4507738Y-3737610D01*
X4507280Y-3721709D01*
X4484979Y-3720947D01*
X4480864Y-3716883D01*
X4480458Y-3674364D01*
X4507738Y-3674364D01*
X4507280Y-3658615D01*
X4480509Y-3658209D01*
X4480509Y-3636213D01*
G37*
G36*
X3296310Y-3650183D02*
G01*
X3288233Y-3650437D01*
X3282340Y-3650945D01*
X3268624Y-3653180D01*
X3254502Y-3657701D01*
X3240684Y-3664153D01*
X3225901Y-3673957D01*
X3211118Y-3688689D01*
X3201822Y-3701694D01*
X3193999Y-3717086D01*
X3188970Y-3732682D01*
X3186379Y-3747363D01*
X3186379Y-3768648D01*
X3188208Y-3779621D01*
X3191814Y-3793032D01*
X3195574Y-3802329D01*
X3200044Y-3811168D01*
X3202889Y-3815232D01*
X3208578Y-3818128D01*
X3214166Y-3818128D01*
X3220161Y-3815384D01*
X3223564Y-3810558D01*
X3224225Y-3802684D01*
X3217570Y-3788410D01*
X3213963Y-3777437D01*
X3211982Y-3766413D01*
X3212134Y-3746601D01*
X3216605Y-3729431D01*
X3223514Y-3715308D01*
X3231896Y-3704082D01*
X3243224Y-3693312D01*
X3255772Y-3685184D01*
X3267049Y-3680409D01*
X3277971Y-3677310D01*
X3299256Y-3675430D01*
X3300780Y-3675126D01*
X3305759Y-3671824D01*
X3308553Y-3666998D01*
X3308553Y-3659936D01*
X3306267Y-3655466D01*
X3301746Y-3651707D01*
G37*
G36*
X3881323Y-3656787D02*
G01*
X3871366Y-3656888D01*
X3861815Y-3658971D01*
X3852926Y-3663340D01*
X3844493Y-3672128D01*
X3840378Y-3681323D01*
X3838346Y-3689400D01*
X3838448Y-3707739D01*
X3841038Y-3717290D01*
X3845509Y-3725672D01*
X3853840Y-3733596D01*
X3861104Y-3737203D01*
X3868420Y-3739286D01*
X3886047Y-3739286D01*
X3896309Y-3736035D01*
X3901084Y-3733088D01*
X3901084Y-3715461D01*
X3900170Y-3715461D01*
X3891889Y-3720541D01*
X3883151Y-3722776D01*
X3876395Y-3722776D01*
X3869080Y-3720642D01*
X3863136Y-3715512D01*
X3859682Y-3707739D01*
X3859072Y-3692144D01*
X3861460Y-3684015D01*
X3866235Y-3677767D01*
X3873144Y-3674211D01*
X3882390Y-3673449D01*
X3891889Y-3675887D01*
X3900170Y-3680968D01*
X3901084Y-3680968D01*
X3900678Y-3662984D01*
X3892600Y-3659124D01*
G37*
G36*
X4219041Y-3656787D02*
G01*
X4211675Y-3656888D01*
X4202684Y-3658870D01*
X4194454Y-3662883D01*
X4186529Y-3671163D01*
X4181957Y-3680256D01*
X4179620Y-3690162D01*
X4179620Y-3698189D01*
X4199585Y-3698189D01*
X4201058Y-3686759D01*
X4204055Y-3679901D01*
X4207306Y-3676396D01*
X4213148Y-3673652D01*
X4218279Y-3673652D01*
X4224172Y-3676396D01*
X4227372Y-3679901D01*
X4230420Y-3686759D01*
X4231894Y-3698189D01*
X4230420Y-3709670D01*
X4227372Y-3716528D01*
X4223410Y-3720744D01*
X4218736Y-3722776D01*
X4212742Y-3722776D01*
X4208018Y-3720744D01*
X4204055Y-3716528D01*
X4201007Y-3709670D01*
X4199585Y-3698189D01*
X4179620Y-3698189D01*
X4179671Y-3707028D01*
X4182719Y-3718560D01*
X4187088Y-3726230D01*
X4194200Y-3733444D01*
X4201566Y-3737406D01*
X4210964Y-3739642D01*
X4219752Y-3739642D01*
X4229709Y-3737508D01*
X4236923Y-3733596D01*
X4244441Y-3726078D01*
X4248759Y-3718560D01*
X4251807Y-3707028D01*
X4251858Y-3690162D01*
X4249470Y-3680256D01*
X4244949Y-3671214D01*
X4237685Y-3663543D01*
X4228947Y-3658920D01*
G37*
G36*
X4311497Y-3656787D02*
G01*
X4307789Y-3656837D01*
X4300423Y-3659378D01*
X4295698Y-3662730D01*
X4291634Y-3669588D01*
X4291228Y-3658971D01*
X4270756Y-3658971D01*
X4270756Y-3737457D01*
X4291177Y-3737457D01*
X4291634Y-3685032D01*
X4295597Y-3676599D01*
X4300474Y-3673551D01*
X4308144Y-3674110D01*
X4311294Y-3676954D01*
X4313631Y-3682085D01*
X4314139Y-3737457D01*
X4334713Y-3737457D01*
X4333951Y-3677665D01*
X4331868Y-3670350D01*
X4328820Y-3664356D01*
X4322927Y-3659073D01*
X4315206Y-3656787D01*
G37*
G36*
X4565243Y-3656787D02*
G01*
X4557928Y-3656888D01*
X4548886Y-3658870D01*
X4540656Y-3662883D01*
X4532782Y-3671163D01*
X4528159Y-3680256D01*
X4525822Y-3690162D01*
X4525822Y-3698189D01*
X4545787Y-3698189D01*
X4547260Y-3686759D01*
X4550257Y-3679901D01*
X4553508Y-3676396D01*
X4559350Y-3673652D01*
X4564481Y-3673652D01*
X4570374Y-3676396D01*
X4573625Y-3679901D01*
X4576622Y-3686759D01*
X4578096Y-3698189D01*
X4576622Y-3709670D01*
X4573574Y-3716528D01*
X4569663Y-3720744D01*
X4564938Y-3722776D01*
X4558944Y-3722776D01*
X4554220Y-3720744D01*
X4550308Y-3716528D01*
X4547260Y-3709670D01*
X4545787Y-3698189D01*
X4525822Y-3698189D01*
X4525873Y-3707028D01*
X4528921Y-3718560D01*
X4533341Y-3726230D01*
X4540402Y-3733444D01*
X4547768Y-3737406D01*
X4557166Y-3739642D01*
X4565954Y-3739642D01*
X4575911Y-3737508D01*
X4583176Y-3733596D01*
X4590643Y-3726078D01*
X4594961Y-3718560D01*
X4598009Y-3707028D01*
X4598060Y-3690162D01*
X4595723Y-3680256D01*
X4591151Y-3671214D01*
X4583887Y-3663543D01*
X4575149Y-3658920D01*
G37*
G36*
X4665726Y-3656787D02*
G01*
X4657801Y-3659022D01*
X4653280Y-3661816D01*
X4648708Y-3666693D01*
X4646269Y-3670300D01*
X4646269Y-3658971D01*
X4625746Y-3658971D01*
X4625746Y-3737457D01*
X4646218Y-3737457D01*
X4646676Y-3688689D01*
X4649724Y-3682085D01*
X4655718Y-3676650D01*
X4663440Y-3674364D01*
X4673142Y-3674364D01*
X4680559Y-3676548D01*
X4685893Y-3680206D01*
X4685893Y-3660546D01*
X4677460Y-3657346D01*
G37*
G36*
X3777487Y-3656888D02*
G01*
X3763670Y-3659073D01*
X3754374Y-3662121D01*
X3754374Y-3679647D01*
X3766464Y-3674516D01*
X3777792Y-3672179D01*
X3785971Y-3672179D01*
X3792524Y-3673805D01*
X3796893Y-3678834D01*
X3796893Y-3685946D01*
X3769410Y-3686708D01*
X3762044Y-3688842D01*
X3754526Y-3692651D01*
X3749294Y-3698748D01*
X3746957Y-3705555D01*
X3746093Y-3714648D01*
X3746575Y-3717086D01*
X3768293Y-3717086D01*
X3768293Y-3709924D01*
X3771036Y-3704793D01*
X3775506Y-3702202D01*
X3781856Y-3700932D01*
X3797096Y-3700779D01*
X3796284Y-3711600D01*
X3793032Y-3719118D01*
X3787952Y-3723640D01*
X3784092Y-3725113D01*
X3775659Y-3725113D01*
X3770680Y-3722014D01*
X3768293Y-3717086D01*
X3746575Y-3717086D01*
X3747922Y-3723843D01*
X3750716Y-3729329D01*
X3755898Y-3734511D01*
X3762857Y-3738067D01*
X3772052Y-3739845D01*
X3782364Y-3738981D01*
X3791407Y-3734714D01*
X3796893Y-3729329D01*
X3796893Y-3737457D01*
X3817569Y-3737457D01*
X3817010Y-3679901D01*
X3813759Y-3670046D01*
X3808933Y-3663746D01*
X3802430Y-3659733D01*
X3793591Y-3657447D01*
G37*
G36*
X4361942Y-3658209D02*
G01*
X4360976Y-3659225D01*
X4360976Y-3674364D01*
X4381500Y-3674364D01*
X4381500Y-3721303D01*
X4355846Y-3721303D01*
X4355846Y-3737457D01*
X4427778Y-3737457D01*
X4427321Y-3721709D01*
X4402074Y-3721303D01*
X4401667Y-3658615D01*
G37*
G36*
X3298088Y-3734511D02*
G01*
X3288944Y-3734612D01*
X3280968Y-3737660D01*
X3273399Y-3745229D01*
X3270250Y-3753662D01*
X3270250Y-3762349D01*
X3273298Y-3770477D01*
X3280156Y-3777487D01*
X3287471Y-3781094D01*
X3299968Y-3781094D01*
X3307283Y-3777487D01*
X3313226Y-3771544D01*
X3316833Y-3764229D01*
X3316833Y-3751783D01*
X3313226Y-3744417D01*
X3306216Y-3737559D01*
G37*
G36*
X3447846Y-3745534D02*
G01*
X3443732Y-3745585D01*
X3440785Y-3747211D01*
X3437331Y-3750310D01*
X3435146Y-3754475D01*
X3433927Y-3776878D01*
X3430219Y-3795064D01*
X3424174Y-3812641D01*
X3416147Y-3828796D01*
X3405327Y-3844899D01*
X3394608Y-3856888D01*
X3383127Y-3867353D01*
X3372561Y-3875176D01*
X3362655Y-3881221D01*
X3349447Y-3887825D01*
X3338525Y-3892194D01*
X3321964Y-3896614D01*
X3307283Y-3898798D01*
X3283051Y-3898849D01*
X3270605Y-3897325D01*
X3258870Y-3894988D01*
X3244951Y-3890568D01*
X3233216Y-3885793D01*
X3228594Y-3884777D01*
X3222548Y-3886403D01*
X3217672Y-3891330D01*
X3215944Y-3898137D01*
X3217468Y-3903776D01*
X3220669Y-3907840D01*
X3232454Y-3913378D01*
X3250387Y-3919372D01*
X3272078Y-3923893D01*
X3302355Y-3924706D01*
X3319018Y-3922979D01*
X3333699Y-3919982D01*
X3346907Y-3916222D01*
X3360115Y-3911142D01*
X3375964Y-3903218D01*
X3387851Y-3895801D01*
X3401263Y-3885742D01*
X3415588Y-3872179D01*
X3427374Y-3858107D01*
X3439007Y-3840581D01*
X3447592Y-3822903D01*
X3452977Y-3808425D01*
X3457905Y-3789172D01*
X3460242Y-3771087D01*
X3460242Y-3753815D01*
X3456889Y-3748836D01*
X3451961Y-3745534D01*
G37*
G36*
X3685438Y-3822547D02*
G01*
X3685438Y-3844137D01*
X3683000Y-3840734D01*
X3676954Y-3837990D01*
X3671417Y-3837940D01*
X3665982Y-3840226D01*
X3661816Y-3844188D01*
X3659073Y-3849522D01*
X3657447Y-3859580D01*
X3658380Y-3867658D01*
X3665270Y-3867658D01*
X3665270Y-3852976D01*
X3668522Y-3846372D01*
X3672586Y-3843832D01*
X3677412Y-3843832D01*
X3681729Y-3846068D01*
X3685032Y-3852265D01*
X3685032Y-3867658D01*
X3681882Y-3874515D01*
X3677412Y-3876801D01*
X3672789Y-3876801D01*
X3668522Y-3874262D01*
X3665270Y-3867658D01*
X3658380Y-3867658D01*
X3658463Y-3868369D01*
X3661206Y-3875786D01*
X3665982Y-3880408D01*
X3671417Y-3882694D01*
X3676650Y-3882694D01*
X3682136Y-3880459D01*
X3685387Y-3876446D01*
X3685438Y-3881221D01*
X3691991Y-3881221D01*
X3691991Y-3822547D01*
G37*
G36*
X3817467Y-3822547D02*
G01*
X3817467Y-3831336D01*
X3824020Y-3831336D01*
X3824020Y-3822547D01*
G37*
G36*
X4020616Y-3822547D02*
G01*
X4020616Y-3844137D01*
X4018229Y-3840734D01*
X4012184Y-3837990D01*
X4006342Y-3837990D01*
X4000347Y-3840683D01*
X3995826Y-3846169D01*
X3993602Y-3853281D01*
X4000804Y-3853281D01*
X4003090Y-3847896D01*
X4005579Y-3845102D01*
X4008526Y-3843883D01*
X4013047Y-3843832D01*
X4018076Y-3847134D01*
X4020565Y-3854450D01*
X4020565Y-3866184D01*
X4018076Y-3873500D01*
X4012895Y-3876954D01*
X4006646Y-3876243D01*
X4003548Y-3873500D01*
X4000855Y-3867658D01*
X4000804Y-3853281D01*
X3993602Y-3853281D01*
X3993337Y-3854145D01*
X3993946Y-3869842D01*
X3997756Y-3877208D01*
X4001211Y-3880408D01*
X4006646Y-3882694D01*
X4012184Y-3882644D01*
X4018229Y-3879900D01*
X4020616Y-3876497D01*
X4020616Y-3881221D01*
X4027982Y-3881221D01*
X4027982Y-3822547D01*
G37*
G36*
X4091787Y-3822547D02*
G01*
X4091787Y-3860698D01*
X4098747Y-3860698D01*
X4098747Y-3853738D01*
X4101490Y-3846626D01*
X4106062Y-3843832D01*
X4110888Y-3843832D01*
X4115104Y-3845966D01*
X4118508Y-3852976D01*
X4118559Y-3867658D01*
X4115104Y-3874668D01*
X4110888Y-3876801D01*
X4106367Y-3876801D01*
X4101896Y-3874515D01*
X4098798Y-3867658D01*
X4098747Y-3860698D01*
X4091787Y-3860698D01*
X4091787Y-3881221D01*
X4098391Y-3881221D01*
X4098391Y-3876598D01*
X4102049Y-3880561D01*
X4107129Y-3882694D01*
X4112107Y-3882694D01*
X4117086Y-3881018D01*
X4121962Y-3876446D01*
X4124807Y-3870960D01*
X4126484Y-3860088D01*
X4124706Y-3849420D01*
X4120896Y-3842410D01*
X4115460Y-3838651D01*
X4108094Y-3837787D01*
X4102760Y-3839514D01*
X4098391Y-3843934D01*
X4098391Y-3822547D01*
G37*
G36*
X4392523Y-3822547D02*
G01*
X4392523Y-3831336D01*
X4399127Y-3831336D01*
X4399127Y-3822547D01*
G37*
G36*
X4473905Y-3822547D02*
G01*
X4473905Y-3827678D01*
X4484878Y-3827678D01*
X4485284Y-3872077D01*
X4488332Y-3877919D01*
X4494784Y-3881221D01*
X4506925Y-3881221D01*
X4506925Y-3875328D01*
X4497019Y-3875328D01*
X4493361Y-3873500D01*
X4491634Y-3868369D01*
X4491532Y-3822547D01*
G37*
G36*
X4233316Y-3824579D02*
G01*
X4233316Y-3831336D01*
X4250639Y-3831336D01*
X4257192Y-3834637D01*
X4260494Y-3840683D01*
X4261713Y-3852976D01*
X4260494Y-3865219D01*
X4257192Y-3871315D01*
X4250639Y-3874617D01*
X4240682Y-3874617D01*
X4240682Y-3831336D01*
X4233316Y-3831336D01*
X4233316Y-3881374D01*
X4252772Y-3880764D01*
X4260545Y-3877360D01*
X4266387Y-3870706D01*
X4269435Y-3860596D01*
X4268724Y-3841953D01*
X4266234Y-3835095D01*
X4260545Y-3828592D01*
X4252772Y-3825189D01*
G37*
G36*
X3769410Y-3837279D02*
G01*
X3764889Y-3838448D01*
X3760368Y-3841089D01*
X3757320Y-3846576D01*
X3757320Y-3852672D01*
X3759352Y-3857548D01*
X3764279Y-3860546D01*
X3776675Y-3863644D01*
X3780028Y-3865829D01*
X3780942Y-3869537D01*
X3779062Y-3874058D01*
X3774236Y-3876090D01*
X3767175Y-3876040D01*
X3759860Y-3873398D01*
X3757320Y-3872280D01*
X3757320Y-3879646D01*
X3767480Y-3881932D01*
X3774643Y-3881932D01*
X3782110Y-3879748D01*
X3786632Y-3874617D01*
X3787394Y-3871315D01*
X3787597Y-3868369D01*
X3787394Y-3863441D01*
X3781856Y-3857904D01*
X3770122Y-3855364D01*
X3765346Y-3853434D01*
X3763975Y-3849827D01*
X3765092Y-3845661D01*
X3770122Y-3843070D01*
X3776726Y-3843121D01*
X3784803Y-3845966D01*
X3785920Y-3846017D01*
X3785920Y-3840073D01*
X3780688Y-3837889D01*
G37*
G36*
X3916121Y-3837889D02*
G01*
X3910126Y-3840683D01*
X3906926Y-3844747D01*
X3906926Y-3838600D01*
X3899966Y-3839057D01*
X3899560Y-3881221D01*
X3906926Y-3881221D01*
X3906926Y-3853891D01*
X3908653Y-3848150D01*
X3912819Y-3844594D01*
X3917848Y-3843680D01*
X3923436Y-3846372D01*
X3925163Y-3851503D01*
X3925265Y-3881221D01*
X3931970Y-3881221D01*
X3931513Y-3846372D01*
X3928567Y-3841394D01*
X3924554Y-3838397D01*
G37*
G36*
X4347413Y-3837889D02*
G01*
X4341418Y-3840683D01*
X4338218Y-3844747D01*
X4338218Y-3838600D01*
X4331258Y-3839057D01*
X4330852Y-3881221D01*
X4338218Y-3881221D01*
X4338218Y-3853891D01*
X4339945Y-3848150D01*
X4344162Y-3844594D01*
X4349140Y-3843680D01*
X4354728Y-3846372D01*
X4356455Y-3851503D01*
X4356557Y-3881221D01*
X4363262Y-3881221D01*
X4362805Y-3846372D01*
X4359859Y-3841394D01*
X4355846Y-3838397D01*
G37*
G36*
X3728313Y-3837940D02*
G01*
X3721709Y-3838092D01*
X3718051Y-3839210D01*
X3713632Y-3841496D01*
X3709060Y-3846372D01*
X3706317Y-3851503D01*
X3706317Y-3856278D01*
X3713276Y-3856278D01*
X3713276Y-3854043D01*
X3715562Y-3848658D01*
X3718051Y-3845814D01*
X3722471Y-3843883D01*
X3728313Y-3843832D01*
X3733037Y-3846677D01*
X3735171Y-3850843D01*
X3736187Y-3856278D01*
X3706317Y-3856278D01*
X3706317Y-3868369D01*
X3709517Y-3874363D01*
X3715410Y-3879697D01*
X3723843Y-3882136D01*
X3733444Y-3881272D01*
X3741165Y-3878986D01*
X3741165Y-3871772D01*
X3733342Y-3875328D01*
X3724503Y-3876294D01*
X3719118Y-3874515D01*
X3714851Y-3870909D01*
X3713378Y-3866184D01*
X3712413Y-3861409D01*
X3742639Y-3861409D01*
X3742639Y-3852672D01*
X3739642Y-3844645D01*
X3733952Y-3839514D01*
G37*
G36*
X3865727Y-3837940D02*
G01*
X3862578Y-3837990D01*
X3856583Y-3840683D01*
X3851859Y-3846372D01*
X3849829Y-3853281D01*
X3857040Y-3853281D01*
X3859326Y-3847896D01*
X3861815Y-3845102D01*
X3864762Y-3843832D01*
X3871315Y-3844391D01*
X3875278Y-3848862D01*
X3876852Y-3854450D01*
X3876852Y-3864711D01*
X3875227Y-3870502D01*
X3870198Y-3875532D01*
X3862882Y-3874820D01*
X3859784Y-3872077D01*
X3857091Y-3866184D01*
X3857040Y-3853281D01*
X3849829Y-3853281D01*
X3849725Y-3865575D01*
X3851859Y-3872788D01*
X3856583Y-3878478D01*
X3862578Y-3881170D01*
X3868115Y-3881221D01*
X3873550Y-3878986D01*
X3876852Y-3874973D01*
X3876852Y-3884523D01*
X3874312Y-3889654D01*
X3869131Y-3892296D01*
X3860901Y-3891635D01*
X3854094Y-3888638D01*
X3854094Y-3895801D01*
X3861917Y-3897528D01*
X3873804Y-3896969D01*
X3880002Y-3892600D01*
X3882694Y-3887419D01*
X3884168Y-3879545D01*
X3884168Y-3839413D01*
X3876852Y-3839413D01*
X3876852Y-3843985D01*
X3873957Y-3840327D01*
X3868928Y-3837940D01*
G37*
G36*
X3967987Y-3837940D02*
G01*
X3961587Y-3838041D01*
X3954779Y-3840124D01*
X3949039Y-3845712D01*
X3946499Y-3851097D01*
X3945551Y-3856278D01*
X3953154Y-3856278D01*
X3953154Y-3853434D01*
X3954729Y-3849319D01*
X3957929Y-3845814D01*
X3962298Y-3843883D01*
X3967429Y-3843832D01*
X3972560Y-3846372D01*
X3975150Y-3851503D01*
X3975150Y-3856278D01*
X3945551Y-3856278D01*
X3944975Y-3859428D01*
X3945991Y-3866896D01*
X3947972Y-3872433D01*
X3951681Y-3877310D01*
X3959351Y-3881577D01*
X3972560Y-3881577D01*
X3980992Y-3878834D01*
X3980992Y-3871874D01*
X3972051Y-3875481D01*
X3964482Y-3876243D01*
X3958386Y-3874617D01*
X3953967Y-3869537D01*
X3952392Y-3864000D01*
X3952392Y-3861409D01*
X3982669Y-3861409D01*
X3981856Y-3850690D01*
X3978656Y-3843782D01*
X3973576Y-3839616D01*
G37*
G36*
X4301896Y-3837940D02*
G01*
X4293870Y-3838041D01*
X4284319Y-3840530D01*
X4283862Y-3847490D01*
X4291634Y-3844442D01*
X4301185Y-3843629D01*
X4306722Y-3845966D01*
X4308906Y-3851097D01*
X4308906Y-3853891D01*
X4291634Y-3854551D01*
X4285792Y-3857599D01*
X4282592Y-3861054D01*
X4281017Y-3865168D01*
X4281017Y-3867251D01*
X4287469Y-3867251D01*
X4289298Y-3862781D01*
X4292854Y-3860444D01*
X4298238Y-3859377D01*
X4308043Y-3859225D01*
X4309008Y-3860749D01*
X4307992Y-3868013D01*
X4304792Y-3872737D01*
X4299712Y-3876192D01*
X4291990Y-3875582D01*
X4288383Y-3872179D01*
X4287469Y-3867251D01*
X4281017Y-3867251D01*
X4281017Y-3871722D01*
X4283049Y-3876446D01*
X4287266Y-3880307D01*
X4292244Y-3881932D01*
X4297527Y-3881932D01*
X4303115Y-3880408D01*
X4308906Y-3875176D01*
X4308906Y-3881221D01*
X4315460Y-3881221D01*
X4315460Y-3849268D01*
X4312208Y-3842715D01*
X4307230Y-3839413D01*
G37*
G36*
X4446981Y-3837940D02*
G01*
X4440529Y-3838041D01*
X4433773Y-3840124D01*
X4428032Y-3845712D01*
X4425492Y-3851097D01*
X4424494Y-3856278D01*
X4432096Y-3856278D01*
X4432096Y-3853434D01*
X4433671Y-3849319D01*
X4436872Y-3845814D01*
X4441291Y-3843883D01*
X4446422Y-3843832D01*
X4451553Y-3846372D01*
X4454093Y-3851503D01*
X4454093Y-3856278D01*
X4424494Y-3856278D01*
X4423918Y-3859428D01*
X4424984Y-3866896D01*
X4426915Y-3872433D01*
X4430623Y-3877310D01*
X4438345Y-3881577D01*
X4451553Y-3881577D01*
X4459986Y-3878834D01*
X4459986Y-3871874D01*
X4451045Y-3875481D01*
X4443476Y-3876243D01*
X4437380Y-3874617D01*
X4432909Y-3869537D01*
X4431385Y-3864000D01*
X4431385Y-3861409D01*
X4461662Y-3861409D01*
X4460849Y-3850690D01*
X4457598Y-3843782D01*
X4452569Y-3839616D01*
G37*
G36*
X4136491Y-3838600D02*
G01*
X4136491Y-3839921D01*
X4152595Y-3880764D01*
X4148734Y-3889349D01*
X4145737Y-3891483D01*
X4139437Y-3891483D01*
X4139437Y-3897376D01*
X4147565Y-3897376D01*
X4153255Y-3894480D01*
X4156303Y-3889501D01*
X4175404Y-3839667D01*
X4175404Y-3838701D01*
X4168851Y-3838701D01*
X4167479Y-3841242D01*
X4156049Y-3871976D01*
X4143501Y-3839057D01*
G37*
G36*
X3806444Y-3839413D02*
G01*
X3806444Y-3844544D01*
X3817467Y-3844544D01*
X3817467Y-3876090D01*
X3803497Y-3876090D01*
X3803497Y-3881221D01*
X3837990Y-3881221D01*
X3837990Y-3876141D01*
X3824427Y-3875735D01*
X3824020Y-3839413D01*
G37*
G36*
X4381500Y-3839413D02*
G01*
X4381500Y-3844544D01*
X4392523Y-3844544D01*
X4392117Y-3875735D01*
X4378553Y-3876141D01*
X4378553Y-3881221D01*
X4413046Y-3881221D01*
X4413046Y-3876090D01*
X4399127Y-3876090D01*
X4399127Y-3839413D01*
G37*
D10*
X1685544Y-5378450D02*
G01*
X1685544Y-5369052D01*
X1694942Y-5350510D01*
X1704086Y-5341365D01*
X1722628Y-5332221D01*
X1759457Y-5332221D01*
X1778000Y-5341365D01*
X1787144Y-5350510D01*
X1796542Y-5369052D01*
X1796542Y-5387594D01*
X1787144Y-5406136D01*
X1768855Y-5433821D01*
X1676400Y-5526023D01*
X1805686Y-5526023D01*
X1940559Y-5332221D02*
G01*
X1866645Y-5526023D01*
X1940559Y-5332221D02*
G01*
X2014474Y-5526023D01*
X1894331Y-5461507D02*
G01*
X1986788Y-5461507D01*
D11*
X6921500Y-2205228D02*
G01*
X6921500Y-2281681D01*
X6921500Y-2205228D02*
G01*
X6954265Y-2205228D01*
X6965188Y-2208784D01*
X6968743Y-2212594D01*
X6972300Y-2219705D01*
X6972300Y-2227071D01*
X6968743Y-2234437D01*
X6965188Y-2237994D01*
X6954265Y-2241550D01*
X6921500Y-2241550D01*
X6946900Y-2241550D02*
G01*
X6972300Y-2281681D01*
X6996429Y-2230628D02*
G01*
X7036308Y-2281681D01*
X7036308Y-2230628D02*
G01*
X6996429Y-2281681D01*
X7197852Y-2205228D02*
G01*
X7197852Y-2281681D01*
X7172452Y-2205228D02*
G01*
X7223252Y-2205228D01*
X7247381Y-2230628D02*
G01*
X7287259Y-2281681D01*
X7287259Y-2230628D02*
G01*
X7247381Y-2281681D01*
X7477759Y-2223515D02*
G01*
X7474204Y-2216150D01*
X7466838Y-2208784D01*
X7459725Y-2205228D01*
X7445247Y-2205228D01*
X7437881Y-2208784D01*
X7430515Y-2216150D01*
X7426959Y-2223515D01*
X7423404Y-2234437D01*
X7423404Y-2252471D01*
X7426959Y-2263394D01*
X7430515Y-2270760D01*
X7437881Y-2278126D01*
X7445247Y-2281681D01*
X7459725Y-2281681D01*
X7466838Y-2278126D01*
X7474204Y-2270760D01*
X7477759Y-2263394D01*
X7477759Y-2252471D01*
X7459725Y-2252471D02*
G01*
X7477759Y-2252471D01*
X7501890Y-2205228D02*
G01*
X7501890Y-2281681D01*
X7501890Y-2205228D02*
G01*
X7552690Y-2281681D01*
X7552690Y-2205228D02*
G01*
X7552690Y-2281681D01*
X7576820Y-2205228D02*
G01*
X7576820Y-2281681D01*
X7576820Y-2205228D02*
G01*
X7602220Y-2205228D01*
X7613141Y-2208784D01*
X7620508Y-2216150D01*
X7624063Y-2223515D01*
X7627620Y-2234437D01*
X7627620Y-2252471D01*
X7624063Y-2263394D01*
X7620508Y-2270760D01*
X7613141Y-2278126D01*
X7602220Y-2281681D01*
X7576820Y-2281681D01*
X6489700Y-5177028D02*
G01*
X6489700Y-5253481D01*
X6489700Y-5177028D02*
G01*
X6522465Y-5177028D01*
X6533388Y-5180584D01*
X6536943Y-5184394D01*
X6540500Y-5191505D01*
X6540500Y-5202428D01*
X6536943Y-5209794D01*
X6533388Y-5213350D01*
X6522465Y-5217160D01*
X6489700Y-5217160D01*
X6564629Y-5177028D02*
G01*
X6582663Y-5253481D01*
X6600952Y-5177028D02*
G01*
X6582663Y-5253481D01*
X6600952Y-5177028D02*
G01*
X6619240Y-5253481D01*
X6637274Y-5177028D02*
G01*
X6619240Y-5253481D01*
X6661404Y-5177028D02*
G01*
X6661404Y-5253481D01*
X6661404Y-5177028D02*
G01*
X6690359Y-5253481D01*
X6719570Y-5177028D02*
G01*
X6690359Y-5253481D01*
X6719570Y-5177028D02*
G01*
X6719570Y-5253481D01*
X6824979Y-5177028D02*
G01*
X6824979Y-5253481D01*
X6799579Y-5177028D02*
G01*
X6850379Y-5177028D01*
X6917943Y-5213350D02*
G01*
X6910831Y-5206237D01*
X6903465Y-5202428D01*
X6892543Y-5202428D01*
X6885431Y-5206237D01*
X6878065Y-5213350D01*
X6874509Y-5224271D01*
X6874509Y-5231637D01*
X6878065Y-5242560D01*
X6885431Y-5249926D01*
X6892543Y-5253481D01*
X6903465Y-5253481D01*
X6910831Y-5249926D01*
X6917943Y-5242560D01*
X6942074Y-5177028D02*
G01*
X6942074Y-5253481D01*
X6942074Y-5217160D02*
G01*
X6952995Y-5206237D01*
X6960361Y-5202428D01*
X6971029Y-5202428D01*
X6978395Y-5206237D01*
X6981952Y-5217160D01*
X6981952Y-5253481D01*
X7061961Y-5191505D02*
G01*
X7069327Y-5187950D01*
X7080250Y-5177028D01*
X7080250Y-5253481D01*
X7107936Y-5195315D02*
G01*
X7107936Y-5191505D01*
X7111491Y-5184394D01*
X7115047Y-5180584D01*
X7122413Y-5177028D01*
X7136891Y-5177028D01*
X7144258Y-5180584D01*
X7147813Y-5184394D01*
X7151624Y-5191505D01*
X7151624Y-5198871D01*
X7147813Y-5206237D01*
X7140702Y-5217160D01*
X7104125Y-5253481D01*
X7155179Y-5253481D01*
X7179056Y-5177028D02*
G01*
X7208265Y-5253481D01*
X7237222Y-5177028D02*
G01*
X7208265Y-5253481D01*
X7371841Y-5195315D02*
G01*
X7368286Y-5187950D01*
X7360920Y-5180584D01*
X7353808Y-5177028D01*
X7339075Y-5177028D01*
X7331963Y-5180584D01*
X7324597Y-5187950D01*
X7321041Y-5195315D01*
X7317231Y-5206237D01*
X7317231Y-5224271D01*
X7321041Y-5235194D01*
X7324597Y-5242560D01*
X7331963Y-5249926D01*
X7339075Y-5253481D01*
X7353808Y-5253481D01*
X7360920Y-5249926D01*
X7368286Y-5242560D01*
X7371841Y-5235194D01*
X7371841Y-5224271D01*
X7353808Y-5224271D02*
G01*
X7371841Y-5224271D01*
X7395972Y-5177028D02*
G01*
X7395972Y-5253481D01*
X7395972Y-5177028D02*
G01*
X7446772Y-5253481D01*
X7446772Y-5177028D02*
G01*
X7446772Y-5253481D01*
X7470902Y-5177028D02*
G01*
X7470902Y-5253481D01*
X7470902Y-5177028D02*
G01*
X7496302Y-5177028D01*
X7507224Y-5180584D01*
X7514336Y-5187950D01*
X7518145Y-5195315D01*
X7521702Y-5206237D01*
X7521702Y-5224271D01*
X7518145Y-5235194D01*
X7514336Y-5242560D01*
X7507224Y-5249926D01*
X7496302Y-5253481D01*
X7470902Y-5253481D01*
X7200900Y-1200150D02*
G01*
X7193788Y-1192784D01*
X7182865Y-1189228D01*
X7168388Y-1189228D01*
X7157465Y-1192784D01*
X7150100Y-1200150D01*
X7150100Y-1207515D01*
X7153656Y-1214628D01*
X7157465Y-1218437D01*
X7164577Y-1221994D01*
X7186422Y-1229360D01*
X7193788Y-1232915D01*
X7197343Y-1236471D01*
X7200900Y-1243837D01*
X7200900Y-1254760D01*
X7193788Y-1262126D01*
X7182865Y-1265681D01*
X7168388Y-1265681D01*
X7157465Y-1262126D01*
X7150100Y-1254760D01*
X7225029Y-1189228D02*
G01*
X7228586Y-1192784D01*
X7232395Y-1189228D01*
X7228586Y-1185671D01*
X7225029Y-1189228D01*
X7228586Y-1214628D02*
G01*
X7228586Y-1265681D01*
X7299959Y-1214628D02*
G01*
X7299959Y-1272794D01*
X7296404Y-1283715D01*
X7292593Y-1287526D01*
X7285481Y-1291081D01*
X7274559Y-1291081D01*
X7267193Y-1287526D01*
X7299959Y-1225550D02*
G01*
X7292593Y-1218437D01*
X7285481Y-1214628D01*
X7274559Y-1214628D01*
X7267193Y-1218437D01*
X7259827Y-1225550D01*
X7256272Y-1236471D01*
X7256272Y-1243837D01*
X7259827Y-1254760D01*
X7267193Y-1262126D01*
X7274559Y-1265681D01*
X7285481Y-1265681D01*
X7292593Y-1262126D01*
X7299959Y-1254760D01*
X7204709Y-1461515D02*
G01*
X7200900Y-1454150D01*
X7193788Y-1446784D01*
X7186422Y-1443228D01*
X7171943Y-1443228D01*
X7164577Y-1446784D01*
X7157465Y-1454150D01*
X7153656Y-1461515D01*
X7150100Y-1472437D01*
X7150100Y-1490471D01*
X7153656Y-1501394D01*
X7157465Y-1508760D01*
X7164577Y-1516126D01*
X7171943Y-1519681D01*
X7186422Y-1519681D01*
X7193788Y-1516126D01*
X7200900Y-1508760D01*
X7204709Y-1501394D01*
X7204709Y-1490471D01*
X7186422Y-1490471D02*
G01*
X7204709Y-1490471D01*
X7228586Y-1443228D02*
G01*
X7228586Y-1519681D01*
X7228586Y-1443228D02*
G01*
X7279640Y-1519681D01*
X7279640Y-1443228D02*
G01*
X7279640Y-1519681D01*
X7303515Y-1443228D02*
G01*
X7303515Y-1519681D01*
X7303515Y-1443228D02*
G01*
X7328915Y-1443228D01*
X7339838Y-1446784D01*
X7347204Y-1454150D01*
X7350759Y-1461515D01*
X7354570Y-1472437D01*
X7354570Y-1490471D01*
X7350759Y-1501394D01*
X7347204Y-1508760D01*
X7339838Y-1516126D01*
X7328915Y-1519681D01*
X7303515Y-1519681D01*
X7157465Y-1697228D02*
G01*
X7197343Y-1697228D01*
X7175500Y-1726437D01*
X7186422Y-1726437D01*
X7193788Y-1729994D01*
X7197343Y-1733550D01*
X7200900Y-1744471D01*
X7200900Y-1751837D01*
X7197343Y-1762760D01*
X7189977Y-1770126D01*
X7179309Y-1773681D01*
X7168388Y-1773681D01*
X7157465Y-1770126D01*
X7153656Y-1766315D01*
X7150100Y-1759204D01*
X7225029Y-1697228D02*
G01*
X7253986Y-1773681D01*
X7283195Y-1697228D02*
G01*
X7253986Y-1773681D01*
X7314438Y-1697228D02*
G01*
X7354570Y-1697228D01*
X7332725Y-1726437D01*
X7343647Y-1726437D01*
X7350759Y-1729994D01*
X7354570Y-1733550D01*
X7358125Y-1744471D01*
X7358125Y-1751837D01*
X7354570Y-1762760D01*
X7347204Y-1770126D01*
X7336281Y-1773681D01*
X7325359Y-1773681D01*
X7314438Y-1770126D01*
X7310881Y-1766315D01*
X7307072Y-1759204D01*
D12*
X7549388Y-1967484D02*
G01*
X7549388Y-2076450D01*
X7513065Y-1967484D02*
G01*
X7585709Y-1967484D01*
X7620000Y-1988312D02*
G01*
X7630413Y-1982978D01*
X7645908Y-1967484D01*
X7645908Y-2076450D01*
X6894322Y-1954784D02*
G01*
X6894322Y-2063750D01*
X6858000Y-1954784D02*
G01*
X6930643Y-1954784D01*
X6970268Y-1980692D02*
G01*
X6970268Y-1975612D01*
X6975347Y-1965197D01*
X6980681Y-1959863D01*
X6991095Y-1954784D01*
X7011670Y-1954784D01*
X7022084Y-1959863D01*
X7027418Y-1965197D01*
X7032497Y-1975612D01*
X7032497Y-1986026D01*
X7027418Y-1996439D01*
X7017004Y-2011934D01*
X6964934Y-2063750D01*
X7037831Y-2063750D01*
X6259322Y-1954784D02*
G01*
X6259322Y-2063750D01*
X6223000Y-1954784D02*
G01*
X6295643Y-1954784D01*
X6340347Y-1954784D02*
G01*
X6397497Y-1954784D01*
X6366509Y-1996439D01*
X6382004Y-1996439D01*
X6392418Y-2001520D01*
X6397497Y-2006600D01*
X6402831Y-2022347D01*
X6402831Y-2032762D01*
X6397497Y-2048255D01*
X6387084Y-2058670D01*
X6371590Y-2063750D01*
X6356095Y-2063750D01*
X6340347Y-2058670D01*
X6335268Y-2053589D01*
X6329934Y-2043176D01*
X7632700Y-4875784D02*
G01*
X7632700Y-4984750D01*
X7632700Y-4875784D02*
G01*
X7674356Y-4984750D01*
X7715758Y-4875784D02*
G01*
X7674356Y-4984750D01*
X7715758Y-4875784D02*
G01*
X7715758Y-4984750D01*
X7750047Y-4896612D02*
G01*
X7760461Y-4891278D01*
X7776209Y-4875784D01*
X7776209Y-4984750D01*
X7620000Y-5459984D02*
G01*
X7620000Y-5568950D01*
X7620000Y-5459984D02*
G01*
X7661656Y-5568950D01*
X7703058Y-5459984D02*
G01*
X7661656Y-5568950D01*
X7703058Y-5459984D02*
G01*
X7703058Y-5568950D01*
X7742681Y-5485892D02*
G01*
X7742681Y-5480812D01*
X7747761Y-5470397D01*
X7753095Y-5465063D01*
X7763509Y-5459984D01*
X7784084Y-5459984D01*
X7794497Y-5465063D01*
X7799831Y-5470397D01*
X7804911Y-5480812D01*
X7804911Y-5491226D01*
X7799831Y-5501639D01*
X7789418Y-5517134D01*
X7737347Y-5568950D01*
X7810245Y-5568950D01*
X7745984Y-2628900D02*
G01*
X7823961Y-2628900D01*
X7839456Y-2623820D01*
X7849870Y-2613405D01*
X7854950Y-2597657D01*
X7854950Y-2587244D01*
X7849870Y-2571750D01*
X7839456Y-2561336D01*
X7823961Y-2556255D01*
X7745984Y-2556255D01*
X7745984Y-2480310D02*
G01*
X7854950Y-2521965D01*
X7745984Y-2480310D02*
G01*
X7854950Y-2438654D01*
X7818627Y-2506218D02*
G01*
X7818627Y-2454402D01*
X7745984Y-2404363D02*
G01*
X7854950Y-2404363D01*
X7745984Y-2404363D02*
G01*
X7745984Y-2357628D01*
X7751063Y-2342134D01*
X7756397Y-2336800D01*
X7766811Y-2331720D01*
X7777225Y-2331720D01*
X7787640Y-2336800D01*
X7792720Y-2342134D01*
X7797800Y-2357628D01*
X7797800Y-2404363D01*
X7797800Y-2368042D02*
G01*
X7854950Y-2331720D01*
X7745984Y-2261107D02*
G01*
X7854950Y-2261107D01*
X7745984Y-2297429D02*
G01*
X7745984Y-2224786D01*
X241300Y-5036312D02*
G01*
X251713Y-5030978D01*
X267207Y-5015484D01*
X267207Y-5124450D01*
X306831Y-5041392D02*
G01*
X306831Y-5036312D01*
X311912Y-5025897D01*
X317245Y-5020563D01*
X327660Y-5015484D01*
X348234Y-5015484D01*
X358647Y-5020563D01*
X363981Y-5025897D01*
X369062Y-5036312D01*
X369062Y-5046726D01*
X363981Y-5057139D01*
X353568Y-5072634D01*
X301497Y-5124450D01*
X374395Y-5124450D01*
X408686Y-5015484D02*
G01*
X450087Y-5124450D01*
X491744Y-5015484D02*
G01*
X450087Y-5124450D01*
X7506258Y-379984D02*
G01*
X7506258Y-457962D01*
X7511338Y-473455D01*
X7521752Y-483870D01*
X7537500Y-488950D01*
X7547914Y-488950D01*
X7563408Y-483870D01*
X7573822Y-473455D01*
X7578902Y-457962D01*
X7578902Y-379984D01*
X7613192Y-400812D02*
G01*
X7623606Y-395478D01*
X7639354Y-379984D01*
X7639354Y-488950D01*
X7673644Y-400812D02*
G01*
X7684058Y-395478D01*
X7699552Y-379984D01*
X7699552Y-488950D01*
X279400Y-6026835D02*
G01*
X279400Y-6104813D01*
X284479Y-6120307D01*
X294894Y-6130721D01*
X310642Y-6135801D01*
X321055Y-6135801D01*
X336550Y-6130721D01*
X346963Y-6120307D01*
X352044Y-6104813D01*
X352044Y-6026835D01*
X386334Y-6047663D02*
G01*
X396747Y-6042329D01*
X412495Y-6026835D01*
X412495Y-6135801D01*
X451865Y-6052743D02*
G01*
X451865Y-6047663D01*
X457200Y-6037249D01*
X462279Y-6031915D01*
X472694Y-6026835D01*
X493521Y-6026835D01*
X503936Y-6031915D01*
X509015Y-6037249D01*
X514350Y-6047663D01*
X514350Y-6058077D01*
X509015Y-6068491D01*
X498602Y-6083985D01*
X446786Y-6135801D01*
X519429Y-6135801D01*
X7468158Y-6052235D02*
G01*
X7468158Y-6130213D01*
X7473238Y-6145707D01*
X7483652Y-6156121D01*
X7499400Y-6161201D01*
X7509814Y-6161201D01*
X7525308Y-6156121D01*
X7535722Y-6145707D01*
X7540802Y-6130213D01*
X7540802Y-6052235D01*
X7575092Y-6073063D02*
G01*
X7585506Y-6067729D01*
X7601254Y-6052235D01*
X7601254Y-6161201D01*
X7645958Y-6052235D02*
G01*
X7703108Y-6052235D01*
X7671866Y-6093891D01*
X7687360Y-6093891D01*
X7697774Y-6098971D01*
X7703108Y-6104051D01*
X7708188Y-6119799D01*
X7708188Y-6130213D01*
X7703108Y-6145707D01*
X7692694Y-6156121D01*
X7676946Y-6161201D01*
X7661452Y-6161201D01*
X7645958Y-6156121D01*
X7640624Y-6151041D01*
X7635544Y-6140627D01*
X266700Y-341884D02*
G01*
X266700Y-419862D01*
X271779Y-435355D01*
X282194Y-445770D01*
X297942Y-450850D01*
X308355Y-450850D01*
X323850Y-445770D01*
X334263Y-435355D01*
X339344Y-419862D01*
X339344Y-341884D01*
X373634Y-362712D02*
G01*
X384047Y-357378D01*
X399795Y-341884D01*
X399795Y-450850D01*
X465073Y-341884D02*
G01*
X449579Y-346963D01*
X439165Y-362712D01*
X434086Y-388620D01*
X434086Y-404113D01*
X439165Y-430276D01*
X449579Y-445770D01*
X465073Y-450850D01*
X475487Y-450850D01*
X491236Y-445770D01*
X501650Y-430276D01*
X506729Y-404113D01*
X506729Y-388620D01*
X501650Y-362712D01*
X491236Y-346963D01*
X475487Y-341884D01*
X465073Y-341884D01*
X2209800Y-4990084D02*
G01*
X2209800Y-5099050D01*
X2209800Y-4990084D02*
G01*
X2277363Y-4990084D01*
X2209800Y-5041900D02*
G01*
X2251456Y-5041900D01*
X2311654Y-5010912D02*
G01*
X2322068Y-5005578D01*
X2337561Y-4990084D01*
X2337561Y-5099050D01*
D10*
X2159000Y-5332221D02*
G01*
X2159000Y-5526023D01*
X2159000Y-5332221D02*
G01*
X2279141Y-5332221D01*
X2159000Y-5424423D02*
G01*
X2232913Y-5424423D01*
X2340102Y-5396737D02*
G01*
X2340102Y-5489194D01*
X2349245Y-5516879D01*
X2367788Y-5526023D01*
X2395474Y-5526023D01*
X2414015Y-5516879D01*
X2441702Y-5489194D01*
X2441702Y-5396737D02*
G01*
X2441702Y-5526023D01*
X2604261Y-5424423D02*
G01*
X2594863Y-5406136D01*
X2567177Y-5396737D01*
X2539491Y-5396737D01*
X2511806Y-5406136D01*
X2502661Y-5424423D01*
X2511806Y-5442965D01*
X2530347Y-5452110D01*
X2576575Y-5461507D01*
X2594863Y-5470652D01*
X2604261Y-5489194D01*
X2604261Y-5498337D01*
X2594863Y-5516879D01*
X2567177Y-5526023D01*
X2539491Y-5526023D01*
X2511806Y-5516879D01*
X2502661Y-5498337D01*
X2665222Y-5452110D02*
G01*
X2775965Y-5452110D01*
X2775965Y-5433821D01*
X2766822Y-5415279D01*
X2757424Y-5406136D01*
X2739136Y-5396737D01*
X2711450Y-5396737D01*
X2692908Y-5406136D01*
X2674365Y-5424423D01*
X2665222Y-5452110D01*
X2665222Y-5470652D01*
X2674365Y-5498337D01*
X2692908Y-5516879D01*
X2711450Y-5526023D01*
X2739136Y-5526023D01*
X2757424Y-5516879D01*
X2775965Y-5498337D01*
X1710944Y-5738621D02*
G01*
X1618742Y-5738621D01*
X1609344Y-5821679D01*
X1618742Y-5812536D01*
X1646428Y-5803137D01*
X1674113Y-5803137D01*
X1701800Y-5812536D01*
X1720342Y-5830823D01*
X1729486Y-5858510D01*
X1729486Y-5877052D01*
X1720342Y-5904737D01*
X1701800Y-5923279D01*
X1674113Y-5932423D01*
X1646428Y-5932423D01*
X1618742Y-5923279D01*
X1609344Y-5914136D01*
X1600200Y-5895594D01*
X1790445Y-5803137D02*
G01*
X1892045Y-5932423D01*
X1892045Y-5803137D02*
G01*
X1790445Y-5932423D01*
X1962150Y-5784850D02*
G01*
X1962150Y-5775452D01*
X1971547Y-5756910D01*
X1980691Y-5747765D01*
X1999234Y-5738621D01*
X2036063Y-5738621D01*
X2054606Y-5747765D01*
X2063750Y-5756910D01*
X2073147Y-5775452D01*
X2073147Y-5793994D01*
X2063750Y-5812536D01*
X2045461Y-5840221D01*
X1953006Y-5932423D01*
X2082291Y-5932423D01*
X2198624Y-5738621D02*
G01*
X2170938Y-5747765D01*
X2152650Y-5775452D01*
X2143252Y-5821679D01*
X2143252Y-5849365D01*
X2152650Y-5895594D01*
X2170938Y-5923279D01*
X2198624Y-5932423D01*
X2217165Y-5932423D01*
X2244852Y-5923279D01*
X2263393Y-5895594D01*
X2272538Y-5849365D01*
X2272538Y-5821679D01*
X2263393Y-5775452D01*
X2244852Y-5747765D01*
X2217165Y-5738621D01*
X2198624Y-5738621D01*
X2333497Y-5803137D02*
G01*
X2333497Y-5932423D01*
X2333497Y-5840221D02*
G01*
X2361184Y-5812536D01*
X2379725Y-5803137D01*
X2407411Y-5803137D01*
X2425954Y-5812536D01*
X2435097Y-5840221D01*
X2435097Y-5932423D01*
X2435097Y-5840221D02*
G01*
X2462784Y-5812536D01*
X2481325Y-5803137D01*
X2509011Y-5803137D01*
X2527554Y-5812536D01*
X2536697Y-5840221D01*
X2536697Y-5932423D01*
X2597658Y-5803137D02*
G01*
X2597658Y-5932423D01*
X2597658Y-5840221D02*
G01*
X2625343Y-5812536D01*
X2643886Y-5803137D01*
X2671572Y-5803137D01*
X2690113Y-5812536D01*
X2699258Y-5840221D01*
X2699258Y-5932423D01*
X2699258Y-5840221D02*
G01*
X2726943Y-5812536D01*
X2745486Y-5803137D01*
X2773172Y-5803137D01*
X2791713Y-5812536D01*
X2800858Y-5840221D01*
X2800858Y-5932423D01*
D12*
X5156200Y-5360413D02*
G01*
X5156200Y-5282435D01*
X5151120Y-5266941D01*
X5140706Y-5256527D01*
X5124958Y-5251447D01*
X5114543Y-5251447D01*
X5099050Y-5256527D01*
X5088636Y-5266941D01*
X5083556Y-5282435D01*
X5083556Y-5360413D01*
X4997195Y-5360413D02*
G01*
X5049265Y-5287769D01*
X4971288Y-5287769D01*
X4997195Y-5360413D02*
G01*
X4997195Y-5251447D01*
D10*
X4958841Y-4800094D02*
G01*
X4958841Y-4633978D01*
X5041900Y-4717036D02*
G01*
X4875529Y-4717036D01*
X5041900Y-5910834D02*
G01*
X4875529Y-5910834D01*
X5905500Y-5424678D02*
G01*
X5905500Y-5230876D01*
X5844540Y-5424678D02*
G01*
X5844540Y-5230876D01*
X5844540Y-5424678D02*
G01*
X5715254Y-5230876D01*
X5715254Y-5424678D02*
G01*
X5715254Y-5230876D01*
X4465825Y-5424680D02*
G01*
X4484367Y-5415536D01*
X4502655Y-5396994D01*
X4512053Y-5378452D01*
X4521197Y-5350766D01*
X4521197Y-5304792D01*
X4512053Y-5276852D01*
X4502655Y-5258564D01*
X4484367Y-5240022D01*
X4465825Y-5230878D01*
X4428741Y-5230878D01*
X4410453Y-5240022D01*
X4391911Y-5258564D01*
X4382767Y-5276852D01*
X4373369Y-5304792D01*
X4373369Y-5350766D01*
X4382767Y-5378452D01*
X4391911Y-5396994D01*
X4410453Y-5415536D01*
X4428741Y-5424680D01*
X4465825Y-5424680D01*
X4312409Y-5424680D02*
G01*
X4312409Y-5286250D01*
X4303265Y-5258564D01*
X4284723Y-5240022D01*
X4257037Y-5230878D01*
X4238495Y-5230878D01*
X4210809Y-5240022D01*
X4192267Y-5258564D01*
X4183123Y-5286250D01*
X4183123Y-5424680D01*
X4057647Y-5424680D02*
G01*
X4057647Y-5230878D01*
X4122163Y-5424680D02*
G01*
X3992877Y-5424680D01*
D12*
X4586477Y-4012692D02*
G01*
X4581143Y-4002278D01*
X4570729Y-3991863D01*
X4560570Y-3986784D01*
X4539741Y-3986784D01*
X4529327Y-3991863D01*
X4518913Y-4002278D01*
X4513579Y-4012692D01*
X4508500Y-4028439D01*
X4508500Y-4054347D01*
X4513579Y-4069842D01*
X4518913Y-4080255D01*
X4529327Y-4090670D01*
X4539741Y-4095750D01*
X4560570Y-4095750D01*
X4570729Y-4090670D01*
X4581143Y-4080255D01*
X4586477Y-4069842D01*
X4631181Y-3986784D02*
G01*
X4688331Y-3986784D01*
X4657090Y-4028439D01*
X4672584Y-4028439D01*
X4682997Y-4033520D01*
X4688331Y-4038600D01*
X4693411Y-4054347D01*
X4693411Y-4064762D01*
X4688331Y-4080255D01*
X4677918Y-4090670D01*
X4662170Y-4095750D01*
X4646675Y-4095750D01*
X4631181Y-4090670D01*
X4625847Y-4085589D01*
X4620768Y-4075176D01*
X1055878Y-3530092D02*
G01*
X1050544Y-3519678D01*
X1040129Y-3509263D01*
X1029970Y-3504184D01*
X1009142Y-3504184D01*
X998728Y-3509263D01*
X988313Y-3519678D01*
X982979Y-3530092D01*
X977900Y-3545839D01*
X977900Y-3571747D01*
X982979Y-3587242D01*
X988313Y-3597655D01*
X998728Y-3608070D01*
X1009142Y-3613150D01*
X1029970Y-3613150D01*
X1040129Y-3608070D01*
X1050544Y-3597655D01*
X1055878Y-3587242D01*
X1152397Y-3504184D02*
G01*
X1100581Y-3504184D01*
X1095247Y-3550920D01*
X1100581Y-3545839D01*
X1116076Y-3540505D01*
X1131570Y-3540505D01*
X1147318Y-3545839D01*
X1157731Y-3556000D01*
X1162812Y-3571747D01*
X1162812Y-3582162D01*
X1157731Y-3597655D01*
X1147318Y-3608070D01*
X1131570Y-3613150D01*
X1116076Y-3613150D01*
X1100581Y-3608070D01*
X1095247Y-3602989D01*
X1090168Y-3592576D01*
X5905500Y-1116584D02*
G01*
X5905500Y-1225550D01*
X5905500Y-1116584D02*
G01*
X5952236Y-1116584D01*
X5967729Y-1121663D01*
X5973063Y-1126997D01*
X5978143Y-1137412D01*
X5978143Y-1147826D01*
X5973063Y-1158239D01*
X5967729Y-1163320D01*
X5952236Y-1168400D01*
X5905500Y-1168400D01*
X5941822Y-1168400D02*
G01*
X5978143Y-1225550D01*
X6012434Y-1137412D02*
G01*
X6022847Y-1132078D01*
X6038595Y-1116584D01*
X6038595Y-1225550D01*
X3937000Y-646684D02*
G01*
X3937000Y-755650D01*
X3937000Y-646684D02*
G01*
X3983736Y-646684D01*
X3999229Y-651763D01*
X4004563Y-657097D01*
X4009643Y-667512D01*
X4009643Y-677926D01*
X4004563Y-688339D01*
X3999229Y-693420D01*
X3983736Y-698500D01*
X3937000Y-698500D01*
X3973322Y-698500D02*
G01*
X4009643Y-755650D01*
X4049268Y-672592D02*
G01*
X4049268Y-667512D01*
X4054347Y-657097D01*
X4059681Y-651763D01*
X4070095Y-646684D01*
X4090670Y-646684D01*
X4101084Y-651763D01*
X4106418Y-657097D01*
X4111497Y-667512D01*
X4111497Y-677926D01*
X4106418Y-688339D01*
X4096004Y-703834D01*
X4043934Y-755650D01*
X4116831Y-755650D01*
X2006600Y-646684D02*
G01*
X2006600Y-755650D01*
X2006600Y-646684D02*
G01*
X2053336Y-646684D01*
X2068829Y-651763D01*
X2074163Y-657097D01*
X2079243Y-667512D01*
X2079243Y-677926D01*
X2074163Y-688339D01*
X2068829Y-693420D01*
X2053336Y-698500D01*
X2006600Y-698500D01*
X2042922Y-698500D02*
G01*
X2079243Y-755650D01*
X2123947Y-646684D02*
G01*
X2181097Y-646684D01*
X2150109Y-688339D01*
X2165604Y-688339D01*
X2176018Y-693420D01*
X2181097Y-698500D01*
X2186431Y-714247D01*
X2186431Y-724662D01*
X2181097Y-740155D01*
X2170684Y-750570D01*
X2155190Y-755650D01*
X2139695Y-755650D01*
X2123947Y-750570D01*
X2118868Y-745489D01*
X2113534Y-735076D01*
X5167884Y-1054100D02*
G01*
X5276850Y-1054100D01*
X5167884Y-1054100D02*
G01*
X5167884Y-1007363D01*
X5172963Y-991870D01*
X5178297Y-986536D01*
X5188711Y-981455D01*
X5199125Y-981455D01*
X5209540Y-986536D01*
X5214620Y-991870D01*
X5219700Y-1007363D01*
X5219700Y-1054100D01*
X5219700Y-1017778D02*
G01*
X5276850Y-981455D01*
X5167884Y-895095D02*
G01*
X5240527Y-947165D01*
X5240527Y-869187D01*
X5167884Y-895095D02*
G01*
X5276850Y-895095D01*
X7162800Y-4215384D02*
G01*
X7162800Y-4324350D01*
X7162800Y-4215384D02*
G01*
X7209536Y-4215384D01*
X7225029Y-4220463D01*
X7230363Y-4225797D01*
X7235443Y-4236212D01*
X7235443Y-4246626D01*
X7230363Y-4257039D01*
X7225029Y-4262120D01*
X7209536Y-4267200D01*
X7162800Y-4267200D01*
X7199122Y-4267200D02*
G01*
X7235443Y-4324350D01*
X7332218Y-4215384D02*
G01*
X7280147Y-4215384D01*
X7275068Y-4262120D01*
X7280147Y-4257039D01*
X7295895Y-4251705D01*
X7311390Y-4251705D01*
X7326884Y-4257039D01*
X7337297Y-4267200D01*
X7342631Y-4282947D01*
X7342631Y-4293362D01*
X7337297Y-4308855D01*
X7326884Y-4319270D01*
X7311390Y-4324350D01*
X7295895Y-4324350D01*
X7280147Y-4319270D01*
X7275068Y-4314189D01*
X7269734Y-4303776D01*
X7162800Y-4570984D02*
G01*
X7162800Y-4679950D01*
X7162800Y-4570984D02*
G01*
X7209536Y-4570984D01*
X7225029Y-4576063D01*
X7230363Y-4581397D01*
X7235443Y-4591812D01*
X7235443Y-4602226D01*
X7230363Y-4612639D01*
X7225029Y-4617720D01*
X7209536Y-4622800D01*
X7162800Y-4622800D01*
X7199122Y-4622800D02*
G01*
X7235443Y-4679950D01*
X7332218Y-4586478D02*
G01*
X7326884Y-4576063D01*
X7311390Y-4570984D01*
X7300975Y-4570984D01*
X7285481Y-4576063D01*
X7275068Y-4591812D01*
X7269734Y-4617720D01*
X7269734Y-4643628D01*
X7275068Y-4664455D01*
X7285481Y-4674870D01*
X7300975Y-4679950D01*
X7306309Y-4679950D01*
X7321804Y-4674870D01*
X7332218Y-4664455D01*
X7337297Y-4648962D01*
X7337297Y-4643628D01*
X7332218Y-4628134D01*
X7321804Y-4617720D01*
X7306309Y-4612639D01*
X7300975Y-4612639D01*
X7285481Y-4617720D01*
X7275068Y-4628134D01*
X7269734Y-4643628D01*
X6438900Y-176784D02*
G01*
X6438900Y-285750D01*
X6438900Y-176784D02*
G01*
X6485636Y-176784D01*
X6501129Y-181863D01*
X6506463Y-187197D01*
X6511543Y-197612D01*
X6511543Y-208026D01*
X6506463Y-218439D01*
X6501129Y-223520D01*
X6485636Y-228600D01*
X6438900Y-228600D01*
X6475222Y-228600D02*
G01*
X6511543Y-285750D01*
X6618731Y-176784D02*
G01*
X6566661Y-285750D01*
X6545834Y-176784D02*
G01*
X6618731Y-176784D01*
X3697477Y-4126992D02*
G01*
X3692143Y-4116578D01*
X3681729Y-4106163D01*
X3671570Y-4101084D01*
X3650741Y-4101084D01*
X3640327Y-4106163D01*
X3629913Y-4116578D01*
X3624579Y-4126992D01*
X3619500Y-4142739D01*
X3619500Y-4168647D01*
X3624579Y-4184142D01*
X3629913Y-4194555D01*
X3640327Y-4204970D01*
X3650741Y-4210050D01*
X3671570Y-4210050D01*
X3681729Y-4204970D01*
X3692143Y-4194555D01*
X3697477Y-4184142D01*
X3783584Y-4101084D02*
G01*
X3731768Y-4173728D01*
X3809745Y-4173728D01*
X3783584Y-4101084D02*
G01*
X3783584Y-4210050D01*
X2756105Y-3566845D02*
G01*
X2750591Y-3556525D01*
X2739997Y-3546297D01*
X2729750Y-3541395D01*
X2708925Y-3541758D01*
X2698602Y-3547018D01*
X2688371Y-3557612D01*
X2683220Y-3568118D01*
X2678414Y-3583952D01*
X2678866Y-3609855D01*
X2684216Y-3625260D01*
X2689733Y-3635578D01*
X2700324Y-3645809D01*
X2710827Y-3650706D01*
X2731653Y-3650343D01*
X2741721Y-3645087D01*
X2751952Y-3634493D01*
X2757103Y-3623988D01*
X2852430Y-3554747D02*
G01*
X2847169Y-3544425D01*
X2831335Y-3539622D01*
X2821175Y-3539797D01*
X2805518Y-3545151D01*
X2795381Y-3561079D01*
X2790753Y-3587071D01*
X2791206Y-3612977D01*
X2796649Y-3633711D01*
X2807243Y-3643942D01*
X2823077Y-3648748D01*
X2828157Y-3648659D01*
X2843560Y-3643309D01*
X2853791Y-3632715D01*
X2858853Y-3617130D01*
X2858759Y-3611796D01*
X2853156Y-3596398D01*
X2842562Y-3586167D01*
X2826981Y-3581359D01*
X2821904Y-3581448D01*
X2806245Y-3586802D01*
X2796016Y-3597396D01*
X2791206Y-3612977D01*
X1600200Y-2119884D02*
G01*
X1600200Y-2197862D01*
X1605279Y-2213355D01*
X1615694Y-2223770D01*
X1631442Y-2228850D01*
X1641855Y-2228850D01*
X1657350Y-2223770D01*
X1667763Y-2213355D01*
X1672844Y-2197862D01*
X1672844Y-2119884D01*
X1707134Y-2140712D02*
G01*
X1717547Y-2135378D01*
X1733295Y-2119884D01*
X1733295Y-2228850D01*
D10*
X494284Y-1313687D02*
G01*
X494284Y-1245615D01*
X432815Y-1238757D01*
X439673Y-1245615D01*
X446531Y-1265936D01*
X446531Y-1286510D01*
X439673Y-1306829D01*
X425957Y-1320545D01*
X405637Y-1327404D01*
X391921Y-1327404D01*
X371602Y-1320545D01*
X357886Y-1306829D01*
X351028Y-1286510D01*
X351028Y-1265936D01*
X357886Y-1245615D01*
X364744Y-1238757D01*
X378460Y-1231900D01*
X494284Y-1372362D02*
G01*
X351028Y-1426971D01*
X494284Y-1481328D02*
G01*
X351028Y-1426971D01*
X5032247Y-2832862D02*
G01*
X5045709Y-2826004D01*
X5059425Y-2812287D01*
X5066284Y-2798571D01*
X5066284Y-2771394D01*
X5059425Y-2757678D01*
X5045709Y-2744215D01*
X5032247Y-2737357D01*
X5011674Y-2730500D01*
X4977638Y-2730500D01*
X4957063Y-2737357D01*
X4943602Y-2744215D01*
X4929886Y-2757678D01*
X4923027Y-2771394D01*
X4923027Y-2798571D01*
X4929886Y-2812287D01*
X4943602Y-2826004D01*
X4957063Y-2832862D01*
X4977638Y-2832862D01*
X4977638Y-2798571D02*
G01*
X4977638Y-2832862D01*
X5066284Y-2877820D02*
G01*
X4923027Y-2877820D01*
X5066284Y-2877820D02*
G01*
X4923027Y-2973323D01*
X5066284Y-2973323D02*
G01*
X4923027Y-2973323D01*
X5066284Y-3018281D02*
G01*
X4923027Y-3018281D01*
X5066284Y-3018281D02*
G01*
X5066284Y-3066034D01*
X5059425Y-3086354D01*
X5045709Y-3100070D01*
X5032247Y-3106928D01*
X5011674Y-3113786D01*
X4977638Y-3113786D01*
X4957063Y-3106928D01*
X4943602Y-3100070D01*
X4929886Y-3086354D01*
X4923027Y-3066034D01*
X4923027Y-3018281D01*
X5066284Y-1245615D02*
G01*
X5066284Y-1320545D01*
X5011674Y-1279652D01*
X5011674Y-1299971D01*
X5004815Y-1313687D01*
X4997958Y-1320545D01*
X4977638Y-1327404D01*
X4963922Y-1327404D01*
X4943602Y-1320545D01*
X4929886Y-1306829D01*
X4923027Y-1286510D01*
X4923027Y-1265936D01*
X4929886Y-1245615D01*
X4936743Y-1238757D01*
X4950459Y-1231900D01*
X5066284Y-1372362D02*
G01*
X4923027Y-1426971D01*
X5066284Y-1481328D02*
G01*
X4923027Y-1426971D01*
X5066284Y-1540002D02*
G01*
X5066284Y-1615186D01*
X5011674Y-1574292D01*
X5011674Y-1594612D01*
X5004815Y-1608328D01*
X4997958Y-1615186D01*
X4977638Y-1621789D01*
X4963922Y-1621789D01*
X4943602Y-1615186D01*
X4929886Y-1601470D01*
X4923027Y-1580895D01*
X4923027Y-1560576D01*
X4929886Y-1540002D01*
X4936743Y-1533144D01*
X4950459Y-1526539D01*
X2780284Y-1384300D02*
G01*
X2637027Y-1384300D01*
X2780284Y-1384300D02*
G01*
X2780284Y-1472945D01*
X2711958Y-1384300D02*
G01*
X2711958Y-1438910D01*
X2637027Y-1384300D02*
G01*
X2637027Y-1472945D01*
X2759709Y-1613407D02*
G01*
X2773425Y-1599692D01*
X2780284Y-1579371D01*
X2780284Y-1551939D01*
X2773425Y-1531620D01*
X2759709Y-1517904D01*
X2746247Y-1517904D01*
X2732531Y-1524762D01*
X2725674Y-1531620D01*
X2718815Y-1545081D01*
X2705354Y-1586229D01*
X2698495Y-1599692D01*
X2691638Y-1606550D01*
X2677922Y-1613407D01*
X2657602Y-1613407D01*
X2643886Y-1599692D01*
X2637027Y-1579371D01*
X2637027Y-1551939D01*
X2643886Y-1531620D01*
X2657602Y-1517904D01*
X2780284Y-1658365D02*
G01*
X2637027Y-1658365D01*
X2780284Y-1658365D02*
G01*
X2780284Y-1719834D01*
X2773425Y-1740154D01*
X2766568Y-1747012D01*
X2753106Y-1753870D01*
X2732531Y-1753870D01*
X2718815Y-1747012D01*
X2711958Y-1740154D01*
X2705354Y-1719834D01*
X2705354Y-1658365D01*
X2780284Y-1812544D02*
G01*
X2780284Y-1887473D01*
X2725674Y-1846579D01*
X2725674Y-1866900D01*
X2718815Y-1880615D01*
X2711958Y-1887473D01*
X2691638Y-1894331D01*
X2677922Y-1894331D01*
X2657602Y-1887473D01*
X2643886Y-1873757D01*
X2637027Y-1853437D01*
X2637027Y-1832863D01*
X2643886Y-1812544D01*
X2650743Y-1805686D01*
X2664459Y-1798828D01*
X2746247Y-1946147D02*
G01*
X2753106Y-1946147D01*
X2766568Y-1953005D01*
X2773425Y-1959863D01*
X2780284Y-1973326D01*
X2780284Y-2000757D01*
X2773425Y-2014220D01*
X2766568Y-2021078D01*
X2753106Y-2027936D01*
X2739390Y-2027936D01*
X2725674Y-2021078D01*
X2705354Y-2007362D01*
X2637027Y-1939289D01*
X2637027Y-2034794D01*
X2698495Y-2079752D02*
G01*
X2698495Y-2202434D01*
X2780284Y-2247392D02*
G01*
X2637027Y-2247392D01*
X2780284Y-2247392D02*
G01*
X2780284Y-2295144D01*
X2773425Y-2315718D01*
X2759709Y-2329179D01*
X2746247Y-2336037D01*
X2725674Y-2342895D01*
X2691638Y-2342895D01*
X2671063Y-2336037D01*
X2657602Y-2329179D01*
X2643886Y-2315718D01*
X2637027Y-2295144D01*
X2637027Y-2247392D01*
X2691638Y-2387854D02*
G01*
X2691638Y-2469642D01*
X2705354Y-2469642D01*
X2718815Y-2463037D01*
X2725674Y-2456179D01*
X2732531Y-2442463D01*
X2732531Y-2422144D01*
X2725674Y-2408428D01*
X2711958Y-2394712D01*
X2691638Y-2387854D01*
X2677922Y-2387854D01*
X2657602Y-2394712D01*
X2643886Y-2408428D01*
X2637027Y-2422144D01*
X2637027Y-2442463D01*
X2643886Y-2456179D01*
X2657602Y-2469642D01*
X2732531Y-2514854D02*
G01*
X2637027Y-2555747D01*
X2732531Y-2596642D02*
G01*
X2637027Y-2555747D01*
X2780284Y-2641600D02*
G01*
X2637027Y-2641600D01*
X2780284Y-2737104D02*
G01*
X2684779Y-2641600D01*
X2718815Y-2675636D02*
G01*
X2637027Y-2737104D01*
X2780284Y-2782062D02*
G01*
X2773425Y-2788920D01*
X2780284Y-2795778D01*
X2787141Y-2788920D01*
X2780284Y-2782062D01*
X2732531Y-2788920D02*
G01*
X2637027Y-2788920D01*
X2780284Y-2861055D02*
G01*
X2664459Y-2861055D01*
X2643886Y-2867913D01*
X2637027Y-2881629D01*
X2637027Y-2895092D01*
X2732531Y-2840736D02*
G01*
X2732531Y-2888487D01*
X621284Y-1841500D02*
G01*
X518921Y-1841500D01*
X498602Y-1848357D01*
X484886Y-1862073D01*
X478028Y-1882394D01*
X478028Y-1896110D01*
X484886Y-1916429D01*
X498602Y-1930145D01*
X518921Y-1937004D01*
X621284Y-1937004D01*
X600710Y-2077465D02*
G01*
X614426Y-2063750D01*
X621284Y-2043429D01*
X621284Y-2015997D01*
X614426Y-1995678D01*
X600710Y-1981962D01*
X587247Y-1981962D01*
X573531Y-1988820D01*
X566673Y-1995678D01*
X559815Y-2009139D01*
X546354Y-2050034D01*
X539495Y-2063750D01*
X532637Y-2070607D01*
X518921Y-2077465D01*
X498602Y-2077465D01*
X484886Y-2063750D01*
X478028Y-2043429D01*
X478028Y-2015997D01*
X484886Y-1995678D01*
X498602Y-1981962D01*
X621284Y-2122423D02*
G01*
X478028Y-2122423D01*
X621284Y-2122423D02*
G01*
X621284Y-2183892D01*
X614426Y-2204212D01*
X607568Y-2211070D01*
X594105Y-2217928D01*
X580389Y-2217928D01*
X566673Y-2211070D01*
X559815Y-2204212D01*
X552957Y-2183892D01*
X552957Y-2122423D02*
G01*
X552957Y-2183892D01*
X546354Y-2204212D01*
X539495Y-2211070D01*
X525779Y-2217928D01*
X505460Y-2217928D01*
X491744Y-2211070D01*
X484886Y-2204212D01*
X478028Y-2183892D01*
X478028Y-2122423D01*
X539495Y-2262886D02*
G01*
X539495Y-2385568D01*
X587247Y-2532887D02*
G01*
X600710Y-2526029D01*
X614426Y-2512313D01*
X621284Y-2498852D01*
X621284Y-2471420D01*
X614426Y-2457957D01*
X600710Y-2444242D01*
X587247Y-2437384D01*
X566673Y-2430526D01*
X532637Y-2430526D01*
X512063Y-2437384D01*
X498602Y-2444242D01*
X484886Y-2457957D01*
X478028Y-2471420D01*
X478028Y-2498852D01*
X484886Y-2512313D01*
X498602Y-2526029D01*
X512063Y-2532887D01*
D12*
X6147815Y-2997200D02*
G01*
X6038850Y-2997200D01*
X6147815Y-2997200D02*
G01*
X6147815Y-3043936D01*
X6142736Y-3059429D01*
X6137402Y-3064763D01*
X6126988Y-3069844D01*
X6111493Y-3069844D01*
X6101079Y-3064763D01*
X6096000Y-3059429D01*
X6090665Y-3043936D01*
X6090665Y-2997200D01*
X6126988Y-3104134D02*
G01*
X6132322Y-3114547D01*
X6147815Y-3130295D01*
X6038850Y-3130295D01*
X3354577Y-685292D02*
G01*
X3349243Y-674878D01*
X3338829Y-664463D01*
X3328670Y-659384D01*
X3307841Y-659384D01*
X3297427Y-664463D01*
X3287013Y-674878D01*
X3281679Y-685292D01*
X3276600Y-701039D01*
X3276600Y-726947D01*
X3281679Y-742442D01*
X3287013Y-752855D01*
X3297427Y-763270D01*
X3307841Y-768350D01*
X3328670Y-768350D01*
X3338829Y-763270D01*
X3349243Y-752855D01*
X3354577Y-742442D01*
X3393947Y-685292D02*
G01*
X3393947Y-680212D01*
X3399281Y-669797D01*
X3404361Y-664463D01*
X3414775Y-659384D01*
X3435604Y-659384D01*
X3446018Y-664463D01*
X3451097Y-669797D01*
X3456431Y-680212D01*
X3456431Y-690626D01*
X3451097Y-701039D01*
X3440684Y-716534D01*
X3388868Y-768350D01*
X3461511Y-768350D01*
X1066800Y-684784D02*
G01*
X1066800Y-793750D01*
X1066800Y-684784D02*
G01*
X1103121Y-684784D01*
X1118870Y-689863D01*
X1129029Y-700278D01*
X1134363Y-710692D01*
X1139444Y-726439D01*
X1139444Y-752347D01*
X1134363Y-767842D01*
X1129029Y-778255D01*
X1118870Y-788670D01*
X1103121Y-793750D01*
X1066800Y-793750D01*
X1173734Y-705612D02*
G01*
X1184147Y-700278D01*
X1199895Y-684784D01*
X1199895Y-793750D01*
X7798815Y-2908300D02*
G01*
X7720838Y-2908300D01*
X7705343Y-2913379D01*
X7694929Y-2923794D01*
X7689850Y-2939542D01*
X7689850Y-2949955D01*
X7694929Y-2965450D01*
X7705343Y-2975863D01*
X7720838Y-2980944D01*
X7798815Y-2980944D01*
X7798815Y-3025647D02*
G01*
X7798815Y-3082797D01*
X7757159Y-3051810D01*
X7757159Y-3067304D01*
X7752079Y-3077718D01*
X7747000Y-3082797D01*
X7731252Y-3088131D01*
X7720838Y-3088131D01*
X7705343Y-3082797D01*
X7694929Y-3072384D01*
X7689850Y-3056889D01*
X7689850Y-3041395D01*
X7694929Y-3025647D01*
X7700009Y-3020568D01*
X7710424Y-3015234D01*
X7875015Y-3467100D02*
G01*
X7766050Y-3467100D01*
X7875015Y-3467100D02*
G01*
X7875015Y-3503421D01*
X7869936Y-3519170D01*
X7859522Y-3529329D01*
X7849108Y-3534663D01*
X7833359Y-3539744D01*
X7807452Y-3539744D01*
X7791958Y-3534663D01*
X7781543Y-3529329D01*
X7771129Y-3519170D01*
X7766050Y-3503421D01*
X7766050Y-3467100D01*
X7849108Y-3579368D02*
G01*
X7854188Y-3579368D01*
X7864602Y-3584447D01*
X7869936Y-3589781D01*
X7875015Y-3600195D01*
X7875015Y-3620770D01*
X7869936Y-3631184D01*
X7864602Y-3636518D01*
X7854188Y-3641597D01*
X7843774Y-3641597D01*
X7833359Y-3636518D01*
X7817865Y-3626104D01*
X7766050Y-3574034D01*
X7766050Y-3646931D01*
G36*
X2946400Y-4160520D02*
G01*
X2860040Y-4234180D01*
X2781300Y-4315460D01*
X2727960Y-4432300D01*
X2707640Y-4513580D01*
X2694940Y-4597400D01*
X2717800Y-4726940D01*
X2768600Y-4848860D01*
X2847340Y-4953000D01*
X2946400Y-5029200D01*
G37*
G36*
X2507030Y-3589731D02*
G01*
X2522169Y-4458258D01*
X2607259Y-4383125D01*
X2684576Y-4300474D01*
X2735834Y-4182719D01*
X2754731Y-4101084D01*
X2765958Y-4017060D01*
X2740863Y-3887978D01*
X2687929Y-3766921D01*
X2607411Y-3664204D01*
G37*
G36*
X2948025Y-265277D02*
G01*
X2897987Y-295300D01*
X2848000Y-345287D01*
X2817977Y-415290D01*
X2798013Y-495300D01*
X2808020Y-565302D01*
X2837992Y-625297D01*
X2887980Y-685292D01*
X2948025Y-725322D01*
G37*
D13*
X7467600Y-1104900D02*
G01*
X7717612Y-1104900D01*
X7717612Y-1354912D01*
X7467600Y-1354912D01*
X7467600Y-1104900D01*
X7467600Y-1358900D02*
G01*
X7717612Y-1358900D01*
X7717612Y-1608912D01*
X7467600Y-1608912D01*
X7467600Y-1358900D01*
X7467600Y-1612900D02*
G01*
X7717612Y-1612900D01*
X7717612Y-1862912D01*
X7467600Y-1862912D01*
X7467600Y-1612900D01*
X6819900Y-1104900D02*
G01*
X7069912Y-1104900D01*
X7069912Y-1354912D01*
X6819900Y-1354912D01*
X6819900Y-1104900D01*
X6819900Y-1358900D02*
G01*
X7069912Y-1358900D01*
X7069912Y-1608912D01*
X6819900Y-1608912D01*
X6819900Y-1358900D01*
X6819900Y-1612900D02*
G01*
X7069912Y-1612900D01*
X7069912Y-1862912D01*
X6819900Y-1862912D01*
X6819900Y-1612900D01*
X6184900Y-1104900D02*
G01*
X6434912Y-1104900D01*
X6434912Y-1354912D01*
X6184900Y-1354912D01*
X6184900Y-1104900D01*
X6184900Y-1358900D02*
G01*
X6434912Y-1358900D01*
X6434912Y-1608912D01*
X6184900Y-1608912D01*
X6184900Y-1358900D01*
X6184900Y-1612900D02*
G01*
X6434912Y-1612900D01*
X6434912Y-1862912D01*
X6184900Y-1862912D01*
X6184900Y-1612900D01*
X6515100Y-4787900D02*
G01*
X6781800Y-4787900D01*
X6781800Y-5092700D01*
X6515100Y-5092700D01*
X6515100Y-4787900D01*
X6781800Y-4787900D02*
G01*
X7035800Y-4787900D01*
X7035800Y-5092700D01*
X6781800Y-5092700D01*
X6781800Y-4787900D01*
X7035800Y-4787900D02*
G01*
X7289800Y-4787900D01*
X7289800Y-5092700D01*
X7035800Y-5092700D01*
X7035800Y-4787900D01*
X7289800Y-4787900D02*
G01*
X7543800Y-4787900D01*
X7543800Y-5092700D01*
X7289800Y-5092700D01*
X7289800Y-4787900D01*
X6515100Y-5372100D02*
G01*
X6781800Y-5372100D01*
X6781800Y-5676900D01*
X6515100Y-5676900D01*
X6515100Y-5372100D01*
X6781800Y-5372100D02*
G01*
X7035800Y-5372100D01*
X7035800Y-5676900D01*
X6781800Y-5676900D01*
X6781800Y-5372100D01*
X7035800Y-5372100D02*
G01*
X7289800Y-5372100D01*
X7289800Y-5676900D01*
X7035800Y-5676900D01*
X7035800Y-5372100D01*
X7289800Y-5372100D02*
G01*
X7543800Y-5372100D01*
X7543800Y-5676900D01*
X7289800Y-5676900D01*
X7289800Y-5372100D01*
X6883400Y-2590800D02*
G01*
X6883400Y-2340787D01*
X7133412Y-2340787D01*
X7133412Y-2590800D01*
X6883400Y-2590800D01*
X7137400Y-2590800D02*
G01*
X7137400Y-2340787D01*
X7387412Y-2340787D01*
X7387412Y-2590800D01*
X7137400Y-2590800D01*
X7391400Y-2590800D02*
G01*
X7391400Y-2340787D01*
X7641412Y-2340787D01*
X7641412Y-2590800D01*
X7391400Y-2590800D01*
X1613100Y-4885900D02*
G01*
X1553100Y-4885900D01*
X1613100Y-4640900D02*
G01*
X1613100Y-4885900D01*
X1613100Y-4220900D02*
G01*
X1613100Y-3985900D01*
X1613100Y-3985900D02*
G01*
X243103Y-3985900D01*
X243103Y-3985900D02*
G01*
X243103Y-4885900D01*
X243103Y-4885900D02*
G01*
X1143101Y-4885900D01*
X3505200Y-5164201D02*
G01*
X3505200Y-6164198D01*
X914400Y-5164201D02*
G01*
X914400Y-6164198D01*
X809802Y-5164201D02*
G01*
X3609797Y-5164201D01*
X3609797Y-6164198D01*
X809802Y-6164198D01*
X809802Y-5164201D01*
X6070600Y-4494001D02*
G01*
X3860800Y-4494001D01*
X6070600Y-6174000D02*
G01*
X3860800Y-6174000D01*
X6070600Y-6174000D02*
G01*
X6070600Y-4494001D01*
X3860800Y-6174000D02*
G01*
X3860800Y-4494001D01*
X5753100Y-1231900D02*
G01*
X5753100Y-1460500D01*
X5753100Y-723900D02*
G01*
X5753100Y-469900D01*
X5829300Y-723900D02*
G01*
X5829300Y-1231900D01*
X5753100Y-723900D02*
G01*
X5829300Y-723900D01*
X5753100Y-1231900D02*
G01*
X5676900Y-1231900D01*
X5829300Y-1231900D02*
G01*
X5753100Y-1231900D01*
X5676900Y-723900D02*
G01*
X5753100Y-723900D01*
X5676900Y-1231900D02*
G01*
X5676900Y-723900D01*
X4279900Y-495300D02*
G01*
X4508500Y-495300D01*
X3771900Y-495300D02*
G01*
X3517900Y-495300D01*
X3771900Y-419100D02*
G01*
X4279900Y-419100D01*
X3771900Y-495300D02*
G01*
X3771900Y-419100D01*
X4279900Y-495300D02*
G01*
X4279900Y-571500D01*
X4279900Y-419100D02*
G01*
X4279900Y-495300D01*
X3771900Y-571500D02*
G01*
X3771900Y-495300D01*
X4279900Y-571500D02*
G01*
X3771900Y-571500D01*
X1854200Y-495300D02*
G01*
X1625600Y-495300D01*
X2362200Y-495300D02*
G01*
X2616200Y-495300D01*
X2362200Y-571500D02*
G01*
X1854200Y-571500D01*
X2362200Y-495300D02*
G01*
X2362200Y-571500D01*
X1854200Y-495300D02*
G01*
X1854200Y-419100D01*
X1854200Y-571500D02*
G01*
X1854200Y-495300D01*
X2362200Y-419100D02*
G01*
X2362200Y-495300D01*
X1854200Y-419100D02*
G01*
X2362200Y-419100D01*
X5422900Y-711200D02*
G01*
X5422900Y-482600D01*
X5422900Y-1219200D02*
G01*
X5422900Y-1473200D01*
X5346700Y-1219200D02*
G01*
X5346700Y-711200D01*
X5422900Y-1219200D02*
G01*
X5346700Y-1219200D01*
X5422900Y-711200D02*
G01*
X5499100Y-711200D01*
X5346700Y-711200D02*
G01*
X5422900Y-711200D01*
X5499100Y-1219200D02*
G01*
X5422900Y-1219200D01*
X5499100Y-711200D02*
G01*
X5499100Y-1219200D01*
X7518400Y-4089400D02*
G01*
X7747000Y-4089400D01*
X7010400Y-4089400D02*
G01*
X6756400Y-4089400D01*
X7010400Y-4013200D02*
G01*
X7518400Y-4013200D01*
X7010400Y-4089400D02*
G01*
X7010400Y-4013200D01*
X7518400Y-4089400D02*
G01*
X7518400Y-4165600D01*
X7518400Y-4013200D02*
G01*
X7518400Y-4089400D01*
X7010400Y-4165600D02*
G01*
X7010400Y-4089400D01*
X7518400Y-4165600D02*
G01*
X7010400Y-4165600D01*
X6985000Y-4445000D02*
G01*
X6756400Y-4445000D01*
X7493000Y-4445000D02*
G01*
X7747000Y-4445000D01*
X7493000Y-4521200D02*
G01*
X6985000Y-4521200D01*
X7493000Y-4445000D02*
G01*
X7493000Y-4521200D01*
X6985000Y-4445000D02*
G01*
X6985000Y-4368800D01*
X6985000Y-4521200D02*
G01*
X6985000Y-4445000D01*
X7493000Y-4368800D02*
G01*
X7493000Y-4445000D01*
X6985000Y-4368800D02*
G01*
X7493000Y-4368800D01*
X6286500Y-469900D02*
G01*
X6057900Y-469900D01*
X6794500Y-469900D02*
G01*
X7048500Y-469900D01*
X6794500Y-546100D02*
G01*
X6286500Y-546100D01*
X6794500Y-469900D02*
G01*
X6794500Y-546100D01*
X6286500Y-469900D02*
G01*
X6286500Y-393700D01*
X6286500Y-546100D02*
G01*
X6286500Y-469900D01*
X6794500Y-393700D02*
G01*
X6794500Y-469900D01*
X6286500Y-393700D02*
G01*
X6794500Y-393700D01*
X3505200Y-4800600D02*
G01*
X3403600Y-4800600D01*
X3454400Y-4851400D02*
G01*
X3454400Y-4749800D01*
X1952299Y-3828049D02*
G01*
X2053884Y-3826276D01*
X2002205Y-3776370D02*
G01*
X2003978Y-3877955D01*
X5118100Y-3416300D02*
G01*
X292100Y-3416300D01*
X292100Y-3162300D01*
X5118100Y-3162300D01*
X5118100Y-3416300D01*
X5118100Y-1155700D02*
G01*
X292100Y-1155700D01*
X292100Y-876300D01*
X5118100Y-876300D01*
X5118100Y-1155700D01*
D14*
X6578600Y-4292600D02*
G01*
X6578600Y-2768600D01*
X5308600Y-2768600D01*
X5308600Y-4292600D01*
X6578600Y-4292600D01*
D13*
X3149600Y-635000D02*
G01*
X3073400Y-635000D01*
X3111500Y-673100D02*
G01*
X3111500Y-596900D01*
X1403350Y-368300D02*
G01*
X1403350Y-622300D01*
X882650Y-622300D01*
X882650Y-368300D01*
X1403350Y-368300D01*
D16*
X7211400Y-3157601D02*
G01*
X7571399Y-3157601D01*
D13*
X7689850Y-3441700D02*
G01*
X7689850Y-3695700D01*
X7169150Y-3695700D01*
X7169150Y-3441700D01*
X7689850Y-3441700D01*
G75*
G01*
X3915601Y-4311668D02*
G03*
X4415599Y-4311668I249999J460687D01*
G75*
G01*
X4415599Y-4121998D02*
G03*
X3915601Y-4121998I-249999J-446735D01*
G75*
G01*
X897700Y-3638532D02*
G03*
X397700Y-3638532I-250000J-460687D01*
G75*
G01*
X397700Y-3828202D02*
G03*
X897700Y-3828202I250000J446735D01*
D16*
G75*
G01*
X7570892Y-3157195D02*
G03*
X7212002Y-3157550I-179585J140819D01*
D13*
G75*
G01
X3700399Y-4597400D02*
G03X3700399Y-4597400I-499999J0D01*
G75*
G01
X2760599Y-4025900D02*
G03X2760599Y-4025900I-499999J0D01*
G75*
G01
X3298012Y-495300D02*
G03X3298012Y-495300I-250012J0D01*
M02*
