G04 Layer: TopSolderMaskLayer*
G04 EasyEDA v6.5.57, 2026-08-28 16:13:09*
G04 5e0a217a3e3e4001abd121eb4e72d0a8,73b71592eb5d450092b712373c5d4a3f,10*
G04 Gerber Generator version 0.2*
G04 Scale: 100 percent, Rotated: No, Reflected: No *
G04 Dimensions in millimeters *
G04 leading zeros omitted , absolute positions ,4 integer and 5 decimal *
%FSLAX45Y45*%
%MOMM*%

%AMMACRO1*4,1,8,-0.7831,-0.8128,-0.8128,-0.783,-0.8128,0.7831,-0.7831,0.8128,0.783,0.8128,0.8128,0.7831,0.8128,-0.783,0.783,-0.8128,-0.7831,-0.8128,0*%
%AMMACRO2*4,1,8,-0.8211,-0.8508,-0.8508,-0.821,-0.8508,0.8211,-0.8211,0.8508,0.821,0.8508,0.8508,0.8211,0.8508,-0.821,0.821,-0.8508,-0.8211,-0.8508,0*%
%AMMACRO3*4,1,8,-0.4211,-0.5008,-0.4508,-0.471,-0.4508,0.4711,-0.4211,0.5008,0.421,0.5008,0.4508,0.4711,0.4508,-0.471,0.421,-0.5008,-0.4211,-0.5008,0*%
%AMMACRO4*4,1,8,-0.4211,-0.4508,-0.4508,-0.421,-0.4508,0.4211,-0.4211,0.4508,0.421,0.4508,0.4508,0.4211,0.4508,-0.421,0.421,-0.4508,-0.4211,-0.4508,0*%
%AMMACRO5*4,1,8,-0.9819,-1.0414,-1.0414,-0.9819,-1.0414,0.9819,-0.9819,1.0414,0.9819,1.0414,1.0414,0.9819,1.0414,-0.9819,0.9819,-1.0414,-0.9819,-1.0414,0*%
%AMMACRO6*4,1,8,-0.2871,-0.5696,-0.3168,-0.5398,-0.3168,0.5398,-0.2871,0.5696,0.287,0.5696,0.3168,0.5398,0.3168,-0.5398,0.287,-0.5696,-0.2871,-0.5696,0*%
%AMMACRO7*4,1,8,-0.287,-0.5696,-0.3168,-0.5398,-0.3168,0.5398,-0.287,0.5696,0.287,0.5696,0.3168,0.5398,0.3168,-0.5398,0.287,-0.5696,-0.287,-0.5696,0*%
%AMMACRO8*4,1,8,-0.3211,-0.5858,-0.3508,-0.556,-0.3508,0.5561,-0.3211,0.5858,0.321,0.5858,0.3508,0.5561,0.3508,-0.556,0.321,-0.5858,-0.3211,-0.5858,0*%
%AMMACRO9*4,1,8,-0.4243,-0.4828,-0.454,-0.453,-0.454,0.4531,-0.4243,0.4828,0.4243,0.4828,0.454,0.4531,0.454,-0.453,0.4243,-0.4828,-0.4243,-0.4828,0*%
%AMMACRO10*4,1,8,-1.0211,-1.0508,-1.0508,-1.021,-1.0508,1.0211,-1.0211,1.0508,1.021,1.0508,1.0508,1.0211,1.0508,-1.021,1.021,-1.0508,-1.0211,-1.0508,0*%
%AMMACRO11*4,1,8,-0.6161,-0.9148,-0.6458,-0.885,-0.6458,0.8851,-0.6161,0.9148,0.6161,0.9148,0.6458,0.8851,0.6458,-0.885,0.6161,-0.9148,-0.6161,-0.9148,0*%
%ADD10C,1.6256*%
%ADD11MACRO1*%
%ADD12C,1.5240*%
%ADD13R,1.5240X1.5240*%
%ADD14C,1.7016*%
%ADD15MACRO2*%
%ADD16O,4.301592X2.101596*%
%ADD17O,0.0129X2.101596*%
%ADD18O,2.101596X4.301592*%
%ADD19MACRO3*%
%ADD20MACRO4*%
%ADD21C,2.0828*%
%ADD22MACRO5*%
%ADD23MACRO6*%
%ADD24MACRO7*%
%ADD25MACRO8*%
%ADD26MACRO9*%
%ADD27MACRO10*%
%ADD28C,2.1016*%
%ADD29C,0.9016*%
%ADD30MACRO11*%
%ADD31C,0.2540*%

%LPD*%
G36*
X393649Y-82499D02*
G01*
X304749Y-107899D01*
X253949Y-120599D01*
X152349Y-209499D01*
X114249Y-272999D01*
X95199Y-349199D01*
X95199Y-450799D01*
X120599Y-552399D01*
X222199Y-653999D01*
X323799Y-704799D01*
X450799Y-704799D01*
X526999Y-679399D01*
X577799Y-653999D01*
X653999Y-577799D01*
X704799Y-476199D01*
X704799Y-323799D01*
X653999Y-222199D01*
X603199Y-171399D01*
X526999Y-120599D01*
X469849Y-95199D01*
G37*
G36*
X393649Y-234899D02*
G01*
X330149Y-247599D01*
X279349Y-285699D01*
X253949Y-349199D01*
X266649Y-425399D01*
X292049Y-476199D01*
X355549Y-514299D01*
X444449Y-501599D01*
X507949Y-463499D01*
X533349Y-412699D01*
X533349Y-361899D01*
X520649Y-311099D01*
X444449Y-247599D01*
G37*
G36*
X7093661Y-82499D02*
G01*
X7004761Y-107899D01*
X6953961Y-120599D01*
X6852361Y-209499D01*
X6814261Y-272999D01*
X6795211Y-349199D01*
X6795211Y-450799D01*
X6820611Y-552399D01*
X6922211Y-653999D01*
X7023811Y-704799D01*
X7150811Y-704799D01*
X7227011Y-679399D01*
X7277811Y-653999D01*
X7354011Y-577799D01*
X7404811Y-476199D01*
X7404811Y-323799D01*
X7354011Y-222199D01*
X7303211Y-171399D01*
X7227011Y-120599D01*
X7169861Y-95199D01*
G37*
G36*
X7093661Y-234899D02*
G01*
X7030161Y-247599D01*
X6979361Y-285699D01*
X6953961Y-349199D01*
X6966661Y-425399D01*
X6992061Y-476199D01*
X7055561Y-514299D01*
X7144461Y-501599D01*
X7207961Y-463499D01*
X7233361Y-412699D01*
X7233361Y-361899D01*
X7220661Y-311099D01*
X7144461Y-247599D01*
G37*
G36*
X393649Y-3882491D02*
G01*
X304749Y-3907891D01*
X253949Y-3920591D01*
X152349Y-4009491D01*
X114249Y-4072991D01*
X95199Y-4149191D01*
X95199Y-4250791D01*
X120599Y-4352391D01*
X222199Y-4453991D01*
X323799Y-4504791D01*
X450799Y-4504791D01*
X526999Y-4479391D01*
X577799Y-4453991D01*
X653999Y-4377791D01*
X704799Y-4276191D01*
X704799Y-4123791D01*
X653999Y-4022191D01*
X603199Y-3971391D01*
X526999Y-3920591D01*
X469849Y-3895191D01*
G37*
G36*
X393649Y-4034891D02*
G01*
X330149Y-4047591D01*
X279349Y-4085691D01*
X253949Y-4149191D01*
X266649Y-4225391D01*
X292049Y-4276191D01*
X355549Y-4314291D01*
X444449Y-4301591D01*
X507949Y-4263491D01*
X533349Y-4212691D01*
X533349Y-4161891D01*
X520649Y-4111091D01*
X444449Y-4047591D01*
G37*
G36*
X7093661Y-3882491D02*
G01*
X7004761Y-3907891D01*
X6953961Y-3920591D01*
X6852361Y-4009491D01*
X6814261Y-4072991D01*
X6795211Y-4149191D01*
X6795211Y-4250791D01*
X6820611Y-4352391D01*
X6922211Y-4453991D01*
X7023811Y-4504791D01*
X7150811Y-4504791D01*
X7227011Y-4479391D01*
X7277811Y-4453991D01*
X7354011Y-4377791D01*
X7404811Y-4276191D01*
X7404811Y-4123791D01*
X7354011Y-4022191D01*
X7303211Y-3971391D01*
X7227011Y-3920591D01*
X7169861Y-3895191D01*
G37*
G36*
X7093661Y-4034891D02*
G01*
X7030161Y-4047591D01*
X6979361Y-4085691D01*
X6953961Y-4149191D01*
X6966661Y-4225391D01*
X6992061Y-4276191D01*
X7055561Y-4314291D01*
X7144461Y-4301591D01*
X7207961Y-4263491D01*
X7233361Y-4212691D01*
X7233361Y-4161891D01*
X7220661Y-4111091D01*
X7144461Y-4047591D01*
G37*
D10*
G01*
X6146800Y-3099993D03*
G01*
X6400800Y-3099993D03*
D11*
G01*
X6654800Y-3099993D03*
D10*
G01*
X6908800Y-3099993D03*
G01*
X6146800Y-2449995D03*
G01*
X6400800Y-2449995D03*
D11*
G01*
X6654800Y-2449995D03*
D10*
G01*
X6908800Y-2449995D03*
D12*
G01*
X7251700Y-1714500D03*
D10*
G01*
X7251700Y-1460500D03*
D13*
G01*
X7251700Y-1206500D03*
D12*
G01*
X6626301Y-1714500D03*
D10*
G01*
X6626301Y-1460500D03*
D13*
G01*
X6626301Y-1206500D03*
D12*
G01*
X6007100Y-1714500D03*
D10*
G01*
X6007100Y-1460500D03*
D13*
G01*
X6007100Y-1206500D03*
D14*
G01*
X2006600Y-3238500D03*
G01*
X2514600Y-3238500D03*
G01*
X5537200Y-3949700D03*
G01*
X6045200Y-3949700D03*
G01*
X927100Y-215900D03*
G01*
X1181100Y-215900D03*
G01*
X1435100Y-215900D03*
G01*
X1689100Y-215900D03*
G01*
X1943100Y-215900D03*
G01*
X2197100Y-215900D03*
G01*
X2451100Y-215900D03*
G01*
X2705100Y-215900D03*
G01*
X2959100Y-215900D03*
G01*
X3213100Y-215900D03*
G01*
X3467100Y-215900D03*
G01*
X3721100Y-215900D03*
G01*
X3975100Y-215900D03*
G01*
X4229100Y-215900D03*
G01*
X4483100Y-215900D03*
G01*
X4737100Y-215900D03*
G01*
X4991100Y-215900D03*
G01*
X5245100Y-215900D03*
D15*
G01*
X5499100Y-215900D03*
D14*
G01*
X927100Y-2485897D03*
G01*
X1181100Y-2485897D03*
G01*
X1435100Y-2485897D03*
G01*
X1689100Y-2485897D03*
G01*
X1943100Y-2485897D03*
G01*
X2197100Y-2485897D03*
G01*
X2451100Y-2485897D03*
G01*
X2705100Y-2485897D03*
G01*
X2959100Y-2485897D03*
G01*
X3213100Y-2485897D03*
G01*
X3467100Y-2485897D03*
G01*
X3721100Y-2485897D03*
G01*
X3975100Y-2485897D03*
G01*
X4229100Y-2485897D03*
G01*
X4483100Y-2485897D03*
G01*
X4737100Y-2485897D03*
G01*
X4991100Y-2485897D03*
G01*
X5245100Y-2485897D03*
D15*
G01*
X5499092Y-2485895D03*
D16*
G01*
X1233804Y-3750589D03*
D18*
G01*
X863803Y-3295599D03*
G01*
X1493773Y-3298062D03*
D19*
G01*
X5022700Y-546100D03*
G01*
X5162699Y-546100D03*
G01*
X2152799Y-4038600D03*
G01*
X2012800Y-4038600D03*
G01*
X5530999Y-3175000D03*
G01*
X5391000Y-3175000D03*
D20*
G01*
X430598Y-1016000D03*
G01*
X280598Y-1016000D03*
D21*
G01*
X6375400Y-215900D03*
D22*
G01*
X6121400Y-215900D03*
D23*
G01*
X6280400Y-719725D03*
G01*
X6470399Y-719725D03*
D24*
G01*
X6375400Y-499474D03*
D25*
G01*
X4311396Y-613100D03*
G01*
X4121403Y-613100D03*
G01*
X4216400Y-860099D03*
G01*
X4311396Y-1108400D03*
G01*
X4121403Y-1108400D03*
G01*
X4216400Y-1355399D03*
D26*
G01*
X5168024Y-1231900D03*
G01*
X5017375Y-1231900D03*
G01*
X5017375Y-774700D03*
G01*
X5168024Y-774700D03*
G01*
X280275Y-1371600D03*
G01*
X430924Y-1371600D03*
G01*
X5017375Y-1003300D03*
G01*
X5168024Y-1003300D03*
G01*
X5017375Y-1638300D03*
G01*
X5168024Y-1638300D03*
G01*
X5017375Y-1866900D03*
G01*
X5168024Y-1866900D03*
G01*
X5893675Y-609600D03*
G01*
X6044324Y-609600D03*
G01*
X3404475Y-812800D03*
G01*
X3555124Y-812800D03*
G01*
X3404475Y-571500D03*
G01*
X3555124Y-571500D03*
G01*
X3404475Y-1117600D03*
G01*
X3555124Y-1117600D03*
G01*
X3404475Y-1358900D03*
G01*
X3555124Y-1358900D03*
D27*
G01*
X3045503Y-4322597D03*
G01*
X3045503Y-4068599D03*
D28*
G01*
X3045510Y-3195802D03*
G01*
X3045510Y-2941802D03*
G01*
X4955489Y-2941802D03*
G01*
X4955489Y-3195802D03*
D27*
G01*
X4955499Y-4068599D03*
G01*
X4955499Y-4322597D03*
D29*
G01*
X399999Y-150012D03*
G01*
X399999Y-650011D03*
G01*
X150012Y-399999D03*
G01*
X650011Y-399999D03*
G01*
X577799Y-222199D03*
G01*
X222199Y-222199D03*
G01*
X577799Y-577799D03*
G01*
X222199Y-577799D03*
G01*
X7099985Y-150012D03*
G01*
X7099985Y-650011D03*
G01*
X6849999Y-399999D03*
G01*
X7349997Y-399999D03*
G01*
X7277785Y-222199D03*
G01*
X6922185Y-222199D03*
G01*
X7277785Y-577799D03*
G01*
X6922185Y-577799D03*
G01*
X399999Y-3950004D03*
G01*
X399999Y-4450003D03*
G01*
X150012Y-4199991D03*
G01*
X650011Y-4199991D03*
G01*
X577799Y-4022191D03*
G01*
X222199Y-4022191D03*
G01*
X577799Y-4377791D03*
G01*
X222199Y-4377791D03*
G01*
X7099985Y-3950004D03*
G01*
X7099985Y-4450003D03*
G01*
X6849999Y-4199991D03*
G01*
X7349997Y-4199991D03*
G01*
X7277785Y-4022191D03*
G01*
X6922185Y-4022191D03*
G01*
X7277785Y-4377791D03*
G01*
X6922185Y-4377791D03*
D12*
G01*
X444500Y-2108200D03*
D10*
G01*
X444500Y-2362200D03*
D13*
G01*
X444500Y-2616200D03*
D30*
G01*
X1023899Y-4381500D03*
G01*
X1312900Y-4381500D03*
D29*
G01*
X431800Y-1193800D03*
D31*
G75*
G01*
X259999Y-399999D02*
G02*
X539999Y-399999I140000J0D01*
G75*
G01*
X539999Y-399999D02*
G02*
X259999Y-399999I-140000J0D01*
G75*
G01*
X709999Y-399999D02*
G02*
X90000Y-399999I-310000J0D01*
G75*
G01*
X90000Y-399999D02*
G02*
X709999Y-399999I309999J0D01*
G75*
G01*
X6959986Y-399999D02*
G02*
X7239986Y-399999I140000J0D01*
G75*
G01*
X7239986Y-399999D02*
G02*
X6959986Y-399999I-140000J0D01*
G75*
G01*
X7409985Y-399999D02*
G02*
X6789986Y-399999I-309999J0D01*
G75*
G01*
X6789986Y-399999D02*
G02*
X7409985Y-399999I310000J0D01*
G75*
G01*
X259999Y-4199992D02*
G02*
X539999Y-4199992I140000J0D01*
G75*
G01*
X539999Y-4199992D02*
G02*
X259999Y-4199992I-140000J0D01*
G75*
G01*
X709999Y-4199992D02*
G02*
X90000Y-4199992I-310000J0D01*
G75*
G01*
X90000Y-4199992D02*
G02*
X709999Y-4199992I309999J0D01*
G75*
G01*
X6959986Y-4199992D02*
G02*
X7239986Y-4199992I140000J0D01*
G75*
G01*
X7239986Y-4199992D02*
G02*
X6959986Y-4199992I-140000J0D01*
G75*
G01*
X7409985Y-4199992D02*
G02*
X6789986Y-4199992I-309999J0D01*
G75*
G01*
X6789986Y-4199992D02*
G02*
X7409985Y-4199992I310000J0D01*
M02*
