G04 Layer: BottomLayer*
G04 EasyEDA v6.5.57, 2026-08-22 12:43:49*
G04 d5c1c7cf252c4259a0bd62168661ddc8,73b71592eb5d450092b712373c5d4a3f,10*
G04 Gerber Generator version 0.2*
G04 Scale: 100 percent, Rotated: No, Reflected: No *
G04 Dimensions in millimeters *
G04 leading zeros omitted , absolute positions ,4 integer and 5 decimal *
%FSLAX45Y45*%
%MOMM*%

%ADD10C,0.3000*%
%ADD11C,0.8000*%
%ADD12C,1.5240*%
%ADD13R,1.5240X1.5240*%
%ADD14O,4.199992X1.999996*%
%ADD15O,1.999996X4.199992*%
%ADD16O,3.799992X4.99999*%
%ADD17R,2.0000X2.0000*%
%ADD18R,0.0126X2.0000*%
%ADD19C,2.0000*%
%ADD20C,1.7780*%
%ADD21C,1.8796*%
%ADD22C,1.6000*%
%ADD23C,1.5000*%
%ADD24C,1.4000*%
%ADD25R,1.8796X1.8796*%
%ADD26R,1.0000X1.0000*%
%ADD27C,1.0000*%

%LPD*%
G36*
X400608Y-6474104D02*
G01*
X374142Y-6473139D01*
X348742Y-6470497D01*
X323545Y-6466179D01*
X298754Y-6460083D01*
X274421Y-6452362D01*
X250647Y-6442964D01*
X227584Y-6431940D01*
X205333Y-6419392D01*
X183997Y-6405372D01*
X163677Y-6389928D01*
X144424Y-6373114D01*
X126390Y-6355029D01*
X109626Y-6335776D01*
X94183Y-6315405D01*
X80213Y-6294069D01*
X67716Y-6271768D01*
X56743Y-6248704D01*
X47396Y-6224930D01*
X39725Y-6200597D01*
X33680Y-6175756D01*
X29362Y-6150559D01*
X26771Y-6125159D01*
X25908Y-6099403D01*
X25908Y-400608D01*
X26822Y-374142D01*
X29464Y-348742D01*
X33832Y-323545D01*
X39878Y-298754D01*
X47650Y-274421D01*
X57048Y-250647D01*
X68021Y-227584D01*
X80568Y-205333D01*
X94589Y-183997D01*
X110032Y-163677D01*
X126847Y-144424D01*
X144932Y-126390D01*
X164185Y-109626D01*
X184556Y-94183D01*
X205943Y-80213D01*
X228193Y-67716D01*
X251307Y-56743D01*
X275082Y-47396D01*
X299415Y-39725D01*
X324256Y-33680D01*
X349402Y-29362D01*
X374802Y-26771D01*
X400608Y-25908D01*
X7599375Y-25908D01*
X7625842Y-26822D01*
X7651242Y-29464D01*
X7676438Y-33832D01*
X7701229Y-39878D01*
X7725562Y-47650D01*
X7749336Y-57048D01*
X7772400Y-68021D01*
X7794650Y-80568D01*
X7815986Y-94589D01*
X7836306Y-110032D01*
X7855559Y-126847D01*
X7873593Y-144932D01*
X7890357Y-164185D01*
X7905800Y-184556D01*
X7919770Y-205943D01*
X7932267Y-228193D01*
X7943240Y-251307D01*
X7952587Y-275082D01*
X7960258Y-299415D01*
X7966303Y-324256D01*
X7970621Y-349402D01*
X7973212Y-374802D01*
X7974075Y-400608D01*
X7974075Y-6099403D01*
X7973161Y-6125870D01*
X7970520Y-6151270D01*
X7966151Y-6176416D01*
X7960106Y-6201257D01*
X7952333Y-6225590D01*
X7942935Y-6249314D01*
X7931962Y-6272377D01*
X7919415Y-6294628D01*
X7905394Y-6315964D01*
X7889951Y-6336334D01*
X7873136Y-6355537D01*
X7855051Y-6373622D01*
X7835798Y-6390386D01*
X7815427Y-6405778D01*
X7794040Y-6419799D01*
X7771790Y-6432296D01*
X7748676Y-6443218D01*
X7724902Y-6452565D01*
X7700568Y-6460286D01*
X7675727Y-6466281D01*
X7650581Y-6470599D01*
X7625181Y-6473190D01*
X7599375Y-6474104D01*
G37*

%LPC*%
G36*
X426415Y-6425844D02*
G01*
X429463Y-6424879D01*
X440283Y-6419697D01*
X450240Y-6412890D01*
X459028Y-6404711D01*
X466547Y-6395313D01*
X472541Y-6384899D01*
X475945Y-6376314D01*
X426415Y-6376314D01*
G37*
G36*
X373684Y-6425844D02*
G01*
X373684Y-6376314D01*
X324154Y-6376314D01*
X327558Y-6384899D01*
X333552Y-6395313D01*
X341071Y-6404711D01*
X349859Y-6412890D01*
X359816Y-6419697D01*
X370636Y-6424879D01*
G37*
G36*
X7573619Y-6425844D02*
G01*
X7573619Y-6376314D01*
X7524089Y-6376314D01*
X7527493Y-6384899D01*
X7533487Y-6395313D01*
X7541006Y-6404711D01*
X7549794Y-6412890D01*
X7559751Y-6419697D01*
X7570571Y-6424879D01*
G37*
G36*
X7626350Y-6425844D02*
G01*
X7629398Y-6424879D01*
X7640218Y-6419697D01*
X7650175Y-6412890D01*
X7658963Y-6404711D01*
X7666481Y-6395313D01*
X7672476Y-6384899D01*
X7675880Y-6376314D01*
X7626350Y-6376314D01*
G37*
G36*
X551484Y-6353657D02*
G01*
X551484Y-6304127D01*
X501954Y-6304127D01*
X505358Y-6312712D01*
X511352Y-6323126D01*
X518871Y-6332524D01*
X527659Y-6340703D01*
X537616Y-6347460D01*
X548436Y-6352692D01*
G37*
G36*
X248615Y-6353657D02*
G01*
X251663Y-6352692D01*
X262483Y-6347460D01*
X272440Y-6340703D01*
X281228Y-6332524D01*
X288747Y-6323126D01*
X294741Y-6312712D01*
X298145Y-6304127D01*
X248615Y-6304127D01*
G37*
G36*
X604215Y-6353657D02*
G01*
X607263Y-6352692D01*
X618083Y-6347460D01*
X628040Y-6340703D01*
X636828Y-6332524D01*
X644347Y-6323126D01*
X650341Y-6312712D01*
X653745Y-6304127D01*
X604215Y-6304127D01*
G37*
G36*
X195884Y-6353657D02*
G01*
X195884Y-6304127D01*
X146354Y-6304127D01*
X149758Y-6312712D01*
X155752Y-6323126D01*
X163271Y-6332524D01*
X172059Y-6340703D01*
X182016Y-6347460D01*
X192836Y-6352692D01*
G37*
G36*
X7751419Y-6353657D02*
G01*
X7751419Y-6304127D01*
X7701889Y-6304127D01*
X7705293Y-6312712D01*
X7711287Y-6323126D01*
X7718806Y-6332524D01*
X7727594Y-6340703D01*
X7737551Y-6347460D01*
X7748371Y-6352692D01*
G37*
G36*
X7395819Y-6353657D02*
G01*
X7395819Y-6304127D01*
X7346289Y-6304127D01*
X7349693Y-6312712D01*
X7355687Y-6323126D01*
X7363206Y-6332524D01*
X7371994Y-6340703D01*
X7381951Y-6347460D01*
X7392771Y-6352692D01*
G37*
G36*
X7804150Y-6353657D02*
G01*
X7807198Y-6352692D01*
X7818018Y-6347460D01*
X7827975Y-6340703D01*
X7836763Y-6332524D01*
X7844281Y-6323126D01*
X7850276Y-6312712D01*
X7853680Y-6304127D01*
X7804150Y-6304127D01*
G37*
G36*
X7448550Y-6353657D02*
G01*
X7451598Y-6352692D01*
X7462418Y-6347460D01*
X7472375Y-6340703D01*
X7481163Y-6332524D01*
X7488681Y-6323126D01*
X7494676Y-6312712D01*
X7498080Y-6304127D01*
X7448550Y-6304127D01*
G37*
G36*
X324154Y-6323634D02*
G01*
X373684Y-6323634D01*
X373684Y-6314998D01*
X374497Y-6311087D01*
X376783Y-6307734D01*
X380136Y-6305550D01*
X384149Y-6304889D01*
X405028Y-6305448D01*
X415493Y-6304686D01*
X419608Y-6305194D01*
X423164Y-6307378D01*
X425551Y-6310731D01*
X426415Y-6314795D01*
X426415Y-6323634D01*
X475945Y-6323634D01*
X472541Y-6315049D01*
X467614Y-6306515D01*
X466293Y-6302349D01*
X466851Y-6298031D01*
X469138Y-6294323D01*
X472795Y-6291935D01*
X482142Y-6288379D01*
X484784Y-6287058D01*
X487476Y-6286296D01*
X489254Y-6284874D01*
X499922Y-6279591D01*
X516788Y-6269126D01*
X532587Y-6257036D01*
X535686Y-6254140D01*
X538886Y-6252159D01*
X542594Y-6251448D01*
X551484Y-6251448D01*
X551484Y-6242405D01*
X552145Y-6238798D01*
X554075Y-6235700D01*
X560273Y-6228689D01*
X571957Y-6212586D01*
X582015Y-6195466D01*
X584809Y-6189421D01*
X586333Y-6187389D01*
X586943Y-6184849D01*
X590397Y-6177483D01*
X591972Y-6173012D01*
X594309Y-6169253D01*
X598017Y-6166866D01*
X602386Y-6166256D01*
X606602Y-6167577D01*
X615137Y-6172504D01*
X623722Y-6175857D01*
X623722Y-6126327D01*
X614934Y-6126327D01*
X610920Y-6125514D01*
X607568Y-6123178D01*
X605434Y-6119723D01*
X604774Y-6115710D01*
X605536Y-6100013D01*
X604774Y-6084265D01*
X605434Y-6080252D01*
X607568Y-6076797D01*
X610920Y-6074460D01*
X614934Y-6073648D01*
X623722Y-6073648D01*
X623722Y-6024118D01*
X615137Y-6027470D01*
X606602Y-6032398D01*
X602386Y-6033719D01*
X598017Y-6033109D01*
X594309Y-6030722D01*
X591972Y-6026962D01*
X590397Y-6022492D01*
X586943Y-6015126D01*
X586333Y-6012586D01*
X584809Y-6010554D01*
X582015Y-6004509D01*
X571957Y-5987389D01*
X560273Y-5971286D01*
X554075Y-5964275D01*
X552145Y-5961176D01*
X551484Y-5957570D01*
X551484Y-5948527D01*
X542594Y-5948527D01*
X538886Y-5947816D01*
X535686Y-5945835D01*
X532587Y-5942939D01*
X516788Y-5930849D01*
X499922Y-5920384D01*
X489254Y-5915101D01*
X487476Y-5913678D01*
X484784Y-5912916D01*
X482142Y-5911596D01*
X472795Y-5908040D01*
X469138Y-5905652D01*
X466851Y-5901994D01*
X466293Y-5897626D01*
X467614Y-5893460D01*
X472541Y-5884926D01*
X475945Y-5876340D01*
X426415Y-5876340D01*
X426415Y-5885180D01*
X425551Y-5889244D01*
X423164Y-5892596D01*
X419608Y-5894781D01*
X415493Y-5895289D01*
X405028Y-5894527D01*
X384149Y-5895086D01*
X380136Y-5894425D01*
X376783Y-5892241D01*
X374497Y-5888888D01*
X373684Y-5884976D01*
X373684Y-5876340D01*
X324154Y-5876340D01*
X327558Y-5884926D01*
X332384Y-5893257D01*
X333654Y-5897321D01*
X333197Y-5901537D01*
X331063Y-5905195D01*
X327609Y-5907633D01*
X314858Y-5913221D01*
X312369Y-5913678D01*
X308965Y-5915761D01*
X291642Y-5925413D01*
X275285Y-5936691D01*
X264109Y-5946140D01*
X261010Y-5947918D01*
X257556Y-5948527D01*
X248615Y-5948527D01*
X248615Y-5957214D01*
X248005Y-5960567D01*
X246379Y-5963564D01*
X233781Y-5979210D01*
X222910Y-5995822D01*
X215036Y-6010808D01*
X213614Y-6012484D01*
X213156Y-6014669D01*
X207975Y-6027420D01*
X205536Y-6030976D01*
X201879Y-6033211D01*
X197561Y-6033719D01*
X193497Y-6032398D01*
X184962Y-6027470D01*
X176377Y-6024118D01*
X176377Y-6073648D01*
X185216Y-6073648D01*
X189331Y-6074511D01*
X192735Y-6076950D01*
X194818Y-6080607D01*
X195326Y-6084773D01*
X194818Y-6090056D01*
X194818Y-6109919D01*
X195326Y-6115202D01*
X194818Y-6119368D01*
X192735Y-6123025D01*
X189331Y-6125464D01*
X185216Y-6126327D01*
X176377Y-6126327D01*
X176377Y-6175857D01*
X184962Y-6172504D01*
X193497Y-6167577D01*
X197561Y-6166256D01*
X201879Y-6166764D01*
X205536Y-6168999D01*
X207975Y-6172555D01*
X213156Y-6185306D01*
X213614Y-6187490D01*
X215036Y-6189167D01*
X222910Y-6204153D01*
X233781Y-6220764D01*
X246379Y-6236411D01*
X248005Y-6239408D01*
X248615Y-6242761D01*
X248615Y-6251448D01*
X257556Y-6251448D01*
X261010Y-6252057D01*
X264109Y-6253835D01*
X275285Y-6263284D01*
X291642Y-6274562D01*
X308965Y-6284214D01*
X312369Y-6286296D01*
X314858Y-6286754D01*
X327609Y-6292342D01*
X331063Y-6294780D01*
X333197Y-6298438D01*
X333654Y-6302654D01*
X332384Y-6306718D01*
X327558Y-6315049D01*
G37*
G36*
X7524089Y-6323634D02*
G01*
X7573619Y-6323634D01*
X7573619Y-6314998D01*
X7574432Y-6311087D01*
X7576718Y-6307734D01*
X7580071Y-6305550D01*
X7584084Y-6304889D01*
X7604963Y-6305448D01*
X7615428Y-6304686D01*
X7619542Y-6305194D01*
X7623098Y-6307378D01*
X7625486Y-6310731D01*
X7626350Y-6314795D01*
X7626350Y-6323634D01*
X7675880Y-6323634D01*
X7672476Y-6315049D01*
X7667548Y-6306515D01*
X7666228Y-6302349D01*
X7666786Y-6298031D01*
X7669072Y-6294323D01*
X7672730Y-6291935D01*
X7682077Y-6288379D01*
X7684719Y-6287058D01*
X7687411Y-6286296D01*
X7689189Y-6284874D01*
X7699857Y-6279591D01*
X7716723Y-6269126D01*
X7732522Y-6257036D01*
X7735620Y-6254140D01*
X7738821Y-6252159D01*
X7742529Y-6251448D01*
X7751419Y-6251448D01*
X7751419Y-6242405D01*
X7752080Y-6238798D01*
X7754010Y-6235700D01*
X7760208Y-6228689D01*
X7771892Y-6212586D01*
X7781950Y-6195466D01*
X7784744Y-6189421D01*
X7786268Y-6187389D01*
X7786878Y-6184849D01*
X7790332Y-6177483D01*
X7791907Y-6173012D01*
X7794244Y-6169253D01*
X7797952Y-6166866D01*
X7802321Y-6166256D01*
X7806537Y-6167577D01*
X7815072Y-6172504D01*
X7823657Y-6175857D01*
X7823657Y-6126327D01*
X7814868Y-6126327D01*
X7810855Y-6125514D01*
X7807502Y-6123178D01*
X7805369Y-6119723D01*
X7804708Y-6115710D01*
X7805470Y-6100013D01*
X7804708Y-6084265D01*
X7805369Y-6080252D01*
X7807502Y-6076797D01*
X7810855Y-6074460D01*
X7814868Y-6073648D01*
X7823657Y-6073648D01*
X7823657Y-6024118D01*
X7815072Y-6027470D01*
X7806537Y-6032398D01*
X7802321Y-6033719D01*
X7797952Y-6033109D01*
X7794244Y-6030722D01*
X7791907Y-6026962D01*
X7790332Y-6022492D01*
X7786878Y-6015126D01*
X7786268Y-6012586D01*
X7784744Y-6010554D01*
X7781950Y-6004509D01*
X7771892Y-5987389D01*
X7760208Y-5971286D01*
X7754010Y-5964275D01*
X7752080Y-5961176D01*
X7751419Y-5957570D01*
X7751419Y-5948527D01*
X7742529Y-5948527D01*
X7738821Y-5947816D01*
X7735620Y-5945835D01*
X7732522Y-5942939D01*
X7716723Y-5930849D01*
X7699857Y-5920384D01*
X7689189Y-5915101D01*
X7687411Y-5913678D01*
X7684719Y-5912916D01*
X7682077Y-5911596D01*
X7672730Y-5908040D01*
X7669072Y-5905652D01*
X7666786Y-5901994D01*
X7666228Y-5897626D01*
X7667548Y-5893460D01*
X7672476Y-5884926D01*
X7675880Y-5876340D01*
X7626350Y-5876340D01*
X7626350Y-5885180D01*
X7625486Y-5889244D01*
X7623098Y-5892596D01*
X7619542Y-5894781D01*
X7615428Y-5895289D01*
X7604963Y-5894527D01*
X7584084Y-5895086D01*
X7580071Y-5894425D01*
X7576718Y-5892241D01*
X7574432Y-5888888D01*
X7573619Y-5884976D01*
X7573619Y-5876340D01*
X7524089Y-5876340D01*
X7527493Y-5884926D01*
X7532319Y-5893257D01*
X7533589Y-5897321D01*
X7533131Y-5901537D01*
X7530998Y-5905195D01*
X7527544Y-5907633D01*
X7514793Y-5913221D01*
X7512303Y-5913678D01*
X7508900Y-5915761D01*
X7491577Y-5925413D01*
X7475220Y-5936691D01*
X7464044Y-5946140D01*
X7460945Y-5947918D01*
X7457490Y-5948527D01*
X7448550Y-5948527D01*
X7448550Y-5957214D01*
X7447940Y-5960567D01*
X7446314Y-5963564D01*
X7433716Y-5979210D01*
X7422845Y-5995822D01*
X7414971Y-6010808D01*
X7413548Y-6012484D01*
X7413091Y-6014669D01*
X7407909Y-6027420D01*
X7405471Y-6030976D01*
X7401814Y-6033211D01*
X7397496Y-6033719D01*
X7393431Y-6032398D01*
X7384897Y-6027470D01*
X7376312Y-6024118D01*
X7376312Y-6073648D01*
X7385151Y-6073648D01*
X7389266Y-6074511D01*
X7392670Y-6076950D01*
X7394752Y-6080607D01*
X7395260Y-6084773D01*
X7394752Y-6090056D01*
X7394752Y-6109919D01*
X7395260Y-6115202D01*
X7394752Y-6119368D01*
X7392670Y-6123025D01*
X7389266Y-6125464D01*
X7385151Y-6126327D01*
X7376312Y-6126327D01*
X7376312Y-6175857D01*
X7384897Y-6172504D01*
X7393431Y-6167577D01*
X7397496Y-6166256D01*
X7401814Y-6166764D01*
X7405471Y-6168999D01*
X7407909Y-6172555D01*
X7413091Y-6185306D01*
X7413548Y-6187490D01*
X7414971Y-6189167D01*
X7422845Y-6204153D01*
X7433716Y-6220764D01*
X7446314Y-6236411D01*
X7447940Y-6239408D01*
X7448550Y-6242761D01*
X7448550Y-6251448D01*
X7457490Y-6251448D01*
X7460945Y-6252057D01*
X7464044Y-6253835D01*
X7475220Y-6263284D01*
X7491577Y-6274562D01*
X7508900Y-6284214D01*
X7512303Y-6286296D01*
X7514793Y-6286754D01*
X7527544Y-6292342D01*
X7530998Y-6294780D01*
X7533131Y-6298438D01*
X7533589Y-6302654D01*
X7532319Y-6306718D01*
X7527493Y-6315049D01*
G37*
G36*
X604215Y-6251448D02*
G01*
X653745Y-6251448D01*
X650341Y-6242862D01*
X644347Y-6232448D01*
X636828Y-6223050D01*
X628040Y-6214872D01*
X618083Y-6208115D01*
X607263Y-6202883D01*
X604215Y-6201918D01*
G37*
G36*
X146354Y-6251448D02*
G01*
X195884Y-6251448D01*
X195884Y-6201918D01*
X192836Y-6202883D01*
X182016Y-6208115D01*
X172059Y-6214872D01*
X163271Y-6223050D01*
X155752Y-6232448D01*
X149758Y-6242862D01*
G37*
G36*
X7346289Y-6251448D02*
G01*
X7395819Y-6251448D01*
X7395819Y-6201918D01*
X7392771Y-6202883D01*
X7381951Y-6208115D01*
X7371994Y-6214872D01*
X7363206Y-6223050D01*
X7355687Y-6232448D01*
X7349693Y-6242862D01*
G37*
G36*
X7804150Y-6251448D02*
G01*
X7853680Y-6251448D01*
X7850276Y-6242862D01*
X7844281Y-6232448D01*
X7836763Y-6223050D01*
X7827975Y-6214872D01*
X7818018Y-6208115D01*
X7807198Y-6202883D01*
X7804150Y-6201918D01*
G37*
G36*
X676402Y-6175857D02*
G01*
X684987Y-6172504D01*
X695401Y-6166459D01*
X704799Y-6158992D01*
X712978Y-6150152D01*
X719734Y-6140246D01*
X724966Y-6129375D01*
X725932Y-6126327D01*
X676402Y-6126327D01*
G37*
G36*
X7323632Y-6175857D02*
G01*
X7323632Y-6126327D01*
X7274102Y-6126327D01*
X7275068Y-6129375D01*
X7280300Y-6140246D01*
X7287056Y-6150152D01*
X7295235Y-6158992D01*
X7304633Y-6166459D01*
X7315047Y-6172504D01*
G37*
G36*
X123698Y-6175857D02*
G01*
X123698Y-6126327D01*
X74168Y-6126327D01*
X75133Y-6129375D01*
X80365Y-6140246D01*
X87122Y-6150152D01*
X95300Y-6158992D01*
X104698Y-6166459D01*
X115112Y-6172504D01*
G37*
G36*
X7876336Y-6175857D02*
G01*
X7884922Y-6172504D01*
X7895336Y-6166459D01*
X7904734Y-6158992D01*
X7912912Y-6150152D01*
X7919669Y-6140246D01*
X7924901Y-6129375D01*
X7925866Y-6126327D01*
X7876336Y-6126327D01*
G37*
G36*
X3954373Y-6152946D02*
G01*
X3954373Y-6080760D01*
X3882237Y-6080760D01*
X3884625Y-6086398D01*
X3892499Y-6100368D01*
X3901948Y-6113322D01*
X3912768Y-6125159D01*
X3924909Y-6135674D01*
X3938168Y-6144717D01*
X3952341Y-6152184D01*
G37*
G36*
X5864352Y-6152946D02*
G01*
X5864352Y-6080760D01*
X5792216Y-6080760D01*
X5794603Y-6086398D01*
X5802528Y-6100368D01*
X5811926Y-6113322D01*
X5822797Y-6125159D01*
X5834888Y-6135674D01*
X5848146Y-6144717D01*
X5862320Y-6152184D01*
G37*
G36*
X5977026Y-6152845D02*
G01*
X5986272Y-6148628D01*
X5999988Y-6140348D01*
X6012688Y-6130594D01*
X6024219Y-6119368D01*
X6034379Y-6106972D01*
X6043015Y-6093460D01*
X6049314Y-6080760D01*
X5977026Y-6080760D01*
G37*
G36*
X4067048Y-6152845D02*
G01*
X4076242Y-6148628D01*
X4090009Y-6140348D01*
X4102709Y-6130594D01*
X4114190Y-6119368D01*
X4124350Y-6106972D01*
X4133037Y-6093460D01*
X4139285Y-6080760D01*
X4067048Y-6080760D01*
G37*
G36*
X7274102Y-6073648D02*
G01*
X7323632Y-6073648D01*
X7323632Y-6024118D01*
X7315047Y-6027470D01*
X7304633Y-6033516D01*
X7295235Y-6040983D01*
X7287056Y-6049822D01*
X7280300Y-6059728D01*
X7275068Y-6070600D01*
G37*
G36*
X676402Y-6073648D02*
G01*
X725932Y-6073648D01*
X724966Y-6070600D01*
X719734Y-6059728D01*
X712978Y-6049822D01*
X704799Y-6040983D01*
X695401Y-6033516D01*
X684987Y-6027470D01*
X676402Y-6024118D01*
G37*
G36*
X74168Y-6073648D02*
G01*
X123698Y-6073648D01*
X123698Y-6024118D01*
X115112Y-6027470D01*
X104698Y-6033516D01*
X95300Y-6040983D01*
X87122Y-6049822D01*
X80365Y-6059728D01*
X75133Y-6070600D01*
G37*
G36*
X7876336Y-6073648D02*
G01*
X7925866Y-6073648D01*
X7924901Y-6070600D01*
X7919669Y-6059728D01*
X7912912Y-6049822D01*
X7904734Y-6040983D01*
X7895336Y-6033516D01*
X7884922Y-6027470D01*
X7876336Y-6024118D01*
G37*
G36*
X604215Y-5998057D02*
G01*
X607263Y-5997092D01*
X618083Y-5991860D01*
X628040Y-5985103D01*
X636828Y-5976924D01*
X644347Y-5967526D01*
X650341Y-5957112D01*
X653745Y-5948527D01*
X604215Y-5948527D01*
G37*
G36*
X195884Y-5998057D02*
G01*
X195884Y-5948527D01*
X146354Y-5948527D01*
X149758Y-5957112D01*
X155752Y-5967526D01*
X163271Y-5976924D01*
X172059Y-5985103D01*
X182016Y-5991860D01*
X192836Y-5997092D01*
G37*
G36*
X7395819Y-5998057D02*
G01*
X7395819Y-5948527D01*
X7346289Y-5948527D01*
X7349693Y-5957112D01*
X7355687Y-5967526D01*
X7363206Y-5976924D01*
X7371994Y-5985103D01*
X7381951Y-5991860D01*
X7392771Y-5997092D01*
G37*
G36*
X7804150Y-5998057D02*
G01*
X7807198Y-5997092D01*
X7818018Y-5991860D01*
X7827975Y-5985103D01*
X7836763Y-5976924D01*
X7844281Y-5967526D01*
X7850276Y-5957112D01*
X7853680Y-5948527D01*
X7804150Y-5948527D01*
G37*
G36*
X3882237Y-5968034D02*
G01*
X3954373Y-5968034D01*
X3954373Y-5826760D01*
X3882237Y-5826760D01*
X3884625Y-5832398D01*
X3892499Y-5846368D01*
X3901948Y-5859322D01*
X3912768Y-5871159D01*
X3924909Y-5881674D01*
X3935679Y-5888990D01*
X3938422Y-5891784D01*
X3939895Y-5895441D01*
X3939895Y-5899353D01*
X3938422Y-5903010D01*
X3935679Y-5905804D01*
X3924909Y-5913120D01*
X3912768Y-5923635D01*
X3901948Y-5935472D01*
X3892499Y-5948426D01*
X3884625Y-5962396D01*
G37*
G36*
X5792216Y-5968034D02*
G01*
X5864352Y-5968034D01*
X5864352Y-5826760D01*
X5792216Y-5826760D01*
X5794603Y-5832398D01*
X5802528Y-5846368D01*
X5811926Y-5859322D01*
X5822797Y-5871159D01*
X5834888Y-5881674D01*
X5845657Y-5888990D01*
X5848400Y-5891784D01*
X5849924Y-5895441D01*
X5849924Y-5899353D01*
X5848400Y-5903010D01*
X5845657Y-5905804D01*
X5834888Y-5913120D01*
X5822797Y-5923635D01*
X5811926Y-5935472D01*
X5802528Y-5948426D01*
X5794603Y-5962396D01*
G37*
G36*
X4067048Y-5968034D02*
G01*
X4139285Y-5968034D01*
X4133037Y-5955334D01*
X4124350Y-5941822D01*
X4114190Y-5929376D01*
X4102709Y-5918200D01*
X4090009Y-5908446D01*
X4086148Y-5906109D01*
X4083100Y-5903264D01*
X4081424Y-5899454D01*
X4081424Y-5895340D01*
X4083100Y-5891530D01*
X4086148Y-5888685D01*
X4090009Y-5886348D01*
X4102709Y-5876594D01*
X4114190Y-5865418D01*
X4124350Y-5852972D01*
X4133037Y-5839460D01*
X4139285Y-5826760D01*
X4067048Y-5826760D01*
G37*
G36*
X5977026Y-5968034D02*
G01*
X6049314Y-5968034D01*
X6043015Y-5955334D01*
X6034379Y-5941822D01*
X6024219Y-5929376D01*
X6012688Y-5918200D01*
X5999988Y-5908446D01*
X5996127Y-5906109D01*
X5993079Y-5903264D01*
X5991453Y-5899454D01*
X5991453Y-5895340D01*
X5993079Y-5891530D01*
X5996127Y-5888685D01*
X5999988Y-5886348D01*
X6012688Y-5876594D01*
X6024219Y-5865418D01*
X6034379Y-5852972D01*
X6043015Y-5839460D01*
X6049314Y-5826760D01*
X5977026Y-5826760D01*
G37*
G36*
X3278936Y-5954471D02*
G01*
X3299663Y-5954471D01*
X3320237Y-5952591D01*
X3340608Y-5948934D01*
X3360521Y-5943396D01*
X3379876Y-5936132D01*
X3398520Y-5927191D01*
X3416300Y-5916574D01*
X3433013Y-5904433D01*
X3448608Y-5890818D01*
X3462883Y-5875832D01*
X3475786Y-5859678D01*
X3487165Y-5842406D01*
X3496970Y-5824220D01*
X3505098Y-5805170D01*
X3511499Y-5785510D01*
X3516071Y-5765342D01*
X3518865Y-5744870D01*
X3519830Y-5723991D01*
X3519830Y-5604408D01*
X3518865Y-5583529D01*
X3516071Y-5563057D01*
X3511499Y-5542889D01*
X3505098Y-5523230D01*
X3496970Y-5504180D01*
X3487165Y-5485993D01*
X3475786Y-5468721D01*
X3462883Y-5452567D01*
X3448608Y-5437581D01*
X3433013Y-5423966D01*
X3416300Y-5411825D01*
X3398520Y-5401208D01*
X3379876Y-5392267D01*
X3360521Y-5385003D01*
X3340608Y-5379466D01*
X3320237Y-5375808D01*
X3299663Y-5373928D01*
X3278936Y-5373928D01*
X3258362Y-5375808D01*
X3237992Y-5379466D01*
X3218078Y-5385003D01*
X3198723Y-5392267D01*
X3180080Y-5401208D01*
X3162300Y-5411825D01*
X3145586Y-5423966D01*
X3129991Y-5437581D01*
X3115716Y-5452567D01*
X3102813Y-5468721D01*
X3091434Y-5485993D01*
X3081629Y-5504180D01*
X3073501Y-5523230D01*
X3067100Y-5542889D01*
X3062528Y-5563057D01*
X3059734Y-5583529D01*
X3058769Y-5604408D01*
X3058769Y-5723991D01*
X3059734Y-5744870D01*
X3062528Y-5765342D01*
X3067100Y-5785510D01*
X3073501Y-5805170D01*
X3081629Y-5824220D01*
X3091434Y-5842406D01*
X3102813Y-5859678D01*
X3115716Y-5875832D01*
X3129991Y-5890818D01*
X3145586Y-5904433D01*
X3162300Y-5916574D01*
X3180080Y-5927191D01*
X3198723Y-5936132D01*
X3218078Y-5943396D01*
X3237992Y-5948934D01*
X3258362Y-5952591D01*
G37*
G36*
X1119936Y-5954471D02*
G01*
X1140663Y-5954471D01*
X1161237Y-5952591D01*
X1181608Y-5948934D01*
X1201521Y-5943396D01*
X1220876Y-5936132D01*
X1239520Y-5927191D01*
X1257300Y-5916574D01*
X1274013Y-5904433D01*
X1289608Y-5890818D01*
X1303883Y-5875832D01*
X1316786Y-5859678D01*
X1328166Y-5842406D01*
X1337970Y-5824220D01*
X1346098Y-5805170D01*
X1352499Y-5785510D01*
X1357071Y-5765342D01*
X1359865Y-5744870D01*
X1360830Y-5723991D01*
X1360830Y-5604408D01*
X1359865Y-5583529D01*
X1357071Y-5563057D01*
X1352499Y-5542889D01*
X1346098Y-5523230D01*
X1337970Y-5504180D01*
X1328166Y-5485993D01*
X1316786Y-5468721D01*
X1303883Y-5452567D01*
X1289608Y-5437581D01*
X1274013Y-5423966D01*
X1257300Y-5411825D01*
X1239520Y-5401208D01*
X1220876Y-5392267D01*
X1201521Y-5385003D01*
X1181608Y-5379466D01*
X1161237Y-5375808D01*
X1140663Y-5373928D01*
X1119936Y-5373928D01*
X1099362Y-5375808D01*
X1078992Y-5379466D01*
X1059078Y-5385003D01*
X1039723Y-5392267D01*
X1021080Y-5401208D01*
X1003300Y-5411825D01*
X986586Y-5423966D01*
X970991Y-5437581D01*
X956716Y-5452567D01*
X943813Y-5468721D01*
X932434Y-5485993D01*
X922629Y-5504180D01*
X914501Y-5523230D01*
X908100Y-5542889D01*
X903528Y-5563057D01*
X900734Y-5583529D01*
X899769Y-5604408D01*
X899769Y-5723991D01*
X900734Y-5744870D01*
X903528Y-5765342D01*
X908100Y-5785510D01*
X914501Y-5805170D01*
X922629Y-5824220D01*
X932434Y-5842406D01*
X943813Y-5859678D01*
X956716Y-5875832D01*
X970991Y-5890818D01*
X986586Y-5904433D01*
X1003300Y-5916574D01*
X1021080Y-5927191D01*
X1039723Y-5936132D01*
X1059078Y-5943396D01*
X1078992Y-5948934D01*
X1099362Y-5952591D01*
G37*
G36*
X604215Y-5895848D02*
G01*
X653745Y-5895848D01*
X650341Y-5887262D01*
X644347Y-5876848D01*
X636828Y-5867450D01*
X628040Y-5859272D01*
X618083Y-5852515D01*
X607263Y-5847283D01*
X604215Y-5846318D01*
G37*
G36*
X248615Y-5895848D02*
G01*
X298145Y-5895848D01*
X294741Y-5887262D01*
X288747Y-5876848D01*
X281228Y-5867450D01*
X272440Y-5859272D01*
X262483Y-5852515D01*
X251663Y-5847283D01*
X248615Y-5846318D01*
G37*
G36*
X501954Y-5895848D02*
G01*
X551484Y-5895848D01*
X551484Y-5846318D01*
X548436Y-5847283D01*
X537616Y-5852515D01*
X527659Y-5859272D01*
X518871Y-5867450D01*
X511352Y-5876848D01*
X505358Y-5887262D01*
G37*
G36*
X146354Y-5895848D02*
G01*
X195884Y-5895848D01*
X195884Y-5846318D01*
X192836Y-5847283D01*
X182016Y-5852515D01*
X172059Y-5859272D01*
X163271Y-5867450D01*
X155752Y-5876848D01*
X149758Y-5887262D01*
G37*
G36*
X7448550Y-5895848D02*
G01*
X7498080Y-5895848D01*
X7494676Y-5887262D01*
X7488681Y-5876848D01*
X7481163Y-5867450D01*
X7472375Y-5859272D01*
X7462418Y-5852515D01*
X7451598Y-5847283D01*
X7448550Y-5846318D01*
G37*
G36*
X7701889Y-5895848D02*
G01*
X7751419Y-5895848D01*
X7751419Y-5846318D01*
X7748371Y-5847283D01*
X7737551Y-5852515D01*
X7727594Y-5859272D01*
X7718806Y-5867450D01*
X7711287Y-5876848D01*
X7705293Y-5887262D01*
G37*
G36*
X7804150Y-5895848D02*
G01*
X7853680Y-5895848D01*
X7850276Y-5887262D01*
X7844281Y-5876848D01*
X7836763Y-5867450D01*
X7827975Y-5859272D01*
X7818018Y-5852515D01*
X7807198Y-5847283D01*
X7804150Y-5846318D01*
G37*
G36*
X7346289Y-5895848D02*
G01*
X7395819Y-5895848D01*
X7395819Y-5846318D01*
X7392771Y-5847283D01*
X7381951Y-5852515D01*
X7371994Y-5859272D01*
X7363206Y-5867450D01*
X7355687Y-5876848D01*
X7349693Y-5887262D01*
G37*
G36*
X426415Y-5823661D02*
G01*
X475945Y-5823661D01*
X472541Y-5815076D01*
X466547Y-5804662D01*
X459028Y-5795264D01*
X450240Y-5787085D01*
X440283Y-5780278D01*
X429463Y-5775096D01*
X426415Y-5774131D01*
G37*
G36*
X324154Y-5823661D02*
G01*
X373684Y-5823661D01*
X373684Y-5774131D01*
X370636Y-5775096D01*
X359816Y-5780278D01*
X349859Y-5787085D01*
X341071Y-5795264D01*
X333552Y-5804662D01*
X327558Y-5815076D01*
G37*
G36*
X7524089Y-5823661D02*
G01*
X7573619Y-5823661D01*
X7573619Y-5774131D01*
X7570571Y-5775096D01*
X7559751Y-5780278D01*
X7549794Y-5787085D01*
X7541006Y-5795264D01*
X7533487Y-5804662D01*
X7527493Y-5815076D01*
G37*
G36*
X7626350Y-5823661D02*
G01*
X7675880Y-5823661D01*
X7672476Y-5815076D01*
X7666481Y-5804662D01*
X7658963Y-5795264D01*
X7650175Y-5787085D01*
X7640218Y-5780278D01*
X7629398Y-5775096D01*
X7626350Y-5774131D01*
G37*
G36*
X3882237Y-5714034D02*
G01*
X3954373Y-5714034D01*
X3954373Y-5641848D01*
X3952341Y-5642610D01*
X3938168Y-5650077D01*
X3924909Y-5659120D01*
X3912768Y-5669635D01*
X3901948Y-5681472D01*
X3892499Y-5694426D01*
X3884625Y-5708396D01*
G37*
G36*
X5792216Y-5714034D02*
G01*
X5864352Y-5714034D01*
X5864352Y-5641848D01*
X5862320Y-5642610D01*
X5848146Y-5650077D01*
X5834888Y-5659120D01*
X5822797Y-5669635D01*
X5811926Y-5681472D01*
X5802528Y-5694426D01*
X5794603Y-5708396D01*
G37*
G36*
X4067048Y-5714034D02*
G01*
X4139285Y-5714034D01*
X4133037Y-5701334D01*
X4124350Y-5687822D01*
X4114190Y-5675376D01*
X4102709Y-5664200D01*
X4090009Y-5654446D01*
X4076242Y-5646166D01*
X4067048Y-5641949D01*
G37*
G36*
X5977026Y-5714034D02*
G01*
X6049314Y-5714034D01*
X6043015Y-5701334D01*
X6034379Y-5687822D01*
X6024219Y-5675376D01*
X6012688Y-5664200D01*
X5999988Y-5654446D01*
X5986272Y-5646166D01*
X5977026Y-5641949D01*
G37*
G36*
X7087108Y-5641187D02*
G01*
X7238492Y-5641187D01*
X7246874Y-5640374D01*
X7254494Y-5638088D01*
X7261453Y-5634329D01*
X7267600Y-5629300D01*
X7272629Y-5623153D01*
X7276388Y-5616194D01*
X7278674Y-5608574D01*
X7279487Y-5600192D01*
X7279487Y-5448808D01*
X7278674Y-5440426D01*
X7276388Y-5432806D01*
X7272629Y-5425846D01*
X7267600Y-5419699D01*
X7261453Y-5414670D01*
X7254494Y-5410911D01*
X7246874Y-5408625D01*
X7238492Y-5407812D01*
X7087108Y-5407812D01*
X7078725Y-5408625D01*
X7071106Y-5410911D01*
X7064146Y-5414670D01*
X7057999Y-5419699D01*
X7052970Y-5425846D01*
X7049211Y-5432806D01*
X7046925Y-5440426D01*
X7046112Y-5448808D01*
X7046112Y-5600192D01*
X7046925Y-5608574D01*
X7049211Y-5616194D01*
X7052970Y-5623153D01*
X7057999Y-5629300D01*
X7064146Y-5634329D01*
X7071106Y-5638088D01*
X7078725Y-5640374D01*
G37*
G36*
X6647484Y-5640933D02*
G01*
X6662115Y-5640933D01*
X6676644Y-5639104D01*
X6690868Y-5635498D01*
X6704482Y-5630062D01*
X6717334Y-5623001D01*
X6729171Y-5614416D01*
X6739839Y-5604357D01*
X6749186Y-5593080D01*
X6757060Y-5580735D01*
X6763308Y-5567476D01*
X6767830Y-5553506D01*
X6770573Y-5539130D01*
X6771487Y-5524500D01*
X6770573Y-5509869D01*
X6767830Y-5495493D01*
X6763308Y-5481523D01*
X6757060Y-5468264D01*
X6749186Y-5455920D01*
X6739839Y-5444642D01*
X6729171Y-5434584D01*
X6717334Y-5425998D01*
X6704482Y-5418937D01*
X6690868Y-5413502D01*
X6676644Y-5409895D01*
X6664198Y-5408218D01*
X6614261Y-5402376D01*
X6611010Y-5401411D01*
X6608267Y-5399430D01*
X6217970Y-5009184D01*
X6215786Y-5005882D01*
X6215024Y-5002022D01*
X6215024Y-4496003D01*
X6214770Y-4490974D01*
X6214160Y-4486148D01*
X6213094Y-4481423D01*
X6211671Y-4476800D01*
X6209792Y-4472330D01*
X6207556Y-4468063D01*
X6204966Y-4463948D01*
X6202019Y-4460138D01*
X6198616Y-4456379D01*
X6084620Y-4342384D01*
X6080861Y-4338980D01*
X6077051Y-4336034D01*
X6072936Y-4333443D01*
X6068669Y-4331208D01*
X6064199Y-4329328D01*
X6059576Y-4327906D01*
X6054852Y-4326839D01*
X6050026Y-4326229D01*
X6044996Y-4325975D01*
X5386578Y-4325975D01*
X5382717Y-4325213D01*
X5379415Y-4323029D01*
X5351322Y-4294886D01*
X5348986Y-4291330D01*
X5348325Y-4287164D01*
X5349443Y-4283100D01*
X5352135Y-4279798D01*
X5355894Y-4277918D01*
X5360111Y-4277715D01*
X5364073Y-4279239D01*
X5368340Y-4282033D01*
X5382361Y-4289094D01*
X5397042Y-4294428D01*
X5412232Y-4298035D01*
X5427776Y-4299864D01*
X5443423Y-4299864D01*
X5458968Y-4298035D01*
X5474157Y-4294428D01*
X5488838Y-4289094D01*
X5502859Y-4282033D01*
X5515914Y-4273448D01*
X5524093Y-4266844D01*
X5575503Y-4223512D01*
X5578551Y-4221734D01*
X5582056Y-4221124D01*
X6043422Y-4221124D01*
X6047282Y-4221886D01*
X6050584Y-4224070D01*
X6240729Y-4414215D01*
X6242913Y-4417517D01*
X6243675Y-4421378D01*
X6243675Y-4584496D01*
X6243929Y-4589526D01*
X6244539Y-4594352D01*
X6245606Y-4599076D01*
X6247028Y-4603699D01*
X6248908Y-4608169D01*
X6251143Y-4612436D01*
X6253734Y-4616551D01*
X6256680Y-4620361D01*
X6260084Y-4624120D01*
X6529730Y-4893767D01*
X6531711Y-4896510D01*
X6532676Y-4899761D01*
X6538976Y-4954778D01*
X6541770Y-4969306D01*
X6546291Y-4983276D01*
X6552539Y-4996535D01*
X6560413Y-5008880D01*
X6569760Y-5020157D01*
X6580428Y-5030216D01*
X6592265Y-5038801D01*
X6605117Y-5045862D01*
X6618731Y-5051298D01*
X6632956Y-5054904D01*
X6647484Y-5056733D01*
X6662115Y-5056733D01*
X6676644Y-5054904D01*
X6690868Y-5051298D01*
X6704482Y-5045862D01*
X6711238Y-5042154D01*
X6715252Y-5040934D01*
X6719417Y-5041442D01*
X6722973Y-5043576D01*
X6725412Y-5046980D01*
X6726275Y-5051094D01*
X6726275Y-5079796D01*
X6726529Y-5084826D01*
X6727139Y-5089652D01*
X6728206Y-5094376D01*
X6729628Y-5098999D01*
X6731508Y-5103469D01*
X6733743Y-5107736D01*
X6736334Y-5111851D01*
X6739280Y-5115661D01*
X6742684Y-5119420D01*
X6850329Y-5227015D01*
X6852513Y-5230317D01*
X6853275Y-5234178D01*
X6853275Y-5403138D01*
X6852716Y-5406491D01*
X6851091Y-5409438D01*
X6814464Y-5455818D01*
X6806539Y-5468264D01*
X6800291Y-5481523D01*
X6795770Y-5495493D01*
X6793026Y-5509869D01*
X6792112Y-5524500D01*
X6793026Y-5539130D01*
X6795770Y-5553506D01*
X6800291Y-5567476D01*
X6806539Y-5580735D01*
X6814413Y-5593080D01*
X6823760Y-5604357D01*
X6834428Y-5614416D01*
X6846265Y-5623001D01*
X6859117Y-5630062D01*
X6872731Y-5635498D01*
X6886956Y-5639104D01*
X6901484Y-5640933D01*
X6916115Y-5640933D01*
X6930644Y-5639104D01*
X6944868Y-5635498D01*
X6958482Y-5630062D01*
X6971334Y-5623001D01*
X6983171Y-5614416D01*
X6993839Y-5604357D01*
X7003186Y-5593080D01*
X7011060Y-5580735D01*
X7017308Y-5567476D01*
X7021830Y-5553506D01*
X7024573Y-5539130D01*
X7025487Y-5524500D01*
X7024573Y-5509869D01*
X7021830Y-5495493D01*
X7017308Y-5481523D01*
X7011060Y-5468264D01*
X7003135Y-5455818D01*
X6966508Y-5409438D01*
X6964883Y-5406491D01*
X6964324Y-5403138D01*
X6964324Y-5207203D01*
X6964070Y-5202174D01*
X6963460Y-5197348D01*
X6962394Y-5192623D01*
X6960971Y-5188000D01*
X6959092Y-5183530D01*
X6956856Y-5179263D01*
X6954266Y-5175148D01*
X6951319Y-5171338D01*
X6947916Y-5167579D01*
X6840270Y-5059984D01*
X6838086Y-5056682D01*
X6837324Y-5052822D01*
X6837324Y-5051094D01*
X6838188Y-5046980D01*
X6840626Y-5043576D01*
X6844182Y-5041442D01*
X6848348Y-5040934D01*
X6852361Y-5042154D01*
X6859117Y-5045862D01*
X6872731Y-5051298D01*
X6886956Y-5054904D01*
X6901484Y-5056733D01*
X6916115Y-5056733D01*
X6930644Y-5054904D01*
X6944868Y-5051298D01*
X6958482Y-5045862D01*
X6971334Y-5038801D01*
X6983171Y-5030216D01*
X6993839Y-5020157D01*
X7003186Y-5008880D01*
X7011060Y-4996535D01*
X7017308Y-4983276D01*
X7021830Y-4969306D01*
X7024573Y-4954930D01*
X7025487Y-4940300D01*
X7024573Y-4925669D01*
X7021830Y-4911293D01*
X7017308Y-4897323D01*
X7011060Y-4884064D01*
X7003186Y-4871720D01*
X6993839Y-4860442D01*
X6983171Y-4850384D01*
X6971334Y-4841798D01*
X6958482Y-4834737D01*
X6944868Y-4829302D01*
X6930644Y-4825695D01*
X6916115Y-4823866D01*
X6901484Y-4823866D01*
X6886956Y-4825695D01*
X6872731Y-4829302D01*
X6859117Y-4834737D01*
X6852361Y-4838446D01*
X6848348Y-4839665D01*
X6844182Y-4839157D01*
X6840626Y-4837023D01*
X6838188Y-4833620D01*
X6837324Y-4829505D01*
X6837324Y-4686503D01*
X6837070Y-4681474D01*
X6836460Y-4676648D01*
X6835394Y-4671923D01*
X6833971Y-4667300D01*
X6832092Y-4662830D01*
X6829856Y-4658563D01*
X6827266Y-4654448D01*
X6824319Y-4650638D01*
X6820916Y-4646879D01*
X6814870Y-4640884D01*
X6812686Y-4637582D01*
X6811924Y-4633722D01*
X6811924Y-4591456D01*
X6812534Y-4587951D01*
X6814312Y-4584903D01*
X6859270Y-4531614D01*
X6868769Y-4518914D01*
X6876592Y-4505350D01*
X6882739Y-4490974D01*
X6887260Y-4475988D01*
X6889953Y-4460595D01*
X6890867Y-4445000D01*
X6889953Y-4429404D01*
X6887260Y-4414012D01*
X6882739Y-4399026D01*
X6876592Y-4384649D01*
X6868769Y-4371086D01*
X6859422Y-4358589D01*
X6848703Y-4347210D01*
X6836714Y-4337151D01*
X6823659Y-4328566D01*
X6809638Y-4321505D01*
X6794957Y-4316171D01*
X6779768Y-4312564D01*
X6764223Y-4310735D01*
X6748576Y-4310735D01*
X6733031Y-4312564D01*
X6717842Y-4316171D01*
X6703161Y-4321505D01*
X6689140Y-4328566D01*
X6676085Y-4337151D01*
X6664096Y-4347210D01*
X6653377Y-4358589D01*
X6644030Y-4371086D01*
X6636258Y-4384649D01*
X6630060Y-4399026D01*
X6625539Y-4414012D01*
X6622846Y-4429404D01*
X6621932Y-4445000D01*
X6622846Y-4460595D01*
X6625539Y-4475988D01*
X6630060Y-4490974D01*
X6636258Y-4505350D01*
X6644030Y-4518914D01*
X6654952Y-4533290D01*
X6698488Y-4584903D01*
X6700266Y-4587951D01*
X6700875Y-4591456D01*
X6700875Y-4660696D01*
X6701129Y-4665726D01*
X6701739Y-4670552D01*
X6702806Y-4675276D01*
X6704228Y-4679899D01*
X6706108Y-4684369D01*
X6708343Y-4688636D01*
X6710934Y-4692751D01*
X6713880Y-4696561D01*
X6717284Y-4700320D01*
X6723329Y-4706315D01*
X6725513Y-4709617D01*
X6726275Y-4713478D01*
X6726275Y-4829505D01*
X6725412Y-4833620D01*
X6722973Y-4837023D01*
X6719417Y-4839157D01*
X6715252Y-4839665D01*
X6711238Y-4838446D01*
X6704482Y-4834737D01*
X6690868Y-4829302D01*
X6676644Y-4825695D01*
X6664198Y-4824018D01*
X6614261Y-4818176D01*
X6611010Y-4817211D01*
X6608267Y-4815230D01*
X6357670Y-4564684D01*
X6355486Y-4561382D01*
X6354724Y-4557522D01*
X6354724Y-4394403D01*
X6354470Y-4389374D01*
X6353860Y-4384548D01*
X6352794Y-4379823D01*
X6351371Y-4375200D01*
X6349492Y-4370730D01*
X6347256Y-4366463D01*
X6344666Y-4362348D01*
X6341719Y-4358538D01*
X6338316Y-4354779D01*
X6110020Y-4126484D01*
X6106261Y-4123080D01*
X6102451Y-4120134D01*
X6098336Y-4117543D01*
X6094069Y-4115308D01*
X6089599Y-4113428D01*
X6084976Y-4112006D01*
X6080252Y-4110939D01*
X6075426Y-4110329D01*
X6070396Y-4110075D01*
X5582056Y-4110075D01*
X5578551Y-4109465D01*
X5575503Y-4107687D01*
X5524093Y-4064355D01*
X5515914Y-4057751D01*
X5502859Y-4049166D01*
X5499912Y-4047693D01*
X5496458Y-4044848D01*
X5494578Y-4040835D01*
X5494578Y-4036364D01*
X5496458Y-4032351D01*
X5499912Y-4029506D01*
X5502859Y-4028033D01*
X5515914Y-4019448D01*
X5527903Y-4009390D01*
X5538622Y-3998061D01*
X5547969Y-3985514D01*
X5555792Y-3971950D01*
X5561939Y-3957574D01*
X5566460Y-3942587D01*
X5569153Y-3927195D01*
X5570067Y-3911600D01*
X5569153Y-3896004D01*
X5566460Y-3880612D01*
X5561939Y-3865626D01*
X5555792Y-3851249D01*
X5547969Y-3837686D01*
X5538622Y-3825189D01*
X5527903Y-3813810D01*
X5515914Y-3803751D01*
X5502859Y-3795166D01*
X5499912Y-3793693D01*
X5496458Y-3790848D01*
X5494578Y-3786835D01*
X5494578Y-3782364D01*
X5496458Y-3778351D01*
X5499912Y-3775506D01*
X5502859Y-3774033D01*
X5515914Y-3765448D01*
X5527903Y-3755390D01*
X5538622Y-3744061D01*
X5547969Y-3731514D01*
X5555792Y-3717950D01*
X5561939Y-3703574D01*
X5566460Y-3688587D01*
X5569153Y-3673195D01*
X5570067Y-3657600D01*
X5569153Y-3642004D01*
X5566460Y-3626612D01*
X5561939Y-3611626D01*
X5555792Y-3597249D01*
X5547969Y-3583686D01*
X5538622Y-3571189D01*
X5527903Y-3559810D01*
X5515914Y-3549751D01*
X5502859Y-3541166D01*
X5499912Y-3539693D01*
X5496458Y-3536848D01*
X5494578Y-3532835D01*
X5494578Y-3528364D01*
X5496458Y-3524351D01*
X5499912Y-3521506D01*
X5502859Y-3520033D01*
X5515914Y-3511448D01*
X5527903Y-3501390D01*
X5538622Y-3490061D01*
X5547969Y-3477514D01*
X5555792Y-3463950D01*
X5558790Y-3456940D01*
X5488940Y-3456940D01*
X5488940Y-3519627D01*
X5488178Y-3523437D01*
X5486095Y-3526688D01*
X5482894Y-3528923D01*
X5479135Y-3529787D01*
X5458968Y-3525164D01*
X5443423Y-3523335D01*
X5427776Y-3523335D01*
X5412232Y-3525164D01*
X5392064Y-3529787D01*
X5388305Y-3528923D01*
X5385104Y-3526688D01*
X5383022Y-3523437D01*
X5382260Y-3519627D01*
X5382260Y-3456940D01*
X5312410Y-3456940D01*
X5315458Y-3463950D01*
X5323230Y-3477514D01*
X5332577Y-3490061D01*
X5343296Y-3501390D01*
X5355285Y-3511448D01*
X5368340Y-3520033D01*
X5371287Y-3521506D01*
X5374741Y-3524351D01*
X5376621Y-3528364D01*
X5376621Y-3532835D01*
X5374741Y-3536848D01*
X5371287Y-3539693D01*
X5368340Y-3541166D01*
X5355285Y-3549751D01*
X5343296Y-3559810D01*
X5332577Y-3571189D01*
X5323230Y-3583686D01*
X5315458Y-3597249D01*
X5309260Y-3611626D01*
X5304739Y-3626612D01*
X5302046Y-3642004D01*
X5301132Y-3657600D01*
X5302046Y-3673195D01*
X5304739Y-3688587D01*
X5309260Y-3703574D01*
X5315458Y-3717950D01*
X5323230Y-3731514D01*
X5332577Y-3744061D01*
X5343296Y-3755390D01*
X5355285Y-3765448D01*
X5368340Y-3774033D01*
X5371287Y-3775506D01*
X5374741Y-3778351D01*
X5376621Y-3782364D01*
X5376621Y-3786835D01*
X5374741Y-3790848D01*
X5371287Y-3793693D01*
X5368340Y-3795166D01*
X5355285Y-3803751D01*
X5343296Y-3813810D01*
X5332577Y-3825189D01*
X5323230Y-3837686D01*
X5315407Y-3851249D01*
X5309463Y-3864965D01*
X5282031Y-3934663D01*
X5279745Y-3938117D01*
X5167884Y-4049979D01*
X5164480Y-4053738D01*
X5161534Y-4057548D01*
X5158943Y-4061663D01*
X5156708Y-4065930D01*
X5154828Y-4070400D01*
X5153406Y-4075023D01*
X5152339Y-4079748D01*
X5151729Y-4084574D01*
X5151475Y-4089603D01*
X5151475Y-4228896D01*
X5151729Y-4233926D01*
X5152339Y-4238752D01*
X5153406Y-4243476D01*
X5154828Y-4248099D01*
X5156708Y-4252569D01*
X5158943Y-4256836D01*
X5161534Y-4260951D01*
X5164480Y-4264761D01*
X5167884Y-4268520D01*
X5319979Y-4420616D01*
X5323738Y-4424019D01*
X5327548Y-4426966D01*
X5331663Y-4429556D01*
X5335930Y-4431792D01*
X5340400Y-4433671D01*
X5345023Y-4435094D01*
X5349748Y-4436160D01*
X5354574Y-4436770D01*
X5359603Y-4437024D01*
X6018022Y-4437024D01*
X6021882Y-4437786D01*
X6025184Y-4439970D01*
X6101029Y-4515815D01*
X6103213Y-4519117D01*
X6103975Y-4522978D01*
X6103975Y-5028996D01*
X6104229Y-5034026D01*
X6104839Y-5038852D01*
X6105906Y-5043576D01*
X6107328Y-5048199D01*
X6109208Y-5052669D01*
X6111443Y-5056936D01*
X6114034Y-5061051D01*
X6116980Y-5064861D01*
X6120384Y-5068620D01*
X6529730Y-5477967D01*
X6531711Y-5480710D01*
X6532676Y-5483961D01*
X6538976Y-5538978D01*
X6541770Y-5553506D01*
X6546291Y-5567476D01*
X6552539Y-5580735D01*
X6560413Y-5593080D01*
X6569760Y-5604357D01*
X6580428Y-5614416D01*
X6592265Y-5623001D01*
X6605117Y-5630062D01*
X6618731Y-5635498D01*
X6632956Y-5639104D01*
G37*
G36*
X7372350Y-5632145D02*
G01*
X7372350Y-5568950D01*
X7309002Y-5568950D01*
X7314539Y-5580735D01*
X7322413Y-5593080D01*
X7331760Y-5604357D01*
X7342428Y-5614416D01*
X7354265Y-5623001D01*
X7367117Y-5630062D01*
G37*
G36*
X7461250Y-5632145D02*
G01*
X7466482Y-5630062D01*
X7479334Y-5623001D01*
X7491171Y-5614416D01*
X7501839Y-5604357D01*
X7511186Y-5593080D01*
X7519060Y-5580735D01*
X7524597Y-5568950D01*
X7461250Y-5568950D01*
G37*
G36*
X7309002Y-5480050D02*
G01*
X7372350Y-5480050D01*
X7372350Y-5416854D01*
X7367117Y-5418937D01*
X7354265Y-5425998D01*
X7342428Y-5434584D01*
X7331760Y-5444642D01*
X7322413Y-5455920D01*
X7314539Y-5468264D01*
G37*
G36*
X7461250Y-5480050D02*
G01*
X7524597Y-5480050D01*
X7519060Y-5468264D01*
X7511186Y-5455920D01*
X7501839Y-5444642D01*
X7491171Y-5434584D01*
X7479334Y-5425998D01*
X7466482Y-5418937D01*
X7461250Y-5416854D01*
G37*
G36*
X7087108Y-5056987D02*
G01*
X7238492Y-5056987D01*
X7246874Y-5056174D01*
X7254494Y-5053888D01*
X7261453Y-5050129D01*
X7267600Y-5045100D01*
X7272629Y-5038953D01*
X7276388Y-5031994D01*
X7278674Y-5024374D01*
X7279487Y-5015992D01*
X7279487Y-4864608D01*
X7278674Y-4856226D01*
X7276388Y-4848606D01*
X7272629Y-4841646D01*
X7267600Y-4835499D01*
X7261453Y-4830470D01*
X7254494Y-4826711D01*
X7246874Y-4824425D01*
X7238492Y-4823612D01*
X7087108Y-4823612D01*
X7078725Y-4824425D01*
X7071106Y-4826711D01*
X7064146Y-4830470D01*
X7057999Y-4835499D01*
X7052970Y-4841646D01*
X7049211Y-4848606D01*
X7046925Y-4856226D01*
X7046112Y-4864608D01*
X7046112Y-5015992D01*
X7046925Y-5024374D01*
X7049211Y-5031994D01*
X7052970Y-5038953D01*
X7057999Y-5045100D01*
X7064146Y-5050129D01*
X7071106Y-5053888D01*
X7078725Y-5056174D01*
G37*
G36*
X7461250Y-5047945D02*
G01*
X7466482Y-5045862D01*
X7479334Y-5038801D01*
X7491171Y-5030216D01*
X7501839Y-5020157D01*
X7511186Y-5008880D01*
X7519060Y-4996535D01*
X7524597Y-4984750D01*
X7461250Y-4984750D01*
G37*
G36*
X7372350Y-5047945D02*
G01*
X7372350Y-4984750D01*
X7309002Y-4984750D01*
X7314539Y-4996535D01*
X7322413Y-5008880D01*
X7331760Y-5020157D01*
X7342428Y-5030216D01*
X7354265Y-5038801D01*
X7367117Y-5045862D01*
G37*
G36*
X5821172Y-5038090D02*
G01*
X6020206Y-5038090D01*
X6028588Y-5037277D01*
X6036157Y-5034991D01*
X6043168Y-5031232D01*
X6049314Y-5026202D01*
X6054344Y-5020056D01*
X6058052Y-5013096D01*
X6060389Y-5005476D01*
X6061202Y-4997094D01*
X6061202Y-4798110D01*
X6060389Y-4789728D01*
X6058052Y-4782108D01*
X6054496Y-4775403D01*
X6053429Y-4772253D01*
X6053429Y-4768951D01*
X6054496Y-4765802D01*
X6058052Y-4759096D01*
X6060389Y-4751476D01*
X6061202Y-4743094D01*
X6061202Y-4544110D01*
X6060389Y-4535728D01*
X6058052Y-4528108D01*
X6054344Y-4521149D01*
X6049314Y-4515002D01*
X6043168Y-4509973D01*
X6036157Y-4506214D01*
X6028588Y-4503928D01*
X6020206Y-4503115D01*
X5821172Y-4503115D01*
X5812790Y-4503928D01*
X5805220Y-4506214D01*
X5798210Y-4509973D01*
X5792063Y-4515002D01*
X5787034Y-4521149D01*
X5783326Y-4528108D01*
X5781040Y-4535728D01*
X5780176Y-4544110D01*
X5780176Y-4743094D01*
X5781040Y-4751476D01*
X5783326Y-4759096D01*
X5786932Y-4765802D01*
X5787999Y-4768951D01*
X5787999Y-4772253D01*
X5786932Y-4775403D01*
X5783326Y-4782108D01*
X5781040Y-4789728D01*
X5780176Y-4798110D01*
X5780176Y-4997094D01*
X5781040Y-5005476D01*
X5783326Y-5013096D01*
X5787034Y-5020056D01*
X5792063Y-5026202D01*
X5798210Y-5031232D01*
X5805220Y-5034991D01*
X5812790Y-5037277D01*
G37*
G36*
X3911193Y-5038090D02*
G01*
X4110177Y-5038090D01*
X4118610Y-5037277D01*
X4126179Y-5034991D01*
X4133189Y-5031232D01*
X4139285Y-5026202D01*
X4144365Y-5020056D01*
X4148074Y-5013096D01*
X4150360Y-5005476D01*
X4151223Y-4997094D01*
X4151223Y-4798110D01*
X4150360Y-4789728D01*
X4148074Y-4782108D01*
X4144467Y-4775403D01*
X4143400Y-4772253D01*
X4143400Y-4768951D01*
X4144467Y-4765802D01*
X4148074Y-4759096D01*
X4150360Y-4751476D01*
X4151223Y-4743094D01*
X4151223Y-4544110D01*
X4150360Y-4535728D01*
X4148074Y-4528108D01*
X4144365Y-4521149D01*
X4139285Y-4515002D01*
X4133189Y-4509973D01*
X4126179Y-4506214D01*
X4118610Y-4503928D01*
X4110177Y-4503115D01*
X3911193Y-4503115D01*
X3902811Y-4503928D01*
X3895242Y-4506214D01*
X3887927Y-4510125D01*
X3851097Y-4537710D01*
X3847896Y-4539335D01*
X3844290Y-4539691D01*
X3840784Y-4538827D01*
X3837838Y-4536744D01*
X3534714Y-4233722D01*
X3527450Y-4227728D01*
X3525316Y-4226204D01*
X3517239Y-4221327D01*
X3514902Y-4220159D01*
X3506215Y-4216552D01*
X3503726Y-4215739D01*
X3494582Y-4213453D01*
X3482644Y-4212132D01*
X2306523Y-4212082D01*
X2302662Y-4211320D01*
X2299360Y-4209135D01*
X2146706Y-4056481D01*
X2144725Y-4053636D01*
X2126640Y-4015536D01*
X2125878Y-4013200D01*
X2122932Y-3998925D01*
X2118207Y-3984853D01*
X2111756Y-3971493D01*
X2103729Y-3958996D01*
X2094230Y-3947617D01*
X2083409Y-3937457D01*
X2071420Y-3928770D01*
X2058466Y-3921556D01*
X2044700Y-3916019D01*
X2030374Y-3912209D01*
X2015642Y-3910177D01*
X2000808Y-3909974D01*
X1986076Y-3911600D01*
X1971649Y-3915054D01*
X1957730Y-3920185D01*
X1944573Y-3927043D01*
X1932381Y-3935476D01*
X1921256Y-3945331D01*
X1911451Y-3956456D01*
X1903120Y-3968699D01*
X1896313Y-3981907D01*
X1891182Y-3995826D01*
X1887829Y-4010253D01*
X1886254Y-4025036D01*
X1886508Y-4039870D01*
X1888591Y-4054551D01*
X1892452Y-4068876D01*
X1898091Y-4082592D01*
X1905304Y-4095546D01*
X1914093Y-4107484D01*
X1924304Y-4118305D01*
X1935734Y-4127754D01*
X1948230Y-4135729D01*
X1961642Y-4142079D01*
X1975713Y-4146804D01*
X1989378Y-4149547D01*
X1991715Y-4150309D01*
X2030222Y-4168546D01*
X2033066Y-4170527D01*
X2214067Y-4351477D01*
X2221331Y-4357471D01*
X2223465Y-4358995D01*
X2231542Y-4363872D01*
X2233879Y-4365040D01*
X2242566Y-4368647D01*
X2245055Y-4369460D01*
X2254199Y-4371746D01*
X2266137Y-4373067D01*
X3442258Y-4373118D01*
X3446119Y-4373880D01*
X3449421Y-4376064D01*
X3775913Y-4702505D01*
X3783177Y-4708499D01*
X3785311Y-4710023D01*
X3793388Y-4714900D01*
X3795725Y-4716068D01*
X3804412Y-4719675D01*
X3813200Y-4722063D01*
X3816858Y-4723790D01*
X3872433Y-4765497D01*
X3874871Y-4768138D01*
X3876243Y-4771440D01*
X3876395Y-4775047D01*
X3875278Y-4778451D01*
X3873296Y-4782108D01*
X3871010Y-4789728D01*
X3870198Y-4798110D01*
X3870198Y-4997094D01*
X3871010Y-5005476D01*
X3873296Y-5013096D01*
X3877056Y-5020056D01*
X3882085Y-5026202D01*
X3888232Y-5031232D01*
X3895242Y-5034991D01*
X3902811Y-5037277D01*
G37*
G36*
X1238402Y-5021326D02*
G01*
X1457807Y-5021326D01*
X1473809Y-5020411D01*
X1489354Y-5017770D01*
X1504492Y-5013452D01*
X1519072Y-5007406D01*
X1532839Y-4999786D01*
X1545691Y-4990642D01*
X1557426Y-4980178D01*
X1567942Y-4968443D01*
X1577035Y-4955590D01*
X1584706Y-4941773D01*
X1590700Y-4927244D01*
X1595069Y-4912106D01*
X1597710Y-4896561D01*
X1598574Y-4880813D01*
X1597710Y-4865116D01*
X1595069Y-4849571D01*
X1590700Y-4834432D01*
X1584706Y-4819853D01*
X1577035Y-4806086D01*
X1567942Y-4793234D01*
X1557426Y-4781499D01*
X1545691Y-4770983D01*
X1532839Y-4761890D01*
X1519072Y-4754219D01*
X1504492Y-4748225D01*
X1489354Y-4743856D01*
X1473809Y-4741214D01*
X1457807Y-4740300D01*
X1238402Y-4740300D01*
X1222349Y-4741214D01*
X1206855Y-4743856D01*
X1191717Y-4748225D01*
X1177137Y-4754219D01*
X1163370Y-4761890D01*
X1150518Y-4770983D01*
X1138783Y-4781499D01*
X1128268Y-4793234D01*
X1119124Y-4806086D01*
X1111504Y-4819853D01*
X1105509Y-4834432D01*
X1101140Y-4849571D01*
X1098499Y-4865116D01*
X1097635Y-4880813D01*
X1098499Y-4896561D01*
X1101140Y-4912106D01*
X1105509Y-4927244D01*
X1111504Y-4941773D01*
X1119124Y-4955590D01*
X1128268Y-4968443D01*
X1138783Y-4980178D01*
X1150518Y-4990642D01*
X1163370Y-4999786D01*
X1177137Y-5007406D01*
X1191717Y-5013452D01*
X1206855Y-5017770D01*
X1222349Y-5020411D01*
G37*
G36*
X7309002Y-4895850D02*
G01*
X7372350Y-4895850D01*
X7372350Y-4832654D01*
X7367117Y-4834737D01*
X7354265Y-4841798D01*
X7342428Y-4850384D01*
X7331760Y-4860442D01*
X7322413Y-4871720D01*
X7314539Y-4884064D01*
G37*
G36*
X7461250Y-4895850D02*
G01*
X7524597Y-4895850D01*
X7519060Y-4884064D01*
X7511186Y-4871720D01*
X7501839Y-4860442D01*
X7491171Y-4850384D01*
X7479334Y-4841798D01*
X7466482Y-4834737D01*
X7461250Y-4832654D01*
G37*
G36*
X3458108Y-4717846D02*
G01*
X3472891Y-4716475D01*
X3487369Y-4713274D01*
X3501390Y-4708347D01*
X3514648Y-4701743D01*
X3526993Y-4693564D01*
X3538270Y-4683912D01*
X3548278Y-4672939D01*
X3556863Y-4660849D01*
X3563874Y-4647742D01*
X3569208Y-4633925D01*
X3572814Y-4619548D01*
X3574643Y-4604816D01*
X3574643Y-4589983D01*
X3572814Y-4575251D01*
X3569208Y-4560874D01*
X3563874Y-4547057D01*
X3556863Y-4533950D01*
X3548278Y-4521860D01*
X3538270Y-4510887D01*
X3526993Y-4501235D01*
X3514648Y-4493056D01*
X3501390Y-4486452D01*
X3487369Y-4481525D01*
X3472891Y-4478324D01*
X3458108Y-4476953D01*
X3443274Y-4477410D01*
X3428644Y-4479696D01*
X3414369Y-4483760D01*
X3400704Y-4489551D01*
X3387851Y-4496968D01*
X3376015Y-4505909D01*
X3365347Y-4516221D01*
X3356051Y-4527804D01*
X3348228Y-4540402D01*
X3342030Y-4553864D01*
X3337560Y-4567986D01*
X3334816Y-4582617D01*
X3333902Y-4597400D01*
X3334816Y-4612182D01*
X3337560Y-4626813D01*
X3342030Y-4640935D01*
X3348228Y-4654397D01*
X3356051Y-4666996D01*
X3365347Y-4678578D01*
X3376015Y-4688890D01*
X3387851Y-4697831D01*
X3400704Y-4705248D01*
X3414369Y-4711039D01*
X3428644Y-4715103D01*
X3443274Y-4717389D01*
G37*
G36*
X2992729Y-4708550D02*
G01*
X3006648Y-4701743D01*
X3018993Y-4693564D01*
X3030270Y-4683912D01*
X3040278Y-4672939D01*
X3048863Y-4660849D01*
X3055874Y-4647742D01*
X3057398Y-4643729D01*
X2992729Y-4643729D01*
G37*
G36*
X2900070Y-4708347D02*
G01*
X2900070Y-4643729D01*
X2835351Y-4643729D01*
X2840228Y-4654397D01*
X2848051Y-4666996D01*
X2857347Y-4678578D01*
X2868015Y-4688890D01*
X2879852Y-4697831D01*
X2892704Y-4705248D01*
G37*
G36*
X1608175Y-4678832D02*
G01*
X1623872Y-4677968D01*
X1639417Y-4675327D01*
X1654556Y-4670958D01*
X1669084Y-4664964D01*
X1682902Y-4657344D01*
X1695754Y-4648200D01*
X1707489Y-4637684D01*
X1718005Y-4625949D01*
X1727098Y-4613097D01*
X1734718Y-4599330D01*
X1740763Y-4584750D01*
X1745132Y-4569612D01*
X1747774Y-4554067D01*
X1748637Y-4538065D01*
X1748637Y-4318660D01*
X1747774Y-4302658D01*
X1745132Y-4287113D01*
X1740763Y-4271975D01*
X1734718Y-4257395D01*
X1727098Y-4243628D01*
X1718005Y-4230776D01*
X1707489Y-4219041D01*
X1695754Y-4208526D01*
X1682902Y-4199382D01*
X1669084Y-4191762D01*
X1654556Y-4185767D01*
X1639417Y-4181398D01*
X1623872Y-4178757D01*
X1608175Y-4177893D01*
X1592427Y-4178757D01*
X1576882Y-4181398D01*
X1561744Y-4185767D01*
X1547215Y-4191762D01*
X1533398Y-4199382D01*
X1520545Y-4208526D01*
X1508810Y-4219041D01*
X1498295Y-4230776D01*
X1489202Y-4243628D01*
X1481582Y-4257395D01*
X1475536Y-4271975D01*
X1471168Y-4287113D01*
X1468526Y-4302658D01*
X1467662Y-4318660D01*
X1467662Y-4538065D01*
X1468526Y-4554067D01*
X1471168Y-4569612D01*
X1475536Y-4584750D01*
X1481582Y-4599330D01*
X1489202Y-4613097D01*
X1498295Y-4625949D01*
X1508810Y-4637684D01*
X1520545Y-4648200D01*
X1533398Y-4657344D01*
X1547215Y-4664964D01*
X1561744Y-4670958D01*
X1576882Y-4675327D01*
X1592427Y-4677968D01*
G37*
G36*
X1034491Y-4664405D02*
G01*
X1039063Y-4662474D01*
X1052880Y-4654854D01*
X1065733Y-4645761D01*
X1077468Y-4635246D01*
X1087983Y-4623511D01*
X1097076Y-4610658D01*
X1104696Y-4596841D01*
X1110742Y-4582312D01*
X1115110Y-4567174D01*
X1117752Y-4551629D01*
X1118565Y-4537252D01*
X1034491Y-4537252D01*
G37*
G36*
X921766Y-4664405D02*
G01*
X921766Y-4537252D01*
X837692Y-4537252D01*
X838504Y-4551629D01*
X841146Y-4567174D01*
X845515Y-4582312D01*
X851560Y-4596841D01*
X859180Y-4610658D01*
X868273Y-4623511D01*
X878789Y-4635246D01*
X890524Y-4645761D01*
X903376Y-4654854D01*
X917194Y-4662474D01*
G37*
G36*
X7739176Y-4579264D02*
G01*
X7754823Y-4579264D01*
X7770368Y-4577435D01*
X7785557Y-4573828D01*
X7800238Y-4568494D01*
X7814259Y-4561433D01*
X7827314Y-4552848D01*
X7839303Y-4542790D01*
X7850022Y-4531461D01*
X7859369Y-4518914D01*
X7867192Y-4505350D01*
X7873339Y-4490974D01*
X7877860Y-4475988D01*
X7880553Y-4460595D01*
X7881467Y-4445000D01*
X7880553Y-4429404D01*
X7877860Y-4414012D01*
X7873339Y-4399026D01*
X7867192Y-4384649D01*
X7859369Y-4371086D01*
X7850022Y-4358589D01*
X7839303Y-4347210D01*
X7827314Y-4337151D01*
X7814259Y-4328566D01*
X7800238Y-4321505D01*
X7785557Y-4316171D01*
X7770368Y-4312564D01*
X7754823Y-4310735D01*
X7739176Y-4310735D01*
X7723631Y-4312564D01*
X7708442Y-4316171D01*
X7693761Y-4321505D01*
X7679740Y-4328566D01*
X7666685Y-4337151D01*
X7654696Y-4347210D01*
X7643977Y-4358589D01*
X7634630Y-4371086D01*
X7626858Y-4384649D01*
X7620660Y-4399026D01*
X7616139Y-4414012D01*
X7613446Y-4429404D01*
X7612532Y-4445000D01*
X7613446Y-4460595D01*
X7616139Y-4475988D01*
X7620660Y-4490974D01*
X7626858Y-4505350D01*
X7634630Y-4518914D01*
X7643977Y-4531461D01*
X7654696Y-4542790D01*
X7666685Y-4552848D01*
X7679740Y-4561433D01*
X7693761Y-4568494D01*
X7708442Y-4573828D01*
X7723631Y-4577435D01*
G37*
G36*
X2835351Y-4551070D02*
G01*
X2900070Y-4551070D01*
X2900070Y-4486452D01*
X2892704Y-4489551D01*
X2879852Y-4496968D01*
X2868015Y-4505909D01*
X2857347Y-4516221D01*
X2848051Y-4527804D01*
X2840228Y-4540402D01*
G37*
G36*
X2992729Y-4551070D02*
G01*
X3057398Y-4551070D01*
X3055874Y-4547057D01*
X3048863Y-4533950D01*
X3040278Y-4521860D01*
X3030270Y-4510887D01*
X3018993Y-4501235D01*
X3006648Y-4493056D01*
X2992729Y-4486249D01*
G37*
G36*
X3885590Y-4345736D02*
G01*
X3900881Y-4345279D01*
X3916070Y-4342993D01*
X3930853Y-4338980D01*
X3945026Y-4333189D01*
X3958488Y-4325823D01*
X3970934Y-4316882D01*
X3982262Y-4306519D01*
X3992270Y-4294936D01*
X4000804Y-4282186D01*
X4007815Y-4268571D01*
X4013149Y-4254195D01*
X4016756Y-4239310D01*
X4018584Y-4224070D01*
X4018584Y-4208729D01*
X4016756Y-4193489D01*
X4013149Y-4178604D01*
X4007815Y-4164228D01*
X4000804Y-4150614D01*
X3992270Y-4137863D01*
X3982262Y-4126280D01*
X3970934Y-4115917D01*
X3958488Y-4106976D01*
X3945026Y-4099610D01*
X3930853Y-4093819D01*
X3916070Y-4089806D01*
X3900881Y-4087520D01*
X3885590Y-4087063D01*
X3870299Y-4088434D01*
X3855313Y-4091584D01*
X3840784Y-4096512D01*
X3826916Y-4103065D01*
X3813962Y-4111294D01*
X3802075Y-4120946D01*
X3791407Y-4131919D01*
X3782060Y-4144111D01*
X3774287Y-4157319D01*
X3768090Y-4171340D01*
X3763619Y-4186021D01*
X3760927Y-4201109D01*
X3760012Y-4216400D01*
X3760927Y-4231690D01*
X3763619Y-4246778D01*
X3768090Y-4261459D01*
X3774287Y-4275480D01*
X3782060Y-4288688D01*
X3791407Y-4300880D01*
X3802075Y-4311853D01*
X3813962Y-4321505D01*
X3826916Y-4329734D01*
X3840784Y-4336288D01*
X3855313Y-4341215D01*
X3870299Y-4344365D01*
G37*
G36*
X4394200Y-4335272D02*
G01*
X4394200Y-4267200D01*
X4326229Y-4267200D01*
X4329887Y-4275480D01*
X4337659Y-4288688D01*
X4347006Y-4300880D01*
X4357674Y-4311853D01*
X4369562Y-4321505D01*
X4382516Y-4329734D01*
G37*
G36*
X4495800Y-4335170D02*
G01*
X4500626Y-4333189D01*
X4514088Y-4325823D01*
X4526534Y-4316882D01*
X4537862Y-4306519D01*
X4547870Y-4294936D01*
X4556404Y-4282186D01*
X4563414Y-4268571D01*
X4563922Y-4267200D01*
X4495800Y-4267200D01*
G37*
G36*
X1034491Y-4314545D02*
G01*
X1118565Y-4314545D01*
X1117752Y-4300169D01*
X1115110Y-4284624D01*
X1110742Y-4269486D01*
X1104696Y-4254957D01*
X1097076Y-4241139D01*
X1087983Y-4228287D01*
X1077468Y-4216552D01*
X1065733Y-4206036D01*
X1052880Y-4196943D01*
X1039063Y-4189323D01*
X1034491Y-4187393D01*
G37*
G36*
X837692Y-4314545D02*
G01*
X921766Y-4314545D01*
X921766Y-4187393D01*
X917194Y-4189323D01*
X903376Y-4196943D01*
X890524Y-4206036D01*
X878789Y-4216552D01*
X868273Y-4228287D01*
X859180Y-4241139D01*
X851560Y-4254957D01*
X845515Y-4269486D01*
X841146Y-4284624D01*
X838504Y-4300169D01*
G37*
G36*
X6443776Y-4299864D02*
G01*
X6459423Y-4299864D01*
X6474968Y-4298035D01*
X6490157Y-4294428D01*
X6504838Y-4289094D01*
X6518859Y-4282033D01*
X6531914Y-4273448D01*
X6543903Y-4263390D01*
X6554622Y-4252061D01*
X6563969Y-4239514D01*
X6571792Y-4225950D01*
X6577939Y-4211574D01*
X6582460Y-4196588D01*
X6585153Y-4181195D01*
X6586067Y-4165600D01*
X6585153Y-4150004D01*
X6582460Y-4134612D01*
X6577939Y-4119626D01*
X6571792Y-4105249D01*
X6563969Y-4091686D01*
X6554622Y-4079189D01*
X6543903Y-4067810D01*
X6531914Y-4057751D01*
X6518859Y-4049166D01*
X6515912Y-4047693D01*
X6512458Y-4044848D01*
X6510578Y-4040835D01*
X6510578Y-4036364D01*
X6512458Y-4032351D01*
X6515912Y-4029506D01*
X6518859Y-4028033D01*
X6531914Y-4019448D01*
X6543903Y-4009390D01*
X6554622Y-3998061D01*
X6563969Y-3985514D01*
X6571792Y-3971950D01*
X6577939Y-3957574D01*
X6582460Y-3942587D01*
X6585153Y-3927195D01*
X6586067Y-3911600D01*
X6585102Y-3895750D01*
X6585254Y-3891483D01*
X6587134Y-3887673D01*
X6590436Y-3884980D01*
X6594551Y-3883863D01*
X6598716Y-3884523D01*
X6602323Y-3886809D01*
X6653479Y-3938015D01*
X6657238Y-3941419D01*
X6661048Y-3944365D01*
X6665163Y-3946956D01*
X6669430Y-3949192D01*
X6673900Y-3951071D01*
X6678523Y-3952494D01*
X6686245Y-3954221D01*
X6689852Y-3955796D01*
X6692595Y-3958590D01*
X6694068Y-3962298D01*
X6694017Y-3966210D01*
X6692493Y-3969867D01*
X6689648Y-3972610D01*
X6676085Y-3981551D01*
X6664096Y-3991610D01*
X6653377Y-4002989D01*
X6644030Y-4015486D01*
X6636258Y-4029049D01*
X6630060Y-4043426D01*
X6625539Y-4058412D01*
X6622846Y-4073804D01*
X6621932Y-4089400D01*
X6622846Y-4104995D01*
X6625539Y-4120387D01*
X6630060Y-4135374D01*
X6636258Y-4149750D01*
X6644030Y-4163314D01*
X6653377Y-4175861D01*
X6664096Y-4187190D01*
X6676085Y-4197248D01*
X6689140Y-4205833D01*
X6703161Y-4212894D01*
X6717842Y-4218228D01*
X6733031Y-4221835D01*
X6748576Y-4223664D01*
X6764223Y-4223664D01*
X6779768Y-4221835D01*
X6794957Y-4218228D01*
X6809638Y-4212894D01*
X6823659Y-4205833D01*
X6836714Y-4197248D01*
X6848703Y-4187190D01*
X6859422Y-4175861D01*
X6868769Y-4163314D01*
X6876592Y-4149750D01*
X6882739Y-4135374D01*
X6887260Y-4120387D01*
X6889953Y-4104995D01*
X6890867Y-4089400D01*
X6889953Y-4073804D01*
X6887260Y-4058412D01*
X6882739Y-4043426D01*
X6876592Y-4029049D01*
X6868769Y-4015486D01*
X6859422Y-4002989D01*
X6848703Y-3991610D01*
X6836714Y-3981551D01*
X6823811Y-3973068D01*
X6820814Y-3969969D01*
X6819341Y-3965956D01*
X6819646Y-3961637D01*
X6821728Y-3957878D01*
X6825183Y-3955338D01*
X6829399Y-3954424D01*
X6940143Y-3954424D01*
X6942988Y-3954830D01*
X6945630Y-3955999D01*
X6965950Y-3969054D01*
X6967372Y-3970223D01*
X6977837Y-3977284D01*
X6989216Y-3982770D01*
X7001205Y-3986682D01*
X7013651Y-3988866D01*
X7026249Y-3989324D01*
X7038797Y-3988003D01*
X7051040Y-3984955D01*
X7062774Y-3980230D01*
X7073696Y-3973931D01*
X7083653Y-3966159D01*
X7092391Y-3957065D01*
X7099858Y-3946855D01*
X7105751Y-3935679D01*
X7110069Y-3923842D01*
X7112711Y-3911498D01*
X7113574Y-3898900D01*
X7112711Y-3886301D01*
X7110069Y-3873957D01*
X7105751Y-3862120D01*
X7099858Y-3850944D01*
X7092391Y-3840734D01*
X7083653Y-3831640D01*
X7073696Y-3823868D01*
X7062774Y-3817569D01*
X7051040Y-3812844D01*
X7038797Y-3809796D01*
X7026249Y-3808476D01*
X7013651Y-3808933D01*
X7001205Y-3811117D01*
X6989216Y-3815029D01*
X6977837Y-3820515D01*
X6965950Y-3828745D01*
X6945630Y-3841800D01*
X6942988Y-3842969D01*
X6940143Y-3843375D01*
X6720078Y-3843375D01*
X6716217Y-3842613D01*
X6712915Y-3840429D01*
X6594398Y-3721912D01*
X6592366Y-3719017D01*
X6591452Y-3715613D01*
X6585203Y-3642156D01*
X6582460Y-3626612D01*
X6577939Y-3611626D01*
X6571792Y-3597249D01*
X6563969Y-3583686D01*
X6554622Y-3571189D01*
X6543903Y-3559810D01*
X6531914Y-3549751D01*
X6518859Y-3541166D01*
X6515912Y-3539693D01*
X6512458Y-3536848D01*
X6510578Y-3532835D01*
X6510578Y-3528364D01*
X6512458Y-3524351D01*
X6515912Y-3521506D01*
X6518859Y-3520033D01*
X6531914Y-3511448D01*
X6543903Y-3501390D01*
X6554622Y-3490061D01*
X6563969Y-3477514D01*
X6571792Y-3463950D01*
X6574790Y-3456940D01*
X6504940Y-3456940D01*
X6504940Y-3519627D01*
X6504178Y-3523437D01*
X6502095Y-3526688D01*
X6498894Y-3528923D01*
X6495135Y-3529787D01*
X6474968Y-3525164D01*
X6459423Y-3523335D01*
X6443776Y-3523335D01*
X6428232Y-3525164D01*
X6408064Y-3529787D01*
X6404305Y-3528923D01*
X6401104Y-3526688D01*
X6399022Y-3523437D01*
X6398260Y-3519627D01*
X6398260Y-3456940D01*
X6328410Y-3456940D01*
X6331458Y-3463950D01*
X6339230Y-3477514D01*
X6348577Y-3490061D01*
X6359296Y-3501390D01*
X6371285Y-3511448D01*
X6384340Y-3520033D01*
X6387287Y-3521506D01*
X6390741Y-3524351D01*
X6392621Y-3528364D01*
X6392621Y-3532835D01*
X6390741Y-3536848D01*
X6387287Y-3539693D01*
X6384340Y-3541166D01*
X6371285Y-3549751D01*
X6359296Y-3559810D01*
X6348577Y-3571189D01*
X6339230Y-3583686D01*
X6331458Y-3597249D01*
X6325260Y-3611626D01*
X6320739Y-3626612D01*
X6318046Y-3642004D01*
X6317132Y-3657600D01*
X6318097Y-3673449D01*
X6317945Y-3677716D01*
X6316065Y-3681526D01*
X6312763Y-3684219D01*
X6308648Y-3685336D01*
X6304483Y-3684676D01*
X6300876Y-3682390D01*
X5951270Y-3332784D01*
X5949086Y-3329482D01*
X5948324Y-3325622D01*
X5948324Y-2756103D01*
X5948070Y-2751074D01*
X5947460Y-2746248D01*
X5946394Y-2741523D01*
X5944971Y-2736900D01*
X5943092Y-2732430D01*
X5940856Y-2728163D01*
X5938266Y-2724048D01*
X5935319Y-2720238D01*
X5931916Y-2716479D01*
X5817920Y-2602484D01*
X5814161Y-2599080D01*
X5810351Y-2596134D01*
X5806236Y-2593543D01*
X5801969Y-2591308D01*
X5797499Y-2589428D01*
X5792876Y-2588006D01*
X5788152Y-2586939D01*
X5783326Y-2586329D01*
X5778296Y-2586075D01*
X5518556Y-2586075D01*
X5515711Y-2585669D01*
X5513070Y-2584500D01*
X5490362Y-2569819D01*
X5486196Y-2566568D01*
X5475274Y-2560269D01*
X5463540Y-2555544D01*
X5451297Y-2552496D01*
X5438749Y-2551176D01*
X5426151Y-2551633D01*
X5413705Y-2553817D01*
X5401716Y-2557729D01*
X5390337Y-2563215D01*
X5379872Y-2570276D01*
X5370525Y-2578760D01*
X5362397Y-2588412D01*
X5355691Y-2599131D01*
X5350560Y-2610662D01*
X5347106Y-2622804D01*
X5345328Y-2635300D01*
X5345328Y-2647899D01*
X5347106Y-2660396D01*
X5350560Y-2672537D01*
X5355691Y-2684068D01*
X5362397Y-2694787D01*
X5370525Y-2704439D01*
X5379872Y-2712923D01*
X5390337Y-2719984D01*
X5401716Y-2725470D01*
X5413705Y-2729382D01*
X5426151Y-2731566D01*
X5438749Y-2732024D01*
X5451297Y-2730703D01*
X5463540Y-2727655D01*
X5475274Y-2722930D01*
X5486196Y-2716631D01*
X5491073Y-2712821D01*
X5513070Y-2698699D01*
X5515711Y-2697530D01*
X5518556Y-2697124D01*
X5751322Y-2697124D01*
X5755182Y-2697886D01*
X5758484Y-2700070D01*
X5834329Y-2775915D01*
X5836513Y-2779217D01*
X5837275Y-2783078D01*
X5837275Y-3352596D01*
X5837529Y-3357626D01*
X5838139Y-3362451D01*
X5839206Y-3367176D01*
X5840628Y-3371799D01*
X5842508Y-3376269D01*
X5844743Y-3380536D01*
X5847334Y-3384651D01*
X5850280Y-3388461D01*
X5853684Y-3392220D01*
X6308801Y-3847287D01*
X6310833Y-3850182D01*
X6311747Y-3853586D01*
X6317996Y-3927043D01*
X6320739Y-3942587D01*
X6325260Y-3957574D01*
X6331458Y-3971950D01*
X6339230Y-3985514D01*
X6348577Y-3998061D01*
X6359296Y-4009390D01*
X6371285Y-4019448D01*
X6384340Y-4028033D01*
X6387287Y-4029506D01*
X6390741Y-4032351D01*
X6392621Y-4036364D01*
X6392621Y-4040835D01*
X6390741Y-4044848D01*
X6387287Y-4047693D01*
X6384340Y-4049166D01*
X6371285Y-4057751D01*
X6359296Y-4067810D01*
X6348577Y-4079189D01*
X6339230Y-4091686D01*
X6331458Y-4105249D01*
X6325260Y-4119626D01*
X6320739Y-4134612D01*
X6318046Y-4150004D01*
X6317132Y-4165600D01*
X6318046Y-4181195D01*
X6320739Y-4196588D01*
X6325260Y-4211574D01*
X6331458Y-4225950D01*
X6339230Y-4239514D01*
X6348577Y-4252061D01*
X6359296Y-4263390D01*
X6371285Y-4273448D01*
X6384340Y-4282033D01*
X6398361Y-4289094D01*
X6413042Y-4294428D01*
X6428232Y-4298035D01*
G37*
G36*
X7739176Y-4223664D02*
G01*
X7754823Y-4223664D01*
X7770368Y-4221835D01*
X7785557Y-4218228D01*
X7800238Y-4212894D01*
X7814259Y-4205833D01*
X7827314Y-4197248D01*
X7839303Y-4187190D01*
X7850022Y-4175861D01*
X7859369Y-4163314D01*
X7867192Y-4149750D01*
X7873339Y-4135374D01*
X7877860Y-4120387D01*
X7880553Y-4104995D01*
X7881467Y-4089400D01*
X7880553Y-4073804D01*
X7877860Y-4058412D01*
X7873339Y-4043426D01*
X7867192Y-4029049D01*
X7859369Y-4015486D01*
X7850022Y-4002989D01*
X7839303Y-3991610D01*
X7827314Y-3981551D01*
X7814259Y-3972966D01*
X7800238Y-3965905D01*
X7785557Y-3960571D01*
X7770368Y-3956964D01*
X7754823Y-3955135D01*
X7739176Y-3955135D01*
X7723631Y-3956964D01*
X7708442Y-3960571D01*
X7693761Y-3965905D01*
X7679740Y-3972966D01*
X7666685Y-3981551D01*
X7654696Y-3991610D01*
X7643977Y-4002989D01*
X7634630Y-4015486D01*
X7626858Y-4029049D01*
X7620660Y-4043426D01*
X7616139Y-4058412D01*
X7613446Y-4073804D01*
X7612532Y-4089400D01*
X7613446Y-4104995D01*
X7616139Y-4120387D01*
X7620660Y-4135374D01*
X7626858Y-4149750D01*
X7634630Y-4163314D01*
X7643977Y-4175861D01*
X7654696Y-4187190D01*
X7666685Y-4197248D01*
X7679740Y-4205833D01*
X7693761Y-4212894D01*
X7708442Y-4218228D01*
X7723631Y-4221835D01*
G37*
G36*
X4326229Y-4165600D02*
G01*
X4394200Y-4165600D01*
X4394200Y-4097528D01*
X4382516Y-4103065D01*
X4369562Y-4111294D01*
X4357674Y-4120946D01*
X4347006Y-4131919D01*
X4337659Y-4144111D01*
X4329887Y-4157319D01*
G37*
G36*
X4495800Y-4165600D02*
G01*
X4563922Y-4165600D01*
X4563414Y-4164228D01*
X4556404Y-4150614D01*
X4547870Y-4137863D01*
X4537862Y-4126280D01*
X4526534Y-4115917D01*
X4514088Y-4106976D01*
X4500626Y-4099610D01*
X4495800Y-4097629D01*
G37*
G36*
X2470150Y-4133443D02*
G01*
X2469032Y-4068622D01*
X2404364Y-4069740D01*
X2405989Y-4073753D01*
X2413254Y-4086656D01*
X2422042Y-4098645D01*
X2432202Y-4109415D01*
X2443632Y-4118864D01*
X2456129Y-4126839D01*
G37*
G36*
X2562860Y-4131614D02*
G01*
X2570124Y-4128363D01*
X2582875Y-4120743D01*
X2594559Y-4111599D01*
X2605024Y-4101084D01*
X2614117Y-4089349D01*
X2621686Y-4076598D01*
X2626410Y-4065879D01*
X2561691Y-4066997D01*
G37*
G36*
X2402738Y-3977081D02*
G01*
X2467406Y-3975912D01*
X2466289Y-3911142D01*
X2452522Y-3918204D01*
X2440279Y-3926586D01*
X2429205Y-3936441D01*
X2419400Y-3947566D01*
X2411018Y-3959860D01*
X2404262Y-3973017D01*
G37*
G36*
X2560116Y-3974337D02*
G01*
X2624785Y-3973169D01*
X2619705Y-3962603D01*
X2611678Y-3950157D01*
X2602179Y-3938778D01*
X2591358Y-3928618D01*
X2579370Y-3919880D01*
X2566365Y-3912666D01*
X2558948Y-3909720D01*
G37*
G36*
X372110Y-3863136D02*
G01*
X387400Y-3861765D01*
X402386Y-3858615D01*
X416915Y-3853687D01*
X430784Y-3847134D01*
X443738Y-3838905D01*
X455625Y-3829253D01*
X466293Y-3818280D01*
X475640Y-3806088D01*
X483412Y-3792880D01*
X489610Y-3778859D01*
X494080Y-3764178D01*
X496773Y-3749090D01*
X497687Y-3733800D01*
X496773Y-3718509D01*
X494080Y-3703421D01*
X489610Y-3688740D01*
X483412Y-3674719D01*
X475640Y-3661511D01*
X466293Y-3649319D01*
X455625Y-3638346D01*
X443738Y-3628694D01*
X430784Y-3620465D01*
X416915Y-3613912D01*
X402386Y-3608984D01*
X387400Y-3605834D01*
X372110Y-3604463D01*
X356819Y-3604920D01*
X341630Y-3607206D01*
X326847Y-3611219D01*
X312674Y-3617010D01*
X299212Y-3624376D01*
X286766Y-3633317D01*
X275437Y-3643680D01*
X265430Y-3655263D01*
X256895Y-3668014D01*
X249885Y-3681628D01*
X244551Y-3696004D01*
X240944Y-3710889D01*
X239115Y-3726129D01*
X239115Y-3741470D01*
X240944Y-3756710D01*
X244551Y-3771595D01*
X249885Y-3785971D01*
X256895Y-3799586D01*
X265430Y-3812336D01*
X275437Y-3823919D01*
X286766Y-3834282D01*
X299212Y-3843223D01*
X312674Y-3850589D01*
X326847Y-3856380D01*
X341630Y-3860393D01*
X356819Y-3862679D01*
G37*
G36*
X974699Y-3852672D02*
G01*
X986383Y-3847134D01*
X999337Y-3838905D01*
X1011224Y-3829253D01*
X1021892Y-3818280D01*
X1031240Y-3806088D01*
X1039012Y-3792880D01*
X1042669Y-3784600D01*
X974699Y-3784600D01*
G37*
G36*
X873099Y-3852570D02*
G01*
X873099Y-3784600D01*
X804976Y-3784600D01*
X805484Y-3785971D01*
X812495Y-3799586D01*
X821029Y-3812336D01*
X831037Y-3823919D01*
X842365Y-3834282D01*
X854811Y-3843223D01*
X868273Y-3850589D01*
G37*
G36*
X7463028Y-3703167D02*
G01*
X7649972Y-3703167D01*
X7658353Y-3702354D01*
X7665974Y-3700068D01*
X7672933Y-3696309D01*
X7679080Y-3691280D01*
X7684109Y-3685133D01*
X7687868Y-3678174D01*
X7690154Y-3670554D01*
X7690967Y-3662172D01*
X7690967Y-3475228D01*
X7690154Y-3466846D01*
X7687868Y-3459226D01*
X7684109Y-3452266D01*
X7679080Y-3446119D01*
X7672933Y-3441090D01*
X7665974Y-3437331D01*
X7658353Y-3435045D01*
X7649972Y-3434232D01*
X7463028Y-3434232D01*
X7454646Y-3435045D01*
X7447025Y-3437331D01*
X7440066Y-3441090D01*
X7433919Y-3446119D01*
X7428890Y-3452266D01*
X7425131Y-3459226D01*
X7422845Y-3466846D01*
X7422032Y-3475228D01*
X7420914Y-3478936D01*
X7418527Y-3481933D01*
X7415174Y-3483864D01*
X7411364Y-3484372D01*
X7407656Y-3483457D01*
X7404506Y-3481222D01*
X7394803Y-3470910D01*
X7382814Y-3460851D01*
X7369759Y-3452266D01*
X7355738Y-3445205D01*
X7341057Y-3439871D01*
X7325868Y-3436264D01*
X7310323Y-3434435D01*
X7294676Y-3434435D01*
X7279131Y-3436264D01*
X7263942Y-3439871D01*
X7249261Y-3445205D01*
X7235240Y-3452266D01*
X7222185Y-3460851D01*
X7210196Y-3470910D01*
X7199477Y-3482289D01*
X7190130Y-3494786D01*
X7182358Y-3508349D01*
X7176160Y-3522726D01*
X7171639Y-3537712D01*
X7168946Y-3553104D01*
X7168032Y-3568700D01*
X7168946Y-3584295D01*
X7171639Y-3599687D01*
X7176160Y-3614674D01*
X7182358Y-3629050D01*
X7190130Y-3642614D01*
X7199477Y-3655161D01*
X7210196Y-3666490D01*
X7222185Y-3676548D01*
X7235240Y-3685133D01*
X7249261Y-3692194D01*
X7263942Y-3697528D01*
X7279131Y-3701135D01*
X7294676Y-3702964D01*
X7310323Y-3702964D01*
X7325868Y-3701135D01*
X7341057Y-3697528D01*
X7355738Y-3692194D01*
X7369759Y-3685133D01*
X7382814Y-3676548D01*
X7394803Y-3666490D01*
X7404506Y-3656177D01*
X7407656Y-3653942D01*
X7411364Y-3653028D01*
X7415174Y-3653536D01*
X7418527Y-3655466D01*
X7420914Y-3658463D01*
X7422032Y-3662172D01*
X7422845Y-3670554D01*
X7425131Y-3678174D01*
X7428890Y-3685133D01*
X7433919Y-3691280D01*
X7440066Y-3696309D01*
X7447025Y-3700068D01*
X7454646Y-3702354D01*
G37*
G36*
X974699Y-3683000D02*
G01*
X1042669Y-3683000D01*
X1039012Y-3674719D01*
X1031240Y-3661511D01*
X1021892Y-3649319D01*
X1011224Y-3638346D01*
X999337Y-3628694D01*
X986383Y-3620465D01*
X974699Y-3614928D01*
G37*
G36*
X804976Y-3683000D02*
G01*
X873099Y-3683000D01*
X873099Y-3615029D01*
X868273Y-3617010D01*
X854811Y-3624376D01*
X842365Y-3633317D01*
X831037Y-3643680D01*
X821029Y-3655263D01*
X812495Y-3668014D01*
X805484Y-3681628D01*
G37*
G36*
X1173835Y-3404565D02*
G01*
X1188364Y-3404565D01*
X1202740Y-3402736D01*
X1216812Y-3399129D01*
X1230274Y-3393795D01*
X1242974Y-3386785D01*
X1254709Y-3378301D01*
X1265275Y-3368344D01*
X1274521Y-3357168D01*
X1282293Y-3344926D01*
X1288491Y-3331819D01*
X1292961Y-3318001D01*
X1295654Y-3303778D01*
X1296568Y-3289300D01*
X1295654Y-3274822D01*
X1292961Y-3260598D01*
X1288491Y-3246780D01*
X1282293Y-3233674D01*
X1274521Y-3221431D01*
X1265275Y-3210255D01*
X1254709Y-3200298D01*
X1242974Y-3191814D01*
X1230274Y-3184804D01*
X1216812Y-3179470D01*
X1202740Y-3175863D01*
X1188364Y-3174034D01*
X1173835Y-3174034D01*
X1159459Y-3175863D01*
X1145387Y-3179470D01*
X1131925Y-3184804D01*
X1119225Y-3191814D01*
X1107490Y-3200298D01*
X1096924Y-3210255D01*
X1087678Y-3221431D01*
X1079906Y-3233674D01*
X1073708Y-3246780D01*
X1069238Y-3260598D01*
X1066546Y-3274822D01*
X1065631Y-3289300D01*
X1066546Y-3303778D01*
X1069238Y-3318001D01*
X1073708Y-3331819D01*
X1079906Y-3344926D01*
X1087678Y-3357168D01*
X1096924Y-3368344D01*
X1107490Y-3378301D01*
X1119225Y-3386785D01*
X1131925Y-3393795D01*
X1145387Y-3399129D01*
X1159459Y-3402736D01*
G37*
G36*
X665835Y-3404565D02*
G01*
X680364Y-3404565D01*
X694740Y-3402736D01*
X708812Y-3399129D01*
X722274Y-3393795D01*
X734974Y-3386785D01*
X746709Y-3378301D01*
X757275Y-3368344D01*
X766521Y-3357168D01*
X774293Y-3344926D01*
X780491Y-3331819D01*
X784961Y-3318001D01*
X787654Y-3303778D01*
X788568Y-3289300D01*
X787654Y-3274822D01*
X784961Y-3260598D01*
X780491Y-3246780D01*
X774293Y-3233674D01*
X766521Y-3221431D01*
X757275Y-3210255D01*
X746709Y-3200298D01*
X734974Y-3191814D01*
X722274Y-3184804D01*
X708812Y-3179470D01*
X694740Y-3175863D01*
X680364Y-3174034D01*
X665835Y-3174034D01*
X651459Y-3175863D01*
X637387Y-3179470D01*
X623925Y-3184804D01*
X611225Y-3191814D01*
X599490Y-3200298D01*
X588924Y-3210255D01*
X579678Y-3221431D01*
X571906Y-3233674D01*
X565708Y-3246780D01*
X561238Y-3260598D01*
X558546Y-3274822D01*
X557631Y-3289300D01*
X558546Y-3303778D01*
X561238Y-3318001D01*
X565708Y-3331819D01*
X571906Y-3344926D01*
X579678Y-3357168D01*
X588924Y-3368344D01*
X599490Y-3378301D01*
X611225Y-3386785D01*
X623925Y-3393795D01*
X637387Y-3399129D01*
X651459Y-3402736D01*
G37*
G36*
X919835Y-3404565D02*
G01*
X934364Y-3404565D01*
X948740Y-3402736D01*
X962812Y-3399129D01*
X976274Y-3393795D01*
X988974Y-3386785D01*
X1000709Y-3378301D01*
X1011275Y-3368344D01*
X1020521Y-3357168D01*
X1028293Y-3344926D01*
X1034491Y-3331819D01*
X1038961Y-3318001D01*
X1041653Y-3303778D01*
X1042568Y-3289300D01*
X1041653Y-3274822D01*
X1038961Y-3260598D01*
X1034491Y-3246780D01*
X1028293Y-3233674D01*
X1020521Y-3221431D01*
X1011275Y-3210255D01*
X1000709Y-3200298D01*
X988974Y-3191814D01*
X976274Y-3184804D01*
X962812Y-3179470D01*
X948740Y-3175863D01*
X934364Y-3174034D01*
X919835Y-3174034D01*
X905459Y-3175863D01*
X891387Y-3179470D01*
X877925Y-3184804D01*
X865225Y-3191814D01*
X853490Y-3200298D01*
X842924Y-3210255D01*
X833678Y-3221431D01*
X825906Y-3233674D01*
X819708Y-3246780D01*
X815238Y-3260598D01*
X812546Y-3274822D01*
X811631Y-3289300D01*
X812546Y-3303778D01*
X815238Y-3318001D01*
X819708Y-3331819D01*
X825906Y-3344926D01*
X833678Y-3357168D01*
X842924Y-3368344D01*
X853490Y-3378301D01*
X865225Y-3386785D01*
X877925Y-3393795D01*
X891387Y-3399129D01*
X905459Y-3402736D01*
G37*
G36*
X1427835Y-3404565D02*
G01*
X1442364Y-3404565D01*
X1456740Y-3402736D01*
X1470812Y-3399129D01*
X1484274Y-3393795D01*
X1496974Y-3386785D01*
X1508709Y-3378301D01*
X1519275Y-3368344D01*
X1528521Y-3357168D01*
X1536293Y-3344926D01*
X1542491Y-3331819D01*
X1546961Y-3318001D01*
X1549654Y-3303778D01*
X1550568Y-3289300D01*
X1549654Y-3274822D01*
X1546961Y-3260598D01*
X1542491Y-3246780D01*
X1536293Y-3233674D01*
X1528521Y-3221431D01*
X1519275Y-3210255D01*
X1508709Y-3200298D01*
X1496974Y-3191814D01*
X1484274Y-3184804D01*
X1470812Y-3179470D01*
X1456740Y-3175863D01*
X1442364Y-3174034D01*
X1427835Y-3174034D01*
X1413459Y-3175863D01*
X1399387Y-3179470D01*
X1385925Y-3184804D01*
X1373225Y-3191814D01*
X1361490Y-3200298D01*
X1350924Y-3210255D01*
X1341678Y-3221431D01*
X1333906Y-3233674D01*
X1327708Y-3246780D01*
X1323238Y-3260598D01*
X1320546Y-3274822D01*
X1319631Y-3289300D01*
X1320546Y-3303778D01*
X1323238Y-3318001D01*
X1327708Y-3331819D01*
X1333906Y-3344926D01*
X1341678Y-3357168D01*
X1350924Y-3368344D01*
X1361490Y-3378301D01*
X1373225Y-3386785D01*
X1385925Y-3393795D01*
X1399387Y-3399129D01*
X1413459Y-3402736D01*
G37*
G36*
X411835Y-3404565D02*
G01*
X426364Y-3404565D01*
X440740Y-3402736D01*
X454812Y-3399129D01*
X468274Y-3393795D01*
X480974Y-3386785D01*
X492709Y-3378301D01*
X503275Y-3368344D01*
X512521Y-3357168D01*
X520293Y-3344926D01*
X526491Y-3331819D01*
X530961Y-3318001D01*
X533654Y-3303778D01*
X534568Y-3289300D01*
X533654Y-3274822D01*
X530961Y-3260598D01*
X526491Y-3246780D01*
X520293Y-3233674D01*
X512521Y-3221431D01*
X503275Y-3210255D01*
X492709Y-3200298D01*
X480974Y-3191814D01*
X468274Y-3184804D01*
X454812Y-3179470D01*
X440740Y-3175863D01*
X426364Y-3174034D01*
X411835Y-3174034D01*
X397459Y-3175863D01*
X383387Y-3179470D01*
X369925Y-3184804D01*
X357225Y-3191814D01*
X345490Y-3200298D01*
X334924Y-3210255D01*
X325678Y-3221431D01*
X317906Y-3233674D01*
X311708Y-3246780D01*
X307238Y-3260598D01*
X304546Y-3274822D01*
X303631Y-3289300D01*
X304546Y-3303778D01*
X307238Y-3318001D01*
X311708Y-3331819D01*
X317906Y-3344926D01*
X325678Y-3357168D01*
X334924Y-3368344D01*
X345490Y-3378301D01*
X357225Y-3386785D01*
X369925Y-3393795D01*
X383387Y-3399129D01*
X397459Y-3402736D01*
G37*
G36*
X2697835Y-3404565D02*
G01*
X2712364Y-3404565D01*
X2726740Y-3402736D01*
X2740812Y-3399129D01*
X2754274Y-3393795D01*
X2766974Y-3386785D01*
X2778709Y-3378301D01*
X2789275Y-3368344D01*
X2798521Y-3357168D01*
X2806293Y-3344926D01*
X2812491Y-3331819D01*
X2816961Y-3318001D01*
X2819654Y-3303778D01*
X2820568Y-3289300D01*
X2819654Y-3274822D01*
X2816961Y-3260598D01*
X2812491Y-3246780D01*
X2806293Y-3233674D01*
X2798521Y-3221431D01*
X2789275Y-3210255D01*
X2778709Y-3200298D01*
X2766974Y-3191814D01*
X2754274Y-3184804D01*
X2740812Y-3179470D01*
X2726740Y-3175863D01*
X2712364Y-3174034D01*
X2697835Y-3174034D01*
X2683459Y-3175863D01*
X2669387Y-3179470D01*
X2655925Y-3184804D01*
X2643225Y-3191814D01*
X2631490Y-3200298D01*
X2620924Y-3210255D01*
X2611678Y-3221431D01*
X2603906Y-3233674D01*
X2597708Y-3246780D01*
X2593238Y-3260598D01*
X2590546Y-3274822D01*
X2589631Y-3289300D01*
X2590546Y-3303778D01*
X2593238Y-3318001D01*
X2597708Y-3331819D01*
X2603906Y-3344926D01*
X2611678Y-3357168D01*
X2620924Y-3368344D01*
X2631490Y-3378301D01*
X2643225Y-3386785D01*
X2655925Y-3393795D01*
X2669387Y-3399129D01*
X2683459Y-3402736D01*
G37*
G36*
X2951835Y-3404565D02*
G01*
X2966364Y-3404565D01*
X2980740Y-3402736D01*
X2994812Y-3399129D01*
X3008274Y-3393795D01*
X3020974Y-3386785D01*
X3032709Y-3378301D01*
X3043275Y-3368344D01*
X3052521Y-3357168D01*
X3060293Y-3344926D01*
X3066491Y-3331819D01*
X3070961Y-3318001D01*
X3073654Y-3303778D01*
X3074568Y-3289300D01*
X3073654Y-3274822D01*
X3070961Y-3260598D01*
X3066491Y-3246780D01*
X3060293Y-3233674D01*
X3052521Y-3221431D01*
X3043275Y-3210255D01*
X3032709Y-3200298D01*
X3020974Y-3191814D01*
X3008274Y-3184804D01*
X2994812Y-3179470D01*
X2980740Y-3175863D01*
X2966364Y-3174034D01*
X2951835Y-3174034D01*
X2937459Y-3175863D01*
X2923387Y-3179470D01*
X2909925Y-3184804D01*
X2897225Y-3191814D01*
X2885490Y-3200298D01*
X2874924Y-3210255D01*
X2865678Y-3221431D01*
X2857906Y-3233674D01*
X2851708Y-3246780D01*
X2847238Y-3260598D01*
X2844546Y-3274822D01*
X2843631Y-3289300D01*
X2844546Y-3303778D01*
X2847238Y-3318001D01*
X2851708Y-3331819D01*
X2857906Y-3344926D01*
X2865678Y-3357168D01*
X2874924Y-3368344D01*
X2885490Y-3378301D01*
X2897225Y-3386785D01*
X2909925Y-3393795D01*
X2923387Y-3399129D01*
X2937459Y-3402736D01*
G37*
G36*
X4729835Y-3404565D02*
G01*
X4744364Y-3404565D01*
X4758740Y-3402736D01*
X4772812Y-3399129D01*
X4786274Y-3393795D01*
X4798974Y-3386785D01*
X4810709Y-3378301D01*
X4821275Y-3368344D01*
X4830521Y-3357168D01*
X4838293Y-3344926D01*
X4844491Y-3331819D01*
X4848961Y-3318001D01*
X4851654Y-3303778D01*
X4852568Y-3289300D01*
X4851654Y-3274822D01*
X4848961Y-3260598D01*
X4844491Y-3246780D01*
X4838293Y-3233674D01*
X4830521Y-3221431D01*
X4821275Y-3210255D01*
X4810709Y-3200298D01*
X4798974Y-3191814D01*
X4786274Y-3184804D01*
X4772812Y-3179470D01*
X4758740Y-3175863D01*
X4744364Y-3174034D01*
X4729835Y-3174034D01*
X4715459Y-3175863D01*
X4701387Y-3179470D01*
X4687925Y-3184804D01*
X4675225Y-3191814D01*
X4663490Y-3200298D01*
X4652924Y-3210255D01*
X4643678Y-3221431D01*
X4635906Y-3233674D01*
X4629708Y-3246780D01*
X4625238Y-3260598D01*
X4622546Y-3274822D01*
X4621631Y-3289300D01*
X4622546Y-3303778D01*
X4625238Y-3318001D01*
X4629708Y-3331819D01*
X4635906Y-3344926D01*
X4643678Y-3357168D01*
X4652924Y-3368344D01*
X4663490Y-3378301D01*
X4675225Y-3386785D01*
X4687925Y-3393795D01*
X4701387Y-3399129D01*
X4715459Y-3402736D01*
G37*
G36*
X3713835Y-3404565D02*
G01*
X3728364Y-3404565D01*
X3742740Y-3402736D01*
X3756812Y-3399129D01*
X3770274Y-3393795D01*
X3782974Y-3386785D01*
X3794709Y-3378301D01*
X3805275Y-3368344D01*
X3814521Y-3357168D01*
X3822293Y-3344926D01*
X3828491Y-3331819D01*
X3832961Y-3318001D01*
X3835654Y-3303778D01*
X3836568Y-3289300D01*
X3835654Y-3274822D01*
X3832961Y-3260598D01*
X3828491Y-3246780D01*
X3822293Y-3233674D01*
X3814521Y-3221431D01*
X3805275Y-3210255D01*
X3794709Y-3200298D01*
X3782974Y-3191814D01*
X3770274Y-3184804D01*
X3756812Y-3179470D01*
X3742740Y-3175863D01*
X3728364Y-3174034D01*
X3713835Y-3174034D01*
X3699459Y-3175863D01*
X3685387Y-3179470D01*
X3671925Y-3184804D01*
X3659225Y-3191814D01*
X3647490Y-3200298D01*
X3636924Y-3210255D01*
X3627678Y-3221431D01*
X3619906Y-3233674D01*
X3613708Y-3246780D01*
X3609238Y-3260598D01*
X3606546Y-3274822D01*
X3605631Y-3289300D01*
X3606546Y-3303778D01*
X3609238Y-3318001D01*
X3613708Y-3331819D01*
X3619906Y-3344926D01*
X3627678Y-3357168D01*
X3636924Y-3368344D01*
X3647490Y-3378301D01*
X3659225Y-3386785D01*
X3671925Y-3393795D01*
X3685387Y-3399129D01*
X3699459Y-3402736D01*
G37*
G36*
X3205835Y-3404565D02*
G01*
X3220364Y-3404565D01*
X3234740Y-3402736D01*
X3248812Y-3399129D01*
X3262274Y-3393795D01*
X3274974Y-3386785D01*
X3286709Y-3378301D01*
X3297275Y-3368344D01*
X3306521Y-3357168D01*
X3314293Y-3344926D01*
X3320491Y-3331819D01*
X3324961Y-3318001D01*
X3327654Y-3303778D01*
X3328568Y-3289300D01*
X3327654Y-3274822D01*
X3324961Y-3260598D01*
X3320491Y-3246780D01*
X3314293Y-3233674D01*
X3306521Y-3221431D01*
X3297275Y-3210255D01*
X3286709Y-3200298D01*
X3274974Y-3191814D01*
X3262274Y-3184804D01*
X3248812Y-3179470D01*
X3234740Y-3175863D01*
X3220364Y-3174034D01*
X3205835Y-3174034D01*
X3191459Y-3175863D01*
X3177387Y-3179470D01*
X3163925Y-3184804D01*
X3151225Y-3191814D01*
X3139490Y-3200298D01*
X3128924Y-3210255D01*
X3119678Y-3221431D01*
X3111906Y-3233674D01*
X3105708Y-3246780D01*
X3101238Y-3260598D01*
X3098546Y-3274822D01*
X3097631Y-3289300D01*
X3098546Y-3303778D01*
X3101238Y-3318001D01*
X3105708Y-3331819D01*
X3111906Y-3344926D01*
X3119678Y-3357168D01*
X3128924Y-3368344D01*
X3139490Y-3378301D01*
X3151225Y-3386785D01*
X3163925Y-3393795D01*
X3177387Y-3399129D01*
X3191459Y-3402736D01*
G37*
G36*
X3967835Y-3404565D02*
G01*
X3982364Y-3404565D01*
X3996740Y-3402736D01*
X4010812Y-3399129D01*
X4024274Y-3393795D01*
X4036974Y-3386785D01*
X4048709Y-3378301D01*
X4059275Y-3368344D01*
X4068521Y-3357168D01*
X4076293Y-3344926D01*
X4082491Y-3331819D01*
X4086961Y-3318001D01*
X4089704Y-3303625D01*
X4096054Y-3249930D01*
X4096969Y-3246678D01*
X4098950Y-3243935D01*
X4104132Y-3238754D01*
X4107891Y-3236366D01*
X4112361Y-3235858D01*
X4116628Y-3237280D01*
X4119829Y-3240430D01*
X4121404Y-3244646D01*
X4120946Y-3249117D01*
X4117238Y-3260598D01*
X4114546Y-3274822D01*
X4113631Y-3289300D01*
X4114546Y-3303778D01*
X4117238Y-3318001D01*
X4121708Y-3331819D01*
X4127906Y-3344926D01*
X4135678Y-3357168D01*
X4144924Y-3368344D01*
X4155490Y-3378301D01*
X4167225Y-3386785D01*
X4179925Y-3393795D01*
X4193387Y-3399129D01*
X4207459Y-3402736D01*
X4221835Y-3404565D01*
X4236364Y-3404565D01*
X4250740Y-3402736D01*
X4264812Y-3399129D01*
X4278274Y-3393795D01*
X4290974Y-3386785D01*
X4302709Y-3378301D01*
X4313275Y-3368344D01*
X4322521Y-3357168D01*
X4330293Y-3344926D01*
X4336491Y-3331819D01*
X4340961Y-3318001D01*
X4343704Y-3303625D01*
X4350054Y-3249930D01*
X4350969Y-3246678D01*
X4352950Y-3243935D01*
X4358132Y-3238754D01*
X4361891Y-3236366D01*
X4366361Y-3235858D01*
X4370628Y-3237280D01*
X4373829Y-3240430D01*
X4375404Y-3244646D01*
X4374946Y-3249117D01*
X4371238Y-3260598D01*
X4368546Y-3274822D01*
X4367631Y-3289300D01*
X4368546Y-3303778D01*
X4371238Y-3318001D01*
X4375708Y-3331819D01*
X4381906Y-3344926D01*
X4389678Y-3357168D01*
X4398924Y-3368344D01*
X4409490Y-3378301D01*
X4421225Y-3386785D01*
X4433925Y-3393795D01*
X4447387Y-3399129D01*
X4461459Y-3402736D01*
X4475835Y-3404565D01*
X4490364Y-3404565D01*
X4504740Y-3402736D01*
X4518812Y-3399129D01*
X4532274Y-3393795D01*
X4544974Y-3386785D01*
X4556709Y-3378301D01*
X4567275Y-3368344D01*
X4576521Y-3357168D01*
X4584293Y-3344926D01*
X4590491Y-3331819D01*
X4594961Y-3318001D01*
X4597654Y-3303778D01*
X4598568Y-3289300D01*
X4597654Y-3274822D01*
X4594961Y-3260598D01*
X4590491Y-3246780D01*
X4584293Y-3233674D01*
X4576521Y-3221431D01*
X4567275Y-3210255D01*
X4556709Y-3200298D01*
X4544974Y-3191814D01*
X4532274Y-3184804D01*
X4518812Y-3179470D01*
X4504740Y-3175863D01*
X4490364Y-3174034D01*
X4475835Y-3174034D01*
X4461459Y-3175863D01*
X4447387Y-3179470D01*
X4443425Y-3181045D01*
X4439513Y-3181756D01*
X4435652Y-3180943D01*
X4432401Y-3178708D01*
X4430268Y-3175406D01*
X4429506Y-3171545D01*
X4430268Y-3167684D01*
X4432503Y-3164433D01*
X5265115Y-2331770D01*
X5268417Y-2329586D01*
X5272278Y-2328824D01*
X6576822Y-2328824D01*
X6580682Y-2329586D01*
X6583984Y-2331770D01*
X6907479Y-2655316D01*
X6911238Y-2658719D01*
X6915048Y-2661666D01*
X6919163Y-2664256D01*
X6923430Y-2666492D01*
X6927900Y-2668371D01*
X6932523Y-2669794D01*
X6937248Y-2670860D01*
X6942074Y-2671470D01*
X6947103Y-2671724D01*
X7111796Y-2671724D01*
X7116825Y-2671470D01*
X7121652Y-2670860D01*
X7126376Y-2669794D01*
X7130999Y-2668371D01*
X7135469Y-2666492D01*
X7139736Y-2664256D01*
X7143851Y-2661666D01*
X7147661Y-2658719D01*
X7151420Y-2655316D01*
X7217867Y-2588869D01*
X7220610Y-2586888D01*
X7223861Y-2585923D01*
X7278878Y-2579624D01*
X7293406Y-2576830D01*
X7307376Y-2572308D01*
X7320635Y-2566060D01*
X7332980Y-2558186D01*
X7344257Y-2548839D01*
X7354316Y-2538171D01*
X7362901Y-2526334D01*
X7369962Y-2513482D01*
X7375398Y-2499868D01*
X7379004Y-2485644D01*
X7380833Y-2471115D01*
X7380833Y-2456484D01*
X7379004Y-2441956D01*
X7375398Y-2427732D01*
X7369962Y-2414117D01*
X7362901Y-2401265D01*
X7354316Y-2389428D01*
X7344257Y-2378760D01*
X7332980Y-2369413D01*
X7320635Y-2361539D01*
X7307376Y-2355291D01*
X7293406Y-2350770D01*
X7279030Y-2348026D01*
X7264400Y-2347112D01*
X7249769Y-2348026D01*
X7235393Y-2350770D01*
X7221423Y-2355291D01*
X7208164Y-2361539D01*
X7195820Y-2369413D01*
X7184542Y-2378760D01*
X7174484Y-2389428D01*
X7165898Y-2401265D01*
X7158837Y-2414117D01*
X7153402Y-2427732D01*
X7149795Y-2441956D01*
X7147102Y-2462936D01*
X7145680Y-2467051D01*
X7142683Y-2470200D01*
X7138619Y-2471775D01*
X7134250Y-2471521D01*
X7130440Y-2469489D01*
X7127798Y-2465984D01*
X7126833Y-2461717D01*
X7126833Y-2456484D01*
X7125004Y-2441956D01*
X7121398Y-2427732D01*
X7115962Y-2414117D01*
X7108901Y-2401265D01*
X7100316Y-2389428D01*
X7090257Y-2378760D01*
X7078980Y-2369413D01*
X7066635Y-2361539D01*
X7053376Y-2355291D01*
X7039406Y-2350770D01*
X7024878Y-2347976D01*
X6969861Y-2341676D01*
X6966610Y-2340711D01*
X6963867Y-2338730D01*
X6706920Y-2081784D01*
X6703161Y-2078380D01*
X6699351Y-2075434D01*
X6695236Y-2072843D01*
X6690969Y-2070607D01*
X6686499Y-2068728D01*
X6681876Y-2067306D01*
X6677152Y-2066239D01*
X6672325Y-2065629D01*
X6667296Y-2065375D01*
X5143703Y-2065375D01*
X5138674Y-2065629D01*
X5133848Y-2066239D01*
X5129123Y-2067306D01*
X5124500Y-2068728D01*
X5120030Y-2070607D01*
X5115763Y-2072843D01*
X5111648Y-2075434D01*
X5107838Y-2078380D01*
X5104079Y-2081784D01*
X4020464Y-3165449D01*
X4017721Y-3167430D01*
X4014470Y-3168345D01*
X3965651Y-3174238D01*
X3953510Y-3175863D01*
X3939387Y-3179470D01*
X3925925Y-3184804D01*
X3913225Y-3191814D01*
X3901490Y-3200298D01*
X3890924Y-3210255D01*
X3881678Y-3221431D01*
X3873906Y-3233674D01*
X3867708Y-3246780D01*
X3863238Y-3260598D01*
X3860546Y-3274822D01*
X3859631Y-3289300D01*
X3860546Y-3303778D01*
X3863238Y-3318001D01*
X3867708Y-3331819D01*
X3873906Y-3344926D01*
X3881678Y-3357168D01*
X3890924Y-3368344D01*
X3901490Y-3378301D01*
X3913225Y-3386785D01*
X3925925Y-3393795D01*
X3939387Y-3399129D01*
X3953459Y-3402736D01*
G37*
G36*
X1681835Y-3404565D02*
G01*
X1696364Y-3404565D01*
X1710740Y-3402736D01*
X1724812Y-3399129D01*
X1738274Y-3393795D01*
X1750974Y-3386785D01*
X1762709Y-3378301D01*
X1773275Y-3368344D01*
X1782521Y-3357168D01*
X1790293Y-3344926D01*
X1796491Y-3331819D01*
X1800961Y-3318001D01*
X1803704Y-3303625D01*
X1810054Y-3249930D01*
X1810969Y-3246678D01*
X1812950Y-3243935D01*
X1818132Y-3238754D01*
X1821891Y-3236366D01*
X1826361Y-3235858D01*
X1830628Y-3237280D01*
X1833829Y-3240430D01*
X1835404Y-3244646D01*
X1834946Y-3249117D01*
X1831238Y-3260598D01*
X1828546Y-3274822D01*
X1827631Y-3289300D01*
X1828546Y-3303778D01*
X1831238Y-3318001D01*
X1835708Y-3331819D01*
X1841906Y-3344926D01*
X1849678Y-3357168D01*
X1858924Y-3368344D01*
X1869490Y-3378301D01*
X1881225Y-3386785D01*
X1893925Y-3393795D01*
X1907387Y-3399129D01*
X1921459Y-3402736D01*
X1935835Y-3404565D01*
X1950364Y-3404565D01*
X1964740Y-3402736D01*
X1978812Y-3399129D01*
X1992274Y-3393795D01*
X2004974Y-3386785D01*
X2016709Y-3378301D01*
X2027275Y-3368344D01*
X2036521Y-3357168D01*
X2044293Y-3344926D01*
X2050491Y-3331819D01*
X2054961Y-3318001D01*
X2057704Y-3303625D01*
X2064054Y-3249930D01*
X2064969Y-3246678D01*
X2066950Y-3243935D01*
X2072132Y-3238754D01*
X2075891Y-3236366D01*
X2080361Y-3235858D01*
X2084628Y-3237280D01*
X2087829Y-3240430D01*
X2089404Y-3244646D01*
X2088946Y-3249117D01*
X2085238Y-3260598D01*
X2082546Y-3274822D01*
X2081631Y-3289300D01*
X2082546Y-3303778D01*
X2085238Y-3318001D01*
X2089708Y-3331819D01*
X2095906Y-3344926D01*
X2103678Y-3357168D01*
X2112924Y-3368344D01*
X2123490Y-3378301D01*
X2135225Y-3386785D01*
X2147925Y-3393795D01*
X2161387Y-3399129D01*
X2175459Y-3402736D01*
X2189835Y-3404565D01*
X2204364Y-3404565D01*
X2218740Y-3402736D01*
X2232812Y-3399129D01*
X2246274Y-3393795D01*
X2258974Y-3386785D01*
X2270709Y-3378301D01*
X2281275Y-3368344D01*
X2290521Y-3357168D01*
X2298293Y-3344926D01*
X2304491Y-3331819D01*
X2308961Y-3318001D01*
X2311704Y-3303625D01*
X2318054Y-3249930D01*
X2318969Y-3246678D01*
X2320950Y-3243935D01*
X2326132Y-3238754D01*
X2329891Y-3236366D01*
X2334361Y-3235858D01*
X2338628Y-3237280D01*
X2341829Y-3240430D01*
X2343404Y-3244646D01*
X2342946Y-3249117D01*
X2339238Y-3260598D01*
X2336546Y-3274822D01*
X2335631Y-3289300D01*
X2336546Y-3303778D01*
X2339238Y-3318001D01*
X2343708Y-3331819D01*
X2349906Y-3344926D01*
X2357678Y-3357168D01*
X2366924Y-3368344D01*
X2377490Y-3378301D01*
X2389225Y-3386785D01*
X2401925Y-3393795D01*
X2415387Y-3399129D01*
X2429459Y-3402736D01*
X2443835Y-3404565D01*
X2458364Y-3404565D01*
X2472740Y-3402736D01*
X2486812Y-3399129D01*
X2500274Y-3393795D01*
X2512974Y-3386785D01*
X2524709Y-3378301D01*
X2535275Y-3368344D01*
X2544521Y-3357168D01*
X2552293Y-3344926D01*
X2558491Y-3331819D01*
X2562961Y-3318001D01*
X2565654Y-3303778D01*
X2566568Y-3289300D01*
X2565654Y-3274822D01*
X2562961Y-3260598D01*
X2558491Y-3246780D01*
X2552293Y-3233674D01*
X2544521Y-3221431D01*
X2535275Y-3210255D01*
X2524709Y-3200298D01*
X2512974Y-3191814D01*
X2500274Y-3184804D01*
X2486812Y-3179470D01*
X2472740Y-3175863D01*
X2458364Y-3174034D01*
X2443835Y-3174034D01*
X2429459Y-3175863D01*
X2415387Y-3179470D01*
X2411425Y-3181045D01*
X2407513Y-3181756D01*
X2403652Y-3180943D01*
X2400401Y-3178708D01*
X2398268Y-3175406D01*
X2397506Y-3171545D01*
X2398268Y-3167684D01*
X2400503Y-3164433D01*
X3601415Y-1963470D01*
X3604717Y-1961286D01*
X3608578Y-1960524D01*
X5727496Y-1960524D01*
X5732526Y-1960270D01*
X5737352Y-1959660D01*
X5742076Y-1958593D01*
X5746699Y-1957171D01*
X5751169Y-1955292D01*
X5755436Y-1953056D01*
X5759551Y-1950466D01*
X5763361Y-1947519D01*
X5767120Y-1944116D01*
X6097016Y-1614220D01*
X6100419Y-1610461D01*
X6103366Y-1606651D01*
X6105956Y-1602536D01*
X6108192Y-1598269D01*
X6110071Y-1593799D01*
X6111494Y-1589176D01*
X6112560Y-1584452D01*
X6113170Y-1579626D01*
X6113424Y-1574596D01*
X6113424Y-616356D01*
X6114034Y-612851D01*
X6115812Y-609803D01*
X6160770Y-556514D01*
X6170269Y-543814D01*
X6178092Y-530250D01*
X6184239Y-515874D01*
X6188760Y-500888D01*
X6191453Y-485495D01*
X6192367Y-469900D01*
X6191453Y-454304D01*
X6188760Y-438912D01*
X6184239Y-423926D01*
X6178092Y-409549D01*
X6170269Y-395986D01*
X6160922Y-383489D01*
X6150203Y-372110D01*
X6138214Y-362051D01*
X6125159Y-353466D01*
X6111138Y-346405D01*
X6096457Y-341071D01*
X6081268Y-337464D01*
X6065723Y-335635D01*
X6050076Y-335635D01*
X6034532Y-337464D01*
X6019342Y-341071D01*
X6004661Y-346405D01*
X5990640Y-353466D01*
X5977585Y-362051D01*
X5965596Y-372110D01*
X5954877Y-383489D01*
X5945530Y-395986D01*
X5937758Y-409549D01*
X5931560Y-423926D01*
X5927039Y-438912D01*
X5924346Y-454304D01*
X5923432Y-469900D01*
X5924346Y-485495D01*
X5927039Y-500888D01*
X5931560Y-515874D01*
X5937758Y-530250D01*
X5945530Y-543814D01*
X5956452Y-558190D01*
X5999988Y-609803D01*
X6001766Y-612851D01*
X6002375Y-616356D01*
X6002375Y-1547622D01*
X6001613Y-1551482D01*
X5999429Y-1554784D01*
X5707684Y-1846529D01*
X5704382Y-1848713D01*
X5700522Y-1849475D01*
X4856022Y-1849475D01*
X4852162Y-1848713D01*
X4848860Y-1846580D01*
X4846675Y-1843278D01*
X4845862Y-1839468D01*
X4846574Y-1835556D01*
X4848707Y-1832254D01*
X4857191Y-1823466D01*
X4864658Y-1813255D01*
X4870551Y-1802079D01*
X4874869Y-1790242D01*
X4877511Y-1777898D01*
X4878374Y-1765300D01*
X4877511Y-1752701D01*
X4874869Y-1740357D01*
X4870551Y-1728520D01*
X4864658Y-1717344D01*
X4857191Y-1707134D01*
X4848453Y-1698040D01*
X4838496Y-1690268D01*
X4829708Y-1685188D01*
X4826558Y-1682394D01*
X4824831Y-1678533D01*
X4824831Y-1674266D01*
X4826558Y-1670405D01*
X4829708Y-1667611D01*
X4838496Y-1662531D01*
X4848453Y-1654759D01*
X4857191Y-1645666D01*
X4864658Y-1635455D01*
X4870551Y-1624279D01*
X4874869Y-1612442D01*
X4877511Y-1600098D01*
X4878374Y-1587500D01*
X4877511Y-1574901D01*
X4874869Y-1562557D01*
X4870551Y-1550720D01*
X4864658Y-1539544D01*
X4857191Y-1529334D01*
X4848453Y-1520240D01*
X4838496Y-1512468D01*
X4827574Y-1506169D01*
X4815840Y-1501444D01*
X4803597Y-1498396D01*
X4791049Y-1497076D01*
X4778451Y-1497533D01*
X4766005Y-1499717D01*
X4754016Y-1503629D01*
X4742637Y-1509115D01*
X4730750Y-1517345D01*
X4710430Y-1530400D01*
X4707788Y-1531569D01*
X4704943Y-1531975D01*
X3391103Y-1531975D01*
X3386074Y-1532229D01*
X3381248Y-1532839D01*
X3376523Y-1533906D01*
X3371900Y-1535328D01*
X3367430Y-1537208D01*
X3363163Y-1539443D01*
X3359048Y-1542034D01*
X3355238Y-1544980D01*
X3351479Y-1548384D01*
X1734464Y-3165449D01*
X1731721Y-3167430D01*
X1728470Y-3168345D01*
X1679651Y-3174238D01*
X1667510Y-3175863D01*
X1653387Y-3179470D01*
X1639925Y-3184804D01*
X1627225Y-3191814D01*
X1615490Y-3200298D01*
X1604924Y-3210255D01*
X1595678Y-3221431D01*
X1587906Y-3233674D01*
X1581708Y-3246780D01*
X1577238Y-3260598D01*
X1574546Y-3274822D01*
X1573631Y-3289300D01*
X1574546Y-3303778D01*
X1577238Y-3318001D01*
X1581708Y-3331819D01*
X1587906Y-3344926D01*
X1595678Y-3357168D01*
X1604924Y-3368344D01*
X1615490Y-3378301D01*
X1627225Y-3386785D01*
X1639925Y-3393795D01*
X1653387Y-3399129D01*
X1667459Y-3402736D01*
G37*
G36*
X4947259Y-3395878D02*
G01*
X4947259Y-3333140D01*
X4884369Y-3333140D01*
X4889906Y-3344926D01*
X4897678Y-3357168D01*
X4906924Y-3368344D01*
X4917490Y-3378301D01*
X4929225Y-3386785D01*
X4941925Y-3393795D01*
G37*
G36*
X3510940Y-3395878D02*
G01*
X3516274Y-3393795D01*
X3528974Y-3386785D01*
X3540709Y-3378301D01*
X3551275Y-3368344D01*
X3560521Y-3357168D01*
X3568293Y-3344926D01*
X3573830Y-3333140D01*
X3510940Y-3333140D01*
G37*
G36*
X3423259Y-3395878D02*
G01*
X3423259Y-3333140D01*
X3360369Y-3333140D01*
X3365906Y-3344926D01*
X3373678Y-3357168D01*
X3382924Y-3368344D01*
X3393490Y-3378301D01*
X3405225Y-3386785D01*
X3417925Y-3393795D01*
G37*
G36*
X5034940Y-3395878D02*
G01*
X5040274Y-3393795D01*
X5052974Y-3386785D01*
X5064709Y-3378301D01*
X5075275Y-3368344D01*
X5084521Y-3357168D01*
X5092293Y-3344926D01*
X5097830Y-3333140D01*
X5034940Y-3333140D01*
G37*
G36*
X5312410Y-3350260D02*
G01*
X5382260Y-3350260D01*
X5382260Y-3287572D01*
X5383022Y-3283762D01*
X5385104Y-3280511D01*
X5388305Y-3278276D01*
X5392064Y-3277412D01*
X5412232Y-3282035D01*
X5427776Y-3283864D01*
X5443423Y-3283864D01*
X5458968Y-3282035D01*
X5479135Y-3277412D01*
X5482894Y-3278276D01*
X5486095Y-3280511D01*
X5488178Y-3283762D01*
X5488940Y-3287572D01*
X5488940Y-3350260D01*
X5558790Y-3350260D01*
X5555792Y-3343249D01*
X5547969Y-3329686D01*
X5538622Y-3317189D01*
X5527903Y-3305810D01*
X5515914Y-3295751D01*
X5502859Y-3287166D01*
X5499912Y-3285693D01*
X5496458Y-3282848D01*
X5494578Y-3278835D01*
X5494578Y-3274364D01*
X5496458Y-3270351D01*
X5499912Y-3267506D01*
X5502859Y-3266033D01*
X5515914Y-3257448D01*
X5527903Y-3247390D01*
X5538622Y-3236061D01*
X5547969Y-3223514D01*
X5555792Y-3209950D01*
X5561939Y-3195574D01*
X5566460Y-3180588D01*
X5569153Y-3165195D01*
X5570067Y-3149600D01*
X5569153Y-3134004D01*
X5566460Y-3118612D01*
X5561939Y-3103626D01*
X5555792Y-3089249D01*
X5547969Y-3075686D01*
X5538622Y-3063189D01*
X5527903Y-3051810D01*
X5515914Y-3041751D01*
X5502859Y-3033166D01*
X5499912Y-3031693D01*
X5496458Y-3028848D01*
X5494578Y-3024835D01*
X5494578Y-3020364D01*
X5496458Y-3016351D01*
X5499912Y-3013506D01*
X5502859Y-3012033D01*
X5515914Y-3003448D01*
X5527903Y-2993390D01*
X5538622Y-2982061D01*
X5547969Y-2969514D01*
X5555792Y-2955950D01*
X5561939Y-2941574D01*
X5566460Y-2926588D01*
X5569153Y-2911195D01*
X5570067Y-2895600D01*
X5569153Y-2880004D01*
X5566460Y-2864612D01*
X5561939Y-2849626D01*
X5555792Y-2835249D01*
X5547969Y-2821686D01*
X5538622Y-2809189D01*
X5527903Y-2797810D01*
X5515914Y-2787751D01*
X5502859Y-2779166D01*
X5488838Y-2772105D01*
X5474157Y-2766771D01*
X5458968Y-2763164D01*
X5443423Y-2761335D01*
X5427776Y-2761335D01*
X5412232Y-2763164D01*
X5397042Y-2766771D01*
X5382361Y-2772105D01*
X5368340Y-2779166D01*
X5355285Y-2787751D01*
X5343296Y-2797810D01*
X5332577Y-2809189D01*
X5323230Y-2821686D01*
X5315458Y-2835249D01*
X5309260Y-2849626D01*
X5304739Y-2864612D01*
X5302046Y-2880004D01*
X5301132Y-2895600D01*
X5302046Y-2911195D01*
X5304739Y-2926588D01*
X5309260Y-2941574D01*
X5315458Y-2955950D01*
X5323230Y-2969514D01*
X5332577Y-2982061D01*
X5343296Y-2993390D01*
X5355285Y-3003448D01*
X5368340Y-3012033D01*
X5371287Y-3013506D01*
X5374741Y-3016351D01*
X5376621Y-3020364D01*
X5376621Y-3024835D01*
X5374741Y-3028848D01*
X5371287Y-3031693D01*
X5368340Y-3033166D01*
X5355285Y-3041751D01*
X5343296Y-3051810D01*
X5332577Y-3063189D01*
X5323230Y-3075686D01*
X5315458Y-3089249D01*
X5309260Y-3103626D01*
X5304739Y-3118612D01*
X5302046Y-3134004D01*
X5301132Y-3149600D01*
X5302046Y-3165195D01*
X5304739Y-3180588D01*
X5309260Y-3195574D01*
X5315458Y-3209950D01*
X5323230Y-3223514D01*
X5332577Y-3236061D01*
X5343296Y-3247390D01*
X5355285Y-3257448D01*
X5368340Y-3266033D01*
X5371287Y-3267506D01*
X5374741Y-3270351D01*
X5376621Y-3274364D01*
X5376621Y-3278835D01*
X5374741Y-3282848D01*
X5371287Y-3285693D01*
X5368340Y-3287166D01*
X5355285Y-3295751D01*
X5343296Y-3305810D01*
X5332577Y-3317189D01*
X5323230Y-3329686D01*
X5315458Y-3343249D01*
G37*
G36*
X6328410Y-3350260D02*
G01*
X6398260Y-3350260D01*
X6398260Y-3287572D01*
X6399022Y-3283762D01*
X6401104Y-3280511D01*
X6404305Y-3278276D01*
X6408064Y-3277412D01*
X6428232Y-3282035D01*
X6443776Y-3283864D01*
X6459423Y-3283864D01*
X6474968Y-3282035D01*
X6495135Y-3277412D01*
X6498894Y-3278276D01*
X6502095Y-3280511D01*
X6504178Y-3283762D01*
X6504940Y-3287572D01*
X6504940Y-3350260D01*
X6574790Y-3350260D01*
X6571792Y-3343249D01*
X6563969Y-3329686D01*
X6554622Y-3317189D01*
X6543903Y-3305810D01*
X6531914Y-3295751D01*
X6518859Y-3287166D01*
X6515912Y-3285693D01*
X6512458Y-3282848D01*
X6510578Y-3278835D01*
X6510578Y-3274364D01*
X6512458Y-3270351D01*
X6515912Y-3267506D01*
X6518859Y-3266033D01*
X6531914Y-3257448D01*
X6543903Y-3247390D01*
X6554622Y-3236061D01*
X6563969Y-3223514D01*
X6571792Y-3209950D01*
X6577939Y-3195574D01*
X6582460Y-3180588D01*
X6585153Y-3165195D01*
X6586067Y-3149600D01*
X6585153Y-3134004D01*
X6582460Y-3118612D01*
X6577939Y-3103626D01*
X6571792Y-3089249D01*
X6563969Y-3075686D01*
X6554622Y-3063189D01*
X6543903Y-3051810D01*
X6531914Y-3041751D01*
X6518859Y-3033166D01*
X6515912Y-3031693D01*
X6512458Y-3028848D01*
X6510578Y-3024835D01*
X6510578Y-3020364D01*
X6512458Y-3016351D01*
X6515912Y-3013506D01*
X6518859Y-3012033D01*
X6531914Y-3003448D01*
X6543903Y-2993390D01*
X6554622Y-2982061D01*
X6563969Y-2969514D01*
X6571792Y-2955950D01*
X6577939Y-2941574D01*
X6582460Y-2926588D01*
X6585153Y-2911195D01*
X6586067Y-2895600D01*
X6585153Y-2880004D01*
X6582460Y-2864612D01*
X6577939Y-2849626D01*
X6571792Y-2835249D01*
X6563969Y-2821686D01*
X6554622Y-2809189D01*
X6543903Y-2797810D01*
X6531914Y-2787751D01*
X6518859Y-2779166D01*
X6504838Y-2772105D01*
X6490157Y-2766771D01*
X6474968Y-2763164D01*
X6459423Y-2761335D01*
X6443776Y-2761335D01*
X6428232Y-2763164D01*
X6413042Y-2766771D01*
X6398361Y-2772105D01*
X6384340Y-2779166D01*
X6371285Y-2787751D01*
X6359296Y-2797810D01*
X6348577Y-2809189D01*
X6339230Y-2821686D01*
X6331458Y-2835249D01*
X6325260Y-2849626D01*
X6320739Y-2864612D01*
X6318046Y-2880004D01*
X6317132Y-2895600D01*
X6318046Y-2911195D01*
X6320739Y-2926588D01*
X6325260Y-2941574D01*
X6331458Y-2955950D01*
X6339230Y-2969514D01*
X6348577Y-2982061D01*
X6359296Y-2993390D01*
X6371285Y-3003448D01*
X6384340Y-3012033D01*
X6387287Y-3013506D01*
X6390741Y-3016351D01*
X6392621Y-3020364D01*
X6392621Y-3024835D01*
X6390741Y-3028848D01*
X6387287Y-3031693D01*
X6384340Y-3033166D01*
X6371285Y-3041751D01*
X6359296Y-3051810D01*
X6348577Y-3063189D01*
X6339230Y-3075686D01*
X6331458Y-3089249D01*
X6325260Y-3103626D01*
X6320739Y-3118612D01*
X6318046Y-3134004D01*
X6317132Y-3149600D01*
X6318046Y-3165195D01*
X6320739Y-3180588D01*
X6325260Y-3195574D01*
X6331458Y-3209950D01*
X6339230Y-3223514D01*
X6348577Y-3236061D01*
X6359296Y-3247390D01*
X6371285Y-3257448D01*
X6384340Y-3266033D01*
X6387287Y-3267506D01*
X6390741Y-3270351D01*
X6392621Y-3274364D01*
X6392621Y-3278835D01*
X6390741Y-3282848D01*
X6387287Y-3285693D01*
X6384340Y-3287166D01*
X6371285Y-3295751D01*
X6359296Y-3305810D01*
X6348577Y-3317189D01*
X6339230Y-3329686D01*
X6331458Y-3343249D01*
G37*
G36*
X3510940Y-3245459D02*
G01*
X3573830Y-3245459D01*
X3568293Y-3233674D01*
X3560521Y-3221431D01*
X3551275Y-3210255D01*
X3540709Y-3200298D01*
X3528974Y-3191814D01*
X3516274Y-3184804D01*
X3510940Y-3182721D01*
G37*
G36*
X3360369Y-3245459D02*
G01*
X3423259Y-3245459D01*
X3423259Y-3182721D01*
X3417925Y-3184804D01*
X3405225Y-3191814D01*
X3393490Y-3200298D01*
X3382924Y-3210255D01*
X3373678Y-3221431D01*
X3365906Y-3233674D01*
G37*
G36*
X5034940Y-3245459D02*
G01*
X5097830Y-3245459D01*
X5092293Y-3233674D01*
X5084521Y-3221431D01*
X5075275Y-3210255D01*
X5064709Y-3200298D01*
X5052974Y-3191814D01*
X5040274Y-3184804D01*
X5034940Y-3182721D01*
G37*
G36*
X4884369Y-3245459D02*
G01*
X4947259Y-3245459D01*
X4947259Y-3182721D01*
X4941925Y-3184804D01*
X4929225Y-3191814D01*
X4917490Y-3200298D01*
X4906924Y-3210255D01*
X4897678Y-3221431D01*
X4889906Y-3233674D01*
G37*
G36*
X7214920Y-3113125D02*
G01*
X7233056Y-3113125D01*
X7233056Y-3053943D01*
X7173874Y-3053943D01*
X7173874Y-3072079D01*
X7174738Y-3080512D01*
X7177024Y-3088081D01*
X7180732Y-3095091D01*
X7185812Y-3101187D01*
X7191908Y-3106267D01*
X7198918Y-3109976D01*
X7206488Y-3112262D01*
G37*
G36*
X7295743Y-3113125D02*
G01*
X7313879Y-3113125D01*
X7322312Y-3112262D01*
X7329881Y-3109976D01*
X7336891Y-3106267D01*
X7339330Y-3104235D01*
X7342682Y-3102406D01*
X7346543Y-3101949D01*
X7350252Y-3102965D01*
X7357516Y-3106521D01*
X7369505Y-3110382D01*
X7381951Y-3112566D01*
X7394549Y-3113024D01*
X7407097Y-3111703D01*
X7419340Y-3108655D01*
X7431074Y-3103930D01*
X7441996Y-3097631D01*
X7448550Y-3092500D01*
X7451699Y-3090824D01*
X7455153Y-3090316D01*
X7458608Y-3091078D01*
X7473137Y-3100984D01*
X7484516Y-3106521D01*
X7496505Y-3110382D01*
X7508951Y-3112566D01*
X7521549Y-3113024D01*
X7534097Y-3111703D01*
X7546340Y-3108655D01*
X7558074Y-3103930D01*
X7568996Y-3097631D01*
X7578953Y-3089859D01*
X7587691Y-3080766D01*
X7595108Y-3070555D01*
X7601051Y-3059430D01*
X7605369Y-3047542D01*
X7608011Y-3035198D01*
X7608874Y-3022600D01*
X7608011Y-3010001D01*
X7605369Y-2997657D01*
X7601051Y-2985820D01*
X7595108Y-2974644D01*
X7587691Y-2964434D01*
X7578953Y-2955340D01*
X7568996Y-2947568D01*
X7558074Y-2941269D01*
X7546340Y-2936544D01*
X7534097Y-2933496D01*
X7521549Y-2932176D01*
X7508951Y-2932633D01*
X7496505Y-2934817D01*
X7484516Y-2938729D01*
X7473137Y-2944266D01*
X7458608Y-2954121D01*
X7455153Y-2954883D01*
X7451699Y-2954375D01*
X7448550Y-2952699D01*
X7441996Y-2947568D01*
X7431074Y-2941269D01*
X7419340Y-2936544D01*
X7407097Y-2933496D01*
X7394549Y-2932176D01*
X7381951Y-2932633D01*
X7369505Y-2934817D01*
X7357516Y-2938729D01*
X7350252Y-2942234D01*
X7346543Y-2943250D01*
X7342682Y-2942793D01*
X7339330Y-2940964D01*
X7336891Y-2938983D01*
X7329881Y-2935224D01*
X7322312Y-2932938D01*
X7313879Y-2932074D01*
X7295743Y-2932074D01*
X7295743Y-2991612D01*
X7298994Y-2993237D01*
X7301534Y-2995879D01*
X7302906Y-2999232D01*
X7303058Y-3002838D01*
X7301128Y-3016300D01*
X7301128Y-3028899D01*
X7303058Y-3042361D01*
X7302906Y-3045968D01*
X7301534Y-3049320D01*
X7298994Y-3051962D01*
X7295743Y-3053588D01*
G37*
G36*
X7173874Y-2991256D02*
G01*
X7233056Y-2991256D01*
X7233056Y-2932074D01*
X7214920Y-2932074D01*
X7206488Y-2932938D01*
X7198918Y-2935224D01*
X7191908Y-2938983D01*
X7185812Y-2944012D01*
X7180732Y-2950108D01*
X7177024Y-2957118D01*
X7174738Y-2964688D01*
X7173874Y-2973120D01*
G37*
G36*
X7562850Y-2580487D02*
G01*
X7594092Y-2580487D01*
X7602474Y-2579674D01*
X7610094Y-2577388D01*
X7617053Y-2573629D01*
X7623200Y-2568600D01*
X7628229Y-2562453D01*
X7631988Y-2555494D01*
X7634274Y-2547874D01*
X7635087Y-2539492D01*
X7635087Y-2508250D01*
X7562850Y-2508250D01*
G37*
G36*
X7442708Y-2580487D02*
G01*
X7473950Y-2580487D01*
X7473950Y-2508250D01*
X7401712Y-2508250D01*
X7401712Y-2539492D01*
X7402525Y-2547874D01*
X7404811Y-2555494D01*
X7408570Y-2562453D01*
X7413599Y-2568600D01*
X7419746Y-2573629D01*
X7426706Y-2577388D01*
X7434325Y-2579674D01*
G37*
G36*
X7401712Y-2419350D02*
G01*
X7473950Y-2419350D01*
X7473950Y-2347112D01*
X7442708Y-2347112D01*
X7434325Y-2347925D01*
X7426706Y-2350211D01*
X7419746Y-2353970D01*
X7413599Y-2358999D01*
X7408570Y-2365146D01*
X7404811Y-2372106D01*
X7402525Y-2379726D01*
X7401712Y-2388108D01*
G37*
G36*
X7562850Y-2419350D02*
G01*
X7635087Y-2419350D01*
X7635087Y-2388108D01*
X7634274Y-2379726D01*
X7631988Y-2372106D01*
X7628229Y-2365146D01*
X7623200Y-2358999D01*
X7617053Y-2353970D01*
X7610094Y-2350211D01*
X7602474Y-2347925D01*
X7594092Y-2347112D01*
X7562850Y-2347112D01*
G37*
G36*
X7518908Y-1856587D02*
G01*
X7670292Y-1856587D01*
X7678674Y-1855774D01*
X7686294Y-1853488D01*
X7693253Y-1849729D01*
X7699400Y-1844700D01*
X7704429Y-1838553D01*
X7708188Y-1831593D01*
X7710474Y-1823974D01*
X7711287Y-1815592D01*
X7711287Y-1664207D01*
X7710474Y-1655825D01*
X7708188Y-1648206D01*
X7704429Y-1641246D01*
X7699400Y-1635099D01*
X7693253Y-1630070D01*
X7686294Y-1626311D01*
X7678674Y-1624025D01*
X7670292Y-1623212D01*
X7518908Y-1623212D01*
X7510525Y-1624025D01*
X7502906Y-1626311D01*
X7495946Y-1630070D01*
X7489799Y-1635099D01*
X7484770Y-1641246D01*
X7481011Y-1648206D01*
X7478725Y-1655825D01*
X7477912Y-1664207D01*
X7477912Y-1815592D01*
X7478725Y-1823974D01*
X7481011Y-1831593D01*
X7484770Y-1838553D01*
X7489799Y-1844700D01*
X7495946Y-1849729D01*
X7502906Y-1853488D01*
X7510525Y-1855774D01*
G37*
G36*
X6871208Y-1856587D02*
G01*
X7022592Y-1856587D01*
X7030974Y-1855774D01*
X7038594Y-1853488D01*
X7045553Y-1849729D01*
X7051700Y-1844700D01*
X7056729Y-1838553D01*
X7060488Y-1831593D01*
X7062774Y-1823974D01*
X7063587Y-1815592D01*
X7063587Y-1664207D01*
X7062774Y-1655825D01*
X7060488Y-1648206D01*
X7056729Y-1641246D01*
X7051700Y-1635099D01*
X7045553Y-1630070D01*
X7038594Y-1626311D01*
X7030974Y-1624025D01*
X7022592Y-1623212D01*
X6871208Y-1623212D01*
X6862825Y-1624025D01*
X6855206Y-1626311D01*
X6848246Y-1630070D01*
X6842099Y-1635099D01*
X6837070Y-1641246D01*
X6833311Y-1648206D01*
X6831025Y-1655825D01*
X6830212Y-1664207D01*
X6830212Y-1815592D01*
X6831025Y-1823974D01*
X6833311Y-1831593D01*
X6837070Y-1838553D01*
X6842099Y-1844700D01*
X6848246Y-1849729D01*
X6855206Y-1853488D01*
X6862825Y-1855774D01*
G37*
G36*
X6236208Y-1856587D02*
G01*
X6387592Y-1856587D01*
X6395974Y-1855774D01*
X6403594Y-1853488D01*
X6410553Y-1849729D01*
X6416700Y-1844700D01*
X6421729Y-1838553D01*
X6425488Y-1831593D01*
X6427774Y-1823974D01*
X6428587Y-1815592D01*
X6428587Y-1664207D01*
X6427774Y-1655825D01*
X6425488Y-1648206D01*
X6421729Y-1641246D01*
X6416700Y-1635099D01*
X6410553Y-1630070D01*
X6403594Y-1626311D01*
X6395974Y-1624025D01*
X6387592Y-1623212D01*
X6236208Y-1623212D01*
X6227826Y-1624025D01*
X6220206Y-1626311D01*
X6213246Y-1630070D01*
X6207099Y-1635099D01*
X6202070Y-1641246D01*
X6198311Y-1648206D01*
X6196025Y-1655825D01*
X6195212Y-1664207D01*
X6195212Y-1815592D01*
X6196025Y-1823974D01*
X6198311Y-1831593D01*
X6202070Y-1838553D01*
X6207099Y-1844700D01*
X6213246Y-1849729D01*
X6220206Y-1853488D01*
X6227826Y-1855774D01*
G37*
G36*
X5422900Y-1607667D02*
G01*
X5438495Y-1606753D01*
X5453888Y-1604060D01*
X5468874Y-1599539D01*
X5483250Y-1593392D01*
X5496814Y-1585569D01*
X5509361Y-1576222D01*
X5520690Y-1565503D01*
X5530748Y-1553514D01*
X5539333Y-1540459D01*
X5546394Y-1526438D01*
X5551728Y-1511757D01*
X5555335Y-1496568D01*
X5557164Y-1481023D01*
X5557164Y-1465376D01*
X5555335Y-1449832D01*
X5551728Y-1434642D01*
X5546394Y-1419961D01*
X5539333Y-1405940D01*
X5530748Y-1392885D01*
X5520690Y-1380896D01*
X5509361Y-1370177D01*
X5496814Y-1360830D01*
X5483250Y-1353058D01*
X5468874Y-1346860D01*
X5453888Y-1342339D01*
X5438495Y-1339646D01*
X5422900Y-1338732D01*
X5407304Y-1339646D01*
X5391912Y-1342339D01*
X5376926Y-1346860D01*
X5362549Y-1353058D01*
X5348986Y-1360830D01*
X5336489Y-1370177D01*
X5325110Y-1380896D01*
X5315051Y-1392885D01*
X5306466Y-1405940D01*
X5299405Y-1419961D01*
X5294071Y-1434642D01*
X5290464Y-1449832D01*
X5288635Y-1465376D01*
X5288635Y-1481023D01*
X5290464Y-1496568D01*
X5294071Y-1511757D01*
X5299405Y-1526438D01*
X5306466Y-1540459D01*
X5315051Y-1553514D01*
X5325110Y-1565503D01*
X5336489Y-1576222D01*
X5348986Y-1585569D01*
X5362549Y-1593392D01*
X5376926Y-1599539D01*
X5391912Y-1604060D01*
X5407304Y-1606753D01*
G37*
G36*
X5753100Y-1594967D02*
G01*
X5768695Y-1594053D01*
X5784088Y-1591360D01*
X5799074Y-1586839D01*
X5813450Y-1580692D01*
X5827014Y-1572869D01*
X5839561Y-1563522D01*
X5850890Y-1552803D01*
X5860948Y-1540814D01*
X5869533Y-1527759D01*
X5876594Y-1513738D01*
X5881928Y-1499057D01*
X5885535Y-1483868D01*
X5887364Y-1468323D01*
X5887364Y-1452676D01*
X5885535Y-1437132D01*
X5881928Y-1421942D01*
X5876594Y-1407261D01*
X5869533Y-1393240D01*
X5860948Y-1380185D01*
X5850890Y-1368196D01*
X5839561Y-1357477D01*
X5827014Y-1348130D01*
X5813450Y-1340358D01*
X5799074Y-1334160D01*
X5784088Y-1329639D01*
X5768695Y-1326946D01*
X5753100Y-1326032D01*
X5737504Y-1326946D01*
X5722112Y-1329639D01*
X5707126Y-1334160D01*
X5692749Y-1340358D01*
X5679186Y-1348130D01*
X5666689Y-1357477D01*
X5655310Y-1368196D01*
X5645251Y-1380185D01*
X5636666Y-1393240D01*
X5629605Y-1407261D01*
X5624271Y-1421942D01*
X5620664Y-1437132D01*
X5618835Y-1452676D01*
X5618835Y-1468323D01*
X5620664Y-1483868D01*
X5624271Y-1499057D01*
X5629605Y-1513738D01*
X5636666Y-1527759D01*
X5645251Y-1540814D01*
X5655310Y-1552803D01*
X5666689Y-1563522D01*
X5679186Y-1572869D01*
X5692749Y-1580692D01*
X5707126Y-1586839D01*
X5722112Y-1591360D01*
X5737504Y-1594053D01*
G37*
G36*
X6356350Y-1593545D02*
G01*
X6361582Y-1591462D01*
X6374434Y-1584401D01*
X6386271Y-1575816D01*
X6396939Y-1565757D01*
X6406286Y-1554480D01*
X6414160Y-1542135D01*
X6419697Y-1530350D01*
X6356350Y-1530350D01*
G37*
G36*
X7639050Y-1593545D02*
G01*
X7644282Y-1591462D01*
X7657134Y-1584401D01*
X7668971Y-1575816D01*
X7679639Y-1565757D01*
X7688986Y-1554480D01*
X7696860Y-1542135D01*
X7702397Y-1530350D01*
X7639050Y-1530350D01*
G37*
G36*
X7550150Y-1593545D02*
G01*
X7550150Y-1530350D01*
X7486802Y-1530350D01*
X7492339Y-1542135D01*
X7500213Y-1554480D01*
X7509560Y-1565757D01*
X7520228Y-1575816D01*
X7532065Y-1584401D01*
X7544917Y-1591462D01*
G37*
G36*
X6267450Y-1593545D02*
G01*
X6267450Y-1530350D01*
X6204102Y-1530350D01*
X6209639Y-1542135D01*
X6217513Y-1554480D01*
X6226860Y-1565757D01*
X6237528Y-1575816D01*
X6249365Y-1584401D01*
X6262217Y-1591462D01*
G37*
G36*
X6902450Y-1593545D02*
G01*
X6902450Y-1530350D01*
X6839102Y-1530350D01*
X6844639Y-1542135D01*
X6852513Y-1554480D01*
X6861860Y-1565757D01*
X6872528Y-1575816D01*
X6884365Y-1584401D01*
X6897217Y-1591462D01*
G37*
G36*
X6991350Y-1593545D02*
G01*
X6996582Y-1591462D01*
X7009434Y-1584401D01*
X7021271Y-1575816D01*
X7031939Y-1565757D01*
X7041286Y-1554480D01*
X7049160Y-1542135D01*
X7054697Y-1530350D01*
X6991350Y-1530350D01*
G37*
G36*
X6991350Y-1441450D02*
G01*
X7054697Y-1441450D01*
X7049160Y-1429664D01*
X7041286Y-1417320D01*
X7031939Y-1406042D01*
X7021271Y-1395984D01*
X7009434Y-1387398D01*
X6996582Y-1380337D01*
X6991350Y-1378254D01*
G37*
G36*
X6204102Y-1441450D02*
G01*
X6267450Y-1441450D01*
X6267450Y-1378254D01*
X6262217Y-1380337D01*
X6249365Y-1387398D01*
X6237528Y-1395984D01*
X6226860Y-1406042D01*
X6217513Y-1417320D01*
X6209639Y-1429664D01*
G37*
G36*
X6839102Y-1441450D02*
G01*
X6902450Y-1441450D01*
X6902450Y-1378254D01*
X6897217Y-1380337D01*
X6884365Y-1387398D01*
X6872528Y-1395984D01*
X6861860Y-1406042D01*
X6852513Y-1417320D01*
X6844639Y-1429664D01*
G37*
G36*
X6356350Y-1441450D02*
G01*
X6419697Y-1441450D01*
X6414160Y-1429664D01*
X6406286Y-1417320D01*
X6396939Y-1406042D01*
X6386271Y-1395984D01*
X6374434Y-1387398D01*
X6361582Y-1380337D01*
X6356350Y-1378254D01*
G37*
G36*
X7486802Y-1441450D02*
G01*
X7550150Y-1441450D01*
X7550150Y-1378254D01*
X7544917Y-1380337D01*
X7532065Y-1387398D01*
X7520228Y-1395984D01*
X7509560Y-1406042D01*
X7500213Y-1417320D01*
X7492339Y-1429664D01*
G37*
G36*
X7639050Y-1441450D02*
G01*
X7702397Y-1441450D01*
X7696860Y-1429664D01*
X7688986Y-1417320D01*
X7679639Y-1406042D01*
X7668971Y-1395984D01*
X7657134Y-1387398D01*
X7644282Y-1380337D01*
X7639050Y-1378254D01*
G37*
G36*
X6939584Y-1348333D02*
G01*
X6954215Y-1348333D01*
X6968744Y-1346504D01*
X6982968Y-1342898D01*
X6996582Y-1337462D01*
X7009434Y-1330401D01*
X7021271Y-1321816D01*
X7031939Y-1311757D01*
X7041286Y-1300480D01*
X7049160Y-1288135D01*
X7055408Y-1274876D01*
X7059930Y-1260906D01*
X7062673Y-1246530D01*
X7063587Y-1231900D01*
X7062673Y-1217269D01*
X7059930Y-1202893D01*
X7055408Y-1188923D01*
X7049160Y-1175664D01*
X7041286Y-1163320D01*
X7031939Y-1152042D01*
X7021271Y-1141984D01*
X7009434Y-1133398D01*
X6996582Y-1126337D01*
X6982968Y-1120902D01*
X6968744Y-1117295D01*
X6954215Y-1115466D01*
X6939584Y-1115466D01*
X6925056Y-1117295D01*
X6910831Y-1120902D01*
X6897217Y-1126337D01*
X6884365Y-1133398D01*
X6872528Y-1141984D01*
X6861860Y-1152042D01*
X6852513Y-1163320D01*
X6844639Y-1175664D01*
X6838391Y-1188923D01*
X6833870Y-1202893D01*
X6831126Y-1217269D01*
X6830212Y-1231900D01*
X6831126Y-1246530D01*
X6833870Y-1260906D01*
X6838391Y-1274876D01*
X6844639Y-1288135D01*
X6852513Y-1300480D01*
X6861860Y-1311757D01*
X6872528Y-1321816D01*
X6884365Y-1330401D01*
X6897217Y-1337462D01*
X6910831Y-1342898D01*
X6925056Y-1346504D01*
G37*
G36*
X6304584Y-1348333D02*
G01*
X6319215Y-1348333D01*
X6333744Y-1346504D01*
X6347968Y-1342898D01*
X6361582Y-1337462D01*
X6374434Y-1330401D01*
X6386271Y-1321816D01*
X6396939Y-1311757D01*
X6406286Y-1300480D01*
X6414160Y-1288135D01*
X6420408Y-1274876D01*
X6424930Y-1260906D01*
X6427673Y-1246530D01*
X6428587Y-1231900D01*
X6427673Y-1217269D01*
X6424930Y-1202893D01*
X6420408Y-1188923D01*
X6414160Y-1175664D01*
X6406286Y-1163320D01*
X6396939Y-1152042D01*
X6386271Y-1141984D01*
X6374434Y-1133398D01*
X6361582Y-1126337D01*
X6347968Y-1120902D01*
X6333744Y-1117295D01*
X6319215Y-1115466D01*
X6304584Y-1115466D01*
X6290056Y-1117295D01*
X6275832Y-1120902D01*
X6262217Y-1126337D01*
X6249365Y-1133398D01*
X6237528Y-1141984D01*
X6226860Y-1152042D01*
X6217513Y-1163320D01*
X6209639Y-1175664D01*
X6203391Y-1188923D01*
X6198870Y-1202893D01*
X6196126Y-1217269D01*
X6195212Y-1231900D01*
X6196126Y-1246530D01*
X6198870Y-1260906D01*
X6203391Y-1274876D01*
X6209639Y-1288135D01*
X6217513Y-1300480D01*
X6226860Y-1311757D01*
X6237528Y-1321816D01*
X6249365Y-1330401D01*
X6262217Y-1337462D01*
X6275832Y-1342898D01*
X6290056Y-1346504D01*
G37*
G36*
X7587284Y-1348333D02*
G01*
X7601915Y-1348333D01*
X7616444Y-1346504D01*
X7630668Y-1342898D01*
X7644282Y-1337462D01*
X7657134Y-1330401D01*
X7668971Y-1321816D01*
X7679639Y-1311757D01*
X7688986Y-1300480D01*
X7696860Y-1288135D01*
X7703108Y-1274876D01*
X7707630Y-1260906D01*
X7710373Y-1246530D01*
X7711287Y-1231900D01*
X7710373Y-1217269D01*
X7707630Y-1202893D01*
X7703108Y-1188923D01*
X7696860Y-1175664D01*
X7688986Y-1163320D01*
X7679639Y-1152042D01*
X7668971Y-1141984D01*
X7657134Y-1133398D01*
X7644282Y-1126337D01*
X7630668Y-1120902D01*
X7616444Y-1117295D01*
X7601915Y-1115466D01*
X7587284Y-1115466D01*
X7572756Y-1117295D01*
X7558531Y-1120902D01*
X7544917Y-1126337D01*
X7532065Y-1133398D01*
X7520228Y-1141984D01*
X7509560Y-1152042D01*
X7500213Y-1163320D01*
X7492339Y-1175664D01*
X7486091Y-1188923D01*
X7481570Y-1202893D01*
X7478826Y-1217269D01*
X7477912Y-1231900D01*
X7478826Y-1246530D01*
X7481570Y-1260906D01*
X7486091Y-1274876D01*
X7492339Y-1288135D01*
X7500213Y-1300480D01*
X7509560Y-1311757D01*
X7520228Y-1321816D01*
X7532065Y-1330401D01*
X7544917Y-1337462D01*
X7558531Y-1342898D01*
X7572756Y-1346504D01*
G37*
G36*
X1427835Y-1134567D02*
G01*
X1442364Y-1134567D01*
X1456740Y-1132738D01*
X1470812Y-1129131D01*
X1484274Y-1123797D01*
X1496974Y-1116787D01*
X1508709Y-1108303D01*
X1519275Y-1098346D01*
X1528521Y-1087170D01*
X1536293Y-1074928D01*
X1542491Y-1061821D01*
X1546961Y-1048003D01*
X1549654Y-1033780D01*
X1550568Y-1019302D01*
X1549654Y-1004824D01*
X1546961Y-990600D01*
X1542491Y-976782D01*
X1536293Y-963676D01*
X1528521Y-951433D01*
X1519275Y-940257D01*
X1508709Y-930300D01*
X1496974Y-921816D01*
X1484274Y-914806D01*
X1470812Y-909472D01*
X1456740Y-905865D01*
X1442364Y-904036D01*
X1427835Y-904036D01*
X1413459Y-905865D01*
X1399387Y-909472D01*
X1385925Y-914806D01*
X1373225Y-921816D01*
X1361490Y-930300D01*
X1350924Y-940257D01*
X1341678Y-951433D01*
X1333906Y-963676D01*
X1327708Y-976782D01*
X1323238Y-990600D01*
X1320546Y-1004824D01*
X1319631Y-1019302D01*
X1320546Y-1033780D01*
X1323238Y-1048003D01*
X1327708Y-1061821D01*
X1333906Y-1074928D01*
X1341678Y-1087170D01*
X1350924Y-1098346D01*
X1361490Y-1108303D01*
X1373225Y-1116787D01*
X1385925Y-1123797D01*
X1399387Y-1129131D01*
X1413459Y-1132738D01*
G37*
G36*
X919835Y-1134567D02*
G01*
X934364Y-1134567D01*
X948740Y-1132738D01*
X962812Y-1129131D01*
X976274Y-1123797D01*
X988974Y-1116787D01*
X1000709Y-1108303D01*
X1011275Y-1098346D01*
X1020521Y-1087170D01*
X1028293Y-1074928D01*
X1034491Y-1061821D01*
X1038961Y-1048003D01*
X1041653Y-1033780D01*
X1042568Y-1019302D01*
X1041653Y-1004824D01*
X1038961Y-990600D01*
X1034491Y-976782D01*
X1028293Y-963676D01*
X1020521Y-951433D01*
X1011275Y-940257D01*
X1000709Y-930300D01*
X988974Y-921816D01*
X976274Y-914806D01*
X962812Y-909472D01*
X948740Y-905865D01*
X934364Y-904036D01*
X919835Y-904036D01*
X905459Y-905865D01*
X891387Y-909472D01*
X877925Y-914806D01*
X865225Y-921816D01*
X853490Y-930300D01*
X842924Y-940257D01*
X833678Y-951433D01*
X825906Y-963676D01*
X819708Y-976782D01*
X815238Y-990600D01*
X812546Y-1004824D01*
X811631Y-1019302D01*
X812546Y-1033780D01*
X815238Y-1048003D01*
X819708Y-1061821D01*
X825906Y-1074928D01*
X833678Y-1087170D01*
X842924Y-1098346D01*
X853490Y-1108303D01*
X865225Y-1116787D01*
X877925Y-1123797D01*
X891387Y-1129131D01*
X905459Y-1132738D01*
G37*
G36*
X665835Y-1134567D02*
G01*
X680364Y-1134567D01*
X694740Y-1132738D01*
X708812Y-1129131D01*
X722274Y-1123797D01*
X734974Y-1116787D01*
X746709Y-1108303D01*
X757275Y-1098346D01*
X766521Y-1087170D01*
X774293Y-1074928D01*
X780491Y-1061821D01*
X784961Y-1048003D01*
X787654Y-1033780D01*
X788568Y-1019302D01*
X787654Y-1004824D01*
X784961Y-990600D01*
X780491Y-976782D01*
X774293Y-963676D01*
X766521Y-951433D01*
X757275Y-940257D01*
X746709Y-930300D01*
X734974Y-921816D01*
X722274Y-914806D01*
X708812Y-909472D01*
X694740Y-905865D01*
X680364Y-904036D01*
X665835Y-904036D01*
X651459Y-905865D01*
X637387Y-909472D01*
X623925Y-914806D01*
X611225Y-921816D01*
X599490Y-930300D01*
X588924Y-940257D01*
X579678Y-951433D01*
X571906Y-963676D01*
X565708Y-976782D01*
X561238Y-990600D01*
X558546Y-1004824D01*
X557631Y-1019302D01*
X558546Y-1033780D01*
X561238Y-1048003D01*
X565708Y-1061821D01*
X571906Y-1074928D01*
X579678Y-1087170D01*
X588924Y-1098346D01*
X599490Y-1108303D01*
X611225Y-1116787D01*
X623925Y-1123797D01*
X637387Y-1129131D01*
X651459Y-1132738D01*
G37*
G36*
X1173835Y-1134567D02*
G01*
X1188364Y-1134567D01*
X1202740Y-1132738D01*
X1216812Y-1129131D01*
X1230274Y-1123797D01*
X1242974Y-1116787D01*
X1254709Y-1108303D01*
X1265275Y-1098346D01*
X1274521Y-1087170D01*
X1282293Y-1074928D01*
X1288491Y-1061821D01*
X1292961Y-1048003D01*
X1295654Y-1033780D01*
X1296568Y-1019302D01*
X1295654Y-1004824D01*
X1292961Y-990600D01*
X1288491Y-976782D01*
X1282293Y-963676D01*
X1274521Y-951433D01*
X1265275Y-940257D01*
X1254709Y-930300D01*
X1242974Y-921816D01*
X1230274Y-914806D01*
X1216812Y-909472D01*
X1202740Y-905865D01*
X1188364Y-904036D01*
X1173835Y-904036D01*
X1159459Y-905865D01*
X1145387Y-909472D01*
X1131925Y-914806D01*
X1119225Y-921816D01*
X1107490Y-930300D01*
X1096924Y-940257D01*
X1087678Y-951433D01*
X1079906Y-963676D01*
X1073708Y-976782D01*
X1069238Y-990600D01*
X1066546Y-1004824D01*
X1065631Y-1019302D01*
X1066546Y-1033780D01*
X1069238Y-1048003D01*
X1073708Y-1061821D01*
X1079906Y-1074928D01*
X1087678Y-1087170D01*
X1096924Y-1098346D01*
X1107490Y-1108303D01*
X1119225Y-1116787D01*
X1131925Y-1123797D01*
X1145387Y-1129131D01*
X1159459Y-1132738D01*
G37*
G36*
X411835Y-1134567D02*
G01*
X426364Y-1134567D01*
X440740Y-1132738D01*
X454812Y-1129131D01*
X468274Y-1123797D01*
X480974Y-1116787D01*
X492709Y-1108303D01*
X503275Y-1098346D01*
X512521Y-1087170D01*
X520293Y-1074928D01*
X526491Y-1061821D01*
X530961Y-1048003D01*
X533654Y-1033780D01*
X534568Y-1019302D01*
X533654Y-1004824D01*
X530961Y-990600D01*
X526491Y-976782D01*
X520293Y-963676D01*
X512521Y-951433D01*
X503275Y-940257D01*
X492709Y-930300D01*
X480974Y-921816D01*
X468274Y-914806D01*
X454812Y-909472D01*
X440740Y-905865D01*
X426364Y-904036D01*
X411835Y-904036D01*
X397459Y-905865D01*
X383387Y-909472D01*
X369925Y-914806D01*
X357225Y-921816D01*
X345490Y-930300D01*
X334924Y-940257D01*
X325678Y-951433D01*
X317906Y-963676D01*
X311708Y-976782D01*
X307238Y-990600D01*
X304546Y-1004824D01*
X303631Y-1019302D01*
X304546Y-1033780D01*
X307238Y-1048003D01*
X311708Y-1061821D01*
X317906Y-1074928D01*
X325678Y-1087170D01*
X334924Y-1098346D01*
X345490Y-1108303D01*
X357225Y-1116787D01*
X369925Y-1123797D01*
X383387Y-1129131D01*
X397459Y-1132738D01*
G37*
G36*
X1935835Y-1134567D02*
G01*
X1950364Y-1134567D01*
X1964740Y-1132738D01*
X1978812Y-1129131D01*
X1992274Y-1123797D01*
X2004974Y-1116787D01*
X2016709Y-1108303D01*
X2027275Y-1098346D01*
X2036521Y-1087170D01*
X2044293Y-1074928D01*
X2050491Y-1061821D01*
X2054961Y-1048003D01*
X2057654Y-1033780D01*
X2058568Y-1019302D01*
X2057654Y-1004824D01*
X2054961Y-990600D01*
X2050491Y-976782D01*
X2044293Y-963676D01*
X2036521Y-951433D01*
X2027275Y-940257D01*
X2016709Y-930300D01*
X2004974Y-921816D01*
X1992274Y-914806D01*
X1978812Y-909472D01*
X1964740Y-905865D01*
X1950364Y-904036D01*
X1935835Y-904036D01*
X1921459Y-905865D01*
X1907387Y-909472D01*
X1893925Y-914806D01*
X1881225Y-921816D01*
X1869490Y-930300D01*
X1858924Y-940257D01*
X1849678Y-951433D01*
X1841906Y-963676D01*
X1835708Y-976782D01*
X1831238Y-990600D01*
X1828546Y-1004824D01*
X1827631Y-1019302D01*
X1828546Y-1033780D01*
X1831238Y-1048003D01*
X1835708Y-1061821D01*
X1841906Y-1074928D01*
X1849678Y-1087170D01*
X1858924Y-1098346D01*
X1869490Y-1108303D01*
X1881225Y-1116787D01*
X1893925Y-1123797D01*
X1907387Y-1129131D01*
X1921459Y-1132738D01*
G37*
G36*
X4221835Y-1134567D02*
G01*
X4236364Y-1134567D01*
X4250740Y-1132738D01*
X4264812Y-1129131D01*
X4278274Y-1123797D01*
X4290974Y-1116787D01*
X4302709Y-1108303D01*
X4313275Y-1098346D01*
X4322521Y-1087170D01*
X4330293Y-1074928D01*
X4336491Y-1061821D01*
X4340961Y-1048003D01*
X4343654Y-1033780D01*
X4344568Y-1019302D01*
X4343654Y-1004824D01*
X4340961Y-990600D01*
X4336491Y-976782D01*
X4330293Y-963676D01*
X4322521Y-951433D01*
X4313275Y-940257D01*
X4302709Y-930300D01*
X4290974Y-921816D01*
X4278274Y-914806D01*
X4264812Y-909472D01*
X4250740Y-905865D01*
X4236364Y-904036D01*
X4221835Y-904036D01*
X4207459Y-905865D01*
X4193387Y-909472D01*
X4179925Y-914806D01*
X4167225Y-921816D01*
X4155490Y-930300D01*
X4144924Y-940257D01*
X4135678Y-951433D01*
X4127906Y-963676D01*
X4121708Y-976782D01*
X4117238Y-990600D01*
X4114546Y-1004824D01*
X4113631Y-1019302D01*
X4114546Y-1033780D01*
X4117238Y-1048003D01*
X4121708Y-1061821D01*
X4127906Y-1074928D01*
X4135678Y-1087170D01*
X4144924Y-1098346D01*
X4155490Y-1108303D01*
X4167225Y-1116787D01*
X4179925Y-1123797D01*
X4193387Y-1129131D01*
X4207459Y-1132738D01*
G37*
G36*
X3459835Y-1134567D02*
G01*
X3474364Y-1134567D01*
X3488740Y-1132738D01*
X3502812Y-1129131D01*
X3516274Y-1123797D01*
X3528974Y-1116787D01*
X3540709Y-1108303D01*
X3551275Y-1098346D01*
X3560521Y-1087170D01*
X3568293Y-1074928D01*
X3574491Y-1061821D01*
X3578961Y-1048003D01*
X3581654Y-1033780D01*
X3582568Y-1019302D01*
X3581654Y-1004824D01*
X3578961Y-990600D01*
X3574491Y-976782D01*
X3568293Y-963676D01*
X3560521Y-951433D01*
X3551275Y-940257D01*
X3540709Y-930300D01*
X3528974Y-921816D01*
X3516274Y-914806D01*
X3502812Y-909472D01*
X3488740Y-905865D01*
X3474364Y-904036D01*
X3459835Y-904036D01*
X3445459Y-905865D01*
X3431387Y-909472D01*
X3417925Y-914806D01*
X3405225Y-921816D01*
X3393490Y-930300D01*
X3382924Y-940257D01*
X3373678Y-951433D01*
X3365906Y-963676D01*
X3359708Y-976782D01*
X3355238Y-990600D01*
X3352546Y-1004824D01*
X3351631Y-1019302D01*
X3352546Y-1033780D01*
X3355238Y-1048003D01*
X3359708Y-1061821D01*
X3365906Y-1074928D01*
X3373678Y-1087170D01*
X3382924Y-1098346D01*
X3393490Y-1108303D01*
X3405225Y-1116787D01*
X3417925Y-1123797D01*
X3431387Y-1129131D01*
X3445459Y-1132738D01*
G37*
G36*
X2443835Y-1134567D02*
G01*
X2458364Y-1134567D01*
X2472740Y-1132738D01*
X2486812Y-1129131D01*
X2500274Y-1123797D01*
X2512974Y-1116787D01*
X2524709Y-1108303D01*
X2535275Y-1098346D01*
X2544521Y-1087170D01*
X2552293Y-1074928D01*
X2558491Y-1061821D01*
X2562961Y-1048003D01*
X2565654Y-1033780D01*
X2566568Y-1019302D01*
X2565654Y-1004824D01*
X2562961Y-990600D01*
X2558491Y-976782D01*
X2552293Y-963676D01*
X2544521Y-951433D01*
X2535275Y-940257D01*
X2524709Y-930300D01*
X2512974Y-921816D01*
X2500274Y-914806D01*
X2486812Y-909472D01*
X2472740Y-905865D01*
X2458364Y-904036D01*
X2443835Y-904036D01*
X2429459Y-905865D01*
X2415387Y-909472D01*
X2401925Y-914806D01*
X2389225Y-921816D01*
X2377490Y-930300D01*
X2366924Y-940257D01*
X2357678Y-951433D01*
X2349906Y-963676D01*
X2343708Y-976782D01*
X2339238Y-990600D01*
X2336546Y-1004824D01*
X2335631Y-1019302D01*
X2336546Y-1033780D01*
X2339238Y-1048003D01*
X2343708Y-1061821D01*
X2349906Y-1074928D01*
X2357678Y-1087170D01*
X2366924Y-1098346D01*
X2377490Y-1108303D01*
X2389225Y-1116787D01*
X2401925Y-1123797D01*
X2415387Y-1129131D01*
X2429459Y-1132738D01*
G37*
G36*
X2189835Y-1134567D02*
G01*
X2204364Y-1134567D01*
X2218740Y-1132738D01*
X2232812Y-1129131D01*
X2246274Y-1123797D01*
X2258974Y-1116787D01*
X2270709Y-1108303D01*
X2281275Y-1098346D01*
X2290521Y-1087170D01*
X2298293Y-1074928D01*
X2304491Y-1061821D01*
X2308961Y-1048003D01*
X2311654Y-1033780D01*
X2312568Y-1019302D01*
X2311654Y-1004824D01*
X2308961Y-990600D01*
X2304491Y-976782D01*
X2298293Y-963676D01*
X2290521Y-951433D01*
X2281275Y-940257D01*
X2270709Y-930300D01*
X2258974Y-921816D01*
X2246274Y-914806D01*
X2232812Y-909472D01*
X2218740Y-905865D01*
X2204364Y-904036D01*
X2189835Y-904036D01*
X2175459Y-905865D01*
X2161387Y-909472D01*
X2147925Y-914806D01*
X2135225Y-921816D01*
X2123490Y-930300D01*
X2112924Y-940257D01*
X2103678Y-951433D01*
X2095906Y-963676D01*
X2089708Y-976782D01*
X2085238Y-990600D01*
X2082546Y-1004824D01*
X2081631Y-1019302D01*
X2082546Y-1033780D01*
X2085238Y-1048003D01*
X2089708Y-1061821D01*
X2095906Y-1074928D01*
X2103678Y-1087170D01*
X2112924Y-1098346D01*
X2123490Y-1108303D01*
X2135225Y-1116787D01*
X2147925Y-1123797D01*
X2161387Y-1129131D01*
X2175459Y-1132738D01*
G37*
G36*
X3713835Y-1134567D02*
G01*
X3728364Y-1134567D01*
X3742740Y-1132738D01*
X3756812Y-1129131D01*
X3770274Y-1123797D01*
X3782974Y-1116787D01*
X3794709Y-1108303D01*
X3805275Y-1098346D01*
X3814521Y-1087170D01*
X3822293Y-1074928D01*
X3828491Y-1061821D01*
X3832961Y-1048003D01*
X3835654Y-1033780D01*
X3836568Y-1019302D01*
X3835654Y-1004824D01*
X3832961Y-990600D01*
X3828491Y-976782D01*
X3822293Y-963676D01*
X3814521Y-951433D01*
X3805275Y-940257D01*
X3794709Y-930300D01*
X3782974Y-921816D01*
X3770274Y-914806D01*
X3756812Y-909472D01*
X3742740Y-905865D01*
X3728364Y-904036D01*
X3713835Y-904036D01*
X3699459Y-905865D01*
X3685387Y-909472D01*
X3671925Y-914806D01*
X3659225Y-921816D01*
X3647490Y-930300D01*
X3636924Y-940257D01*
X3627678Y-951433D01*
X3619906Y-963676D01*
X3613708Y-976782D01*
X3609238Y-990600D01*
X3606546Y-1004824D01*
X3605631Y-1019302D01*
X3606546Y-1033780D01*
X3609238Y-1048003D01*
X3613708Y-1061821D01*
X3619906Y-1074928D01*
X3627678Y-1087170D01*
X3636924Y-1098346D01*
X3647490Y-1108303D01*
X3659225Y-1116787D01*
X3671925Y-1123797D01*
X3685387Y-1129131D01*
X3699459Y-1132738D01*
G37*
G36*
X4475835Y-1134567D02*
G01*
X4490364Y-1134567D01*
X4504740Y-1132738D01*
X4518812Y-1129131D01*
X4532274Y-1123797D01*
X4544974Y-1116787D01*
X4556709Y-1108303D01*
X4567275Y-1098346D01*
X4576521Y-1087170D01*
X4584293Y-1074928D01*
X4590491Y-1061821D01*
X4594961Y-1048003D01*
X4597654Y-1033780D01*
X4598568Y-1019302D01*
X4597654Y-1004824D01*
X4594961Y-990600D01*
X4590491Y-976782D01*
X4584293Y-963676D01*
X4576521Y-951433D01*
X4567275Y-940257D01*
X4556709Y-930300D01*
X4544974Y-921816D01*
X4532274Y-914806D01*
X4518812Y-909472D01*
X4504740Y-905865D01*
X4490364Y-904036D01*
X4475835Y-904036D01*
X4461459Y-905865D01*
X4447387Y-909472D01*
X4433925Y-914806D01*
X4421225Y-921816D01*
X4409490Y-930300D01*
X4398924Y-940257D01*
X4389678Y-951433D01*
X4381906Y-963676D01*
X4375708Y-976782D01*
X4371238Y-990600D01*
X4368546Y-1004824D01*
X4367631Y-1019302D01*
X4368546Y-1033780D01*
X4371238Y-1048003D01*
X4375708Y-1061821D01*
X4381906Y-1074928D01*
X4389678Y-1087170D01*
X4398924Y-1098346D01*
X4409490Y-1108303D01*
X4421225Y-1116787D01*
X4433925Y-1123797D01*
X4447387Y-1129131D01*
X4461459Y-1132738D01*
G37*
G36*
X3967835Y-1134567D02*
G01*
X3982364Y-1134567D01*
X3996740Y-1132738D01*
X4010812Y-1129131D01*
X4024274Y-1123797D01*
X4036974Y-1116787D01*
X4048709Y-1108303D01*
X4059275Y-1098346D01*
X4068521Y-1087170D01*
X4076293Y-1074928D01*
X4082491Y-1061821D01*
X4086961Y-1048003D01*
X4089654Y-1033780D01*
X4090568Y-1019302D01*
X4089654Y-1004824D01*
X4086961Y-990600D01*
X4082491Y-976782D01*
X4076293Y-963676D01*
X4068521Y-951433D01*
X4059275Y-940257D01*
X4048709Y-930300D01*
X4036974Y-921816D01*
X4024274Y-914806D01*
X4010812Y-909472D01*
X3996740Y-905865D01*
X3982364Y-904036D01*
X3967835Y-904036D01*
X3953459Y-905865D01*
X3939387Y-909472D01*
X3925925Y-914806D01*
X3913225Y-921816D01*
X3901490Y-930300D01*
X3890924Y-940257D01*
X3881678Y-951433D01*
X3873906Y-963676D01*
X3867708Y-976782D01*
X3863238Y-990600D01*
X3860546Y-1004824D01*
X3859631Y-1019302D01*
X3860546Y-1033780D01*
X3863238Y-1048003D01*
X3867708Y-1061821D01*
X3873906Y-1074928D01*
X3881678Y-1087170D01*
X3890924Y-1098346D01*
X3901490Y-1108303D01*
X3913225Y-1116787D01*
X3925925Y-1123797D01*
X3939387Y-1129131D01*
X3953459Y-1132738D01*
G37*
G36*
X2951835Y-1134567D02*
G01*
X2966364Y-1134567D01*
X2980740Y-1132738D01*
X2994812Y-1129131D01*
X3008274Y-1123797D01*
X3020974Y-1116787D01*
X3032709Y-1108303D01*
X3043275Y-1098346D01*
X3052521Y-1087170D01*
X3060293Y-1074928D01*
X3066491Y-1061821D01*
X3070961Y-1048003D01*
X3073654Y-1033780D01*
X3074568Y-1019302D01*
X3073654Y-1004824D01*
X3070961Y-990600D01*
X3066491Y-976782D01*
X3060293Y-963676D01*
X3052521Y-951433D01*
X3043275Y-940257D01*
X3032709Y-930300D01*
X3020974Y-921816D01*
X3008274Y-914806D01*
X2994812Y-909472D01*
X2980740Y-905865D01*
X2966364Y-904036D01*
X2951835Y-904036D01*
X2937459Y-905865D01*
X2923387Y-909472D01*
X2909925Y-914806D01*
X2897225Y-921816D01*
X2885490Y-930300D01*
X2874924Y-940257D01*
X2865678Y-951433D01*
X2857906Y-963676D01*
X2851708Y-976782D01*
X2847238Y-990600D01*
X2844546Y-1004824D01*
X2843631Y-1019302D01*
X2844546Y-1033780D01*
X2847238Y-1048003D01*
X2851708Y-1061821D01*
X2857906Y-1074928D01*
X2865678Y-1087170D01*
X2874924Y-1098346D01*
X2885490Y-1108303D01*
X2897225Y-1116787D01*
X2909925Y-1123797D01*
X2923387Y-1129131D01*
X2937459Y-1132738D01*
G37*
G36*
X4729835Y-1134567D02*
G01*
X4744364Y-1134567D01*
X4758740Y-1132738D01*
X4772812Y-1129131D01*
X4786274Y-1123797D01*
X4798974Y-1116787D01*
X4810709Y-1108303D01*
X4821275Y-1098346D01*
X4830521Y-1087170D01*
X4838293Y-1074928D01*
X4844491Y-1061821D01*
X4848961Y-1048003D01*
X4851654Y-1033780D01*
X4852568Y-1019302D01*
X4851654Y-1004824D01*
X4848961Y-990600D01*
X4844491Y-976782D01*
X4838293Y-963676D01*
X4830521Y-951433D01*
X4821275Y-940257D01*
X4810709Y-930300D01*
X4798974Y-921816D01*
X4786274Y-914806D01*
X4772812Y-909472D01*
X4758740Y-905865D01*
X4744364Y-904036D01*
X4729835Y-904036D01*
X4715459Y-905865D01*
X4701387Y-909472D01*
X4687925Y-914806D01*
X4675225Y-921816D01*
X4663490Y-930300D01*
X4652924Y-940257D01*
X4643678Y-951433D01*
X4635906Y-963676D01*
X4629708Y-976782D01*
X4625238Y-990600D01*
X4622546Y-1004824D01*
X4621631Y-1019302D01*
X4622546Y-1033780D01*
X4625238Y-1048003D01*
X4629708Y-1061821D01*
X4635906Y-1074928D01*
X4643678Y-1087170D01*
X4652924Y-1098346D01*
X4663490Y-1108303D01*
X4675225Y-1116787D01*
X4687925Y-1123797D01*
X4701387Y-1129131D01*
X4715459Y-1132738D01*
G37*
G36*
X3205835Y-1134567D02*
G01*
X3220364Y-1134567D01*
X3234740Y-1132738D01*
X3248812Y-1129131D01*
X3262274Y-1123797D01*
X3274974Y-1116787D01*
X3286709Y-1108303D01*
X3297275Y-1098346D01*
X3306521Y-1087170D01*
X3314293Y-1074928D01*
X3320491Y-1061821D01*
X3324961Y-1048003D01*
X3327654Y-1033780D01*
X3328568Y-1019302D01*
X3327654Y-1004824D01*
X3324961Y-990600D01*
X3320491Y-976782D01*
X3314293Y-963676D01*
X3306521Y-951433D01*
X3297275Y-940257D01*
X3286709Y-930300D01*
X3274974Y-921816D01*
X3262274Y-914806D01*
X3248812Y-909472D01*
X3234740Y-905865D01*
X3220364Y-904036D01*
X3205835Y-904036D01*
X3191459Y-905865D01*
X3177387Y-909472D01*
X3163925Y-914806D01*
X3151225Y-921816D01*
X3139490Y-930300D01*
X3128924Y-940257D01*
X3119678Y-951433D01*
X3111906Y-963676D01*
X3105708Y-976782D01*
X3101238Y-990600D01*
X3098546Y-1004824D01*
X3097631Y-1019302D01*
X3098546Y-1033780D01*
X3101238Y-1048003D01*
X3105708Y-1061821D01*
X3111906Y-1074928D01*
X3119678Y-1087170D01*
X3128924Y-1098346D01*
X3139490Y-1108303D01*
X3151225Y-1116787D01*
X3163925Y-1123797D01*
X3177387Y-1129131D01*
X3191459Y-1132738D01*
G37*
G36*
X2697835Y-1134567D02*
G01*
X2712364Y-1134567D01*
X2726740Y-1132738D01*
X2740812Y-1129131D01*
X2754274Y-1123797D01*
X2766974Y-1116787D01*
X2778709Y-1108303D01*
X2789275Y-1098346D01*
X2798521Y-1087170D01*
X2806293Y-1074928D01*
X2812491Y-1061821D01*
X2816961Y-1048003D01*
X2819654Y-1033780D01*
X2820568Y-1019302D01*
X2819654Y-1004824D01*
X2816961Y-990600D01*
X2812491Y-976782D01*
X2806293Y-963676D01*
X2798521Y-951433D01*
X2789275Y-940257D01*
X2778709Y-930300D01*
X2766974Y-921816D01*
X2754274Y-914806D01*
X2740812Y-909472D01*
X2726740Y-905865D01*
X2712364Y-904036D01*
X2697835Y-904036D01*
X2683459Y-905865D01*
X2669387Y-909472D01*
X2655925Y-914806D01*
X2643225Y-921816D01*
X2631490Y-930300D01*
X2620924Y-940257D01*
X2611678Y-951433D01*
X2603906Y-963676D01*
X2597708Y-976782D01*
X2593238Y-990600D01*
X2590546Y-1004824D01*
X2589631Y-1019302D01*
X2590546Y-1033780D01*
X2593238Y-1048003D01*
X2597708Y-1061821D01*
X2603906Y-1074928D01*
X2611678Y-1087170D01*
X2620924Y-1098346D01*
X2631490Y-1108303D01*
X2643225Y-1116787D01*
X2655925Y-1123797D01*
X2669387Y-1129131D01*
X2683459Y-1132738D01*
G37*
G36*
X4983835Y-1134567D02*
G01*
X4998364Y-1134567D01*
X5012740Y-1132738D01*
X5026812Y-1129131D01*
X5040274Y-1123797D01*
X5052974Y-1116787D01*
X5064709Y-1108303D01*
X5075275Y-1098346D01*
X5084521Y-1087170D01*
X5092293Y-1074928D01*
X5098491Y-1061821D01*
X5102961Y-1048003D01*
X5105654Y-1033780D01*
X5106568Y-1019302D01*
X5105654Y-1004824D01*
X5102961Y-990600D01*
X5098491Y-976782D01*
X5092293Y-963676D01*
X5084521Y-951433D01*
X5075275Y-940257D01*
X5064709Y-930300D01*
X5052974Y-921816D01*
X5040274Y-914806D01*
X5026812Y-909472D01*
X5012740Y-905865D01*
X4998364Y-904036D01*
X4983835Y-904036D01*
X4969459Y-905865D01*
X4955387Y-909472D01*
X4941925Y-914806D01*
X4929225Y-921816D01*
X4917490Y-930300D01*
X4906924Y-940257D01*
X4897678Y-951433D01*
X4889906Y-963676D01*
X4883708Y-976782D01*
X4879238Y-990600D01*
X4876546Y-1004824D01*
X4875631Y-1019302D01*
X4876546Y-1033780D01*
X4879238Y-1048003D01*
X4883708Y-1061821D01*
X4889906Y-1074928D01*
X4897678Y-1087170D01*
X4906924Y-1098346D01*
X4917490Y-1108303D01*
X4929225Y-1116787D01*
X4941925Y-1123797D01*
X4955387Y-1129131D01*
X4969459Y-1132738D01*
G37*
G36*
X1732940Y-1125880D02*
G01*
X1738274Y-1123797D01*
X1750974Y-1116787D01*
X1762709Y-1108303D01*
X1773275Y-1098346D01*
X1782521Y-1087170D01*
X1790293Y-1074928D01*
X1795830Y-1063142D01*
X1732940Y-1063142D01*
G37*
G36*
X1645259Y-1125880D02*
G01*
X1645259Y-1063142D01*
X1582369Y-1063142D01*
X1587906Y-1074928D01*
X1595678Y-1087170D01*
X1604924Y-1098346D01*
X1615490Y-1108303D01*
X1627225Y-1116787D01*
X1639925Y-1123797D01*
G37*
G36*
X1582369Y-975461D02*
G01*
X1645259Y-975461D01*
X1645259Y-912723D01*
X1639925Y-914806D01*
X1627225Y-921816D01*
X1615490Y-930300D01*
X1604924Y-940257D01*
X1595678Y-951433D01*
X1587906Y-963676D01*
G37*
G36*
X1732940Y-975461D02*
G01*
X1795830Y-975461D01*
X1790293Y-963676D01*
X1782521Y-951433D01*
X1773275Y-940257D01*
X1762709Y-930300D01*
X1750974Y-921816D01*
X1738274Y-914806D01*
X1732940Y-912723D01*
G37*
G36*
X373684Y-725932D02*
G01*
X373684Y-676402D01*
X324154Y-676402D01*
X327558Y-684987D01*
X333552Y-695401D01*
X341071Y-704799D01*
X349859Y-712978D01*
X359816Y-719734D01*
X370636Y-724966D01*
G37*
G36*
X426415Y-725932D02*
G01*
X429463Y-724966D01*
X440283Y-719734D01*
X450240Y-712978D01*
X459028Y-704799D01*
X466547Y-695401D01*
X472541Y-684987D01*
X475945Y-676402D01*
X426415Y-676402D01*
G37*
G36*
X7626350Y-725932D02*
G01*
X7629398Y-724966D01*
X7640218Y-719734D01*
X7650175Y-712978D01*
X7658963Y-704799D01*
X7666481Y-695401D01*
X7672476Y-684987D01*
X7675880Y-676402D01*
X7626350Y-676402D01*
G37*
G36*
X7573619Y-725932D02*
G01*
X7573619Y-676402D01*
X7524089Y-676402D01*
X7527493Y-684987D01*
X7533487Y-695401D01*
X7541006Y-704799D01*
X7549794Y-712978D01*
X7559751Y-719734D01*
X7570571Y-724966D01*
G37*
G36*
X195884Y-653694D02*
G01*
X195884Y-604215D01*
X146354Y-604215D01*
X149758Y-612749D01*
X155752Y-623163D01*
X163271Y-632612D01*
X172059Y-640791D01*
X182016Y-647547D01*
X192836Y-652780D01*
G37*
G36*
X248615Y-653694D02*
G01*
X251663Y-652780D01*
X262483Y-647547D01*
X272440Y-640791D01*
X281228Y-632612D01*
X288747Y-623163D01*
X294741Y-612749D01*
X298145Y-604215D01*
X248615Y-604215D01*
G37*
G36*
X551484Y-653694D02*
G01*
X551484Y-604215D01*
X501954Y-604215D01*
X505358Y-612749D01*
X511352Y-623163D01*
X518871Y-632612D01*
X527659Y-640791D01*
X537616Y-647547D01*
X548436Y-652780D01*
G37*
G36*
X604215Y-653694D02*
G01*
X607263Y-652780D01*
X618083Y-647547D01*
X628040Y-640791D01*
X636828Y-632612D01*
X644347Y-623163D01*
X650341Y-612749D01*
X653745Y-604215D01*
X604215Y-604215D01*
G37*
G36*
X7448550Y-653694D02*
G01*
X7451598Y-652780D01*
X7462418Y-647547D01*
X7472375Y-640791D01*
X7481163Y-632612D01*
X7488681Y-623163D01*
X7494676Y-612749D01*
X7498080Y-604215D01*
X7448550Y-604215D01*
G37*
G36*
X7395819Y-653694D02*
G01*
X7395819Y-604215D01*
X7346289Y-604215D01*
X7349693Y-612749D01*
X7355687Y-623163D01*
X7363206Y-632612D01*
X7371994Y-640791D01*
X7381951Y-647547D01*
X7392771Y-652780D01*
G37*
G36*
X7751419Y-653694D02*
G01*
X7751419Y-604215D01*
X7701889Y-604215D01*
X7705293Y-612749D01*
X7711287Y-623163D01*
X7718806Y-632612D01*
X7727594Y-640791D01*
X7737551Y-647547D01*
X7748371Y-652780D01*
G37*
G36*
X7804150Y-653694D02*
G01*
X7807198Y-652780D01*
X7818018Y-647547D01*
X7827975Y-640791D01*
X7836763Y-632612D01*
X7844281Y-623163D01*
X7850276Y-612749D01*
X7853680Y-604215D01*
X7804150Y-604215D01*
G37*
G36*
X1176528Y-629767D02*
G01*
X1363472Y-629767D01*
X1371854Y-628954D01*
X1379474Y-626668D01*
X1386433Y-622909D01*
X1392580Y-617880D01*
X1397609Y-611733D01*
X1401368Y-604774D01*
X1403654Y-597154D01*
X1404467Y-588772D01*
X1404467Y-401828D01*
X1403654Y-393446D01*
X1401368Y-385826D01*
X1397609Y-378866D01*
X1392580Y-372719D01*
X1386433Y-367690D01*
X1379474Y-363931D01*
X1371854Y-361645D01*
X1363472Y-360832D01*
X1176528Y-360832D01*
X1168146Y-361645D01*
X1160526Y-363931D01*
X1153566Y-367690D01*
X1147419Y-372719D01*
X1142390Y-378866D01*
X1138631Y-385826D01*
X1136345Y-393446D01*
X1135532Y-401828D01*
X1134414Y-405536D01*
X1132027Y-408533D01*
X1128674Y-410464D01*
X1124864Y-410972D01*
X1121156Y-410057D01*
X1118006Y-407822D01*
X1108303Y-397510D01*
X1096314Y-387451D01*
X1083259Y-378866D01*
X1069340Y-371856D01*
X1069340Y-441959D01*
X1125372Y-441959D01*
X1129233Y-442722D01*
X1132535Y-444957D01*
X1134719Y-448208D01*
X1135532Y-452120D01*
X1135532Y-538480D01*
X1134719Y-542391D01*
X1132535Y-545642D01*
X1129233Y-547878D01*
X1125372Y-548640D01*
X1069340Y-548640D01*
X1069340Y-618744D01*
X1083259Y-611733D01*
X1096314Y-603148D01*
X1108303Y-593090D01*
X1118006Y-582777D01*
X1121156Y-580542D01*
X1124864Y-579628D01*
X1128674Y-580136D01*
X1132027Y-582066D01*
X1134414Y-585063D01*
X1135532Y-588772D01*
X1136345Y-597154D01*
X1138631Y-604774D01*
X1142390Y-611733D01*
X1147419Y-617880D01*
X1153566Y-622909D01*
X1160526Y-626668D01*
X1168146Y-628954D01*
G37*
G36*
X1617776Y-629564D02*
G01*
X1633423Y-629564D01*
X1648968Y-627735D01*
X1664157Y-624128D01*
X1678838Y-618794D01*
X1692859Y-611733D01*
X1705914Y-603148D01*
X1717903Y-593090D01*
X1728622Y-581761D01*
X1737969Y-569214D01*
X1745792Y-555650D01*
X1751939Y-541274D01*
X1756460Y-526288D01*
X1759153Y-510895D01*
X1760067Y-495300D01*
X1759153Y-479704D01*
X1756460Y-464312D01*
X1751939Y-449326D01*
X1745792Y-434949D01*
X1737969Y-421385D01*
X1728622Y-408889D01*
X1717903Y-397510D01*
X1705914Y-387451D01*
X1692859Y-378866D01*
X1678838Y-371805D01*
X1664157Y-366471D01*
X1648968Y-362864D01*
X1633423Y-361035D01*
X1617776Y-361035D01*
X1602232Y-362864D01*
X1587042Y-366471D01*
X1572361Y-371805D01*
X1558340Y-378866D01*
X1545285Y-387451D01*
X1533296Y-397510D01*
X1522577Y-408889D01*
X1513230Y-421385D01*
X1505458Y-434949D01*
X1499260Y-449326D01*
X1494739Y-464312D01*
X1492046Y-479704D01*
X1491132Y-495300D01*
X1492046Y-510895D01*
X1494739Y-526288D01*
X1499260Y-541274D01*
X1505458Y-555650D01*
X1513230Y-569214D01*
X1522577Y-581761D01*
X1533296Y-593090D01*
X1545285Y-603148D01*
X1558340Y-611733D01*
X1572361Y-618794D01*
X1587042Y-624128D01*
X1602232Y-627735D01*
G37*
G36*
X2608376Y-629564D02*
G01*
X2624023Y-629564D01*
X2639568Y-627735D01*
X2654757Y-624128D01*
X2669438Y-618794D01*
X2683459Y-611733D01*
X2696514Y-603148D01*
X2708503Y-593090D01*
X2719222Y-581761D01*
X2728569Y-569214D01*
X2736392Y-555650D01*
X2742539Y-541274D01*
X2747060Y-526288D01*
X2749753Y-510895D01*
X2750667Y-495300D01*
X2749753Y-479704D01*
X2747060Y-464312D01*
X2742539Y-449326D01*
X2736392Y-434949D01*
X2728569Y-421385D01*
X2719222Y-408889D01*
X2708503Y-397510D01*
X2696514Y-387451D01*
X2683459Y-378866D01*
X2669438Y-371805D01*
X2654757Y-366471D01*
X2639568Y-362864D01*
X2624023Y-361035D01*
X2608376Y-361035D01*
X2592832Y-362864D01*
X2577642Y-366471D01*
X2562961Y-371805D01*
X2548940Y-378866D01*
X2535885Y-387451D01*
X2523896Y-397510D01*
X2513177Y-408889D01*
X2503830Y-421385D01*
X2496058Y-434949D01*
X2489860Y-449326D01*
X2485339Y-464312D01*
X2482646Y-479704D01*
X2481732Y-495300D01*
X2482646Y-510895D01*
X2485339Y-526288D01*
X2489860Y-541274D01*
X2496058Y-555650D01*
X2503830Y-569214D01*
X2513177Y-581761D01*
X2523896Y-593090D01*
X2535885Y-603148D01*
X2548940Y-611733D01*
X2562961Y-618794D01*
X2577642Y-624128D01*
X2592832Y-627735D01*
G37*
G36*
X3510076Y-629564D02*
G01*
X3525723Y-629564D01*
X3541268Y-627735D01*
X3556457Y-624128D01*
X3571138Y-618794D01*
X3585159Y-611733D01*
X3598214Y-603148D01*
X3610203Y-593090D01*
X3620922Y-581761D01*
X3630269Y-569214D01*
X3638092Y-555650D01*
X3644239Y-541274D01*
X3648760Y-526288D01*
X3651453Y-510895D01*
X3652367Y-495300D01*
X3651453Y-479704D01*
X3648760Y-464312D01*
X3644239Y-449326D01*
X3638092Y-434949D01*
X3630269Y-421385D01*
X3620922Y-408889D01*
X3610203Y-397510D01*
X3598214Y-387451D01*
X3585159Y-378866D01*
X3571138Y-371805D01*
X3556457Y-366471D01*
X3541268Y-362864D01*
X3525723Y-361035D01*
X3510076Y-361035D01*
X3494532Y-362864D01*
X3479342Y-366471D01*
X3464661Y-371805D01*
X3450640Y-378866D01*
X3437585Y-387451D01*
X3425596Y-397510D01*
X3414877Y-408889D01*
X3405530Y-421385D01*
X3397758Y-434949D01*
X3391560Y-449326D01*
X3387039Y-464312D01*
X3384346Y-479704D01*
X3383432Y-495300D01*
X3384346Y-510895D01*
X3387039Y-526288D01*
X3391560Y-541274D01*
X3397758Y-555650D01*
X3405530Y-569214D01*
X3414877Y-581761D01*
X3425596Y-593090D01*
X3437585Y-603148D01*
X3450640Y-611733D01*
X3464661Y-618794D01*
X3479342Y-624128D01*
X3494532Y-627735D01*
G37*
G36*
X4500676Y-629564D02*
G01*
X4516323Y-629564D01*
X4531868Y-627735D01*
X4547057Y-624128D01*
X4561738Y-618794D01*
X4575759Y-611733D01*
X4588814Y-603148D01*
X4600803Y-593090D01*
X4611522Y-581761D01*
X4620869Y-569214D01*
X4628692Y-555650D01*
X4634839Y-541274D01*
X4639360Y-526288D01*
X4642053Y-510895D01*
X4642967Y-495300D01*
X4642053Y-479704D01*
X4639360Y-464312D01*
X4634839Y-449326D01*
X4628692Y-434949D01*
X4620869Y-421385D01*
X4611522Y-408889D01*
X4600803Y-397510D01*
X4588814Y-387451D01*
X4575759Y-378866D01*
X4561738Y-371805D01*
X4547057Y-366471D01*
X4531868Y-362864D01*
X4516323Y-361035D01*
X4500676Y-361035D01*
X4485132Y-362864D01*
X4469942Y-366471D01*
X4455261Y-371805D01*
X4441240Y-378866D01*
X4428185Y-387451D01*
X4416196Y-397510D01*
X4405477Y-408889D01*
X4396130Y-421385D01*
X4388358Y-434949D01*
X4382160Y-449326D01*
X4377639Y-464312D01*
X4374946Y-479704D01*
X4374032Y-495300D01*
X4374946Y-510895D01*
X4377639Y-526288D01*
X4382160Y-541274D01*
X4388358Y-555650D01*
X4396130Y-569214D01*
X4405477Y-581761D01*
X4416196Y-593090D01*
X4428185Y-603148D01*
X4441240Y-611733D01*
X4455261Y-618794D01*
X4469942Y-624128D01*
X4485132Y-627735D01*
G37*
G36*
X324154Y-623722D02*
G01*
X373684Y-623722D01*
X373684Y-615086D01*
X374497Y-611124D01*
X376783Y-607822D01*
X380136Y-605637D01*
X384149Y-604926D01*
X405028Y-605485D01*
X415493Y-604723D01*
X419608Y-605282D01*
X423164Y-607415D01*
X425551Y-610819D01*
X426415Y-614883D01*
X426415Y-623722D01*
X475945Y-623722D01*
X472541Y-615137D01*
X467614Y-606552D01*
X466293Y-602386D01*
X466851Y-598068D01*
X469138Y-594360D01*
X472795Y-591972D01*
X482142Y-588467D01*
X484784Y-587146D01*
X487476Y-586333D01*
X489254Y-584911D01*
X499922Y-579628D01*
X516788Y-569163D01*
X532587Y-557123D01*
X535686Y-554228D01*
X538886Y-552196D01*
X542594Y-551484D01*
X551484Y-551484D01*
X551484Y-542493D01*
X552145Y-538886D01*
X554075Y-535736D01*
X560273Y-528726D01*
X571957Y-512673D01*
X582015Y-495554D01*
X584809Y-489508D01*
X586333Y-487426D01*
X586943Y-484885D01*
X590397Y-477520D01*
X591972Y-473049D01*
X594309Y-469290D01*
X598017Y-466902D01*
X602386Y-466293D01*
X606602Y-467664D01*
X615137Y-472541D01*
X623722Y-475945D01*
X623722Y-426415D01*
X614934Y-426415D01*
X610920Y-425602D01*
X607568Y-423265D01*
X605434Y-419760D01*
X604774Y-415747D01*
X605536Y-400050D01*
X604774Y-384352D01*
X605434Y-380339D01*
X607568Y-376834D01*
X610920Y-374497D01*
X614934Y-373684D01*
X623722Y-373684D01*
X623722Y-324154D01*
X615137Y-327558D01*
X606602Y-332435D01*
X602386Y-333806D01*
X598017Y-333197D01*
X594309Y-330809D01*
X591972Y-327050D01*
X590397Y-322580D01*
X586943Y-315214D01*
X586333Y-312674D01*
X584809Y-310591D01*
X582015Y-304546D01*
X571957Y-287426D01*
X560273Y-271373D01*
X554075Y-264363D01*
X552145Y-261213D01*
X551484Y-257606D01*
X551484Y-248615D01*
X542594Y-248615D01*
X538886Y-247904D01*
X535686Y-245871D01*
X532587Y-242976D01*
X516788Y-230936D01*
X499922Y-220471D01*
X489254Y-215188D01*
X487476Y-213766D01*
X484784Y-213004D01*
X482142Y-211632D01*
X472795Y-208127D01*
X469138Y-205740D01*
X466851Y-202031D01*
X466293Y-197713D01*
X467614Y-193548D01*
X472541Y-184962D01*
X475945Y-176377D01*
X426415Y-176377D01*
X426415Y-185216D01*
X425551Y-189280D01*
X423164Y-192684D01*
X419608Y-194818D01*
X415493Y-195376D01*
X405028Y-194614D01*
X384149Y-195173D01*
X380136Y-194462D01*
X376783Y-192278D01*
X374497Y-188976D01*
X373684Y-185013D01*
X373684Y-176377D01*
X324154Y-176377D01*
X327558Y-184962D01*
X332384Y-193344D01*
X333654Y-197358D01*
X333197Y-201574D01*
X331063Y-205232D01*
X327609Y-207721D01*
X314858Y-213258D01*
X312369Y-213766D01*
X308965Y-215849D01*
X291642Y-225501D01*
X275285Y-236778D01*
X264109Y-246227D01*
X261010Y-248005D01*
X257556Y-248615D01*
X248615Y-248615D01*
X248615Y-257251D01*
X248005Y-260654D01*
X246379Y-263601D01*
X233781Y-279247D01*
X222910Y-295859D01*
X215036Y-310845D01*
X213614Y-312521D01*
X213156Y-314706D01*
X207975Y-327507D01*
X205536Y-331063D01*
X201879Y-333248D01*
X197561Y-333756D01*
X193497Y-332435D01*
X184962Y-327558D01*
X176377Y-324154D01*
X176377Y-373684D01*
X185216Y-373684D01*
X189331Y-374548D01*
X192735Y-377037D01*
X194818Y-380644D01*
X195326Y-384860D01*
X194818Y-390144D01*
X194818Y-409956D01*
X195326Y-415239D01*
X194818Y-419455D01*
X192735Y-423062D01*
X189331Y-425551D01*
X185216Y-426415D01*
X176377Y-426415D01*
X176377Y-475945D01*
X184962Y-472541D01*
X193497Y-467664D01*
X197561Y-466343D01*
X201879Y-466851D01*
X205536Y-469036D01*
X207975Y-472592D01*
X213156Y-485393D01*
X213614Y-487578D01*
X215036Y-489254D01*
X222910Y-504240D01*
X233781Y-520852D01*
X246379Y-536498D01*
X248005Y-539445D01*
X248615Y-542848D01*
X248615Y-551484D01*
X257556Y-551484D01*
X261010Y-552094D01*
X264109Y-553872D01*
X275285Y-563321D01*
X291642Y-574598D01*
X308965Y-584250D01*
X312369Y-586333D01*
X314858Y-586841D01*
X327609Y-592378D01*
X331063Y-594868D01*
X333197Y-598525D01*
X333654Y-602742D01*
X332384Y-606755D01*
X327558Y-615137D01*
G37*
G36*
X7524089Y-623722D02*
G01*
X7573619Y-623722D01*
X7573619Y-615086D01*
X7574432Y-611124D01*
X7576718Y-607822D01*
X7580071Y-605637D01*
X7584084Y-604926D01*
X7604963Y-605485D01*
X7615428Y-604723D01*
X7619542Y-605282D01*
X7623098Y-607415D01*
X7625486Y-610819D01*
X7626350Y-614883D01*
X7626350Y-623722D01*
X7675880Y-623722D01*
X7672476Y-615137D01*
X7667548Y-606552D01*
X7666228Y-602386D01*
X7666786Y-598068D01*
X7669072Y-594360D01*
X7672730Y-591972D01*
X7682077Y-588467D01*
X7684719Y-587146D01*
X7687411Y-586333D01*
X7689189Y-584911D01*
X7699857Y-579628D01*
X7716723Y-569163D01*
X7732522Y-557123D01*
X7735620Y-554228D01*
X7738821Y-552196D01*
X7742529Y-551484D01*
X7751419Y-551484D01*
X7751419Y-542493D01*
X7752080Y-538886D01*
X7754010Y-535736D01*
X7760208Y-528726D01*
X7771892Y-512673D01*
X7781950Y-495554D01*
X7784744Y-489508D01*
X7786268Y-487426D01*
X7786878Y-484885D01*
X7790332Y-477520D01*
X7791907Y-473049D01*
X7794244Y-469290D01*
X7797952Y-466902D01*
X7802321Y-466293D01*
X7806537Y-467664D01*
X7815072Y-472541D01*
X7823657Y-475945D01*
X7823657Y-426415D01*
X7814868Y-426415D01*
X7810855Y-425602D01*
X7807502Y-423265D01*
X7805369Y-419760D01*
X7804708Y-415747D01*
X7805470Y-400050D01*
X7804708Y-384352D01*
X7805369Y-380339D01*
X7807502Y-376834D01*
X7810855Y-374497D01*
X7814868Y-373684D01*
X7823657Y-373684D01*
X7823657Y-324154D01*
X7815072Y-327558D01*
X7806537Y-332435D01*
X7802321Y-333806D01*
X7797952Y-333197D01*
X7794244Y-330809D01*
X7791907Y-327050D01*
X7790332Y-322580D01*
X7786878Y-315214D01*
X7786268Y-312674D01*
X7784744Y-310591D01*
X7781950Y-304546D01*
X7771892Y-287426D01*
X7760208Y-271373D01*
X7754010Y-264363D01*
X7752080Y-261213D01*
X7751419Y-257606D01*
X7751419Y-248615D01*
X7742529Y-248615D01*
X7738821Y-247904D01*
X7735620Y-245871D01*
X7732522Y-242976D01*
X7716723Y-230936D01*
X7699857Y-220471D01*
X7689189Y-215188D01*
X7687411Y-213766D01*
X7684719Y-213004D01*
X7682077Y-211632D01*
X7672730Y-208127D01*
X7669072Y-205740D01*
X7666786Y-202031D01*
X7666228Y-197713D01*
X7667548Y-193548D01*
X7672476Y-184962D01*
X7675880Y-176377D01*
X7626350Y-176377D01*
X7626350Y-185216D01*
X7625486Y-189280D01*
X7623098Y-192684D01*
X7619542Y-194818D01*
X7615428Y-195376D01*
X7604963Y-194614D01*
X7584084Y-195173D01*
X7580071Y-194462D01*
X7576718Y-192278D01*
X7574432Y-188976D01*
X7573619Y-185013D01*
X7573619Y-176377D01*
X7524089Y-176377D01*
X7527493Y-184962D01*
X7532319Y-193344D01*
X7533589Y-197358D01*
X7533131Y-201574D01*
X7530998Y-205232D01*
X7527544Y-207721D01*
X7514793Y-213258D01*
X7512303Y-213766D01*
X7508900Y-215849D01*
X7491577Y-225501D01*
X7475220Y-236778D01*
X7464044Y-246227D01*
X7460945Y-248005D01*
X7457490Y-248615D01*
X7448550Y-248615D01*
X7448550Y-257251D01*
X7447940Y-260654D01*
X7446314Y-263601D01*
X7433716Y-279247D01*
X7422845Y-295859D01*
X7414971Y-310845D01*
X7413548Y-312521D01*
X7413091Y-314706D01*
X7407909Y-327507D01*
X7405471Y-331063D01*
X7401814Y-333248D01*
X7397496Y-333756D01*
X7393431Y-332435D01*
X7384897Y-327558D01*
X7376312Y-324154D01*
X7376312Y-373684D01*
X7385151Y-373684D01*
X7389266Y-374548D01*
X7392670Y-377037D01*
X7394752Y-380644D01*
X7395260Y-384860D01*
X7394752Y-390144D01*
X7394752Y-409956D01*
X7395260Y-415239D01*
X7394752Y-419455D01*
X7392670Y-423062D01*
X7389266Y-425551D01*
X7385151Y-426415D01*
X7376312Y-426415D01*
X7376312Y-475945D01*
X7384897Y-472541D01*
X7393431Y-467664D01*
X7397496Y-466343D01*
X7401814Y-466851D01*
X7405471Y-469036D01*
X7407909Y-472592D01*
X7413091Y-485393D01*
X7413548Y-487578D01*
X7414971Y-489254D01*
X7422845Y-504240D01*
X7433716Y-520852D01*
X7446314Y-536498D01*
X7447940Y-539445D01*
X7448550Y-542848D01*
X7448550Y-551484D01*
X7457490Y-551484D01*
X7460945Y-552094D01*
X7464044Y-553872D01*
X7475220Y-563321D01*
X7491577Y-574598D01*
X7508900Y-584250D01*
X7512303Y-586333D01*
X7514793Y-586841D01*
X7527544Y-592378D01*
X7530998Y-594868D01*
X7533131Y-598525D01*
X7533589Y-602742D01*
X7532319Y-606755D01*
X7527493Y-615137D01*
G37*
G36*
X962660Y-618744D02*
G01*
X962660Y-548640D01*
X892810Y-548640D01*
X895858Y-555650D01*
X903630Y-569214D01*
X912977Y-581761D01*
X923696Y-593090D01*
X935685Y-603148D01*
X948740Y-611733D01*
G37*
G36*
X5422900Y-617067D02*
G01*
X5438495Y-616153D01*
X5453888Y-613460D01*
X5468874Y-608939D01*
X5483250Y-602792D01*
X5496814Y-594969D01*
X5509361Y-585622D01*
X5520690Y-574903D01*
X5530748Y-562914D01*
X5539333Y-549859D01*
X5546394Y-535838D01*
X5551728Y-521157D01*
X5555335Y-505968D01*
X5557164Y-490423D01*
X5557164Y-474776D01*
X5555335Y-459232D01*
X5551728Y-444042D01*
X5546394Y-429361D01*
X5539333Y-415340D01*
X5530748Y-402285D01*
X5520690Y-390296D01*
X5509361Y-379577D01*
X5496814Y-370230D01*
X5483250Y-362458D01*
X5468874Y-356260D01*
X5453888Y-351739D01*
X5438495Y-349046D01*
X5422900Y-348132D01*
X5407304Y-349046D01*
X5391912Y-351739D01*
X5376926Y-356260D01*
X5362549Y-362458D01*
X5348986Y-370230D01*
X5336489Y-379577D01*
X5325110Y-390296D01*
X5315051Y-402285D01*
X5306466Y-415340D01*
X5299405Y-429361D01*
X5294071Y-444042D01*
X5290464Y-459232D01*
X5288635Y-474776D01*
X5288635Y-490423D01*
X5290464Y-505968D01*
X5294071Y-521157D01*
X5299405Y-535838D01*
X5306466Y-549859D01*
X5315051Y-562914D01*
X5325110Y-574903D01*
X5336489Y-585622D01*
X5348986Y-594969D01*
X5362549Y-602792D01*
X5376926Y-608939D01*
X5391912Y-613460D01*
X5407304Y-616153D01*
G37*
G36*
X3144469Y-605739D02*
G01*
X3158591Y-605282D01*
X3172561Y-602996D01*
X3186176Y-598982D01*
X3199079Y-593242D01*
X3211220Y-585927D01*
X3222294Y-577088D01*
X3232150Y-566928D01*
X3240582Y-555599D01*
X3247542Y-543255D01*
X3252876Y-530098D01*
X3256432Y-516432D01*
X3258261Y-502361D01*
X3258261Y-488238D01*
X3256432Y-474167D01*
X3252876Y-460501D01*
X3247542Y-447344D01*
X3240582Y-435000D01*
X3232150Y-423672D01*
X3222294Y-413512D01*
X3211220Y-404672D01*
X3199079Y-397357D01*
X3186176Y-391617D01*
X3172561Y-387604D01*
X3158591Y-385318D01*
X3144469Y-384860D01*
X3130346Y-386232D01*
X3116580Y-389382D01*
X3103270Y-394258D01*
X3090722Y-400812D01*
X3079089Y-408940D01*
X3068624Y-418439D01*
X3059430Y-429209D01*
X3056585Y-433628D01*
X3053892Y-436422D01*
X3050336Y-437946D01*
X3046476Y-438099D01*
X3042818Y-436778D01*
X3039922Y-434136D01*
X3032150Y-423672D01*
X3022295Y-413512D01*
X3011220Y-404672D01*
X2999079Y-397357D01*
X2989326Y-393039D01*
X2989326Y-453948D01*
X3031490Y-453948D01*
X3035808Y-454914D01*
X3039313Y-457657D01*
X3041345Y-461670D01*
X3041446Y-466090D01*
X3038398Y-481177D01*
X3037535Y-495300D01*
X3038398Y-509422D01*
X3041446Y-524510D01*
X3041345Y-528929D01*
X3039313Y-532942D01*
X3035808Y-535686D01*
X3031490Y-536651D01*
X2989326Y-536651D01*
X2989326Y-597560D01*
X2999079Y-593242D01*
X3011220Y-585927D01*
X3022295Y-577088D01*
X3032150Y-566928D01*
X3039922Y-556463D01*
X3042818Y-553821D01*
X3046476Y-552500D01*
X3050336Y-552653D01*
X3053892Y-554177D01*
X3056585Y-556971D01*
X3059430Y-561390D01*
X3068624Y-572160D01*
X3079089Y-581660D01*
X3090722Y-589788D01*
X3103270Y-596341D01*
X3116580Y-601218D01*
X3130346Y-604367D01*
G37*
G36*
X5753100Y-604367D02*
G01*
X5768695Y-603453D01*
X5784088Y-600760D01*
X5799074Y-596239D01*
X5813450Y-590092D01*
X5827014Y-582269D01*
X5839561Y-572922D01*
X5850890Y-562203D01*
X5860948Y-550214D01*
X5869533Y-537159D01*
X5876594Y-523138D01*
X5881928Y-508457D01*
X5885535Y-493268D01*
X5887364Y-477723D01*
X5887364Y-462076D01*
X5885535Y-446532D01*
X5881928Y-431342D01*
X5876594Y-416661D01*
X5869533Y-402640D01*
X5860948Y-389585D01*
X5850890Y-377596D01*
X5839561Y-366877D01*
X5827014Y-357530D01*
X5813450Y-349758D01*
X5799074Y-343560D01*
X5784088Y-339039D01*
X5768695Y-336346D01*
X5753100Y-335432D01*
X5737504Y-336346D01*
X5722112Y-339039D01*
X5707126Y-343560D01*
X5692749Y-349758D01*
X5679186Y-357530D01*
X5666689Y-366877D01*
X5655310Y-377596D01*
X5645251Y-389585D01*
X5636666Y-402640D01*
X5629605Y-416661D01*
X5624271Y-431342D01*
X5620664Y-446532D01*
X5618835Y-462076D01*
X5618835Y-477723D01*
X5620664Y-493268D01*
X5624271Y-508457D01*
X5629605Y-523138D01*
X5636666Y-537159D01*
X5645251Y-550214D01*
X5655310Y-562203D01*
X5666689Y-572922D01*
X5679186Y-582269D01*
X5692749Y-590092D01*
X5707126Y-596239D01*
X5722112Y-600760D01*
X5737504Y-603453D01*
G37*
G36*
X7040676Y-604164D02*
G01*
X7056323Y-604164D01*
X7071868Y-602335D01*
X7087057Y-598728D01*
X7101738Y-593394D01*
X7115759Y-586333D01*
X7128814Y-577748D01*
X7140803Y-567690D01*
X7151522Y-556361D01*
X7160869Y-543814D01*
X7168692Y-530250D01*
X7174839Y-515874D01*
X7179360Y-500888D01*
X7182053Y-485495D01*
X7182967Y-469900D01*
X7182053Y-454304D01*
X7179360Y-438912D01*
X7174839Y-423926D01*
X7168692Y-409549D01*
X7160869Y-395986D01*
X7151522Y-383489D01*
X7140803Y-372110D01*
X7128814Y-362051D01*
X7115759Y-353466D01*
X7101738Y-346405D01*
X7087057Y-341071D01*
X7071868Y-337464D01*
X7056323Y-335635D01*
X7040676Y-335635D01*
X7025131Y-337464D01*
X7009942Y-341071D01*
X6995261Y-346405D01*
X6981240Y-353466D01*
X6968185Y-362051D01*
X6956196Y-372110D01*
X6945477Y-383489D01*
X6936130Y-395986D01*
X6928358Y-409549D01*
X6922160Y-423926D01*
X6917639Y-438912D01*
X6914946Y-454304D01*
X6914032Y-469900D01*
X6914946Y-485495D01*
X6917639Y-500888D01*
X6922160Y-515874D01*
X6928358Y-530250D01*
X6936130Y-543814D01*
X6945477Y-556361D01*
X6956196Y-567690D01*
X6968185Y-577748D01*
X6981240Y-586333D01*
X6995261Y-593394D01*
X7009942Y-598728D01*
X7025131Y-602335D01*
G37*
G36*
X2906674Y-597560D02*
G01*
X2906674Y-536651D01*
X2845562Y-536651D01*
X2851708Y-549503D01*
X2859430Y-561390D01*
X2868625Y-572160D01*
X2879090Y-581660D01*
X2890723Y-589788D01*
X2903270Y-596341D01*
G37*
G36*
X146354Y-551484D02*
G01*
X195884Y-551484D01*
X195884Y-502005D01*
X192836Y-502920D01*
X182016Y-508152D01*
X172059Y-514908D01*
X163271Y-523087D01*
X155752Y-532536D01*
X149758Y-542950D01*
G37*
G36*
X604215Y-551484D02*
G01*
X653745Y-551484D01*
X650341Y-542950D01*
X644347Y-532536D01*
X636828Y-523087D01*
X628040Y-514908D01*
X618083Y-508152D01*
X607263Y-502920D01*
X604215Y-502005D01*
G37*
G36*
X7804150Y-551484D02*
G01*
X7853680Y-551484D01*
X7850276Y-542950D01*
X7844281Y-532536D01*
X7836763Y-523087D01*
X7827975Y-514908D01*
X7818018Y-508152D01*
X7807198Y-502920D01*
X7804150Y-502005D01*
G37*
G36*
X7346289Y-551484D02*
G01*
X7395819Y-551484D01*
X7395819Y-502005D01*
X7392771Y-502920D01*
X7381951Y-508152D01*
X7371994Y-514908D01*
X7363206Y-523087D01*
X7355687Y-532536D01*
X7349693Y-542950D01*
G37*
G36*
X123698Y-475945D02*
G01*
X123698Y-426415D01*
X74168Y-426415D01*
X75133Y-429463D01*
X80365Y-440283D01*
X87122Y-450240D01*
X95300Y-459028D01*
X104698Y-466547D01*
X115112Y-472541D01*
G37*
G36*
X676402Y-475945D02*
G01*
X684987Y-472541D01*
X695401Y-466547D01*
X704799Y-459028D01*
X712978Y-450240D01*
X719734Y-440283D01*
X724966Y-429463D01*
X725932Y-426415D01*
X676402Y-426415D01*
G37*
G36*
X7323632Y-475945D02*
G01*
X7323632Y-426415D01*
X7274102Y-426415D01*
X7275068Y-429463D01*
X7280300Y-440283D01*
X7287056Y-450240D01*
X7295235Y-459028D01*
X7304633Y-466547D01*
X7315047Y-472541D01*
G37*
G36*
X7876336Y-475945D02*
G01*
X7884922Y-472541D01*
X7895336Y-466547D01*
X7904734Y-459028D01*
X7912912Y-450240D01*
X7919669Y-440283D01*
X7924901Y-429463D01*
X7925866Y-426415D01*
X7876336Y-426415D01*
G37*
G36*
X2845562Y-453948D02*
G01*
X2906674Y-453948D01*
X2906674Y-393039D01*
X2903270Y-394258D01*
X2890723Y-400812D01*
X2879090Y-408940D01*
X2868625Y-418439D01*
X2859430Y-429209D01*
X2851708Y-441096D01*
G37*
G36*
X892810Y-441959D02*
G01*
X962660Y-441959D01*
X962660Y-371856D01*
X948740Y-378866D01*
X935685Y-387451D01*
X923696Y-397510D01*
X912977Y-408889D01*
X903630Y-421385D01*
X895858Y-434949D01*
G37*
G36*
X676402Y-373684D02*
G01*
X725932Y-373684D01*
X724966Y-370636D01*
X719734Y-359816D01*
X712978Y-349859D01*
X704799Y-341071D01*
X695401Y-333552D01*
X684987Y-327558D01*
X676402Y-324154D01*
G37*
G36*
X7274102Y-373684D02*
G01*
X7323632Y-373684D01*
X7323632Y-324154D01*
X7315047Y-327558D01*
X7304633Y-333552D01*
X7295235Y-341071D01*
X7287056Y-349859D01*
X7280300Y-359816D01*
X7275068Y-370636D01*
G37*
G36*
X74168Y-373684D02*
G01*
X123698Y-373684D01*
X123698Y-324154D01*
X115112Y-327558D01*
X104698Y-333552D01*
X95300Y-341071D01*
X87122Y-349859D01*
X80365Y-359816D01*
X75133Y-370636D01*
G37*
G36*
X7876336Y-373684D02*
G01*
X7925866Y-373684D01*
X7924901Y-370636D01*
X7919669Y-359816D01*
X7912912Y-349859D01*
X7904734Y-341071D01*
X7895336Y-333552D01*
X7884922Y-327558D01*
X7876336Y-324154D01*
G37*
G36*
X604215Y-298094D02*
G01*
X607263Y-297180D01*
X618083Y-291947D01*
X628040Y-285191D01*
X636828Y-277012D01*
X644347Y-267563D01*
X650341Y-257149D01*
X653745Y-248615D01*
X604215Y-248615D01*
G37*
G36*
X195884Y-298094D02*
G01*
X195884Y-248615D01*
X146354Y-248615D01*
X149758Y-257149D01*
X155752Y-267563D01*
X163271Y-277012D01*
X172059Y-285191D01*
X182016Y-291947D01*
X192836Y-297180D01*
G37*
G36*
X7804150Y-298094D02*
G01*
X7807198Y-297180D01*
X7818018Y-291947D01*
X7827975Y-285191D01*
X7836763Y-277012D01*
X7844281Y-267563D01*
X7850276Y-257149D01*
X7853680Y-248615D01*
X7804150Y-248615D01*
G37*
G36*
X7395819Y-298094D02*
G01*
X7395819Y-248615D01*
X7346289Y-248615D01*
X7349693Y-257149D01*
X7355687Y-267563D01*
X7363206Y-277012D01*
X7371994Y-285191D01*
X7381951Y-291947D01*
X7392771Y-297180D01*
G37*
G36*
X146354Y-195884D02*
G01*
X195884Y-195884D01*
X195884Y-146405D01*
X192836Y-147320D01*
X182016Y-152552D01*
X172059Y-159308D01*
X163271Y-167487D01*
X155752Y-176936D01*
X149758Y-187350D01*
G37*
G36*
X501954Y-195884D02*
G01*
X551484Y-195884D01*
X551484Y-146405D01*
X548436Y-147320D01*
X537616Y-152552D01*
X527659Y-159308D01*
X518871Y-167487D01*
X511352Y-176936D01*
X505358Y-187350D01*
G37*
G36*
X604215Y-195884D02*
G01*
X653745Y-195884D01*
X650341Y-187350D01*
X644347Y-176936D01*
X636828Y-167487D01*
X628040Y-159308D01*
X618083Y-152552D01*
X607263Y-147320D01*
X604215Y-146405D01*
G37*
G36*
X248615Y-195884D02*
G01*
X298145Y-195884D01*
X294741Y-187350D01*
X288747Y-176936D01*
X281228Y-167487D01*
X272440Y-159308D01*
X262483Y-152552D01*
X251663Y-147320D01*
X248615Y-146405D01*
G37*
G36*
X7804150Y-195884D02*
G01*
X7853680Y-195884D01*
X7850276Y-187350D01*
X7844281Y-176936D01*
X7836763Y-167487D01*
X7827975Y-159308D01*
X7818018Y-152552D01*
X7807198Y-147320D01*
X7804150Y-146405D01*
G37*
G36*
X7701889Y-195884D02*
G01*
X7751419Y-195884D01*
X7751419Y-146405D01*
X7748371Y-147320D01*
X7737551Y-152552D01*
X7727594Y-159308D01*
X7718806Y-167487D01*
X7711287Y-176936D01*
X7705293Y-187350D01*
G37*
G36*
X7448550Y-195884D02*
G01*
X7498080Y-195884D01*
X7494676Y-187350D01*
X7488681Y-176936D01*
X7481163Y-167487D01*
X7472375Y-159308D01*
X7462418Y-152552D01*
X7451598Y-147320D01*
X7448550Y-146405D01*
G37*
G36*
X7346289Y-195884D02*
G01*
X7395819Y-195884D01*
X7395819Y-146405D01*
X7392771Y-147320D01*
X7381951Y-152552D01*
X7371994Y-159308D01*
X7363206Y-167487D01*
X7355687Y-176936D01*
X7349693Y-187350D01*
G37*
G36*
X324154Y-123698D02*
G01*
X373684Y-123698D01*
X373684Y-74168D01*
X370636Y-75133D01*
X359816Y-80365D01*
X349859Y-87122D01*
X341071Y-95300D01*
X333552Y-104698D01*
X327558Y-115112D01*
G37*
G36*
X426415Y-123698D02*
G01*
X475945Y-123698D01*
X472541Y-115112D01*
X466547Y-104698D01*
X459028Y-95300D01*
X450240Y-87122D01*
X440283Y-80365D01*
X429463Y-75133D01*
X426415Y-74168D01*
G37*
G36*
X7626350Y-123698D02*
G01*
X7675880Y-123698D01*
X7672476Y-115112D01*
X7666481Y-104698D01*
X7658963Y-95300D01*
X7650175Y-87122D01*
X7640218Y-80365D01*
X7629398Y-75133D01*
X7626350Y-74168D01*
G37*
G36*
X7524089Y-123698D02*
G01*
X7573619Y-123698D01*
X7573619Y-74168D01*
X7570571Y-75133D01*
X7559751Y-80365D01*
X7549794Y-87122D01*
X7541006Y-95300D01*
X7533487Y-104698D01*
X7527493Y-115112D01*
G37*

%LPD*%
G36*
X7130288Y-2515260D02*
G01*
X7126427Y-2514498D01*
X7123125Y-2512364D01*
X7120890Y-2509113D01*
X7120077Y-2505252D01*
X7123277Y-2492451D01*
X7125208Y-2488539D01*
X7128611Y-2485847D01*
X7132828Y-2484780D01*
X7137044Y-2485593D01*
X7140600Y-2488082D01*
X7142784Y-2491841D01*
X7143191Y-2496159D01*
X7142276Y-2504338D01*
X7141311Y-2507589D01*
X7139330Y-2510332D01*
X7137400Y-2512314D01*
X7134148Y-2514498D01*
G37*

%LPD*%
G36*
X1899513Y-3181756D02*
G01*
X1895652Y-3180943D01*
X1892401Y-3178708D01*
X1890268Y-3175406D01*
X1889506Y-3171545D01*
X1890268Y-3167684D01*
X1892503Y-3164433D01*
X3410915Y-1645970D01*
X3414217Y-1643786D01*
X3418078Y-1643024D01*
X4704943Y-1643024D01*
X4707788Y-1643430D01*
X4710430Y-1644599D01*
X4730750Y-1657654D01*
X4732172Y-1658823D01*
X4742637Y-1665884D01*
X4745532Y-1667256D01*
X4749038Y-1670100D01*
X4751019Y-1674164D01*
X4751019Y-1678635D01*
X4749038Y-1682699D01*
X4745532Y-1685543D01*
X4742637Y-1686915D01*
X4730750Y-1695145D01*
X4710430Y-1708200D01*
X4707788Y-1709369D01*
X4704943Y-1709775D01*
X3467303Y-1709775D01*
X3462274Y-1710029D01*
X3457448Y-1710639D01*
X3452723Y-1711706D01*
X3448100Y-1713128D01*
X3443630Y-1715007D01*
X3439363Y-1717243D01*
X3435248Y-1719834D01*
X3431438Y-1722780D01*
X3427679Y-1726184D01*
X1988464Y-3165449D01*
X1985721Y-3167430D01*
X1982470Y-3168345D01*
X1933651Y-3174238D01*
X1921510Y-3175863D01*
X1907387Y-3179470D01*
X1903425Y-3181045D01*
G37*

%LPD*%
G36*
X4185513Y-3181756D02*
G01*
X4181652Y-3180943D01*
X4178401Y-3178708D01*
X4176268Y-3175406D01*
X4175506Y-3171545D01*
X4176268Y-3167684D01*
X4178503Y-3164433D01*
X5163515Y-2179370D01*
X5166817Y-2177186D01*
X5170678Y-2176424D01*
X6640322Y-2176424D01*
X6644182Y-2177186D01*
X6647484Y-2179370D01*
X6885330Y-2417267D01*
X6887311Y-2420010D01*
X6888276Y-2423261D01*
X6892239Y-2457399D01*
X6891883Y-2461564D01*
X6889902Y-2465222D01*
X6886600Y-2467762D01*
X6882536Y-2468727D01*
X6878472Y-2468067D01*
X6874967Y-2465781D01*
X6643420Y-2234184D01*
X6639661Y-2230780D01*
X6635851Y-2227834D01*
X6631736Y-2225243D01*
X6627469Y-2223008D01*
X6622999Y-2221128D01*
X6618376Y-2219706D01*
X6613652Y-2218639D01*
X6608825Y-2218029D01*
X6603796Y-2217775D01*
X5245303Y-2217775D01*
X5240274Y-2218029D01*
X5235448Y-2218639D01*
X5230723Y-2219706D01*
X5226100Y-2221128D01*
X5221630Y-2223008D01*
X5217363Y-2225243D01*
X5213248Y-2227834D01*
X5209438Y-2230780D01*
X5205679Y-2234184D01*
X4274464Y-3165449D01*
X4271721Y-3167430D01*
X4268470Y-3168345D01*
X4219651Y-3174238D01*
X4207510Y-3175863D01*
X4193387Y-3179470D01*
X4189425Y-3181045D01*
G37*

%LPD*%
G36*
X2153513Y-3181756D02*
G01*
X2149652Y-3180943D01*
X2146401Y-3178708D01*
X2144268Y-3175406D01*
X2143506Y-3171545D01*
X2144268Y-3167684D01*
X2146503Y-3164433D01*
X3487115Y-1823770D01*
X3490417Y-1821586D01*
X3494278Y-1820824D01*
X4704943Y-1820824D01*
X4707788Y-1821230D01*
X4710430Y-1822399D01*
X4723434Y-1830781D01*
X4726482Y-1833829D01*
X4728006Y-1837893D01*
X4727702Y-1842211D01*
X4725619Y-1845970D01*
X4722164Y-1848561D01*
X4717948Y-1849475D01*
X3581603Y-1849475D01*
X3576574Y-1849729D01*
X3571748Y-1850339D01*
X3567023Y-1851406D01*
X3562400Y-1852828D01*
X3557930Y-1854707D01*
X3553663Y-1856943D01*
X3549548Y-1859534D01*
X3545738Y-1862480D01*
X3541979Y-1865884D01*
X2242464Y-3165449D01*
X2239721Y-3167430D01*
X2236470Y-3168345D01*
X2187651Y-3174238D01*
X2175510Y-3175863D01*
X2161387Y-3179470D01*
X2157425Y-3181045D01*
G37*

%LPD*%
G36*
X5313629Y-4252620D02*
G01*
X5309514Y-4251909D01*
X5306060Y-4249674D01*
X5265470Y-4209084D01*
X5263286Y-4205782D01*
X5262524Y-4201922D01*
X5262524Y-4116578D01*
X5263286Y-4112717D01*
X5265470Y-4109415D01*
X5340400Y-4034485D01*
X5343093Y-4032554D01*
X5346242Y-4031589D01*
X5349544Y-4031691D01*
X5360060Y-4033774D01*
X5363718Y-4035298D01*
X5366562Y-4038092D01*
X5368086Y-4041800D01*
X5368036Y-4045762D01*
X5366512Y-4049420D01*
X5363667Y-4052214D01*
X5355285Y-4057751D01*
X5343296Y-4067810D01*
X5332577Y-4079189D01*
X5323230Y-4091686D01*
X5315458Y-4105249D01*
X5309260Y-4119626D01*
X5304739Y-4134612D01*
X5302046Y-4150004D01*
X5301132Y-4165600D01*
X5302046Y-4181195D01*
X5304739Y-4196588D01*
X5309260Y-4211574D01*
X5315458Y-4225950D01*
X5322062Y-4237380D01*
X5323332Y-4241342D01*
X5322925Y-4245457D01*
X5320944Y-4249115D01*
X5317642Y-4251604D01*
G37*

%LPD*%
G36*
X6592062Y-4856327D02*
G01*
X6570827Y-4877562D01*
X6578752Y-4945075D01*
X6659575Y-4864252D01*
G37*
G36*
X6592062Y-5440527D02*
G01*
X6570827Y-5461762D01*
X6578752Y-5529275D01*
X6659575Y-5448452D01*
G37*
G36*
X6893814Y-5420766D02*
G01*
X6851650Y-5474106D01*
X6965950Y-5474106D01*
X6923786Y-5420766D01*
G37*
G36*
X6947662Y-2379827D02*
G01*
X6926427Y-2401062D01*
X6934352Y-2468575D01*
X7015175Y-2387752D01*
G37*
G36*
X7188352Y-2459024D02*
G01*
X7180427Y-2526538D01*
X7201662Y-2547772D01*
X7269175Y-2539847D01*
G37*
G36*
X6685940Y-4507179D02*
G01*
X6741414Y-4572965D01*
X6771386Y-4572965D01*
X6826859Y-4507179D01*
G37*
G36*
X5987440Y-532079D02*
G01*
X6042914Y-597865D01*
X6072886Y-597865D01*
X6128359Y-532079D01*
G37*
G36*
X2086457Y-4025341D02*
G01*
X2001621Y-4110177D01*
X2055368Y-4135628D01*
X2111959Y-4079087D01*
G37*
G36*
X4290669Y-3206496D02*
G01*
X4224426Y-3214471D01*
X4303928Y-3293973D01*
X4311904Y-3227730D01*
G37*
G36*
X4036669Y-3206496D02*
G01*
X3970426Y-3214471D01*
X4049928Y-3293973D01*
X4057904Y-3227730D01*
G37*
G36*
X2258669Y-3206496D02*
G01*
X2192426Y-3214471D01*
X2271928Y-3293973D01*
X2279904Y-3227730D01*
G37*
G36*
X2004669Y-3206496D02*
G01*
X1938426Y-3214471D01*
X2017928Y-3293973D01*
X2025904Y-3227730D01*
G37*
G36*
X1750669Y-3206496D02*
G01*
X1684426Y-3214471D01*
X1763928Y-3293973D01*
X1771904Y-3227730D01*
G37*
G36*
X5497779Y-4095089D02*
G01*
X5497779Y-4236110D01*
X5563565Y-4180586D01*
X5563565Y-4150614D01*
G37*
G36*
X5347208Y-3879596D02*
G01*
X5315864Y-3959301D01*
X5330850Y-3986733D01*
X5414924Y-4003294D01*
G37*
G36*
X6545376Y-3651707D02*
G01*
X6445707Y-3751376D01*
X6531457Y-3758692D01*
X6552692Y-3737457D01*
G37*
G36*
X6371742Y-3810508D02*
G01*
X6350508Y-3831742D01*
X6357823Y-3917492D01*
X6457492Y-3817823D01*
G37*
G36*
X5468670Y-2604109D02*
G01*
X5468670Y-2679090D01*
X5503672Y-2656586D01*
X5503672Y-2626614D01*
G37*
G36*
X4754829Y-1727809D02*
G01*
X4719828Y-1750314D01*
X4719828Y-1780286D01*
X4754829Y-1802790D01*
G37*
G36*
X4754829Y-1550009D02*
G01*
X4719828Y-1572514D01*
X4719828Y-1602486D01*
X4754829Y-1624990D01*
G37*
G36*
X6990029Y-3861409D02*
G01*
X6955028Y-3883914D01*
X6955028Y-3913886D01*
X6990029Y-3936390D01*
G37*
G36*
X3910685Y-4543602D02*
G01*
X3830828Y-4603597D01*
X3830828Y-4683607D01*
X3910685Y-4743602D01*
G37*
D10*
X5435600Y-3911600D02*
G01*
X5384800Y-3911600D01*
X5207000Y-4089400D01*
X5207000Y-4229100D01*
X5359400Y-4381500D01*
X6045200Y-4381500D01*
X6159500Y-4495800D01*
X6159500Y-5029200D01*
X6654800Y-5524500D01*
X5435600Y-4165600D02*
G01*
X6070600Y-4165600D01*
X6299200Y-4394200D01*
X6299200Y-4584700D01*
X6654800Y-4940300D01*
X6756400Y-4445000D02*
G01*
X6756400Y-4660900D01*
X6781800Y-4686300D01*
X6781800Y-5080000D01*
X6908800Y-5207000D01*
X6908800Y-5524500D01*
X2197100Y-3289300D02*
G01*
X3581400Y-1905000D01*
X5727700Y-1905000D01*
X6057900Y-1574800D01*
X6057900Y-469900D01*
X7264400Y-2463800D02*
G01*
X7112000Y-2616200D01*
X6946900Y-2616200D01*
X6604000Y-2273300D01*
X5245100Y-2273300D01*
X4229100Y-3289300D01*
X7010400Y-2463800D02*
G01*
X6667500Y-2120900D01*
X5143500Y-2120900D01*
X3975100Y-3289300D01*
X6451600Y-3657600D02*
G01*
X6692900Y-3898900D01*
X7023100Y-3898900D01*
X6451600Y-3657600D02*
G01*
X6451600Y-3606800D01*
X1689100Y-3289300D02*
G01*
X3390900Y-1587500D01*
X4787900Y-1587500D01*
X1943100Y-3289300D02*
G01*
X3467100Y-1765300D01*
X4787900Y-1765300D01*
X5435600Y-2641600D02*
G01*
X5778500Y-2641600D01*
X5892800Y-2755900D01*
X5892800Y-3352800D01*
X6451600Y-3911600D01*
D11*
X4010659Y-4643628D02*
G01*
X3830827Y-4643628D01*
X3479800Y-4292600D01*
X2268981Y-4292600D01*
X2006600Y-4030218D01*
D12*
G01*
X7594600Y-1231900D03*
G01*
X7594600Y-1485900D03*
D13*
G01*
X7594600Y-1739900D03*
D12*
G01*
X6946900Y-1231900D03*
G01*
X6946900Y-1485900D03*
D13*
G01*
X6946900Y-1739900D03*
D12*
G01*
X6311900Y-1231900D03*
G01*
X6311900Y-1485900D03*
D13*
G01*
X6311900Y-1739900D03*
D12*
G01*
X6654800Y-4940300D03*
G01*
X6908800Y-4940300D03*
D13*
G01*
X7162800Y-4940300D03*
D12*
G01*
X7416800Y-4940300D03*
G01*
X6654800Y-5524500D03*
G01*
X6908800Y-5524500D03*
D13*
G01*
X7162800Y-5524500D03*
D12*
G01*
X7416800Y-5524500D03*
G01*
X7010400Y-2463800D03*
G01*
X7264400Y-2463800D03*
D13*
G01*
X7518400Y-2463800D03*
D14*
G01*
X1348104Y-4880889D03*
D15*
G01*
X978103Y-4425899D03*
G01*
X1608073Y-4428362D03*
D11*
G01*
X7599984Y-150063D03*
G01*
X7599984Y-650062D03*
G01*
X7349997Y-400050D03*
G01*
X7849997Y-400050D03*
G01*
X7777784Y-222250D03*
G01*
X7422184Y-222250D03*
G01*
X7777784Y-577850D03*
G01*
X7422184Y-577850D03*
G01*
X400050Y-5850001D03*
G01*
X400050Y-6350000D03*
G01*
X150063Y-6099987D03*
G01*
X650062Y-6099987D03*
G01*
X577850Y-5922187D03*
G01*
X222250Y-5922187D03*
G01*
X577850Y-6277787D03*
G01*
X222250Y-6277787D03*
G01*
X7599984Y-5850001D03*
G01*
X7599984Y-6350000D03*
G01*
X7349997Y-6099987D03*
G01*
X7849997Y-6099987D03*
G01*
X7777784Y-5922187D03*
G01*
X7422184Y-5922187D03*
G01*
X7777784Y-6277787D03*
G01*
X7422184Y-6277787D03*
G01*
X400050Y-150063D03*
G01*
X400050Y-650062D03*
G01*
X150063Y-400050D03*
G01*
X650062Y-400050D03*
G01*
X577850Y-222250D03*
G01*
X222250Y-222250D03*
G01*
X577850Y-577850D03*
G01*
X222250Y-577850D03*
D16*
G01*
X1130300Y-5664200D03*
G01*
X3289300Y-5664200D03*
D17*
G01*
X5920689Y-4643605D03*
G01*
X5920689Y-4897605D03*
D19*
G01*
X5920689Y-5770399D03*
G01*
X5920689Y-6024399D03*
G01*
X4010710Y-6024399D03*
G01*
X4010710Y-5770399D03*
D17*
G01*
X4010710Y-4897605D03*
G01*
X4010710Y-4643605D03*
D20*
G01*
X4445000Y-4216400D03*
G01*
X3889400Y-4216400D03*
G01*
X368300Y-3733800D03*
G01*
X923899Y-3733800D03*
D21*
G01*
X5753100Y-1460500D03*
G01*
X5753100Y-469900D03*
G01*
X4508500Y-495300D03*
G01*
X3517900Y-495300D03*
G01*
X1625600Y-495300D03*
G01*
X2616200Y-495300D03*
G01*
X5422900Y-482600D03*
G01*
X5422900Y-1473200D03*
G01*
X7747000Y-4089400D03*
G01*
X6756400Y-4089400D03*
G01*
X6756400Y-4445000D03*
G01*
X7747000Y-4445000D03*
G01*
X6057900Y-469900D03*
G01*
X7048500Y-469900D03*
D22*
G01*
X3454400Y-4597400D03*
G01*
X2946400Y-4597400D03*
G01*
X2006638Y-4030332D03*
G01*
X2514561Y-4021467D03*
D23*
G01*
X4991100Y-1019302D03*
G01*
X4737100Y-1019302D03*
G01*
X4483100Y-1019302D03*
G01*
X4229100Y-1019302D03*
G01*
X3975100Y-1019302D03*
G01*
X3721100Y-1019302D03*
G01*
X3467100Y-1019302D03*
G01*
X3213100Y-1019302D03*
G01*
X2959100Y-1019302D03*
G01*
X2705100Y-1019302D03*
G01*
X2451100Y-1019302D03*
G01*
X2197100Y-1019302D03*
G01*
X1943100Y-1019302D03*
G01*
X1689100Y-1019302D03*
G01*
X1435100Y-1019302D03*
G01*
X1181100Y-1019302D03*
G01*
X927100Y-1019302D03*
G01*
X673100Y-1019302D03*
G01*
X419100Y-1019302D03*
G01*
X4991100Y-3289300D03*
G01*
X4737100Y-3289300D03*
G01*
X4483100Y-3289300D03*
G01*
X4229100Y-3289300D03*
G01*
X3975100Y-3289300D03*
G01*
X3721100Y-3289300D03*
G01*
X3467100Y-3289300D03*
G01*
X3213100Y-3289300D03*
G01*
X2959100Y-3289300D03*
G01*
X2705100Y-3289300D03*
G01*
X2451100Y-3289300D03*
G01*
X2197100Y-3289300D03*
G01*
X1943100Y-3289300D03*
G01*
X1689100Y-3289300D03*
G01*
X1435100Y-3289300D03*
G01*
X1181100Y-3289300D03*
G01*
X927100Y-3289300D03*
G01*
X673100Y-3289300D03*
G01*
X419100Y-3289300D03*
D21*
G01*
X5435600Y-4165600D03*
G01*
X5435600Y-3911600D03*
G01*
X5435600Y-3657600D03*
G01*
X5435600Y-3403600D03*
G01*
X5435600Y-3149600D03*
G01*
X5435600Y-2895600D03*
G01*
X6451600Y-2895600D03*
G01*
X6451600Y-3149600D03*
G01*
X6451600Y-3403600D03*
G01*
X6451600Y-3657600D03*
G01*
X6451600Y-3911600D03*
G01*
X6451600Y-4165600D03*
D24*
G01*
X3147999Y-495300D03*
G01*
X2948000Y-495300D03*
D21*
G01*
X1016000Y-495300D03*
D25*
G01*
X1270000Y-495300D03*
D26*
G01*
X7264400Y-3022600D03*
D27*
G01*
X7391400Y-3022600D03*
G01*
X7518400Y-3022600D03*
D21*
G01*
X7302500Y-3568700D03*
D25*
G01*
X7556500Y-3568700D03*
D27*
G01*
X5435600Y-2641600D03*
G01*
X4787900Y-1765300D03*
G01*
X4787900Y-1587500D03*
G01*
X7023100Y-3898900D03*
M02*
