G04 Layer: BottomSilkscreenLayer*
G04 EasyEDA v6.5.57, 2026-08-22 12:43:49*
G04 d5c1c7cf252c4259a0bd62168661ddc8,73b71592eb5d450092b712373c5d4a3f,10*
G04 Gerber Generator version 0.2*
G04 Scale: 100 percent, Rotated: No, Reflected: No *
G04 Dimensions in millimeters *
G04 leading zeros omitted , absolute positions ,4 integer and 5 decimal *
%FSLAX45Y45*%
%MOMM*%

%ADD10C,0.0133*%

%LPD*%
G36*
X1736902Y-1753819D02*
G01*
X1736902Y-1802180D01*
X1778000Y-1802180D01*
X1778000Y-1753819D01*
G37*
G36*
X2649423Y-1769922D02*
G01*
X2648661Y-1883460D01*
X2600604Y-1831543D01*
X2550363Y-1831543D01*
X2610408Y-1889658D01*
X2548178Y-1987296D01*
X2548178Y-1988515D01*
X2592933Y-1988515D01*
X2635453Y-1915617D01*
X2649372Y-1927656D01*
X2649372Y-1988515D01*
X2690469Y-1988515D01*
X2690469Y-1769922D01*
G37*
G36*
X3215640Y-1776933D02*
G01*
X3132785Y-1778355D01*
X3109569Y-1784604D01*
X3095244Y-1793798D01*
X3086912Y-1805889D01*
X3081832Y-1820519D01*
X3080308Y-1847342D01*
X3081962Y-1852828D01*
X3123946Y-1852828D01*
X3123946Y-1829358D01*
X3129889Y-1819097D01*
X3141573Y-1813255D01*
X3174593Y-1812137D01*
X3174593Y-1869998D01*
X3140100Y-1868932D01*
X3129940Y-1862988D01*
X3123946Y-1852828D01*
X3081962Y-1852828D01*
X3086455Y-1867560D01*
X3096818Y-1879701D01*
X3112058Y-1887270D01*
X3118815Y-1887270D01*
X3118815Y-1890217D01*
X3114751Y-1890217D01*
X3105556Y-1900682D01*
X3063087Y-1985568D01*
X3063087Y-1988515D01*
X3106572Y-1988515D01*
X3139795Y-1919732D01*
X3148685Y-1908911D01*
X3158337Y-1904898D01*
X3174542Y-1904898D01*
X3175304Y-1987804D01*
X3215640Y-1988616D01*
G37*
G36*
X2207818Y-1778660D02*
G01*
X2207818Y-1988515D01*
X2244496Y-1988515D01*
X2245258Y-1825853D01*
X2265832Y-1911502D01*
X2298801Y-1912315D01*
X2320544Y-1824939D01*
X2320798Y-1988515D01*
X2357475Y-1988515D01*
X2357475Y-1778711D01*
X2307793Y-1778711D01*
X2303729Y-1792681D01*
X2283460Y-1868220D01*
X2281885Y-1868170D01*
X2258161Y-1779473D01*
G37*
G36*
X1579930Y-1786077D02*
G01*
X1579930Y-1830019D01*
X1526387Y-1830832D01*
X1525574Y-1862328D01*
X1580083Y-1862328D01*
X1579219Y-1947367D01*
X1571091Y-1955495D01*
X1526387Y-1956968D01*
X1525574Y-1988870D01*
X1585112Y-1987397D01*
X1601876Y-1982266D01*
X1613509Y-1972310D01*
X1620215Y-1955495D01*
X1621231Y-1862328D01*
X1660652Y-1862328D01*
X1660652Y-1830070D01*
X1621028Y-1830070D01*
X1621028Y-1786077D01*
G37*
G36*
X3948429Y-1813966D02*
G01*
X3937508Y-1816963D01*
X3928516Y-1824583D01*
X3923893Y-1833524D01*
X3923893Y-1847545D01*
X3929481Y-1857197D01*
X3939438Y-1863902D01*
X3945483Y-1865020D01*
X3985107Y-1868220D01*
X4006900Y-1874418D01*
X4029456Y-1883918D01*
X4054500Y-1900275D01*
X4077258Y-1921764D01*
X4093972Y-1944217D01*
X4107789Y-1972462D01*
X4116730Y-2006854D01*
X4117086Y-2046478D01*
X4113072Y-2068474D01*
X4105910Y-2090470D01*
X4092549Y-2118918D01*
X4093870Y-2134768D01*
X4100677Y-2144369D01*
X4112717Y-2149805D01*
X4123842Y-2149906D01*
X4135221Y-2144064D01*
X4140962Y-2135936D01*
X4149801Y-2118258D01*
X4157370Y-2099716D01*
X4164533Y-2072843D01*
X4168292Y-2050846D01*
X4168292Y-2008327D01*
X4163060Y-1978964D01*
X4153001Y-1947773D01*
X4137355Y-1916988D01*
X4118762Y-1890979D01*
X4089247Y-1861515D01*
X4059682Y-1841855D01*
X4032046Y-1828952D01*
X4003751Y-1819910D01*
X3976268Y-1815439D01*
X3964533Y-1814423D01*
G37*
G36*
X2778353Y-1827123D02*
G01*
X2755747Y-1831797D01*
X2739593Y-1839620D01*
X2738780Y-1875536D01*
X2740660Y-1875536D01*
X2757220Y-1865375D01*
X2776220Y-1860550D01*
X2794762Y-1862023D01*
X2808528Y-1869135D01*
X2818079Y-1881632D01*
X2822803Y-1897938D01*
X2821584Y-1929079D01*
X2814726Y-1944624D01*
X2802839Y-1954834D01*
X2788208Y-1959152D01*
X2774696Y-1959152D01*
X2757220Y-1954682D01*
X2740660Y-1944522D01*
X2738882Y-1944522D01*
X2738882Y-1979777D01*
X2748432Y-1985670D01*
X2768955Y-1992172D01*
X2804160Y-1992172D01*
X2818841Y-1988057D01*
X2833319Y-1980844D01*
X2850032Y-1964943D01*
X2858922Y-1948180D01*
X2864154Y-1929079D01*
X2864307Y-1892401D01*
X2860243Y-1876298D01*
X2852013Y-1857908D01*
X2835198Y-1840280D01*
X2817368Y-1831492D01*
X2798267Y-1827377D01*
G37*
G36*
X1910588Y-1827123D02*
G01*
X1895195Y-1831695D01*
X1883410Y-1842363D01*
X1877314Y-1854301D01*
X1873046Y-1868932D01*
X1871522Y-1988515D01*
X1912721Y-1988515D01*
X1913737Y-1877771D01*
X1918411Y-1867509D01*
X1924761Y-1861870D01*
X1940102Y-1860702D01*
X1949856Y-1866849D01*
X1957730Y-1883613D01*
X1958644Y-1988515D01*
X1999538Y-1988515D01*
X1999538Y-1831543D01*
X1958593Y-1831543D01*
X1957730Y-1852828D01*
X1949602Y-1839061D01*
X1940153Y-1832356D01*
X1925421Y-1827225D01*
G37*
G36*
X1209548Y-1827123D02*
G01*
X1186078Y-1828292D01*
X1169212Y-1834692D01*
X1169212Y-1874012D01*
X1179880Y-1866747D01*
X1194663Y-1862328D01*
X1214120Y-1862328D01*
X1229512Y-1866900D01*
X1241552Y-1877771D01*
X1247698Y-1890979D01*
X1248613Y-1988515D01*
X1289507Y-1988515D01*
X1289507Y-1831543D01*
X1248410Y-1831543D01*
X1248410Y-1854200D01*
X1243584Y-1846935D01*
X1234490Y-1837232D01*
X1225448Y-1831593D01*
G37*
G36*
X2102916Y-1827174D02*
G01*
X2083054Y-1831390D01*
X2065629Y-1840738D01*
X2051151Y-1856028D01*
X2042007Y-1874062D01*
X2037283Y-1893874D01*
X2037379Y-1909927D01*
X2077262Y-1909927D01*
X2080158Y-1887067D01*
X2086203Y-1873402D01*
X2092655Y-1866341D01*
X2104390Y-1860956D01*
X2114651Y-1860956D01*
X2126386Y-1866341D01*
X2132888Y-1873402D01*
X2138934Y-1887067D01*
X2141829Y-1909927D01*
X2138934Y-1932939D01*
X2132838Y-1946706D01*
X2124964Y-1955139D01*
X2115515Y-1959152D01*
X2103577Y-1959152D01*
X2094128Y-1955139D01*
X2086203Y-1946706D01*
X2080158Y-1932939D01*
X2077262Y-1909927D01*
X2037379Y-1909927D01*
X2037435Y-1927656D01*
X2043480Y-1950669D01*
X2052167Y-1965756D01*
X2067102Y-1980793D01*
X2081580Y-1988667D01*
X2101494Y-1992884D01*
X2119071Y-1992884D01*
X2137867Y-1988413D01*
X2152599Y-1980438D01*
X2166772Y-1966061D01*
X2175611Y-1950669D01*
X2181707Y-1927656D01*
X2181809Y-1893874D01*
X2177084Y-1874062D01*
X2167890Y-1855927D01*
X2152091Y-1839366D01*
X2135632Y-1831289D01*
X2117598Y-1827377D01*
G37*
G36*
X1410512Y-1827174D02*
G01*
X1390650Y-1831390D01*
X1373174Y-1840738D01*
X1358696Y-1856028D01*
X1349603Y-1874062D01*
X1344879Y-1893874D01*
X1344927Y-1909927D01*
X1384858Y-1909927D01*
X1387754Y-1887067D01*
X1393799Y-1873402D01*
X1400251Y-1866341D01*
X1411986Y-1860956D01*
X1422247Y-1860956D01*
X1433982Y-1866341D01*
X1440434Y-1873402D01*
X1446530Y-1887067D01*
X1449425Y-1909927D01*
X1446530Y-1932939D01*
X1440434Y-1946706D01*
X1432509Y-1955139D01*
X1423060Y-1959152D01*
X1411173Y-1959152D01*
X1401724Y-1955139D01*
X1393799Y-1946706D01*
X1387703Y-1932939D01*
X1384858Y-1909927D01*
X1344927Y-1909927D01*
X1344980Y-1927656D01*
X1351076Y-1950669D01*
X1359712Y-1965756D01*
X1374698Y-1980793D01*
X1389176Y-1988667D01*
X1409039Y-1992884D01*
X1426667Y-1992884D01*
X1445463Y-1988413D01*
X1460195Y-1980438D01*
X1474368Y-1966061D01*
X1483156Y-1950669D01*
X1489303Y-1927656D01*
X1489354Y-1893874D01*
X1484630Y-1874062D01*
X1475486Y-1855927D01*
X1459687Y-1839366D01*
X1443177Y-1831289D01*
X1425194Y-1827377D01*
G37*
G36*
X2986074Y-1827377D02*
G01*
X2953816Y-1828546D01*
X2936189Y-1833118D01*
X2923082Y-1841144D01*
X2913532Y-1853692D01*
X2906979Y-1873351D01*
X2906610Y-1915160D01*
X2977286Y-1915464D01*
X2990037Y-1918004D01*
X2998927Y-1923237D01*
X3004413Y-1933448D01*
X3004413Y-1947722D01*
X2999689Y-1957679D01*
X2989630Y-1963877D01*
X2972866Y-1963826D01*
X2965145Y-1960829D01*
X2954883Y-1951837D01*
X2948381Y-1936750D01*
X2946755Y-1915160D01*
X2906610Y-1915160D01*
X2905912Y-1988515D01*
X2947212Y-1988515D01*
X2947212Y-1972259D01*
X2958185Y-1983079D01*
X2976270Y-1991614D01*
X2996895Y-1993341D01*
X3015284Y-1989683D01*
X3029254Y-1982622D01*
X3039567Y-1972310D01*
X3045206Y-1961286D01*
X3048812Y-1942896D01*
X3047085Y-1924710D01*
X3042412Y-1911096D01*
X3031947Y-1898904D01*
X3016859Y-1891233D01*
X3002229Y-1887016D01*
X2947212Y-1885492D01*
X2947212Y-1871268D01*
X2956001Y-1861210D01*
X2969006Y-1857959D01*
X2985465Y-1857959D01*
X3008071Y-1862582D01*
X3032302Y-1872945D01*
X3032302Y-1837842D01*
X3013608Y-1831695D01*
G37*
G36*
X1817065Y-1830019D02*
G01*
X1737664Y-1830832D01*
X1736902Y-1956155D01*
X1686306Y-1956968D01*
X1685493Y-1988515D01*
X1829358Y-1988515D01*
X1829358Y-1956257D01*
X1778000Y-1956257D01*
X1778000Y-1862328D01*
X1819097Y-1862328D01*
X1819097Y-1832051D01*
G37*
G36*
X3944874Y-1982622D02*
G01*
X3928567Y-1988718D01*
X3914546Y-2002434D01*
X3907332Y-2017115D01*
X3907332Y-2042058D01*
X3914495Y-2056638D01*
X3926484Y-2068626D01*
X3941064Y-2075789D01*
X3966006Y-2075789D01*
X3980687Y-2068626D01*
X3994404Y-2054555D01*
X4000500Y-2038299D01*
X4000500Y-2020874D01*
X3994150Y-2004009D01*
X3979113Y-1988972D01*
X3963060Y-1982774D01*
G37*
G36*
X3637127Y-2004669D02*
G01*
X3627221Y-2011324D01*
X3620515Y-2021230D01*
X3620515Y-2055723D01*
X3625189Y-2091943D01*
X3635044Y-2130501D01*
X3645763Y-2159406D01*
X3662984Y-2194763D01*
X3686251Y-2229815D01*
X3709822Y-2257958D01*
X3738473Y-2285034D01*
X3765296Y-2305253D01*
X3789070Y-2319985D01*
X3820769Y-2335885D01*
X3847185Y-2346045D01*
X3873601Y-2353614D01*
X3902913Y-2359507D01*
X3936237Y-2362962D01*
X3996842Y-2361387D01*
X4040174Y-2352294D01*
X4076039Y-2340356D01*
X4099661Y-2329332D01*
X4106113Y-2321153D01*
X4109110Y-2309926D01*
X4105656Y-2296261D01*
X4095851Y-2286406D01*
X4083862Y-2283206D01*
X4074566Y-2285187D01*
X4051096Y-2294788D01*
X4023207Y-2303627D01*
X3999737Y-2308250D01*
X3974896Y-2311247D01*
X3926382Y-2311247D01*
X3897071Y-2306828D01*
X3864000Y-2297988D01*
X3842054Y-2289302D01*
X3815689Y-2276043D01*
X3795928Y-2263952D01*
X3774744Y-2248306D01*
X3751834Y-2227427D01*
X3730345Y-2203450D01*
X3708704Y-2171141D01*
X3692651Y-2138883D01*
X3680561Y-2103729D01*
X3673195Y-2067306D01*
X3670655Y-2022602D01*
X3666286Y-2014169D01*
X3659428Y-2007971D01*
X3653536Y-2004720D01*
G37*
G36*
X3156966Y-2158695D02*
G01*
X3156966Y-2248916D01*
X3170885Y-2248916D01*
X3170986Y-2218080D01*
X3177540Y-2205685D01*
X3186176Y-2201214D01*
X3195828Y-2201316D01*
X3204006Y-2206345D01*
X3210458Y-2219553D01*
X3210458Y-2248916D01*
X3203956Y-2262174D01*
X3195370Y-2267254D01*
X3186176Y-2267254D01*
X3177235Y-2262632D01*
X3170885Y-2248916D01*
X3156966Y-2248916D01*
X3156966Y-2276043D01*
X3170174Y-2276043D01*
X3170174Y-2266492D01*
X3176778Y-2274519D01*
X3187700Y-2278989D01*
X3198164Y-2278989D01*
X3209036Y-2274417D01*
X3218586Y-2265172D01*
X3224123Y-2250389D01*
X3226104Y-2232761D01*
X3222853Y-2212644D01*
X3217367Y-2201976D01*
X3209036Y-2194052D01*
X3198164Y-2189480D01*
X3187039Y-2189530D01*
X3174949Y-2195017D01*
X3170174Y-2201875D01*
X3170174Y-2158695D01*
G37*
G36*
X2892907Y-2158695D02*
G01*
X2892907Y-2176272D01*
X2906115Y-2176272D01*
X2906115Y-2158695D01*
G37*
G36*
X2485085Y-2158695D02*
G01*
X2485085Y-2245969D01*
X2499868Y-2245969D01*
X2499868Y-2222500D01*
X2504897Y-2207920D01*
X2514854Y-2201214D01*
X2523947Y-2201418D01*
X2529840Y-2203805D01*
X2534869Y-2209393D01*
X2539390Y-2220214D01*
X2539288Y-2248916D01*
X2533904Y-2260650D01*
X2527757Y-2266137D01*
X2515158Y-2267508D01*
X2504897Y-2260549D01*
X2499868Y-2245969D01*
X2485085Y-2245969D01*
X2485085Y-2276043D01*
X2499766Y-2276043D01*
X2499766Y-2266594D01*
X2504541Y-2273452D01*
X2516632Y-2278888D01*
X2527706Y-2278989D01*
X2538577Y-2274417D01*
X2545537Y-2267966D01*
X2553157Y-2253284D01*
X2554376Y-2221890D01*
X2549347Y-2205939D01*
X2540304Y-2194966D01*
X2528366Y-2189530D01*
X2516632Y-2189530D01*
X2504541Y-2195017D01*
X2499766Y-2201875D01*
X2499766Y-2158695D01*
G37*
G36*
X2344267Y-2158695D02*
G01*
X2344267Y-2201468D01*
X2335479Y-2192629D01*
X2324760Y-2189124D01*
X2310079Y-2190851D01*
X2299208Y-2198420D01*
X2291588Y-2212390D01*
X2288032Y-2233777D01*
X2290378Y-2248916D01*
X2303932Y-2248916D01*
X2303983Y-2219553D01*
X2310841Y-2205532D01*
X2319172Y-2201214D01*
X2328875Y-2201214D01*
X2338070Y-2206853D01*
X2343505Y-2221026D01*
X2343454Y-2248916D01*
X2337206Y-2262632D01*
X2328265Y-2267254D01*
X2319172Y-2267254D01*
X2310841Y-2262936D01*
X2303932Y-2248916D01*
X2290378Y-2248916D01*
X2291435Y-2255570D01*
X2297074Y-2266492D01*
X2306828Y-2275636D01*
X2316835Y-2278989D01*
X2326741Y-2278989D01*
X2336901Y-2274722D01*
X2344267Y-2266797D01*
X2344267Y-2276043D01*
X2357475Y-2276043D01*
X2357475Y-2158695D01*
G37*
G36*
X1742795Y-2158695D02*
G01*
X1742795Y-2176272D01*
X1756003Y-2176272D01*
X1756003Y-2158695D01*
G37*
G36*
X1557934Y-2158695D02*
G01*
X1557782Y-2250389D01*
X1554276Y-2260549D01*
X1546961Y-2264257D01*
X1527149Y-2264308D01*
X1527149Y-2276043D01*
X1551482Y-2276043D01*
X1564386Y-2269439D01*
X1570431Y-2257704D01*
X1571294Y-2168956D01*
X1593138Y-2168956D01*
X1593138Y-2158695D01*
G37*
G36*
X2074316Y-2162759D02*
G01*
X2035454Y-2164029D01*
X2019960Y-2170836D01*
X2008530Y-2183790D01*
X2003552Y-2197557D01*
X2002710Y-2219553D01*
X2017572Y-2219553D01*
X2020062Y-2194966D01*
X2026666Y-2182876D01*
X2039772Y-2176272D01*
X2059686Y-2176272D01*
X2059686Y-2262835D01*
X2039772Y-2262835D01*
X2026666Y-2256231D01*
X2020011Y-2244090D01*
X2017572Y-2219553D01*
X2002710Y-2219553D01*
X2002129Y-2234793D01*
X2008276Y-2255012D01*
X2019960Y-2268321D01*
X2035454Y-2275128D01*
X2074316Y-2276398D01*
G37*
G36*
X3002229Y-2188108D02*
G01*
X2979623Y-2189378D01*
X2969209Y-2193747D01*
X2969209Y-2205634D01*
X2971393Y-2205532D01*
X2987548Y-2199843D01*
X3000756Y-2199741D01*
X3010865Y-2204872D01*
X3013049Y-2213254D01*
X3010306Y-2220417D01*
X3000756Y-2224328D01*
X2977286Y-2229459D01*
X2966262Y-2240483D01*
X2965805Y-2250389D01*
X2966262Y-2256231D01*
X2967786Y-2262784D01*
X2976829Y-2273096D01*
X2991713Y-2277516D01*
X3006039Y-2277516D01*
X3026410Y-2272893D01*
X3026410Y-2258110D01*
X3021279Y-2260346D01*
X3006598Y-2265680D01*
X2992577Y-2265781D01*
X2982925Y-2261717D01*
X2979115Y-2252624D01*
X2980994Y-2245258D01*
X2987700Y-2240889D01*
X3012490Y-2234742D01*
X3022346Y-2228646D01*
X3026410Y-2218944D01*
X3026410Y-2206752D01*
X3020263Y-2195830D01*
X3011220Y-2190496D01*
G37*
G36*
X2708808Y-2189378D02*
G01*
X2691892Y-2190394D01*
X2683865Y-2196388D01*
X2678023Y-2206345D01*
X2677058Y-2276043D01*
X2690469Y-2276043D01*
X2690622Y-2216607D01*
X2694127Y-2206345D01*
X2705252Y-2200910D01*
X2715310Y-2202789D01*
X2723692Y-2209850D01*
X2727147Y-2221382D01*
X2727147Y-2276043D01*
X2741879Y-2276043D01*
X2741066Y-2191715D01*
X2727147Y-2190800D01*
X2727147Y-2203094D01*
X2720797Y-2194966D01*
G37*
G36*
X1846224Y-2189378D02*
G01*
X1829307Y-2190394D01*
X1821281Y-2196388D01*
X1815388Y-2206345D01*
X1814474Y-2276043D01*
X1827885Y-2276043D01*
X1828038Y-2216607D01*
X1831543Y-2206345D01*
X1842668Y-2200910D01*
X1852726Y-2202789D01*
X1861108Y-2209850D01*
X1864563Y-2221382D01*
X1864563Y-2276043D01*
X1879244Y-2276043D01*
X1878482Y-2191715D01*
X1864563Y-2190800D01*
X1864563Y-2203094D01*
X1858162Y-2194966D01*
G37*
G36*
X2803144Y-2189480D02*
G01*
X2793085Y-2194255D01*
X2787294Y-2201621D01*
X2787294Y-2192426D01*
X2772613Y-2192426D01*
X2772613Y-2243023D01*
X2787294Y-2243023D01*
X2787294Y-2222500D01*
X2790393Y-2211324D01*
X2798368Y-2202383D01*
X2811475Y-2201265D01*
X2817368Y-2203805D01*
X2822397Y-2209393D01*
X2826918Y-2220214D01*
X2826816Y-2245969D01*
X2821432Y-2257704D01*
X2815183Y-2263292D01*
X2800553Y-2264664D01*
X2790545Y-2254656D01*
X2787294Y-2243023D01*
X2772613Y-2243023D01*
X2772613Y-2272690D01*
X2775610Y-2288438D01*
X2780944Y-2298801D01*
X2793390Y-2307590D01*
X2817215Y-2308656D01*
X2832760Y-2305151D01*
X2832760Y-2290876D01*
X2819146Y-2296922D01*
X2802686Y-2298242D01*
X2792425Y-2292908D01*
X2787294Y-2282647D01*
X2787294Y-2263597D01*
X2793898Y-2271572D01*
X2804820Y-2276043D01*
X2815894Y-2275992D01*
X2827832Y-2270556D01*
X2837230Y-2259177D01*
X2841548Y-2244699D01*
X2841548Y-2220823D01*
X2837230Y-2206345D01*
X2827832Y-2194966D01*
X2815894Y-2189530D01*
G37*
G36*
X2604973Y-2189480D02*
G01*
X2593797Y-2192832D01*
X2583738Y-2201164D01*
X2577236Y-2214981D01*
X2576388Y-2226157D01*
X2590698Y-2226157D01*
X2590698Y-2216607D01*
X2595829Y-2206345D01*
X2606141Y-2201214D01*
X2616403Y-2201316D01*
X2625191Y-2205228D01*
X2631592Y-2212238D01*
X2634742Y-2220468D01*
X2634742Y-2226157D01*
X2576388Y-2226157D01*
X2575610Y-2236419D01*
X2636215Y-2236419D01*
X2636164Y-2241550D01*
X2633116Y-2252675D01*
X2624175Y-2262784D01*
X2611983Y-2266086D01*
X2596896Y-2264562D01*
X2578963Y-2257298D01*
X2578963Y-2271217D01*
X2595829Y-2276754D01*
X2622245Y-2276754D01*
X2637688Y-2268220D01*
X2645105Y-2258466D01*
X2649016Y-2247392D01*
X2651099Y-2232406D01*
X2648000Y-2215743D01*
X2642920Y-2205024D01*
X2631440Y-2193848D01*
X2617825Y-2189683D01*
G37*
G36*
X1647037Y-2189480D02*
G01*
X1635861Y-2192832D01*
X1625803Y-2201164D01*
X1619300Y-2214981D01*
X1618453Y-2226157D01*
X1632762Y-2226157D01*
X1632762Y-2216607D01*
X1637893Y-2206345D01*
X1648155Y-2201214D01*
X1658416Y-2201316D01*
X1667256Y-2205228D01*
X1673656Y-2212238D01*
X1676755Y-2220468D01*
X1676755Y-2226157D01*
X1618453Y-2226157D01*
X1617675Y-2236419D01*
X1678228Y-2236419D01*
X1678228Y-2241550D01*
X1675130Y-2252675D01*
X1666239Y-2262784D01*
X1654048Y-2266086D01*
X1638960Y-2264562D01*
X1621028Y-2257298D01*
X1621028Y-2271217D01*
X1637893Y-2276754D01*
X1664309Y-2276754D01*
X1679702Y-2268220D01*
X1687169Y-2258466D01*
X1691081Y-2247392D01*
X1693113Y-2232406D01*
X1690065Y-2215743D01*
X1684934Y-2205024D01*
X1673453Y-2193848D01*
X1659889Y-2189683D01*
G37*
G36*
X3084372Y-2189530D02*
G01*
X3073146Y-2192629D01*
X3061766Y-2202942D01*
X3055772Y-2218944D01*
X3055772Y-2226157D01*
X3068624Y-2226157D01*
X3070656Y-2215286D01*
X3074974Y-2206955D01*
X3084372Y-2201214D01*
X3096107Y-2201316D01*
X3104896Y-2205228D01*
X3109925Y-2210866D01*
X3114446Y-2221687D01*
X3114446Y-2226157D01*
X3055772Y-2226157D01*
X3055772Y-2236419D01*
X3116122Y-2236419D01*
X3114192Y-2245969D01*
X3111296Y-2255418D01*
X3102762Y-2262581D01*
X3091992Y-2266137D01*
X3074314Y-2264308D01*
X3058668Y-2257145D01*
X3058668Y-2271522D01*
X3074111Y-2276195D01*
X3093313Y-2277872D01*
X3110128Y-2272995D01*
X3121964Y-2262327D01*
X3128365Y-2250389D01*
X3128365Y-2216607D01*
X3122879Y-2206345D01*
X3113684Y-2196592D01*
X3104896Y-2191969D01*
X3097580Y-2189734D01*
G37*
G36*
X1937156Y-2189530D02*
G01*
X1926539Y-2192477D01*
X1916633Y-2199030D01*
X1910029Y-2212136D01*
X1910029Y-2235098D01*
X1922983Y-2235098D01*
X1924862Y-2232050D01*
X1944522Y-2232355D01*
X1955241Y-2234488D01*
X1962404Y-2239162D01*
X1966112Y-2248103D01*
X1964283Y-2257958D01*
X1957019Y-2264816D01*
X1941575Y-2266035D01*
X1931365Y-2259126D01*
X1924964Y-2249627D01*
X1922983Y-2235098D01*
X1910029Y-2235098D01*
X1910029Y-2276043D01*
X1923237Y-2276043D01*
X1923237Y-2263952D01*
X1934768Y-2274366D01*
X1945995Y-2277516D01*
X1956511Y-2277516D01*
X1966518Y-2274163D01*
X1974951Y-2266492D01*
X1978964Y-2257044D01*
X1978964Y-2243937D01*
X1975866Y-2235708D01*
X1969465Y-2228799D01*
X1957730Y-2222703D01*
X1923237Y-2221382D01*
X1923237Y-2215794D01*
X1927504Y-2205532D01*
X1938629Y-2200859D01*
X1957730Y-2202484D01*
X1973275Y-2208580D01*
X1972360Y-2194610D01*
X1953310Y-2189683D01*
G37*
G36*
X2267966Y-2190800D02*
G01*
X2254046Y-2191715D01*
X2228900Y-2257552D01*
X2206040Y-2196084D01*
X2203297Y-2190953D01*
X2190242Y-2190953D01*
X2190242Y-2192934D01*
X2228392Y-2292604D01*
X2234539Y-2302560D01*
X2245868Y-2308301D01*
X2262124Y-2308301D01*
X2262124Y-2296566D01*
X2249576Y-2296566D01*
X2243531Y-2292350D01*
X2235809Y-2275179D01*
X2267966Y-2193442D01*
G37*
G36*
X2892958Y-2192426D02*
G01*
X2892196Y-2265019D01*
X2865018Y-2265883D01*
X2865018Y-2276043D01*
X2934004Y-2276043D01*
X2934004Y-2265781D01*
X2906115Y-2265781D01*
X2906115Y-2202688D01*
X2928112Y-2202688D01*
X2928112Y-2192426D01*
G37*
G36*
X1742795Y-2192426D02*
G01*
X1742795Y-2265781D01*
X1714906Y-2265781D01*
X1714906Y-2276043D01*
X1783892Y-2276043D01*
X1783892Y-2265883D01*
X1756714Y-2265019D01*
X1755952Y-2202688D01*
X1778000Y-2202688D01*
X1778000Y-2192426D01*
G37*
G36*
X2904134Y-2439416D02*
G01*
X2897733Y-2439771D01*
X2891790Y-2440787D01*
X2886303Y-2442514D01*
X2881325Y-2444800D01*
X2876854Y-2447747D01*
X2872892Y-2451252D01*
X2869488Y-2455316D01*
X2866644Y-2459888D01*
X2864408Y-2464968D01*
X2862783Y-2470505D01*
X2861818Y-2476500D01*
X2861462Y-2482900D01*
X2861614Y-2487422D01*
X2862173Y-2491943D01*
X2863037Y-2496464D01*
X2864205Y-2501036D01*
X2865729Y-2505608D01*
X2869641Y-2514803D01*
X2872079Y-2519476D01*
X2877769Y-2528824D01*
X2884576Y-2538323D01*
X2892399Y-2547924D01*
X2901188Y-2557729D01*
X2910890Y-2567635D01*
X2921406Y-2577795D01*
X2909062Y-2576880D01*
X2897022Y-2576576D01*
X2854350Y-2576576D01*
X2854350Y-2590800D01*
X2946400Y-2590800D01*
X2946400Y-2580843D01*
X2932938Y-2568752D01*
X2921000Y-2557272D01*
X2910586Y-2546400D01*
X2901696Y-2536088D01*
X2894228Y-2526334D01*
X2888183Y-2516987D01*
X2883560Y-2508097D01*
X2880309Y-2499563D01*
X2879140Y-2495448D01*
X2877870Y-2487422D01*
X2877718Y-2483510D01*
X2878124Y-2477160D01*
X2879394Y-2471369D01*
X2881579Y-2466136D01*
X2884627Y-2461615D01*
X2888538Y-2457907D01*
X2893415Y-2455164D01*
X2899206Y-2453436D01*
X2905963Y-2452827D01*
X2910535Y-2453182D01*
X2914954Y-2454198D01*
X2919171Y-2455773D01*
X2923235Y-2457958D01*
X2927146Y-2460548D01*
X2930855Y-2463546D01*
X2934360Y-2466898D01*
X2937662Y-2470505D01*
X2947416Y-2461158D01*
X2942894Y-2456484D01*
X2938221Y-2452268D01*
X2933344Y-2448560D01*
X2928213Y-2445410D01*
X2922778Y-2442870D01*
X2916986Y-2440990D01*
X2910789Y-2439822D01*
G37*
G36*
X3054096Y-2442057D02*
G01*
X3054096Y-2576982D01*
X3023819Y-2576982D01*
X3023819Y-2590800D01*
X3103880Y-2590800D01*
X3070555Y-2576982D01*
X3070555Y-2462987D01*
X3096768Y-2462987D01*
X3096768Y-2452217D01*
X3087776Y-2450338D01*
X3079800Y-2448052D01*
X3072841Y-2445308D01*
X3066694Y-2442057D01*
G37*
G36*
X3124606Y-2481072D02*
G01*
X3163824Y-2590800D01*
X3183128Y-2590800D01*
X3223158Y-2481072D01*
X3205886Y-2481072D01*
X3184144Y-2544876D01*
X3173780Y-2577185D01*
X3172968Y-2577185D01*
X3167684Y-2561183D01*
X3162604Y-2544876D01*
X3140862Y-2481072D01*
G37*
G36*
X2983179Y-2567025D02*
G01*
X2978302Y-2567990D01*
X2974289Y-2570683D01*
X2971596Y-2574899D01*
X2970580Y-2580436D01*
X2971596Y-2585720D01*
X2974289Y-2589834D01*
X2978302Y-2592476D01*
X2983179Y-2593441D01*
X2987954Y-2592476D01*
X2991916Y-2589834D01*
X2994558Y-2585720D01*
X2995574Y-2580436D01*
X2994558Y-2574899D01*
X2991916Y-2570683D01*
X2987954Y-2567990D01*
G37*
M02*
