G04 Layer: BottomLayer*
G04 EasyEDA v6.5.57, 2026-08-28 16:13:09*
G04 5e0a217a3e3e4001abd121eb4e72d0a8,73b71592eb5d450092b712373c5d4a3f,10*
G04 Gerber Generator version 0.2*
G04 Scale: 100 percent, Rotated: No, Reflected: No *
G04 Dimensions in millimeters *
G04 leading zeros omitted , absolute positions ,4 integer and 5 decimal *
%FSLAX45Y45*%
%MOMM*%

%ADD10C,0.3000*%
%ADD11C,2.0000*%
%ADD12C,1.5240*%
%ADD13R,1.5240X1.5240*%
%ADD14C,1.6000*%
%ADD15C,0.0124*%
%ADD16R,1.6000X1.6000*%
%ADD17O,4.199992X1.999996*%
%ADD18O,1.999996X4.199992*%
%ADD19C,1.8796*%
%ADD20R,1.8796X1.8796*%
%ADD21R,2.0000X2.0000*%
%ADD22C,0.8000*%
%ADD23C,0.6200*%

%LPD*%
G36*
X400253Y-4574082D02*
G01*
X374142Y-4573168D01*
X348742Y-4570526D01*
X323545Y-4566158D01*
X298754Y-4560112D01*
X274421Y-4552340D01*
X250647Y-4542942D01*
X227584Y-4531969D01*
X205333Y-4519422D01*
X183997Y-4505401D01*
X163677Y-4489958D01*
X144424Y-4473143D01*
X126390Y-4455058D01*
X109626Y-4435805D01*
X94183Y-4415434D01*
X80213Y-4394047D01*
X67716Y-4371797D01*
X56743Y-4348683D01*
X47396Y-4324908D01*
X39725Y-4300575D01*
X33680Y-4275734D01*
X29362Y-4250588D01*
X26771Y-4225188D01*
X25908Y-4199382D01*
X25908Y-400608D01*
X26822Y-374142D01*
X29464Y-348742D01*
X33832Y-323545D01*
X39878Y-298754D01*
X47650Y-274421D01*
X57048Y-250647D01*
X68021Y-227584D01*
X80568Y-205333D01*
X94589Y-183997D01*
X110032Y-163677D01*
X126847Y-144424D01*
X144932Y-126390D01*
X164185Y-109626D01*
X184556Y-94183D01*
X205943Y-80213D01*
X228193Y-67716D01*
X251307Y-56743D01*
X275082Y-47396D01*
X299415Y-39725D01*
X324256Y-33680D01*
X349402Y-29362D01*
X374802Y-26771D01*
X400608Y-25908D01*
X7099401Y-25908D01*
X7125868Y-26822D01*
X7151268Y-29464D01*
X7176414Y-33832D01*
X7201255Y-39878D01*
X7225588Y-47650D01*
X7249312Y-57048D01*
X7272375Y-68021D01*
X7294625Y-80568D01*
X7315962Y-94589D01*
X7336332Y-110032D01*
X7355535Y-126847D01*
X7373620Y-144932D01*
X7390384Y-164185D01*
X7405776Y-184556D01*
X7419797Y-205943D01*
X7432294Y-228193D01*
X7443216Y-251307D01*
X7452563Y-275082D01*
X7460284Y-299415D01*
X7466279Y-324256D01*
X7470597Y-349402D01*
X7473188Y-374802D01*
X7474102Y-400608D01*
X7474102Y-4199382D01*
X7473137Y-4225848D01*
X7470495Y-4251248D01*
X7466177Y-4276445D01*
X7460081Y-4301236D01*
X7452359Y-4325569D01*
X7442962Y-4349343D01*
X7431938Y-4372406D01*
X7419390Y-4394657D01*
X7405370Y-4415993D01*
X7389926Y-4436313D01*
X7373112Y-4455566D01*
X7355027Y-4473600D01*
X7335774Y-4490364D01*
X7315403Y-4505807D01*
X7294067Y-4519777D01*
X7271766Y-4532274D01*
X7248702Y-4543247D01*
X7224928Y-4552594D01*
X7200595Y-4560265D01*
X7175753Y-4566310D01*
X7150557Y-4570628D01*
X7125157Y-4573219D01*
X7099401Y-4574082D01*
G37*

%LPC*%
G36*
X373634Y-4525873D02*
G01*
X373634Y-4476343D01*
X324104Y-4476343D01*
X327507Y-4484928D01*
X333502Y-4495342D01*
X341020Y-4504740D01*
X349808Y-4512919D01*
X359765Y-4519676D01*
X370586Y-4524908D01*
G37*
G36*
X426364Y-4525873D02*
G01*
X429412Y-4524908D01*
X440232Y-4519676D01*
X450189Y-4512919D01*
X458978Y-4504740D01*
X466496Y-4495342D01*
X472490Y-4484928D01*
X475894Y-4476343D01*
X426364Y-4476343D01*
G37*
G36*
X7073646Y-4525873D02*
G01*
X7073646Y-4476343D01*
X7024116Y-4476343D01*
X7027468Y-4484928D01*
X7033514Y-4495342D01*
X7040981Y-4504740D01*
X7049820Y-4512919D01*
X7059726Y-4519676D01*
X7070598Y-4524908D01*
G37*
G36*
X7126325Y-4525873D02*
G01*
X7129373Y-4524908D01*
X7140244Y-4519676D01*
X7150150Y-4512919D01*
X7158990Y-4504740D01*
X7166457Y-4495342D01*
X7172502Y-4484928D01*
X7175855Y-4476343D01*
X7126325Y-4476343D01*
G37*
G36*
X4856022Y-4463084D02*
G01*
X5055006Y-4463084D01*
X5063388Y-4462272D01*
X5070957Y-4459986D01*
X5077968Y-4456226D01*
X5084114Y-4451197D01*
X5089144Y-4445050D01*
X5092903Y-4438091D01*
X5095189Y-4430471D01*
X5096002Y-4422089D01*
X5096002Y-4223105D01*
X5095189Y-4214723D01*
X5092903Y-4207103D01*
X5089296Y-4200398D01*
X5088229Y-4197248D01*
X5088229Y-4193946D01*
X5089296Y-4190796D01*
X5092903Y-4184091D01*
X5095189Y-4176471D01*
X5096002Y-4168089D01*
X5096002Y-3969105D01*
X5095189Y-3960723D01*
X5092903Y-3953103D01*
X5089144Y-3946144D01*
X5084114Y-3939997D01*
X5077968Y-3934968D01*
X5070957Y-3931208D01*
X5063388Y-3928922D01*
X5055006Y-3928110D01*
X4856022Y-3928110D01*
X4847590Y-3928922D01*
X4840020Y-3931208D01*
X4833010Y-3934968D01*
X4826914Y-3939997D01*
X4821834Y-3946144D01*
X4818126Y-3953103D01*
X4815840Y-3960723D01*
X4814976Y-3969105D01*
X4814976Y-4168089D01*
X4815840Y-4176471D01*
X4818126Y-4184091D01*
X4821732Y-4190796D01*
X4822799Y-4193946D01*
X4822799Y-4197248D01*
X4821732Y-4200398D01*
X4818126Y-4207103D01*
X4815840Y-4214723D01*
X4814976Y-4223105D01*
X4814976Y-4422089D01*
X4815840Y-4430471D01*
X4818126Y-4438091D01*
X4821834Y-4445050D01*
X4826914Y-4451197D01*
X4833010Y-4456226D01*
X4840020Y-4459986D01*
X4847590Y-4462272D01*
G37*
G36*
X2945993Y-4463084D02*
G01*
X4186123Y-4463084D01*
X4202125Y-4462221D01*
X4217670Y-4459579D01*
X4232808Y-4455210D01*
X4247337Y-4449165D01*
X4261154Y-4441545D01*
X4274007Y-4432452D01*
X4285945Y-4421733D01*
X4995519Y-3712159D01*
X4998821Y-3709974D01*
X5002733Y-3709212D01*
X6324295Y-3709212D01*
X6340348Y-3708298D01*
X6355842Y-3705656D01*
X6370980Y-3701287D01*
X6385560Y-3695293D01*
X6399326Y-3687673D01*
X6412179Y-3678529D01*
X6424168Y-3667861D01*
X6753961Y-3338068D01*
X6764629Y-3326079D01*
X6773773Y-3313226D01*
X6781393Y-3299460D01*
X6787388Y-3284880D01*
X6791756Y-3269742D01*
X6794398Y-3254248D01*
X6795312Y-3238195D01*
X6795312Y-3173476D01*
X6796227Y-3169259D01*
X6798818Y-3165805D01*
X6802628Y-3163722D01*
X6806946Y-3163417D01*
X6811009Y-3164941D01*
X6814413Y-3168599D01*
X6823760Y-3179876D01*
X6834428Y-3189884D01*
X6846265Y-3198520D01*
X6859117Y-3205581D01*
X6864350Y-3207664D01*
X6864350Y-3144469D01*
X6805472Y-3144469D01*
X6801561Y-3143656D01*
X6798259Y-3141472D01*
X6796074Y-3138170D01*
X6795312Y-3134309D01*
X6795312Y-3065729D01*
X6796074Y-3061817D01*
X6798259Y-3058515D01*
X6801561Y-3056331D01*
X6805472Y-3055569D01*
X6864350Y-3055569D01*
X6864350Y-2992323D01*
X6859117Y-2994406D01*
X6846265Y-3001467D01*
X6834428Y-3010103D01*
X6823760Y-3020110D01*
X6814058Y-3031947D01*
X6811009Y-3035046D01*
X6806946Y-3036570D01*
X6802628Y-3036265D01*
X6798818Y-3034182D01*
X6796227Y-3030728D01*
X6795312Y-3026511D01*
X6795312Y-2946704D01*
X6794398Y-2930652D01*
X6791756Y-2915158D01*
X6787388Y-2900019D01*
X6781393Y-2885440D01*
X6773773Y-2871673D01*
X6764629Y-2858820D01*
X6754164Y-2847035D01*
X6742379Y-2836570D01*
X6729526Y-2827426D01*
X6715759Y-2819806D01*
X6701180Y-2813812D01*
X6686042Y-2809443D01*
X6670548Y-2806801D01*
X6654800Y-2805887D01*
X6639052Y-2806801D01*
X6623558Y-2809443D01*
X6608419Y-2813812D01*
X6593840Y-2819806D01*
X6580073Y-2827426D01*
X6567220Y-2836570D01*
X6555435Y-2847035D01*
X6544970Y-2858820D01*
X6535826Y-2871673D01*
X6528206Y-2885440D01*
X6522212Y-2900019D01*
X6517843Y-2915158D01*
X6515201Y-2930652D01*
X6514287Y-2946704D01*
X6514287Y-3026511D01*
X6513423Y-3030626D01*
X6510985Y-3033979D01*
X6507429Y-3036112D01*
X6503263Y-3036620D01*
X6499250Y-3035452D01*
X6496100Y-3032709D01*
X6458508Y-2984957D01*
X6456883Y-2982010D01*
X6456324Y-2978658D01*
X6456324Y-2743403D01*
X6456070Y-2738374D01*
X6455460Y-2733548D01*
X6454394Y-2728823D01*
X6452971Y-2724200D01*
X6451092Y-2719730D01*
X6448856Y-2715463D01*
X6446266Y-2711348D01*
X6443319Y-2707538D01*
X6439916Y-2703779D01*
X6332270Y-2596184D01*
X6330086Y-2592882D01*
X6329324Y-2589022D01*
X6329324Y-2560777D01*
X6330188Y-2556662D01*
X6332626Y-2553258D01*
X6336182Y-2551125D01*
X6340348Y-2550668D01*
X6344361Y-2551887D01*
X6351117Y-2555595D01*
X6364732Y-2560980D01*
X6378956Y-2564638D01*
X6393484Y-2566466D01*
X6408115Y-2566466D01*
X6422644Y-2564638D01*
X6436868Y-2560980D01*
X6450482Y-2555595D01*
X6463334Y-2548534D01*
X6475171Y-2539898D01*
X6485839Y-2529890D01*
X6495186Y-2518562D01*
X6503060Y-2506218D01*
X6509308Y-2492959D01*
X6513830Y-2478989D01*
X6516573Y-2464612D01*
X6517487Y-2449982D01*
X6516573Y-2435352D01*
X6513830Y-2420975D01*
X6509308Y-2407056D01*
X6503060Y-2393797D01*
X6495135Y-2381300D01*
X6458508Y-2334971D01*
X6456883Y-2331974D01*
X6456324Y-2328672D01*
X6456324Y-2311603D01*
X6456070Y-2306574D01*
X6455460Y-2301748D01*
X6454394Y-2297023D01*
X6452971Y-2292400D01*
X6451092Y-2287930D01*
X6448856Y-2283663D01*
X6446266Y-2279548D01*
X6443319Y-2275738D01*
X6439916Y-2271979D01*
X6015278Y-1847392D01*
X6012891Y-1843582D01*
X6012332Y-1839112D01*
X6013805Y-1834845D01*
X6016955Y-1831644D01*
X6021171Y-1830120D01*
X6028944Y-1829104D01*
X6043168Y-1825498D01*
X6056782Y-1820062D01*
X6069634Y-1813001D01*
X6081471Y-1804416D01*
X6092139Y-1794357D01*
X6101486Y-1783080D01*
X6109360Y-1770735D01*
X6115608Y-1757476D01*
X6120130Y-1743506D01*
X6122873Y-1729130D01*
X6123787Y-1714500D01*
X6122873Y-1699869D01*
X6120130Y-1685493D01*
X6115608Y-1671523D01*
X6109360Y-1658264D01*
X6101486Y-1645920D01*
X6092139Y-1634642D01*
X6081471Y-1624584D01*
X6069634Y-1615998D01*
X6056782Y-1608937D01*
X6043168Y-1603502D01*
X6028944Y-1599895D01*
X6014415Y-1598066D01*
X5999784Y-1598066D01*
X5985256Y-1599895D01*
X5971032Y-1603502D01*
X5957417Y-1608937D01*
X5944565Y-1615998D01*
X5932728Y-1624584D01*
X5922060Y-1634642D01*
X5912713Y-1645920D01*
X5904839Y-1658264D01*
X5898591Y-1671523D01*
X5894070Y-1685493D01*
X5891174Y-1700834D01*
X5889498Y-1704848D01*
X5886246Y-1707794D01*
X5882030Y-1709064D01*
X5877712Y-1708505D01*
X5874004Y-1706118D01*
X4700320Y-532384D01*
X4696561Y-528980D01*
X4692751Y-526034D01*
X4688636Y-523443D01*
X4684369Y-521208D01*
X4679899Y-519328D01*
X4675276Y-517906D01*
X4670552Y-516839D01*
X4665726Y-516229D01*
X4660696Y-515975D01*
X4357878Y-515975D01*
X4354017Y-515213D01*
X4350715Y-513029D01*
X4186224Y-348538D01*
X4183837Y-344779D01*
X4183278Y-340410D01*
X4184650Y-336194D01*
X4187647Y-332943D01*
X4191762Y-331317D01*
X4196181Y-331571D01*
X4203344Y-333603D01*
X4217974Y-335889D01*
X4232808Y-336346D01*
X4247591Y-334975D01*
X4262069Y-331774D01*
X4276090Y-326847D01*
X4289348Y-320243D01*
X4301693Y-312064D01*
X4312970Y-302412D01*
X4322978Y-291439D01*
X4331563Y-279349D01*
X4338574Y-266242D01*
X4343908Y-252425D01*
X4346194Y-243433D01*
X4347819Y-239877D01*
X4350715Y-237236D01*
X4354372Y-235915D01*
X4358284Y-236016D01*
X4361891Y-237591D01*
X4364583Y-240436D01*
X4370730Y-259435D01*
X4376928Y-272897D01*
X4384751Y-285496D01*
X4394047Y-297078D01*
X4404715Y-307390D01*
X4416552Y-316331D01*
X4429404Y-323748D01*
X4443069Y-329539D01*
X4457344Y-333603D01*
X4471974Y-335889D01*
X4486808Y-336346D01*
X4501591Y-334975D01*
X4516069Y-331774D01*
X4530090Y-326847D01*
X4543348Y-320243D01*
X4555693Y-312064D01*
X4566970Y-302412D01*
X4576978Y-291439D01*
X4585563Y-279349D01*
X4592574Y-266242D01*
X4597908Y-252425D01*
X4600194Y-243433D01*
X4601819Y-239877D01*
X4604715Y-237236D01*
X4608372Y-235915D01*
X4612284Y-236016D01*
X4615891Y-237591D01*
X4618583Y-240436D01*
X4624730Y-259435D01*
X4630928Y-272897D01*
X4638751Y-285496D01*
X4648047Y-297078D01*
X4658715Y-307390D01*
X4670552Y-316331D01*
X4683404Y-323748D01*
X4697069Y-329539D01*
X4711344Y-333603D01*
X4725974Y-335889D01*
X4740808Y-336346D01*
X4755591Y-334975D01*
X4770069Y-331774D01*
X4784090Y-326847D01*
X4797348Y-320243D01*
X4809693Y-312064D01*
X4820970Y-302412D01*
X4830978Y-291439D01*
X4839563Y-279349D01*
X4846574Y-266242D01*
X4851908Y-252425D01*
X4854194Y-243433D01*
X4855819Y-239877D01*
X4858715Y-237236D01*
X4862372Y-235915D01*
X4866284Y-236016D01*
X4869891Y-237591D01*
X4872583Y-240436D01*
X4878730Y-259435D01*
X4884928Y-272897D01*
X4892751Y-285496D01*
X4902047Y-297078D01*
X4912715Y-307390D01*
X4924552Y-316331D01*
X4937404Y-323748D01*
X4951069Y-329539D01*
X4965344Y-333603D01*
X4979974Y-335889D01*
X4994808Y-336346D01*
X5009591Y-334975D01*
X5024069Y-331774D01*
X5038090Y-326847D01*
X5051348Y-320243D01*
X5063693Y-312064D01*
X5074970Y-302412D01*
X5084978Y-291439D01*
X5093563Y-279349D01*
X5100574Y-266242D01*
X5105908Y-252425D01*
X5108194Y-243433D01*
X5109819Y-239877D01*
X5112715Y-237236D01*
X5116372Y-235915D01*
X5120284Y-236016D01*
X5123891Y-237591D01*
X5126583Y-240436D01*
X5132730Y-259435D01*
X5138928Y-272897D01*
X5146751Y-285496D01*
X5156047Y-297078D01*
X5166715Y-307390D01*
X5178552Y-316331D01*
X5191404Y-323748D01*
X5205069Y-329539D01*
X5219344Y-333603D01*
X5233974Y-335889D01*
X5248808Y-336346D01*
X5263591Y-334975D01*
X5278069Y-331774D01*
X5292090Y-326847D01*
X5305348Y-320243D01*
X5317693Y-312064D01*
X5328970Y-302412D01*
X5338978Y-291439D01*
X5347563Y-279349D01*
X5354574Y-266242D01*
X5358942Y-254914D01*
X5361127Y-251510D01*
X5364378Y-249275D01*
X5368290Y-248412D01*
X5372252Y-249174D01*
X5375554Y-251358D01*
X5377789Y-254660D01*
X5378602Y-258571D01*
X5378602Y-295402D01*
X5379415Y-303784D01*
X5381701Y-311404D01*
X5385460Y-318363D01*
X5390489Y-324510D01*
X5396636Y-329539D01*
X5403596Y-333298D01*
X5411216Y-335584D01*
X5419598Y-336397D01*
X5578602Y-336397D01*
X5586984Y-335584D01*
X5594604Y-333298D01*
X5601563Y-329539D01*
X5607710Y-324510D01*
X5612739Y-318363D01*
X5616498Y-311404D01*
X5618784Y-303784D01*
X5619597Y-295402D01*
X5619597Y-136398D01*
X5618784Y-128016D01*
X5616498Y-120396D01*
X5612739Y-113436D01*
X5607710Y-107289D01*
X5601563Y-102260D01*
X5594604Y-98501D01*
X5586984Y-96215D01*
X5578602Y-95402D01*
X5419598Y-95402D01*
X5411216Y-96215D01*
X5403596Y-98501D01*
X5396636Y-102260D01*
X5390489Y-107289D01*
X5385460Y-113436D01*
X5381701Y-120396D01*
X5379415Y-128016D01*
X5378602Y-136398D01*
X5378602Y-173228D01*
X5377789Y-177139D01*
X5375554Y-180441D01*
X5372252Y-182626D01*
X5368290Y-183388D01*
X5364378Y-182524D01*
X5361127Y-180289D01*
X5358942Y-176885D01*
X5354574Y-165557D01*
X5347563Y-152450D01*
X5338978Y-140360D01*
X5328970Y-129387D01*
X5317693Y-119735D01*
X5305348Y-111556D01*
X5292090Y-104952D01*
X5278069Y-100025D01*
X5263591Y-96824D01*
X5248808Y-95453D01*
X5233974Y-95910D01*
X5219344Y-98196D01*
X5205069Y-102260D01*
X5191404Y-108051D01*
X5178552Y-115468D01*
X5166715Y-124409D01*
X5156047Y-134721D01*
X5146751Y-146304D01*
X5138928Y-158902D01*
X5132730Y-172364D01*
X5126583Y-191363D01*
X5123891Y-194208D01*
X5120284Y-195783D01*
X5116372Y-195884D01*
X5112715Y-194564D01*
X5109819Y-191922D01*
X5108194Y-188366D01*
X5105908Y-179374D01*
X5100574Y-165557D01*
X5093563Y-152450D01*
X5084978Y-140360D01*
X5074970Y-129387D01*
X5063693Y-119735D01*
X5051348Y-111556D01*
X5038090Y-104952D01*
X5024069Y-100025D01*
X5009591Y-96824D01*
X4994808Y-95453D01*
X4979974Y-95910D01*
X4965344Y-98196D01*
X4951069Y-102260D01*
X4937404Y-108051D01*
X4924552Y-115468D01*
X4912715Y-124409D01*
X4902047Y-134721D01*
X4892751Y-146304D01*
X4884928Y-158902D01*
X4878730Y-172364D01*
X4872583Y-191363D01*
X4869891Y-194208D01*
X4866284Y-195783D01*
X4862372Y-195884D01*
X4858715Y-194564D01*
X4855819Y-191922D01*
X4854194Y-188366D01*
X4851908Y-179374D01*
X4846574Y-165557D01*
X4839563Y-152450D01*
X4830978Y-140360D01*
X4820970Y-129387D01*
X4809693Y-119735D01*
X4797348Y-111556D01*
X4784090Y-104952D01*
X4770069Y-100025D01*
X4755591Y-96824D01*
X4740808Y-95453D01*
X4725974Y-95910D01*
X4711344Y-98196D01*
X4697069Y-102260D01*
X4683404Y-108051D01*
X4670552Y-115468D01*
X4658715Y-124409D01*
X4648047Y-134721D01*
X4638751Y-146304D01*
X4630928Y-158902D01*
X4624730Y-172364D01*
X4618583Y-191363D01*
X4615891Y-194208D01*
X4612284Y-195783D01*
X4608372Y-195884D01*
X4604715Y-194564D01*
X4601819Y-191922D01*
X4600194Y-188366D01*
X4597908Y-179374D01*
X4592574Y-165557D01*
X4585563Y-152450D01*
X4576978Y-140360D01*
X4566970Y-129387D01*
X4555693Y-119735D01*
X4543348Y-111556D01*
X4530090Y-104952D01*
X4516069Y-100025D01*
X4501591Y-96824D01*
X4486808Y-95453D01*
X4471974Y-95910D01*
X4457344Y-98196D01*
X4443069Y-102260D01*
X4429404Y-108051D01*
X4416552Y-115468D01*
X4404715Y-124409D01*
X4394047Y-134721D01*
X4384751Y-146304D01*
X4376928Y-158902D01*
X4370730Y-172364D01*
X4364583Y-191363D01*
X4361891Y-194208D01*
X4358284Y-195783D01*
X4354372Y-195884D01*
X4350715Y-194564D01*
X4347819Y-191922D01*
X4346194Y-188366D01*
X4343908Y-179374D01*
X4338574Y-165557D01*
X4331563Y-152450D01*
X4322978Y-140360D01*
X4312970Y-129387D01*
X4301693Y-119735D01*
X4289348Y-111556D01*
X4276090Y-104952D01*
X4262069Y-100025D01*
X4247591Y-96824D01*
X4232808Y-95453D01*
X4217974Y-95910D01*
X4203344Y-98196D01*
X4189069Y-102260D01*
X4175404Y-108051D01*
X4162551Y-115468D01*
X4150715Y-124409D01*
X4140047Y-134721D01*
X4130751Y-146304D01*
X4122928Y-158902D01*
X4116730Y-172364D01*
X4110583Y-191363D01*
X4107891Y-194208D01*
X4104284Y-195783D01*
X4100372Y-195884D01*
X4096715Y-194564D01*
X4093819Y-191922D01*
X4092194Y-188366D01*
X4089908Y-179374D01*
X4084574Y-165557D01*
X4077563Y-152450D01*
X4068978Y-140360D01*
X4058970Y-129387D01*
X4047693Y-119735D01*
X4035348Y-111556D01*
X4022090Y-104952D01*
X4008069Y-100025D01*
X3993591Y-96824D01*
X3978808Y-95453D01*
X3963974Y-95910D01*
X3949344Y-98196D01*
X3935069Y-102260D01*
X3921404Y-108051D01*
X3908551Y-115468D01*
X3896715Y-124409D01*
X3886047Y-134721D01*
X3876751Y-146304D01*
X3868928Y-158902D01*
X3862730Y-172364D01*
X3856583Y-191363D01*
X3853891Y-194208D01*
X3850284Y-195783D01*
X3846372Y-195884D01*
X3842715Y-194564D01*
X3839819Y-191922D01*
X3838194Y-188366D01*
X3835908Y-179374D01*
X3830574Y-165557D01*
X3823563Y-152450D01*
X3814978Y-140360D01*
X3804970Y-129387D01*
X3793693Y-119735D01*
X3781348Y-111556D01*
X3768090Y-104952D01*
X3754069Y-100025D01*
X3739591Y-96824D01*
X3724808Y-95453D01*
X3709974Y-95910D01*
X3695344Y-98196D01*
X3681069Y-102260D01*
X3667404Y-108051D01*
X3654551Y-115468D01*
X3642715Y-124409D01*
X3632047Y-134721D01*
X3622751Y-146304D01*
X3614928Y-158902D01*
X3608730Y-172364D01*
X3602583Y-191363D01*
X3599891Y-194208D01*
X3596284Y-195783D01*
X3592372Y-195884D01*
X3588715Y-194564D01*
X3585819Y-191922D01*
X3584194Y-188366D01*
X3581908Y-179374D01*
X3576574Y-165557D01*
X3569563Y-152450D01*
X3560978Y-140360D01*
X3550970Y-129387D01*
X3539693Y-119735D01*
X3527348Y-111556D01*
X3514090Y-104952D01*
X3500069Y-100025D01*
X3485591Y-96824D01*
X3470808Y-95453D01*
X3455974Y-95910D01*
X3441344Y-98196D01*
X3427069Y-102260D01*
X3413404Y-108051D01*
X3400551Y-115468D01*
X3388715Y-124409D01*
X3378047Y-134721D01*
X3368751Y-146304D01*
X3360928Y-158902D01*
X3354730Y-172364D01*
X3348583Y-191363D01*
X3345891Y-194208D01*
X3342284Y-195783D01*
X3338372Y-195884D01*
X3334715Y-194564D01*
X3331819Y-191922D01*
X3330194Y-188366D01*
X3327908Y-179374D01*
X3322574Y-165557D01*
X3315563Y-152450D01*
X3306978Y-140360D01*
X3296970Y-129387D01*
X3285693Y-119735D01*
X3273348Y-111556D01*
X3260090Y-104952D01*
X3246069Y-100025D01*
X3231591Y-96824D01*
X3216808Y-95453D01*
X3201974Y-95910D01*
X3187344Y-98196D01*
X3173069Y-102260D01*
X3159404Y-108051D01*
X3146552Y-115468D01*
X3134715Y-124409D01*
X3124047Y-134721D01*
X3114751Y-146304D01*
X3106928Y-158902D01*
X3100730Y-172364D01*
X3094583Y-191363D01*
X3091891Y-194208D01*
X3088284Y-195783D01*
X3084372Y-195884D01*
X3080715Y-194564D01*
X3077819Y-191922D01*
X3076194Y-188366D01*
X3073908Y-179374D01*
X3068574Y-165557D01*
X3061563Y-152450D01*
X3052978Y-140360D01*
X3042970Y-129387D01*
X3031693Y-119735D01*
X3019348Y-111556D01*
X3006090Y-104952D01*
X2992069Y-100025D01*
X2977591Y-96824D01*
X2962808Y-95453D01*
X2947974Y-95910D01*
X2933344Y-98196D01*
X2919069Y-102260D01*
X2905404Y-108051D01*
X2892552Y-115468D01*
X2880715Y-124409D01*
X2870047Y-134721D01*
X2860751Y-146304D01*
X2852928Y-158902D01*
X2846730Y-172364D01*
X2840583Y-191363D01*
X2837891Y-194208D01*
X2834284Y-195783D01*
X2830372Y-195884D01*
X2826715Y-194564D01*
X2823819Y-191922D01*
X2822194Y-188366D01*
X2819908Y-179374D01*
X2814574Y-165557D01*
X2807563Y-152450D01*
X2798978Y-140360D01*
X2788970Y-129387D01*
X2777693Y-119735D01*
X2765348Y-111556D01*
X2752090Y-104952D01*
X2738069Y-100025D01*
X2723591Y-96824D01*
X2708808Y-95453D01*
X2693974Y-95910D01*
X2679344Y-98196D01*
X2665069Y-102260D01*
X2651404Y-108051D01*
X2638552Y-115468D01*
X2626715Y-124409D01*
X2616047Y-134721D01*
X2606751Y-146304D01*
X2598928Y-158902D01*
X2592730Y-172364D01*
X2586583Y-191363D01*
X2583891Y-194208D01*
X2580284Y-195783D01*
X2576372Y-195884D01*
X2572715Y-194564D01*
X2569819Y-191922D01*
X2568194Y-188366D01*
X2565908Y-179374D01*
X2560574Y-165557D01*
X2553563Y-152450D01*
X2544978Y-140360D01*
X2534970Y-129387D01*
X2523693Y-119735D01*
X2511348Y-111556D01*
X2498090Y-104952D01*
X2484069Y-100025D01*
X2469591Y-96824D01*
X2454808Y-95453D01*
X2439974Y-95910D01*
X2425344Y-98196D01*
X2411069Y-102260D01*
X2397404Y-108051D01*
X2384552Y-115468D01*
X2372715Y-124409D01*
X2362047Y-134721D01*
X2352751Y-146304D01*
X2344928Y-158902D01*
X2338730Y-172364D01*
X2334260Y-186486D01*
X2331516Y-201218D01*
X2326995Y-252984D01*
X2325979Y-256590D01*
X2323744Y-259588D01*
X2320544Y-261569D01*
X2316835Y-262229D01*
X2243429Y-262229D01*
X2243429Y-331724D01*
X2246325Y-334975D01*
X2247595Y-339140D01*
X2247036Y-343458D01*
X2244648Y-347116D01*
X1456486Y-1135329D01*
X1453184Y-1137513D01*
X1449324Y-1138275D01*
X498957Y-1138275D01*
X496519Y-1137970D01*
X494182Y-1137107D01*
X479298Y-1129030D01*
X472033Y-1124102D01*
X461213Y-1118870D01*
X449732Y-1115314D01*
X437794Y-1113536D01*
X425805Y-1113536D01*
X413867Y-1115314D01*
X402386Y-1118870D01*
X391566Y-1124102D01*
X381609Y-1130858D01*
X372821Y-1139037D01*
X365302Y-1148486D01*
X359308Y-1158900D01*
X354888Y-1170076D01*
X352196Y-1181811D01*
X351332Y-1193800D01*
X352196Y-1205788D01*
X354888Y-1217523D01*
X359308Y-1228699D01*
X365302Y-1239113D01*
X372821Y-1248562D01*
X381609Y-1256741D01*
X391566Y-1263497D01*
X402386Y-1268730D01*
X413867Y-1272286D01*
X425805Y-1274064D01*
X437794Y-1274064D01*
X449732Y-1272286D01*
X461213Y-1268730D01*
X472033Y-1263497D01*
X480212Y-1257960D01*
X494182Y-1250492D01*
X496519Y-1249629D01*
X498957Y-1249324D01*
X1476298Y-1249324D01*
X1481328Y-1249070D01*
X1486154Y-1248460D01*
X1490878Y-1247394D01*
X1495501Y-1245971D01*
X1499971Y-1244092D01*
X1504238Y-1241856D01*
X1508353Y-1239266D01*
X1512163Y-1236319D01*
X1515922Y-1232916D01*
X2403043Y-345744D01*
X2405735Y-343814D01*
X2408936Y-342849D01*
X2469438Y-334975D01*
X2484069Y-331774D01*
X2498090Y-326847D01*
X2511348Y-320243D01*
X2523693Y-312064D01*
X2534970Y-302412D01*
X2544978Y-291439D01*
X2553563Y-279349D01*
X2560574Y-266242D01*
X2565908Y-252425D01*
X2568194Y-243433D01*
X2569819Y-239877D01*
X2572715Y-237236D01*
X2576372Y-235915D01*
X2580284Y-236016D01*
X2583891Y-237591D01*
X2586583Y-240436D01*
X2592730Y-259435D01*
X2598928Y-272897D01*
X2606751Y-285496D01*
X2616047Y-297078D01*
X2626715Y-307390D01*
X2638552Y-316331D01*
X2651404Y-323748D01*
X2665069Y-329539D01*
X2679344Y-333603D01*
X2693974Y-335889D01*
X2708808Y-336346D01*
X2723591Y-334975D01*
X2738069Y-331774D01*
X2752090Y-326847D01*
X2765348Y-320243D01*
X2777693Y-312064D01*
X2788970Y-302412D01*
X2798978Y-291439D01*
X2807563Y-279349D01*
X2814574Y-266242D01*
X2819908Y-252425D01*
X2822194Y-243433D01*
X2823819Y-239877D01*
X2826715Y-237236D01*
X2830372Y-235915D01*
X2834284Y-236016D01*
X2837891Y-237591D01*
X2840583Y-240436D01*
X2846730Y-259435D01*
X2852928Y-272897D01*
X2860751Y-285496D01*
X2870047Y-297078D01*
X2880715Y-307390D01*
X2892552Y-316331D01*
X2905404Y-323748D01*
X2919069Y-329539D01*
X2933344Y-333603D01*
X2947974Y-335889D01*
X2962808Y-336346D01*
X2977591Y-334975D01*
X2992069Y-331774D01*
X3006090Y-326847D01*
X3019348Y-320243D01*
X3031693Y-312064D01*
X3042970Y-302412D01*
X3052978Y-291439D01*
X3061563Y-279349D01*
X3068574Y-266242D01*
X3073908Y-252425D01*
X3076194Y-243433D01*
X3077819Y-239877D01*
X3080715Y-237236D01*
X3084372Y-235915D01*
X3088284Y-236016D01*
X3091891Y-237591D01*
X3094583Y-240436D01*
X3100730Y-259435D01*
X3106928Y-272897D01*
X3114751Y-285496D01*
X3124047Y-297078D01*
X3134715Y-307390D01*
X3146552Y-316331D01*
X3159404Y-323748D01*
X3173069Y-329539D01*
X3187344Y-333603D01*
X3201974Y-335889D01*
X3216808Y-336346D01*
X3231591Y-334975D01*
X3246069Y-331774D01*
X3260090Y-326847D01*
X3273348Y-320243D01*
X3285693Y-312064D01*
X3296970Y-302412D01*
X3306978Y-291439D01*
X3315563Y-279349D01*
X3322574Y-266242D01*
X3327908Y-252425D01*
X3330194Y-243433D01*
X3331819Y-239877D01*
X3334715Y-237236D01*
X3338372Y-235915D01*
X3342284Y-236016D01*
X3345891Y-237591D01*
X3348583Y-240436D01*
X3354730Y-259435D01*
X3360928Y-272897D01*
X3368751Y-285496D01*
X3378047Y-297078D01*
X3388715Y-307390D01*
X3400551Y-316331D01*
X3413404Y-323748D01*
X3427069Y-329539D01*
X3441344Y-333603D01*
X3455974Y-335889D01*
X3470808Y-336346D01*
X3485591Y-334975D01*
X3500069Y-331774D01*
X3514090Y-326847D01*
X3527348Y-320243D01*
X3539693Y-312064D01*
X3550970Y-302412D01*
X3560978Y-291439D01*
X3569563Y-279349D01*
X3576574Y-266242D01*
X3581908Y-252425D01*
X3584194Y-243433D01*
X3585819Y-239877D01*
X3588715Y-237236D01*
X3592372Y-235915D01*
X3596284Y-236016D01*
X3599891Y-237591D01*
X3602583Y-240436D01*
X3608730Y-259435D01*
X3614928Y-272897D01*
X3622751Y-285496D01*
X3629660Y-294386D01*
X3663340Y-336296D01*
X3664965Y-339090D01*
X3665575Y-342239D01*
X3665829Y-347726D01*
X3666439Y-352552D01*
X3667506Y-357276D01*
X3668928Y-361899D01*
X3670808Y-366369D01*
X3673043Y-370636D01*
X3675634Y-374751D01*
X3678580Y-378561D01*
X3681984Y-382320D01*
X4024579Y-724916D01*
X4028338Y-728319D01*
X4032148Y-731266D01*
X4036263Y-733856D01*
X4040530Y-736092D01*
X4045000Y-737971D01*
X4049623Y-739394D01*
X4054348Y-740460D01*
X4059174Y-741070D01*
X4064203Y-741324D01*
X4570222Y-741324D01*
X4574082Y-742086D01*
X4577384Y-744270D01*
X6147511Y-2314448D01*
X6149797Y-2317902D01*
X6150508Y-2322017D01*
X6149492Y-2326030D01*
X6146952Y-2329332D01*
X6143294Y-2331313D01*
X6139180Y-2331720D01*
X6106261Y-2327859D01*
X6103010Y-2326894D01*
X6100267Y-2324963D01*
X4599787Y-824484D01*
X4596079Y-821080D01*
X4592218Y-818134D01*
X4588154Y-815543D01*
X4583836Y-813308D01*
X4579366Y-811428D01*
X4574794Y-810006D01*
X4570018Y-808939D01*
X4565243Y-808329D01*
X4560163Y-808075D01*
X4496511Y-808075D01*
X4492904Y-807415D01*
X4485132Y-804468D01*
X4483354Y-803605D01*
X4477410Y-799896D01*
X4467098Y-795629D01*
X4456176Y-792988D01*
X4445000Y-792124D01*
X4433824Y-792988D01*
X4422902Y-795629D01*
X4412538Y-799896D01*
X4402988Y-805789D01*
X4394454Y-813053D01*
X4387189Y-821588D01*
X4381296Y-831138D01*
X4377029Y-841502D01*
X4374388Y-852424D01*
X4373524Y-863600D01*
X4374388Y-874776D01*
X4377029Y-885698D01*
X4381296Y-896061D01*
X4387189Y-905611D01*
X4394454Y-914146D01*
X4402988Y-921410D01*
X4412538Y-927303D01*
X4422902Y-931570D01*
X4433824Y-934212D01*
X4445000Y-935075D01*
X4456176Y-934212D01*
X4467098Y-931570D01*
X4477410Y-927303D01*
X4483354Y-923594D01*
X4485132Y-922731D01*
X4492853Y-919784D01*
X4496460Y-919124D01*
X4533188Y-919124D01*
X4537100Y-919886D01*
X4540402Y-922070D01*
X4714290Y-1096010D01*
X4716627Y-1099566D01*
X4717237Y-1103782D01*
X4716119Y-1107897D01*
X4713427Y-1111148D01*
X4709617Y-1113028D01*
X4705350Y-1113180D01*
X4701133Y-1111402D01*
X4690313Y-1106170D01*
X4678832Y-1102614D01*
X4666894Y-1100836D01*
X4654905Y-1100836D01*
X4642967Y-1102614D01*
X4631486Y-1106170D01*
X4620666Y-1111402D01*
X4612487Y-1116939D01*
X4598517Y-1124407D01*
X4596180Y-1125270D01*
X4593742Y-1125575D01*
X4407103Y-1125575D01*
X4402074Y-1125829D01*
X4397248Y-1126439D01*
X4392523Y-1127506D01*
X4387900Y-1128928D01*
X4383430Y-1130808D01*
X4379163Y-1133043D01*
X4375048Y-1135634D01*
X4371238Y-1138580D01*
X4367479Y-1141984D01*
X4253484Y-1255979D01*
X4250080Y-1259738D01*
X4247134Y-1263548D01*
X4244543Y-1267663D01*
X4242308Y-1271930D01*
X4240428Y-1276400D01*
X4239006Y-1281023D01*
X4237939Y-1285748D01*
X4237329Y-1290574D01*
X4237075Y-1295603D01*
X4237075Y-1447596D01*
X4237329Y-1452626D01*
X4237939Y-1457452D01*
X4239006Y-1462176D01*
X4240428Y-1466799D01*
X4242308Y-1471269D01*
X4244543Y-1475536D01*
X4247134Y-1479651D01*
X4250080Y-1483461D01*
X4253484Y-1487220D01*
X4316679Y-1550416D01*
X4320438Y-1553819D01*
X4324248Y-1556766D01*
X4328363Y-1559356D01*
X4332630Y-1561592D01*
X4337100Y-1563471D01*
X4341723Y-1564894D01*
X4346448Y-1565960D01*
X4351274Y-1566570D01*
X4356303Y-1566824D01*
X4722622Y-1566824D01*
X4726482Y-1567586D01*
X4729784Y-1569770D01*
X4754829Y-1594815D01*
X4757013Y-1598117D01*
X4757775Y-1601978D01*
X4757775Y-1685442D01*
X4757470Y-1687880D01*
X4756607Y-1690217D01*
X4749241Y-1703933D01*
X4746802Y-1707286D01*
X4740808Y-1717700D01*
X4736388Y-1728876D01*
X4733696Y-1740611D01*
X4732832Y-1752600D01*
X4733696Y-1764588D01*
X4736388Y-1776323D01*
X4740808Y-1787499D01*
X4746802Y-1797913D01*
X4754321Y-1807362D01*
X4763109Y-1815541D01*
X4773066Y-1822297D01*
X4783886Y-1827530D01*
X4795367Y-1831086D01*
X4807305Y-1832864D01*
X4819294Y-1832864D01*
X4831232Y-1831086D01*
X4842713Y-1827530D01*
X4853533Y-1822297D01*
X4863490Y-1815541D01*
X4872278Y-1807362D01*
X4879797Y-1797913D01*
X4885791Y-1787499D01*
X4890211Y-1776323D01*
X4892903Y-1764588D01*
X4893767Y-1752600D01*
X4892903Y-1740611D01*
X4890211Y-1728876D01*
X4885791Y-1717700D01*
X4879797Y-1707286D01*
X4877358Y-1703933D01*
X4869992Y-1690217D01*
X4869129Y-1687880D01*
X4868824Y-1685442D01*
X4868824Y-1575003D01*
X4868570Y-1569974D01*
X4867960Y-1565148D01*
X4866894Y-1560423D01*
X4865471Y-1555800D01*
X4863592Y-1551330D01*
X4861356Y-1547063D01*
X4858766Y-1542948D01*
X4855819Y-1539138D01*
X4852416Y-1535379D01*
X4789220Y-1472184D01*
X4785461Y-1468780D01*
X4781651Y-1465834D01*
X4777536Y-1463243D01*
X4773269Y-1461008D01*
X4768799Y-1459128D01*
X4764176Y-1457706D01*
X4759452Y-1456639D01*
X4754626Y-1456029D01*
X4749596Y-1455775D01*
X4383278Y-1455775D01*
X4379417Y-1455013D01*
X4376115Y-1452829D01*
X4351070Y-1427784D01*
X4348886Y-1424482D01*
X4348124Y-1420622D01*
X4348124Y-1322578D01*
X4348886Y-1318717D01*
X4351070Y-1315415D01*
X4426915Y-1239570D01*
X4430217Y-1237386D01*
X4434078Y-1236624D01*
X4593742Y-1236624D01*
X4596180Y-1236929D01*
X4598517Y-1237792D01*
X4613402Y-1245870D01*
X4620666Y-1250797D01*
X4631486Y-1256030D01*
X4642967Y-1259586D01*
X4654905Y-1261364D01*
X4666894Y-1261364D01*
X4678832Y-1259586D01*
X4690313Y-1256030D01*
X4701133Y-1250797D01*
X4711090Y-1244041D01*
X4719878Y-1235862D01*
X4727397Y-1226413D01*
X4733391Y-1215999D01*
X4737811Y-1204823D01*
X4740503Y-1193088D01*
X4741367Y-1181100D01*
X4740503Y-1169111D01*
X4737811Y-1157376D01*
X4733391Y-1146200D01*
X4729530Y-1139494D01*
X4728260Y-1135532D01*
X4728616Y-1131417D01*
X4730648Y-1127760D01*
X4733950Y-1125270D01*
X4737963Y-1124254D01*
X4742078Y-1124966D01*
X4745532Y-1127201D01*
X4909616Y-1291336D01*
X4911852Y-1294638D01*
X4912614Y-1298498D01*
X4911852Y-1302410D01*
X4909616Y-1305712D01*
X4906314Y-1307896D01*
X4902454Y-1308658D01*
X4898542Y-1307896D01*
X4891176Y-1305306D01*
X4886452Y-1304239D01*
X4881626Y-1303629D01*
X4876596Y-1303375D01*
X4496511Y-1303375D01*
X4492904Y-1302715D01*
X4485132Y-1299768D01*
X4483354Y-1298905D01*
X4477410Y-1295196D01*
X4467098Y-1290929D01*
X4456176Y-1288288D01*
X4445000Y-1287424D01*
X4433824Y-1288288D01*
X4422902Y-1290929D01*
X4412538Y-1295196D01*
X4402988Y-1301089D01*
X4394454Y-1308354D01*
X4387189Y-1316888D01*
X4381296Y-1326438D01*
X4377029Y-1336802D01*
X4374388Y-1347724D01*
X4373524Y-1358900D01*
X4374388Y-1370076D01*
X4377029Y-1380998D01*
X4381296Y-1391361D01*
X4387189Y-1400911D01*
X4394454Y-1409446D01*
X4402988Y-1416710D01*
X4412538Y-1422603D01*
X4422902Y-1426870D01*
X4433824Y-1429512D01*
X4445000Y-1430375D01*
X4456176Y-1429512D01*
X4467098Y-1426870D01*
X4477410Y-1422603D01*
X4483354Y-1418894D01*
X4485132Y-1418031D01*
X4492853Y-1415084D01*
X4496460Y-1414424D01*
X4849622Y-1414424D01*
X4853482Y-1415186D01*
X4856784Y-1417370D01*
X5872429Y-2433015D01*
X5874613Y-2436317D01*
X5875375Y-2440178D01*
X5875375Y-2844596D01*
X5875629Y-2849626D01*
X5876239Y-2854452D01*
X5877306Y-2859176D01*
X5878728Y-2863799D01*
X5880608Y-2868269D01*
X5882843Y-2872536D01*
X5885434Y-2876651D01*
X5888380Y-2880461D01*
X5891784Y-2884220D01*
X6035548Y-3027934D01*
X6037376Y-3030474D01*
X6038342Y-3033471D01*
X6038392Y-3036620D01*
X6031026Y-3085236D01*
X6030112Y-3100019D01*
X6031026Y-3114598D01*
X6033770Y-3129026D01*
X6038291Y-3142945D01*
X6044539Y-3156204D01*
X6052413Y-3168599D01*
X6061760Y-3179876D01*
X6072428Y-3189884D01*
X6084265Y-3198520D01*
X6097117Y-3205581D01*
X6110732Y-3210966D01*
X6124956Y-3214624D01*
X6139484Y-3216452D01*
X6154115Y-3216452D01*
X6168644Y-3214624D01*
X6182868Y-3210966D01*
X6196482Y-3205581D01*
X6209334Y-3198520D01*
X6221171Y-3189884D01*
X6231839Y-3179876D01*
X6241186Y-3168599D01*
X6249060Y-3156204D01*
X6255308Y-3142945D01*
X6259830Y-3129026D01*
X6262573Y-3114598D01*
X6263487Y-3100019D01*
X6262573Y-3085388D01*
X6259830Y-3070961D01*
X6255308Y-3057042D01*
X6249060Y-3043783D01*
X6241186Y-3031388D01*
X6231839Y-3020110D01*
X6221171Y-3010103D01*
X6209334Y-3001467D01*
X6196431Y-2994355D01*
X6134150Y-2968498D01*
X6130899Y-2966262D01*
X5989370Y-2824784D01*
X5987186Y-2821482D01*
X5986424Y-2817622D01*
X5986424Y-2413203D01*
X5986170Y-2408174D01*
X5985560Y-2403348D01*
X5984494Y-2398623D01*
X5981903Y-2391257D01*
X5981141Y-2387346D01*
X5981903Y-2383485D01*
X5984087Y-2380183D01*
X5987389Y-2377948D01*
X5991301Y-2377186D01*
X5995162Y-2377948D01*
X5998464Y-2380183D01*
X6021730Y-2403449D01*
X6023711Y-2406192D01*
X6024676Y-2409444D01*
X6030976Y-2464460D01*
X6033770Y-2478989D01*
X6038291Y-2492959D01*
X6044539Y-2506218D01*
X6052413Y-2518562D01*
X6061760Y-2529890D01*
X6072428Y-2539898D01*
X6084265Y-2548534D01*
X6097117Y-2555595D01*
X6110732Y-2560980D01*
X6124956Y-2564638D01*
X6139484Y-2566466D01*
X6154115Y-2566466D01*
X6168644Y-2564638D01*
X6182868Y-2560980D01*
X6196482Y-2555595D01*
X6203238Y-2551887D01*
X6207252Y-2550668D01*
X6211417Y-2551125D01*
X6214973Y-2553258D01*
X6217412Y-2556662D01*
X6218275Y-2560777D01*
X6218275Y-2615996D01*
X6218529Y-2621026D01*
X6219139Y-2625852D01*
X6220206Y-2630576D01*
X6221628Y-2635199D01*
X6223508Y-2639669D01*
X6225743Y-2643936D01*
X6228334Y-2648051D01*
X6231280Y-2651861D01*
X6234684Y-2655620D01*
X6342329Y-2763215D01*
X6344513Y-2766517D01*
X6345275Y-2770378D01*
X6345275Y-2978658D01*
X6344716Y-2982010D01*
X6343091Y-2984957D01*
X6306464Y-3031337D01*
X6298539Y-3043783D01*
X6292291Y-3057042D01*
X6287770Y-3070961D01*
X6285026Y-3085388D01*
X6284112Y-3100019D01*
X6285026Y-3114598D01*
X6287770Y-3129026D01*
X6292291Y-3142945D01*
X6298539Y-3156204D01*
X6306413Y-3168599D01*
X6315760Y-3179876D01*
X6326428Y-3189884D01*
X6338265Y-3198520D01*
X6351117Y-3205581D01*
X6364732Y-3210966D01*
X6378956Y-3214624D01*
X6393484Y-3216452D01*
X6408115Y-3216452D01*
X6422644Y-3214624D01*
X6436868Y-3210966D01*
X6450482Y-3205581D01*
X6463334Y-3198520D01*
X6475171Y-3189884D01*
X6485839Y-3179876D01*
X6495542Y-3168040D01*
X6498590Y-3164941D01*
X6502654Y-3163417D01*
X6506972Y-3163722D01*
X6510781Y-3165805D01*
X6513372Y-3169259D01*
X6514287Y-3173476D01*
X6514287Y-3176066D01*
X6513525Y-3179978D01*
X6511340Y-3183280D01*
X6269380Y-3425240D01*
X6266078Y-3427425D01*
X6262166Y-3428187D01*
X4940604Y-3428187D01*
X4924552Y-3429101D01*
X4909058Y-3431743D01*
X4893919Y-3436112D01*
X4879340Y-3442106D01*
X4865573Y-3449726D01*
X4852720Y-3458870D01*
X4840732Y-3469538D01*
X4131157Y-4179112D01*
X4127855Y-4181297D01*
X4123994Y-4182110D01*
X3195828Y-4182110D01*
X3191713Y-4181195D01*
X3188309Y-4178757D01*
X3186176Y-4175099D01*
X3185718Y-4170934D01*
X3186023Y-4168089D01*
X3186023Y-3969105D01*
X3185160Y-3960723D01*
X3182874Y-3953103D01*
X3179165Y-3946144D01*
X3174136Y-3939997D01*
X3167989Y-3934968D01*
X3160979Y-3931208D01*
X3153410Y-3928922D01*
X3145028Y-3928110D01*
X2945993Y-3928110D01*
X2937611Y-3928922D01*
X2930042Y-3931208D01*
X2923032Y-3934968D01*
X2916885Y-3939997D01*
X2911856Y-3946144D01*
X2908147Y-3953103D01*
X2905810Y-3960723D01*
X2904998Y-3969105D01*
X2904998Y-4168089D01*
X2905810Y-4176471D01*
X2908147Y-4184091D01*
X2911703Y-4190796D01*
X2912770Y-4193946D01*
X2912770Y-4197248D01*
X2911703Y-4200398D01*
X2908147Y-4207103D01*
X2905810Y-4214723D01*
X2904998Y-4223105D01*
X2904998Y-4422089D01*
X2905810Y-4430471D01*
X2908147Y-4438091D01*
X2911856Y-4445050D01*
X2916885Y-4451197D01*
X2923032Y-4456226D01*
X2930042Y-4459986D01*
X2937611Y-4462272D01*
G37*
G36*
X604164Y-4453636D02*
G01*
X607212Y-4452721D01*
X618032Y-4447489D01*
X627989Y-4440732D01*
X636778Y-4432554D01*
X644296Y-4423105D01*
X650290Y-4412691D01*
X653694Y-4404156D01*
X604164Y-4404156D01*
G37*
G36*
X248564Y-4453636D02*
G01*
X251612Y-4452721D01*
X262432Y-4447489D01*
X272389Y-4440732D01*
X281178Y-4432554D01*
X288696Y-4423105D01*
X294690Y-4412691D01*
X298094Y-4404156D01*
X248564Y-4404156D01*
G37*
G36*
X551434Y-4453636D02*
G01*
X551434Y-4404156D01*
X501904Y-4404156D01*
X505307Y-4412691D01*
X511301Y-4423105D01*
X518820Y-4432554D01*
X527608Y-4440732D01*
X537565Y-4447489D01*
X548386Y-4452721D01*
G37*
G36*
X195834Y-4453636D02*
G01*
X195834Y-4404156D01*
X146304Y-4404156D01*
X149707Y-4412691D01*
X155702Y-4423105D01*
X163220Y-4432554D01*
X172008Y-4440732D01*
X181965Y-4447489D01*
X192786Y-4452721D01*
G37*
G36*
X6895846Y-4453636D02*
G01*
X6895846Y-4404156D01*
X6846316Y-4404156D01*
X6849668Y-4412691D01*
X6855714Y-4423105D01*
X6863181Y-4432554D01*
X6872020Y-4440732D01*
X6881926Y-4447489D01*
X6892798Y-4452721D01*
G37*
G36*
X7304125Y-4453636D02*
G01*
X7307173Y-4452721D01*
X7318044Y-4447489D01*
X7327950Y-4440732D01*
X7336790Y-4432554D01*
X7344257Y-4423105D01*
X7350302Y-4412691D01*
X7353655Y-4404156D01*
X7304125Y-4404156D01*
G37*
G36*
X7251446Y-4453636D02*
G01*
X7251446Y-4404156D01*
X7201916Y-4404156D01*
X7205268Y-4412691D01*
X7211314Y-4423105D01*
X7218781Y-4432554D01*
X7227620Y-4440732D01*
X7237526Y-4447489D01*
X7248398Y-4452721D01*
G37*
G36*
X6948525Y-4453636D02*
G01*
X6951573Y-4452721D01*
X6962444Y-4447489D01*
X6972350Y-4440732D01*
X6981190Y-4432554D01*
X6988657Y-4423105D01*
X6994702Y-4412691D01*
X6998055Y-4404156D01*
X6948525Y-4404156D01*
G37*
G36*
X7024116Y-4423664D02*
G01*
X7073646Y-4423664D01*
X7073646Y-4415028D01*
X7074458Y-4411065D01*
X7076694Y-4407763D01*
X7080097Y-4405579D01*
X7084059Y-4404868D01*
X7104989Y-4405426D01*
X7115454Y-4404664D01*
X7119569Y-4405223D01*
X7123074Y-4407357D01*
X7125512Y-4410760D01*
X7126325Y-4414824D01*
X7126325Y-4423664D01*
X7175855Y-4423664D01*
X7172502Y-4415078D01*
X7167524Y-4406493D01*
X7166203Y-4402328D01*
X7166762Y-4398010D01*
X7169099Y-4394301D01*
X7172756Y-4391914D01*
X7182053Y-4388408D01*
X7184745Y-4387088D01*
X7187438Y-4386275D01*
X7189165Y-4384852D01*
X7199833Y-4379569D01*
X7216698Y-4369104D01*
X7232497Y-4357065D01*
X7235596Y-4354169D01*
X7238796Y-4352137D01*
X7242505Y-4351426D01*
X7251446Y-4351426D01*
X7251446Y-4342434D01*
X7252106Y-4338828D01*
X7253986Y-4335678D01*
X7260183Y-4328668D01*
X7271867Y-4312615D01*
X7281925Y-4295495D01*
X7284770Y-4289450D01*
X7286244Y-4287367D01*
X7286904Y-4284827D01*
X7290308Y-4277461D01*
X7291882Y-4272991D01*
X7294219Y-4269232D01*
X7297928Y-4266844D01*
X7302347Y-4266234D01*
X7306564Y-4267606D01*
X7315047Y-4272483D01*
X7323632Y-4275886D01*
X7323632Y-4226356D01*
X7314895Y-4226356D01*
X7310881Y-4225544D01*
X7307529Y-4223207D01*
X7305344Y-4219702D01*
X7304735Y-4215688D01*
X7305497Y-4199991D01*
X7304735Y-4184294D01*
X7305344Y-4180281D01*
X7307529Y-4176776D01*
X7310881Y-4174439D01*
X7314895Y-4173626D01*
X7323632Y-4173626D01*
X7323632Y-4124096D01*
X7315047Y-4127500D01*
X7306564Y-4132376D01*
X7302347Y-4133748D01*
X7297928Y-4133138D01*
X7294219Y-4130751D01*
X7291882Y-4126992D01*
X7290308Y-4122521D01*
X7286904Y-4115155D01*
X7286244Y-4112615D01*
X7284770Y-4110532D01*
X7281925Y-4104487D01*
X7271867Y-4087368D01*
X7260183Y-4071315D01*
X7253986Y-4064304D01*
X7252106Y-4061155D01*
X7251446Y-4057548D01*
X7251446Y-4048556D01*
X7242505Y-4048556D01*
X7238796Y-4047845D01*
X7235596Y-4045813D01*
X7232497Y-4042918D01*
X7216698Y-4030878D01*
X7199833Y-4020413D01*
X7189165Y-4015130D01*
X7187438Y-4013708D01*
X7184745Y-4012946D01*
X7182053Y-4011574D01*
X7172756Y-4008069D01*
X7169099Y-4005681D01*
X7166762Y-4001973D01*
X7166203Y-3997655D01*
X7167524Y-3993489D01*
X7172502Y-3984904D01*
X7175855Y-3976319D01*
X7126325Y-3976319D01*
X7126325Y-3985158D01*
X7125512Y-3989222D01*
X7123074Y-3992626D01*
X7119569Y-3994759D01*
X7115454Y-3995318D01*
X7104989Y-3994556D01*
X7084059Y-3995115D01*
X7080097Y-3994404D01*
X7076694Y-3992219D01*
X7074458Y-3988917D01*
X7073646Y-3984955D01*
X7073646Y-3976319D01*
X7024116Y-3976319D01*
X7027468Y-3984904D01*
X7032294Y-3993286D01*
X7033615Y-3997299D01*
X7033158Y-4001515D01*
X7031024Y-4005173D01*
X7027570Y-4007662D01*
X7014819Y-4013200D01*
X7012330Y-4013708D01*
X7008926Y-4015790D01*
X6991553Y-4025442D01*
X6975195Y-4036720D01*
X6964019Y-4046169D01*
X6960971Y-4047947D01*
X6957466Y-4048556D01*
X6948525Y-4048556D01*
X6948525Y-4057192D01*
X6947966Y-4060596D01*
X6946290Y-4063542D01*
X6933742Y-4079189D01*
X6922871Y-4095800D01*
X6914997Y-4110786D01*
X6913575Y-4112463D01*
X6913118Y-4114647D01*
X6907936Y-4127449D01*
X6905498Y-4131005D01*
X6901789Y-4133189D01*
X6897522Y-4133697D01*
X6893407Y-4132376D01*
X6884924Y-4127500D01*
X6876338Y-4124096D01*
X6876338Y-4173626D01*
X6885127Y-4173626D01*
X6889242Y-4174490D01*
X6892645Y-4176979D01*
X6894779Y-4180586D01*
X6895236Y-4184802D01*
X6894728Y-4190085D01*
X6894728Y-4209897D01*
X6895236Y-4215180D01*
X6894779Y-4219397D01*
X6892645Y-4223004D01*
X6889242Y-4225493D01*
X6885127Y-4226356D01*
X6876338Y-4226356D01*
X6876338Y-4275886D01*
X6884924Y-4272483D01*
X6893407Y-4267606D01*
X6897522Y-4266285D01*
X6901789Y-4266793D01*
X6905498Y-4268978D01*
X6907936Y-4272534D01*
X6913118Y-4285335D01*
X6913575Y-4287520D01*
X6914997Y-4289196D01*
X6922871Y-4304182D01*
X6933742Y-4320794D01*
X6946290Y-4336440D01*
X6947966Y-4339386D01*
X6948525Y-4342790D01*
X6948525Y-4351426D01*
X6957466Y-4351426D01*
X6960971Y-4352036D01*
X6964019Y-4353814D01*
X6975195Y-4363262D01*
X6991553Y-4374540D01*
X7008926Y-4384192D01*
X7012330Y-4386275D01*
X7014819Y-4386783D01*
X7027570Y-4392320D01*
X7031024Y-4394809D01*
X7033158Y-4398467D01*
X7033615Y-4402683D01*
X7032294Y-4406696D01*
X7027468Y-4415078D01*
G37*
G36*
X324104Y-4423664D02*
G01*
X373634Y-4423664D01*
X373634Y-4415028D01*
X374446Y-4411065D01*
X376732Y-4407763D01*
X380085Y-4405579D01*
X384098Y-4404868D01*
X404977Y-4405426D01*
X415442Y-4404664D01*
X419557Y-4405223D01*
X423113Y-4407357D01*
X425500Y-4410760D01*
X426364Y-4414824D01*
X426364Y-4423664D01*
X475894Y-4423664D01*
X472490Y-4415078D01*
X467563Y-4406493D01*
X466242Y-4402328D01*
X466801Y-4398010D01*
X469087Y-4394301D01*
X472744Y-4391914D01*
X482092Y-4388408D01*
X484733Y-4387088D01*
X487426Y-4386275D01*
X489204Y-4384852D01*
X499872Y-4379569D01*
X516737Y-4369104D01*
X532536Y-4357065D01*
X535635Y-4354169D01*
X538835Y-4352137D01*
X542544Y-4351426D01*
X551434Y-4351426D01*
X551434Y-4342434D01*
X552094Y-4338828D01*
X554024Y-4335678D01*
X560222Y-4328668D01*
X571906Y-4312615D01*
X581964Y-4295495D01*
X584758Y-4289450D01*
X586282Y-4287367D01*
X586892Y-4284827D01*
X590346Y-4277461D01*
X591921Y-4272991D01*
X594258Y-4269232D01*
X597966Y-4266844D01*
X602335Y-4266234D01*
X606552Y-4267606D01*
X615086Y-4272483D01*
X623671Y-4275886D01*
X623671Y-4226356D01*
X614883Y-4226356D01*
X610870Y-4225544D01*
X607517Y-4223207D01*
X605383Y-4219702D01*
X604723Y-4215688D01*
X605485Y-4199991D01*
X604723Y-4184294D01*
X605383Y-4180281D01*
X607517Y-4176776D01*
X610870Y-4174439D01*
X614883Y-4173626D01*
X623671Y-4173626D01*
X623671Y-4124096D01*
X615086Y-4127500D01*
X606552Y-4132376D01*
X602335Y-4133748D01*
X597966Y-4133138D01*
X594258Y-4130751D01*
X591921Y-4126992D01*
X590346Y-4122521D01*
X586892Y-4115155D01*
X586282Y-4112615D01*
X584758Y-4110532D01*
X581964Y-4104487D01*
X571906Y-4087368D01*
X560222Y-4071315D01*
X554024Y-4064304D01*
X552094Y-4061155D01*
X551434Y-4057548D01*
X551434Y-4048556D01*
X542544Y-4048556D01*
X538835Y-4047845D01*
X535635Y-4045813D01*
X532536Y-4042918D01*
X516737Y-4030878D01*
X499872Y-4020413D01*
X489204Y-4015130D01*
X487426Y-4013708D01*
X484733Y-4012946D01*
X482092Y-4011574D01*
X472744Y-4008069D01*
X469087Y-4005681D01*
X466801Y-4001973D01*
X466242Y-3997655D01*
X467563Y-3993489D01*
X472490Y-3984904D01*
X475894Y-3976319D01*
X426364Y-3976319D01*
X426364Y-3985158D01*
X425500Y-3989222D01*
X423113Y-3992626D01*
X419557Y-3994759D01*
X415442Y-3995318D01*
X404977Y-3994556D01*
X384098Y-3995115D01*
X380085Y-3994404D01*
X376732Y-3992219D01*
X374446Y-3988917D01*
X373634Y-3984955D01*
X373634Y-3976319D01*
X324104Y-3976319D01*
X327507Y-3984904D01*
X332333Y-3993286D01*
X333603Y-3997299D01*
X333146Y-4001515D01*
X331012Y-4005173D01*
X327558Y-4007662D01*
X314807Y-4013200D01*
X312318Y-4013708D01*
X308914Y-4015790D01*
X291592Y-4025442D01*
X275234Y-4036720D01*
X264058Y-4046169D01*
X260959Y-4047947D01*
X257505Y-4048556D01*
X248564Y-4048556D01*
X248564Y-4057192D01*
X247954Y-4060596D01*
X246329Y-4063542D01*
X233730Y-4079189D01*
X222859Y-4095800D01*
X214985Y-4110786D01*
X213563Y-4112463D01*
X213106Y-4114647D01*
X207924Y-4127449D01*
X205486Y-4131005D01*
X201828Y-4133189D01*
X197510Y-4133697D01*
X193446Y-4132376D01*
X184912Y-4127500D01*
X176326Y-4124096D01*
X176326Y-4173626D01*
X185166Y-4173626D01*
X189280Y-4174490D01*
X192684Y-4176979D01*
X194767Y-4180586D01*
X195275Y-4184802D01*
X194767Y-4190085D01*
X194767Y-4209897D01*
X195275Y-4215180D01*
X194767Y-4219397D01*
X192684Y-4223004D01*
X189280Y-4225493D01*
X185166Y-4226356D01*
X176326Y-4226356D01*
X176326Y-4275886D01*
X184912Y-4272483D01*
X193446Y-4267606D01*
X197510Y-4266285D01*
X201828Y-4266793D01*
X205486Y-4268978D01*
X207924Y-4272534D01*
X213106Y-4285335D01*
X213563Y-4287520D01*
X214985Y-4289196D01*
X222859Y-4304182D01*
X233730Y-4320794D01*
X246329Y-4336440D01*
X247954Y-4339386D01*
X248564Y-4342790D01*
X248564Y-4351426D01*
X257505Y-4351426D01*
X260959Y-4352036D01*
X264058Y-4353814D01*
X275234Y-4363262D01*
X291592Y-4374540D01*
X308914Y-4384192D01*
X312318Y-4386275D01*
X314807Y-4386783D01*
X327558Y-4392320D01*
X331012Y-4394809D01*
X333146Y-4398467D01*
X333603Y-4402683D01*
X332333Y-4406696D01*
X327507Y-4415078D01*
G37*
G36*
X604164Y-4351426D02*
G01*
X653694Y-4351426D01*
X650290Y-4342892D01*
X644296Y-4332478D01*
X636778Y-4323029D01*
X627989Y-4314850D01*
X618032Y-4308094D01*
X607212Y-4302861D01*
X604164Y-4301947D01*
G37*
G36*
X146304Y-4351426D02*
G01*
X195834Y-4351426D01*
X195834Y-4301947D01*
X192786Y-4302861D01*
X181965Y-4308094D01*
X172008Y-4314850D01*
X163220Y-4323029D01*
X155702Y-4332478D01*
X149707Y-4342892D01*
G37*
G36*
X6846316Y-4351426D02*
G01*
X6895846Y-4351426D01*
X6895846Y-4301947D01*
X6892798Y-4302861D01*
X6881926Y-4308094D01*
X6872020Y-4314850D01*
X6863181Y-4323029D01*
X6855714Y-4332478D01*
X6849668Y-4342892D01*
G37*
G36*
X7304125Y-4351426D02*
G01*
X7353655Y-4351426D01*
X7350302Y-4342892D01*
X7344257Y-4332478D01*
X7336790Y-4323029D01*
X7327950Y-4314850D01*
X7318044Y-4308094D01*
X7307173Y-4302861D01*
X7304125Y-4301947D01*
G37*
G36*
X676351Y-4275886D02*
G01*
X684936Y-4272483D01*
X695350Y-4266488D01*
X704748Y-4258970D01*
X712927Y-4250182D01*
X719683Y-4240225D01*
X724916Y-4229404D01*
X725881Y-4226356D01*
X676351Y-4226356D01*
G37*
G36*
X6823659Y-4275886D02*
G01*
X6823659Y-4226356D01*
X6774129Y-4226356D01*
X6775094Y-4229404D01*
X6780275Y-4240225D01*
X6787083Y-4250182D01*
X6795262Y-4258970D01*
X6804659Y-4266488D01*
X6815074Y-4272483D01*
G37*
G36*
X123647Y-4275886D02*
G01*
X123647Y-4226356D01*
X74117Y-4226356D01*
X75082Y-4229404D01*
X80314Y-4240225D01*
X87071Y-4250182D01*
X95250Y-4258970D01*
X104648Y-4266488D01*
X115062Y-4272483D01*
G37*
G36*
X7376312Y-4275886D02*
G01*
X7384897Y-4272483D01*
X7395311Y-4266488D01*
X7404709Y-4258970D01*
X7412888Y-4250182D01*
X7419695Y-4240225D01*
X7424877Y-4229404D01*
X7425842Y-4226356D01*
X7376312Y-4226356D01*
G37*
G36*
X676351Y-4173626D02*
G01*
X725881Y-4173626D01*
X724916Y-4170578D01*
X719683Y-4159758D01*
X712927Y-4149801D01*
X704748Y-4141012D01*
X695350Y-4133494D01*
X684936Y-4127500D01*
X676351Y-4124096D01*
G37*
G36*
X6774129Y-4173626D02*
G01*
X6823659Y-4173626D01*
X6823659Y-4124096D01*
X6815074Y-4127500D01*
X6804659Y-4133494D01*
X6795262Y-4141012D01*
X6787083Y-4149801D01*
X6780275Y-4159758D01*
X6775094Y-4170578D01*
G37*
G36*
X7376312Y-4173626D02*
G01*
X7425842Y-4173626D01*
X7424877Y-4170578D01*
X7419695Y-4159758D01*
X7412888Y-4149801D01*
X7404709Y-4141012D01*
X7395311Y-4133494D01*
X7384897Y-4127500D01*
X7376312Y-4124096D01*
G37*
G36*
X74117Y-4173626D02*
G01*
X123647Y-4173626D01*
X123647Y-4124096D01*
X115062Y-4127500D01*
X104648Y-4133494D01*
X95250Y-4141012D01*
X87071Y-4149801D01*
X80314Y-4159758D01*
X75082Y-4170578D01*
G37*
G36*
X604164Y-4098036D02*
G01*
X607212Y-4097121D01*
X618032Y-4091889D01*
X627989Y-4085132D01*
X636778Y-4076954D01*
X644296Y-4067505D01*
X650290Y-4057091D01*
X653694Y-4048556D01*
X604164Y-4048556D01*
G37*
G36*
X195834Y-4098036D02*
G01*
X195834Y-4048556D01*
X146304Y-4048556D01*
X149707Y-4057091D01*
X155702Y-4067505D01*
X163220Y-4076954D01*
X172008Y-4085132D01*
X181965Y-4091889D01*
X192786Y-4097121D01*
G37*
G36*
X7304125Y-4098036D02*
G01*
X7307173Y-4097121D01*
X7318044Y-4091889D01*
X7327950Y-4085132D01*
X7336790Y-4076954D01*
X7344257Y-4067505D01*
X7350302Y-4057091D01*
X7353655Y-4048556D01*
X7304125Y-4048556D01*
G37*
G36*
X6895846Y-4098036D02*
G01*
X6895846Y-4048556D01*
X6846316Y-4048556D01*
X6849668Y-4057091D01*
X6855714Y-4067505D01*
X6863181Y-4076954D01*
X6872020Y-4085132D01*
X6881926Y-4091889D01*
X6892798Y-4097121D01*
G37*
G36*
X5533491Y-4070146D02*
G01*
X5548325Y-4069689D01*
X5562955Y-4067403D01*
X5577230Y-4063339D01*
X5590895Y-4057548D01*
X5603748Y-4050131D01*
X5615584Y-4041190D01*
X5626252Y-4030878D01*
X5635548Y-4019296D01*
X5643372Y-4006697D01*
X5649569Y-3993235D01*
X5654040Y-3979113D01*
X5656783Y-3964482D01*
X5657697Y-3949700D01*
X5656783Y-3934917D01*
X5654040Y-3920286D01*
X5649569Y-3906164D01*
X5643372Y-3892702D01*
X5635548Y-3880104D01*
X5626252Y-3868521D01*
X5615584Y-3858209D01*
X5603748Y-3849268D01*
X5590895Y-3841851D01*
X5577230Y-3836060D01*
X5562955Y-3831996D01*
X5548325Y-3829710D01*
X5533491Y-3829253D01*
X5518708Y-3830624D01*
X5504230Y-3833825D01*
X5490260Y-3838752D01*
X5476951Y-3845356D01*
X5464606Y-3853535D01*
X5453329Y-3863187D01*
X5443321Y-3874160D01*
X5434736Y-3886250D01*
X5427726Y-3899357D01*
X5422392Y-3913174D01*
X5418785Y-3927551D01*
X5416956Y-3942283D01*
X5416956Y-3957116D01*
X5418785Y-3971848D01*
X5422392Y-3986225D01*
X5427726Y-4000042D01*
X5434736Y-4013149D01*
X5443321Y-4025239D01*
X5453329Y-4036212D01*
X5464606Y-4045864D01*
X5476951Y-4054043D01*
X5490260Y-4060647D01*
X5504230Y-4065574D01*
X5518708Y-4068775D01*
G37*
G36*
X5998870Y-4060850D02*
G01*
X5998870Y-3996029D01*
X5934202Y-3996029D01*
X5935726Y-4000042D01*
X5942736Y-4013149D01*
X5951321Y-4025239D01*
X5961329Y-4036212D01*
X5972606Y-4045864D01*
X5984951Y-4054043D01*
G37*
G36*
X6091529Y-4060647D02*
G01*
X6098895Y-4057548D01*
X6111748Y-4050131D01*
X6123584Y-4041190D01*
X6134252Y-4030878D01*
X6143548Y-4019296D01*
X6151372Y-4006697D01*
X6156248Y-3996029D01*
X6091529Y-3996029D01*
G37*
G36*
X604164Y-3995826D02*
G01*
X653694Y-3995826D01*
X650290Y-3987292D01*
X644296Y-3976878D01*
X636778Y-3967429D01*
X627989Y-3959250D01*
X618032Y-3952494D01*
X607212Y-3947261D01*
X604164Y-3946347D01*
G37*
G36*
X146304Y-3995826D02*
G01*
X195834Y-3995826D01*
X195834Y-3946347D01*
X192786Y-3947261D01*
X181965Y-3952494D01*
X172008Y-3959250D01*
X163220Y-3967429D01*
X155702Y-3976878D01*
X149707Y-3987292D01*
G37*
G36*
X248564Y-3995826D02*
G01*
X298094Y-3995826D01*
X294690Y-3987292D01*
X288696Y-3976878D01*
X281178Y-3967429D01*
X272389Y-3959250D01*
X262432Y-3952494D01*
X251612Y-3947261D01*
X248564Y-3946347D01*
G37*
G36*
X501904Y-3995826D02*
G01*
X551434Y-3995826D01*
X551434Y-3946347D01*
X548386Y-3947261D01*
X537565Y-3952494D01*
X527608Y-3959250D01*
X518820Y-3967429D01*
X511301Y-3976878D01*
X505307Y-3987292D01*
G37*
G36*
X6846316Y-3995826D02*
G01*
X6895846Y-3995826D01*
X6895846Y-3946347D01*
X6892798Y-3947261D01*
X6881926Y-3952494D01*
X6872020Y-3959250D01*
X6863181Y-3967429D01*
X6855714Y-3976878D01*
X6849668Y-3987292D01*
G37*
G36*
X6948525Y-3995826D02*
G01*
X6998055Y-3995826D01*
X6994702Y-3987292D01*
X6988657Y-3976878D01*
X6981190Y-3967429D01*
X6972350Y-3959250D01*
X6962444Y-3952494D01*
X6951573Y-3947261D01*
X6948525Y-3946347D01*
G37*
G36*
X7201916Y-3995826D02*
G01*
X7251446Y-3995826D01*
X7251446Y-3946347D01*
X7248398Y-3947261D01*
X7237526Y-3952494D01*
X7227620Y-3959250D01*
X7218781Y-3967429D01*
X7211314Y-3976878D01*
X7205268Y-3987292D01*
G37*
G36*
X7304125Y-3995826D02*
G01*
X7353655Y-3995826D01*
X7350302Y-3987292D01*
X7344257Y-3976878D01*
X7336790Y-3967429D01*
X7327950Y-3959250D01*
X7318044Y-3952494D01*
X7307173Y-3947261D01*
X7304125Y-3946347D01*
G37*
G36*
X426364Y-3923639D02*
G01*
X475894Y-3923639D01*
X472490Y-3915054D01*
X466496Y-3904640D01*
X458978Y-3895242D01*
X450189Y-3887063D01*
X440232Y-3880307D01*
X429412Y-3875074D01*
X426364Y-3874109D01*
G37*
G36*
X324104Y-3923639D02*
G01*
X373634Y-3923639D01*
X373634Y-3874109D01*
X370586Y-3875074D01*
X359765Y-3880307D01*
X349808Y-3887063D01*
X341020Y-3895242D01*
X333502Y-3904640D01*
X327507Y-3915054D01*
G37*
G36*
X7024116Y-3923639D02*
G01*
X7073646Y-3923639D01*
X7073646Y-3874109D01*
X7070598Y-3875074D01*
X7059726Y-3880307D01*
X7049820Y-3887063D01*
X7040981Y-3895242D01*
X7033514Y-3904640D01*
X7027468Y-3915054D01*
G37*
G36*
X7126325Y-3923639D02*
G01*
X7175855Y-3923639D01*
X7172502Y-3915054D01*
X7166457Y-3904640D01*
X7158990Y-3895242D01*
X7150150Y-3887063D01*
X7140244Y-3880307D01*
X7129373Y-3875074D01*
X7126325Y-3874109D01*
G37*
G36*
X6091529Y-3903370D02*
G01*
X6156248Y-3903370D01*
X6151372Y-3892702D01*
X6143548Y-3880104D01*
X6134252Y-3868521D01*
X6123584Y-3858209D01*
X6111748Y-3849268D01*
X6098895Y-3841851D01*
X6091529Y-3838752D01*
G37*
G36*
X5934202Y-3903370D02*
G01*
X5998870Y-3903370D01*
X5998870Y-3838549D01*
X5984951Y-3845356D01*
X5972606Y-3853535D01*
X5961329Y-3863187D01*
X5951321Y-3874160D01*
X5942736Y-3886250D01*
X5935726Y-3899357D01*
G37*
G36*
X1124102Y-3891026D02*
G01*
X1343507Y-3891026D01*
X1359509Y-3890111D01*
X1375054Y-3887470D01*
X1390192Y-3883151D01*
X1404772Y-3877106D01*
X1418539Y-3869486D01*
X1431391Y-3860342D01*
X1443126Y-3849878D01*
X1453642Y-3838143D01*
X1462735Y-3825290D01*
X1470406Y-3811473D01*
X1476400Y-3796944D01*
X1480769Y-3781806D01*
X1483410Y-3766261D01*
X1484274Y-3750513D01*
X1483410Y-3734815D01*
X1480769Y-3719271D01*
X1476400Y-3704132D01*
X1470406Y-3689553D01*
X1462735Y-3675786D01*
X1453642Y-3662934D01*
X1443126Y-3651199D01*
X1431391Y-3640683D01*
X1418539Y-3631590D01*
X1404772Y-3623919D01*
X1390192Y-3617925D01*
X1375054Y-3613556D01*
X1359509Y-3610914D01*
X1343507Y-3610000D01*
X1124102Y-3610000D01*
X1108049Y-3610914D01*
X1092555Y-3613556D01*
X1077417Y-3617925D01*
X1062837Y-3623919D01*
X1049070Y-3631590D01*
X1036218Y-3640683D01*
X1024483Y-3651199D01*
X1013968Y-3662934D01*
X1004824Y-3675786D01*
X997203Y-3689553D01*
X991209Y-3704132D01*
X986840Y-3719271D01*
X984199Y-3734815D01*
X983335Y-3750513D01*
X984199Y-3766261D01*
X986840Y-3781806D01*
X991209Y-3796944D01*
X997203Y-3811473D01*
X1004824Y-3825290D01*
X1013968Y-3838143D01*
X1024483Y-3849878D01*
X1036218Y-3860342D01*
X1049070Y-3869486D01*
X1062837Y-3877106D01*
X1077417Y-3883151D01*
X1092555Y-3887470D01*
X1108049Y-3890111D01*
G37*
G36*
X2700274Y-3725570D02*
G01*
X2709926Y-3725570D01*
X2719476Y-3723894D01*
X2728518Y-3720592D01*
X2740558Y-3713479D01*
X2744063Y-3712870D01*
X2748026Y-3712870D01*
X2757576Y-3711194D01*
X2766618Y-3707892D01*
X2775000Y-3703015D01*
X2782773Y-3696512D01*
X2858516Y-3620820D01*
X2861919Y-3617061D01*
X2864866Y-3613251D01*
X2867456Y-3609136D01*
X2869692Y-3604869D01*
X2871571Y-3600399D01*
X2872994Y-3595776D01*
X2874060Y-3591051D01*
X2874670Y-3586226D01*
X2874924Y-3581196D01*
X2874924Y-3492703D01*
X2874670Y-3487674D01*
X2874060Y-3482848D01*
X2872994Y-3478123D01*
X2871571Y-3473500D01*
X2869692Y-3469030D01*
X2867456Y-3464763D01*
X2864866Y-3460648D01*
X2861919Y-3456838D01*
X2858516Y-3453079D01*
X2833420Y-3427984D01*
X2829661Y-3424580D01*
X2825851Y-3421634D01*
X2821736Y-3419043D01*
X2817469Y-3416808D01*
X2812999Y-3414928D01*
X2808376Y-3413506D01*
X2803652Y-3412439D01*
X2798826Y-3411829D01*
X2793796Y-3411575D01*
X2756103Y-3411575D01*
X2751074Y-3411829D01*
X2746248Y-3412439D01*
X2741523Y-3413506D01*
X2736900Y-3414928D01*
X2732430Y-3416808D01*
X2728214Y-3418992D01*
X2723337Y-3422192D01*
X2719730Y-3423665D01*
X2715869Y-3423665D01*
X2712262Y-3422192D01*
X2707386Y-3418992D01*
X2703169Y-3416808D01*
X2698699Y-3414928D01*
X2694076Y-3413506D01*
X2689352Y-3412439D01*
X2684526Y-3411829D01*
X2679496Y-3411575D01*
X2641803Y-3411575D01*
X2636774Y-3411829D01*
X2631948Y-3412439D01*
X2627223Y-3413506D01*
X2622600Y-3414928D01*
X2618130Y-3416808D01*
X2613863Y-3419043D01*
X2609748Y-3421634D01*
X2605938Y-3424580D01*
X2602179Y-3427984D01*
X2577084Y-3453079D01*
X2573680Y-3456838D01*
X2570734Y-3460648D01*
X2568143Y-3464763D01*
X2565908Y-3469030D01*
X2564028Y-3473500D01*
X2562606Y-3478123D01*
X2561539Y-3482848D01*
X2560929Y-3487674D01*
X2560675Y-3492703D01*
X2560675Y-3581196D01*
X2560929Y-3586226D01*
X2561539Y-3591051D01*
X2562606Y-3595776D01*
X2564028Y-3600399D01*
X2565908Y-3604869D01*
X2568143Y-3609136D01*
X2570734Y-3613251D01*
X2573680Y-3617061D01*
X2577084Y-3620820D01*
X2665526Y-3709212D01*
X2673299Y-3715715D01*
X2681681Y-3720592D01*
X2690723Y-3723894D01*
G37*
G36*
X3162757Y-3713124D02*
G01*
X3187496Y-3713124D01*
X3192526Y-3712870D01*
X3197352Y-3712260D01*
X3202076Y-3711194D01*
X3206699Y-3709771D01*
X3211169Y-3707892D01*
X3215436Y-3705656D01*
X3219551Y-3703065D01*
X3223361Y-3700119D01*
X3227120Y-3696715D01*
X3239008Y-3684778D01*
X3242716Y-3682441D01*
X3247085Y-3681831D01*
X3251301Y-3683152D01*
X3254502Y-3686149D01*
X3259531Y-3693261D01*
X3266338Y-3700068D01*
X3274263Y-3705656D01*
X3283051Y-3709720D01*
X3292348Y-3712210D01*
X3302000Y-3713073D01*
X3311651Y-3712210D01*
X3320948Y-3709720D01*
X3329736Y-3705656D01*
X3337661Y-3700068D01*
X3345129Y-3692601D01*
X3348431Y-3690416D01*
X3353308Y-3689654D01*
X3357372Y-3690518D01*
X3360775Y-3692956D01*
X3364331Y-3696868D01*
X3367938Y-3700119D01*
X3371748Y-3703065D01*
X3375863Y-3705656D01*
X3380130Y-3707892D01*
X3384600Y-3709771D01*
X3389223Y-3711194D01*
X3393948Y-3712260D01*
X3398774Y-3712870D01*
X3403600Y-3713073D01*
X3408426Y-3712870D01*
X3413251Y-3712260D01*
X3417976Y-3711194D01*
X3422599Y-3709771D01*
X3427069Y-3707892D01*
X3431336Y-3705656D01*
X3435451Y-3703065D01*
X3439109Y-3700272D01*
X3440633Y-3698697D01*
X3443681Y-3696614D01*
X3447237Y-3695750D01*
X3450894Y-3696208D01*
X3454146Y-3697884D01*
X3460699Y-3703116D01*
X3464763Y-3705656D01*
X3469030Y-3707892D01*
X3473500Y-3709771D01*
X3478123Y-3711194D01*
X3482848Y-3712260D01*
X3487674Y-3712870D01*
X3492500Y-3713073D01*
X3497326Y-3712870D01*
X3502151Y-3712260D01*
X3506876Y-3711194D01*
X3511499Y-3709771D01*
X3515969Y-3707892D01*
X3520236Y-3705656D01*
X3524351Y-3703065D01*
X3528161Y-3700119D01*
X3531768Y-3696868D01*
X3535019Y-3693261D01*
X3537965Y-3689451D01*
X3540556Y-3685336D01*
X3542792Y-3681069D01*
X3544671Y-3676599D01*
X3546094Y-3671976D01*
X3547160Y-3667251D01*
X3547770Y-3662426D01*
X3548024Y-3657396D01*
X3548024Y-3645458D01*
X3548430Y-3642512D01*
X3549751Y-3639769D01*
X3553307Y-3634435D01*
X3555492Y-3630269D01*
X3557371Y-3625799D01*
X3558794Y-3621176D01*
X3559860Y-3616451D01*
X3560470Y-3611626D01*
X3560724Y-3606596D01*
X3560724Y-3594658D01*
X3561130Y-3591712D01*
X3562451Y-3588969D01*
X3566007Y-3583635D01*
X3568192Y-3579469D01*
X3570020Y-3575100D01*
X3571798Y-3568801D01*
X3573779Y-3565093D01*
X3576015Y-3562400D01*
X3580892Y-3554018D01*
X3584194Y-3544976D01*
X3585870Y-3535426D01*
X3585870Y-3525774D01*
X3584194Y-3516223D01*
X3580892Y-3507181D01*
X3576015Y-3498799D01*
X3569817Y-3491382D01*
X3562400Y-3485184D01*
X3554018Y-3480308D01*
X3544976Y-3477006D01*
X3535426Y-3475329D01*
X3525774Y-3475329D01*
X3516223Y-3477006D01*
X3507181Y-3480308D01*
X3497630Y-3485946D01*
X3494125Y-3487216D01*
X3490417Y-3487115D01*
X3486962Y-3485692D01*
X3482086Y-3482492D01*
X3477869Y-3480308D01*
X3473399Y-3478428D01*
X3468776Y-3477006D01*
X3464051Y-3475939D01*
X3459226Y-3475329D01*
X3454400Y-3475126D01*
X3449574Y-3475329D01*
X3444748Y-3475939D01*
X3440023Y-3477006D01*
X3435400Y-3478428D01*
X3430930Y-3480308D01*
X3426714Y-3482492D01*
X3421735Y-3485794D01*
X3418027Y-3487267D01*
X3414014Y-3487216D01*
X3410305Y-3485642D01*
X3405936Y-3482543D01*
X3397148Y-3478479D01*
X3387851Y-3475990D01*
X3379317Y-3475228D01*
X3375914Y-3474313D01*
X3373018Y-3472281D01*
X3370986Y-3469386D01*
X3370072Y-3465982D01*
X3369310Y-3457448D01*
X3366820Y-3448151D01*
X3362756Y-3439363D01*
X3357168Y-3431438D01*
X3350361Y-3424631D01*
X3342436Y-3419043D01*
X3333648Y-3414979D01*
X3324351Y-3412490D01*
X3314242Y-3411575D01*
X3302457Y-3411575D01*
X3292348Y-3412490D01*
X3283051Y-3414979D01*
X3274263Y-3419043D01*
X3266338Y-3424631D01*
X3264712Y-3426206D01*
X3261461Y-3428441D01*
X3257550Y-3429203D01*
X3253638Y-3428441D01*
X3250387Y-3426206D01*
X3248761Y-3424631D01*
X3240836Y-3419043D01*
X3232048Y-3414979D01*
X3222752Y-3412490D01*
X3213100Y-3411626D01*
X3203448Y-3412490D01*
X3194151Y-3414979D01*
X3185363Y-3419043D01*
X3177438Y-3424631D01*
X3170631Y-3431438D01*
X3164535Y-3440074D01*
X3162300Y-3442411D01*
X3159404Y-3443935D01*
X3155645Y-3444443D01*
X3152495Y-3443935D01*
X3149600Y-3442411D01*
X3147364Y-3440074D01*
X3141268Y-3431438D01*
X3134461Y-3424631D01*
X3126536Y-3419043D01*
X3117748Y-3414979D01*
X3108452Y-3412490D01*
X3098800Y-3411626D01*
X3089148Y-3412490D01*
X3079851Y-3414979D01*
X3071063Y-3419043D01*
X3063138Y-3424631D01*
X3056331Y-3431438D01*
X3050743Y-3439363D01*
X3046679Y-3448151D01*
X3044190Y-3457448D01*
X3043428Y-3465829D01*
X3042412Y-3469436D01*
X3040176Y-3472434D01*
X3037027Y-3474415D01*
X3033318Y-3475075D01*
X3022803Y-3475075D01*
X3017774Y-3475329D01*
X3012948Y-3475939D01*
X3008223Y-3477006D01*
X3003600Y-3478428D01*
X2999130Y-3480308D01*
X2994863Y-3482543D01*
X2990748Y-3485134D01*
X2986938Y-3488080D01*
X2983179Y-3491484D01*
X2958084Y-3516579D01*
X2954680Y-3520338D01*
X2951734Y-3524148D01*
X2949143Y-3528263D01*
X2946908Y-3532530D01*
X2945028Y-3537000D01*
X2943606Y-3541623D01*
X2942539Y-3546348D01*
X2941929Y-3551174D01*
X2941675Y-3556203D01*
X2941675Y-3657142D01*
X2942590Y-3667251D01*
X2945079Y-3676548D01*
X2949143Y-3685336D01*
X2954731Y-3693261D01*
X2961538Y-3700068D01*
X2969463Y-3705656D01*
X2978251Y-3709720D01*
X2987548Y-3712210D01*
X2997200Y-3713073D01*
X3006852Y-3712210D01*
X3016148Y-3709720D01*
X3024936Y-3705656D01*
X3032861Y-3700068D01*
X3040329Y-3692601D01*
X3043631Y-3690416D01*
X3048508Y-3689654D01*
X3052368Y-3690416D01*
X3055670Y-3692601D01*
X3063138Y-3700068D01*
X3071063Y-3705656D01*
X3079851Y-3709720D01*
X3089148Y-3712210D01*
X3098800Y-3713073D01*
X3108452Y-3712210D01*
X3117748Y-3709720D01*
X3126232Y-3705758D01*
X3130550Y-3704793D01*
X3134868Y-3705758D01*
X3143351Y-3709720D01*
X3152648Y-3712210D01*
G37*
G36*
X3746703Y-3713124D02*
G01*
X3797096Y-3713124D01*
X3802126Y-3712870D01*
X3806951Y-3712260D01*
X3811676Y-3711194D01*
X3816299Y-3709771D01*
X3820769Y-3707892D01*
X3825036Y-3705656D01*
X3829151Y-3703065D01*
X3832961Y-3700119D01*
X3836720Y-3696715D01*
X3841140Y-3692245D01*
X3844442Y-3690061D01*
X3848354Y-3689299D01*
X3852265Y-3690061D01*
X3855567Y-3692296D01*
X3863289Y-3700119D01*
X3871163Y-3705656D01*
X3879951Y-3709720D01*
X3889248Y-3712210D01*
X3898900Y-3713073D01*
X3908551Y-3712210D01*
X3915308Y-3710432D01*
X3917950Y-3710076D01*
X3920591Y-3710432D01*
X3927348Y-3712210D01*
X3937457Y-3713124D01*
X3949496Y-3713124D01*
X3954526Y-3712870D01*
X3959351Y-3712260D01*
X3964076Y-3711194D01*
X3968699Y-3709771D01*
X3973169Y-3707892D01*
X3977436Y-3705656D01*
X3981551Y-3703065D01*
X3985361Y-3700119D01*
X3989120Y-3696715D01*
X3997604Y-3688181D01*
X3999737Y-3686556D01*
X4002176Y-3685540D01*
X4007053Y-3684270D01*
X4011168Y-3684015D01*
X4015028Y-3685438D01*
X4017975Y-3688232D01*
X4021531Y-3693261D01*
X4028338Y-3700068D01*
X4036263Y-3705656D01*
X4045051Y-3709720D01*
X4054348Y-3712210D01*
X4064000Y-3713073D01*
X4073651Y-3712210D01*
X4080306Y-3710432D01*
X4083405Y-3710076D01*
X4092448Y-3712260D01*
X4097274Y-3712870D01*
X4102303Y-3713124D01*
X4139996Y-3713124D01*
X4145026Y-3712870D01*
X4149851Y-3712260D01*
X4154576Y-3711194D01*
X4159199Y-3709771D01*
X4163669Y-3707892D01*
X4167936Y-3705656D01*
X4172051Y-3703065D01*
X4175861Y-3700119D01*
X4179620Y-3696715D01*
X4184040Y-3692245D01*
X4187342Y-3690061D01*
X4191254Y-3689299D01*
X4195165Y-3690061D01*
X4198467Y-3692296D01*
X4206189Y-3700119D01*
X4214063Y-3705656D01*
X4222851Y-3709720D01*
X4232148Y-3712210D01*
X4241800Y-3713073D01*
X4251452Y-3712210D01*
X4260748Y-3709720D01*
X4269536Y-3705656D01*
X4277461Y-3700068D01*
X4284268Y-3693261D01*
X4287570Y-3690264D01*
X4291838Y-3688994D01*
X4296257Y-3689654D01*
X4299915Y-3692093D01*
X4306773Y-3699256D01*
X4314596Y-3704996D01*
X4323232Y-3709263D01*
X4332528Y-3712006D01*
X4342130Y-3713073D01*
X4351782Y-3712413D01*
X4361180Y-3710127D01*
X4370019Y-3706266D01*
X4378096Y-3700881D01*
X4389120Y-3690264D01*
X4392625Y-3689045D01*
X4396333Y-3689096D01*
X4399788Y-3690518D01*
X4409948Y-3700576D01*
X4417923Y-3706012D01*
X4426762Y-3709974D01*
X4436160Y-3712362D01*
X4445762Y-3713073D01*
X4455414Y-3712108D01*
X4464710Y-3709466D01*
X4473397Y-3705250D01*
X4481271Y-3699560D01*
X4487976Y-3692651D01*
X4493412Y-3684676D01*
X4497374Y-3675837D01*
X4499762Y-3666439D01*
X4500473Y-3656380D01*
X4499254Y-3566820D01*
X4499000Y-3562654D01*
X4498238Y-3556965D01*
X4497374Y-3553155D01*
X4495596Y-3547668D01*
X4494072Y-3544062D01*
X4491380Y-3538931D01*
X4489246Y-3535679D01*
X4485690Y-3531108D01*
X4482846Y-3528060D01*
X4446320Y-3491484D01*
X4442561Y-3488080D01*
X4438751Y-3485134D01*
X4434636Y-3482543D01*
X4430369Y-3480308D01*
X4425899Y-3478428D01*
X4421276Y-3477006D01*
X4416552Y-3475939D01*
X4411726Y-3475329D01*
X4406696Y-3475075D01*
X4369257Y-3475075D01*
X4359148Y-3475990D01*
X4349800Y-3478479D01*
X4341215Y-3482441D01*
X4338218Y-3483254D01*
X4335119Y-3483203D01*
X4332173Y-3482136D01*
X4328718Y-3480257D01*
X4324299Y-3478428D01*
X4319676Y-3477006D01*
X4314952Y-3475939D01*
X4310126Y-3475329D01*
X4305096Y-3475075D01*
X4267403Y-3475075D01*
X4262374Y-3475329D01*
X4257548Y-3475939D01*
X4252823Y-3477006D01*
X4248200Y-3478428D01*
X4243730Y-3480308D01*
X4239463Y-3482543D01*
X4235348Y-3485134D01*
X4231538Y-3488080D01*
X4227779Y-3491484D01*
X4217212Y-3502050D01*
X4213961Y-3504285D01*
X4210050Y-3505047D01*
X4206138Y-3504285D01*
X4202887Y-3502050D01*
X4192320Y-3491484D01*
X4188561Y-3488080D01*
X4184751Y-3485134D01*
X4180636Y-3482543D01*
X4176369Y-3480308D01*
X4171899Y-3478428D01*
X4167276Y-3477006D01*
X4162551Y-3475939D01*
X4157726Y-3475329D01*
X4152696Y-3475075D01*
X4102303Y-3475075D01*
X4097274Y-3475329D01*
X4092651Y-3475939D01*
X4085590Y-3477768D01*
X4082592Y-3478072D01*
X4073651Y-3475939D01*
X4068826Y-3475329D01*
X4064000Y-3475126D01*
X4059174Y-3475329D01*
X4054348Y-3475939D01*
X4049623Y-3477006D01*
X4045000Y-3478428D01*
X4040530Y-3480308D01*
X4036263Y-3482543D01*
X4032148Y-3485134D01*
X4028338Y-3488080D01*
X4024731Y-3491331D01*
X4021480Y-3494938D01*
X4018534Y-3498748D01*
X4015994Y-3502761D01*
X4012895Y-3509010D01*
X4010609Y-3512058D01*
X4007307Y-3514039D01*
X4003497Y-3514699D01*
X3999788Y-3513836D01*
X3996588Y-3511702D01*
X3991660Y-3506724D01*
X3987901Y-3503320D01*
X3984091Y-3500374D01*
X3979976Y-3497783D01*
X3975709Y-3495548D01*
X3971239Y-3493668D01*
X3966667Y-3492246D01*
X3962450Y-3491331D01*
X3959250Y-3490061D01*
X3956659Y-3487826D01*
X3954983Y-3484829D01*
X3954424Y-3481425D01*
X3954424Y-3467557D01*
X3953510Y-3457448D01*
X3951020Y-3448151D01*
X3946956Y-3439363D01*
X3941368Y-3431438D01*
X3934561Y-3424631D01*
X3926636Y-3419043D01*
X3917848Y-3414979D01*
X3908551Y-3412490D01*
X3898900Y-3411626D01*
X3889248Y-3412490D01*
X3879951Y-3414979D01*
X3871163Y-3419043D01*
X3863238Y-3424631D01*
X3856431Y-3431438D01*
X3850843Y-3439363D01*
X3846779Y-3448151D01*
X3844290Y-3457448D01*
X3843375Y-3467557D01*
X3843375Y-3475685D01*
X3842461Y-3479901D01*
X3839921Y-3483356D01*
X3836111Y-3485438D01*
X3831793Y-3485743D01*
X3827779Y-3484270D01*
X3825036Y-3482543D01*
X3820769Y-3480308D01*
X3816299Y-3478428D01*
X3811676Y-3477006D01*
X3806951Y-3475939D01*
X3802126Y-3475329D01*
X3797096Y-3475075D01*
X3759403Y-3475075D01*
X3754374Y-3475329D01*
X3749548Y-3475939D01*
X3744823Y-3477006D01*
X3740200Y-3478428D01*
X3735730Y-3480308D01*
X3731463Y-3482543D01*
X3727348Y-3485134D01*
X3723538Y-3488080D01*
X3719779Y-3491484D01*
X3694684Y-3516579D01*
X3691280Y-3520338D01*
X3688334Y-3524148D01*
X3685743Y-3528263D01*
X3683508Y-3532530D01*
X3681628Y-3537000D01*
X3680206Y-3541623D01*
X3679139Y-3546348D01*
X3678529Y-3551174D01*
X3678275Y-3556203D01*
X3678275Y-3580942D01*
X3679240Y-3591509D01*
X3678783Y-3595471D01*
X3676853Y-3598926D01*
X3675684Y-3600399D01*
X3670808Y-3608781D01*
X3667506Y-3617823D01*
X3665829Y-3627374D01*
X3665829Y-3637026D01*
X3667506Y-3646576D01*
X3670808Y-3655618D01*
X3675684Y-3664000D01*
X3682187Y-3671773D01*
X3707079Y-3696715D01*
X3710838Y-3700119D01*
X3714648Y-3703065D01*
X3718763Y-3705656D01*
X3723030Y-3707892D01*
X3727500Y-3709771D01*
X3732123Y-3711194D01*
X3736848Y-3712260D01*
X3741674Y-3712870D01*
G37*
G36*
X1493875Y-3548532D02*
G01*
X1509572Y-3547668D01*
X1525117Y-3545027D01*
X1540256Y-3540658D01*
X1554784Y-3534664D01*
X1568602Y-3527044D01*
X1581454Y-3517900D01*
X1593189Y-3507384D01*
X1603705Y-3495649D01*
X1612798Y-3482797D01*
X1620418Y-3469030D01*
X1626463Y-3454450D01*
X1630832Y-3439312D01*
X1633474Y-3423767D01*
X1634337Y-3407765D01*
X1634337Y-3188360D01*
X1633474Y-3172358D01*
X1630832Y-3156813D01*
X1626463Y-3141675D01*
X1620418Y-3127095D01*
X1612798Y-3113328D01*
X1603705Y-3100476D01*
X1593189Y-3088741D01*
X1581454Y-3078226D01*
X1568602Y-3069082D01*
X1554784Y-3061462D01*
X1540256Y-3055467D01*
X1525117Y-3051098D01*
X1509572Y-3048457D01*
X1493875Y-3047593D01*
X1478127Y-3048457D01*
X1462582Y-3051098D01*
X1447444Y-3055467D01*
X1432915Y-3061462D01*
X1419098Y-3069082D01*
X1406245Y-3078226D01*
X1394510Y-3088741D01*
X1383995Y-3100476D01*
X1374902Y-3113328D01*
X1367282Y-3127095D01*
X1361236Y-3141675D01*
X1356868Y-3156813D01*
X1354226Y-3172358D01*
X1353362Y-3188360D01*
X1353362Y-3407765D01*
X1354226Y-3423767D01*
X1356868Y-3439312D01*
X1361236Y-3454450D01*
X1367282Y-3469030D01*
X1374902Y-3482797D01*
X1383995Y-3495649D01*
X1394510Y-3507384D01*
X1406245Y-3517900D01*
X1419098Y-3527044D01*
X1432915Y-3534664D01*
X1447444Y-3540658D01*
X1462582Y-3545027D01*
X1478127Y-3547668D01*
G37*
G36*
X920191Y-3534105D02*
G01*
X924763Y-3532174D01*
X938580Y-3524554D01*
X951433Y-3515461D01*
X963168Y-3504946D01*
X973683Y-3493211D01*
X982776Y-3480358D01*
X990396Y-3466541D01*
X996442Y-3452012D01*
X1000810Y-3436874D01*
X1003452Y-3421329D01*
X1004265Y-3406952D01*
X920191Y-3406952D01*
G37*
G36*
X807466Y-3534105D02*
G01*
X807466Y-3406952D01*
X723392Y-3406952D01*
X724204Y-3421329D01*
X726846Y-3436874D01*
X731215Y-3452012D01*
X737260Y-3466541D01*
X744880Y-3480358D01*
X753973Y-3493211D01*
X764489Y-3504946D01*
X776224Y-3515461D01*
X789076Y-3524554D01*
X802894Y-3532174D01*
G37*
G36*
X2002891Y-3358946D02*
G01*
X2017725Y-3358489D01*
X2032355Y-3356203D01*
X2046630Y-3352139D01*
X2060295Y-3346348D01*
X2073148Y-3338931D01*
X2084984Y-3329990D01*
X2095652Y-3319678D01*
X2104948Y-3308096D01*
X2112772Y-3295497D01*
X2118969Y-3282035D01*
X2123440Y-3267913D01*
X2126183Y-3253282D01*
X2127097Y-3238500D01*
X2126183Y-3223717D01*
X2123440Y-3209086D01*
X2118969Y-3194964D01*
X2112772Y-3181502D01*
X2104948Y-3168904D01*
X2095652Y-3157321D01*
X2084984Y-3147009D01*
X2073148Y-3138068D01*
X2060295Y-3130651D01*
X2046630Y-3124860D01*
X2032355Y-3120796D01*
X2017725Y-3118510D01*
X2002891Y-3118053D01*
X1988108Y-3119424D01*
X1973630Y-3122625D01*
X1959660Y-3127552D01*
X1946351Y-3134156D01*
X1934006Y-3142335D01*
X1922729Y-3151987D01*
X1912721Y-3162960D01*
X1904136Y-3175050D01*
X1897125Y-3188157D01*
X1891792Y-3201974D01*
X1888185Y-3216351D01*
X1886356Y-3231083D01*
X1886356Y-3245916D01*
X1888185Y-3260648D01*
X1891792Y-3275025D01*
X1897125Y-3288842D01*
X1904136Y-3301949D01*
X1912721Y-3314039D01*
X1922729Y-3325012D01*
X1934006Y-3334664D01*
X1946351Y-3342843D01*
X1959660Y-3349447D01*
X1973630Y-3354374D01*
X1988108Y-3357575D01*
G37*
G36*
X2468270Y-3349650D02*
G01*
X2468270Y-3284829D01*
X2403602Y-3284829D01*
X2405126Y-3288842D01*
X2412136Y-3301949D01*
X2420721Y-3314039D01*
X2430729Y-3325012D01*
X2442006Y-3334664D01*
X2454351Y-3342843D01*
G37*
G36*
X2560929Y-3349447D02*
G01*
X2568295Y-3346348D01*
X2581148Y-3338931D01*
X2592984Y-3329990D01*
X2603652Y-3319678D01*
X2612948Y-3308096D01*
X2620772Y-3295497D01*
X2625648Y-3284829D01*
X2560929Y-3284829D01*
G37*
G36*
X5011826Y-3324351D02*
G01*
X5013858Y-3323590D01*
X5028031Y-3316122D01*
X5041290Y-3307079D01*
X5053431Y-3296564D01*
X5064252Y-3284728D01*
X5073700Y-3271774D01*
X5081574Y-3257803D01*
X5083962Y-3252165D01*
X5011826Y-3252165D01*
G37*
G36*
X3101848Y-3324351D02*
G01*
X3103880Y-3323590D01*
X3118053Y-3316122D01*
X3131312Y-3307079D01*
X3143402Y-3296564D01*
X3154273Y-3284728D01*
X3163671Y-3271774D01*
X3171596Y-3257803D01*
X3173984Y-3252165D01*
X3101848Y-3252165D01*
G37*
G36*
X2989173Y-3324250D02*
G01*
X2989173Y-3252165D01*
X2916885Y-3252165D01*
X2923184Y-3264865D01*
X2931820Y-3278378D01*
X2941980Y-3290824D01*
X2953512Y-3302000D01*
X2966212Y-3311753D01*
X2979928Y-3320034D01*
G37*
G36*
X4899152Y-3324250D02*
G01*
X4899152Y-3252165D01*
X4826914Y-3252165D01*
X4833162Y-3264865D01*
X4841849Y-3278378D01*
X4852009Y-3290824D01*
X4863490Y-3302000D01*
X4876190Y-3311753D01*
X4889957Y-3320034D01*
G37*
G36*
X6953250Y-3207664D02*
G01*
X6958482Y-3205581D01*
X6971334Y-3198520D01*
X6983171Y-3189884D01*
X6993839Y-3179876D01*
X7003186Y-3168599D01*
X7011060Y-3156204D01*
X7016597Y-3144469D01*
X6953250Y-3144469D01*
G37*
G36*
X2560929Y-3192170D02*
G01*
X2625648Y-3192170D01*
X2620772Y-3181502D01*
X2612948Y-3168904D01*
X2603652Y-3157321D01*
X2592984Y-3147009D01*
X2581148Y-3138068D01*
X2568295Y-3130651D01*
X2560929Y-3127552D01*
G37*
G36*
X2403602Y-3192170D02*
G01*
X2468270Y-3192170D01*
X2468270Y-3127349D01*
X2454351Y-3134156D01*
X2442006Y-3142335D01*
X2430729Y-3151987D01*
X2420721Y-3162960D01*
X2412136Y-3175050D01*
X2405126Y-3188157D01*
G37*
G36*
X723392Y-3184245D02*
G01*
X807466Y-3184245D01*
X807466Y-3057093D01*
X802894Y-3059023D01*
X789076Y-3066643D01*
X776224Y-3075736D01*
X764489Y-3086252D01*
X753973Y-3097987D01*
X744880Y-3110839D01*
X737260Y-3124657D01*
X731215Y-3139186D01*
X726846Y-3154324D01*
X724204Y-3169869D01*
G37*
G36*
X920191Y-3184245D02*
G01*
X1004265Y-3184245D01*
X1003452Y-3169869D01*
X1000810Y-3154324D01*
X996442Y-3139186D01*
X990396Y-3124657D01*
X982776Y-3110839D01*
X973683Y-3097987D01*
X963168Y-3086252D01*
X951433Y-3075736D01*
X938580Y-3066643D01*
X924763Y-3059023D01*
X920191Y-3057093D01*
G37*
G36*
X3101848Y-3139440D02*
G01*
X3173984Y-3139440D01*
X3171596Y-3133801D01*
X3163671Y-3119831D01*
X3154273Y-3106877D01*
X3143402Y-3095040D01*
X3131312Y-3084525D01*
X3120542Y-3077210D01*
X3117799Y-3074416D01*
X3116326Y-3070758D01*
X3116326Y-3066846D01*
X3117799Y-3063189D01*
X3120542Y-3060395D01*
X3131312Y-3053080D01*
X3143402Y-3042564D01*
X3154273Y-3030728D01*
X3163671Y-3017774D01*
X3171596Y-3003804D01*
X3173984Y-2998165D01*
X3101848Y-2998165D01*
G37*
G36*
X5011826Y-3139440D02*
G01*
X5083962Y-3139440D01*
X5081574Y-3133801D01*
X5073700Y-3119831D01*
X5064252Y-3106877D01*
X5053431Y-3095040D01*
X5041290Y-3084525D01*
X5030520Y-3077210D01*
X5027777Y-3074416D01*
X5026304Y-3070758D01*
X5026304Y-3066846D01*
X5027777Y-3063189D01*
X5030520Y-3060395D01*
X5041290Y-3053080D01*
X5053431Y-3042564D01*
X5064252Y-3030728D01*
X5073700Y-3017774D01*
X5081574Y-3003804D01*
X5083962Y-2998165D01*
X5011826Y-2998165D01*
G37*
G36*
X4826914Y-3139440D02*
G01*
X4899152Y-3139440D01*
X4899152Y-2998165D01*
X4826914Y-2998165D01*
X4833162Y-3010865D01*
X4841849Y-3024378D01*
X4852009Y-3036824D01*
X4863490Y-3048000D01*
X4876190Y-3057753D01*
X4880051Y-3060090D01*
X4883099Y-3062935D01*
X4884775Y-3066745D01*
X4884775Y-3070860D01*
X4883099Y-3074670D01*
X4880051Y-3077514D01*
X4876190Y-3079851D01*
X4863490Y-3089605D01*
X4852009Y-3100781D01*
X4841849Y-3113227D01*
X4833162Y-3126740D01*
G37*
G36*
X2916885Y-3139440D02*
G01*
X2989173Y-3139440D01*
X2989173Y-2998165D01*
X2916885Y-2998165D01*
X2923184Y-3010865D01*
X2931820Y-3024378D01*
X2941980Y-3036824D01*
X2953512Y-3048000D01*
X2966212Y-3057753D01*
X2970072Y-3060090D01*
X2973120Y-3062935D01*
X2974746Y-3066745D01*
X2974746Y-3070860D01*
X2973120Y-3074670D01*
X2970072Y-3077514D01*
X2966212Y-3079851D01*
X2953512Y-3089605D01*
X2941980Y-3100781D01*
X2931820Y-3113227D01*
X2923184Y-3126740D01*
G37*
G36*
X6953250Y-3055569D02*
G01*
X7016597Y-3055569D01*
X7011060Y-3043783D01*
X7003186Y-3031388D01*
X6993839Y-3020110D01*
X6983171Y-3010103D01*
X6971334Y-3001467D01*
X6958482Y-2994406D01*
X6953250Y-2992323D01*
G37*
G36*
X5011826Y-2885440D02*
G01*
X5083962Y-2885440D01*
X5081574Y-2879801D01*
X5073700Y-2865831D01*
X5064252Y-2852877D01*
X5053431Y-2841040D01*
X5041290Y-2830525D01*
X5028031Y-2821482D01*
X5013858Y-2814015D01*
X5011826Y-2813253D01*
G37*
G36*
X3101848Y-2885440D02*
G01*
X3173984Y-2885440D01*
X3171596Y-2879801D01*
X3163671Y-2865831D01*
X3154273Y-2852877D01*
X3143402Y-2841040D01*
X3131312Y-2830525D01*
X3118053Y-2821482D01*
X3103880Y-2814015D01*
X3101848Y-2813253D01*
G37*
G36*
X4826914Y-2885440D02*
G01*
X4899152Y-2885440D01*
X4899152Y-2813354D01*
X4889957Y-2817571D01*
X4876190Y-2825851D01*
X4863490Y-2835605D01*
X4852009Y-2846832D01*
X4841849Y-2859227D01*
X4833162Y-2872740D01*
G37*
G36*
X2916885Y-2885440D02*
G01*
X2989173Y-2885440D01*
X2989173Y-2813354D01*
X2979928Y-2817571D01*
X2966212Y-2825851D01*
X2953512Y-2835605D01*
X2941980Y-2846832D01*
X2931820Y-2859227D01*
X2923184Y-2872740D01*
G37*
G36*
X368808Y-2732887D02*
G01*
X400050Y-2732887D01*
X400050Y-2660650D01*
X327812Y-2660650D01*
X327812Y-2691892D01*
X328625Y-2700274D01*
X330911Y-2707894D01*
X334670Y-2714853D01*
X339699Y-2721000D01*
X345846Y-2726029D01*
X352806Y-2729788D01*
X360426Y-2732074D01*
G37*
G36*
X488950Y-2732887D02*
G01*
X520192Y-2732887D01*
X528574Y-2732074D01*
X536194Y-2729788D01*
X543153Y-2726029D01*
X549300Y-2721000D01*
X554329Y-2714853D01*
X558088Y-2707894D01*
X560374Y-2700274D01*
X561187Y-2691892D01*
X561187Y-2660650D01*
X488950Y-2660650D01*
G37*
G36*
X5545429Y-2606395D02*
G01*
X5578602Y-2606395D01*
X5586984Y-2605582D01*
X5594553Y-2603296D01*
X5601563Y-2599537D01*
X5607710Y-2594508D01*
X5612739Y-2588361D01*
X5616448Y-2581402D01*
X5618784Y-2573782D01*
X5619597Y-2565400D01*
X5619597Y-2532227D01*
X5545429Y-2532227D01*
G37*
G36*
X5419598Y-2606395D02*
G01*
X5452719Y-2606395D01*
X5452719Y-2532227D01*
X5378602Y-2532227D01*
X5378602Y-2565400D01*
X5379415Y-2573782D01*
X5381701Y-2581402D01*
X5385460Y-2588361D01*
X5390489Y-2594508D01*
X5396636Y-2599537D01*
X5403596Y-2603296D01*
X5411216Y-2605582D01*
G37*
G36*
X930808Y-2606344D02*
G01*
X945591Y-2604973D01*
X960069Y-2601772D01*
X974039Y-2596845D01*
X987348Y-2590241D01*
X999693Y-2582062D01*
X1010970Y-2572410D01*
X1020978Y-2561437D01*
X1029512Y-2549347D01*
X1036574Y-2536240D01*
X1041908Y-2522423D01*
X1044194Y-2513431D01*
X1045819Y-2509875D01*
X1048715Y-2507234D01*
X1052372Y-2505862D01*
X1056284Y-2506014D01*
X1059840Y-2507589D01*
X1062583Y-2510434D01*
X1068730Y-2529433D01*
X1074928Y-2542895D01*
X1082751Y-2555494D01*
X1092047Y-2567076D01*
X1102715Y-2577388D01*
X1114552Y-2586329D01*
X1127404Y-2593746D01*
X1141069Y-2599537D01*
X1155293Y-2603601D01*
X1169974Y-2605887D01*
X1184808Y-2606344D01*
X1199591Y-2604973D01*
X1214069Y-2601772D01*
X1228039Y-2596845D01*
X1241348Y-2590241D01*
X1253693Y-2582062D01*
X1264970Y-2572410D01*
X1274978Y-2561437D01*
X1283512Y-2549347D01*
X1290574Y-2536240D01*
X1295908Y-2522423D01*
X1298194Y-2513431D01*
X1299819Y-2509875D01*
X1302715Y-2507234D01*
X1306372Y-2505862D01*
X1310284Y-2506014D01*
X1313840Y-2507589D01*
X1316583Y-2510434D01*
X1322730Y-2529433D01*
X1328928Y-2542895D01*
X1336751Y-2555494D01*
X1346047Y-2567076D01*
X1356715Y-2577388D01*
X1368552Y-2586329D01*
X1381404Y-2593746D01*
X1395069Y-2599537D01*
X1409293Y-2603601D01*
X1423974Y-2605887D01*
X1438808Y-2606344D01*
X1453591Y-2604973D01*
X1468069Y-2601772D01*
X1482039Y-2596845D01*
X1495348Y-2590241D01*
X1507693Y-2582062D01*
X1518970Y-2572410D01*
X1528978Y-2561437D01*
X1537512Y-2549347D01*
X1544574Y-2536240D01*
X1549908Y-2522423D01*
X1552194Y-2513431D01*
X1553819Y-2509875D01*
X1556715Y-2507234D01*
X1560372Y-2505862D01*
X1564284Y-2506014D01*
X1567840Y-2507589D01*
X1570583Y-2510434D01*
X1576730Y-2529433D01*
X1582928Y-2542895D01*
X1590751Y-2555494D01*
X1600047Y-2567076D01*
X1610715Y-2577388D01*
X1622552Y-2586329D01*
X1635404Y-2593746D01*
X1649069Y-2599537D01*
X1663293Y-2603601D01*
X1677974Y-2605887D01*
X1692808Y-2606344D01*
X1707591Y-2604973D01*
X1722069Y-2601772D01*
X1736039Y-2596845D01*
X1749348Y-2590241D01*
X1761693Y-2582062D01*
X1772970Y-2572410D01*
X1782978Y-2561437D01*
X1791512Y-2549347D01*
X1798574Y-2536240D01*
X1803907Y-2522423D01*
X1806193Y-2513431D01*
X1807819Y-2509875D01*
X1810715Y-2507234D01*
X1814372Y-2505862D01*
X1818284Y-2506014D01*
X1821840Y-2507589D01*
X1824583Y-2510434D01*
X1830730Y-2529433D01*
X1836928Y-2542895D01*
X1844751Y-2555494D01*
X1854047Y-2567076D01*
X1864715Y-2577388D01*
X1876552Y-2586329D01*
X1889404Y-2593746D01*
X1903069Y-2599537D01*
X1917293Y-2603601D01*
X1931974Y-2605887D01*
X1946808Y-2606344D01*
X1961591Y-2604973D01*
X1976069Y-2601772D01*
X1990039Y-2596845D01*
X2003348Y-2590241D01*
X2015693Y-2582062D01*
X2026970Y-2572410D01*
X2036978Y-2561437D01*
X2045512Y-2549347D01*
X2052574Y-2536240D01*
X2057907Y-2522423D01*
X2060193Y-2513431D01*
X2061819Y-2509875D01*
X2064715Y-2507234D01*
X2068372Y-2505862D01*
X2072284Y-2506014D01*
X2075840Y-2507589D01*
X2078583Y-2510434D01*
X2084730Y-2529433D01*
X2090928Y-2542895D01*
X2098751Y-2555494D01*
X2108047Y-2567076D01*
X2118715Y-2577388D01*
X2130552Y-2586329D01*
X2143404Y-2593746D01*
X2157069Y-2599537D01*
X2171293Y-2603601D01*
X2185974Y-2605887D01*
X2200808Y-2606344D01*
X2215591Y-2604973D01*
X2230069Y-2601772D01*
X2244039Y-2596845D01*
X2257348Y-2590241D01*
X2269693Y-2582062D01*
X2280970Y-2572410D01*
X2290978Y-2561437D01*
X2299512Y-2549347D01*
X2306574Y-2536240D01*
X2311908Y-2522423D01*
X2314194Y-2513431D01*
X2315819Y-2509875D01*
X2318715Y-2507234D01*
X2322372Y-2505862D01*
X2326284Y-2506014D01*
X2329840Y-2507589D01*
X2332583Y-2510434D01*
X2338730Y-2529433D01*
X2344928Y-2542895D01*
X2352751Y-2555494D01*
X2362047Y-2567076D01*
X2372715Y-2577388D01*
X2384552Y-2586329D01*
X2397404Y-2593746D01*
X2411069Y-2599537D01*
X2425293Y-2603601D01*
X2439974Y-2605887D01*
X2454808Y-2606344D01*
X2469591Y-2604973D01*
X2484069Y-2601772D01*
X2498039Y-2596845D01*
X2511348Y-2590241D01*
X2523693Y-2582062D01*
X2534970Y-2572410D01*
X2544978Y-2561437D01*
X2553512Y-2549347D01*
X2560574Y-2536240D01*
X2565908Y-2522423D01*
X2568194Y-2513431D01*
X2569819Y-2509875D01*
X2572715Y-2507234D01*
X2576372Y-2505862D01*
X2580284Y-2506014D01*
X2583840Y-2507589D01*
X2586583Y-2510434D01*
X2592730Y-2529433D01*
X2598928Y-2542895D01*
X2606751Y-2555494D01*
X2616047Y-2567076D01*
X2626715Y-2577388D01*
X2638552Y-2586329D01*
X2651404Y-2593746D01*
X2665069Y-2599537D01*
X2679293Y-2603601D01*
X2693974Y-2605887D01*
X2708808Y-2606344D01*
X2723591Y-2604973D01*
X2738069Y-2601772D01*
X2752039Y-2596845D01*
X2765348Y-2590241D01*
X2777693Y-2582062D01*
X2788970Y-2572410D01*
X2798978Y-2561437D01*
X2807512Y-2549347D01*
X2814574Y-2536240D01*
X2819908Y-2522423D01*
X2822194Y-2513431D01*
X2823819Y-2509875D01*
X2826715Y-2507234D01*
X2830372Y-2505862D01*
X2834284Y-2506014D01*
X2837840Y-2507589D01*
X2840583Y-2510434D01*
X2846730Y-2529433D01*
X2852928Y-2542895D01*
X2860751Y-2555494D01*
X2870047Y-2567076D01*
X2880715Y-2577388D01*
X2892552Y-2586329D01*
X2905404Y-2593746D01*
X2919069Y-2599537D01*
X2933293Y-2603601D01*
X2947974Y-2605887D01*
X2962808Y-2606344D01*
X2977591Y-2604973D01*
X2992069Y-2601772D01*
X3006039Y-2596845D01*
X3019348Y-2590241D01*
X3031693Y-2582062D01*
X3042970Y-2572410D01*
X3052978Y-2561437D01*
X3061512Y-2549347D01*
X3068574Y-2536240D01*
X3073908Y-2522423D01*
X3076194Y-2513431D01*
X3077819Y-2509875D01*
X3080715Y-2507234D01*
X3084372Y-2505862D01*
X3088284Y-2506014D01*
X3091840Y-2507589D01*
X3094583Y-2510434D01*
X3100730Y-2529433D01*
X3106928Y-2542895D01*
X3114751Y-2555494D01*
X3124047Y-2567076D01*
X3134715Y-2577388D01*
X3146552Y-2586329D01*
X3159404Y-2593746D01*
X3173069Y-2599537D01*
X3187293Y-2603601D01*
X3201974Y-2605887D01*
X3216808Y-2606344D01*
X3231591Y-2604973D01*
X3246069Y-2601772D01*
X3260039Y-2596845D01*
X3273348Y-2590241D01*
X3285693Y-2582062D01*
X3296970Y-2572410D01*
X3306978Y-2561437D01*
X3315512Y-2549347D01*
X3322574Y-2536240D01*
X3327908Y-2522423D01*
X3330194Y-2513431D01*
X3331819Y-2509875D01*
X3334715Y-2507234D01*
X3338372Y-2505862D01*
X3342284Y-2506014D01*
X3345840Y-2507589D01*
X3348583Y-2510434D01*
X3354730Y-2529433D01*
X3360928Y-2542895D01*
X3368751Y-2555494D01*
X3378047Y-2567076D01*
X3388715Y-2577388D01*
X3400551Y-2586329D01*
X3413404Y-2593746D01*
X3427069Y-2599537D01*
X3441293Y-2603601D01*
X3455974Y-2605887D01*
X3470808Y-2606344D01*
X3485591Y-2604973D01*
X3500069Y-2601772D01*
X3514039Y-2596845D01*
X3527348Y-2590241D01*
X3539693Y-2582062D01*
X3550970Y-2572410D01*
X3560978Y-2561437D01*
X3569512Y-2549347D01*
X3576574Y-2536240D01*
X3581908Y-2522423D01*
X3584194Y-2513431D01*
X3585819Y-2509875D01*
X3588715Y-2507234D01*
X3592372Y-2505862D01*
X3596284Y-2506014D01*
X3599840Y-2507589D01*
X3602583Y-2510434D01*
X3608730Y-2529433D01*
X3614928Y-2542895D01*
X3622751Y-2555494D01*
X3632047Y-2567076D01*
X3642715Y-2577388D01*
X3654551Y-2586329D01*
X3667404Y-2593746D01*
X3681069Y-2599537D01*
X3695293Y-2603601D01*
X3709974Y-2605887D01*
X3724808Y-2606344D01*
X3739591Y-2604973D01*
X3754069Y-2601772D01*
X3768039Y-2596845D01*
X3781348Y-2590241D01*
X3793693Y-2582062D01*
X3804970Y-2572410D01*
X3814978Y-2561437D01*
X3823512Y-2549347D01*
X3830574Y-2536240D01*
X3835908Y-2522423D01*
X3839514Y-2508046D01*
X3841343Y-2493314D01*
X3841343Y-2478481D01*
X3839514Y-2463749D01*
X3835908Y-2449372D01*
X3830574Y-2435555D01*
X3823512Y-2422448D01*
X3814978Y-2410358D01*
X3804970Y-2399385D01*
X3793693Y-2389733D01*
X3781348Y-2381554D01*
X3768039Y-2374950D01*
X3754069Y-2370023D01*
X3739591Y-2366822D01*
X3724808Y-2365451D01*
X3709974Y-2365908D01*
X3695293Y-2368194D01*
X3681069Y-2372258D01*
X3667404Y-2378049D01*
X3654551Y-2385466D01*
X3642715Y-2394407D01*
X3632047Y-2404719D01*
X3622751Y-2416302D01*
X3614928Y-2428900D01*
X3608730Y-2442362D01*
X3602583Y-2461361D01*
X3599840Y-2464206D01*
X3596284Y-2465781D01*
X3592372Y-2465882D01*
X3588715Y-2464562D01*
X3585819Y-2461869D01*
X3584194Y-2458364D01*
X3581908Y-2449372D01*
X3576574Y-2435555D01*
X3569512Y-2422448D01*
X3560978Y-2410358D01*
X3550970Y-2399385D01*
X3539693Y-2389733D01*
X3527348Y-2381554D01*
X3514039Y-2374950D01*
X3500069Y-2370023D01*
X3485591Y-2366822D01*
X3470808Y-2365451D01*
X3455974Y-2365908D01*
X3441293Y-2368194D01*
X3427069Y-2372258D01*
X3413404Y-2378049D01*
X3400551Y-2385466D01*
X3388715Y-2394407D01*
X3378047Y-2404719D01*
X3368751Y-2416302D01*
X3360928Y-2428900D01*
X3354730Y-2442362D01*
X3348583Y-2461361D01*
X3345840Y-2464206D01*
X3342284Y-2465781D01*
X3338372Y-2465882D01*
X3334715Y-2464562D01*
X3331819Y-2461869D01*
X3330194Y-2458364D01*
X3327908Y-2449372D01*
X3322574Y-2435555D01*
X3315512Y-2422448D01*
X3306978Y-2410358D01*
X3296970Y-2399385D01*
X3285693Y-2389733D01*
X3273348Y-2381554D01*
X3260039Y-2374950D01*
X3246069Y-2370023D01*
X3231591Y-2366822D01*
X3216808Y-2365451D01*
X3201974Y-2365908D01*
X3187293Y-2368194D01*
X3173069Y-2372258D01*
X3159404Y-2378049D01*
X3146552Y-2385466D01*
X3134715Y-2394407D01*
X3124047Y-2404719D01*
X3114751Y-2416302D01*
X3106928Y-2428900D01*
X3100730Y-2442362D01*
X3094583Y-2461361D01*
X3091840Y-2464206D01*
X3088284Y-2465781D01*
X3084372Y-2465882D01*
X3080715Y-2464562D01*
X3077819Y-2461869D01*
X3076194Y-2458364D01*
X3073908Y-2449372D01*
X3068574Y-2435555D01*
X3061512Y-2422448D01*
X3052978Y-2410358D01*
X3042970Y-2399385D01*
X3031693Y-2389733D01*
X3019348Y-2381554D01*
X3006039Y-2374950D01*
X2992069Y-2370023D01*
X2977591Y-2366822D01*
X2962808Y-2365451D01*
X2947974Y-2365908D01*
X2933293Y-2368194D01*
X2919069Y-2372258D01*
X2905404Y-2378049D01*
X2892552Y-2385466D01*
X2880715Y-2394407D01*
X2870047Y-2404719D01*
X2860751Y-2416302D01*
X2852928Y-2428900D01*
X2846730Y-2442362D01*
X2840583Y-2461361D01*
X2837840Y-2464206D01*
X2834284Y-2465781D01*
X2830372Y-2465882D01*
X2826715Y-2464562D01*
X2823819Y-2461869D01*
X2822194Y-2458364D01*
X2819908Y-2449372D01*
X2814574Y-2435555D01*
X2807512Y-2422448D01*
X2798978Y-2410358D01*
X2788970Y-2399385D01*
X2777693Y-2389733D01*
X2765348Y-2381554D01*
X2752039Y-2374950D01*
X2738069Y-2370023D01*
X2723591Y-2366822D01*
X2708808Y-2365451D01*
X2693974Y-2365908D01*
X2679293Y-2368194D01*
X2665069Y-2372258D01*
X2651404Y-2378049D01*
X2638552Y-2385466D01*
X2626715Y-2394407D01*
X2616047Y-2404719D01*
X2606751Y-2416302D01*
X2598928Y-2428900D01*
X2592730Y-2442362D01*
X2586583Y-2461361D01*
X2583840Y-2464206D01*
X2580284Y-2465781D01*
X2576372Y-2465882D01*
X2572715Y-2464562D01*
X2569819Y-2461869D01*
X2568194Y-2458364D01*
X2565908Y-2449372D01*
X2560574Y-2435555D01*
X2553512Y-2422448D01*
X2544978Y-2410358D01*
X2534970Y-2399385D01*
X2523693Y-2389733D01*
X2511348Y-2381554D01*
X2498039Y-2374950D01*
X2484069Y-2370023D01*
X2469591Y-2366822D01*
X2454808Y-2365451D01*
X2439974Y-2365908D01*
X2425293Y-2368194D01*
X2411069Y-2372258D01*
X2397404Y-2378049D01*
X2384552Y-2385466D01*
X2372715Y-2394407D01*
X2362047Y-2404719D01*
X2352751Y-2416302D01*
X2344928Y-2428900D01*
X2338730Y-2442362D01*
X2332583Y-2461361D01*
X2329840Y-2464206D01*
X2326284Y-2465781D01*
X2322372Y-2465882D01*
X2318715Y-2464562D01*
X2315819Y-2461869D01*
X2314194Y-2458364D01*
X2311908Y-2449372D01*
X2306574Y-2435555D01*
X2299512Y-2422448D01*
X2290978Y-2410358D01*
X2280970Y-2399385D01*
X2269693Y-2389733D01*
X2257348Y-2381554D01*
X2244039Y-2374950D01*
X2230069Y-2370023D01*
X2215591Y-2366822D01*
X2200808Y-2365451D01*
X2185974Y-2365908D01*
X2171293Y-2368194D01*
X2157069Y-2372258D01*
X2143404Y-2378049D01*
X2130552Y-2385466D01*
X2118715Y-2394407D01*
X2108047Y-2404719D01*
X2098751Y-2416302D01*
X2090928Y-2428900D01*
X2084730Y-2442362D01*
X2078583Y-2461361D01*
X2075840Y-2464206D01*
X2072284Y-2465781D01*
X2068372Y-2465882D01*
X2064715Y-2464562D01*
X2061819Y-2461869D01*
X2060193Y-2458364D01*
X2057907Y-2449372D01*
X2052574Y-2435555D01*
X2045512Y-2422448D01*
X2036978Y-2410358D01*
X2026970Y-2399385D01*
X2015693Y-2389733D01*
X2003348Y-2381554D01*
X1990039Y-2374950D01*
X1976069Y-2370023D01*
X1961591Y-2366822D01*
X1946808Y-2365451D01*
X1931974Y-2365908D01*
X1917293Y-2368194D01*
X1903069Y-2372258D01*
X1889404Y-2378049D01*
X1876552Y-2385466D01*
X1864715Y-2394407D01*
X1854047Y-2404719D01*
X1844751Y-2416302D01*
X1836928Y-2428900D01*
X1830730Y-2442362D01*
X1824583Y-2461361D01*
X1821840Y-2464206D01*
X1818284Y-2465781D01*
X1814372Y-2465882D01*
X1810715Y-2464562D01*
X1807819Y-2461869D01*
X1806193Y-2458364D01*
X1803907Y-2449372D01*
X1798574Y-2435555D01*
X1791512Y-2422448D01*
X1782978Y-2410358D01*
X1772970Y-2399385D01*
X1761693Y-2389733D01*
X1749348Y-2381554D01*
X1736039Y-2374950D01*
X1722069Y-2370023D01*
X1707591Y-2366822D01*
X1692808Y-2365451D01*
X1677974Y-2365908D01*
X1663293Y-2368194D01*
X1649069Y-2372258D01*
X1635404Y-2378049D01*
X1622552Y-2385466D01*
X1610715Y-2394407D01*
X1600047Y-2404719D01*
X1590751Y-2416302D01*
X1582928Y-2428900D01*
X1576730Y-2442362D01*
X1570583Y-2461361D01*
X1567840Y-2464206D01*
X1564284Y-2465781D01*
X1560372Y-2465882D01*
X1556715Y-2464562D01*
X1553819Y-2461869D01*
X1552194Y-2458364D01*
X1549908Y-2449372D01*
X1544574Y-2435555D01*
X1537512Y-2422448D01*
X1528978Y-2410358D01*
X1518970Y-2399385D01*
X1507693Y-2389733D01*
X1495348Y-2381554D01*
X1482039Y-2374950D01*
X1468069Y-2370023D01*
X1453591Y-2366822D01*
X1438808Y-2365451D01*
X1423974Y-2365908D01*
X1409293Y-2368194D01*
X1395069Y-2372258D01*
X1381404Y-2378049D01*
X1368552Y-2385466D01*
X1356715Y-2394407D01*
X1346047Y-2404719D01*
X1336751Y-2416302D01*
X1328928Y-2428900D01*
X1322730Y-2442362D01*
X1316583Y-2461361D01*
X1313840Y-2464206D01*
X1310284Y-2465781D01*
X1306372Y-2465882D01*
X1302715Y-2464562D01*
X1299819Y-2461869D01*
X1298194Y-2458364D01*
X1295908Y-2449372D01*
X1290574Y-2435555D01*
X1283512Y-2422448D01*
X1274978Y-2410358D01*
X1264970Y-2399385D01*
X1253693Y-2389733D01*
X1241348Y-2381554D01*
X1228039Y-2374950D01*
X1214069Y-2370023D01*
X1199591Y-2366822D01*
X1184808Y-2365451D01*
X1169974Y-2365908D01*
X1155293Y-2368194D01*
X1141069Y-2372258D01*
X1127404Y-2378049D01*
X1114552Y-2385466D01*
X1102715Y-2394407D01*
X1092047Y-2404719D01*
X1082751Y-2416302D01*
X1074928Y-2428900D01*
X1068730Y-2442362D01*
X1062583Y-2461361D01*
X1059840Y-2464206D01*
X1056284Y-2465781D01*
X1052372Y-2465882D01*
X1048715Y-2464562D01*
X1045819Y-2461869D01*
X1044194Y-2458364D01*
X1041908Y-2449372D01*
X1036574Y-2435555D01*
X1029512Y-2422448D01*
X1020978Y-2410358D01*
X1010970Y-2399385D01*
X999693Y-2389733D01*
X987348Y-2381554D01*
X974039Y-2374950D01*
X960069Y-2370023D01*
X945591Y-2366822D01*
X930808Y-2365451D01*
X915974Y-2365908D01*
X901293Y-2368194D01*
X887069Y-2372258D01*
X873404Y-2378049D01*
X860552Y-2385466D01*
X848715Y-2394407D01*
X838047Y-2404719D01*
X828751Y-2416302D01*
X820928Y-2428900D01*
X814730Y-2442362D01*
X810260Y-2456484D01*
X807516Y-2471064D01*
X806602Y-2485898D01*
X807516Y-2500680D01*
X810260Y-2515260D01*
X814730Y-2529433D01*
X820928Y-2542895D01*
X828751Y-2555494D01*
X838047Y-2567076D01*
X848715Y-2577388D01*
X860552Y-2586329D01*
X873404Y-2593746D01*
X887069Y-2599537D01*
X901293Y-2603601D01*
X915974Y-2605887D01*
G37*
G36*
X4232808Y-2606344D02*
G01*
X4247591Y-2604973D01*
X4262069Y-2601772D01*
X4276039Y-2596845D01*
X4289348Y-2590241D01*
X4301693Y-2582062D01*
X4312970Y-2572410D01*
X4322978Y-2561437D01*
X4331512Y-2549347D01*
X4338574Y-2536240D01*
X4343908Y-2522423D01*
X4346194Y-2513431D01*
X4347819Y-2509875D01*
X4350715Y-2507234D01*
X4354372Y-2505862D01*
X4358284Y-2506014D01*
X4361840Y-2507589D01*
X4364583Y-2510434D01*
X4370730Y-2529433D01*
X4376928Y-2542895D01*
X4384751Y-2555494D01*
X4394047Y-2567076D01*
X4404715Y-2577388D01*
X4416552Y-2586329D01*
X4429404Y-2593746D01*
X4443069Y-2599537D01*
X4457293Y-2603601D01*
X4471974Y-2605887D01*
X4486808Y-2606344D01*
X4501591Y-2604973D01*
X4516069Y-2601772D01*
X4530039Y-2596845D01*
X4543348Y-2590241D01*
X4555693Y-2582062D01*
X4566970Y-2572410D01*
X4576978Y-2561437D01*
X4585512Y-2549347D01*
X4592574Y-2536240D01*
X4597908Y-2522423D01*
X4600194Y-2513431D01*
X4601819Y-2509875D01*
X4604715Y-2507234D01*
X4608372Y-2505862D01*
X4612284Y-2506014D01*
X4615840Y-2507589D01*
X4618583Y-2510434D01*
X4624730Y-2529433D01*
X4630928Y-2542895D01*
X4638751Y-2555494D01*
X4648047Y-2567076D01*
X4658715Y-2577388D01*
X4670552Y-2586329D01*
X4683404Y-2593746D01*
X4697069Y-2599537D01*
X4711293Y-2603601D01*
X4725974Y-2605887D01*
X4740808Y-2606344D01*
X4755591Y-2604973D01*
X4770069Y-2601772D01*
X4784039Y-2596845D01*
X4797348Y-2590241D01*
X4809693Y-2582062D01*
X4820970Y-2572410D01*
X4830978Y-2561437D01*
X4839512Y-2549347D01*
X4846574Y-2536240D01*
X4851908Y-2522423D01*
X4854194Y-2513431D01*
X4855819Y-2509875D01*
X4858715Y-2507234D01*
X4862372Y-2505862D01*
X4866284Y-2506014D01*
X4869840Y-2507589D01*
X4872583Y-2510434D01*
X4878730Y-2529433D01*
X4884928Y-2542895D01*
X4892751Y-2555494D01*
X4902047Y-2567076D01*
X4912715Y-2577388D01*
X4924552Y-2586329D01*
X4937404Y-2593746D01*
X4951069Y-2599537D01*
X4965293Y-2603601D01*
X4979974Y-2605887D01*
X4994808Y-2606344D01*
X5009591Y-2604973D01*
X5024069Y-2601772D01*
X5038039Y-2596845D01*
X5051348Y-2590241D01*
X5063693Y-2582062D01*
X5074970Y-2572410D01*
X5084978Y-2561437D01*
X5093512Y-2549347D01*
X5100574Y-2536240D01*
X5105908Y-2522423D01*
X5108194Y-2513431D01*
X5109819Y-2509875D01*
X5112715Y-2507234D01*
X5116372Y-2505862D01*
X5120284Y-2506014D01*
X5123840Y-2507589D01*
X5126583Y-2510434D01*
X5132730Y-2529433D01*
X5138928Y-2542895D01*
X5146751Y-2555494D01*
X5156047Y-2567076D01*
X5166715Y-2577388D01*
X5178552Y-2586329D01*
X5191404Y-2593746D01*
X5205069Y-2599537D01*
X5219293Y-2603601D01*
X5233974Y-2605887D01*
X5248808Y-2606344D01*
X5263591Y-2604973D01*
X5278069Y-2601772D01*
X5292039Y-2596845D01*
X5305348Y-2590241D01*
X5317693Y-2582062D01*
X5328970Y-2572410D01*
X5338978Y-2561437D01*
X5347512Y-2549347D01*
X5354574Y-2536240D01*
X5358942Y-2524912D01*
X5360416Y-2522575D01*
X5360619Y-2519629D01*
X5363514Y-2508046D01*
X5365343Y-2493314D01*
X5365343Y-2478481D01*
X5363514Y-2463749D01*
X5360619Y-2452166D01*
X5360416Y-2449220D01*
X5358942Y-2446883D01*
X5354574Y-2435555D01*
X5347512Y-2422448D01*
X5338978Y-2410358D01*
X5328970Y-2399385D01*
X5317693Y-2389733D01*
X5305348Y-2381554D01*
X5292039Y-2374950D01*
X5278069Y-2370023D01*
X5263591Y-2366822D01*
X5248808Y-2365451D01*
X5233974Y-2365908D01*
X5219293Y-2368194D01*
X5205069Y-2372258D01*
X5191404Y-2378049D01*
X5178552Y-2385466D01*
X5166715Y-2394407D01*
X5156047Y-2404719D01*
X5146751Y-2416302D01*
X5138928Y-2428900D01*
X5132730Y-2442362D01*
X5126583Y-2461361D01*
X5123840Y-2464206D01*
X5120284Y-2465781D01*
X5116372Y-2465882D01*
X5112715Y-2464562D01*
X5109819Y-2461869D01*
X5108194Y-2458364D01*
X5105908Y-2449372D01*
X5100574Y-2435555D01*
X5093512Y-2422448D01*
X5084978Y-2410358D01*
X5074970Y-2399385D01*
X5063693Y-2389733D01*
X5051348Y-2381554D01*
X5038039Y-2374950D01*
X5024069Y-2370023D01*
X5009591Y-2366822D01*
X4994808Y-2365451D01*
X4979974Y-2365908D01*
X4965293Y-2368194D01*
X4951069Y-2372258D01*
X4937404Y-2378049D01*
X4924552Y-2385466D01*
X4912715Y-2394407D01*
X4902047Y-2404719D01*
X4892751Y-2416302D01*
X4884928Y-2428900D01*
X4878730Y-2442362D01*
X4872583Y-2461361D01*
X4869840Y-2464206D01*
X4866284Y-2465781D01*
X4862372Y-2465882D01*
X4858715Y-2464562D01*
X4855819Y-2461869D01*
X4854194Y-2458364D01*
X4851908Y-2449372D01*
X4846574Y-2435555D01*
X4839512Y-2422448D01*
X4830978Y-2410358D01*
X4820970Y-2399385D01*
X4809693Y-2389733D01*
X4797348Y-2381554D01*
X4784039Y-2374950D01*
X4770069Y-2370023D01*
X4755540Y-2366822D01*
X4743856Y-2365603D01*
X4690719Y-2360980D01*
X4687316Y-2360066D01*
X4684420Y-2358034D01*
X4306620Y-1980184D01*
X4302861Y-1976780D01*
X4299051Y-1973834D01*
X4294936Y-1971243D01*
X4290669Y-1969007D01*
X4286199Y-1967128D01*
X4281576Y-1965706D01*
X4276852Y-1964639D01*
X4272026Y-1964029D01*
X4266996Y-1963775D01*
X611378Y-1963775D01*
X607517Y-1963013D01*
X604215Y-1960829D01*
X560120Y-1916684D01*
X556361Y-1913280D01*
X552551Y-1910334D01*
X548436Y-1907743D01*
X544169Y-1905507D01*
X539699Y-1903628D01*
X535076Y-1902206D01*
X530352Y-1901139D01*
X525526Y-1900529D01*
X520496Y-1900275D01*
X343103Y-1900275D01*
X338074Y-1900529D01*
X333248Y-1901139D01*
X328523Y-1902206D01*
X323900Y-1903628D01*
X319430Y-1905507D01*
X315163Y-1907743D01*
X311048Y-1910334D01*
X307238Y-1913280D01*
X303479Y-1916684D01*
X252984Y-1967179D01*
X249580Y-1970938D01*
X246634Y-1974748D01*
X244043Y-1978863D01*
X241808Y-1983130D01*
X239928Y-1987600D01*
X238506Y-1992223D01*
X237439Y-1996948D01*
X236829Y-2001774D01*
X236575Y-2006803D01*
X236575Y-2209596D01*
X236829Y-2214626D01*
X237439Y-2219452D01*
X238506Y-2224176D01*
X239928Y-2228799D01*
X241808Y-2233269D01*
X244043Y-2237536D01*
X246634Y-2241651D01*
X249580Y-2245461D01*
X252984Y-2249220D01*
X319430Y-2315667D01*
X321411Y-2318410D01*
X322376Y-2321661D01*
X328676Y-2376678D01*
X331470Y-2391206D01*
X335991Y-2405176D01*
X342239Y-2418435D01*
X350113Y-2430780D01*
X359460Y-2442057D01*
X370128Y-2452116D01*
X381965Y-2460701D01*
X394817Y-2467762D01*
X408432Y-2473198D01*
X422656Y-2476804D01*
X437184Y-2478633D01*
X451815Y-2478633D01*
X466343Y-2476804D01*
X480568Y-2473198D01*
X494182Y-2467762D01*
X507034Y-2460701D01*
X518871Y-2452116D01*
X529539Y-2442057D01*
X538886Y-2430780D01*
X546760Y-2418435D01*
X553008Y-2405176D01*
X557530Y-2391206D01*
X560273Y-2376830D01*
X561187Y-2362200D01*
X560273Y-2347569D01*
X557530Y-2333193D01*
X553008Y-2319223D01*
X546760Y-2305964D01*
X538886Y-2293620D01*
X529539Y-2282342D01*
X518871Y-2272284D01*
X507034Y-2263698D01*
X494182Y-2256637D01*
X480568Y-2251202D01*
X466343Y-2247595D01*
X445363Y-2244902D01*
X441248Y-2243480D01*
X438099Y-2240483D01*
X436524Y-2236419D01*
X436778Y-2232050D01*
X438810Y-2228240D01*
X442315Y-2225598D01*
X446582Y-2224633D01*
X451815Y-2224633D01*
X466343Y-2222804D01*
X480568Y-2219198D01*
X494182Y-2213762D01*
X507034Y-2206701D01*
X520039Y-2197150D01*
X559562Y-2165908D01*
X562508Y-2164283D01*
X565861Y-2163724D01*
X4062222Y-2163724D01*
X4066082Y-2164486D01*
X4069384Y-2166670D01*
X4251858Y-2349195D01*
X4254144Y-2352598D01*
X4254855Y-2356662D01*
X4253890Y-2360676D01*
X4251401Y-2363978D01*
X4247845Y-2366010D01*
X4243781Y-2366467D01*
X4232808Y-2365451D01*
X4217974Y-2365908D01*
X4203293Y-2368194D01*
X4189069Y-2372258D01*
X4175404Y-2378049D01*
X4162551Y-2385466D01*
X4150715Y-2394407D01*
X4140047Y-2404719D01*
X4130751Y-2416302D01*
X4122928Y-2428900D01*
X4116730Y-2442362D01*
X4112260Y-2456484D01*
X4109516Y-2471064D01*
X4108602Y-2485898D01*
X4109516Y-2500680D01*
X4112260Y-2515260D01*
X4116730Y-2529433D01*
X4122928Y-2542895D01*
X4130751Y-2555494D01*
X4140047Y-2567076D01*
X4150715Y-2577388D01*
X4162551Y-2586329D01*
X4175404Y-2593746D01*
X4189069Y-2599537D01*
X4203293Y-2603601D01*
X4217974Y-2605887D01*
G37*
G36*
X4021429Y-2597048D02*
G01*
X4035348Y-2590241D01*
X4047693Y-2582062D01*
X4058970Y-2572410D01*
X4068978Y-2561437D01*
X4077512Y-2549347D01*
X4084574Y-2536240D01*
X4086098Y-2532227D01*
X4021429Y-2532227D01*
G37*
G36*
X3928719Y-2596845D02*
G01*
X3928719Y-2532227D01*
X3864051Y-2532227D01*
X3868928Y-2542895D01*
X3876751Y-2555494D01*
X3886047Y-2567076D01*
X3896715Y-2577388D01*
X3908551Y-2586329D01*
X3921404Y-2593746D01*
G37*
G36*
X488950Y-2571750D02*
G01*
X561187Y-2571750D01*
X561187Y-2540508D01*
X560374Y-2532126D01*
X558088Y-2524506D01*
X554329Y-2517546D01*
X549300Y-2511399D01*
X543153Y-2506370D01*
X536194Y-2502611D01*
X528574Y-2500325D01*
X520192Y-2499512D01*
X488950Y-2499512D01*
G37*
G36*
X327812Y-2571750D02*
G01*
X400050Y-2571750D01*
X400050Y-2499512D01*
X368808Y-2499512D01*
X360426Y-2500325D01*
X352806Y-2502611D01*
X345846Y-2506370D01*
X339699Y-2511399D01*
X334670Y-2517546D01*
X330911Y-2524506D01*
X328625Y-2532126D01*
X327812Y-2540508D01*
G37*
G36*
X6579108Y-2566720D02*
G01*
X6730492Y-2566720D01*
X6738874Y-2565857D01*
X6746494Y-2563571D01*
X6753453Y-2559812D01*
X6759600Y-2554782D01*
X6764629Y-2548686D01*
X6768388Y-2541676D01*
X6770674Y-2534107D01*
X6771487Y-2525674D01*
X6771487Y-2374290D01*
X6770674Y-2365908D01*
X6768388Y-2358288D01*
X6764629Y-2351328D01*
X6759600Y-2345182D01*
X6753453Y-2340152D01*
X6746494Y-2336393D01*
X6738874Y-2334107D01*
X6730492Y-2333294D01*
X6579108Y-2333294D01*
X6570725Y-2334107D01*
X6563106Y-2336393D01*
X6556146Y-2340152D01*
X6549999Y-2345182D01*
X6544970Y-2351328D01*
X6541211Y-2358288D01*
X6538925Y-2365908D01*
X6538112Y-2374290D01*
X6538112Y-2525674D01*
X6538925Y-2534107D01*
X6541211Y-2541676D01*
X6544970Y-2548686D01*
X6549999Y-2554782D01*
X6556146Y-2559812D01*
X6563106Y-2563571D01*
X6570725Y-2565857D01*
G37*
G36*
X6864350Y-2557627D02*
G01*
X6864350Y-2494432D01*
X6801002Y-2494432D01*
X6806539Y-2506218D01*
X6814413Y-2518562D01*
X6823760Y-2529890D01*
X6834428Y-2539898D01*
X6846265Y-2548534D01*
X6859117Y-2555595D01*
G37*
G36*
X6953250Y-2557627D02*
G01*
X6958482Y-2555595D01*
X6971334Y-2548534D01*
X6983171Y-2539898D01*
X6993839Y-2529890D01*
X7003186Y-2518562D01*
X7011060Y-2506218D01*
X7016597Y-2494432D01*
X6953250Y-2494432D01*
G37*
G36*
X3864051Y-2439568D02*
G01*
X3928719Y-2439568D01*
X3928719Y-2374900D01*
X3921404Y-2378049D01*
X3908551Y-2385466D01*
X3896715Y-2394407D01*
X3886047Y-2404719D01*
X3876751Y-2416302D01*
X3868928Y-2428900D01*
G37*
G36*
X4021429Y-2439568D02*
G01*
X4086098Y-2439568D01*
X4084574Y-2435555D01*
X4077512Y-2422448D01*
X4068978Y-2410358D01*
X4058970Y-2399385D01*
X4047693Y-2389733D01*
X4035348Y-2381554D01*
X4021429Y-2374696D01*
G37*
G36*
X5378602Y-2439568D02*
G01*
X5452719Y-2439568D01*
X5452719Y-2365400D01*
X5419598Y-2365400D01*
X5411216Y-2366213D01*
X5403596Y-2368499D01*
X5396636Y-2372258D01*
X5390489Y-2377287D01*
X5385460Y-2383434D01*
X5381701Y-2390394D01*
X5379415Y-2398014D01*
X5378602Y-2406396D01*
G37*
G36*
X5545429Y-2439568D02*
G01*
X5619597Y-2439568D01*
X5619597Y-2406396D01*
X5618784Y-2398014D01*
X5616448Y-2390394D01*
X5612739Y-2383434D01*
X5607710Y-2377287D01*
X5601563Y-2372258D01*
X5594553Y-2368499D01*
X5586984Y-2366213D01*
X5578602Y-2365400D01*
X5545429Y-2365400D01*
G37*
G36*
X6801002Y-2405532D02*
G01*
X6864350Y-2405532D01*
X6864350Y-2342337D01*
X6859117Y-2344420D01*
X6846265Y-2351481D01*
X6834428Y-2360066D01*
X6823760Y-2370124D01*
X6814413Y-2381402D01*
X6806539Y-2393797D01*
G37*
G36*
X6953250Y-2405532D02*
G01*
X7016597Y-2405532D01*
X7011060Y-2393797D01*
X7003186Y-2381402D01*
X6993839Y-2370124D01*
X6983171Y-2360066D01*
X6971334Y-2351481D01*
X6958482Y-2344420D01*
X6953250Y-2342337D01*
G37*
G36*
X6618986Y-1830933D02*
G01*
X6633616Y-1830933D01*
X6648145Y-1829104D01*
X6662369Y-1825498D01*
X6675983Y-1820062D01*
X6688836Y-1813001D01*
X6700672Y-1804416D01*
X6711340Y-1794357D01*
X6720687Y-1783080D01*
X6728561Y-1770735D01*
X6734809Y-1757476D01*
X6739331Y-1743506D01*
X6742074Y-1729130D01*
X6742988Y-1714500D01*
X6742074Y-1699869D01*
X6739331Y-1685493D01*
X6734809Y-1671523D01*
X6728561Y-1658264D01*
X6720687Y-1645920D01*
X6711340Y-1634642D01*
X6700672Y-1624584D01*
X6688836Y-1615998D01*
X6675983Y-1608937D01*
X6662369Y-1603502D01*
X6648145Y-1599895D01*
X6633616Y-1598066D01*
X6618986Y-1598066D01*
X6604457Y-1599895D01*
X6590233Y-1603502D01*
X6576618Y-1608937D01*
X6563766Y-1615998D01*
X6551930Y-1624584D01*
X6541262Y-1634642D01*
X6531914Y-1645920D01*
X6524040Y-1658264D01*
X6517792Y-1671523D01*
X6513271Y-1685493D01*
X6510528Y-1699869D01*
X6509613Y-1714500D01*
X6510528Y-1729130D01*
X6513271Y-1743506D01*
X6517792Y-1757476D01*
X6524040Y-1770735D01*
X6531914Y-1783080D01*
X6541262Y-1794357D01*
X6551930Y-1804416D01*
X6563766Y-1813001D01*
X6576618Y-1820062D01*
X6590233Y-1825498D01*
X6604457Y-1829104D01*
G37*
G36*
X7244384Y-1830933D02*
G01*
X7259015Y-1830933D01*
X7273544Y-1829104D01*
X7287768Y-1825498D01*
X7301382Y-1820062D01*
X7314234Y-1813001D01*
X7326071Y-1804416D01*
X7336739Y-1794357D01*
X7346086Y-1783080D01*
X7353960Y-1770735D01*
X7360208Y-1757476D01*
X7364730Y-1743506D01*
X7367473Y-1729130D01*
X7368387Y-1714500D01*
X7367473Y-1699869D01*
X7364730Y-1685493D01*
X7360208Y-1671523D01*
X7353960Y-1658264D01*
X7346086Y-1645920D01*
X7336739Y-1634642D01*
X7326071Y-1624584D01*
X7314234Y-1615998D01*
X7301382Y-1608937D01*
X7287768Y-1603502D01*
X7273544Y-1599895D01*
X7259015Y-1598066D01*
X7244384Y-1598066D01*
X7229856Y-1599895D01*
X7215631Y-1603502D01*
X7202017Y-1608937D01*
X7189165Y-1615998D01*
X7177328Y-1624584D01*
X7166660Y-1634642D01*
X7157313Y-1645920D01*
X7149439Y-1658264D01*
X7143191Y-1671523D01*
X7138670Y-1685493D01*
X7135926Y-1699869D01*
X7135012Y-1714500D01*
X7135926Y-1729130D01*
X7138670Y-1743506D01*
X7143191Y-1757476D01*
X7149439Y-1770735D01*
X7157313Y-1783080D01*
X7166660Y-1794357D01*
X7177328Y-1804416D01*
X7189165Y-1813001D01*
X7202017Y-1820062D01*
X7215631Y-1825498D01*
X7229856Y-1829104D01*
G37*
G36*
X6670751Y-1568145D02*
G01*
X6675983Y-1566062D01*
X6688836Y-1559001D01*
X6700672Y-1550416D01*
X6711340Y-1540357D01*
X6720687Y-1529080D01*
X6728561Y-1516735D01*
X6734098Y-1504950D01*
X6670751Y-1504950D01*
G37*
G36*
X6051550Y-1568145D02*
G01*
X6056782Y-1566062D01*
X6069634Y-1559001D01*
X6081471Y-1550416D01*
X6092139Y-1540357D01*
X6101486Y-1529080D01*
X6109360Y-1516735D01*
X6114897Y-1504950D01*
X6051550Y-1504950D01*
G37*
G36*
X6581851Y-1568145D02*
G01*
X6581851Y-1504950D01*
X6518503Y-1504950D01*
X6524040Y-1516735D01*
X6531914Y-1529080D01*
X6541262Y-1540357D01*
X6551930Y-1550416D01*
X6563766Y-1559001D01*
X6576618Y-1566062D01*
G37*
G36*
X7296150Y-1568145D02*
G01*
X7301382Y-1566062D01*
X7314234Y-1559001D01*
X7326071Y-1550416D01*
X7336739Y-1540357D01*
X7346086Y-1529080D01*
X7353960Y-1516735D01*
X7359497Y-1504950D01*
X7296150Y-1504950D01*
G37*
G36*
X7207250Y-1568145D02*
G01*
X7207250Y-1504950D01*
X7143902Y-1504950D01*
X7149439Y-1516735D01*
X7157313Y-1529080D01*
X7166660Y-1540357D01*
X7177328Y-1550416D01*
X7189165Y-1559001D01*
X7202017Y-1566062D01*
G37*
G36*
X5962650Y-1568145D02*
G01*
X5962650Y-1504950D01*
X5899302Y-1504950D01*
X5904839Y-1516735D01*
X5912713Y-1529080D01*
X5922060Y-1540357D01*
X5932728Y-1550416D01*
X5944565Y-1559001D01*
X5957417Y-1566062D01*
G37*
G36*
X6051550Y-1416050D02*
G01*
X6114897Y-1416050D01*
X6109360Y-1404264D01*
X6101486Y-1391920D01*
X6092139Y-1380642D01*
X6081471Y-1370584D01*
X6069634Y-1361998D01*
X6056782Y-1354937D01*
X6051550Y-1352854D01*
G37*
G36*
X6670751Y-1416050D02*
G01*
X6734098Y-1416050D01*
X6728561Y-1404264D01*
X6720687Y-1391920D01*
X6711340Y-1380642D01*
X6700672Y-1370584D01*
X6688836Y-1361998D01*
X6675983Y-1354937D01*
X6670751Y-1352854D01*
G37*
G36*
X6518503Y-1416050D02*
G01*
X6581851Y-1416050D01*
X6581851Y-1352854D01*
X6576618Y-1354937D01*
X6563766Y-1361998D01*
X6551930Y-1370584D01*
X6541262Y-1380642D01*
X6531914Y-1391920D01*
X6524040Y-1404264D01*
G37*
G36*
X7143902Y-1416050D02*
G01*
X7207250Y-1416050D01*
X7207250Y-1352854D01*
X7202017Y-1354937D01*
X7189165Y-1361998D01*
X7177328Y-1370584D01*
X7166660Y-1380642D01*
X7157313Y-1391920D01*
X7149439Y-1404264D01*
G37*
G36*
X7296150Y-1416050D02*
G01*
X7359497Y-1416050D01*
X7353960Y-1404264D01*
X7346086Y-1391920D01*
X7336739Y-1380642D01*
X7326071Y-1370584D01*
X7314234Y-1361998D01*
X7301382Y-1354937D01*
X7296150Y-1352854D01*
G37*
G36*
X5899302Y-1416050D02*
G01*
X5962650Y-1416050D01*
X5962650Y-1352854D01*
X5957417Y-1354937D01*
X5944565Y-1361998D01*
X5932728Y-1370584D01*
X5922060Y-1380642D01*
X5912713Y-1391920D01*
X5904839Y-1404264D01*
G37*
G36*
X7176008Y-1323187D02*
G01*
X7327392Y-1323187D01*
X7335774Y-1322374D01*
X7343394Y-1320088D01*
X7350353Y-1316329D01*
X7356500Y-1311300D01*
X7361529Y-1305153D01*
X7365288Y-1298194D01*
X7367574Y-1290574D01*
X7368387Y-1282192D01*
X7368387Y-1130808D01*
X7367574Y-1122426D01*
X7365288Y-1114806D01*
X7361529Y-1107846D01*
X7356500Y-1101699D01*
X7350353Y-1096670D01*
X7343394Y-1092911D01*
X7335774Y-1090625D01*
X7327392Y-1089812D01*
X7176008Y-1089812D01*
X7167625Y-1090625D01*
X7160006Y-1092911D01*
X7153046Y-1096670D01*
X7146899Y-1101699D01*
X7141870Y-1107846D01*
X7138111Y-1114806D01*
X7135825Y-1122426D01*
X7135012Y-1130808D01*
X7135012Y-1282192D01*
X7135825Y-1290574D01*
X7138111Y-1298194D01*
X7141870Y-1305153D01*
X7146899Y-1311300D01*
X7153046Y-1316329D01*
X7160006Y-1320088D01*
X7167625Y-1322374D01*
G37*
G36*
X6550609Y-1323187D02*
G01*
X6701993Y-1323187D01*
X6710375Y-1322374D01*
X6717995Y-1320088D01*
X6724954Y-1316329D01*
X6731101Y-1311300D01*
X6736130Y-1305153D01*
X6739890Y-1298194D01*
X6742175Y-1290574D01*
X6742988Y-1282192D01*
X6742988Y-1130808D01*
X6742175Y-1122426D01*
X6739890Y-1114806D01*
X6736130Y-1107846D01*
X6731101Y-1101699D01*
X6724954Y-1096670D01*
X6717995Y-1092911D01*
X6710375Y-1090625D01*
X6701993Y-1089812D01*
X6550609Y-1089812D01*
X6542227Y-1090625D01*
X6534607Y-1092911D01*
X6527647Y-1096670D01*
X6521500Y-1101699D01*
X6516471Y-1107846D01*
X6512712Y-1114806D01*
X6510426Y-1122426D01*
X6509613Y-1130808D01*
X6509613Y-1282192D01*
X6510426Y-1290574D01*
X6512712Y-1298194D01*
X6516471Y-1305153D01*
X6521500Y-1311300D01*
X6527647Y-1316329D01*
X6534607Y-1320088D01*
X6542227Y-1322374D01*
G37*
G36*
X5931408Y-1323187D02*
G01*
X6082792Y-1323187D01*
X6091174Y-1322374D01*
X6098794Y-1320088D01*
X6105753Y-1316329D01*
X6111900Y-1311300D01*
X6116929Y-1305153D01*
X6120688Y-1298194D01*
X6122974Y-1290574D01*
X6123787Y-1282192D01*
X6123787Y-1130808D01*
X6122974Y-1122426D01*
X6120688Y-1114806D01*
X6116929Y-1107846D01*
X6111900Y-1101699D01*
X6105753Y-1096670D01*
X6098794Y-1092911D01*
X6091174Y-1090625D01*
X6082792Y-1089812D01*
X6075934Y-1089812D01*
X6072225Y-1089101D01*
X6069076Y-1087170D01*
X6066840Y-1084173D01*
X6063691Y-1077874D01*
X6062624Y-1073353D01*
X6062624Y-890778D01*
X6063386Y-886917D01*
X6065570Y-883615D01*
X6160516Y-788720D01*
X6163919Y-784961D01*
X6166866Y-781151D01*
X6169456Y-777036D01*
X6171692Y-772769D01*
X6173571Y-768299D01*
X6174994Y-763676D01*
X6176060Y-758952D01*
X6176670Y-754126D01*
X6176924Y-749096D01*
X6176924Y-366826D01*
X6177991Y-362305D01*
X6181140Y-356006D01*
X6183376Y-353009D01*
X6186525Y-351078D01*
X6190234Y-350367D01*
X6214872Y-350367D01*
X6223254Y-349554D01*
X6230874Y-347268D01*
X6237833Y-343509D01*
X6243980Y-338480D01*
X6249009Y-332333D01*
X6252768Y-325374D01*
X6255054Y-317754D01*
X6255867Y-309372D01*
X6256985Y-305663D01*
X6259372Y-302666D01*
X6262725Y-300736D01*
X6266535Y-300228D01*
X6270244Y-301142D01*
X6273393Y-303377D01*
X6283096Y-313690D01*
X6295085Y-323748D01*
X6308140Y-332333D01*
X6322161Y-339394D01*
X6336842Y-344728D01*
X6352032Y-348335D01*
X6367576Y-350164D01*
X6383223Y-350164D01*
X6398768Y-348335D01*
X6413957Y-344728D01*
X6428638Y-339394D01*
X6442659Y-332333D01*
X6455714Y-323748D01*
X6467703Y-313690D01*
X6478422Y-302361D01*
X6487769Y-289814D01*
X6495592Y-276250D01*
X6501739Y-261874D01*
X6506260Y-246888D01*
X6508953Y-231495D01*
X6509867Y-215900D01*
X6508953Y-200304D01*
X6506260Y-184912D01*
X6501739Y-169926D01*
X6495592Y-155549D01*
X6487769Y-141986D01*
X6478422Y-129489D01*
X6467703Y-118110D01*
X6455714Y-108051D01*
X6442659Y-99466D01*
X6428638Y-92405D01*
X6413957Y-87071D01*
X6398768Y-83464D01*
X6383223Y-81635D01*
X6367576Y-81635D01*
X6352032Y-83464D01*
X6336842Y-87071D01*
X6322161Y-92405D01*
X6308140Y-99466D01*
X6295085Y-108051D01*
X6283096Y-118110D01*
X6273393Y-128422D01*
X6270244Y-130657D01*
X6266535Y-131572D01*
X6262725Y-131064D01*
X6259372Y-129133D01*
X6256985Y-126136D01*
X6255867Y-122428D01*
X6255054Y-114046D01*
X6252768Y-106426D01*
X6249009Y-99466D01*
X6243980Y-93319D01*
X6237833Y-88290D01*
X6230874Y-84531D01*
X6223254Y-82245D01*
X6214872Y-81432D01*
X6027928Y-81432D01*
X6019546Y-82245D01*
X6011926Y-84531D01*
X6004966Y-88290D01*
X5998819Y-93319D01*
X5993790Y-99466D01*
X5990031Y-106426D01*
X5987745Y-114046D01*
X5986932Y-122428D01*
X5986932Y-309372D01*
X5987745Y-317754D01*
X5990031Y-325374D01*
X5993790Y-332333D01*
X5998819Y-338480D01*
X6004966Y-343509D01*
X6011926Y-347268D01*
X6019546Y-349554D01*
X6027928Y-350367D01*
X6052566Y-350367D01*
X6056274Y-351078D01*
X6059424Y-353009D01*
X6061659Y-356006D01*
X6064808Y-362305D01*
X6065875Y-366826D01*
X6065875Y-722122D01*
X6065113Y-725982D01*
X6062929Y-729284D01*
X5967984Y-824179D01*
X5964580Y-827938D01*
X5961634Y-831748D01*
X5959043Y-835863D01*
X5956808Y-840130D01*
X5954928Y-844600D01*
X5953506Y-849223D01*
X5952439Y-853948D01*
X5951829Y-858774D01*
X5951575Y-863803D01*
X5951575Y-1073353D01*
X5950508Y-1077874D01*
X5947359Y-1084173D01*
X5945124Y-1087170D01*
X5941974Y-1089101D01*
X5938266Y-1089812D01*
X5931408Y-1089812D01*
X5923026Y-1090625D01*
X5915406Y-1092911D01*
X5908446Y-1096670D01*
X5902299Y-1101699D01*
X5897270Y-1107846D01*
X5893511Y-1114806D01*
X5891225Y-1122426D01*
X5890412Y-1130808D01*
X5890412Y-1282192D01*
X5891225Y-1290574D01*
X5893511Y-1298194D01*
X5897270Y-1305153D01*
X5902299Y-1311300D01*
X5908446Y-1316329D01*
X5915406Y-1320088D01*
X5923026Y-1322374D01*
G37*
G36*
X373634Y-725881D02*
G01*
X373634Y-676351D01*
X324104Y-676351D01*
X327507Y-684936D01*
X333502Y-695350D01*
X341020Y-704748D01*
X349808Y-712927D01*
X359765Y-719683D01*
X370586Y-724916D01*
G37*
G36*
X426364Y-725881D02*
G01*
X429412Y-724916D01*
X440232Y-719683D01*
X450189Y-712927D01*
X458978Y-704748D01*
X466496Y-695350D01*
X472490Y-684936D01*
X475894Y-676351D01*
X426364Y-676351D01*
G37*
G36*
X7126325Y-725881D02*
G01*
X7129373Y-724916D01*
X7140244Y-719683D01*
X7150150Y-712927D01*
X7158990Y-704748D01*
X7166457Y-695350D01*
X7172502Y-684936D01*
X7175855Y-676351D01*
X7126325Y-676351D01*
G37*
G36*
X7073646Y-725881D02*
G01*
X7073646Y-676351D01*
X7024116Y-676351D01*
X7027468Y-684936D01*
X7033514Y-695350D01*
X7040981Y-704748D01*
X7049820Y-712927D01*
X7059726Y-719683D01*
X7070598Y-724916D01*
G37*
G36*
X195834Y-653643D02*
G01*
X195834Y-604164D01*
X146304Y-604164D01*
X149707Y-612698D01*
X155702Y-623112D01*
X163220Y-632561D01*
X172008Y-640740D01*
X181965Y-647496D01*
X192786Y-652729D01*
G37*
G36*
X604164Y-653643D02*
G01*
X607212Y-652729D01*
X618032Y-647496D01*
X627989Y-640740D01*
X636778Y-632561D01*
X644296Y-623112D01*
X650290Y-612698D01*
X653694Y-604164D01*
X604164Y-604164D01*
G37*
G36*
X248564Y-653643D02*
G01*
X251612Y-652729D01*
X262432Y-647496D01*
X272389Y-640740D01*
X281178Y-632561D01*
X288696Y-623112D01*
X294690Y-612698D01*
X298094Y-604164D01*
X248564Y-604164D01*
G37*
G36*
X551434Y-653643D02*
G01*
X551434Y-604164D01*
X501904Y-604164D01*
X505307Y-612698D01*
X511301Y-623112D01*
X518820Y-632561D01*
X527608Y-640740D01*
X537565Y-647496D01*
X548386Y-652729D01*
G37*
G36*
X6895846Y-653643D02*
G01*
X6895846Y-604164D01*
X6846316Y-604164D01*
X6849668Y-612698D01*
X6855714Y-623112D01*
X6863181Y-632561D01*
X6872020Y-640740D01*
X6881926Y-647496D01*
X6892798Y-652729D01*
G37*
G36*
X7251446Y-653643D02*
G01*
X7251446Y-604164D01*
X7201916Y-604164D01*
X7205268Y-612698D01*
X7211314Y-623112D01*
X7218781Y-632561D01*
X7227620Y-640740D01*
X7237526Y-647496D01*
X7248398Y-652729D01*
G37*
G36*
X6948525Y-653643D02*
G01*
X6951573Y-652729D01*
X6962444Y-647496D01*
X6972350Y-640740D01*
X6981190Y-632561D01*
X6988657Y-623112D01*
X6994702Y-612698D01*
X6998055Y-604164D01*
X6948525Y-604164D01*
G37*
G36*
X7304125Y-653643D02*
G01*
X7307173Y-652729D01*
X7318044Y-647496D01*
X7327950Y-640740D01*
X7336790Y-632561D01*
X7344257Y-623112D01*
X7350302Y-612698D01*
X7353655Y-604164D01*
X7304125Y-604164D01*
G37*
G36*
X7024116Y-623671D02*
G01*
X7073646Y-623671D01*
X7073646Y-615035D01*
X7074458Y-611073D01*
X7076694Y-607771D01*
X7080097Y-605586D01*
X7084059Y-604875D01*
X7104989Y-605434D01*
X7115454Y-604672D01*
X7119569Y-605231D01*
X7123074Y-607364D01*
X7125512Y-610768D01*
X7126325Y-614832D01*
X7126325Y-623671D01*
X7175855Y-623671D01*
X7172502Y-615086D01*
X7167524Y-606501D01*
X7166203Y-602335D01*
X7166762Y-598017D01*
X7169099Y-594309D01*
X7172756Y-591921D01*
X7182053Y-588416D01*
X7184745Y-587095D01*
X7187438Y-586282D01*
X7189165Y-584860D01*
X7199833Y-579577D01*
X7216698Y-569112D01*
X7232497Y-557072D01*
X7235596Y-554177D01*
X7238796Y-552145D01*
X7242505Y-551434D01*
X7251446Y-551434D01*
X7251446Y-542442D01*
X7252106Y-538835D01*
X7253986Y-535686D01*
X7260183Y-528675D01*
X7271867Y-512622D01*
X7281925Y-495503D01*
X7284770Y-489458D01*
X7286244Y-487375D01*
X7286904Y-484835D01*
X7290308Y-477469D01*
X7291882Y-472998D01*
X7294219Y-469239D01*
X7297928Y-466851D01*
X7302347Y-466242D01*
X7306564Y-467614D01*
X7315047Y-472490D01*
X7323632Y-475894D01*
X7323632Y-426364D01*
X7314895Y-426364D01*
X7310881Y-425551D01*
X7307529Y-423214D01*
X7305344Y-419709D01*
X7304735Y-415696D01*
X7305497Y-399999D01*
X7304735Y-384302D01*
X7305344Y-380288D01*
X7307529Y-376783D01*
X7310881Y-374446D01*
X7314895Y-373634D01*
X7323632Y-373634D01*
X7323632Y-324104D01*
X7315047Y-327507D01*
X7306564Y-332384D01*
X7302347Y-333756D01*
X7297928Y-333146D01*
X7294219Y-330758D01*
X7291882Y-326999D01*
X7290308Y-322529D01*
X7286904Y-315163D01*
X7286244Y-312623D01*
X7284770Y-310540D01*
X7281925Y-304495D01*
X7271867Y-287375D01*
X7260183Y-271322D01*
X7253986Y-264312D01*
X7252106Y-261162D01*
X7251446Y-257556D01*
X7251446Y-248564D01*
X7242505Y-248564D01*
X7238796Y-247853D01*
X7235596Y-245821D01*
X7232497Y-242925D01*
X7216698Y-230886D01*
X7199833Y-220421D01*
X7189165Y-215138D01*
X7187438Y-213715D01*
X7184745Y-212953D01*
X7182053Y-211582D01*
X7172756Y-208076D01*
X7169099Y-205689D01*
X7166762Y-201980D01*
X7166203Y-197662D01*
X7167524Y-193497D01*
X7172502Y-184912D01*
X7175855Y-176326D01*
X7126325Y-176326D01*
X7126325Y-185166D01*
X7125512Y-189230D01*
X7123074Y-192633D01*
X7119569Y-194767D01*
X7115454Y-195326D01*
X7104989Y-194564D01*
X7084059Y-195122D01*
X7080097Y-194411D01*
X7076694Y-192227D01*
X7074458Y-188925D01*
X7073646Y-184962D01*
X7073646Y-176326D01*
X7024116Y-176326D01*
X7027468Y-184912D01*
X7032294Y-193294D01*
X7033615Y-197307D01*
X7033158Y-201523D01*
X7031024Y-205181D01*
X7027570Y-207670D01*
X7014819Y-213207D01*
X7012330Y-213715D01*
X7008926Y-215798D01*
X6991553Y-225450D01*
X6975195Y-236728D01*
X6964019Y-246176D01*
X6960971Y-247954D01*
X6957466Y-248564D01*
X6948525Y-248564D01*
X6948525Y-257200D01*
X6947966Y-260604D01*
X6946290Y-263550D01*
X6933742Y-279196D01*
X6922871Y-295808D01*
X6914997Y-310794D01*
X6913575Y-312470D01*
X6913118Y-314655D01*
X6907936Y-327456D01*
X6905498Y-331012D01*
X6901789Y-333197D01*
X6897522Y-333705D01*
X6893407Y-332384D01*
X6884924Y-327507D01*
X6876338Y-324104D01*
X6876338Y-373634D01*
X6885127Y-373634D01*
X6889242Y-374497D01*
X6892645Y-376986D01*
X6894779Y-380593D01*
X6895236Y-384810D01*
X6894728Y-390093D01*
X6894728Y-409905D01*
X6895236Y-415188D01*
X6894779Y-419404D01*
X6892645Y-423011D01*
X6889242Y-425500D01*
X6885127Y-426364D01*
X6876338Y-426364D01*
X6876338Y-475894D01*
X6884924Y-472490D01*
X6893407Y-467614D01*
X6897522Y-466293D01*
X6901789Y-466801D01*
X6905498Y-468985D01*
X6907936Y-472541D01*
X6913118Y-485343D01*
X6913575Y-487527D01*
X6914997Y-489204D01*
X6922871Y-504190D01*
X6933742Y-520801D01*
X6946290Y-536448D01*
X6947966Y-539394D01*
X6948525Y-542798D01*
X6948525Y-551434D01*
X6957466Y-551434D01*
X6960971Y-552043D01*
X6964019Y-553821D01*
X6975195Y-563270D01*
X6991553Y-574548D01*
X7008926Y-584200D01*
X7012330Y-586282D01*
X7014819Y-586790D01*
X7027570Y-592328D01*
X7031024Y-594817D01*
X7033158Y-598474D01*
X7033615Y-602691D01*
X7032294Y-606704D01*
X7027468Y-615086D01*
G37*
G36*
X324104Y-623671D02*
G01*
X373634Y-623671D01*
X373634Y-615035D01*
X374446Y-611073D01*
X376732Y-607771D01*
X380085Y-605586D01*
X384098Y-604875D01*
X404977Y-605434D01*
X415442Y-604672D01*
X419557Y-605231D01*
X423113Y-607364D01*
X425500Y-610768D01*
X426364Y-614832D01*
X426364Y-623671D01*
X475894Y-623671D01*
X472490Y-615086D01*
X467563Y-606501D01*
X466242Y-602335D01*
X466801Y-598017D01*
X469087Y-594309D01*
X472744Y-591921D01*
X482092Y-588416D01*
X484733Y-587095D01*
X487426Y-586282D01*
X489204Y-584860D01*
X499872Y-579577D01*
X516737Y-569112D01*
X532536Y-557072D01*
X535635Y-554177D01*
X538835Y-552145D01*
X542544Y-551434D01*
X551434Y-551434D01*
X551434Y-542442D01*
X552094Y-538835D01*
X554024Y-535686D01*
X560222Y-528675D01*
X571906Y-512622D01*
X581964Y-495503D01*
X584758Y-489458D01*
X586282Y-487375D01*
X586892Y-484835D01*
X590346Y-477469D01*
X591921Y-472998D01*
X594258Y-469239D01*
X597966Y-466851D01*
X602335Y-466242D01*
X606552Y-467614D01*
X615086Y-472490D01*
X623671Y-475894D01*
X623671Y-426364D01*
X614883Y-426364D01*
X610870Y-425551D01*
X607517Y-423214D01*
X605383Y-419709D01*
X604723Y-415696D01*
X605485Y-399999D01*
X604723Y-384302D01*
X605383Y-380288D01*
X607517Y-376783D01*
X610870Y-374446D01*
X614883Y-373634D01*
X623671Y-373634D01*
X623671Y-324104D01*
X615086Y-327507D01*
X606552Y-332384D01*
X602335Y-333756D01*
X597966Y-333146D01*
X594258Y-330758D01*
X591921Y-326999D01*
X590346Y-322529D01*
X586892Y-315163D01*
X586282Y-312623D01*
X584758Y-310540D01*
X581964Y-304495D01*
X571906Y-287375D01*
X560222Y-271322D01*
X554024Y-264312D01*
X552094Y-261162D01*
X551434Y-257556D01*
X551434Y-248564D01*
X542544Y-248564D01*
X538835Y-247853D01*
X535635Y-245821D01*
X532536Y-242925D01*
X516737Y-230886D01*
X499872Y-220421D01*
X489204Y-215138D01*
X487426Y-213715D01*
X484733Y-212953D01*
X482092Y-211582D01*
X472744Y-208076D01*
X469087Y-205689D01*
X466801Y-201980D01*
X466242Y-197662D01*
X467563Y-193497D01*
X472490Y-184912D01*
X475894Y-176326D01*
X426364Y-176326D01*
X426364Y-185166D01*
X425500Y-189230D01*
X423113Y-192633D01*
X419557Y-194767D01*
X415442Y-195326D01*
X404977Y-194564D01*
X384098Y-195122D01*
X380085Y-194411D01*
X376732Y-192227D01*
X374446Y-188925D01*
X373634Y-184962D01*
X373634Y-176326D01*
X324104Y-176326D01*
X327507Y-184912D01*
X332333Y-193294D01*
X333603Y-197307D01*
X333146Y-201523D01*
X331012Y-205181D01*
X327558Y-207670D01*
X314807Y-213207D01*
X312318Y-213715D01*
X308914Y-215798D01*
X291592Y-225450D01*
X275234Y-236728D01*
X264058Y-246176D01*
X260959Y-247954D01*
X257505Y-248564D01*
X248564Y-248564D01*
X248564Y-257200D01*
X247954Y-260604D01*
X246329Y-263550D01*
X233730Y-279196D01*
X222859Y-295808D01*
X214985Y-310794D01*
X213563Y-312470D01*
X213106Y-314655D01*
X207924Y-327456D01*
X205486Y-331012D01*
X201828Y-333197D01*
X197510Y-333705D01*
X193446Y-332384D01*
X184912Y-327507D01*
X176326Y-324104D01*
X176326Y-373634D01*
X185166Y-373634D01*
X189280Y-374497D01*
X192684Y-376986D01*
X194767Y-380593D01*
X195275Y-384810D01*
X194767Y-390093D01*
X194767Y-409905D01*
X195275Y-415188D01*
X194767Y-419404D01*
X192684Y-423011D01*
X189280Y-425500D01*
X185166Y-426364D01*
X176326Y-426364D01*
X176326Y-475894D01*
X184912Y-472490D01*
X193446Y-467614D01*
X197510Y-466293D01*
X201828Y-466801D01*
X205486Y-468985D01*
X207924Y-472541D01*
X213106Y-485343D01*
X213563Y-487527D01*
X214985Y-489204D01*
X222859Y-504190D01*
X233730Y-520801D01*
X246329Y-536448D01*
X247954Y-539394D01*
X248564Y-542798D01*
X248564Y-551434D01*
X257505Y-551434D01*
X260959Y-552043D01*
X264058Y-553821D01*
X275234Y-563270D01*
X291592Y-574548D01*
X308914Y-584200D01*
X312318Y-586282D01*
X314807Y-586790D01*
X327558Y-592328D01*
X331012Y-594817D01*
X333146Y-598474D01*
X333603Y-602691D01*
X332333Y-606704D01*
X327507Y-615086D01*
G37*
G36*
X146304Y-551434D02*
G01*
X195834Y-551434D01*
X195834Y-501954D01*
X192786Y-502869D01*
X181965Y-508101D01*
X172008Y-514858D01*
X163220Y-523036D01*
X155702Y-532485D01*
X149707Y-542899D01*
G37*
G36*
X604164Y-551434D02*
G01*
X653694Y-551434D01*
X650290Y-542899D01*
X644296Y-532485D01*
X636778Y-523036D01*
X627989Y-514858D01*
X618032Y-508101D01*
X607212Y-502869D01*
X604164Y-501954D01*
G37*
G36*
X6846316Y-551434D02*
G01*
X6895846Y-551434D01*
X6895846Y-501954D01*
X6892798Y-502869D01*
X6881926Y-508101D01*
X6872020Y-514858D01*
X6863181Y-523036D01*
X6855714Y-532485D01*
X6849668Y-542899D01*
G37*
G36*
X7304125Y-551434D02*
G01*
X7353655Y-551434D01*
X7350302Y-542899D01*
X7344257Y-532485D01*
X7336790Y-523036D01*
X7327950Y-514858D01*
X7318044Y-508101D01*
X7307173Y-502869D01*
X7304125Y-501954D01*
G37*
G36*
X6823659Y-475894D02*
G01*
X6823659Y-426364D01*
X6774129Y-426364D01*
X6775094Y-429412D01*
X6780275Y-440232D01*
X6787083Y-450189D01*
X6795262Y-458978D01*
X6804659Y-466496D01*
X6815074Y-472490D01*
G37*
G36*
X123647Y-475894D02*
G01*
X123647Y-426364D01*
X74117Y-426364D01*
X75082Y-429412D01*
X80314Y-440232D01*
X87071Y-450189D01*
X95250Y-458978D01*
X104648Y-466496D01*
X115062Y-472490D01*
G37*
G36*
X676351Y-475894D02*
G01*
X684936Y-472490D01*
X695350Y-466496D01*
X704748Y-458978D01*
X712927Y-450189D01*
X719683Y-440232D01*
X724916Y-429412D01*
X725881Y-426364D01*
X676351Y-426364D01*
G37*
G36*
X7376312Y-475894D02*
G01*
X7384897Y-472490D01*
X7395311Y-466496D01*
X7404709Y-458978D01*
X7412888Y-450189D01*
X7419695Y-440232D01*
X7424877Y-429412D01*
X7425842Y-426364D01*
X7376312Y-426364D01*
G37*
G36*
X6774129Y-373634D02*
G01*
X6823659Y-373634D01*
X6823659Y-324104D01*
X6815074Y-327507D01*
X6804659Y-333502D01*
X6795262Y-341020D01*
X6787083Y-349808D01*
X6780275Y-359765D01*
X6775094Y-370586D01*
G37*
G36*
X7376312Y-373634D02*
G01*
X7425842Y-373634D01*
X7424877Y-370586D01*
X7419695Y-359765D01*
X7412888Y-349808D01*
X7404709Y-341020D01*
X7395311Y-333502D01*
X7384897Y-327507D01*
X7376312Y-324104D01*
G37*
G36*
X74117Y-373634D02*
G01*
X123647Y-373634D01*
X123647Y-324104D01*
X115062Y-327507D01*
X104648Y-333502D01*
X95250Y-341020D01*
X87071Y-349808D01*
X80314Y-359765D01*
X75082Y-370586D01*
G37*
G36*
X676351Y-373634D02*
G01*
X725881Y-373634D01*
X724916Y-370586D01*
X719683Y-359765D01*
X712927Y-349808D01*
X704748Y-341020D01*
X695350Y-333502D01*
X684936Y-327507D01*
X676351Y-324104D01*
G37*
G36*
X930808Y-336346D02*
G01*
X945591Y-334975D01*
X960069Y-331774D01*
X974090Y-326847D01*
X987348Y-320243D01*
X999693Y-312064D01*
X1010970Y-302412D01*
X1020978Y-291439D01*
X1029563Y-279349D01*
X1036574Y-266242D01*
X1041908Y-252425D01*
X1044194Y-243433D01*
X1045819Y-239877D01*
X1048715Y-237236D01*
X1052372Y-235915D01*
X1056284Y-236016D01*
X1059891Y-237591D01*
X1062583Y-240436D01*
X1068730Y-259435D01*
X1074928Y-272897D01*
X1082751Y-285496D01*
X1092047Y-297078D01*
X1102715Y-307390D01*
X1114552Y-316331D01*
X1127404Y-323748D01*
X1141069Y-329539D01*
X1155344Y-333603D01*
X1169974Y-335889D01*
X1184808Y-336346D01*
X1199591Y-334975D01*
X1214069Y-331774D01*
X1228090Y-326847D01*
X1241348Y-320243D01*
X1253693Y-312064D01*
X1264970Y-302412D01*
X1274978Y-291439D01*
X1283563Y-279349D01*
X1290574Y-266242D01*
X1295908Y-252425D01*
X1298194Y-243433D01*
X1299819Y-239877D01*
X1302715Y-237236D01*
X1306372Y-235915D01*
X1310284Y-236016D01*
X1313891Y-237591D01*
X1316583Y-240436D01*
X1322730Y-259435D01*
X1328928Y-272897D01*
X1336751Y-285496D01*
X1346047Y-297078D01*
X1356715Y-307390D01*
X1368552Y-316331D01*
X1381404Y-323748D01*
X1395069Y-329539D01*
X1409344Y-333603D01*
X1423974Y-335889D01*
X1438808Y-336346D01*
X1453591Y-334975D01*
X1468069Y-331774D01*
X1482090Y-326847D01*
X1495348Y-320243D01*
X1507693Y-312064D01*
X1518970Y-302412D01*
X1528978Y-291439D01*
X1537563Y-279349D01*
X1544574Y-266242D01*
X1549908Y-252425D01*
X1552194Y-243433D01*
X1553819Y-239877D01*
X1556715Y-237236D01*
X1560372Y-235915D01*
X1564284Y-236016D01*
X1567891Y-237591D01*
X1570583Y-240436D01*
X1576730Y-259435D01*
X1582928Y-272897D01*
X1590751Y-285496D01*
X1600047Y-297078D01*
X1610715Y-307390D01*
X1622552Y-316331D01*
X1635404Y-323748D01*
X1649069Y-329539D01*
X1663344Y-333603D01*
X1677974Y-335889D01*
X1692808Y-336346D01*
X1707591Y-334975D01*
X1722069Y-331774D01*
X1736089Y-326847D01*
X1749348Y-320243D01*
X1761693Y-312064D01*
X1772970Y-302412D01*
X1782978Y-291439D01*
X1791563Y-279349D01*
X1798574Y-266242D01*
X1803907Y-252425D01*
X1806193Y-243433D01*
X1807819Y-239877D01*
X1810715Y-237236D01*
X1814372Y-235915D01*
X1818284Y-236016D01*
X1821891Y-237591D01*
X1824583Y-240436D01*
X1830730Y-259435D01*
X1836928Y-272897D01*
X1844751Y-285496D01*
X1854047Y-297078D01*
X1864715Y-307390D01*
X1876552Y-316331D01*
X1889404Y-323748D01*
X1903069Y-329539D01*
X1917344Y-333603D01*
X1931974Y-335889D01*
X1946808Y-336346D01*
X1961591Y-334975D01*
X1976069Y-331774D01*
X1990089Y-326847D01*
X2003348Y-320243D01*
X2015693Y-312064D01*
X2026970Y-302412D01*
X2036978Y-291439D01*
X2045563Y-279349D01*
X2052574Y-266242D01*
X2057907Y-252425D01*
X2061514Y-238048D01*
X2063343Y-223316D01*
X2063343Y-208483D01*
X2061514Y-193751D01*
X2057907Y-179374D01*
X2052574Y-165557D01*
X2045563Y-152450D01*
X2036978Y-140360D01*
X2026970Y-129387D01*
X2015693Y-119735D01*
X2003348Y-111556D01*
X1990089Y-104952D01*
X1976069Y-100025D01*
X1961591Y-96824D01*
X1946808Y-95453D01*
X1931974Y-95910D01*
X1917344Y-98196D01*
X1903069Y-102260D01*
X1889404Y-108051D01*
X1876552Y-115468D01*
X1864715Y-124409D01*
X1854047Y-134721D01*
X1844751Y-146304D01*
X1836928Y-158902D01*
X1830730Y-172364D01*
X1824583Y-191363D01*
X1821891Y-194208D01*
X1818284Y-195783D01*
X1814372Y-195884D01*
X1810715Y-194564D01*
X1807819Y-191922D01*
X1806193Y-188366D01*
X1803907Y-179374D01*
X1798574Y-165557D01*
X1791563Y-152450D01*
X1782978Y-140360D01*
X1772970Y-129387D01*
X1761693Y-119735D01*
X1749348Y-111556D01*
X1736089Y-104952D01*
X1722069Y-100025D01*
X1707591Y-96824D01*
X1692808Y-95453D01*
X1677974Y-95910D01*
X1663344Y-98196D01*
X1649069Y-102260D01*
X1635404Y-108051D01*
X1622552Y-115468D01*
X1610715Y-124409D01*
X1600047Y-134721D01*
X1590751Y-146304D01*
X1582928Y-158902D01*
X1576730Y-172364D01*
X1570583Y-191363D01*
X1567891Y-194208D01*
X1564284Y-195783D01*
X1560372Y-195884D01*
X1556715Y-194564D01*
X1553819Y-191922D01*
X1552194Y-188366D01*
X1549908Y-179374D01*
X1544574Y-165557D01*
X1537563Y-152450D01*
X1528978Y-140360D01*
X1518970Y-129387D01*
X1507693Y-119735D01*
X1495348Y-111556D01*
X1482090Y-104952D01*
X1468069Y-100025D01*
X1453591Y-96824D01*
X1438808Y-95453D01*
X1423974Y-95910D01*
X1409344Y-98196D01*
X1395069Y-102260D01*
X1381404Y-108051D01*
X1368552Y-115468D01*
X1356715Y-124409D01*
X1346047Y-134721D01*
X1336751Y-146304D01*
X1328928Y-158902D01*
X1322730Y-172364D01*
X1316583Y-191363D01*
X1313891Y-194208D01*
X1310284Y-195783D01*
X1306372Y-195884D01*
X1302715Y-194564D01*
X1299819Y-191922D01*
X1298194Y-188366D01*
X1295908Y-179374D01*
X1290574Y-165557D01*
X1283563Y-152450D01*
X1274978Y-140360D01*
X1264970Y-129387D01*
X1253693Y-119735D01*
X1241348Y-111556D01*
X1228090Y-104952D01*
X1214069Y-100025D01*
X1199591Y-96824D01*
X1184808Y-95453D01*
X1169974Y-95910D01*
X1155344Y-98196D01*
X1141069Y-102260D01*
X1127404Y-108051D01*
X1114552Y-115468D01*
X1102715Y-124409D01*
X1092047Y-134721D01*
X1082751Y-146304D01*
X1074928Y-158902D01*
X1068730Y-172364D01*
X1062583Y-191363D01*
X1059891Y-194208D01*
X1056284Y-195783D01*
X1052372Y-195884D01*
X1048715Y-194564D01*
X1045819Y-191922D01*
X1044194Y-188366D01*
X1041908Y-179374D01*
X1036574Y-165557D01*
X1029563Y-152450D01*
X1020978Y-140360D01*
X1010970Y-129387D01*
X999693Y-119735D01*
X987348Y-111556D01*
X974090Y-104952D01*
X960069Y-100025D01*
X945591Y-96824D01*
X930808Y-95453D01*
X915974Y-95910D01*
X901344Y-98196D01*
X887069Y-102260D01*
X873404Y-108051D01*
X860552Y-115468D01*
X848715Y-124409D01*
X838047Y-134721D01*
X828751Y-146304D01*
X820928Y-158902D01*
X814730Y-172364D01*
X810260Y-186486D01*
X807516Y-201117D01*
X806602Y-215900D01*
X807516Y-230682D01*
X810260Y-245313D01*
X814730Y-259435D01*
X820928Y-272897D01*
X828751Y-285496D01*
X838047Y-297078D01*
X848715Y-307390D01*
X860552Y-316331D01*
X873404Y-323748D01*
X887069Y-329539D01*
X901344Y-333603D01*
X915974Y-335889D01*
G37*
G36*
X2150770Y-326847D02*
G01*
X2150770Y-262229D01*
X2086051Y-262229D01*
X2090928Y-272897D01*
X2098751Y-285496D01*
X2108047Y-297078D01*
X2118715Y-307390D01*
X2130552Y-316331D01*
X2143404Y-323748D01*
G37*
G36*
X604164Y-298043D02*
G01*
X607212Y-297129D01*
X618032Y-291896D01*
X627989Y-285140D01*
X636778Y-276961D01*
X644296Y-267512D01*
X650290Y-257098D01*
X653694Y-248564D01*
X604164Y-248564D01*
G37*
G36*
X195834Y-298043D02*
G01*
X195834Y-248564D01*
X146304Y-248564D01*
X149707Y-257098D01*
X155702Y-267512D01*
X163220Y-276961D01*
X172008Y-285140D01*
X181965Y-291896D01*
X192786Y-297129D01*
G37*
G36*
X7304125Y-298043D02*
G01*
X7307173Y-297129D01*
X7318044Y-291896D01*
X7327950Y-285140D01*
X7336790Y-276961D01*
X7344257Y-267512D01*
X7350302Y-257098D01*
X7353655Y-248564D01*
X7304125Y-248564D01*
G37*
G36*
X6895846Y-298043D02*
G01*
X6895846Y-248564D01*
X6846316Y-248564D01*
X6849668Y-257098D01*
X6855714Y-267512D01*
X6863181Y-276961D01*
X6872020Y-285140D01*
X6881926Y-291896D01*
X6892798Y-297129D01*
G37*
G36*
X501904Y-195834D02*
G01*
X551434Y-195834D01*
X551434Y-146354D01*
X548386Y-147269D01*
X537565Y-152501D01*
X527608Y-159258D01*
X518820Y-167436D01*
X511301Y-176885D01*
X505307Y-187299D01*
G37*
G36*
X146304Y-195834D02*
G01*
X195834Y-195834D01*
X195834Y-146354D01*
X192786Y-147269D01*
X181965Y-152501D01*
X172008Y-159258D01*
X163220Y-167436D01*
X155702Y-176885D01*
X149707Y-187299D01*
G37*
G36*
X604164Y-195834D02*
G01*
X653694Y-195834D01*
X650290Y-187299D01*
X644296Y-176885D01*
X636778Y-167436D01*
X627989Y-159258D01*
X618032Y-152501D01*
X607212Y-147269D01*
X604164Y-146354D01*
G37*
G36*
X248564Y-195834D02*
G01*
X298094Y-195834D01*
X294690Y-187299D01*
X288696Y-176885D01*
X281178Y-167436D01*
X272389Y-159258D01*
X262432Y-152501D01*
X251612Y-147269D01*
X248564Y-146354D01*
G37*
G36*
X7304125Y-195834D02*
G01*
X7353655Y-195834D01*
X7350302Y-187299D01*
X7344257Y-176885D01*
X7336790Y-167436D01*
X7327950Y-159258D01*
X7318044Y-152501D01*
X7307173Y-147269D01*
X7304125Y-146354D01*
G37*
G36*
X6846316Y-195834D02*
G01*
X6895846Y-195834D01*
X6895846Y-146354D01*
X6892798Y-147269D01*
X6881926Y-152501D01*
X6872020Y-159258D01*
X6863181Y-167436D01*
X6855714Y-176885D01*
X6849668Y-187299D01*
G37*
G36*
X7201916Y-195834D02*
G01*
X7251446Y-195834D01*
X7251446Y-146354D01*
X7248398Y-147269D01*
X7237526Y-152501D01*
X7227620Y-159258D01*
X7218781Y-167436D01*
X7211314Y-176885D01*
X7205268Y-187299D01*
G37*
G36*
X6948525Y-195834D02*
G01*
X6998055Y-195834D01*
X6994702Y-187299D01*
X6988657Y-176885D01*
X6981190Y-167436D01*
X6972350Y-159258D01*
X6962444Y-152501D01*
X6951573Y-147269D01*
X6948525Y-146354D01*
G37*
G36*
X2086051Y-169570D02*
G01*
X2150770Y-169570D01*
X2150770Y-104952D01*
X2143404Y-108051D01*
X2130552Y-115468D01*
X2118715Y-124409D01*
X2108047Y-134721D01*
X2098751Y-146304D01*
X2090928Y-158902D01*
G37*
G36*
X2243429Y-169570D02*
G01*
X2308098Y-169570D01*
X2306574Y-165557D01*
X2299563Y-152450D01*
X2290978Y-140360D01*
X2280970Y-129387D01*
X2269693Y-119735D01*
X2257348Y-111556D01*
X2243429Y-104749D01*
G37*
G36*
X426364Y-123647D02*
G01*
X475894Y-123647D01*
X472490Y-115062D01*
X466496Y-104648D01*
X458978Y-95250D01*
X450189Y-87071D01*
X440232Y-80314D01*
X429412Y-75082D01*
X426364Y-74117D01*
G37*
G36*
X324104Y-123647D02*
G01*
X373634Y-123647D01*
X373634Y-74117D01*
X370586Y-75082D01*
X359765Y-80314D01*
X349808Y-87071D01*
X341020Y-95250D01*
X333502Y-104648D01*
X327507Y-115062D01*
G37*
G36*
X7126325Y-123647D02*
G01*
X7175855Y-123647D01*
X7172502Y-115062D01*
X7166457Y-104648D01*
X7158990Y-95250D01*
X7150150Y-87071D01*
X7140244Y-80314D01*
X7129373Y-75082D01*
X7126325Y-74117D01*
G37*
G36*
X7024116Y-123647D02*
G01*
X7073646Y-123647D01*
X7073646Y-74117D01*
X7070598Y-75082D01*
X7059726Y-80314D01*
X7049820Y-87071D01*
X7040981Y-95250D01*
X7033514Y-104648D01*
X7027468Y-115062D01*
G37*

%LPD*%
G36*
X6109309Y-3002026D02*
G01*
X6082233Y-3017316D01*
X6072225Y-3084220D01*
X6171742Y-3027984D01*
G37*
G36*
X6385814Y-2996234D02*
G01*
X6343650Y-3049574D01*
X6457950Y-3049574D01*
X6415786Y-2996234D01*
G37*
G36*
X6084062Y-2366010D02*
G01*
X6062827Y-2387244D01*
X6070752Y-2454757D01*
X6151575Y-2373934D01*
G37*
G36*
X6385814Y-2346248D02*
G01*
X6343650Y-2399588D01*
X6457950Y-2399588D01*
X6415786Y-2346248D01*
G37*
G36*
X2371191Y-212598D02*
G01*
X2364943Y-284175D01*
X2386584Y-304901D01*
X2457805Y-295605D01*
G37*
G36*
X3661105Y-268833D02*
G01*
X3706114Y-324815D01*
X3736086Y-324815D01*
X3781094Y-268833D01*
G37*
G36*
X4054957Y-210870D02*
G01*
X3970070Y-295757D01*
X4041495Y-303530D01*
X4062729Y-282295D01*
G37*
G36*
X4408017Y-2405583D02*
G01*
X4389018Y-2429002D01*
X4404207Y-2499156D01*
X4479798Y-2405989D01*
G37*
G36*
X4668824Y-2399741D02*
G01*
X4648098Y-2421382D01*
X4657394Y-2492603D01*
X4740402Y-2405989D01*
G37*
G36*
X494893Y-2051050D02*
G01*
X494893Y-2165350D01*
X548233Y-2123186D01*
X548233Y-2093214D01*
G37*
G36*
X381762Y-2278227D02*
G01*
X360527Y-2299462D01*
X368452Y-2366975D01*
X449275Y-2286152D01*
G37*
G36*
X458266Y-1163777D02*
G01*
X458266Y-1223822D01*
X486257Y-1208786D01*
X486257Y-1178814D01*
G37*
G36*
X4465523Y-1335633D02*
G01*
X4465523Y-1382166D01*
X4487214Y-1373886D01*
X4487214Y-1343914D01*
G37*
G36*
X4798314Y-1698142D02*
G01*
X4783277Y-1726133D01*
X4843322Y-1726133D01*
X4828286Y-1698142D01*
G37*
G36*
X4634433Y-1151077D02*
G01*
X4606442Y-1166114D01*
X4606442Y-1196086D01*
X4634433Y-1211122D01*
G37*
G36*
X4465523Y-840333D02*
G01*
X4465523Y-886866D01*
X4487214Y-878586D01*
X4487214Y-848614D01*
G37*
G36*
X5992114Y-1085291D02*
G01*
X5969609Y-1130300D01*
X6044590Y-1130300D01*
X6022086Y-1085291D01*
G37*
G36*
X6083909Y-309880D02*
G01*
X6106414Y-354888D01*
X6136386Y-354888D01*
X6158890Y-309880D01*
G37*
G36*
X3145485Y-4222597D02*
G01*
X3145485Y-4422597D01*
X3445510Y-4422597D01*
X3445510Y-4222597D01*
G37*
D10*
X6146800Y-2449995D02*
G01*
X4560404Y-863600D01*
X4445000Y-863600D01*
X6007100Y-1206500D02*
G01*
X6007100Y-863600D01*
X6121400Y-749300D01*
X6121400Y-215900D01*
X6146800Y-3060700D02*
G01*
X5930900Y-2844800D01*
X5930900Y-2413000D01*
X4876800Y-1358900D01*
X4445000Y-1358900D01*
X3975100Y-215900D02*
G01*
X4330700Y-571500D01*
X4660900Y-571500D01*
X6400800Y-2311400D01*
X6400800Y-2450084D01*
X3721100Y-215900D02*
G01*
X3721100Y-342900D01*
X4064000Y-685800D01*
X4597400Y-685800D01*
X6273800Y-2362200D01*
X6273800Y-2616200D01*
X6400800Y-2743200D01*
X6400800Y-3099993D01*
D11*
X3045508Y-4322594D02*
G01*
X4186397Y-4322594D01*
X4940300Y-3568700D01*
X6324600Y-3568700D01*
X6654800Y-3238500D01*
X6654800Y-2946400D01*
X6654800Y-3060700D01*
D10*
X444500Y-2362200D02*
G01*
X292100Y-2209800D01*
X292100Y-2006600D01*
X342900Y-1955800D01*
X520700Y-1955800D01*
X584200Y-2019300D01*
X4267200Y-2019300D01*
X4737100Y-2489200D01*
X444500Y-2108200D02*
G01*
X4089400Y-2108200D01*
X4470400Y-2489200D01*
X4483100Y-2489200D01*
X3098800Y-3467100D02*
G01*
X3098800Y-3657600D01*
X3073400Y-3530600D01*
X3022600Y-3530600D01*
X2997200Y-3556000D01*
X2997200Y-3657600D01*
X3175005Y-3517900D02*
G01*
X3188263Y-3517900D01*
X3238500Y-3517900D02*
G01*
X3251758Y-3517900D01*
X3213100Y-3467100D02*
G01*
X3213100Y-3619500D01*
X3200400Y-3632200D01*
X3200400Y-3644900D01*
X3187700Y-3657600D01*
X3162300Y-3657600D01*
X2705100Y-3670300D02*
G01*
X2616200Y-3581400D01*
X2616200Y-3492500D01*
X2641600Y-3467100D01*
X2679700Y-3467100D01*
X2717800Y-3505200D01*
X2755900Y-3467100D01*
X2794000Y-3467100D01*
X2819400Y-3492500D01*
X2819400Y-3581400D01*
X2743200Y-3657600D01*
X3898900Y-3545839D02*
G01*
X3952240Y-3545839D01*
X3987800Y-3581400D01*
X3987800Y-3632200D01*
X3975100Y-3632200D01*
X3949700Y-3657600D01*
X3937000Y-3657600D01*
X3302000Y-3657600D02*
G01*
X3302000Y-3530600D01*
X3314700Y-3467100D02*
G01*
X3302000Y-3467100D01*
X3721100Y-3632200D02*
G01*
X3746500Y-3657600D01*
X3797300Y-3657600D01*
X3835400Y-3619500D01*
X3835400Y-3568700D01*
X3797300Y-3530600D01*
X3759200Y-3530600D01*
X3733800Y-3556000D01*
X3733800Y-3581400D01*
X3810000Y-3581400D01*
X3378200Y-3530600D02*
G01*
X3378200Y-3556000D01*
X3390900Y-3568700D01*
X3390900Y-3606800D01*
X3403600Y-3619500D01*
X3403600Y-3657600D01*
X3416300Y-3644900D01*
X3416300Y-3632200D01*
X3429000Y-3619500D01*
X3429000Y-3581400D01*
X3441700Y-3568700D01*
X3441700Y-3543300D01*
X3454400Y-3530600D01*
X3454400Y-3556000D01*
X3467100Y-3568700D01*
X3467100Y-3606800D01*
X3479800Y-3619500D01*
X3479800Y-3644900D01*
X3492500Y-3657600D01*
X3492500Y-3619500D01*
X3505200Y-3606800D01*
X3505200Y-3568700D01*
X3517900Y-3556000D01*
X3517900Y-3543300D01*
X3530600Y-3530600D01*
X3898900Y-3657600D02*
G01*
X3898900Y-3632200D01*
X3898900Y-3467100D01*
X4064000Y-3657600D02*
G01*
X4064000Y-3530600D01*
X4076700Y-3543300D01*
X4089400Y-3543300D01*
X4102100Y-3530600D01*
X4152900Y-3530600D01*
X4178300Y-3556000D01*
X4178300Y-3619500D01*
X4140200Y-3657600D01*
X4102100Y-3657600D01*
X4076700Y-3632200D01*
X4445000Y-3657600D02*
G01*
X4443729Y-3567429D01*
X4406900Y-3530600D01*
X4368800Y-3530600D01*
X4343400Y-3657600D01*
X4343400Y-3556000D01*
X4330700Y-3556000D01*
X4305300Y-3530600D01*
X4267200Y-3530600D01*
X4241800Y-3556000D01*
X4241800Y-3657600D01*
X431800Y-1193800D02*
G01*
X1476499Y-1193800D01*
X2451100Y-219199D01*
X4813300Y-1752600D02*
G01*
X4813300Y-1574800D01*
X4749800Y-1511300D01*
X4356100Y-1511300D01*
X4292600Y-1447800D01*
X4292600Y-1295400D01*
X4406900Y-1181100D01*
X4660900Y-1181100D01*
D12*
G01*
X6146800Y-3099993D03*
G01*
X6400800Y-3099993D03*
D13*
G01*
X6654800Y-3099993D03*
D12*
G01*
X6908800Y-3099993D03*
G01*
X6146800Y-2449995D03*
G01*
X6400800Y-2449995D03*
D13*
G01*
X6654800Y-2449995D03*
D12*
G01*
X6908800Y-2449995D03*
G01*
X7251700Y-1714500D03*
G01*
X7251700Y-1460500D03*
D13*
G01*
X7251700Y-1206500D03*
D12*
G01*
X6626301Y-1714500D03*
G01*
X6626301Y-1460500D03*
D13*
G01*
X6626301Y-1206500D03*
D12*
G01*
X6007100Y-1714500D03*
G01*
X6007100Y-1460500D03*
D13*
G01*
X6007100Y-1206500D03*
D14*
G01*
X2006600Y-3238500D03*
G01*
X2514600Y-3238500D03*
G01*
X5537200Y-3949700D03*
G01*
X6045200Y-3949700D03*
G01*
X927100Y-215900D03*
G01*
X1181100Y-215900D03*
G01*
X1435100Y-215900D03*
G01*
X1689100Y-215900D03*
G01*
X1943100Y-215900D03*
G01*
X2197100Y-215900D03*
G01*
X2451100Y-215900D03*
G01*
X2705100Y-215900D03*
G01*
X2959100Y-215900D03*
G01*
X3213100Y-215900D03*
G01*
X3467100Y-215900D03*
G01*
X3721100Y-215900D03*
G01*
X3975100Y-215900D03*
G01*
X4229100Y-215900D03*
G01*
X4483100Y-215900D03*
G01*
X4737100Y-215900D03*
G01*
X4991100Y-215900D03*
G01*
X5245100Y-215900D03*
D16*
G01*
X5499100Y-215900D03*
D14*
G01*
X927100Y-2485897D03*
G01*
X1181100Y-2485897D03*
G01*
X1435100Y-2485897D03*
G01*
X1689100Y-2485897D03*
G01*
X1943100Y-2485897D03*
G01*
X2197100Y-2485897D03*
G01*
X2451100Y-2485897D03*
G01*
X2705100Y-2485897D03*
G01*
X2959100Y-2485897D03*
G01*
X3213100Y-2485897D03*
G01*
X3467100Y-2485897D03*
G01*
X3721100Y-2485897D03*
G01*
X3975100Y-2485897D03*
G01*
X4229100Y-2485897D03*
G01*
X4483100Y-2485897D03*
G01*
X4737100Y-2485897D03*
G01*
X4991100Y-2485897D03*
G01*
X5245100Y-2485897D03*
D16*
G01*
X5499100Y-2485897D03*
D17*
G01*
X1233804Y-3750589D03*
D18*
G01*
X863803Y-3295599D03*
G01*
X1493773Y-3298062D03*
D19*
G01*
X6375400Y-215900D03*
D20*
G01*
X6121400Y-215900D03*
D21*
G01*
X3045510Y-4322597D03*
G01*
X3045510Y-4068597D03*
D11*
G01*
X3045510Y-3195802D03*
G01*
X3045510Y-2941802D03*
G01*
X4955489Y-2941802D03*
G01*
X4955489Y-3195802D03*
D21*
G01*
X4955489Y-4068597D03*
G01*
X4955489Y-4322597D03*
D22*
G01*
X399999Y-150012D03*
G01*
X399999Y-650011D03*
G01*
X150012Y-399999D03*
G01*
X650011Y-399999D03*
G01*
X577799Y-222199D03*
G01*
X222199Y-222199D03*
G01*
X577799Y-577799D03*
G01*
X222199Y-577799D03*
G01*
X7099985Y-150012D03*
G01*
X7099985Y-650011D03*
G01*
X6849999Y-399999D03*
G01*
X7349997Y-399999D03*
G01*
X7277785Y-222199D03*
G01*
X6922185Y-222199D03*
G01*
X7277785Y-577799D03*
G01*
X6922185Y-577799D03*
G01*
X399999Y-3950004D03*
G01*
X399999Y-4450003D03*
G01*
X150012Y-4199991D03*
G01*
X650011Y-4199991D03*
G01*
X577799Y-4022191D03*
G01*
X222199Y-4022191D03*
G01*
X577799Y-4377791D03*
G01*
X222199Y-4377791D03*
G01*
X7099985Y-3950004D03*
G01*
X7099985Y-4450003D03*
G01*
X6849999Y-4199991D03*
G01*
X7349997Y-4199991D03*
G01*
X7277785Y-4022191D03*
G01*
X6922185Y-4022191D03*
G01*
X7277785Y-4377791D03*
G01*
X6922185Y-4377791D03*
D12*
G01*
X444500Y-2108200D03*
G01*
X444500Y-2362200D03*
D13*
G01*
X444500Y-2616200D03*
D22*
G01*
X431800Y-1193800D03*
D23*
G01*
X4445000Y-1358900D03*
D22*
G01*
X5461000Y-622300D03*
G01*
X5626100Y-838200D03*
G01*
X5346700Y-977900D03*
G01*
X4813300Y-406400D03*
G01*
X4660900Y-406400D03*
G01*
X5105400Y-406400D03*
G01*
X4953000Y-406400D03*
G01*
X4813300Y-1752600D03*
G01*
X4660900Y-1181100D03*
D23*
G01*
X4445000Y-863600D03*
D22*
G01*
X5626100Y-977900D03*
G01*
X5626100Y-1143000D03*
G01*
X5626100Y-1295400D03*
M02*
