G04 Layer: TopSilkscreenLayer*
G04 EasyEDA v6.5.57, 2026-08-21 14:04:48*
G04 6babd1ff1e854c829ccbb43ea7f903ec,73b71592eb5d450092b712373c5d4a3f,10*
G04 Gerber Generator version 0.2*
G04 Scale: 100 percent, Rotated: No, Reflected: No *
G04 Dimensions in millimeters *
G04 leading zeros omitted , absolute positions ,4 integer and 5 decimal *
%FSLAX45Y45*%
%MOMM*%

%ADD10C,0.1524*%
%ADD11C,0.2032*%
%ADD12C,0.2540*%
%ADD13C,0.2032*%
%ADD14C,0.1270*%
%ADD15C,0.0196*%

%LPD*%
G36*
X10337800Y-1855419D02*
G01*
X10337800Y-1903780D01*
X10378897Y-1903780D01*
X10378897Y-1855419D01*
G37*
G36*
X9425330Y-1871522D02*
G01*
X9425330Y-2090115D01*
X9466427Y-2090115D01*
X9466427Y-2029256D01*
X9480346Y-2017217D01*
X9522866Y-2090115D01*
X9567621Y-2090115D01*
X9567621Y-2088896D01*
X9505391Y-1991258D01*
X9565436Y-1933143D01*
X9515195Y-1933143D01*
X9467138Y-1985060D01*
X9466376Y-1871522D01*
G37*
G36*
X8900160Y-1878533D02*
G01*
X8900160Y-1913737D01*
X8941206Y-1913737D01*
X8974226Y-1914855D01*
X8985910Y-1920697D01*
X8991854Y-1930958D01*
X8991854Y-1954428D01*
X8985859Y-1964588D01*
X8975699Y-1970532D01*
X8941206Y-1971598D01*
X8941206Y-1913737D01*
X8900160Y-1913737D01*
X8900160Y-2090216D01*
X8940495Y-2089404D01*
X8941257Y-2006498D01*
X8957462Y-2006498D01*
X8967114Y-2010511D01*
X8976004Y-2021332D01*
X9009227Y-2090115D01*
X9052712Y-2090115D01*
X9052712Y-2087168D01*
X9010243Y-2002282D01*
X9001048Y-1991817D01*
X8996984Y-1991817D01*
X8996984Y-1988870D01*
X9003741Y-1988870D01*
X9018981Y-1981301D01*
X9029344Y-1969160D01*
X9035491Y-1948942D01*
X9033967Y-1922119D01*
X9028887Y-1907489D01*
X9020556Y-1895398D01*
X9006230Y-1886204D01*
X8983014Y-1879955D01*
G37*
G36*
X9907981Y-1880260D02*
G01*
X9857638Y-1881073D01*
X9833914Y-1969770D01*
X9832340Y-1969820D01*
X9812070Y-1894281D01*
X9808006Y-1880311D01*
X9758324Y-1880311D01*
X9758324Y-2090115D01*
X9795002Y-2090115D01*
X9795256Y-1926539D01*
X9816998Y-2013915D01*
X9849967Y-2013102D01*
X9870541Y-1927453D01*
X9871303Y-2090115D01*
X9907981Y-2090115D01*
G37*
G36*
X10494772Y-1887677D02*
G01*
X10494772Y-1931670D01*
X10455148Y-1931670D01*
X10455148Y-1963928D01*
X10494568Y-1963928D01*
X10495584Y-2057095D01*
X10502290Y-2073910D01*
X10513923Y-2083866D01*
X10530687Y-2088997D01*
X10590225Y-2090470D01*
X10589412Y-2058568D01*
X10544708Y-2057095D01*
X10536580Y-2048967D01*
X10535716Y-1963928D01*
X10590225Y-1963928D01*
X10589412Y-1932432D01*
X10535818Y-1931619D01*
X10535818Y-1887677D01*
G37*
G36*
X8167370Y-1915566D02*
G01*
X8151266Y-1916023D01*
X8139531Y-1917039D01*
X8112048Y-1921510D01*
X8083753Y-1930552D01*
X8056118Y-1943455D01*
X8026552Y-1963115D01*
X7997037Y-1992579D01*
X7978444Y-2018588D01*
X7962798Y-2049373D01*
X7952740Y-2080564D01*
X7947507Y-2109927D01*
X7947507Y-2152446D01*
X7951266Y-2174443D01*
X7958429Y-2201316D01*
X7965998Y-2219858D01*
X7974838Y-2237536D01*
X7980578Y-2245664D01*
X7991957Y-2251506D01*
X8003082Y-2251405D01*
X8015122Y-2245969D01*
X8021929Y-2236368D01*
X8023250Y-2220518D01*
X8009890Y-2192070D01*
X8002727Y-2170074D01*
X7998714Y-2148078D01*
X7999069Y-2108454D01*
X8008010Y-2074062D01*
X8021828Y-2045817D01*
X8038541Y-2023364D01*
X8061299Y-2001875D01*
X8086344Y-1985518D01*
X8108899Y-1976018D01*
X8130692Y-1969820D01*
X8170316Y-1966620D01*
X8176361Y-1965502D01*
X8186318Y-1958797D01*
X8191906Y-1949145D01*
X8191906Y-1935124D01*
X8187283Y-1926183D01*
X8178292Y-1918563D01*
G37*
G36*
X9337446Y-1928723D02*
G01*
X9317532Y-1928977D01*
X9298432Y-1933092D01*
X9280601Y-1941880D01*
X9263786Y-1959508D01*
X9255556Y-1977898D01*
X9251492Y-1994001D01*
X9251645Y-2030679D01*
X9256877Y-2049780D01*
X9265767Y-2066543D01*
X9282480Y-2082444D01*
X9296958Y-2089657D01*
X9311640Y-2093772D01*
X9346844Y-2093772D01*
X9367367Y-2087270D01*
X9376918Y-2081377D01*
X9376918Y-2046122D01*
X9375140Y-2046122D01*
X9358579Y-2056282D01*
X9341104Y-2060752D01*
X9327591Y-2060752D01*
X9312960Y-2056434D01*
X9301073Y-2046224D01*
X9294215Y-2030679D01*
X9292996Y-1999538D01*
X9297720Y-1983232D01*
X9307271Y-1970735D01*
X9321038Y-1963623D01*
X9339580Y-1962150D01*
X9358579Y-1966975D01*
X9375140Y-1977136D01*
X9377019Y-1977136D01*
X9376206Y-1941220D01*
X9360052Y-1933397D01*
G37*
G36*
X10205212Y-1928723D02*
G01*
X10190378Y-1928825D01*
X10175646Y-1933956D01*
X10166197Y-1940661D01*
X10158069Y-1954428D01*
X10157206Y-1933143D01*
X10116261Y-1933143D01*
X10116261Y-2090115D01*
X10157155Y-2090115D01*
X10158069Y-1985213D01*
X10165943Y-1968449D01*
X10175697Y-1962302D01*
X10191038Y-1963470D01*
X10197388Y-1969109D01*
X10202062Y-1979371D01*
X10203078Y-2090115D01*
X10244277Y-2090115D01*
X10242753Y-1970532D01*
X10238486Y-1955901D01*
X10232390Y-1943963D01*
X10220604Y-1933295D01*
G37*
G36*
X10906252Y-1928723D02*
G01*
X10890351Y-1933193D01*
X10881309Y-1938832D01*
X10872216Y-1948535D01*
X10867390Y-1955800D01*
X10867390Y-1933143D01*
X10826292Y-1933143D01*
X10826292Y-2090115D01*
X10867186Y-2090115D01*
X10868101Y-1992579D01*
X10874248Y-1979371D01*
X10886287Y-1968500D01*
X10901680Y-1963928D01*
X10921136Y-1963928D01*
X10935919Y-1968347D01*
X10946587Y-1975612D01*
X10946587Y-1936292D01*
X10929721Y-1929892D01*
G37*
G36*
X10012883Y-1928774D02*
G01*
X9998202Y-1928977D01*
X9980168Y-1932889D01*
X9963708Y-1940966D01*
X9947910Y-1957527D01*
X9938715Y-1975662D01*
X9933990Y-1995474D01*
X9934039Y-2011527D01*
X9973970Y-2011527D01*
X9976866Y-1988667D01*
X9982911Y-1975002D01*
X9989413Y-1967941D01*
X10001148Y-1962556D01*
X10011410Y-1962556D01*
X10023144Y-1967941D01*
X10029596Y-1975002D01*
X10035641Y-1988667D01*
X10038537Y-2011527D01*
X10035641Y-2034539D01*
X10029596Y-2048306D01*
X10021671Y-2056739D01*
X10012222Y-2060752D01*
X10000284Y-2060752D01*
X9990836Y-2056739D01*
X9982962Y-2048306D01*
X9976866Y-2034539D01*
X9973970Y-2011527D01*
X9934039Y-2011527D01*
X9934092Y-2029256D01*
X9940188Y-2052269D01*
X9949027Y-2067661D01*
X9963200Y-2082038D01*
X9977932Y-2090013D01*
X9996728Y-2094484D01*
X10014305Y-2094484D01*
X10034219Y-2090267D01*
X10048697Y-2082393D01*
X10063632Y-2067356D01*
X10072319Y-2052269D01*
X10078364Y-2029256D01*
X10078516Y-1995474D01*
X10073792Y-1975662D01*
X10064648Y-1957628D01*
X10050170Y-1942338D01*
X10032746Y-1932990D01*
G37*
G36*
X10705287Y-1928774D02*
G01*
X10690606Y-1928977D01*
X10672622Y-1932889D01*
X10656112Y-1940966D01*
X10640314Y-1957527D01*
X10631170Y-1975662D01*
X10626445Y-1995474D01*
X10626445Y-2011527D01*
X10666374Y-2011527D01*
X10669270Y-1988667D01*
X10675366Y-1975002D01*
X10681817Y-1967941D01*
X10693552Y-1962556D01*
X10703814Y-1962556D01*
X10715548Y-1967941D01*
X10722000Y-1975002D01*
X10728045Y-1988667D01*
X10730941Y-2011527D01*
X10728096Y-2034539D01*
X10722000Y-2048306D01*
X10714075Y-2056739D01*
X10704626Y-2060752D01*
X10692739Y-2060752D01*
X10683290Y-2056739D01*
X10675366Y-2048306D01*
X10669270Y-2034539D01*
X10666374Y-2011527D01*
X10626445Y-2011527D01*
X10626496Y-2029256D01*
X10632643Y-2052269D01*
X10641431Y-2067661D01*
X10655604Y-2082038D01*
X10670336Y-2090013D01*
X10689132Y-2094484D01*
X10706760Y-2094484D01*
X10726623Y-2090267D01*
X10741101Y-2082393D01*
X10756087Y-2067356D01*
X10764723Y-2052269D01*
X10770768Y-2029256D01*
X10770920Y-1995474D01*
X10766196Y-1975662D01*
X10757052Y-1957628D01*
X10742625Y-1942338D01*
X10725150Y-1932990D01*
G37*
G36*
X9129725Y-1928977D02*
G01*
X9102191Y-1933295D01*
X9083497Y-1939442D01*
X9083497Y-1974545D01*
X9107728Y-1964182D01*
X9130334Y-1959559D01*
X9146794Y-1959559D01*
X9159798Y-1962810D01*
X9168587Y-1972868D01*
X9168587Y-1987092D01*
X9113570Y-1988616D01*
X9098940Y-1992833D01*
X9083852Y-2000504D01*
X9073388Y-2012696D01*
X9068714Y-2026310D01*
X9066987Y-2044496D01*
X9067920Y-2049322D01*
X9111386Y-2049322D01*
X9111386Y-2035048D01*
X9116872Y-2024837D01*
X9125762Y-2019604D01*
X9138513Y-2017064D01*
X9169044Y-2016760D01*
X9167418Y-2038350D01*
X9160916Y-2053437D01*
X9150654Y-2062429D01*
X9142933Y-2065426D01*
X9126169Y-2065477D01*
X9116110Y-2059279D01*
X9111386Y-2049322D01*
X9067920Y-2049322D01*
X9070594Y-2062886D01*
X9076232Y-2073910D01*
X9086545Y-2084222D01*
X9100515Y-2091283D01*
X9118904Y-2094941D01*
X9139529Y-2093214D01*
X9157614Y-2084679D01*
X9168587Y-2073859D01*
X9168587Y-2090115D01*
X9209887Y-2090115D01*
X9208820Y-1974951D01*
X9202267Y-1955292D01*
X9192717Y-1942744D01*
X9179610Y-1934718D01*
X9161983Y-1930146D01*
G37*
G36*
X10298734Y-1931619D02*
G01*
X10296702Y-1933651D01*
X10296702Y-1963928D01*
X10337800Y-1963928D01*
X10337800Y-2057857D01*
X10286441Y-2057857D01*
X10286441Y-2090115D01*
X10430306Y-2090115D01*
X10429494Y-2058568D01*
X10378897Y-2057755D01*
X10378135Y-1932432D01*
G37*
G36*
X8170925Y-2084222D02*
G01*
X8152739Y-2084374D01*
X8136686Y-2090572D01*
X8121650Y-2105609D01*
X8115300Y-2122474D01*
X8115300Y-2139899D01*
X8121396Y-2156155D01*
X8135112Y-2170226D01*
X8149793Y-2177389D01*
X8174736Y-2177389D01*
X8189315Y-2170226D01*
X8201304Y-2158238D01*
X8208467Y-2143658D01*
X8208467Y-2118715D01*
X8201253Y-2104034D01*
X8187232Y-2090318D01*
G37*
G36*
X8478672Y-2106269D02*
G01*
X8462264Y-2106320D01*
X8456371Y-2109571D01*
X8449513Y-2115769D01*
X8445144Y-2124202D01*
X8442604Y-2168906D01*
X8435238Y-2205329D01*
X8423148Y-2240483D01*
X8407095Y-2272741D01*
X8385454Y-2305050D01*
X8363966Y-2329027D01*
X8341055Y-2349906D01*
X8319871Y-2365552D01*
X8300110Y-2377643D01*
X8273745Y-2390902D01*
X8251799Y-2399588D01*
X8218728Y-2408428D01*
X8189417Y-2412847D01*
X8140903Y-2412847D01*
X8116062Y-2409850D01*
X8092592Y-2405227D01*
X8064703Y-2396388D01*
X8041233Y-2386787D01*
X8031937Y-2384806D01*
X8019948Y-2388006D01*
X8010144Y-2397861D01*
X8006689Y-2411526D01*
X8009686Y-2422753D01*
X8016138Y-2430932D01*
X8039760Y-2441956D01*
X8075625Y-2453894D01*
X8118957Y-2462987D01*
X8179562Y-2464562D01*
X8212886Y-2461107D01*
X8242198Y-2455214D01*
X8268614Y-2447645D01*
X8295030Y-2437485D01*
X8326729Y-2421585D01*
X8350503Y-2406853D01*
X8377326Y-2386634D01*
X8405977Y-2359558D01*
X8429548Y-2331415D01*
X8452815Y-2296363D01*
X8470036Y-2261006D01*
X8480755Y-2232101D01*
X8490610Y-2193544D01*
X8495284Y-2157323D01*
X8495284Y-2122830D01*
X8488578Y-2112924D01*
G37*
G36*
X8945626Y-2260295D02*
G01*
X8945626Y-2303475D01*
X8940850Y-2296617D01*
X8928760Y-2291130D01*
X8917635Y-2291080D01*
X8906764Y-2295652D01*
X8898432Y-2303576D01*
X8892946Y-2314244D01*
X8889695Y-2334361D01*
X8891515Y-2350516D01*
X8905341Y-2350516D01*
X8905341Y-2321153D01*
X8911793Y-2307945D01*
X8919972Y-2302916D01*
X8929624Y-2302814D01*
X8938260Y-2307285D01*
X8944813Y-2319680D01*
X8944914Y-2350516D01*
X8938564Y-2364232D01*
X8929624Y-2368854D01*
X8920429Y-2368854D01*
X8911844Y-2363774D01*
X8905341Y-2350516D01*
X8891515Y-2350516D01*
X8891676Y-2351989D01*
X8897213Y-2366772D01*
X8906764Y-2376017D01*
X8917635Y-2380589D01*
X8928100Y-2380589D01*
X8939022Y-2376119D01*
X8945626Y-2368092D01*
X8945626Y-2377643D01*
X8958834Y-2377643D01*
X8958834Y-2260295D01*
G37*
G36*
X9209684Y-2260295D02*
G01*
X9209684Y-2277872D01*
X9222892Y-2277872D01*
X9222892Y-2260295D01*
G37*
G36*
X9616033Y-2260295D02*
G01*
X9616033Y-2303475D01*
X9611258Y-2296617D01*
X9599168Y-2291130D01*
X9587433Y-2291130D01*
X9575495Y-2296566D01*
X9566452Y-2307539D01*
X9561957Y-2321814D01*
X9576409Y-2321814D01*
X9580930Y-2310993D01*
X9585960Y-2305405D01*
X9591852Y-2303018D01*
X9600946Y-2302814D01*
X9610902Y-2309520D01*
X9615932Y-2324100D01*
X9615932Y-2347569D01*
X9610902Y-2362149D01*
X9600641Y-2369108D01*
X9588042Y-2367737D01*
X9581896Y-2362250D01*
X9576511Y-2350516D01*
X9576409Y-2321814D01*
X9561957Y-2321814D01*
X9561423Y-2323490D01*
X9562642Y-2354884D01*
X9570262Y-2369566D01*
X9577222Y-2376017D01*
X9588093Y-2380589D01*
X9599168Y-2380488D01*
X9611258Y-2375052D01*
X9616033Y-2368194D01*
X9616033Y-2377643D01*
X9630714Y-2377643D01*
X9630714Y-2260295D01*
G37*
G36*
X9758324Y-2260295D02*
G01*
X9758324Y-2322626D01*
X9772294Y-2322626D01*
X9777730Y-2308453D01*
X9786924Y-2302814D01*
X9796627Y-2302814D01*
X9804958Y-2307132D01*
X9811816Y-2321153D01*
X9811867Y-2350516D01*
X9804958Y-2364536D01*
X9796627Y-2368854D01*
X9787534Y-2368854D01*
X9778593Y-2364232D01*
X9772345Y-2350516D01*
X9772294Y-2322626D01*
X9758324Y-2322626D01*
X9758324Y-2377643D01*
X9771532Y-2377643D01*
X9771532Y-2368397D01*
X9778898Y-2376322D01*
X9789058Y-2380589D01*
X9798964Y-2380589D01*
X9808972Y-2377236D01*
X9818725Y-2368092D01*
X9824364Y-2357170D01*
X9827768Y-2335377D01*
X9824212Y-2313990D01*
X9816592Y-2300020D01*
X9805720Y-2292451D01*
X9791039Y-2290724D01*
X9780320Y-2294229D01*
X9771532Y-2303068D01*
X9771532Y-2260295D01*
G37*
G36*
X10359796Y-2260295D02*
G01*
X10359796Y-2277872D01*
X10373004Y-2277872D01*
X10373004Y-2260295D01*
G37*
G36*
X10522661Y-2260295D02*
G01*
X10522661Y-2270556D01*
X10544505Y-2270556D01*
X10545368Y-2359304D01*
X10551414Y-2371039D01*
X10564317Y-2377643D01*
X10588650Y-2377643D01*
X10588650Y-2365908D01*
X10568838Y-2365857D01*
X10561523Y-2362149D01*
X10558018Y-2351989D01*
X10557865Y-2260295D01*
G37*
G36*
X10041483Y-2264359D02*
G01*
X10041483Y-2277872D01*
X10076027Y-2277872D01*
X10089134Y-2284476D01*
X10095738Y-2296566D01*
X10098227Y-2321153D01*
X10095788Y-2345690D01*
X10089134Y-2357831D01*
X10076027Y-2364435D01*
X10056114Y-2364435D01*
X10056114Y-2277872D01*
X10041483Y-2277872D01*
X10041483Y-2377998D01*
X10080345Y-2376728D01*
X10095839Y-2369921D01*
X10107523Y-2356612D01*
X10113670Y-2336393D01*
X10112248Y-2299157D01*
X10107269Y-2285390D01*
X10095839Y-2272436D01*
X10080345Y-2265629D01*
G37*
G36*
X9113570Y-2289708D02*
G01*
X9104579Y-2292096D01*
X9095536Y-2297430D01*
X9089390Y-2308352D01*
X9089390Y-2320544D01*
X9093454Y-2330246D01*
X9103309Y-2336342D01*
X9128099Y-2342489D01*
X9134805Y-2346858D01*
X9136684Y-2354224D01*
X9132874Y-2363317D01*
X9123222Y-2367381D01*
X9109202Y-2367280D01*
X9094520Y-2361946D01*
X9089390Y-2359710D01*
X9089390Y-2374493D01*
X9109760Y-2379116D01*
X9124086Y-2379116D01*
X9138970Y-2374696D01*
X9148013Y-2364384D01*
X9149537Y-2357831D01*
X9149994Y-2351989D01*
X9149537Y-2342083D01*
X9138513Y-2331059D01*
X9115044Y-2325928D01*
X9105493Y-2322017D01*
X9102750Y-2314854D01*
X9104934Y-2306472D01*
X9115044Y-2301341D01*
X9128252Y-2301443D01*
X9144406Y-2307132D01*
X9146590Y-2307234D01*
X9146590Y-2295347D01*
X9136176Y-2290978D01*
G37*
G36*
X9406991Y-2290978D02*
G01*
X9395002Y-2296566D01*
X9388652Y-2304694D01*
X9388652Y-2292400D01*
X9374733Y-2293315D01*
X9373920Y-2377643D01*
X9388652Y-2377643D01*
X9388652Y-2322982D01*
X9392107Y-2311450D01*
X9400489Y-2304389D01*
X9410547Y-2302510D01*
X9421672Y-2307945D01*
X9425178Y-2318207D01*
X9425330Y-2377643D01*
X9438741Y-2377643D01*
X9437827Y-2307945D01*
X9431934Y-2297988D01*
X9423908Y-2291994D01*
G37*
G36*
X10269575Y-2290978D02*
G01*
X10257637Y-2296566D01*
X10251236Y-2304694D01*
X10251236Y-2292400D01*
X10237317Y-2293315D01*
X10236555Y-2377643D01*
X10251236Y-2377643D01*
X10251236Y-2322982D01*
X10254691Y-2311450D01*
X10263073Y-2304389D01*
X10273131Y-2302510D01*
X10284256Y-2307945D01*
X10287762Y-2318207D01*
X10287914Y-2377643D01*
X10301325Y-2377643D01*
X10300411Y-2307945D01*
X10294518Y-2297988D01*
X10286492Y-2291994D01*
G37*
G36*
X9312656Y-2291080D02*
G01*
X9299905Y-2291130D01*
X9287967Y-2296566D01*
X9278569Y-2307945D01*
X9274431Y-2321814D01*
X9288881Y-2321814D01*
X9293402Y-2310993D01*
X9298432Y-2305405D01*
X9304324Y-2302865D01*
X9317431Y-2303983D01*
X9325406Y-2312924D01*
X9328505Y-2324100D01*
X9328505Y-2344623D01*
X9325254Y-2356256D01*
X9315246Y-2366264D01*
X9300616Y-2364892D01*
X9294368Y-2359304D01*
X9288983Y-2347569D01*
X9288881Y-2321814D01*
X9274431Y-2321814D01*
X9274251Y-2322423D01*
X9274251Y-2346299D01*
X9278569Y-2360777D01*
X9287967Y-2372156D01*
X9299905Y-2377592D01*
X9310979Y-2377643D01*
X9321901Y-2373172D01*
X9328505Y-2365197D01*
X9328505Y-2384247D01*
X9323374Y-2394508D01*
X9313113Y-2399842D01*
X9296654Y-2398522D01*
X9283039Y-2392476D01*
X9283039Y-2406751D01*
X9298584Y-2410256D01*
X9322409Y-2409190D01*
X9334855Y-2400401D01*
X9340189Y-2390038D01*
X9343186Y-2374290D01*
X9343186Y-2294026D01*
X9328505Y-2294026D01*
X9328505Y-2303221D01*
X9322714Y-2295855D01*
G37*
G36*
X9510826Y-2291080D02*
G01*
X9497974Y-2291283D01*
X9484360Y-2295448D01*
X9472879Y-2306624D01*
X9467799Y-2317343D01*
X9465881Y-2327757D01*
X9481058Y-2327757D01*
X9481058Y-2322068D01*
X9484207Y-2313838D01*
X9490608Y-2306828D01*
X9499396Y-2302916D01*
X9509658Y-2302814D01*
X9519970Y-2307945D01*
X9525101Y-2318207D01*
X9525101Y-2327757D01*
X9465881Y-2327757D01*
X9464700Y-2334006D01*
X9466783Y-2348992D01*
X9470694Y-2360066D01*
X9478111Y-2369820D01*
X9493554Y-2378354D01*
X9519970Y-2378354D01*
X9536836Y-2372817D01*
X9536836Y-2358898D01*
X9518904Y-2366162D01*
X9503816Y-2367686D01*
X9491624Y-2364384D01*
X9482683Y-2354275D01*
X9479635Y-2343150D01*
X9479584Y-2338019D01*
X9540189Y-2338019D01*
X9538563Y-2316581D01*
X9532061Y-2302764D01*
X9522002Y-2294432D01*
G37*
G36*
X10468762Y-2291080D02*
G01*
X10455910Y-2291283D01*
X10442346Y-2295448D01*
X10430865Y-2306624D01*
X10425734Y-2317343D01*
X10423829Y-2327757D01*
X10439044Y-2327757D01*
X10439044Y-2322068D01*
X10442143Y-2313838D01*
X10448544Y-2306828D01*
X10457383Y-2302916D01*
X10467644Y-2302814D01*
X10477906Y-2307945D01*
X10483037Y-2318207D01*
X10483037Y-2327757D01*
X10423829Y-2327757D01*
X10422686Y-2334006D01*
X10424718Y-2348992D01*
X10428630Y-2360066D01*
X10436098Y-2369820D01*
X10451490Y-2378354D01*
X10477906Y-2378354D01*
X10494772Y-2372817D01*
X10494772Y-2358898D01*
X10476839Y-2366162D01*
X10461752Y-2367686D01*
X10449560Y-2364384D01*
X10440670Y-2354275D01*
X10437571Y-2343150D01*
X10437571Y-2338019D01*
X10498124Y-2338019D01*
X10496499Y-2316581D01*
X10489996Y-2302764D01*
X10479938Y-2294432D01*
G37*
G36*
X9031427Y-2291130D02*
G01*
X9018219Y-2291334D01*
X9010904Y-2293569D01*
X9002115Y-2298192D01*
X8992920Y-2307945D01*
X8987434Y-2318207D01*
X8987434Y-2327757D01*
X9001353Y-2327757D01*
X9001353Y-2323287D01*
X9005874Y-2312466D01*
X9010904Y-2306828D01*
X9019692Y-2302916D01*
X9031427Y-2302814D01*
X9040825Y-2308555D01*
X9045143Y-2316886D01*
X9047175Y-2327757D01*
X8987434Y-2327757D01*
X8987434Y-2351989D01*
X8993835Y-2363927D01*
X9005671Y-2374595D01*
X9022486Y-2379472D01*
X9041688Y-2377795D01*
X9057132Y-2373122D01*
X9057132Y-2358745D01*
X9041485Y-2365908D01*
X9023807Y-2367737D01*
X9013037Y-2364181D01*
X9004503Y-2357018D01*
X9001607Y-2347569D01*
X8999677Y-2338019D01*
X9060027Y-2338019D01*
X9060027Y-2320544D01*
X9054033Y-2304542D01*
X9042654Y-2294229D01*
G37*
G36*
X10178643Y-2291130D02*
G01*
X10162489Y-2291283D01*
X10143439Y-2296210D01*
X10142524Y-2310180D01*
X10158069Y-2304084D01*
X10177170Y-2302459D01*
X10188295Y-2307132D01*
X10192562Y-2317394D01*
X10192562Y-2322982D01*
X10158069Y-2324303D01*
X10146334Y-2330399D01*
X10139934Y-2337308D01*
X10136835Y-2345537D01*
X10136835Y-2349703D01*
X10149687Y-2349703D01*
X10153396Y-2340762D01*
X10160558Y-2336088D01*
X10171277Y-2333955D01*
X10190937Y-2333650D01*
X10192816Y-2336698D01*
X10190835Y-2351227D01*
X10184434Y-2360726D01*
X10174224Y-2367635D01*
X10158780Y-2366416D01*
X10151516Y-2359558D01*
X10149687Y-2349703D01*
X10136835Y-2349703D01*
X10136835Y-2358644D01*
X10140848Y-2368092D01*
X10149281Y-2375763D01*
X10159288Y-2379116D01*
X10169804Y-2379116D01*
X10181031Y-2375966D01*
X10192562Y-2365552D01*
X10192562Y-2377643D01*
X10205770Y-2377643D01*
X10205770Y-2313736D01*
X10199166Y-2300630D01*
X10189260Y-2294077D01*
G37*
G36*
X9847834Y-2292400D02*
G01*
X9847834Y-2295042D01*
X9879990Y-2376779D01*
X9872268Y-2393950D01*
X9866223Y-2398166D01*
X9853676Y-2398166D01*
X9853676Y-2409901D01*
X9869932Y-2409901D01*
X9881260Y-2404160D01*
X9887407Y-2394204D01*
X9894976Y-2373985D01*
X9925558Y-2294534D01*
X9925558Y-2292553D01*
X9912502Y-2292553D01*
X9909759Y-2297684D01*
X9886899Y-2359152D01*
X9861753Y-2293315D01*
G37*
G36*
X9187688Y-2294026D02*
G01*
X9187688Y-2304288D01*
X9209684Y-2304288D01*
X9209684Y-2367381D01*
X9181795Y-2367381D01*
X9181795Y-2377643D01*
X9250781Y-2377643D01*
X9250781Y-2367483D01*
X9223603Y-2366619D01*
X9222841Y-2294026D01*
G37*
G36*
X10337800Y-2294026D02*
G01*
X10337800Y-2304288D01*
X10359847Y-2304288D01*
X10359085Y-2366619D01*
X10331958Y-2367483D01*
X10331958Y-2377643D01*
X10400893Y-2377643D01*
X10400893Y-2367381D01*
X10373004Y-2367381D01*
X10373004Y-2294026D01*
G37*
G36*
X9049105Y-2543657D02*
G01*
X9042958Y-2546908D01*
X9035999Y-2549652D01*
X9028023Y-2551938D01*
X9019032Y-2553817D01*
X9019032Y-2564587D01*
X9045244Y-2564587D01*
X9045244Y-2678582D01*
X9011920Y-2692400D01*
X9091980Y-2692400D01*
X9091980Y-2678582D01*
X9061704Y-2678582D01*
X9061704Y-2543657D01*
G37*
G36*
X9215526Y-2543657D02*
G01*
X9209379Y-2546908D01*
X9202420Y-2549652D01*
X9194444Y-2551938D01*
X9185452Y-2553817D01*
X9185452Y-2564587D01*
X9211665Y-2564587D01*
X9211665Y-2678582D01*
X9178340Y-2692400D01*
X9258401Y-2692400D01*
X9258401Y-2678582D01*
X9228124Y-2678582D01*
X9228124Y-2543657D01*
G37*
G36*
X8892641Y-2582672D02*
G01*
X8932672Y-2692400D01*
X8951976Y-2692400D01*
X8991193Y-2582672D01*
X8974937Y-2582672D01*
X8953195Y-2646476D01*
X8948115Y-2662783D01*
X8942832Y-2678785D01*
X8942019Y-2678785D01*
X8931656Y-2646476D01*
X8909913Y-2582672D01*
G37*
G36*
X9132620Y-2668625D02*
G01*
X9127845Y-2669590D01*
X9123883Y-2672283D01*
X9121241Y-2676499D01*
X9120225Y-2682036D01*
X9121241Y-2687320D01*
X9123883Y-2691434D01*
X9127845Y-2694076D01*
X9132620Y-2695041D01*
X9137497Y-2694076D01*
X9141510Y-2691434D01*
X9144203Y-2687320D01*
X9145219Y-2682036D01*
X9144203Y-2676499D01*
X9141510Y-2672283D01*
X9137497Y-2669590D01*
G37*
D10*
X2209800Y-5459984D02*
G01*
X2209800Y-5568950D01*
X2209800Y-5459984D02*
G01*
X2277363Y-5459984D01*
X2209800Y-5511800D02*
G01*
X2251456Y-5511800D01*
X2311654Y-5480812D02*
G01*
X2322068Y-5475478D01*
X2337561Y-5459984D01*
X2337561Y-5568950D01*
D11*
X1473200Y-5929121D02*
G01*
X1473200Y-6122923D01*
X1473200Y-5929121D02*
G01*
X1593342Y-5929121D01*
X1473200Y-6021323D02*
G01*
X1547113Y-6021323D01*
X1654302Y-5993637D02*
G01*
X1654302Y-6086094D01*
X1663445Y-6113779D01*
X1681987Y-6122923D01*
X1709673Y-6122923D01*
X1728215Y-6113779D01*
X1755902Y-6086094D01*
X1755902Y-5993637D02*
G01*
X1755902Y-6122923D01*
X1918462Y-6021323D02*
G01*
X1909063Y-6003036D01*
X1881378Y-5993637D01*
X1853692Y-5993637D01*
X1826005Y-6003036D01*
X1816862Y-6021323D01*
X1826005Y-6039865D01*
X1844547Y-6049010D01*
X1890776Y-6058407D01*
X1909063Y-6067552D01*
X1918462Y-6086094D01*
X1918462Y-6095237D01*
X1909063Y-6113779D01*
X1881378Y-6122923D01*
X1853692Y-6122923D01*
X1826005Y-6113779D01*
X1816862Y-6095237D01*
X1979422Y-6049010D02*
G01*
X2090165Y-6049010D01*
X2090165Y-6030721D01*
X2081022Y-6012179D01*
X2071624Y-6003036D01*
X2053336Y-5993637D01*
X2025650Y-5993637D01*
X2007108Y-6003036D01*
X1988565Y-6021323D01*
X1979422Y-6049010D01*
X1979422Y-6067552D01*
X1988565Y-6095237D01*
X2007108Y-6113779D01*
X2025650Y-6122923D01*
X2053336Y-6122923D01*
X2071624Y-6113779D01*
X2090165Y-6095237D01*
X2293365Y-5929121D02*
G01*
X2293365Y-6122923D01*
X2422652Y-5929121D02*
G01*
X2422652Y-6122923D01*
X2293365Y-6021323D02*
G01*
X2422652Y-6021323D01*
X2529840Y-5993637D02*
G01*
X2511297Y-6003036D01*
X2493009Y-6021323D01*
X2483611Y-6049010D01*
X2483611Y-6067552D01*
X2493009Y-6095237D01*
X2511297Y-6113779D01*
X2529840Y-6122923D01*
X2557525Y-6122923D01*
X2576068Y-6113779D01*
X2594609Y-6095237D01*
X2603754Y-6067552D01*
X2603754Y-6049010D01*
X2594609Y-6021323D01*
X2576068Y-6003036D01*
X2557525Y-5993637D01*
X2529840Y-5993637D01*
X2664713Y-5929121D02*
G01*
X2664713Y-6122923D01*
X2836418Y-5929121D02*
G01*
X2836418Y-6122923D01*
X2836418Y-6021323D02*
G01*
X2818129Y-6003036D01*
X2799588Y-5993637D01*
X2771902Y-5993637D01*
X2753359Y-6003036D01*
X2734818Y-6021323D01*
X2725674Y-6049010D01*
X2725674Y-6067552D01*
X2734818Y-6095237D01*
X2753359Y-6113779D01*
X2771902Y-6122923D01*
X2799588Y-6122923D01*
X2818129Y-6113779D01*
X2836418Y-6095237D01*
X2897377Y-6049010D02*
G01*
X3008375Y-6049010D01*
X3008375Y-6030721D01*
X2998977Y-6012179D01*
X2989834Y-6003036D01*
X2971291Y-5993637D01*
X2943606Y-5993637D01*
X2925063Y-6003036D01*
X2906775Y-6021323D01*
X2897377Y-6049010D01*
X2897377Y-6067552D01*
X2906775Y-6095237D01*
X2925063Y-6113779D01*
X2943606Y-6122923D01*
X2971291Y-6122923D01*
X2989834Y-6113779D01*
X3008375Y-6095237D01*
X3069336Y-5993637D02*
G01*
X3069336Y-6122923D01*
X3069336Y-6049010D02*
G01*
X3078479Y-6021323D01*
X3097022Y-6003036D01*
X3115309Y-5993637D01*
X3143250Y-5993637D01*
X1182370Y-6247637D02*
G01*
X1163828Y-6266179D01*
X1145286Y-6293865D01*
X1126744Y-6330950D01*
X1117600Y-6376923D01*
X1117600Y-6414007D01*
X1126744Y-6460236D01*
X1145286Y-6497065D01*
X1163828Y-6524752D01*
X1182370Y-6543294D01*
X1354073Y-6284721D02*
G01*
X1261618Y-6284721D01*
X1252473Y-6367779D01*
X1261618Y-6358636D01*
X1289304Y-6349237D01*
X1316989Y-6349237D01*
X1344929Y-6358636D01*
X1363218Y-6376923D01*
X1372615Y-6404610D01*
X1372615Y-6423152D01*
X1363218Y-6450837D01*
X1344929Y-6469379D01*
X1316989Y-6478523D01*
X1289304Y-6478523D01*
X1261618Y-6469379D01*
X1252473Y-6460236D01*
X1243329Y-6441694D01*
X1433576Y-6349237D02*
G01*
X1535176Y-6478523D01*
X1535176Y-6349237D02*
G01*
X1433576Y-6478523D01*
X1605279Y-6330950D02*
G01*
X1605279Y-6321552D01*
X1614423Y-6303010D01*
X1623821Y-6293865D01*
X1642110Y-6284721D01*
X1679194Y-6284721D01*
X1697736Y-6293865D01*
X1706879Y-6303010D01*
X1716023Y-6321552D01*
X1716023Y-6340094D01*
X1706879Y-6358636D01*
X1688337Y-6386321D01*
X1596136Y-6478523D01*
X1725421Y-6478523D01*
X1841754Y-6284721D02*
G01*
X1814068Y-6293865D01*
X1795526Y-6321552D01*
X1786381Y-6367779D01*
X1786381Y-6395465D01*
X1795526Y-6441694D01*
X1814068Y-6469379D01*
X1841754Y-6478523D01*
X1860295Y-6478523D01*
X1887981Y-6469379D01*
X1906270Y-6441694D01*
X1915668Y-6395465D01*
X1915668Y-6367779D01*
X1906270Y-6321552D01*
X1887981Y-6293865D01*
X1860295Y-6284721D01*
X1841754Y-6284721D01*
X1976627Y-6349237D02*
G01*
X1976627Y-6478523D01*
X1976627Y-6386321D02*
G01*
X2004313Y-6358636D01*
X2022856Y-6349237D01*
X2050541Y-6349237D01*
X2068829Y-6358636D01*
X2078227Y-6386321D01*
X2078227Y-6478523D01*
X2078227Y-6386321D02*
G01*
X2105913Y-6358636D01*
X2124456Y-6349237D01*
X2152141Y-6349237D01*
X2170429Y-6358636D01*
X2179827Y-6386321D01*
X2179827Y-6478523D01*
X2240788Y-6349237D02*
G01*
X2240788Y-6478523D01*
X2240788Y-6386321D02*
G01*
X2268474Y-6358636D01*
X2287015Y-6349237D01*
X2314702Y-6349237D01*
X2332990Y-6358636D01*
X2342388Y-6386321D01*
X2342388Y-6478523D01*
X2342388Y-6386321D02*
G01*
X2370074Y-6358636D01*
X2388615Y-6349237D01*
X2416302Y-6349237D01*
X2434590Y-6358636D01*
X2443988Y-6386321D01*
X2443988Y-6478523D01*
X2647188Y-6284721D02*
G01*
X2647188Y-6478523D01*
X2647188Y-6284721D02*
G01*
X2767329Y-6284721D01*
X2647188Y-6376923D02*
G01*
X2721102Y-6376923D01*
X2828290Y-6349237D02*
G01*
X2828290Y-6441694D01*
X2837434Y-6469379D01*
X2855975Y-6478523D01*
X2883661Y-6478523D01*
X2901950Y-6469379D01*
X2929890Y-6441694D01*
X2929890Y-6349237D02*
G01*
X2929890Y-6478523D01*
X3092450Y-6376923D02*
G01*
X3083052Y-6358636D01*
X3055365Y-6349237D01*
X3027679Y-6349237D01*
X2999993Y-6358636D01*
X2990850Y-6376923D01*
X2999993Y-6395465D01*
X3018536Y-6404610D01*
X3064509Y-6414007D01*
X3083052Y-6423152D01*
X3092450Y-6441694D01*
X3092450Y-6450837D01*
X3083052Y-6469379D01*
X3055365Y-6478523D01*
X3027679Y-6478523D01*
X2999993Y-6469379D01*
X2990850Y-6450837D01*
X3153409Y-6404610D02*
G01*
X3264154Y-6404610D01*
X3264154Y-6386321D01*
X3255009Y-6367779D01*
X3245611Y-6358636D01*
X3227070Y-6349237D01*
X3199384Y-6349237D01*
X3181095Y-6358636D01*
X3162554Y-6376923D01*
X3153409Y-6404610D01*
X3153409Y-6423152D01*
X3162554Y-6450837D01*
X3181095Y-6469379D01*
X3199384Y-6478523D01*
X3227070Y-6478523D01*
X3245611Y-6469379D01*
X3264154Y-6450837D01*
X3325113Y-6247637D02*
G01*
X3343656Y-6266179D01*
X3361943Y-6293865D01*
X3380486Y-6330950D01*
X3389629Y-6376923D01*
X3389629Y-6414007D01*
X3380486Y-6460236D01*
X3361943Y-6497065D01*
X3343656Y-6524752D01*
X3325113Y-6543294D01*
D10*
X5041900Y-4901181D02*
G01*
X5041900Y-4979159D01*
X5046979Y-4994653D01*
X5057393Y-5005067D01*
X5073141Y-5010147D01*
X5083556Y-5010147D01*
X5099050Y-5005067D01*
X5109463Y-4994653D01*
X5114543Y-4979159D01*
X5114543Y-4901181D01*
X5200904Y-4901181D02*
G01*
X5148834Y-4973825D01*
X5226811Y-4973825D01*
X5200904Y-4901181D02*
G01*
X5200904Y-5010147D01*
D11*
X4267200Y-6360919D02*
G01*
X4267200Y-6554721D01*
X4328159Y-6360919D02*
G01*
X4328159Y-6554721D01*
X4328159Y-6360919D02*
G01*
X4457445Y-6554721D01*
X4457445Y-6360919D02*
G01*
X4457445Y-6554721D01*
X4601463Y-6388605D02*
G01*
X4601463Y-6554721D01*
X4518406Y-6471663D02*
G01*
X4684775Y-6471663D01*
X4267200Y-5294119D02*
G01*
X4267200Y-5487921D01*
X4328159Y-5294119D02*
G01*
X4328159Y-5487921D01*
X4328159Y-5294119D02*
G01*
X4457445Y-5487921D01*
X4457445Y-5294119D02*
G01*
X4457445Y-5487921D01*
X4518406Y-5404863D02*
G01*
X4684775Y-5404863D01*
X5211574Y-5268719D02*
G01*
X5193032Y-5277863D01*
X5174744Y-5296405D01*
X5165346Y-5314947D01*
X5156202Y-5342633D01*
X5156202Y-5388607D01*
X5165346Y-5416547D01*
X5174744Y-5434835D01*
X5193032Y-5453377D01*
X5211574Y-5462521D01*
X5248658Y-5462521D01*
X5266946Y-5453377D01*
X5285488Y-5434835D01*
X5294632Y-5416547D01*
X5304030Y-5388607D01*
X5304030Y-5342633D01*
X5294632Y-5314947D01*
X5285488Y-5296405D01*
X5266946Y-5277863D01*
X5248658Y-5268719D01*
X5211574Y-5268719D01*
X5364990Y-5268719D02*
G01*
X5364990Y-5407149D01*
X5374134Y-5434835D01*
X5392676Y-5453377D01*
X5420362Y-5462521D01*
X5438904Y-5462521D01*
X5466590Y-5453377D01*
X5485132Y-5434835D01*
X5494276Y-5407149D01*
X5494276Y-5268719D01*
X5619752Y-5268719D02*
G01*
X5619752Y-5462521D01*
X5555236Y-5268719D02*
G01*
X5684522Y-5268719D01*
X5745482Y-5379463D02*
G01*
X5911852Y-5379463D01*
X5211572Y-6335519D02*
G01*
X5193029Y-6344663D01*
X5174741Y-6363205D01*
X5165343Y-6381747D01*
X5156200Y-6409433D01*
X5156200Y-6455407D01*
X5165343Y-6483347D01*
X5174741Y-6501635D01*
X5193029Y-6520177D01*
X5211572Y-6529321D01*
X5248656Y-6529321D01*
X5266943Y-6520177D01*
X5285486Y-6501635D01*
X5294629Y-6483347D01*
X5304027Y-6455407D01*
X5304027Y-6409433D01*
X5294629Y-6381747D01*
X5285486Y-6363205D01*
X5266943Y-6344663D01*
X5248656Y-6335519D01*
X5211572Y-6335519D01*
X5364988Y-6335519D02*
G01*
X5364988Y-6473949D01*
X5374131Y-6501635D01*
X5392674Y-6520177D01*
X5420359Y-6529321D01*
X5438902Y-6529321D01*
X5466588Y-6520177D01*
X5485129Y-6501635D01*
X5494274Y-6473949D01*
X5494274Y-6335519D01*
X5619750Y-6335519D02*
G01*
X5619750Y-6529321D01*
X5555234Y-6335519D02*
G01*
X5684520Y-6335519D01*
X5828538Y-6363205D02*
G01*
X5828538Y-6529321D01*
X5745479Y-6446263D02*
G01*
X5911850Y-6446263D01*
D10*
X203200Y-4274312D02*
G01*
X213613Y-4268978D01*
X229107Y-4253484D01*
X229107Y-4362450D01*
X268731Y-4279392D02*
G01*
X268731Y-4274312D01*
X273812Y-4263897D01*
X279145Y-4258563D01*
X289560Y-4253484D01*
X310134Y-4253484D01*
X320547Y-4258563D01*
X325881Y-4263897D01*
X330962Y-4274312D01*
X330962Y-4284726D01*
X325881Y-4295139D01*
X315468Y-4310634D01*
X263397Y-4362450D01*
X336295Y-4362450D01*
X370586Y-4253484D02*
G01*
X411987Y-4362450D01*
X453644Y-4253484D02*
G01*
X411987Y-4362450D01*
X4815077Y-3758692D02*
G01*
X4809743Y-3748278D01*
X4799329Y-3737863D01*
X4789170Y-3732784D01*
X4768341Y-3732784D01*
X4757927Y-3737863D01*
X4747513Y-3748278D01*
X4742179Y-3758692D01*
X4737100Y-3774439D01*
X4737100Y-3800347D01*
X4742179Y-3815842D01*
X4747513Y-3826255D01*
X4757927Y-3836670D01*
X4768341Y-3841750D01*
X4789170Y-3841750D01*
X4799329Y-3836670D01*
X4809743Y-3826255D01*
X4815077Y-3815842D01*
X4859781Y-3732784D02*
G01*
X4916931Y-3732784D01*
X4885690Y-3774439D01*
X4901184Y-3774439D01*
X4911597Y-3779520D01*
X4916931Y-3784600D01*
X4922011Y-3800347D01*
X4922011Y-3810762D01*
X4916931Y-3826255D01*
X4906518Y-3836670D01*
X4890770Y-3841750D01*
X4875275Y-3841750D01*
X4859781Y-3836670D01*
X4854447Y-3831589D01*
X4849368Y-3821176D01*
X2338577Y-4050792D02*
G01*
X2333243Y-4040378D01*
X2322829Y-4029963D01*
X2312670Y-4024884D01*
X2291841Y-4024884D01*
X2281427Y-4029963D01*
X2271013Y-4040378D01*
X2265679Y-4050792D01*
X2260600Y-4066539D01*
X2260600Y-4092447D01*
X2265679Y-4107942D01*
X2271013Y-4118355D01*
X2281427Y-4128770D01*
X2291841Y-4133850D01*
X2312670Y-4133850D01*
X2322829Y-4128770D01*
X2333243Y-4118355D01*
X2338577Y-4107942D01*
X2435097Y-4024884D02*
G01*
X2383281Y-4024884D01*
X2377947Y-4071620D01*
X2383281Y-4066539D01*
X2398775Y-4061205D01*
X2414270Y-4061205D01*
X2430018Y-4066539D01*
X2440431Y-4076700D01*
X2445511Y-4092447D01*
X2445511Y-4102862D01*
X2440431Y-4118355D01*
X2430018Y-4128770D01*
X2414270Y-4133850D01*
X2398775Y-4133850D01*
X2383281Y-4128770D01*
X2377947Y-4123689D01*
X2372868Y-4113276D01*
X8293100Y-608584D02*
G01*
X8293100Y-717550D01*
X8293100Y-608584D02*
G01*
X8339836Y-608584D01*
X8355329Y-613663D01*
X8360663Y-618997D01*
X8365743Y-629412D01*
X8365743Y-639826D01*
X8360663Y-650239D01*
X8355329Y-655320D01*
X8339836Y-660400D01*
X8293100Y-660400D01*
X8329422Y-660400D02*
G01*
X8365743Y-717550D01*
X8400034Y-629412D02*
G01*
X8410447Y-624078D01*
X8426195Y-608584D01*
X8426195Y-717550D01*
X4813300Y-113284D02*
G01*
X4813300Y-222250D01*
X4813300Y-113284D02*
G01*
X4860036Y-113284D01*
X4875529Y-118363D01*
X4880863Y-123697D01*
X4885943Y-134112D01*
X4885943Y-144526D01*
X4880863Y-154939D01*
X4875529Y-160020D01*
X4860036Y-165100D01*
X4813300Y-165100D01*
X4849622Y-165100D02*
G01*
X4885943Y-222250D01*
X4925568Y-139192D02*
G01*
X4925568Y-134112D01*
X4930647Y-123697D01*
X4935981Y-118363D01*
X4946395Y-113284D01*
X4966970Y-113284D01*
X4977384Y-118363D01*
X4982718Y-123697D01*
X4987797Y-134112D01*
X4987797Y-144526D01*
X4982718Y-154939D01*
X4972304Y-170434D01*
X4920234Y-222250D01*
X4993131Y-222250D01*
X2374900Y-100584D02*
G01*
X2374900Y-209550D01*
X2374900Y-100584D02*
G01*
X2421636Y-100584D01*
X2437129Y-105663D01*
X2442463Y-110997D01*
X2447543Y-121412D01*
X2447543Y-131826D01*
X2442463Y-142239D01*
X2437129Y-147320D01*
X2421636Y-152400D01*
X2374900Y-152400D01*
X2411222Y-152400D02*
G01*
X2447543Y-209550D01*
X2492247Y-100584D02*
G01*
X2549397Y-100584D01*
X2518409Y-142239D01*
X2533904Y-142239D01*
X2544318Y-147320D01*
X2549397Y-152400D01*
X2554731Y-168147D01*
X2554731Y-178562D01*
X2549397Y-194055D01*
X2538984Y-204470D01*
X2523490Y-209550D01*
X2507995Y-209550D01*
X2492247Y-204470D01*
X2487168Y-199389D01*
X2481834Y-188976D01*
X1244600Y-3504184D02*
G01*
X1244600Y-3613150D01*
X1244600Y-3504184D02*
G01*
X1291336Y-3504184D01*
X1306829Y-3509263D01*
X1312163Y-3514597D01*
X1317244Y-3525012D01*
X1317244Y-3535426D01*
X1312163Y-3545839D01*
X1306829Y-3550920D01*
X1291336Y-3556000D01*
X1244600Y-3556000D01*
X1280921Y-3556000D02*
G01*
X1317244Y-3613150D01*
X1403604Y-3504184D02*
G01*
X1351534Y-3576828D01*
X1429512Y-3576828D01*
X1403604Y-3504184D02*
G01*
X1403604Y-3613150D01*
X10883900Y-4545584D02*
G01*
X10883900Y-4654550D01*
X10883900Y-4545584D02*
G01*
X10930636Y-4545584D01*
X10946129Y-4550663D01*
X10951463Y-4555997D01*
X10956543Y-4566412D01*
X10956543Y-4576826D01*
X10951463Y-4587239D01*
X10946129Y-4592320D01*
X10930636Y-4597400D01*
X10883900Y-4597400D01*
X10920222Y-4597400D02*
G01*
X10956543Y-4654550D01*
X11053318Y-4545584D02*
G01*
X11001247Y-4545584D01*
X10996168Y-4592320D01*
X11001247Y-4587239D01*
X11016995Y-4581905D01*
X11032490Y-4581905D01*
X11047984Y-4587239D01*
X11058397Y-4597400D01*
X11063731Y-4613147D01*
X11063731Y-4623562D01*
X11058397Y-4639055D01*
X11047984Y-4649470D01*
X11032490Y-4654550D01*
X11016995Y-4654550D01*
X11001247Y-4649470D01*
X10996168Y-4644389D01*
X10990834Y-4633976D01*
X9982200Y-4570984D02*
G01*
X9982200Y-4679950D01*
X9982200Y-4570984D02*
G01*
X10028936Y-4570984D01*
X10044429Y-4576063D01*
X10049763Y-4581397D01*
X10054843Y-4591812D01*
X10054843Y-4602226D01*
X10049763Y-4612639D01*
X10044429Y-4617720D01*
X10028936Y-4622800D01*
X9982200Y-4622800D01*
X10018522Y-4622800D02*
G01*
X10054843Y-4679950D01*
X10151618Y-4586478D02*
G01*
X10146284Y-4576063D01*
X10130790Y-4570984D01*
X10120375Y-4570984D01*
X10104881Y-4576063D01*
X10094468Y-4591812D01*
X10089134Y-4617720D01*
X10089134Y-4643628D01*
X10094468Y-4664455D01*
X10104881Y-4674870D01*
X10120375Y-4679950D01*
X10125709Y-4679950D01*
X10141204Y-4674870D01*
X10151618Y-4664455D01*
X10156697Y-4648962D01*
X10156697Y-4643628D01*
X10151618Y-4628134D01*
X10141204Y-4617720D01*
X10125709Y-4612639D01*
X10120375Y-4612639D01*
X10104881Y-4617720D01*
X10094468Y-4628134D01*
X10089134Y-4643628D01*
X9359900Y-3008884D02*
G01*
X9359900Y-3117850D01*
X9359900Y-3008884D02*
G01*
X9406636Y-3008884D01*
X9422129Y-3013963D01*
X9427463Y-3019297D01*
X9432543Y-3029712D01*
X9432543Y-3040126D01*
X9427463Y-3050539D01*
X9422129Y-3055620D01*
X9406636Y-3060700D01*
X9359900Y-3060700D01*
X9396222Y-3060700D02*
G01*
X9432543Y-3117850D01*
X9539731Y-3008884D02*
G01*
X9487661Y-3117850D01*
X9466834Y-3008884D02*
G01*
X9539731Y-3008884D01*
X6275577Y-3657092D02*
G01*
X6270243Y-3646678D01*
X6259829Y-3636263D01*
X6249670Y-3631184D01*
X6228841Y-3631184D01*
X6218427Y-3636263D01*
X6208013Y-3646678D01*
X6202679Y-3657092D01*
X6197600Y-3672839D01*
X6197600Y-3698747D01*
X6202679Y-3714242D01*
X6208013Y-3724655D01*
X6218427Y-3735070D01*
X6228841Y-3740150D01*
X6249670Y-3740150D01*
X6259829Y-3735070D01*
X6270243Y-3724655D01*
X6275577Y-3714242D01*
X6361684Y-3631184D02*
G01*
X6309868Y-3703828D01*
X6387845Y-3703828D01*
X6361684Y-3631184D02*
G01*
X6361684Y-3740150D01*
X3697477Y-3872992D02*
G01*
X3692143Y-3862578D01*
X3681729Y-3852163D01*
X3671570Y-3847084D01*
X3650741Y-3847084D01*
X3640327Y-3852163D01*
X3629913Y-3862578D01*
X3624579Y-3872992D01*
X3619500Y-3888739D01*
X3619500Y-3914647D01*
X3624579Y-3930142D01*
X3629913Y-3940555D01*
X3640327Y-3950970D01*
X3650741Y-3956050D01*
X3671570Y-3956050D01*
X3681729Y-3950970D01*
X3692143Y-3940555D01*
X3697477Y-3930142D01*
X3793997Y-3862578D02*
G01*
X3788918Y-3852163D01*
X3773170Y-3847084D01*
X3763009Y-3847084D01*
X3747261Y-3852163D01*
X3736847Y-3867912D01*
X3731768Y-3893820D01*
X3731768Y-3919728D01*
X3736847Y-3940555D01*
X3747261Y-3950970D01*
X3763009Y-3956050D01*
X3768090Y-3956050D01*
X3783584Y-3950970D01*
X3793997Y-3940555D01*
X3799331Y-3925062D01*
X3799331Y-3919728D01*
X3793997Y-3904234D01*
X3783584Y-3893820D01*
X3768090Y-3888739D01*
X3763009Y-3888739D01*
X3747261Y-3893820D01*
X3736847Y-3904234D01*
X3731768Y-3919728D01*
X1600200Y-2119884D02*
G01*
X1600200Y-2197862D01*
X1605279Y-2213355D01*
X1615694Y-2223770D01*
X1631442Y-2228850D01*
X1641855Y-2228850D01*
X1657350Y-2223770D01*
X1667763Y-2213355D01*
X1672844Y-2197862D01*
X1672844Y-2119884D01*
X1707134Y-2140712D02*
G01*
X1717547Y-2135378D01*
X1733295Y-2119884D01*
X1733295Y-2228850D01*
D11*
X494284Y-1313687D02*
G01*
X494284Y-1245615D01*
X432815Y-1238757D01*
X439673Y-1245615D01*
X446531Y-1265936D01*
X446531Y-1286510D01*
X439673Y-1306829D01*
X425957Y-1320545D01*
X405637Y-1327404D01*
X391921Y-1327404D01*
X371602Y-1320545D01*
X357886Y-1306829D01*
X351028Y-1286510D01*
X351028Y-1265936D01*
X357886Y-1245615D01*
X364744Y-1238757D01*
X378460Y-1231900D01*
X494284Y-1372362D02*
G01*
X351028Y-1426971D01*
X494284Y-1481328D02*
G01*
X351028Y-1426971D01*
X5032247Y-2832862D02*
G01*
X5045709Y-2826004D01*
X5059425Y-2812287D01*
X5066284Y-2798571D01*
X5066284Y-2771394D01*
X5059425Y-2757678D01*
X5045709Y-2744215D01*
X5032247Y-2737357D01*
X5011674Y-2730500D01*
X4977638Y-2730500D01*
X4957063Y-2737357D01*
X4943602Y-2744215D01*
X4929886Y-2757678D01*
X4923027Y-2771394D01*
X4923027Y-2798571D01*
X4929886Y-2812287D01*
X4943602Y-2826004D01*
X4957063Y-2832862D01*
X4977638Y-2832862D01*
X4977638Y-2798571D02*
G01*
X4977638Y-2832862D01*
X5066284Y-2877820D02*
G01*
X4923027Y-2877820D01*
X5066284Y-2877820D02*
G01*
X4923027Y-2973323D01*
X5066284Y-2973323D02*
G01*
X4923027Y-2973323D01*
X5066284Y-3018281D02*
G01*
X4923027Y-3018281D01*
X5066284Y-3018281D02*
G01*
X5066284Y-3066034D01*
X5059425Y-3086354D01*
X5045709Y-3100070D01*
X5032247Y-3106928D01*
X5011674Y-3113786D01*
X4977638Y-3113786D01*
X4957063Y-3106928D01*
X4943602Y-3100070D01*
X4929886Y-3086354D01*
X4923027Y-3066034D01*
X4923027Y-3018281D01*
X5066284Y-1245615D02*
G01*
X5066284Y-1320545D01*
X5011674Y-1279652D01*
X5011674Y-1299971D01*
X5004815Y-1313687D01*
X4997958Y-1320545D01*
X4977638Y-1327404D01*
X4963922Y-1327404D01*
X4943602Y-1320545D01*
X4929886Y-1306829D01*
X4923027Y-1286510D01*
X4923027Y-1265936D01*
X4929886Y-1245615D01*
X4936743Y-1238757D01*
X4950459Y-1231900D01*
X5066284Y-1372362D02*
G01*
X4923027Y-1426971D01*
X5066284Y-1481328D02*
G01*
X4923027Y-1426971D01*
X5066284Y-1540002D02*
G01*
X5066284Y-1615186D01*
X5011674Y-1574292D01*
X5011674Y-1594612D01*
X5004815Y-1608328D01*
X4997958Y-1615186D01*
X4977638Y-1621789D01*
X4963922Y-1621789D01*
X4943602Y-1615186D01*
X4929886Y-1601470D01*
X4923027Y-1580895D01*
X4923027Y-1560576D01*
X4929886Y-1540002D01*
X4936743Y-1533144D01*
X4950459Y-1526539D01*
X2780284Y-1384300D02*
G01*
X2637027Y-1384300D01*
X2780284Y-1384300D02*
G01*
X2780284Y-1472945D01*
X2711958Y-1384300D02*
G01*
X2711958Y-1438910D01*
X2637027Y-1384300D02*
G01*
X2637027Y-1472945D01*
X2759709Y-1613407D02*
G01*
X2773425Y-1599692D01*
X2780284Y-1579371D01*
X2780284Y-1551939D01*
X2773425Y-1531620D01*
X2759709Y-1517904D01*
X2746247Y-1517904D01*
X2732531Y-1524762D01*
X2725674Y-1531620D01*
X2718815Y-1545081D01*
X2705354Y-1586229D01*
X2698495Y-1599692D01*
X2691638Y-1606550D01*
X2677922Y-1613407D01*
X2657602Y-1613407D01*
X2643886Y-1599692D01*
X2637027Y-1579371D01*
X2637027Y-1551939D01*
X2643886Y-1531620D01*
X2657602Y-1517904D01*
X2780284Y-1658365D02*
G01*
X2637027Y-1658365D01*
X2780284Y-1658365D02*
G01*
X2780284Y-1719834D01*
X2773425Y-1740154D01*
X2766568Y-1747012D01*
X2753106Y-1753870D01*
X2732531Y-1753870D01*
X2718815Y-1747012D01*
X2711958Y-1740154D01*
X2705354Y-1719834D01*
X2705354Y-1658365D01*
X2780284Y-1812544D02*
G01*
X2780284Y-1887473D01*
X2725674Y-1846579D01*
X2725674Y-1866900D01*
X2718815Y-1880615D01*
X2711958Y-1887473D01*
X2691638Y-1894331D01*
X2677922Y-1894331D01*
X2657602Y-1887473D01*
X2643886Y-1873757D01*
X2637027Y-1853437D01*
X2637027Y-1832863D01*
X2643886Y-1812544D01*
X2650743Y-1805686D01*
X2664459Y-1798828D01*
X2746247Y-1946147D02*
G01*
X2753106Y-1946147D01*
X2766568Y-1953005D01*
X2773425Y-1959863D01*
X2780284Y-1973326D01*
X2780284Y-2000757D01*
X2773425Y-2014220D01*
X2766568Y-2021078D01*
X2753106Y-2027936D01*
X2739390Y-2027936D01*
X2725674Y-2021078D01*
X2705354Y-2007362D01*
X2637027Y-1939289D01*
X2637027Y-2034794D01*
X2698495Y-2079752D02*
G01*
X2698495Y-2202434D01*
X2780284Y-2247392D02*
G01*
X2637027Y-2247392D01*
X2780284Y-2247392D02*
G01*
X2780284Y-2295144D01*
X2773425Y-2315718D01*
X2759709Y-2329179D01*
X2746247Y-2336037D01*
X2725674Y-2342895D01*
X2691638Y-2342895D01*
X2671063Y-2336037D01*
X2657602Y-2329179D01*
X2643886Y-2315718D01*
X2637027Y-2295144D01*
X2637027Y-2247392D01*
X2691638Y-2387854D02*
G01*
X2691638Y-2469642D01*
X2705354Y-2469642D01*
X2718815Y-2463037D01*
X2725674Y-2456179D01*
X2732531Y-2442463D01*
X2732531Y-2422144D01*
X2725674Y-2408428D01*
X2711958Y-2394712D01*
X2691638Y-2387854D01*
X2677922Y-2387854D01*
X2657602Y-2394712D01*
X2643886Y-2408428D01*
X2637027Y-2422144D01*
X2637027Y-2442463D01*
X2643886Y-2456179D01*
X2657602Y-2469642D01*
X2732531Y-2514854D02*
G01*
X2637027Y-2555747D01*
X2732531Y-2596642D02*
G01*
X2637027Y-2555747D01*
X2780284Y-2641600D02*
G01*
X2637027Y-2641600D01*
X2780284Y-2737104D02*
G01*
X2684779Y-2641600D01*
X2718815Y-2675636D02*
G01*
X2637027Y-2737104D01*
X2780284Y-2782062D02*
G01*
X2773425Y-2788920D01*
X2780284Y-2795778D01*
X2787141Y-2788920D01*
X2780284Y-2782062D01*
X2732531Y-2788920D02*
G01*
X2637027Y-2788920D01*
X2780284Y-2861055D02*
G01*
X2664459Y-2861055D01*
X2643886Y-2867913D01*
X2637027Y-2881629D01*
X2637027Y-2895092D01*
X2732531Y-2840736D02*
G01*
X2732531Y-2888487D01*
X621284Y-1841500D02*
G01*
X518921Y-1841500D01*
X498602Y-1848357D01*
X484886Y-1862073D01*
X478028Y-1882394D01*
X478028Y-1896110D01*
X484886Y-1916429D01*
X498602Y-1930145D01*
X518921Y-1937004D01*
X621284Y-1937004D01*
X600710Y-2077465D02*
G01*
X614426Y-2063750D01*
X621284Y-2043429D01*
X621284Y-2015997D01*
X614426Y-1995678D01*
X600710Y-1981962D01*
X587247Y-1981962D01*
X573531Y-1988820D01*
X566673Y-1995678D01*
X559815Y-2009139D01*
X546354Y-2050034D01*
X539495Y-2063750D01*
X532637Y-2070607D01*
X518921Y-2077465D01*
X498602Y-2077465D01*
X484886Y-2063750D01*
X478028Y-2043429D01*
X478028Y-2015997D01*
X484886Y-1995678D01*
X498602Y-1981962D01*
X621284Y-2122423D02*
G01*
X478028Y-2122423D01*
X621284Y-2122423D02*
G01*
X621284Y-2183892D01*
X614426Y-2204212D01*
X607568Y-2211070D01*
X594105Y-2217928D01*
X580389Y-2217928D01*
X566673Y-2211070D01*
X559815Y-2204212D01*
X552957Y-2183892D01*
X552957Y-2122423D02*
G01*
X552957Y-2183892D01*
X546354Y-2204212D01*
X539495Y-2211070D01*
X525779Y-2217928D01*
X505460Y-2217928D01*
X491744Y-2211070D01*
X484886Y-2204212D01*
X478028Y-2183892D01*
X478028Y-2122423D01*
X539495Y-2262886D02*
G01*
X539495Y-2385568D01*
X587247Y-2532887D02*
G01*
X600710Y-2526029D01*
X614426Y-2512313D01*
X621284Y-2498852D01*
X621284Y-2471420D01*
X614426Y-2457957D01*
X600710Y-2444242D01*
X587247Y-2437384D01*
X566673Y-2430526D01*
X532637Y-2430526D01*
X512063Y-2437384D01*
X498602Y-2444242D01*
X484886Y-2457957D01*
X478028Y-2471420D01*
X478028Y-2498852D01*
X484886Y-2512313D01*
X498602Y-2526029D01*
X512063Y-2532887D01*
D10*
X10669270Y-595884D02*
G01*
X10669270Y-678942D01*
X10663936Y-694689D01*
X10658856Y-699770D01*
X10648441Y-704850D01*
X10638027Y-704850D01*
X10627613Y-699770D01*
X10622279Y-694689D01*
X10617200Y-678942D01*
X10617200Y-668528D01*
X10703559Y-616712D02*
G01*
X10713720Y-611378D01*
X10729468Y-595884D01*
X10729468Y-704850D01*
X10034270Y-595884D02*
G01*
X10034270Y-678942D01*
X10028936Y-694689D01*
X10023856Y-699770D01*
X10013441Y-704850D01*
X10003027Y-704850D01*
X9992613Y-699770D01*
X9987279Y-694689D01*
X9982200Y-678942D01*
X9982200Y-668528D01*
X10073640Y-621792D02*
G01*
X10073640Y-616712D01*
X10078720Y-606297D01*
X10084054Y-600963D01*
X10094468Y-595884D01*
X10115295Y-595884D01*
X10125709Y-600963D01*
X10130790Y-606297D01*
X10135870Y-616712D01*
X10135870Y-627126D01*
X10130790Y-637539D01*
X10120375Y-653034D01*
X10068559Y-704850D01*
X10141204Y-704850D01*
X9399270Y-595884D02*
G01*
X9399270Y-678942D01*
X9393936Y-694689D01*
X9388856Y-699770D01*
X9378441Y-704850D01*
X9368027Y-704850D01*
X9357613Y-699770D01*
X9352279Y-694689D01*
X9347200Y-678942D01*
X9347200Y-668528D01*
X9443720Y-595884D02*
G01*
X9500870Y-595884D01*
X9469881Y-637539D01*
X9485375Y-637539D01*
X9495790Y-642620D01*
X9500870Y-647700D01*
X9506204Y-663447D01*
X9506204Y-673862D01*
X9500870Y-689355D01*
X9490709Y-699770D01*
X9474961Y-704850D01*
X9459468Y-704850D01*
X9443720Y-699770D01*
X9438640Y-694689D01*
X9433559Y-684276D01*
X10999470Y-5815584D02*
G01*
X10999470Y-5898642D01*
X10994136Y-5914389D01*
X10989056Y-5919470D01*
X10978641Y-5924550D01*
X10968227Y-5924550D01*
X10957813Y-5919470D01*
X10952479Y-5914389D01*
X10947400Y-5898642D01*
X10947400Y-5888228D01*
X11085575Y-5815584D02*
G01*
X11033759Y-5888228D01*
X11111484Y-5888228D01*
X11085575Y-5815584D02*
G01*
X11085575Y-5924550D01*
X10986770Y-6425184D02*
G01*
X10986770Y-6508242D01*
X10981436Y-6523989D01*
X10976356Y-6529070D01*
X10965941Y-6534150D01*
X10955527Y-6534150D01*
X10945113Y-6529070D01*
X10939779Y-6523989D01*
X10934700Y-6508242D01*
X10934700Y-6497828D01*
X11083290Y-6425184D02*
G01*
X11031220Y-6425184D01*
X11026140Y-6471920D01*
X11031220Y-6466839D01*
X11046968Y-6461505D01*
X11062461Y-6461505D01*
X11078209Y-6466839D01*
X11088370Y-6477000D01*
X11093704Y-6492747D01*
X11093704Y-6503162D01*
X11088370Y-6518655D01*
X11078209Y-6529070D01*
X11062461Y-6534150D01*
X11046968Y-6534150D01*
X11031220Y-6529070D01*
X11026140Y-6523989D01*
X11021059Y-6513576D01*
X8432800Y-5675884D02*
G01*
X8432800Y-5784850D01*
X8432800Y-5675884D02*
G01*
X8479536Y-5675884D01*
X8495029Y-5680963D01*
X8500363Y-5686297D01*
X8505443Y-5696712D01*
X8505443Y-5712205D01*
X8500363Y-5722620D01*
X8495029Y-5727700D01*
X8479536Y-5733034D01*
X8432800Y-5733034D01*
X8539734Y-5696712D02*
G01*
X8550147Y-5691378D01*
X8565895Y-5675884D01*
X8565895Y-5784850D01*
X4014977Y-113792D02*
G01*
X4009643Y-103378D01*
X3999229Y-92963D01*
X3989070Y-87884D01*
X3968241Y-87884D01*
X3957827Y-92963D01*
X3947413Y-103378D01*
X3942079Y-113792D01*
X3937000Y-129539D01*
X3937000Y-155447D01*
X3942079Y-170942D01*
X3947413Y-181355D01*
X3957827Y-191770D01*
X3968241Y-196850D01*
X3989070Y-196850D01*
X3999229Y-191770D01*
X4009643Y-181355D01*
X4014977Y-170942D01*
X4054347Y-113792D02*
G01*
X4054347Y-108712D01*
X4059681Y-98297D01*
X4064761Y-92963D01*
X4075175Y-87884D01*
X4096004Y-87884D01*
X4106418Y-92963D01*
X4111497Y-98297D01*
X4116831Y-108712D01*
X4116831Y-119126D01*
X4111497Y-129539D01*
X4101084Y-145034D01*
X4049268Y-196850D01*
X4121911Y-196850D01*
X1092200Y-75184D02*
G01*
X1092200Y-184150D01*
X1092200Y-75184D02*
G01*
X1128521Y-75184D01*
X1144270Y-80263D01*
X1154429Y-90678D01*
X1159763Y-101092D01*
X1164844Y-116839D01*
X1164844Y-142747D01*
X1159763Y-158242D01*
X1154429Y-168655D01*
X1144270Y-179070D01*
X1128521Y-184150D01*
X1092200Y-184150D01*
X1199134Y-96012D02*
G01*
X1209547Y-90678D01*
X1225295Y-75184D01*
X1225295Y-184150D01*
X10388600Y-2894584D02*
G01*
X10388600Y-2972562D01*
X10393679Y-2988055D01*
X10404093Y-2998470D01*
X10419841Y-3003550D01*
X10430256Y-3003550D01*
X10445750Y-2998470D01*
X10456163Y-2988055D01*
X10461243Y-2972562D01*
X10461243Y-2894584D01*
X10505947Y-2894584D02*
G01*
X10563097Y-2894584D01*
X10532109Y-2936239D01*
X10547604Y-2936239D01*
X10558018Y-2941320D01*
X10563097Y-2946400D01*
X10568431Y-2962147D01*
X10568431Y-2972562D01*
X10563097Y-2988055D01*
X10552684Y-2998470D01*
X10537190Y-3003550D01*
X10521695Y-3003550D01*
X10505947Y-2998470D01*
X10500868Y-2993389D01*
X10495534Y-2982976D01*
X11188700Y-2869184D02*
G01*
X11188700Y-2978150D01*
X11188700Y-2869184D02*
G01*
X11225022Y-2869184D01*
X11240770Y-2874263D01*
X11250929Y-2884678D01*
X11256263Y-2895092D01*
X11261343Y-2910839D01*
X11261343Y-2936747D01*
X11256263Y-2952242D01*
X11250929Y-2962655D01*
X11240770Y-2973070D01*
X11225022Y-2978150D01*
X11188700Y-2978150D01*
X11300968Y-2895092D02*
G01*
X11300968Y-2890012D01*
X11306047Y-2879597D01*
X11311381Y-2874263D01*
X11321795Y-2869184D01*
X11342370Y-2869184D01*
X11352784Y-2874263D01*
X11358118Y-2879597D01*
X11363197Y-2890012D01*
X11363197Y-2900426D01*
X11358118Y-2910839D01*
X11347704Y-2926334D01*
X11295634Y-2978150D01*
X11368531Y-2978150D01*
G36*
X6045200Y-3708400D02*
G01*
X6045200Y-4577080D01*
X6131560Y-4503420D01*
X6210300Y-4422140D01*
X6263640Y-4305300D01*
X6283960Y-4224020D01*
X6296660Y-4140200D01*
X6273800Y-4010660D01*
X6223000Y-3888740D01*
X6144260Y-3784600D01*
G37*
G36*
X2971800Y-3919220D02*
G01*
X2885440Y-3992879D01*
X2806700Y-4074160D01*
X2753360Y-4191000D01*
X2733040Y-4272280D01*
X2720340Y-4356100D01*
X2743200Y-4485640D01*
X2794000Y-4607560D01*
X2872740Y-4711700D01*
X2971800Y-4787900D01*
G37*
G36*
X3595725Y-150977D02*
G01*
X3545687Y-181000D01*
X3495700Y-230987D01*
X3465677Y-300990D01*
X3445713Y-381000D01*
X3455720Y-451002D01*
X3485692Y-510997D01*
X3535679Y-570992D01*
X3595725Y-611022D01*
G37*
D12*
X3505200Y-5634101D02*
G01*
X3505200Y-6634098D01*
X914400Y-5634101D02*
G01*
X914400Y-6634098D01*
X809802Y-5634101D02*
G01*
X3609797Y-5634101D01*
X3609797Y-6634098D01*
X809802Y-6634098D01*
X809802Y-5634101D01*
X3949700Y-6745498D02*
G01*
X6159500Y-6745498D01*
X3949700Y-5065499D02*
G01*
X6159500Y-5065499D01*
X3949700Y-5065499D02*
G01*
X3949700Y-6745498D01*
X6159500Y-5065499D02*
G01*
X6159500Y-6745498D01*
X154203Y-4455795D02*
G01*
X1524203Y-4455795D01*
X1524203Y-5355793D01*
X154203Y-5355793D01*
X154203Y-4455795D01*
X8115300Y-889000D02*
G01*
X7886700Y-889000D01*
X8623300Y-889000D02*
G01*
X8877300Y-889000D01*
X8623300Y-965200D02*
G01*
X8115300Y-965200D01*
X8623300Y-889000D02*
G01*
X8623300Y-965200D01*
X8115300Y-889000D02*
G01*
X8115300Y-812800D01*
X8115300Y-965200D02*
G01*
X8115300Y-889000D01*
X8623300Y-812800D02*
G01*
X8623300Y-889000D01*
X8115300Y-812800D02*
G01*
X8623300Y-812800D01*
X5168900Y-381000D02*
G01*
X5397500Y-381000D01*
X4660900Y-381000D02*
G01*
X4406900Y-381000D01*
X4660900Y-304800D02*
G01*
X5168900Y-304800D01*
X4660900Y-381000D02*
G01*
X4660900Y-304800D01*
X5168900Y-381000D02*
G01*
X5168900Y-457200D01*
X5168900Y-304800D02*
G01*
X5168900Y-381000D01*
X4660900Y-457200D02*
G01*
X4660900Y-381000D01*
X5168900Y-457200D02*
G01*
X4660900Y-457200D01*
X2209800Y-368300D02*
G01*
X1981200Y-368300D01*
X2717800Y-368300D02*
G01*
X2971800Y-368300D01*
X2717800Y-444500D02*
G01*
X2209800Y-444500D01*
X2717800Y-368300D02*
G01*
X2717800Y-444500D01*
X2209800Y-368300D02*
G01*
X2209800Y-292100D01*
X2209800Y-444500D02*
G01*
X2209800Y-368300D01*
X2717800Y-292100D02*
G01*
X2717800Y-368300D01*
X2209800Y-292100D02*
G01*
X2717800Y-292100D01*
X1587500Y-3759200D02*
G01*
X1816100Y-3759200D01*
X1079500Y-3759200D02*
G01*
X825500Y-3759200D01*
X1079500Y-3683000D02*
G01*
X1587500Y-3683000D01*
X1079500Y-3759200D02*
G01*
X1079500Y-3683000D01*
X1587500Y-3759200D02*
G01*
X1587500Y-3835400D01*
X1587500Y-3683000D02*
G01*
X1587500Y-3759200D01*
X1079500Y-3835400D02*
G01*
X1079500Y-3759200D01*
X1587500Y-3835400D02*
G01*
X1079500Y-3835400D01*
X10731500Y-4546600D02*
G01*
X10731500Y-4318000D01*
X10731500Y-5054600D02*
G01*
X10731500Y-5308600D01*
X10655300Y-5054600D02*
G01*
X10655300Y-4546600D01*
X10731500Y-5054600D02*
G01*
X10655300Y-5054600D01*
X10731500Y-4546600D02*
G01*
X10807700Y-4546600D01*
X10655300Y-4546600D02*
G01*
X10731500Y-4546600D01*
X10807700Y-5054600D02*
G01*
X10731500Y-5054600D01*
X10807700Y-4546600D02*
G01*
X10807700Y-5054600D01*
X10312400Y-5080000D02*
G01*
X10312400Y-5308600D01*
X10312400Y-4572000D02*
G01*
X10312400Y-4318000D01*
X10388600Y-4572000D02*
G01*
X10388600Y-5080000D01*
X10312400Y-4572000D02*
G01*
X10388600Y-4572000D01*
X10312400Y-5080000D02*
G01*
X10236200Y-5080000D01*
X10388600Y-5080000D02*
G01*
X10312400Y-5080000D01*
X10236200Y-4572000D02*
G01*
X10312400Y-4572000D01*
X10236200Y-5080000D02*
G01*
X10236200Y-4572000D01*
X9207500Y-3302000D02*
G01*
X8978900Y-3302000D01*
X9715500Y-3302000D02*
G01*
X9969500Y-3302000D01*
X9715500Y-3378200D02*
G01*
X9207500Y-3378200D01*
X9715500Y-3302000D02*
G01*
X9715500Y-3378200D01*
X9207500Y-3302000D02*
G01*
X9207500Y-3225800D01*
X9207500Y-3378200D02*
G01*
X9207500Y-3302000D01*
X9715500Y-3225800D02*
G01*
X9715500Y-3302000D01*
X9207500Y-3225800D02*
G01*
X9715500Y-3225800D01*
X5486400Y-3937000D02*
G01*
X5588000Y-3937000D01*
X5537200Y-3886200D02*
G01*
X5537200Y-3987800D01*
X3530600Y-4559300D02*
G01*
X3429000Y-4559300D01*
X3479800Y-4610100D02*
G01*
X3479800Y-4508500D01*
X5118100Y-3416300D02*
G01*
X292100Y-3416300D01*
X292100Y-3162300D01*
X5118100Y-3162300D01*
X5118100Y-3416300D01*
X5118100Y-1155700D02*
G01*
X292100Y-1155700D01*
X292100Y-876300D01*
X5118100Y-876300D01*
X5118100Y-1155700D01*
X10553700Y-774700D02*
G01*
X10803712Y-774700D01*
X10803712Y-1024712D01*
X10553700Y-1024712D01*
X10553700Y-774700D01*
X10553700Y-1028700D02*
G01*
X10803712Y-1028700D01*
X10803712Y-1278712D01*
X10553700Y-1278712D01*
X10553700Y-1028700D01*
X10553700Y-1282700D02*
G01*
X10803712Y-1282700D01*
X10803712Y-1532712D01*
X10553700Y-1532712D01*
X10553700Y-1282700D01*
X9931400Y-774700D02*
G01*
X10181412Y-774700D01*
X10181412Y-1024712D01*
X9931400Y-1024712D01*
X9931400Y-774700D01*
X9931400Y-1028700D02*
G01*
X10181412Y-1028700D01*
X10181412Y-1278712D01*
X9931400Y-1278712D01*
X9931400Y-1028700D01*
X9931400Y-1282700D02*
G01*
X10181412Y-1282700D01*
X10181412Y-1532712D01*
X9931400Y-1532712D01*
X9931400Y-1282700D01*
X9296400Y-774700D02*
G01*
X9546412Y-774700D01*
X9546412Y-1024712D01*
X9296400Y-1024712D01*
X9296400Y-774700D01*
X9296400Y-1028700D02*
G01*
X9546412Y-1028700D01*
X9546412Y-1278712D01*
X9296400Y-1278712D01*
X9296400Y-1028700D01*
X9296400Y-1282700D02*
G01*
X9546412Y-1282700D01*
X9546412Y-1532712D01*
X9296400Y-1532712D01*
X9296400Y-1282700D01*
X9804400Y-5727700D02*
G01*
X10071100Y-5727700D01*
X10071100Y-6032500D01*
X9804400Y-6032500D01*
X9804400Y-5727700D01*
X10071100Y-5727700D02*
G01*
X10325100Y-5727700D01*
X10325100Y-6032500D01*
X10071100Y-6032500D01*
X10071100Y-5727700D01*
X10325100Y-5727700D02*
G01*
X10579100Y-5727700D01*
X10579100Y-6032500D01*
X10325100Y-6032500D01*
X10325100Y-5727700D01*
X10579100Y-5727700D02*
G01*
X10833100Y-5727700D01*
X10833100Y-6032500D01*
X10579100Y-6032500D01*
X10579100Y-5727700D01*
X9804400Y-6362700D02*
G01*
X10071100Y-6362700D01*
X10071100Y-6667500D01*
X9804400Y-6667500D01*
X9804400Y-6362700D01*
X10071100Y-6362700D02*
G01*
X10325100Y-6362700D01*
X10325100Y-6667500D01*
X10071100Y-6667500D01*
X10071100Y-6362700D01*
X10325100Y-6362700D02*
G01*
X10579100Y-6362700D01*
X10579100Y-6667500D01*
X10325100Y-6667500D01*
X10325100Y-6362700D01*
X10579100Y-6362700D02*
G01*
X10833100Y-6362700D01*
X10833100Y-6667500D01*
X10579100Y-6667500D01*
X10579100Y-6362700D01*
D13*
X8953500Y-5080000D02*
G01*
X7429500Y-5080000D01*
X7429500Y-6350000D01*
X8953500Y-6350000D01*
X8953500Y-5080000D01*
D12*
X3797300Y-520700D02*
G01*
X3721100Y-520700D01*
X3759200Y-558800D02*
G01*
X3759200Y-482600D01*
X1428750Y-241300D02*
G01*
X1428750Y-495300D01*
X908050Y-495300D01*
X908050Y-241300D01*
X1428750Y-241300D01*
D14*
X10637900Y-3481999D02*
G01*
X10637900Y-3122000D01*
D12*
X11163300Y-3054350D02*
G01*
X11417300Y-3054350D01*
X11417300Y-3575050D01*
X11163300Y-3575050D01*
X11163300Y-3054350D01*
G75*
G01*
X4156901Y-4070368D02*
G03*
X4656899Y-4070368I249999J460687D01*
G75*
G01*
X4656899Y-3880698D02*
G03*
X4156901Y-3880698I-249999J-446735D01*
G75*
G01*
X2180399Y-4171932D02*
G03*
X1680400Y-4171932I-249999J-460687D01*
G75*
G01*
X1680400Y-4361602D02*
G03*
X2180399Y-4361602I250000J446735D01*
D14*
G75*
G01*
X10637495Y-3122508D02*
G03*
X10637850Y-3481398I-140819J-179585D01*
D12*
G75*
G01
X6291199Y-4140200D02*
G03X6291199Y-4140200I-499999J0D01*
G75*
G01
X3725799Y-4356100D02*
G03X3725799Y-4356100I-499999J0D01*
G75*
G01
X3945712Y-381000D02*
G03X3945712Y-381000I-250012J0D01*
M02*
