G04 Layer: BottomSolderMaskLayer*
G04 EasyEDA v6.5.57, 2026-07-28 08:23:31*
G04 7d567a193b7f477ca9986d8ae1ad1ccc,73b71592eb5d450092b712373c5d4a3f,10*
G04 Gerber Generator version 0.2*
G04 Scale: 100 percent, Rotated: No, Reflected: No *
G04 Dimensions in millimeters *
G04 leading zeros omitted , absolute positions ,4 integer and 5 decimal *
%FSLAX45Y45*%
%MOMM*%

%AMMACRO1*4,1,8,-0.7831,-0.8128,-0.8128,-0.7828,-0.8128,0.7831,-0.7831,0.8128,0.7828,0.8128,0.8128,0.7831,0.8128,-0.7828,0.7828,-0.8128,-0.7831,-0.8128,0*%
%AMMACRO2*4,1,8,-0.9211,-1.3509,-0.9508,-1.3209,-0.9508,1.3212,-0.9211,1.3509,0.9209,1.3509,0.9508,1.3212,0.9508,-1.3209,0.9209,-1.3509,-0.9211,-1.3509,0*%
%AMMACRO3*4,1,8,-0.982,-1.0414,-1.0414,-0.9817,-1.0414,0.982,-0.982,1.0414,0.9817,1.0414,1.0414,0.982,1.0414,-0.9817,0.9817,-1.0414,-0.982,-1.0414,0*%
%AMMACRO4*4,1,8,-0.5208,-0.55,-0.55,-0.5206,-0.55,0.5208,-0.5208,0.55,0.5206,0.55,0.55,0.5208,0.55,-0.5206,0.5206,-0.55,-0.5208,-0.55,0*%
%ADD10C,1.8796*%
%ADD11C,1.9812*%
%ADD12O,3.801593X1.601597*%
%ADD13O,1.601597X3.901592*%
%ADD14C,1.6016*%
%ADD15C,1.7016*%
%ADD16C,1.5240*%
%ADD17C,1.6256*%
%ADD18C,0.0116*%
%ADD19R,1.5240X1.5240*%
%ADD20MACRO1*%
%ADD21MACRO2*%
%ADD22O,1.901596X2.701595*%
%ADD23C,1.5016*%
%ADD24C,2.0828*%
%ADD25MACRO3*%
%ADD26MACRO4*%
%ADD27C,1.1000*%

%LPD*%
D10*
G01*
X4991100Y-4699000D03*
G01*
X4435500Y-4699000D03*
G01*
X1511300Y-4394200D03*
G01*
X2066899Y-4394200D03*
D11*
G01*
X1981200Y-368300D03*
G01*
X2971800Y-368300D03*
G01*
X5397500Y-381000D03*
G01*
X4406900Y-381000D03*
G01*
X7886700Y-889000D03*
G01*
X8877300Y-889000D03*
G01*
X10731500Y-4318000D03*
G01*
X10731500Y-5308600D03*
G01*
X10312400Y-5308600D03*
G01*
X10312400Y-4318000D03*
G01*
X2451100Y-3835400D03*
G01*
X1460500Y-3835400D03*
G01*
X8978900Y-3302000D03*
G01*
X9969500Y-3302000D03*
D12*
G01*
X1373504Y-5973089D03*
D13*
G01*
X1003503Y-5518099D03*
G01*
X1633473Y-5520562D03*
D14*
G01*
X6997700Y-800100D03*
G01*
X6997700Y-1054100D03*
D15*
G01*
X5930900Y-4711700D03*
G01*
X6438900Y-4711700D03*
G01*
X3454400Y-4711700D03*
G01*
X2946400Y-4711700D03*
D14*
G01*
X4991100Y-1019302D03*
G01*
X4737100Y-1019302D03*
G01*
X4483100Y-1019302D03*
G01*
X4229100Y-1019302D03*
G01*
X3975100Y-1019302D03*
G01*
X3721100Y-1019302D03*
G01*
X3467100Y-1019302D03*
G01*
X3213100Y-1019302D03*
G01*
X2959100Y-1019302D03*
G01*
X2705100Y-1019302D03*
G01*
X2451100Y-1019302D03*
G01*
X2197100Y-1019302D03*
G01*
X1943100Y-1019302D03*
G01*
X1689100Y-1019302D03*
G01*
X1435100Y-1019302D03*
G01*
X1181100Y-1019302D03*
G01*
X927100Y-1019302D03*
G01*
X673100Y-1019302D03*
G01*
X419100Y-1019302D03*
G01*
X4991100Y-3289300D03*
G01*
X4737100Y-3289300D03*
G01*
X4483100Y-3289300D03*
G01*
X4229100Y-3289300D03*
G01*
X3975100Y-3289300D03*
G01*
X3721100Y-3289300D03*
G01*
X3467100Y-3289300D03*
G01*
X3213100Y-3289300D03*
G01*
X2959100Y-3289300D03*
G01*
X2705100Y-3289300D03*
G01*
X2451100Y-3289300D03*
G01*
X2197100Y-3289300D03*
G01*
X1943100Y-3289300D03*
G01*
X1689100Y-3289300D03*
G01*
X1435100Y-3289300D03*
G01*
X1181100Y-3289300D03*
G01*
X927100Y-3289300D03*
G01*
X673100Y-3289300D03*
G01*
X419100Y-3289300D03*
D16*
G01*
X10680700Y-901700D03*
D17*
G01*
X10680700Y-1155700D03*
D19*
G01*
X10680700Y-1409700D03*
D16*
G01*
X10058400Y-901700D03*
D17*
G01*
X10058400Y-1155700D03*
D19*
G01*
X10058400Y-1409700D03*
D16*
G01*
X9423400Y-901700D03*
D17*
G01*
X9423400Y-1155700D03*
D19*
G01*
X9423400Y-1409700D03*
D17*
G01*
X9944100Y-5880100D03*
G01*
X10198100Y-5880100D03*
D20*
G01*
X10452100Y-5880100D03*
D17*
G01*
X10706100Y-5880100D03*
G01*
X9944100Y-6515100D03*
G01*
X10198100Y-6515100D03*
D20*
G01*
X10452100Y-6515100D03*
D17*
G01*
X10706100Y-6515100D03*
D21*
G01*
X4953012Y-6071095D03*
D22*
G01*
X4444987Y-6070104D03*
G01*
X4699012Y-6071095D03*
D11*
G01*
X8826500Y-6223000D03*
G01*
X8572500Y-6223000D03*
G01*
X8318500Y-6223000D03*
G01*
X8064500Y-6223000D03*
G01*
X7810500Y-6223000D03*
G01*
X7556500Y-6223000D03*
G01*
X7556500Y-5207000D03*
G01*
X7810500Y-5207000D03*
G01*
X8064500Y-5207000D03*
G01*
X8318500Y-5207000D03*
G01*
X8572500Y-5207000D03*
G01*
X8826500Y-5207000D03*
D23*
G01*
X3795699Y-381000D03*
G01*
X3595700Y-381000D03*
D24*
G01*
X1041400Y-368300D03*
D25*
G01*
X1295400Y-368300D03*
D26*
G01*
X10502912Y-3429012D03*
D27*
G01*
X10502900Y-3302000D03*
G01*
X10502900Y-3175000D03*
D24*
G01*
X11290300Y-3441700D03*
D25*
G01*
X11290300Y-3187700D03*
M02*
