G04 Layer: TopSolderMaskLayer*
G04 EasyEDA v6.5.57, 2026-08-22 12:43:49*
G04 d5c1c7cf252c4259a0bd62168661ddc8,73b71592eb5d450092b712373c5d4a3f,10*
G04 Gerber Generator version 0.2*
G04 Scale: 100 percent, Rotated: No, Reflected: No *
G04 Dimensions in millimeters *
G04 leading zeros omitted , absolute positions ,4 integer and 5 decimal *
%FSLAX45Y45*%
%MOMM*%

%AMMACRO1*4,1,8,-0.7831,-0.8128,-0.8128,-0.783,-0.8128,0.7831,-0.7831,0.8128,0.783,0.8128,0.8128,0.7831,0.8128,-0.783,0.783,-0.8128,-0.7831,-0.8128,0*%
%AMMACRO2*4,1,8,-1.0211,-1.0508,-1.0508,-1.021,-1.0508,1.0211,-1.0211,1.0508,1.021,1.0508,1.0508,1.0211,1.0508,-1.021,1.021,-1.0508,-1.0211,-1.0508,0*%
%AMMACRO3*4,1,8,-0.9819,-1.0414,-1.0414,-0.9819,-1.0414,0.9819,-0.9819,1.0414,0.9819,1.0414,1.0414,0.9819,1.0414,-0.9819,0.9819,-1.0414,-0.9819,-1.0414,0*%
%AMMACRO4*4,1,8,-0.5207,-0.55,-0.55,-0.5207,-0.55,0.5207,-0.5207,0.55,0.5207,0.55,0.55,0.5207,0.55,-0.5207,0.5207,-0.55,-0.5207,-0.55,0*%
%ADD10C,1.5240*%
%ADD11C,1.6256*%
%ADD12R,1.5240X1.5240*%
%ADD13MACRO1*%
%ADD14O,4.301592X2.101596*%
%ADD15O,2.101596X4.301592*%
%ADD16C,0.9016*%
%ADD17O,3.901592X5.10159*%
%ADD18MACRO2*%
%ADD19C,0.0104*%
%ADD20C,2.1016*%
%ADD21C,1.8796*%
%ADD22C,1.9812*%
%ADD23C,1.7016*%
%ADD24C,1.6016*%
%ADD25C,1.5016*%
%ADD26C,2.0828*%
%ADD27MACRO3*%
%ADD28MACRO4*%
%ADD29C,1.1000*%
%ADD30C,0.2540*%

%LPD*%
G36*
X7593634Y-82550D02*
G01*
X7504734Y-107950D01*
X7453934Y-120650D01*
X7352334Y-209550D01*
X7314234Y-273050D01*
X7295184Y-349250D01*
X7295184Y-450850D01*
X7320584Y-552450D01*
X7422184Y-654050D01*
X7523784Y-704850D01*
X7650784Y-704850D01*
X7726984Y-679450D01*
X7777784Y-654050D01*
X7853984Y-577850D01*
X7904784Y-476250D01*
X7904784Y-323850D01*
X7853984Y-222250D01*
X7803184Y-171450D01*
X7726984Y-120650D01*
X7669834Y-95250D01*
G37*
G36*
X7593634Y-234950D02*
G01*
X7530134Y-247650D01*
X7479334Y-285750D01*
X7453934Y-349250D01*
X7466634Y-425450D01*
X7492034Y-476250D01*
X7555534Y-514350D01*
X7644434Y-501650D01*
X7707934Y-463550D01*
X7733334Y-412750D01*
X7733334Y-361950D01*
X7720634Y-311150D01*
X7644434Y-247650D01*
G37*
G36*
X393700Y-5782513D02*
G01*
X304800Y-5807913D01*
X254000Y-5820613D01*
X152400Y-5909513D01*
X114300Y-5973013D01*
X95250Y-6049213D01*
X95250Y-6150813D01*
X120650Y-6252413D01*
X222250Y-6354013D01*
X323850Y-6404813D01*
X450850Y-6404813D01*
X527050Y-6379413D01*
X577850Y-6354013D01*
X654050Y-6277813D01*
X704850Y-6176213D01*
X704850Y-6023813D01*
X654050Y-5922213D01*
X603250Y-5871413D01*
X527050Y-5820613D01*
X469900Y-5795213D01*
G37*
G36*
X393700Y-5934913D02*
G01*
X330200Y-5947613D01*
X279400Y-5985713D01*
X254000Y-6049213D01*
X266700Y-6125413D01*
X292100Y-6176213D01*
X355600Y-6214313D01*
X444500Y-6201613D01*
X508000Y-6163513D01*
X533400Y-6112713D01*
X533400Y-6061913D01*
X520700Y-6011113D01*
X444500Y-5947613D01*
G37*
G36*
X7593634Y-5782513D02*
G01*
X7504734Y-5807913D01*
X7453934Y-5820613D01*
X7352334Y-5909513D01*
X7314234Y-5973013D01*
X7295184Y-6049213D01*
X7295184Y-6150813D01*
X7320584Y-6252413D01*
X7422184Y-6354013D01*
X7523784Y-6404813D01*
X7650784Y-6404813D01*
X7726984Y-6379413D01*
X7777784Y-6354013D01*
X7853984Y-6277813D01*
X7904784Y-6176213D01*
X7904784Y-6023813D01*
X7853984Y-5922213D01*
X7803184Y-5871413D01*
X7726984Y-5820613D01*
X7669834Y-5795213D01*
G37*
G36*
X7593634Y-5934913D02*
G01*
X7530134Y-5947613D01*
X7479334Y-5985713D01*
X7453934Y-6049213D01*
X7466634Y-6125413D01*
X7492034Y-6176213D01*
X7555534Y-6214313D01*
X7644434Y-6201613D01*
X7707934Y-6163513D01*
X7733334Y-6112713D01*
X7733334Y-6061913D01*
X7720634Y-6011113D01*
X7644434Y-5947613D01*
G37*
G36*
X393700Y-82550D02*
G01*
X304800Y-107950D01*
X254000Y-120650D01*
X152400Y-209550D01*
X114300Y-273050D01*
X95250Y-349250D01*
X95250Y-450850D01*
X120650Y-552450D01*
X222250Y-654050D01*
X323850Y-704850D01*
X450850Y-704850D01*
X527050Y-679450D01*
X577850Y-654050D01*
X654050Y-577850D01*
X704850Y-476250D01*
X704850Y-323850D01*
X654050Y-222250D01*
X603250Y-171450D01*
X527050Y-120650D01*
X469900Y-95250D01*
G37*
G36*
X393700Y-234950D02*
G01*
X330200Y-247650D01*
X279400Y-285750D01*
X254000Y-349250D01*
X266700Y-425450D01*
X292100Y-476250D01*
X355600Y-514350D01*
X444500Y-501650D01*
X508000Y-463550D01*
X533400Y-412750D01*
X533400Y-361950D01*
X520700Y-311150D01*
X444500Y-247650D01*
G37*
D10*
G01*
X7594600Y-1231900D03*
D11*
G01*
X7594600Y-1485900D03*
D12*
G01*
X7594600Y-1739900D03*
D10*
G01*
X6946900Y-1231900D03*
D11*
G01*
X6946900Y-1485900D03*
D12*
G01*
X6946900Y-1739900D03*
D10*
G01*
X6311900Y-1231900D03*
D11*
G01*
X6311900Y-1485900D03*
D12*
G01*
X6311900Y-1739900D03*
D11*
G01*
X6654800Y-4940300D03*
G01*
X6908800Y-4940300D03*
D13*
G01*
X7162800Y-4940300D03*
D11*
G01*
X7416800Y-4940300D03*
G01*
X6654800Y-5524500D03*
G01*
X6908800Y-5524500D03*
D13*
G01*
X7162800Y-5524500D03*
D11*
G01*
X7416800Y-5524500D03*
D10*
G01*
X7010400Y-2463800D03*
D11*
G01*
X7264400Y-2463800D03*
D12*
G01*
X7518400Y-2463800D03*
D14*
G01*
X1348104Y-4880889D03*
D15*
G01*
X978103Y-4425899D03*
G01*
X1608073Y-4428362D03*
D16*
G01*
X7599984Y-150063D03*
G01*
X7599984Y-650062D03*
G01*
X7349997Y-400050D03*
G01*
X7849997Y-400050D03*
G01*
X7777784Y-222250D03*
G01*
X7422184Y-222250D03*
G01*
X7777784Y-577850D03*
G01*
X7422184Y-577850D03*
G01*
X400050Y-5850001D03*
G01*
X400050Y-6350000D03*
G01*
X150063Y-6099987D03*
G01*
X650062Y-6099987D03*
G01*
X577850Y-5922187D03*
G01*
X222250Y-5922187D03*
G01*
X577850Y-6277787D03*
G01*
X222250Y-6277787D03*
G01*
X7599984Y-5850001D03*
G01*
X7599984Y-6350000D03*
G01*
X7349997Y-6099987D03*
G01*
X7849997Y-6099987D03*
G01*
X7777784Y-5922187D03*
G01*
X7422184Y-5922187D03*
G01*
X7777784Y-6277787D03*
G01*
X7422184Y-6277787D03*
G01*
X400050Y-150063D03*
G01*
X400050Y-650062D03*
G01*
X150063Y-400050D03*
G01*
X650062Y-400050D03*
G01*
X577850Y-222250D03*
G01*
X222250Y-222250D03*
G01*
X577850Y-577850D03*
G01*
X222250Y-577850D03*
D17*
G01*
X1130300Y-5664200D03*
G01*
X3289300Y-5664200D03*
D18*
G01*
X5920696Y-4643602D03*
G01*
X5920696Y-4897600D03*
D20*
G01*
X5920689Y-5770399D03*
G01*
X5920689Y-6024399D03*
G01*
X4010710Y-6024399D03*
G01*
X4010710Y-5770399D03*
D18*
G01*
X4010700Y-4897600D03*
G01*
X4010700Y-4643602D03*
D21*
G01*
X4445000Y-4216400D03*
G01*
X3889400Y-4216400D03*
G01*
X368300Y-3733800D03*
G01*
X923899Y-3733800D03*
D22*
G01*
X5753100Y-1460500D03*
G01*
X5753100Y-469900D03*
G01*
X4508500Y-495300D03*
G01*
X3517900Y-495300D03*
G01*
X1625600Y-495300D03*
G01*
X2616200Y-495300D03*
G01*
X5422900Y-482600D03*
G01*
X5422900Y-1473200D03*
G01*
X7747000Y-4089400D03*
G01*
X6756400Y-4089400D03*
G01*
X6756400Y-4445000D03*
G01*
X7747000Y-4445000D03*
G01*
X6057900Y-469900D03*
G01*
X7048500Y-469900D03*
D23*
G01*
X3454400Y-4597400D03*
G01*
X2946400Y-4597400D03*
G01*
X2006638Y-4030332D03*
G01*
X2514561Y-4021467D03*
D24*
G01*
X4991100Y-1019302D03*
G01*
X4737100Y-1019302D03*
G01*
X4483100Y-1019302D03*
G01*
X4229100Y-1019302D03*
G01*
X3975100Y-1019302D03*
G01*
X3721100Y-1019302D03*
G01*
X3467100Y-1019302D03*
G01*
X3213100Y-1019302D03*
G01*
X2959100Y-1019302D03*
G01*
X2705100Y-1019302D03*
G01*
X2451100Y-1019302D03*
G01*
X2197100Y-1019302D03*
G01*
X1943100Y-1019302D03*
G01*
X1689100Y-1019302D03*
G01*
X1435100Y-1019302D03*
G01*
X1181100Y-1019302D03*
G01*
X927100Y-1019302D03*
G01*
X673100Y-1019302D03*
G01*
X419100Y-1019302D03*
G01*
X4991100Y-3289300D03*
G01*
X4737100Y-3289300D03*
G01*
X4483100Y-3289300D03*
G01*
X4229100Y-3289300D03*
G01*
X3975100Y-3289300D03*
G01*
X3721100Y-3289300D03*
G01*
X3467100Y-3289300D03*
G01*
X3213100Y-3289300D03*
G01*
X2959100Y-3289300D03*
G01*
X2705100Y-3289300D03*
G01*
X2451100Y-3289300D03*
G01*
X2197100Y-3289300D03*
G01*
X1943100Y-3289300D03*
G01*
X1689100Y-3289300D03*
G01*
X1435100Y-3289300D03*
G01*
X1181100Y-3289300D03*
G01*
X927100Y-3289300D03*
G01*
X673100Y-3289300D03*
G01*
X419100Y-3289300D03*
D22*
G01*
X5435600Y-4165600D03*
G01*
X5435600Y-3911600D03*
G01*
X5435600Y-3657600D03*
G01*
X5435600Y-3403600D03*
G01*
X5435600Y-3149600D03*
G01*
X5435600Y-2895600D03*
G01*
X6451600Y-2895600D03*
G01*
X6451600Y-3149600D03*
G01*
X6451600Y-3403600D03*
G01*
X6451600Y-3657600D03*
G01*
X6451600Y-3911600D03*
G01*
X6451600Y-4165600D03*
D25*
G01*
X3147999Y-495300D03*
G01*
X2948000Y-495300D03*
D26*
G01*
X1016000Y-495300D03*
D27*
G01*
X1270000Y-495300D03*
D28*
G01*
X7264397Y-3022602D03*
D29*
G01*
X7391400Y-3022600D03*
G01*
X7518400Y-3022600D03*
D26*
G01*
X7302500Y-3568700D03*
D27*
G01*
X7556500Y-3568700D03*
D30*
G75*
G01*
X7459985Y-400050D02*
G02*
X7739985Y-400050I140000J0D01*
G75*
G01*
X7739985Y-400050D02*
G02*
X7459985Y-400050I-140000J0D01*
G75*
G01*
X7909984Y-400050D02*
G02*
X7289985Y-400050I-309999J0D01*
G75*
G01*
X7289985Y-400050D02*
G02*
X7909984Y-400050I310000J0D01*
G75*
G01*
X260050Y-6099988D02*
G02*
X540050Y-6099988I140000J0D01*
G75*
G01*
X540050Y-6099988D02*
G02*
X260050Y-6099988I-140000J0D01*
G75*
G01*
X710049Y-6099988D02*
G02*
X90051Y-6099988I-309999J0D01*
G75*
G01*
X90051Y-6099988D02*
G02*
X710049Y-6099988I309999J0D01*
G75*
G01*
X7459985Y-6099988D02*
G02*
X7739985Y-6099988I140000J0D01*
G75*
G01*
X7739985Y-6099988D02*
G02*
X7459985Y-6099988I-140000J0D01*
G75*
G01*
X7909984Y-6099988D02*
G02*
X7289985Y-6099988I-309999J0D01*
G75*
G01*
X7289985Y-6099988D02*
G02*
X7909984Y-6099988I310000J0D01*
G75*
G01*
X260050Y-400050D02*
G02*
X540050Y-400050I140000J0D01*
G75*
G01*
X540050Y-400050D02*
G02*
X260050Y-400050I-140000J0D01*
G75*
G01*
X710049Y-400050D02*
G02*
X90051Y-400050I-309999J0D01*
G75*
G01*
X90051Y-400050D02*
G02*
X710049Y-400050I309999J0D01*
M02*
