G04 Layer: BottomSolderMaskLayer*
G04 EasyEDA v6.5.57, 2026-08-21 18:24:28*
G04 95df02b17ae24060b49c9fd1e424970a,73b71592eb5d450092b712373c5d4a3f,10*
G04 Gerber Generator version 0.2*
G04 Scale: 100 percent, Rotated: No, Reflected: No *
G04 Dimensions in millimeters *
G04 leading zeros omitted , absolute positions ,4 integer and 5 decimal *
%FSLAX45Y45*%
%MOMM*%

%AMMACRO1*4,1,8,-1.0211,-1.0508,-1.0508,-1.021,-1.0508,1.0211,-1.0211,1.0508,1.021,1.0508,1.0508,1.0211,1.0508,-1.021,1.021,-1.0508,-1.0211,-1.0508,0*%
%AMMACRO2*4,1,8,-0.7831,-0.8128,-0.8128,-0.783,-0.8128,0.7831,-0.7831,0.8128,0.783,0.8128,0.8128,0.7831,0.8128,-0.783,0.783,-0.8128,-0.7831,-0.8128,0*%
%AMMACRO3*4,1,8,-0.9819,-1.0414,-1.0414,-0.9819,-1.0414,0.9819,-0.9819,1.0414,0.9819,1.0414,1.0414,0.9819,1.0414,-0.9819,0.9819,-1.0414,-0.9819,-1.0414,0*%
%AMMACRO4*4,1,8,-0.5207,-0.55,-0.55,-0.5207,-0.55,0.5207,-0.5207,0.55,0.5207,0.55,0.55,0.5207,0.55,-0.5207,0.5207,-0.55,-0.5207,-0.55,0*%
%ADD10O,4.301592X2.101596*%
%ADD11O,2.101596X4.301592*%
%ADD12C,0.9016*%
%ADD13O,3.901592X5.10159*%
%ADD14MACRO1*%
%ADD15C,2.1016*%
%ADD16C,1.8796*%
%ADD17C,1.9812*%
%ADD18C,0.0105*%
%ADD19C,1.7016*%
%ADD20C,1.6016*%
%ADD21C,1.5240*%
%ADD22C,1.6256*%
%ADD23R,1.5240X1.5240*%
%ADD24MACRO2*%
%ADD25C,1.5016*%
%ADD26C,2.0828*%
%ADD27MACRO3*%
%ADD28MACRO4*%
%ADD29C,1.1000*%
%ADD30C,0.2540*%

%LPD*%
G36*
X11587226Y-82550D02*
G01*
X11498326Y-107950D01*
X11447526Y-120650D01*
X11345926Y-209550D01*
X11307826Y-273050D01*
X11295126Y-349250D01*
X11295126Y-450850D01*
X11320526Y-527050D01*
X11371326Y-603250D01*
X11422126Y-654050D01*
X11523726Y-704850D01*
X11676126Y-704850D01*
X11777726Y-654050D01*
X11853926Y-577850D01*
X11904726Y-476250D01*
X11904726Y-323850D01*
X11853926Y-222250D01*
X11803126Y-171450D01*
X11726926Y-120650D01*
X11663426Y-95250D01*
G37*
G36*
X11587226Y-234950D02*
G01*
X11523726Y-247650D01*
X11472926Y-285750D01*
X11447526Y-349250D01*
X11460226Y-425450D01*
X11485626Y-476250D01*
X11549126Y-514350D01*
X11638026Y-501650D01*
X11701526Y-463550D01*
X11726926Y-412750D01*
X11726926Y-361950D01*
X11714226Y-311150D01*
X11638026Y-247650D01*
G37*
G36*
X387350Y-6282436D02*
G01*
X298450Y-6307836D01*
X247650Y-6320536D01*
X146050Y-6409436D01*
X107950Y-6472936D01*
X95250Y-6549135D01*
X95250Y-6650736D01*
X120650Y-6726936D01*
X171450Y-6803136D01*
X222250Y-6853936D01*
X323850Y-6904736D01*
X476250Y-6904736D01*
X577850Y-6853936D01*
X654050Y-6777736D01*
X704850Y-6676136D01*
X704850Y-6523735D01*
X654050Y-6422136D01*
X603250Y-6371336D01*
X527050Y-6320536D01*
X463550Y-6295136D01*
G37*
G36*
X387350Y-6434836D02*
G01*
X323850Y-6447536D01*
X273050Y-6485636D01*
X247650Y-6549135D01*
X260350Y-6625336D01*
X285750Y-6676136D01*
X349250Y-6714236D01*
X438150Y-6701536D01*
X501650Y-6663436D01*
X527050Y-6612636D01*
X527050Y-6561836D01*
X514350Y-6511035D01*
X438150Y-6447536D01*
G37*
G36*
X11587226Y-6282436D02*
G01*
X11498326Y-6307836D01*
X11447526Y-6320536D01*
X11345926Y-6409436D01*
X11307826Y-6472936D01*
X11295126Y-6549135D01*
X11295126Y-6650736D01*
X11320526Y-6726936D01*
X11371326Y-6803136D01*
X11422126Y-6853936D01*
X11523726Y-6904736D01*
X11676126Y-6904736D01*
X11777726Y-6853936D01*
X11853926Y-6777736D01*
X11904726Y-6676136D01*
X11904726Y-6523735D01*
X11853926Y-6422136D01*
X11803126Y-6371336D01*
X11726926Y-6320536D01*
X11663426Y-6295136D01*
G37*
G36*
X11587226Y-6434836D02*
G01*
X11523726Y-6447536D01*
X11472926Y-6485636D01*
X11447526Y-6549135D01*
X11460226Y-6625336D01*
X11485626Y-6676136D01*
X11549126Y-6714236D01*
X11638026Y-6701536D01*
X11701526Y-6663436D01*
X11726926Y-6612636D01*
X11726926Y-6561836D01*
X11714226Y-6511035D01*
X11638026Y-6447536D01*
G37*
G36*
X387350Y-82550D02*
G01*
X298450Y-107950D01*
X247650Y-120650D01*
X146050Y-209550D01*
X107950Y-273050D01*
X95250Y-349250D01*
X95250Y-450850D01*
X120650Y-527050D01*
X171450Y-603250D01*
X222250Y-654050D01*
X323850Y-704850D01*
X476250Y-704850D01*
X577850Y-654050D01*
X654050Y-577850D01*
X704850Y-476250D01*
X704850Y-323850D01*
X654050Y-222250D01*
X603250Y-171450D01*
X527050Y-120650D01*
X463550Y-95250D01*
G37*
G36*
X387350Y-234950D02*
G01*
X323850Y-247650D01*
X273050Y-285750D01*
X247650Y-349250D01*
X260350Y-425450D01*
X285750Y-476250D01*
X349250Y-514350D01*
X438150Y-501650D01*
X501650Y-463550D01*
X527050Y-412750D01*
X527050Y-361950D01*
X514350Y-311150D01*
X438150Y-247650D01*
G37*
D10*
G01*
X1335404Y-5350789D03*
D11*
G01*
X965403Y-4895799D03*
G01*
X1595373Y-4898262D03*
D12*
G01*
X11599925Y-150063D03*
G01*
X11599925Y-650062D03*
G01*
X11349939Y-400050D03*
G01*
X11849938Y-400050D03*
G01*
X11777725Y-222250D03*
G01*
X11422125Y-222250D03*
G01*
X11777725Y-577850D03*
G01*
X11422125Y-577850D03*
G01*
X400050Y-6349949D03*
G01*
X400050Y-6849948D03*
G01*
X150063Y-6599936D03*
G01*
X650062Y-6599936D03*
G01*
X577850Y-6422136D03*
G01*
X222250Y-6422136D03*
G01*
X577850Y-6777736D03*
G01*
X222250Y-6777736D03*
G01*
X11599925Y-6349949D03*
G01*
X11599925Y-6849948D03*
G01*
X11349939Y-6599936D03*
G01*
X11849938Y-6599936D03*
G01*
X11777725Y-6422136D03*
G01*
X11422125Y-6422136D03*
G01*
X11777725Y-6777736D03*
G01*
X11422125Y-6777736D03*
G01*
X400050Y-150063D03*
G01*
X400050Y-650062D03*
G01*
X150063Y-400050D03*
G01*
X650062Y-400050D03*
G01*
X577850Y-222250D03*
G01*
X222250Y-222250D03*
G01*
X577850Y-577850D03*
G01*
X222250Y-577850D03*
D13*
G01*
X1130300Y-6134100D03*
G01*
X3289300Y-6134100D03*
D14*
G01*
X4099603Y-6595899D03*
G01*
X4099603Y-6341902D03*
D15*
G01*
X4099610Y-5469102D03*
G01*
X4099610Y-5215102D03*
G01*
X6009589Y-5215102D03*
G01*
X6009589Y-5469102D03*
D14*
G01*
X6009599Y-6341902D03*
G01*
X6009599Y-6595899D03*
D16*
G01*
X4686300Y-3975100D03*
G01*
X4130700Y-3975100D03*
G01*
X1651000Y-4267200D03*
G01*
X2206599Y-4267200D03*
D17*
G01*
X7886700Y-889000D03*
G01*
X8877300Y-889000D03*
G01*
X5194300Y-482600D03*
G01*
X4203700Y-482600D03*
G01*
X1892300Y-495300D03*
G01*
X2882900Y-495300D03*
G01*
X1816100Y-3759200D03*
G01*
X825500Y-3759200D03*
G01*
X10731500Y-4318000D03*
G01*
X10731500Y-5308600D03*
G01*
X10312400Y-5308600D03*
G01*
X10312400Y-4318000D03*
G01*
X8978900Y-3302000D03*
G01*
X9969500Y-3302000D03*
D19*
G01*
X5537200Y-4140200D03*
G01*
X6045200Y-4140200D03*
G01*
X3479800Y-4356100D03*
G01*
X2971800Y-4356100D03*
D20*
G01*
X4991100Y-1019302D03*
G01*
X4737100Y-1019302D03*
G01*
X4483100Y-1019302D03*
G01*
X4229100Y-1019302D03*
G01*
X3975100Y-1019302D03*
G01*
X3721100Y-1019302D03*
G01*
X3467100Y-1019302D03*
G01*
X3213100Y-1019302D03*
G01*
X2959100Y-1019302D03*
G01*
X2705100Y-1019302D03*
G01*
X2451100Y-1019302D03*
G01*
X2197100Y-1019302D03*
G01*
X1943100Y-1019302D03*
G01*
X1689100Y-1019302D03*
G01*
X1435100Y-1019302D03*
G01*
X1181100Y-1019302D03*
G01*
X927100Y-1019302D03*
G01*
X673100Y-1019302D03*
G01*
X419100Y-1019302D03*
G01*
X4991100Y-3289300D03*
G01*
X4737100Y-3289300D03*
G01*
X4483100Y-3289300D03*
G01*
X4229100Y-3289300D03*
G01*
X3975100Y-3289300D03*
G01*
X3721100Y-3289300D03*
G01*
X3467100Y-3289300D03*
G01*
X3213100Y-3289300D03*
G01*
X2959100Y-3289300D03*
G01*
X2705100Y-3289300D03*
G01*
X2451100Y-3289300D03*
G01*
X2197100Y-3289300D03*
G01*
X1943100Y-3289300D03*
G01*
X1689100Y-3289300D03*
G01*
X1435100Y-3289300D03*
G01*
X1181100Y-3289300D03*
G01*
X927100Y-3289300D03*
G01*
X673100Y-3289300D03*
G01*
X419100Y-3289300D03*
D21*
G01*
X10680700Y-901700D03*
D22*
G01*
X10680700Y-1155700D03*
D23*
G01*
X10680700Y-1409700D03*
D21*
G01*
X10058400Y-901700D03*
D22*
G01*
X10058400Y-1155700D03*
D23*
G01*
X10058400Y-1409700D03*
D21*
G01*
X9423400Y-901700D03*
D22*
G01*
X9423400Y-1155700D03*
D23*
G01*
X9423400Y-1409700D03*
D22*
G01*
X9944100Y-5880100D03*
G01*
X10198100Y-5880100D03*
D24*
G01*
X10452100Y-5880100D03*
D22*
G01*
X10706100Y-5880100D03*
G01*
X9944100Y-6515100D03*
G01*
X10198100Y-6515100D03*
D24*
G01*
X10452100Y-6515100D03*
D22*
G01*
X10706100Y-6515100D03*
D17*
G01*
X8826500Y-6223000D03*
G01*
X8572500Y-6223000D03*
G01*
X8318500Y-6223000D03*
G01*
X8064500Y-6223000D03*
G01*
X7810500Y-6223000D03*
G01*
X7556500Y-6223000D03*
G01*
X7556500Y-5207000D03*
G01*
X7810500Y-5207000D03*
G01*
X8064500Y-5207000D03*
G01*
X8318500Y-5207000D03*
G01*
X8572500Y-5207000D03*
G01*
X8826500Y-5207000D03*
D25*
G01*
X3617899Y-482600D03*
G01*
X3417900Y-482600D03*
D26*
G01*
X1130300Y-495300D03*
D27*
G01*
X1384300Y-495300D03*
D28*
G01*
X10502902Y-3429002D03*
D29*
G01*
X10502900Y-3302000D03*
G01*
X10502900Y-3175000D03*
D26*
G01*
X11290300Y-3441700D03*
D27*
G01*
X11290300Y-3187700D03*
D30*
G75*
G01*
X11459926Y-400050D02*
G02*
X11739926Y-400050I140000J0D01*
G75*
G01*
X11739926Y-400050D02*
G02*
X11459926Y-400050I-140000J0D01*
G75*
G01*
X11909925Y-400050D02*
G02*
X11289927Y-400050I-309999J0D01*
G75*
G01*
X11289927Y-400050D02*
G02*
X11909925Y-400050I309999J0D01*
G75*
G01*
X260050Y-6599936D02*
G02*
X540050Y-6599936I140000J0D01*
G75*
G01*
X540050Y-6599936D02*
G02*
X260050Y-6599936I-140000J0D01*
G75*
G01*
X710049Y-6599936D02*
G02*
X90051Y-6599936I-309999J0D01*
G75*
G01*
X90051Y-6599936D02*
G02*
X710049Y-6599936I309999J0D01*
G75*
G01*
X11459926Y-6599936D02*
G02*
X11739926Y-6599936I140000J0D01*
G75*
G01*
X11739926Y-6599936D02*
G02*
X11459926Y-6599936I-140000J0D01*
G75*
G01*
X11909925Y-6599936D02*
G02*
X11289927Y-6599936I-309999J0D01*
G75*
G01*
X11289927Y-6599936D02*
G02*
X11909925Y-6599936I309999J0D01*
G75*
G01*
X260050Y-400050D02*
G02*
X540050Y-400050I140000J0D01*
G75*
G01*
X540050Y-400050D02*
G02*
X260050Y-400050I-140000J0D01*
G75*
G01*
X710049Y-400050D02*
G02*
X90051Y-400050I-309999J0D01*
G75*
G01*
X90051Y-400050D02*
G02*
X710049Y-400050I309999J0D01*
M02*
