G04 Layer: TopLayer*
G04 EasyEDA v6.5.57, 2026-07-28 08:23:31*
G04 7d567a193b7f477ca9986d8ae1ad1ccc,73b71592eb5d450092b712373c5d4a3f,10*
G04 Gerber Generator version 0.2*
G04 Scale: 100 percent, Rotated: No, Reflected: No *
G04 Dimensions in millimeters *
G04 leading zeros omitted , absolute positions ,4 integer and 5 decimal *
%FSLAX45Y45*%
%MOMM*%

%ADD10C,0.3000*%
%ADD11C,2.0000*%
%ADD12C,0.8000*%
%ADD13C,1.7780*%
%ADD14C,1.8796*%
%ADD15C,0.0107*%
%ADD16O,3.699993X1.499997*%
%ADD17O,1.499997X3.799992*%
%ADD18C,1.5000*%
%ADD19C,1.6000*%
%ADD20C,1.5240*%
%ADD21R,1.5240X1.5240*%
%ADD22R,1.8000X2.6000*%
%ADD23O,1.799996X2.599995*%
%ADD24C,1.4000*%
%ADD25R,1.8796X1.8796*%
%ADD26R,1.0000X1.0000*%
%ADD27C,1.0000*%

%LPD*%
D10*
X2705100Y-1019302D02*
G01*
X4213097Y-2527300D01*
X5892800Y-2527300D01*
X8572500Y-5207000D01*
X2959100Y-1019302D02*
G01*
X4301997Y-2362200D01*
X5981700Y-2362200D01*
X8826500Y-5207000D01*
X3213100Y-1019302D02*
G01*
X4390897Y-2197100D01*
X6045200Y-2197100D01*
X8178800Y-4330700D01*
X9334500Y-4330700D01*
X10312400Y-5308600D01*
X3467100Y-1019302D02*
G01*
X4492497Y-2044700D01*
X6134100Y-2044700D01*
X8267700Y-4178300D01*
X9448800Y-4178300D01*
X10579100Y-5308600D01*
X10731500Y-5308600D01*
D11*
X3467100Y-3289300D02*
G01*
X3467100Y-3073400D01*
X1689100Y-1409700D01*
X1689100Y-1019302D01*
X1633473Y-5520436D02*
G01*
X4953000Y-5524500D01*
X4953000Y-6071107D02*
G01*
X4953000Y-5524500D01*
X4435602Y-5007102D01*
X4435602Y-4699000D01*
D12*
X1511300Y-4394200D02*
G01*
X1206500Y-4089400D01*
X647700Y-4089400D01*
X165100Y-3606800D01*
X177800Y-1295400D01*
X419100Y-1019302D01*
D10*
X10198100Y-5880100D02*
G01*
X10198100Y-5676900D01*
X10566400Y-5308600D01*
X10731500Y-5308600D01*
D11*
X5930900Y-4711700D02*
G01*
X6883400Y-5664200D01*
X6883400Y-6311900D01*
X7327900Y-6756400D01*
X10363200Y-6756400D01*
X10452100Y-6515100D01*
D10*
X10058400Y-1409700D02*
G01*
X9423400Y-1409700D01*
X10680700Y-1409700D02*
G01*
X10058400Y-1409700D01*
D11*
X10452100Y-6515100D02*
G01*
X10452100Y-5880100D01*
X8064500Y-6223000D02*
G01*
X8064500Y-5207000D01*
D10*
X9423400Y-901700D02*
G01*
X10058400Y-901700D01*
X10058400Y-901700D02*
G01*
X10680700Y-901700D01*
D11*
X4991100Y-3289300D02*
G01*
X6299200Y-3302000D01*
X8064500Y-5080000D01*
X8064500Y-5207000D01*
D10*
X3795699Y-381000D02*
G01*
X4406900Y-381000D01*
X1981200Y-368300D02*
G01*
X1295400Y-368300D01*
X9423400Y-901700D02*
G01*
X9410700Y-889000D01*
X8877300Y-889000D01*
X10312400Y-5308600D02*
G01*
X10312400Y-5334000D01*
X10071100Y-5575300D01*
X10071100Y-6388100D01*
X10198100Y-6515100D01*
X10731500Y-4318000D02*
G01*
X10312400Y-4318000D01*
X1460500Y-3835400D02*
G01*
X1460500Y-3517900D01*
X1689100Y-3289300D01*
D11*
X2451100Y-3835400D02*
G01*
X3048000Y-3835400D01*
X3467100Y-3289300D01*
D10*
X10502900Y-3302000D02*
G01*
X9969500Y-3302000D01*
D11*
X1689100Y-1019302D02*
G01*
X1917700Y-711200D01*
X3327400Y-698500D01*
X3595624Y-381000D01*
X1689100Y-1019302D02*
G01*
X1460500Y-711200D01*
X1041400Y-711200D01*
X1041400Y-368300D01*
X1003554Y-5518150D02*
G01*
X1003554Y-6083554D01*
X1689100Y-6769100D01*
X4699025Y-6769100D01*
X4699025Y-6071107D01*
X1003505Y-5518099D02*
G01*
X1003505Y-5457593D01*
X2066899Y-4394200D01*
D10*
X6997700Y-800100D02*
G01*
X6578600Y-381000D01*
X5397500Y-381000D01*
X9423400Y-1409700D02*
G01*
X7607300Y-1409700D01*
X6997700Y-800100D01*
D11*
X2946400Y-4711700D02*
G01*
X2946400Y-4330700D01*
X2451100Y-3835400D01*
X2066899Y-4394200D02*
G01*
X2384399Y-4711700D01*
X2946400Y-4711700D01*
X6438900Y-4711700D02*
G01*
X5016500Y-3289300D01*
X4991100Y-3289300D01*
X3595624Y-381000D02*
G01*
X3327400Y-698500D01*
X6184900Y-698500D01*
X6540500Y-1054100D01*
X6997700Y-1054100D01*
D10*
X11290300Y-3441700D02*
G01*
X10998200Y-3441700D01*
X10731500Y-3175000D01*
X10502900Y-3175000D01*
X11290300Y-3187700D02*
G01*
X11379200Y-3187700D01*
X11531600Y-3340100D01*
X11531600Y-3886200D01*
X11099800Y-4318000D01*
X10731500Y-4318000D01*
X8826500Y-6223000D02*
G01*
X9601200Y-6223000D01*
X9944100Y-5880100D01*
X8572500Y-6223000D02*
G01*
X8864600Y-6515100D01*
X9944100Y-6515100D01*
D11*
X5930900Y-4711700D02*
G01*
X5486400Y-4267200D01*
X4867402Y-4267200D01*
X4435602Y-4699000D01*
D13*
G01*
X4991100Y-4699000D03*
G01*
X4435500Y-4699000D03*
G01*
X1511300Y-4394200D03*
G01*
X2066899Y-4394200D03*
D14*
G01*
X1981200Y-368300D03*
G01*
X2971800Y-368300D03*
G01*
X5397500Y-381000D03*
G01*
X4406900Y-381000D03*
G01*
X7886700Y-889000D03*
G01*
X8877300Y-889000D03*
G01*
X10731500Y-4318000D03*
G01*
X10731500Y-5308600D03*
G01*
X10312400Y-5308600D03*
G01*
X10312400Y-4318000D03*
G01*
X2451100Y-3835400D03*
G01*
X1460500Y-3835400D03*
G01*
X8978900Y-3302000D03*
G01*
X9969500Y-3302000D03*
D16*
G01*
X1373504Y-5973089D03*
D17*
G01*
X1003503Y-5518099D03*
G01*
X1633473Y-5520562D03*
D18*
G01*
X6997700Y-800100D03*
G01*
X6997700Y-1054100D03*
D19*
G01*
X5930900Y-4711700D03*
G01*
X6438900Y-4711700D03*
G01*
X3454400Y-4711700D03*
G01*
X2946400Y-4711700D03*
D18*
G01*
X4991100Y-1019302D03*
G01*
X4737100Y-1019302D03*
G01*
X4483100Y-1019302D03*
G01*
X4229100Y-1019302D03*
G01*
X3975100Y-1019302D03*
G01*
X3721100Y-1019302D03*
G01*
X3467100Y-1019302D03*
G01*
X3213100Y-1019302D03*
G01*
X2959100Y-1019302D03*
G01*
X2705100Y-1019302D03*
G01*
X2451100Y-1019302D03*
G01*
X2197100Y-1019302D03*
G01*
X1943100Y-1019302D03*
G01*
X1689100Y-1019302D03*
G01*
X1435100Y-1019302D03*
G01*
X1181100Y-1019302D03*
G01*
X927100Y-1019302D03*
G01*
X673100Y-1019302D03*
G01*
X419100Y-1019302D03*
G01*
X4991100Y-3289300D03*
G01*
X4737100Y-3289300D03*
G01*
X4483100Y-3289300D03*
G01*
X4229100Y-3289300D03*
G01*
X3975100Y-3289300D03*
G01*
X3721100Y-3289300D03*
G01*
X3467100Y-3289300D03*
G01*
X3213100Y-3289300D03*
G01*
X2959100Y-3289300D03*
G01*
X2705100Y-3289300D03*
G01*
X2451100Y-3289300D03*
G01*
X2197100Y-3289300D03*
G01*
X1943100Y-3289300D03*
G01*
X1689100Y-3289300D03*
G01*
X1435100Y-3289300D03*
G01*
X1181100Y-3289300D03*
G01*
X927100Y-3289300D03*
G01*
X673100Y-3289300D03*
G01*
X419100Y-3289300D03*
D20*
G01*
X10680700Y-901700D03*
G01*
X10680700Y-1155700D03*
D21*
G01*
X10680700Y-1409700D03*
D20*
G01*
X10058400Y-901700D03*
G01*
X10058400Y-1155700D03*
D21*
G01*
X10058400Y-1409700D03*
D20*
G01*
X9423400Y-901700D03*
G01*
X9423400Y-1155700D03*
D21*
G01*
X9423400Y-1409700D03*
D20*
G01*
X9944100Y-5880100D03*
G01*
X10198100Y-5880100D03*
D21*
G01*
X10452100Y-5880100D03*
D20*
G01*
X10706100Y-5880100D03*
G01*
X9944100Y-6515100D03*
G01*
X10198100Y-6515100D03*
D21*
G01*
X10452100Y-6515100D03*
D20*
G01*
X10706100Y-6515100D03*
D22*
G01*
X4953012Y-6071095D03*
D23*
G01*
X4444987Y-6070104D03*
G01*
X4699012Y-6071095D03*
D14*
G01*
X8826500Y-6223000D03*
G01*
X8572500Y-6223000D03*
G01*
X8318500Y-6223000D03*
G01*
X8064500Y-6223000D03*
G01*
X7810500Y-6223000D03*
G01*
X7556500Y-6223000D03*
G01*
X7556500Y-5207000D03*
G01*
X7810500Y-5207000D03*
G01*
X8064500Y-5207000D03*
G01*
X8318500Y-5207000D03*
G01*
X8572500Y-5207000D03*
G01*
X8826500Y-5207000D03*
D24*
G01*
X3795699Y-381000D03*
G01*
X3595700Y-381000D03*
D14*
G01*
X1041400Y-368300D03*
D25*
G01*
X1295400Y-368300D03*
D26*
G01*
X10502900Y-3429000D03*
D27*
G01*
X10502900Y-3302000D03*
G01*
X10502900Y-3175000D03*
D14*
G01*
X11290300Y-3441700D03*
D25*
G01*
X11290300Y-3187700D03*
M02*
