G04 Layer: BottomLayer*
G04 EasyEDA v6.5.57, 2026-08-21 18:24:28*
G04 95df02b17ae24060b49c9fd1e424970a,73b71592eb5d450092b712373c5d4a3f,10*
G04 Gerber Generator version 0.2*
G04 Scale: 100 percent, Rotated: No, Reflected: No *
G04 Dimensions in millimeters *
G04 leading zeros omitted , absolute positions ,4 integer and 5 decimal *
%FSLAX45Y45*%
%MOMM*%

%ADD10C,0.3000*%
%ADD11C,0.8000*%
%ADD12O,4.199992X1.999996*%
%ADD13O,1.999996X4.199992*%
%ADD14O,3.799992X4.99999*%
%ADD15R,2.0000X2.0000*%
%ADD16C,2.0000*%
%ADD17C,0.0151*%
%ADD18C,1.7780*%
%ADD19C,1.8796*%
%ADD20C,1.6000*%
%ADD21C,1.5000*%
%ADD22C,1.5240*%
%ADD23R,1.5240X1.5240*%
%ADD24C,1.4000*%
%ADD25R,1.8796X1.8796*%
%ADD26R,1.0000X1.0000*%
%ADD27C,1.0000*%

%LPD*%
G36*
X400253Y-6974078D02*
G01*
X374142Y-6973163D01*
X348742Y-6970522D01*
X323545Y-6966153D01*
X298754Y-6960108D01*
X274421Y-6952335D01*
X250647Y-6942937D01*
X227584Y-6931964D01*
X205333Y-6919417D01*
X183997Y-6905396D01*
X163677Y-6889953D01*
X144424Y-6873138D01*
X126390Y-6855053D01*
X109626Y-6835800D01*
X94183Y-6815429D01*
X80213Y-6794042D01*
X67716Y-6771792D01*
X56743Y-6748678D01*
X47396Y-6724903D01*
X39725Y-6700570D01*
X33680Y-6675729D01*
X29362Y-6650583D01*
X26771Y-6625183D01*
X25908Y-6599377D01*
X25908Y-400608D01*
X26822Y-374142D01*
X29464Y-348742D01*
X33832Y-323545D01*
X39878Y-298754D01*
X47650Y-274421D01*
X57048Y-250647D01*
X68021Y-227584D01*
X80568Y-205333D01*
X94589Y-183997D01*
X110032Y-163677D01*
X126847Y-144424D01*
X144932Y-126390D01*
X164185Y-109626D01*
X184556Y-94183D01*
X205943Y-80213D01*
X228193Y-67716D01*
X251307Y-56743D01*
X275082Y-47396D01*
X299415Y-39725D01*
X324256Y-33680D01*
X349402Y-29362D01*
X374802Y-26771D01*
X400608Y-25908D01*
X11599367Y-25908D01*
X11625834Y-26822D01*
X11651234Y-29464D01*
X11676430Y-33832D01*
X11701221Y-39878D01*
X11725554Y-47650D01*
X11749328Y-57048D01*
X11772392Y-68021D01*
X11794642Y-80568D01*
X11815978Y-94589D01*
X11836298Y-110032D01*
X11855551Y-126847D01*
X11873585Y-144932D01*
X11890349Y-164185D01*
X11905792Y-184556D01*
X11919762Y-205943D01*
X11932259Y-228193D01*
X11943232Y-251307D01*
X11952579Y-275082D01*
X11960250Y-299415D01*
X11966295Y-324256D01*
X11970613Y-349402D01*
X11973204Y-374802D01*
X11974068Y-400608D01*
X11974068Y-6599377D01*
X11973153Y-6625844D01*
X11970512Y-6651244D01*
X11966143Y-6676440D01*
X11960098Y-6701231D01*
X11952325Y-6725564D01*
X11942927Y-6749338D01*
X11931954Y-6772402D01*
X11919407Y-6794652D01*
X11905386Y-6815988D01*
X11889943Y-6836308D01*
X11873128Y-6855561D01*
X11855043Y-6873595D01*
X11835790Y-6890359D01*
X11815419Y-6905802D01*
X11794032Y-6919772D01*
X11771782Y-6932269D01*
X11748668Y-6943242D01*
X11724894Y-6952589D01*
X11700560Y-6960260D01*
X11675719Y-6966305D01*
X11650573Y-6970623D01*
X11625173Y-6973214D01*
X11599367Y-6974078D01*
G37*

%LPC*%
G36*
X426415Y-6910171D02*
G01*
X428294Y-6909460D01*
X437489Y-6904126D01*
X445668Y-6897420D01*
X452729Y-6889496D01*
X458368Y-6880555D01*
X460197Y-6876288D01*
X426415Y-6876288D01*
G37*
G36*
X11626291Y-6910171D02*
G01*
X11628170Y-6909460D01*
X11637365Y-6904126D01*
X11645544Y-6897420D01*
X11652605Y-6889496D01*
X11658244Y-6880555D01*
X11660073Y-6876288D01*
X11626291Y-6876288D01*
G37*
G36*
X373684Y-6910120D02*
G01*
X373684Y-6876288D01*
X339699Y-6876288D01*
X344373Y-6885127D01*
X350723Y-6893610D01*
X358394Y-6900976D01*
X367131Y-6906971D01*
G37*
G36*
X11573560Y-6910120D02*
G01*
X11573560Y-6876288D01*
X11539575Y-6876288D01*
X11544249Y-6885127D01*
X11550599Y-6893610D01*
X11558270Y-6900976D01*
X11567007Y-6906971D01*
G37*
G36*
X604215Y-6837984D02*
G01*
X606094Y-6837273D01*
X615289Y-6831939D01*
X623468Y-6825234D01*
X630529Y-6817309D01*
X636168Y-6808368D01*
X637997Y-6804101D01*
X604215Y-6804101D01*
G37*
G36*
X248615Y-6837984D02*
G01*
X250494Y-6837273D01*
X259689Y-6831939D01*
X267868Y-6825234D01*
X274929Y-6817309D01*
X280568Y-6808368D01*
X282397Y-6804101D01*
X248615Y-6804101D01*
G37*
G36*
X11448491Y-6837984D02*
G01*
X11450370Y-6837273D01*
X11459565Y-6831939D01*
X11467744Y-6825234D01*
X11474805Y-6817309D01*
X11480444Y-6808368D01*
X11482273Y-6804101D01*
X11448491Y-6804101D01*
G37*
G36*
X11804091Y-6837984D02*
G01*
X11805970Y-6837273D01*
X11815165Y-6831939D01*
X11823344Y-6825234D01*
X11830405Y-6817309D01*
X11836044Y-6808368D01*
X11837873Y-6804101D01*
X11804091Y-6804101D01*
G37*
G36*
X551484Y-6837934D02*
G01*
X551484Y-6804101D01*
X517499Y-6804101D01*
X522173Y-6812940D01*
X528523Y-6821424D01*
X536194Y-6828739D01*
X544931Y-6834784D01*
G37*
G36*
X195884Y-6837934D02*
G01*
X195884Y-6804101D01*
X161899Y-6804101D01*
X166573Y-6812940D01*
X172923Y-6821424D01*
X180594Y-6828739D01*
X189331Y-6834784D01*
G37*
G36*
X11395760Y-6837934D02*
G01*
X11395760Y-6804101D01*
X11361775Y-6804101D01*
X11366449Y-6812940D01*
X11372799Y-6821424D01*
X11380470Y-6828739D01*
X11389207Y-6834784D01*
G37*
G36*
X11751360Y-6837934D02*
G01*
X11751360Y-6804101D01*
X11717375Y-6804101D01*
X11722049Y-6812940D01*
X11728399Y-6821424D01*
X11736070Y-6828739D01*
X11744807Y-6834784D01*
G37*
G36*
X339699Y-6823608D02*
G01*
X373684Y-6823608D01*
X373684Y-6800088D01*
X374548Y-6796024D01*
X376936Y-6792671D01*
X380492Y-6790537D01*
X384606Y-6789978D01*
X395274Y-6790791D01*
X414985Y-6790232D01*
X419252Y-6790588D01*
X422960Y-6792671D01*
X425500Y-6796125D01*
X426415Y-6800291D01*
X426415Y-6823608D01*
X460197Y-6823608D01*
X458368Y-6819341D01*
X452729Y-6810349D01*
X445211Y-6802018D01*
X442417Y-6798462D01*
X441451Y-6794093D01*
X442468Y-6789724D01*
X445312Y-6786168D01*
X449326Y-6784238D01*
X451764Y-6783679D01*
X469798Y-6777634D01*
X487121Y-6769811D01*
X503631Y-6760311D01*
X513334Y-6753301D01*
X516178Y-6751878D01*
X519277Y-6751370D01*
X551484Y-6751370D01*
X551484Y-6719163D01*
X552043Y-6715912D01*
X553567Y-6713016D01*
X557784Y-6707479D01*
X567690Y-6691223D01*
X575970Y-6674103D01*
X582472Y-6656222D01*
X584352Y-6648754D01*
X586282Y-6644894D01*
X589584Y-6642201D01*
X593750Y-6641084D01*
X597966Y-6641795D01*
X601522Y-6644233D01*
X606348Y-6649262D01*
X614832Y-6655612D01*
X623722Y-6660286D01*
X623722Y-6626301D01*
X600303Y-6626301D01*
X596290Y-6625488D01*
X592937Y-6623151D01*
X590804Y-6619646D01*
X590143Y-6615633D01*
X590956Y-6599936D01*
X590143Y-6584238D01*
X590804Y-6580225D01*
X592937Y-6576720D01*
X596290Y-6574383D01*
X600303Y-6573570D01*
X623722Y-6573570D01*
X623722Y-6539788D01*
X619455Y-6541617D01*
X610463Y-6547256D01*
X598525Y-6557670D01*
X594207Y-6558635D01*
X589838Y-6557670D01*
X586333Y-6554978D01*
X584352Y-6551015D01*
X582472Y-6543649D01*
X575970Y-6525768D01*
X567690Y-6508648D01*
X557784Y-6492392D01*
X553567Y-6486855D01*
X552043Y-6483959D01*
X551484Y-6480708D01*
X551484Y-6448501D01*
X519277Y-6448501D01*
X516178Y-6447993D01*
X513334Y-6446570D01*
X503631Y-6439560D01*
X487121Y-6430060D01*
X469798Y-6422237D01*
X451764Y-6416192D01*
X449326Y-6415633D01*
X445312Y-6413703D01*
X442468Y-6410147D01*
X441451Y-6405778D01*
X442417Y-6401409D01*
X445668Y-6397447D01*
X452729Y-6389522D01*
X458368Y-6380530D01*
X460197Y-6376263D01*
X426415Y-6376263D01*
X426415Y-6399580D01*
X425500Y-6403746D01*
X422960Y-6407200D01*
X419252Y-6409283D01*
X414324Y-6409588D01*
X395274Y-6409080D01*
X384606Y-6409893D01*
X380492Y-6409334D01*
X376936Y-6407200D01*
X374548Y-6403848D01*
X373684Y-6399784D01*
X373684Y-6376263D01*
X339699Y-6376263D01*
X344373Y-6385153D01*
X350723Y-6393637D01*
X355752Y-6398412D01*
X358140Y-6401968D01*
X358851Y-6406134D01*
X357835Y-6410248D01*
X355244Y-6413550D01*
X351485Y-6415532D01*
X339242Y-6418986D01*
X321513Y-6425946D01*
X304596Y-6434632D01*
X283972Y-6447891D01*
X280619Y-6448501D01*
X248615Y-6448501D01*
X248615Y-6480505D01*
X248158Y-6483502D01*
X246837Y-6486194D01*
X237185Y-6500418D01*
X228041Y-6517131D01*
X220675Y-6534657D01*
X215493Y-6551320D01*
X213360Y-6555130D01*
X209854Y-6557670D01*
X205587Y-6558483D01*
X201371Y-6557467D01*
X189636Y-6547256D01*
X180644Y-6541617D01*
X176377Y-6539788D01*
X176377Y-6573570D01*
X199847Y-6573570D01*
X203962Y-6574434D01*
X207365Y-6576923D01*
X209499Y-6580581D01*
X209956Y-6584746D01*
X209397Y-6590436D01*
X209397Y-6609435D01*
X209956Y-6615125D01*
X209499Y-6619290D01*
X207365Y-6622948D01*
X203962Y-6625437D01*
X199847Y-6626301D01*
X176377Y-6626301D01*
X176377Y-6660286D01*
X185267Y-6655612D01*
X193751Y-6649262D01*
X198424Y-6644335D01*
X201879Y-6641998D01*
X206044Y-6641236D01*
X210108Y-6642201D01*
X213461Y-6644741D01*
X215493Y-6648399D01*
X220675Y-6665214D01*
X228041Y-6682740D01*
X237185Y-6699453D01*
X246837Y-6713677D01*
X248158Y-6716369D01*
X248615Y-6719366D01*
X248615Y-6751370D01*
X280619Y-6751370D01*
X283972Y-6751980D01*
X304596Y-6765239D01*
X321513Y-6773925D01*
X339242Y-6780885D01*
X351485Y-6784340D01*
X355244Y-6786321D01*
X357835Y-6789623D01*
X358851Y-6793738D01*
X358140Y-6797903D01*
X355752Y-6801459D01*
X350723Y-6806234D01*
X344373Y-6814718D01*
G37*
G36*
X11539575Y-6823608D02*
G01*
X11573560Y-6823608D01*
X11573560Y-6800088D01*
X11574424Y-6796024D01*
X11576812Y-6792671D01*
X11580368Y-6790537D01*
X11584482Y-6789978D01*
X11595150Y-6790791D01*
X11614861Y-6790232D01*
X11619128Y-6790588D01*
X11622836Y-6792671D01*
X11625376Y-6796125D01*
X11626291Y-6800291D01*
X11626291Y-6823608D01*
X11660073Y-6823608D01*
X11658244Y-6819341D01*
X11652605Y-6810349D01*
X11645087Y-6802018D01*
X11642293Y-6798462D01*
X11641328Y-6794093D01*
X11642344Y-6789724D01*
X11645188Y-6786168D01*
X11649202Y-6784238D01*
X11651640Y-6783679D01*
X11669674Y-6777634D01*
X11686997Y-6769811D01*
X11703507Y-6760311D01*
X11713210Y-6753301D01*
X11716054Y-6751878D01*
X11719153Y-6751370D01*
X11751360Y-6751370D01*
X11751360Y-6719163D01*
X11751919Y-6715912D01*
X11753443Y-6713016D01*
X11757660Y-6707479D01*
X11767566Y-6691223D01*
X11775846Y-6674103D01*
X11782348Y-6656222D01*
X11784228Y-6648754D01*
X11786158Y-6644894D01*
X11789460Y-6642201D01*
X11793626Y-6641084D01*
X11797842Y-6641795D01*
X11801398Y-6644233D01*
X11806224Y-6649262D01*
X11814708Y-6655612D01*
X11823598Y-6660286D01*
X11823598Y-6626301D01*
X11800179Y-6626301D01*
X11796166Y-6625488D01*
X11792813Y-6623151D01*
X11790680Y-6619646D01*
X11790019Y-6615633D01*
X11790832Y-6599936D01*
X11790019Y-6584238D01*
X11790680Y-6580225D01*
X11792813Y-6576720D01*
X11796166Y-6574383D01*
X11800179Y-6573570D01*
X11823598Y-6573570D01*
X11823598Y-6539788D01*
X11819331Y-6541617D01*
X11810339Y-6547256D01*
X11798401Y-6557670D01*
X11794083Y-6558635D01*
X11789714Y-6557670D01*
X11786209Y-6554978D01*
X11784228Y-6551015D01*
X11782348Y-6543649D01*
X11775846Y-6525768D01*
X11767566Y-6508648D01*
X11757660Y-6492392D01*
X11753443Y-6486855D01*
X11751919Y-6483959D01*
X11751360Y-6480708D01*
X11751360Y-6448501D01*
X11719153Y-6448501D01*
X11716054Y-6447993D01*
X11713210Y-6446570D01*
X11703507Y-6439560D01*
X11686997Y-6430060D01*
X11669674Y-6422237D01*
X11651640Y-6416192D01*
X11649202Y-6415633D01*
X11645188Y-6413703D01*
X11642344Y-6410147D01*
X11641328Y-6405778D01*
X11642293Y-6401409D01*
X11645544Y-6397447D01*
X11652605Y-6389522D01*
X11658244Y-6380530D01*
X11660073Y-6376263D01*
X11626291Y-6376263D01*
X11626291Y-6399580D01*
X11625376Y-6403746D01*
X11622836Y-6407200D01*
X11619128Y-6409283D01*
X11614200Y-6409588D01*
X11595150Y-6409080D01*
X11584482Y-6409893D01*
X11580368Y-6409334D01*
X11576812Y-6407200D01*
X11574424Y-6403848D01*
X11573560Y-6399784D01*
X11573560Y-6376263D01*
X11539575Y-6376263D01*
X11544249Y-6385153D01*
X11550599Y-6393637D01*
X11555628Y-6398412D01*
X11558016Y-6401968D01*
X11558727Y-6406134D01*
X11557711Y-6410248D01*
X11555120Y-6413550D01*
X11551361Y-6415532D01*
X11539118Y-6418986D01*
X11521389Y-6425946D01*
X11504472Y-6434632D01*
X11483848Y-6447891D01*
X11480495Y-6448501D01*
X11448491Y-6448501D01*
X11448491Y-6480505D01*
X11448034Y-6483502D01*
X11446713Y-6486194D01*
X11437061Y-6500418D01*
X11427917Y-6517131D01*
X11420551Y-6534657D01*
X11415369Y-6551320D01*
X11413236Y-6555130D01*
X11409730Y-6557670D01*
X11405463Y-6558483D01*
X11401247Y-6557467D01*
X11389512Y-6547256D01*
X11380520Y-6541617D01*
X11376253Y-6539788D01*
X11376253Y-6573570D01*
X11399723Y-6573570D01*
X11403838Y-6574434D01*
X11407241Y-6576923D01*
X11409375Y-6580581D01*
X11409832Y-6584746D01*
X11409273Y-6590436D01*
X11409273Y-6609435D01*
X11409832Y-6615125D01*
X11409375Y-6619290D01*
X11407241Y-6622948D01*
X11403838Y-6625437D01*
X11399723Y-6626301D01*
X11376253Y-6626301D01*
X11376253Y-6660286D01*
X11385143Y-6655612D01*
X11393627Y-6649262D01*
X11398300Y-6644335D01*
X11401755Y-6641998D01*
X11405920Y-6641236D01*
X11409984Y-6642201D01*
X11413337Y-6644741D01*
X11415369Y-6648399D01*
X11420551Y-6665214D01*
X11427917Y-6682740D01*
X11437061Y-6699453D01*
X11446713Y-6713677D01*
X11448034Y-6716369D01*
X11448491Y-6719366D01*
X11448491Y-6751370D01*
X11480495Y-6751370D01*
X11483848Y-6751980D01*
X11504472Y-6765239D01*
X11521389Y-6773925D01*
X11539118Y-6780885D01*
X11551361Y-6784340D01*
X11555120Y-6786321D01*
X11557711Y-6789623D01*
X11558727Y-6793738D01*
X11558016Y-6797903D01*
X11555628Y-6801459D01*
X11550599Y-6806234D01*
X11544249Y-6814718D01*
G37*
G36*
X604215Y-6751370D02*
G01*
X637997Y-6751370D01*
X636168Y-6747103D01*
X630529Y-6738162D01*
X623468Y-6730238D01*
X615289Y-6723532D01*
X606094Y-6718198D01*
X604215Y-6717487D01*
G37*
G36*
X11804091Y-6751370D02*
G01*
X11837873Y-6751370D01*
X11836044Y-6747103D01*
X11830405Y-6738162D01*
X11823344Y-6730238D01*
X11815165Y-6723532D01*
X11805970Y-6718198D01*
X11804091Y-6717487D01*
G37*
G36*
X161899Y-6751370D02*
G01*
X195884Y-6751370D01*
X195884Y-6717538D01*
X189331Y-6720687D01*
X180594Y-6726732D01*
X172923Y-6734048D01*
X166573Y-6742531D01*
G37*
G36*
X11361775Y-6751370D02*
G01*
X11395760Y-6751370D01*
X11395760Y-6717538D01*
X11389207Y-6720687D01*
X11380470Y-6726732D01*
X11372799Y-6734048D01*
X11366449Y-6742531D01*
G37*
G36*
X4000195Y-6721805D02*
G01*
X4199026Y-6721805D01*
X4205376Y-6721094D01*
X4210812Y-6719163D01*
X4215739Y-6716115D01*
X4219803Y-6712000D01*
X4222902Y-6707124D01*
X4224782Y-6701637D01*
X4225493Y-6695338D01*
X4225493Y-6496456D01*
X4224782Y-6490157D01*
X4222902Y-6484670D01*
X4219803Y-6479794D01*
X4216095Y-6476085D01*
X4213910Y-6472783D01*
X4213148Y-6468922D01*
X4213910Y-6465011D01*
X4216095Y-6461709D01*
X4219803Y-6458000D01*
X4222902Y-6453124D01*
X4224782Y-6447637D01*
X4225493Y-6441338D01*
X4225493Y-6242456D01*
X4224782Y-6236157D01*
X4222902Y-6230670D01*
X4219803Y-6225794D01*
X4215739Y-6221679D01*
X4210812Y-6218631D01*
X4205376Y-6216700D01*
X4199026Y-6215989D01*
X4000195Y-6215989D01*
X3993845Y-6216700D01*
X3988409Y-6218631D01*
X3983482Y-6221679D01*
X3979418Y-6225794D01*
X3976319Y-6230670D01*
X3974388Y-6236157D01*
X3973677Y-6242456D01*
X3973677Y-6441338D01*
X3974388Y-6447637D01*
X3976319Y-6453124D01*
X3979418Y-6458000D01*
X3983075Y-6461709D01*
X3985310Y-6465011D01*
X3986072Y-6468922D01*
X3985310Y-6472783D01*
X3983075Y-6476085D01*
X3979418Y-6479794D01*
X3976319Y-6484670D01*
X3974388Y-6490157D01*
X3973677Y-6496456D01*
X3973677Y-6695338D01*
X3974388Y-6701637D01*
X3976319Y-6707124D01*
X3979418Y-6712000D01*
X3983482Y-6716115D01*
X3988409Y-6719163D01*
X3993845Y-6721094D01*
G37*
G36*
X5910173Y-6721805D02*
G01*
X6109004Y-6721805D01*
X6115354Y-6721094D01*
X6120790Y-6719163D01*
X6125718Y-6716115D01*
X6129782Y-6712000D01*
X6132880Y-6707124D01*
X6134811Y-6701637D01*
X6135522Y-6695338D01*
X6135522Y-6496456D01*
X6134811Y-6490157D01*
X6132880Y-6484670D01*
X6129782Y-6479794D01*
X6126124Y-6476085D01*
X6123889Y-6472783D01*
X6123127Y-6468922D01*
X6123889Y-6465011D01*
X6126124Y-6461709D01*
X6129782Y-6458000D01*
X6132880Y-6453124D01*
X6134811Y-6447637D01*
X6135522Y-6441338D01*
X6135522Y-6242456D01*
X6134811Y-6236157D01*
X6132880Y-6230670D01*
X6129782Y-6225794D01*
X6125718Y-6221679D01*
X6120790Y-6218631D01*
X6115354Y-6216700D01*
X6109004Y-6215989D01*
X6061913Y-6215989D01*
X6058763Y-6215481D01*
X5941923Y-6177381D01*
X5939790Y-6176365D01*
X5937910Y-6174892D01*
X5672988Y-5909970D01*
X5664809Y-5903010D01*
X5656021Y-5897626D01*
X5646470Y-5893663D01*
X5636412Y-5891225D01*
X5625693Y-5890412D01*
X4158996Y-5890412D01*
X4155135Y-5889599D01*
X4151833Y-5887415D01*
X3548684Y-5284266D01*
X3546500Y-5280964D01*
X3545687Y-5277104D01*
X3545687Y-4471263D01*
X3546297Y-4467860D01*
X3562096Y-4423562D01*
X3563264Y-4421327D01*
X3571494Y-4409033D01*
X3577640Y-4396638D01*
X3582060Y-4383481D01*
X3584803Y-4369917D01*
X3585667Y-4356100D01*
X3584803Y-4342282D01*
X3582060Y-4328718D01*
X3577640Y-4315561D01*
X3571494Y-4303166D01*
X3563823Y-4291634D01*
X3554679Y-4281220D01*
X3544265Y-4272076D01*
X3532733Y-4264406D01*
X3520338Y-4258259D01*
X3507181Y-4253839D01*
X3493617Y-4251096D01*
X3479800Y-4250232D01*
X3465982Y-4251096D01*
X3452418Y-4253839D01*
X3439261Y-4258259D01*
X3426866Y-4264406D01*
X3415334Y-4272076D01*
X3404920Y-4281220D01*
X3395776Y-4291634D01*
X3388106Y-4303166D01*
X3381959Y-4315561D01*
X3377539Y-4328718D01*
X3374796Y-4342282D01*
X3373932Y-4356100D01*
X3374796Y-4369917D01*
X3377539Y-4383481D01*
X3381959Y-4396638D01*
X3388106Y-4409033D01*
X3396335Y-4421327D01*
X3397504Y-4423562D01*
X3413302Y-4467860D01*
X3413912Y-4471263D01*
X3413912Y-5308193D01*
X3414725Y-5318912D01*
X3417163Y-5328970D01*
X3421126Y-5338521D01*
X3426510Y-5347309D01*
X3433470Y-5355488D01*
X4080611Y-6002629D01*
X4088790Y-6009589D01*
X4097578Y-6014974D01*
X4107129Y-6018936D01*
X4117187Y-6021374D01*
X4127906Y-6022187D01*
X5594604Y-6022187D01*
X5598464Y-6023000D01*
X5601766Y-6025184D01*
X5842812Y-6266180D01*
X5845200Y-6270091D01*
X5883148Y-6380683D01*
X5883706Y-6383985D01*
X5883706Y-6441338D01*
X5884418Y-6447637D01*
X5886297Y-6453124D01*
X5889396Y-6458000D01*
X5893104Y-6461709D01*
X5895289Y-6465011D01*
X5896051Y-6468922D01*
X5895289Y-6472783D01*
X5893104Y-6476085D01*
X5889396Y-6479794D01*
X5886297Y-6484670D01*
X5884418Y-6490157D01*
X5883706Y-6496456D01*
X5883706Y-6695338D01*
X5884418Y-6701637D01*
X5886297Y-6707124D01*
X5889396Y-6712000D01*
X5893511Y-6716115D01*
X5898388Y-6719163D01*
X5903823Y-6721094D01*
G37*
G36*
X676402Y-6660286D02*
G01*
X685241Y-6655612D01*
X693724Y-6649262D01*
X701090Y-6641592D01*
X707085Y-6632854D01*
X710234Y-6626301D01*
X676402Y-6626301D01*
G37*
G36*
X123698Y-6660286D02*
G01*
X123698Y-6626301D01*
X89865Y-6626301D01*
X93014Y-6632854D01*
X99009Y-6641592D01*
X106375Y-6649262D01*
X114858Y-6655612D01*
G37*
G36*
X11876278Y-6660286D02*
G01*
X11885117Y-6655612D01*
X11893600Y-6649262D01*
X11900966Y-6641592D01*
X11906961Y-6632854D01*
X11910110Y-6626301D01*
X11876278Y-6626301D01*
G37*
G36*
X11323574Y-6660286D02*
G01*
X11323574Y-6626301D01*
X11289741Y-6626301D01*
X11292890Y-6632854D01*
X11298885Y-6641592D01*
X11306251Y-6649262D01*
X11314734Y-6655612D01*
G37*
G36*
X10376458Y-6617208D02*
G01*
X10527741Y-6617208D01*
X10534040Y-6616496D01*
X10539526Y-6614566D01*
X10544403Y-6611518D01*
X10548518Y-6607403D01*
X10551566Y-6602526D01*
X10553496Y-6597040D01*
X10554208Y-6590741D01*
X10554208Y-6439458D01*
X10553496Y-6433159D01*
X10551566Y-6427673D01*
X10548518Y-6422796D01*
X10544403Y-6418681D01*
X10539526Y-6415633D01*
X10534040Y-6413703D01*
X10527741Y-6412992D01*
X10376458Y-6412992D01*
X10370159Y-6413703D01*
X10364673Y-6415633D01*
X10359796Y-6418681D01*
X10355681Y-6422796D01*
X10352633Y-6427673D01*
X10350703Y-6433159D01*
X10349992Y-6439458D01*
X10349992Y-6590741D01*
X10350703Y-6597040D01*
X10352633Y-6602526D01*
X10355681Y-6607403D01*
X10359796Y-6611518D01*
X10364673Y-6614566D01*
X10370159Y-6616496D01*
G37*
G36*
X9940696Y-6617106D02*
G01*
X9954310Y-6616649D01*
X9967772Y-6614414D01*
X9980777Y-6610350D01*
X9993172Y-6604609D01*
X10004653Y-6597294D01*
X10015067Y-6588506D01*
X10024211Y-6578346D01*
X10031933Y-6567119D01*
X10038080Y-6554978D01*
X10042550Y-6542074D01*
X10045293Y-6528714D01*
X10046208Y-6515100D01*
X10045293Y-6501485D01*
X10042550Y-6488125D01*
X10038080Y-6475222D01*
X10031933Y-6463080D01*
X10024211Y-6451854D01*
X10015067Y-6441694D01*
X10004653Y-6432905D01*
X9993172Y-6425590D01*
X9980777Y-6419850D01*
X9967772Y-6415786D01*
X9954310Y-6413550D01*
X9940696Y-6413093D01*
X9927132Y-6414414D01*
X9913874Y-6417614D01*
X9901123Y-6422491D01*
X9889185Y-6429044D01*
X9878212Y-6437122D01*
X9868408Y-6446621D01*
X9859924Y-6457340D01*
X9852964Y-6469075D01*
X9847681Y-6481622D01*
X9844074Y-6494780D01*
X9842246Y-6508292D01*
X9842246Y-6521907D01*
X9844074Y-6535420D01*
X9847681Y-6548577D01*
X9852964Y-6561124D01*
X9859924Y-6572859D01*
X9868408Y-6583578D01*
X9878212Y-6593078D01*
X9889185Y-6601155D01*
X9901123Y-6607708D01*
X9913874Y-6612585D01*
X9927132Y-6615785D01*
G37*
G36*
X10194696Y-6617106D02*
G01*
X10208310Y-6616649D01*
X10221772Y-6614414D01*
X10234777Y-6610350D01*
X10247172Y-6604609D01*
X10258653Y-6597294D01*
X10269067Y-6588506D01*
X10278211Y-6578346D01*
X10285933Y-6567119D01*
X10292080Y-6554978D01*
X10296550Y-6542074D01*
X10299293Y-6528714D01*
X10300208Y-6515100D01*
X10299293Y-6501485D01*
X10296550Y-6488125D01*
X10292080Y-6475222D01*
X10285933Y-6463080D01*
X10278211Y-6451854D01*
X10269067Y-6441694D01*
X10258653Y-6432905D01*
X10247172Y-6425590D01*
X10234777Y-6419850D01*
X10221772Y-6415786D01*
X10208310Y-6413550D01*
X10194696Y-6413093D01*
X10181132Y-6414414D01*
X10167213Y-6417818D01*
X10163403Y-6418529D01*
X10159593Y-6417716D01*
X10156393Y-6415532D01*
X10114991Y-6374130D01*
X10112806Y-6370828D01*
X10111994Y-6366967D01*
X10111994Y-5962497D01*
X10112756Y-5958636D01*
X10114940Y-5955334D01*
X10118191Y-5953150D01*
X10122052Y-5952337D01*
X10125913Y-5953048D01*
X10129215Y-5955182D01*
X10132212Y-5958078D01*
X10143185Y-5966155D01*
X10155123Y-5972708D01*
X10167874Y-5977585D01*
X10181132Y-5980785D01*
X10194696Y-5982106D01*
X10208310Y-5981649D01*
X10221772Y-5979414D01*
X10234777Y-5975350D01*
X10247172Y-5969609D01*
X10258653Y-5962294D01*
X10269067Y-5953506D01*
X10278211Y-5943346D01*
X10285933Y-5932119D01*
X10292080Y-5919978D01*
X10296550Y-5907074D01*
X10299293Y-5893714D01*
X10300208Y-5880100D01*
X10299293Y-5866485D01*
X10296550Y-5853125D01*
X10292080Y-5840222D01*
X10285933Y-5828080D01*
X10278211Y-5816854D01*
X10269067Y-5806694D01*
X10258653Y-5797905D01*
X10247172Y-5790590D01*
X10234777Y-5784850D01*
X10221772Y-5780786D01*
X10208310Y-5778550D01*
X10194696Y-5778093D01*
X10181132Y-5779414D01*
X10167874Y-5782614D01*
X10155123Y-5787491D01*
X10143185Y-5794044D01*
X10132212Y-5802122D01*
X10129215Y-5805017D01*
X10125913Y-5807151D01*
X10122052Y-5807862D01*
X10118191Y-5807049D01*
X10114940Y-5804865D01*
X10112756Y-5801563D01*
X10111994Y-5797702D01*
X10111994Y-5596432D01*
X10112806Y-5592572D01*
X10114991Y-5589270D01*
X10276281Y-5427980D01*
X10279126Y-5425998D01*
X10282478Y-5425033D01*
X10285933Y-5425287D01*
X10290352Y-5426405D01*
X10305034Y-5428234D01*
X10319766Y-5428234D01*
X10334447Y-5426405D01*
X10348722Y-5422849D01*
X10362488Y-5417515D01*
X10375493Y-5410504D01*
X10387533Y-5401970D01*
X10398455Y-5392064D01*
X10408056Y-5380837D01*
X10416184Y-5368544D01*
X10422788Y-5355336D01*
X10427716Y-5341416D01*
X10430865Y-5326989D01*
X10432237Y-5312308D01*
X10431780Y-5297525D01*
X10429494Y-5282946D01*
X10425430Y-5268772D01*
X10419689Y-5255158D01*
X10412323Y-5242407D01*
X10403433Y-5230622D01*
X10393172Y-5220004D01*
X10381640Y-5210759D01*
X10369092Y-5202986D01*
X10355681Y-5196840D01*
X10341660Y-5192369D01*
X10327132Y-5189626D01*
X10312400Y-5188712D01*
X10297668Y-5189626D01*
X10283139Y-5192369D01*
X10269118Y-5196840D01*
X10255707Y-5202986D01*
X10243159Y-5210759D01*
X10231628Y-5220004D01*
X10221366Y-5230622D01*
X10212476Y-5242407D01*
X10205110Y-5255158D01*
X10199370Y-5268772D01*
X10195306Y-5282946D01*
X10193020Y-5297525D01*
X10192613Y-5312308D01*
X10193934Y-5326989D01*
X10197084Y-5341416D01*
X10202011Y-5355285D01*
X10209174Y-5369509D01*
X10210241Y-5373573D01*
X10209580Y-5377738D01*
X10207294Y-5381294D01*
X10042550Y-5546039D01*
X10037114Y-5552592D01*
X10033355Y-5559653D01*
X10031018Y-5567324D01*
X10030206Y-5575808D01*
X10030206Y-5797600D01*
X10029494Y-5801360D01*
X10027412Y-5804611D01*
X10024313Y-5806846D01*
X10020604Y-5807760D01*
X10016794Y-5807252D01*
X10013492Y-5805373D01*
X10004653Y-5797905D01*
X9993172Y-5790590D01*
X9980777Y-5784850D01*
X9967772Y-5780786D01*
X9954310Y-5778550D01*
X9940696Y-5778093D01*
X9927132Y-5779414D01*
X9913874Y-5782614D01*
X9901123Y-5787491D01*
X9889185Y-5794044D01*
X9878212Y-5802122D01*
X9868408Y-5811621D01*
X9859924Y-5822340D01*
X9852964Y-5834075D01*
X9847681Y-5846622D01*
X9844074Y-5859780D01*
X9842246Y-5873292D01*
X9842246Y-5886907D01*
X9844074Y-5900420D01*
X9847224Y-5911900D01*
X9847529Y-5915406D01*
X9846614Y-5918860D01*
X9844582Y-5921756D01*
X9587230Y-6179108D01*
X9583928Y-6181344D01*
X9580067Y-6182106D01*
X8945829Y-6182106D01*
X8941968Y-6181344D01*
X8938666Y-6179159D01*
X8936482Y-6175908D01*
X8933789Y-6169558D01*
X8926423Y-6156807D01*
X8917533Y-6145022D01*
X8907272Y-6134404D01*
X8895740Y-6125159D01*
X8883192Y-6117386D01*
X8869781Y-6111240D01*
X8855760Y-6106769D01*
X8841232Y-6104026D01*
X8826500Y-6103112D01*
X8811768Y-6104026D01*
X8797239Y-6106769D01*
X8783218Y-6111240D01*
X8769807Y-6117386D01*
X8757259Y-6125159D01*
X8745728Y-6134404D01*
X8735466Y-6145022D01*
X8726576Y-6156807D01*
X8719210Y-6169558D01*
X8713470Y-6183172D01*
X8709253Y-6197803D01*
X8707221Y-6201664D01*
X8703767Y-6204254D01*
X8699500Y-6205220D01*
X8695232Y-6204254D01*
X8691778Y-6201664D01*
X8689746Y-6197803D01*
X8685530Y-6183172D01*
X8679789Y-6169558D01*
X8672423Y-6156807D01*
X8663533Y-6145022D01*
X8653272Y-6134404D01*
X8641740Y-6125159D01*
X8629192Y-6117386D01*
X8615781Y-6111240D01*
X8601760Y-6106769D01*
X8587232Y-6104026D01*
X8572500Y-6103112D01*
X8557768Y-6104026D01*
X8543239Y-6106769D01*
X8529218Y-6111240D01*
X8515807Y-6117386D01*
X8503259Y-6125159D01*
X8491728Y-6134404D01*
X8481466Y-6145022D01*
X8472576Y-6156807D01*
X8465210Y-6169558D01*
X8459470Y-6183172D01*
X8455253Y-6197803D01*
X8453221Y-6201664D01*
X8449767Y-6204254D01*
X8445500Y-6205220D01*
X8441232Y-6204254D01*
X8437778Y-6201664D01*
X8435746Y-6197803D01*
X8431530Y-6183172D01*
X8425789Y-6169558D01*
X8418423Y-6156807D01*
X8409533Y-6145022D01*
X8399272Y-6134404D01*
X8387740Y-6125159D01*
X8375192Y-6117386D01*
X8361781Y-6111240D01*
X8347760Y-6106769D01*
X8333231Y-6104026D01*
X8318500Y-6103112D01*
X8303768Y-6104026D01*
X8289239Y-6106769D01*
X8275218Y-6111240D01*
X8261807Y-6117386D01*
X8249259Y-6125159D01*
X8237728Y-6134404D01*
X8227466Y-6145022D01*
X8218576Y-6156807D01*
X8211210Y-6169558D01*
X8205470Y-6183172D01*
X8201406Y-6197346D01*
X8199120Y-6211925D01*
X8198713Y-6226708D01*
X8200034Y-6241389D01*
X8203184Y-6255816D01*
X8208111Y-6269736D01*
X8214715Y-6282944D01*
X8222843Y-6295237D01*
X8232444Y-6306464D01*
X8243366Y-6316370D01*
X8255406Y-6324904D01*
X8268411Y-6331915D01*
X8282178Y-6337249D01*
X8296452Y-6340805D01*
X8311134Y-6342634D01*
X8325866Y-6342634D01*
X8340547Y-6340805D01*
X8354822Y-6337249D01*
X8368588Y-6331915D01*
X8381593Y-6324904D01*
X8393633Y-6316370D01*
X8404555Y-6306464D01*
X8414156Y-6295237D01*
X8422284Y-6282944D01*
X8428888Y-6269736D01*
X8433816Y-6255816D01*
X8435594Y-6247688D01*
X8437118Y-6244082D01*
X8439912Y-6241338D01*
X8443569Y-6239865D01*
X8447430Y-6239865D01*
X8451088Y-6241338D01*
X8453882Y-6244082D01*
X8455406Y-6247688D01*
X8457184Y-6255816D01*
X8462111Y-6269736D01*
X8468715Y-6282944D01*
X8476843Y-6295237D01*
X8486444Y-6306464D01*
X8497366Y-6316370D01*
X8509406Y-6324904D01*
X8522411Y-6331915D01*
X8536178Y-6337249D01*
X8550452Y-6340805D01*
X8565134Y-6342634D01*
X8579866Y-6342634D01*
X8594547Y-6340805D01*
X8608822Y-6337249D01*
X8622588Y-6331915D01*
X8635593Y-6324904D01*
X8647633Y-6316370D01*
X8658555Y-6306464D01*
X8668156Y-6295237D01*
X8676284Y-6282944D01*
X8682888Y-6269736D01*
X8687816Y-6255816D01*
X8689594Y-6247688D01*
X8691118Y-6244082D01*
X8693912Y-6241338D01*
X8697569Y-6239865D01*
X8701430Y-6239865D01*
X8705088Y-6241338D01*
X8707882Y-6244082D01*
X8709406Y-6247688D01*
X8711184Y-6255816D01*
X8716111Y-6269736D01*
X8722715Y-6282944D01*
X8730843Y-6295237D01*
X8740444Y-6306464D01*
X8751366Y-6316370D01*
X8763406Y-6324904D01*
X8776411Y-6331915D01*
X8790178Y-6337249D01*
X8804452Y-6340805D01*
X8819134Y-6342634D01*
X8833866Y-6342634D01*
X8848547Y-6340805D01*
X8862822Y-6337249D01*
X8876588Y-6331915D01*
X8889593Y-6324904D01*
X8901633Y-6316370D01*
X8912555Y-6306464D01*
X8922156Y-6295237D01*
X8930284Y-6282944D01*
X8936990Y-6269532D01*
X8939225Y-6266535D01*
X8942425Y-6264605D01*
X8946083Y-6263894D01*
X9600692Y-6263894D01*
X9609175Y-6263081D01*
X9616846Y-6260744D01*
X9623907Y-6256985D01*
X9630460Y-6251549D01*
X9902393Y-5979668D01*
X9905593Y-5977483D01*
X9909403Y-5976670D01*
X9927132Y-5980785D01*
X9940696Y-5982106D01*
X9954310Y-5981649D01*
X9967772Y-5979414D01*
X9980777Y-5975350D01*
X9993172Y-5969609D01*
X10004653Y-5962294D01*
X10013492Y-5954826D01*
X10016794Y-5952947D01*
X10020604Y-5952439D01*
X10024313Y-5953353D01*
X10027412Y-5955588D01*
X10029494Y-5958840D01*
X10030206Y-5962599D01*
X10030206Y-6387592D01*
X10031018Y-6396075D01*
X10033355Y-6403746D01*
X10037114Y-6410807D01*
X10042550Y-6417360D01*
X10098582Y-6473444D01*
X10100614Y-6476339D01*
X10101529Y-6479794D01*
X10101224Y-6483299D01*
X10098074Y-6494780D01*
X10096246Y-6508292D01*
X10096246Y-6521907D01*
X10098074Y-6535420D01*
X10101681Y-6548577D01*
X10106964Y-6561124D01*
X10113924Y-6572859D01*
X10122408Y-6583578D01*
X10132212Y-6593078D01*
X10143185Y-6601155D01*
X10155123Y-6607708D01*
X10167874Y-6612585D01*
X10181132Y-6615785D01*
G37*
G36*
X10661650Y-6606895D02*
G01*
X10661650Y-6559550D01*
X10614304Y-6559550D01*
X10614964Y-6561124D01*
X10621924Y-6572859D01*
X10630408Y-6583578D01*
X10640212Y-6593078D01*
X10651185Y-6601155D01*
G37*
G36*
X10750550Y-6606743D02*
G01*
X10755172Y-6604609D01*
X10766653Y-6597294D01*
X10777067Y-6588506D01*
X10786211Y-6578346D01*
X10793933Y-6567119D01*
X10797743Y-6559550D01*
X10750550Y-6559550D01*
G37*
G36*
X89814Y-6573570D02*
G01*
X123698Y-6573570D01*
X123698Y-6539788D01*
X119430Y-6541617D01*
X110489Y-6547256D01*
X102565Y-6554317D01*
X95859Y-6562496D01*
X90525Y-6571691D01*
G37*
G36*
X676402Y-6573570D02*
G01*
X710285Y-6573570D01*
X709574Y-6571691D01*
X704240Y-6562496D01*
X697534Y-6554317D01*
X689610Y-6547256D01*
X680669Y-6541617D01*
X676402Y-6539788D01*
G37*
G36*
X11876278Y-6573570D02*
G01*
X11910161Y-6573570D01*
X11909450Y-6571691D01*
X11904116Y-6562496D01*
X11897410Y-6554317D01*
X11889486Y-6547256D01*
X11880545Y-6541617D01*
X11876278Y-6539788D01*
G37*
G36*
X11289690Y-6573570D02*
G01*
X11323574Y-6573570D01*
X11323574Y-6539788D01*
X11319306Y-6541617D01*
X11310366Y-6547256D01*
X11302441Y-6554317D01*
X11295735Y-6562496D01*
X11290401Y-6571691D01*
G37*
G36*
X604215Y-6482384D02*
G01*
X606094Y-6481673D01*
X615289Y-6476339D01*
X623468Y-6469634D01*
X630529Y-6461709D01*
X636168Y-6452768D01*
X637997Y-6448501D01*
X604215Y-6448501D01*
G37*
G36*
X11804091Y-6482384D02*
G01*
X11805970Y-6481673D01*
X11815165Y-6476339D01*
X11823344Y-6469634D01*
X11830405Y-6461709D01*
X11836044Y-6452768D01*
X11837873Y-6448501D01*
X11804091Y-6448501D01*
G37*
G36*
X195884Y-6482334D02*
G01*
X195884Y-6448501D01*
X161899Y-6448501D01*
X166573Y-6457340D01*
X172923Y-6465824D01*
X180594Y-6473139D01*
X189331Y-6479184D01*
G37*
G36*
X11395760Y-6482334D02*
G01*
X11395760Y-6448501D01*
X11361775Y-6448501D01*
X11366449Y-6457340D01*
X11372799Y-6465824D01*
X11380470Y-6473139D01*
X11389207Y-6479184D01*
G37*
G36*
X10750550Y-6470650D02*
G01*
X10797743Y-6470650D01*
X10793933Y-6463080D01*
X10786211Y-6451854D01*
X10777067Y-6441694D01*
X10766653Y-6432905D01*
X10755172Y-6425590D01*
X10750550Y-6423456D01*
G37*
G36*
X10614304Y-6470650D02*
G01*
X10661650Y-6470650D01*
X10661650Y-6423304D01*
X10651185Y-6429044D01*
X10640212Y-6437122D01*
X10630408Y-6446621D01*
X10621924Y-6457340D01*
X10614964Y-6469075D01*
G37*
G36*
X1130300Y-6409994D02*
G01*
X1150213Y-6409080D01*
X1169974Y-6406337D01*
X1189380Y-6401765D01*
X1208278Y-6395415D01*
X1226515Y-6387338D01*
X1243939Y-6377635D01*
X1260398Y-6366408D01*
X1275740Y-6353657D01*
X1289862Y-6339535D01*
X1302613Y-6324193D01*
X1313840Y-6307734D01*
X1323543Y-6290310D01*
X1331620Y-6272072D01*
X1337970Y-6253175D01*
X1342542Y-6233769D01*
X1345285Y-6214008D01*
X1346200Y-6193840D01*
X1346200Y-6074359D01*
X1345285Y-6054191D01*
X1342542Y-6034430D01*
X1337970Y-6015024D01*
X1331620Y-5996127D01*
X1323543Y-5977890D01*
X1313840Y-5960465D01*
X1302613Y-5944006D01*
X1289862Y-5928664D01*
X1275740Y-5914542D01*
X1260398Y-5901791D01*
X1243939Y-5890564D01*
X1226515Y-5880862D01*
X1208278Y-5872784D01*
X1189380Y-5866434D01*
X1169974Y-5861862D01*
X1150213Y-5859119D01*
X1130300Y-5858205D01*
X1110386Y-5859119D01*
X1090625Y-5861862D01*
X1071219Y-5866434D01*
X1052322Y-5872784D01*
X1034084Y-5880862D01*
X1016660Y-5890564D01*
X1000201Y-5901791D01*
X984859Y-5914542D01*
X970737Y-5928664D01*
X957986Y-5944006D01*
X946759Y-5960465D01*
X937056Y-5977890D01*
X928979Y-5996127D01*
X922629Y-6015024D01*
X918057Y-6034430D01*
X915314Y-6054191D01*
X914400Y-6074359D01*
X914400Y-6193840D01*
X915314Y-6214008D01*
X918057Y-6233769D01*
X922629Y-6253175D01*
X928979Y-6272072D01*
X937056Y-6290310D01*
X946759Y-6307734D01*
X957986Y-6324193D01*
X970737Y-6339535D01*
X984859Y-6353657D01*
X1000201Y-6366408D01*
X1016660Y-6377635D01*
X1034084Y-6387338D01*
X1052322Y-6395415D01*
X1071219Y-6401765D01*
X1090625Y-6406337D01*
X1110386Y-6409080D01*
G37*
G36*
X3289300Y-6409994D02*
G01*
X3309213Y-6409080D01*
X3328974Y-6406337D01*
X3348380Y-6401765D01*
X3367278Y-6395415D01*
X3385515Y-6387338D01*
X3402939Y-6377635D01*
X3419398Y-6366408D01*
X3434740Y-6353657D01*
X3448862Y-6339535D01*
X3461613Y-6324193D01*
X3472840Y-6307734D01*
X3482543Y-6290310D01*
X3490620Y-6272072D01*
X3496970Y-6253175D01*
X3501542Y-6233769D01*
X3504285Y-6214008D01*
X3505200Y-6193840D01*
X3505200Y-6074359D01*
X3504285Y-6054191D01*
X3501542Y-6034430D01*
X3496970Y-6015024D01*
X3490620Y-5996127D01*
X3482543Y-5977890D01*
X3472840Y-5960465D01*
X3461613Y-5944006D01*
X3448862Y-5928664D01*
X3434740Y-5914542D01*
X3419398Y-5901791D01*
X3402939Y-5890564D01*
X3385515Y-5880862D01*
X3367278Y-5872784D01*
X3348380Y-5866434D01*
X3328974Y-5861862D01*
X3309213Y-5859119D01*
X3289300Y-5858205D01*
X3269386Y-5859119D01*
X3249625Y-5861862D01*
X3230219Y-5866434D01*
X3211322Y-5872784D01*
X3193084Y-5880862D01*
X3175660Y-5890564D01*
X3159201Y-5901791D01*
X3143859Y-5914542D01*
X3129737Y-5928664D01*
X3116986Y-5944006D01*
X3105759Y-5960465D01*
X3096056Y-5977890D01*
X3087979Y-5996127D01*
X3081629Y-6015024D01*
X3077057Y-6034430D01*
X3074314Y-6054191D01*
X3073400Y-6074359D01*
X3073400Y-6193840D01*
X3074314Y-6214008D01*
X3077057Y-6233769D01*
X3081629Y-6253175D01*
X3087979Y-6272072D01*
X3096056Y-6290310D01*
X3105759Y-6307734D01*
X3116986Y-6324193D01*
X3129737Y-6339535D01*
X3143859Y-6353657D01*
X3159201Y-6366408D01*
X3175660Y-6377635D01*
X3193084Y-6387338D01*
X3211322Y-6395415D01*
X3230219Y-6401765D01*
X3249625Y-6406337D01*
X3269386Y-6409080D01*
G37*
G36*
X248615Y-6395770D02*
G01*
X282397Y-6395770D01*
X280568Y-6391503D01*
X274929Y-6382562D01*
X267868Y-6374638D01*
X259689Y-6367932D01*
X250494Y-6362598D01*
X248615Y-6361887D01*
G37*
G36*
X604215Y-6395770D02*
G01*
X637997Y-6395770D01*
X636168Y-6391503D01*
X630529Y-6382562D01*
X623468Y-6374638D01*
X615289Y-6367932D01*
X606094Y-6362598D01*
X604215Y-6361887D01*
G37*
G36*
X11804091Y-6395770D02*
G01*
X11837873Y-6395770D01*
X11836044Y-6391503D01*
X11830405Y-6382562D01*
X11823344Y-6374638D01*
X11815165Y-6367932D01*
X11805970Y-6362598D01*
X11804091Y-6361887D01*
G37*
G36*
X11448491Y-6395770D02*
G01*
X11482273Y-6395770D01*
X11480444Y-6391503D01*
X11474805Y-6382562D01*
X11467744Y-6374638D01*
X11459565Y-6367932D01*
X11450370Y-6362598D01*
X11448491Y-6361887D01*
G37*
G36*
X517499Y-6395770D02*
G01*
X551484Y-6395770D01*
X551484Y-6361938D01*
X544931Y-6365087D01*
X536194Y-6371132D01*
X528523Y-6378448D01*
X522173Y-6386931D01*
G37*
G36*
X161899Y-6395770D02*
G01*
X195884Y-6395770D01*
X195884Y-6361938D01*
X189331Y-6365087D01*
X180594Y-6371132D01*
X172923Y-6378448D01*
X166573Y-6386931D01*
G37*
G36*
X11361775Y-6395770D02*
G01*
X11395760Y-6395770D01*
X11395760Y-6361938D01*
X11389207Y-6365087D01*
X11380470Y-6371132D01*
X11372799Y-6378448D01*
X11366449Y-6386931D01*
G37*
G36*
X11717375Y-6395770D02*
G01*
X11751360Y-6395770D01*
X11751360Y-6361938D01*
X11744807Y-6365087D01*
X11736070Y-6371132D01*
X11728399Y-6378448D01*
X11722049Y-6386931D01*
G37*
G36*
X7549134Y-6342634D02*
G01*
X7563866Y-6342634D01*
X7578547Y-6340805D01*
X7592822Y-6337249D01*
X7606588Y-6331915D01*
X7619593Y-6324904D01*
X7631633Y-6316370D01*
X7642555Y-6306464D01*
X7652156Y-6295237D01*
X7660284Y-6282944D01*
X7666888Y-6269736D01*
X7671816Y-6255816D01*
X7673594Y-6247688D01*
X7675118Y-6244082D01*
X7677912Y-6241338D01*
X7681569Y-6239865D01*
X7685430Y-6239865D01*
X7689088Y-6241338D01*
X7691881Y-6244082D01*
X7693406Y-6247688D01*
X7695184Y-6255816D01*
X7700111Y-6269736D01*
X7706715Y-6282944D01*
X7714843Y-6295237D01*
X7724444Y-6306464D01*
X7735366Y-6316370D01*
X7747406Y-6324904D01*
X7760411Y-6331915D01*
X7774178Y-6337249D01*
X7788452Y-6340805D01*
X7803134Y-6342634D01*
X7817866Y-6342634D01*
X7832547Y-6340805D01*
X7846822Y-6337249D01*
X7860588Y-6331915D01*
X7873593Y-6324904D01*
X7885633Y-6316370D01*
X7896555Y-6306464D01*
X7906156Y-6295237D01*
X7914284Y-6282944D01*
X7920888Y-6269736D01*
X7925816Y-6255816D01*
X7928965Y-6241389D01*
X7930337Y-6226708D01*
X7929880Y-6211925D01*
X7927543Y-6197244D01*
X7923530Y-6183172D01*
X7917789Y-6169558D01*
X7910423Y-6156807D01*
X7901533Y-6145022D01*
X7891272Y-6134404D01*
X7879740Y-6125159D01*
X7867192Y-6117386D01*
X7853781Y-6111240D01*
X7839760Y-6106769D01*
X7825231Y-6104026D01*
X7810500Y-6103112D01*
X7795768Y-6104026D01*
X7781239Y-6106769D01*
X7767218Y-6111240D01*
X7753807Y-6117386D01*
X7741259Y-6125159D01*
X7729728Y-6134404D01*
X7719466Y-6145022D01*
X7710576Y-6156807D01*
X7703210Y-6169558D01*
X7697470Y-6183172D01*
X7693253Y-6197803D01*
X7691221Y-6201664D01*
X7687767Y-6204254D01*
X7683500Y-6205220D01*
X7679232Y-6204254D01*
X7675778Y-6201664D01*
X7673746Y-6197803D01*
X7669530Y-6183172D01*
X7663789Y-6169558D01*
X7656423Y-6156807D01*
X7647533Y-6145022D01*
X7637272Y-6134404D01*
X7625740Y-6125159D01*
X7613192Y-6117386D01*
X7599781Y-6111240D01*
X7585760Y-6106769D01*
X7571231Y-6104026D01*
X7556500Y-6103112D01*
X7541768Y-6104026D01*
X7527239Y-6106769D01*
X7513218Y-6111240D01*
X7499807Y-6117386D01*
X7487259Y-6125159D01*
X7475728Y-6134404D01*
X7465466Y-6145022D01*
X7456576Y-6156807D01*
X7449210Y-6169558D01*
X7443470Y-6183172D01*
X7439406Y-6197346D01*
X7437120Y-6211925D01*
X7436713Y-6226708D01*
X7438034Y-6241389D01*
X7441184Y-6255816D01*
X7446111Y-6269736D01*
X7452715Y-6282944D01*
X7460843Y-6295237D01*
X7470444Y-6306464D01*
X7481366Y-6316370D01*
X7493406Y-6324904D01*
X7506411Y-6331915D01*
X7520178Y-6337249D01*
X7534452Y-6340805D01*
G37*
G36*
X8011159Y-6330137D02*
G01*
X8011159Y-6276340D01*
X7957413Y-6276340D01*
X7960715Y-6282944D01*
X7968843Y-6295237D01*
X7978444Y-6306464D01*
X7989366Y-6316370D01*
X8001406Y-6324904D01*
G37*
G36*
X8117840Y-6330137D02*
G01*
X8127593Y-6324904D01*
X8139633Y-6316370D01*
X8150555Y-6306464D01*
X8160156Y-6295237D01*
X8168284Y-6282944D01*
X8171586Y-6276340D01*
X8117840Y-6276340D01*
G37*
G36*
X426415Y-6323584D02*
G01*
X460197Y-6323584D01*
X458368Y-6319316D01*
X452729Y-6310376D01*
X445668Y-6302451D01*
X437489Y-6295745D01*
X428294Y-6290411D01*
X426415Y-6289700D01*
G37*
G36*
X11626291Y-6323584D02*
G01*
X11660073Y-6323584D01*
X11658244Y-6319316D01*
X11652605Y-6310376D01*
X11645544Y-6302451D01*
X11637365Y-6295745D01*
X11628170Y-6290411D01*
X11626291Y-6289700D01*
G37*
G36*
X339699Y-6323584D02*
G01*
X373684Y-6323584D01*
X373684Y-6289751D01*
X367131Y-6292900D01*
X358394Y-6298895D01*
X350723Y-6306261D01*
X344373Y-6314744D01*
G37*
G36*
X11539575Y-6323584D02*
G01*
X11573560Y-6323584D01*
X11573560Y-6289751D01*
X11567007Y-6292900D01*
X11558270Y-6298895D01*
X11550599Y-6306261D01*
X11544249Y-6314744D01*
G37*
G36*
X8117840Y-6169660D02*
G01*
X8171840Y-6169660D01*
X8164423Y-6156807D01*
X8155533Y-6145022D01*
X8145272Y-6134404D01*
X8133740Y-6125159D01*
X8121192Y-6117386D01*
X8117840Y-6115862D01*
G37*
G36*
X7957159Y-6169660D02*
G01*
X8011159Y-6169660D01*
X8011159Y-6115862D01*
X8007807Y-6117386D01*
X7995259Y-6125159D01*
X7983728Y-6134404D01*
X7973466Y-6145022D01*
X7964576Y-6156807D01*
G37*
G36*
X10376458Y-5982208D02*
G01*
X10527741Y-5982208D01*
X10534040Y-5981496D01*
X10539526Y-5979566D01*
X10544403Y-5976518D01*
X10548518Y-5972403D01*
X10551566Y-5967526D01*
X10553496Y-5962040D01*
X10554208Y-5955741D01*
X10554208Y-5804458D01*
X10553496Y-5798159D01*
X10551566Y-5792673D01*
X10548518Y-5787796D01*
X10544403Y-5783681D01*
X10539526Y-5780633D01*
X10534040Y-5778703D01*
X10527741Y-5777992D01*
X10376458Y-5777992D01*
X10370159Y-5778703D01*
X10364673Y-5780633D01*
X10359796Y-5783681D01*
X10355681Y-5787796D01*
X10352633Y-5792673D01*
X10350703Y-5798159D01*
X10349992Y-5804458D01*
X10349992Y-5955741D01*
X10350703Y-5962040D01*
X10352633Y-5967526D01*
X10355681Y-5972403D01*
X10359796Y-5976518D01*
X10364673Y-5979566D01*
X10370159Y-5981496D01*
G37*
G36*
X10661650Y-5971895D02*
G01*
X10661650Y-5924550D01*
X10614304Y-5924550D01*
X10614964Y-5926124D01*
X10621924Y-5937859D01*
X10630408Y-5948578D01*
X10640212Y-5958078D01*
X10651185Y-5966155D01*
G37*
G36*
X10750550Y-5971743D02*
G01*
X10755172Y-5969609D01*
X10766653Y-5962294D01*
X10777067Y-5953506D01*
X10786211Y-5943346D01*
X10793933Y-5932119D01*
X10797743Y-5924550D01*
X10750550Y-5924550D01*
G37*
G36*
X10750550Y-5835650D02*
G01*
X10797743Y-5835650D01*
X10793933Y-5828080D01*
X10786211Y-5816854D01*
X10777067Y-5806694D01*
X10766653Y-5797905D01*
X10755172Y-5790590D01*
X10750550Y-5788456D01*
G37*
G36*
X10614304Y-5835650D02*
G01*
X10661650Y-5835650D01*
X10661650Y-5788304D01*
X10651185Y-5794044D01*
X10640212Y-5802122D01*
X10630408Y-5811621D01*
X10621924Y-5822340D01*
X10614964Y-5834075D01*
G37*
G36*
X4155948Y-5581548D02*
G01*
X4158081Y-5580583D01*
X4171137Y-5572709D01*
X4183075Y-5563311D01*
X4193844Y-5552592D01*
X4203192Y-5540603D01*
X4211066Y-5527598D01*
X4212031Y-5525465D01*
X4155948Y-5525465D01*
G37*
G36*
X6065926Y-5581548D02*
G01*
X6068110Y-5580583D01*
X6081115Y-5572709D01*
X6093053Y-5563311D01*
X6103823Y-5552592D01*
X6113221Y-5540603D01*
X6121044Y-5527598D01*
X6122060Y-5525465D01*
X6065926Y-5525465D01*
G37*
G36*
X5953252Y-5581548D02*
G01*
X5953252Y-5525465D01*
X5897168Y-5525465D01*
X5898134Y-5527598D01*
X5906008Y-5540603D01*
X5915355Y-5552592D01*
X5926124Y-5563311D01*
X5938062Y-5572709D01*
X5951118Y-5580583D01*
G37*
G36*
X4043273Y-5581548D02*
G01*
X4043273Y-5525465D01*
X3987139Y-5525465D01*
X3988155Y-5527598D01*
X3995978Y-5540603D01*
X4005376Y-5552592D01*
X4016146Y-5563311D01*
X4028084Y-5572709D01*
X4041089Y-5580583D01*
G37*
G36*
X1225702Y-5476646D02*
G01*
X1445107Y-5476646D01*
X1460601Y-5475681D01*
X1475536Y-5472938D01*
X1490065Y-5468416D01*
X1503883Y-5462168D01*
X1516938Y-5454345D01*
X1528876Y-5444947D01*
X1539646Y-5434228D01*
X1548993Y-5422239D01*
X1556867Y-5409234D01*
X1563116Y-5395366D01*
X1567637Y-5380837D01*
X1570380Y-5365902D01*
X1571294Y-5350713D01*
X1570380Y-5335524D01*
X1567637Y-5320588D01*
X1563116Y-5306060D01*
X1556867Y-5292242D01*
X1548993Y-5279186D01*
X1539646Y-5267248D01*
X1528876Y-5256479D01*
X1516938Y-5247132D01*
X1503883Y-5239258D01*
X1490065Y-5233009D01*
X1475536Y-5228488D01*
X1460601Y-5225745D01*
X1445107Y-5224830D01*
X1225702Y-5224830D01*
X1210208Y-5225745D01*
X1195273Y-5228488D01*
X1180744Y-5233009D01*
X1166876Y-5239258D01*
X1153871Y-5247132D01*
X1141933Y-5256479D01*
X1131163Y-5267248D01*
X1121816Y-5279186D01*
X1113942Y-5292242D01*
X1107694Y-5306060D01*
X1103172Y-5320588D01*
X1100429Y-5335524D01*
X1099515Y-5350713D01*
X1100429Y-5365902D01*
X1103172Y-5380837D01*
X1107694Y-5395366D01*
X1113942Y-5409234D01*
X1121816Y-5422239D01*
X1131163Y-5434228D01*
X1141933Y-5444947D01*
X1153871Y-5454345D01*
X1166876Y-5462168D01*
X1180744Y-5468416D01*
X1195273Y-5472938D01*
X1210208Y-5475681D01*
G37*
G36*
X10731500Y-5428488D02*
G01*
X10746232Y-5427573D01*
X10760760Y-5424830D01*
X10774781Y-5420360D01*
X10788192Y-5414213D01*
X10800740Y-5406440D01*
X10812272Y-5397195D01*
X10822533Y-5386578D01*
X10831423Y-5374792D01*
X10838789Y-5362041D01*
X10844530Y-5348427D01*
X10848594Y-5334254D01*
X10850880Y-5319674D01*
X10851337Y-5304891D01*
X10849965Y-5290210D01*
X10846816Y-5275783D01*
X10841888Y-5261864D01*
X10835284Y-5248656D01*
X10827156Y-5236362D01*
X10817555Y-5225135D01*
X10806633Y-5215229D01*
X10794593Y-5206695D01*
X10781588Y-5199684D01*
X10767822Y-5194350D01*
X10753547Y-5190794D01*
X10738866Y-5188966D01*
X10724134Y-5188966D01*
X10709452Y-5190794D01*
X10695178Y-5194350D01*
X10681411Y-5199684D01*
X10668406Y-5206695D01*
X10656366Y-5215229D01*
X10645444Y-5225135D01*
X10635843Y-5236362D01*
X10627715Y-5248656D01*
X10621111Y-5261864D01*
X10616184Y-5275783D01*
X10613034Y-5290210D01*
X10611713Y-5304891D01*
X10612120Y-5319674D01*
X10614406Y-5334254D01*
X10618470Y-5348427D01*
X10624210Y-5362041D01*
X10631576Y-5374792D01*
X10640466Y-5386578D01*
X10650728Y-5397195D01*
X10662259Y-5406440D01*
X10674807Y-5414213D01*
X10688218Y-5420360D01*
X10702239Y-5424830D01*
X10716768Y-5427573D01*
G37*
G36*
X5897168Y-5412740D02*
G01*
X5953252Y-5412740D01*
X5953252Y-5356656D01*
X5951118Y-5357622D01*
X5938062Y-5365496D01*
X5926124Y-5374894D01*
X5915355Y-5385612D01*
X5906008Y-5397601D01*
X5898134Y-5410606D01*
G37*
G36*
X3987139Y-5412740D02*
G01*
X4043273Y-5412740D01*
X4043273Y-5356656D01*
X4041089Y-5357622D01*
X4028084Y-5365496D01*
X4016146Y-5374894D01*
X4005376Y-5385612D01*
X3995978Y-5397601D01*
X3988155Y-5410606D01*
G37*
G36*
X6065926Y-5412740D02*
G01*
X6122060Y-5412740D01*
X6121044Y-5410606D01*
X6113221Y-5397601D01*
X6103823Y-5385612D01*
X6093053Y-5374894D01*
X6081115Y-5365496D01*
X6068110Y-5357622D01*
X6065926Y-5356656D01*
G37*
G36*
X4155948Y-5412740D02*
G01*
X4212031Y-5412740D01*
X4211066Y-5410606D01*
X4203192Y-5397601D01*
X4193844Y-5385612D01*
X4183075Y-5374894D01*
X4171137Y-5365496D01*
X4158081Y-5357622D01*
X4155948Y-5356656D01*
G37*
G36*
X4155948Y-5327548D02*
G01*
X4158081Y-5326583D01*
X4171137Y-5318709D01*
X4183075Y-5309362D01*
X4193844Y-5298592D01*
X4203192Y-5286603D01*
X4211066Y-5273598D01*
X4212031Y-5271465D01*
X4155948Y-5271465D01*
G37*
G36*
X6065926Y-5327548D02*
G01*
X6068110Y-5326583D01*
X6081115Y-5318709D01*
X6093053Y-5309362D01*
X6103823Y-5298592D01*
X6113221Y-5286603D01*
X6121044Y-5273598D01*
X6122060Y-5271465D01*
X6065926Y-5271465D01*
G37*
G36*
X5953252Y-5327548D02*
G01*
X5953252Y-5271465D01*
X5897168Y-5271465D01*
X5898134Y-5273598D01*
X5906008Y-5286603D01*
X5915355Y-5298592D01*
X5926124Y-5309362D01*
X5938062Y-5318709D01*
X5951118Y-5326583D01*
G37*
G36*
X4043273Y-5327548D02*
G01*
X4043273Y-5271465D01*
X3987139Y-5271465D01*
X3988155Y-5273598D01*
X3995978Y-5286603D01*
X4005376Y-5298592D01*
X4016146Y-5309362D01*
X4028084Y-5318709D01*
X4041089Y-5326583D01*
G37*
G36*
X7556500Y-5326888D02*
G01*
X7571231Y-5325973D01*
X7585760Y-5323230D01*
X7599781Y-5318760D01*
X7613192Y-5312613D01*
X7625740Y-5304840D01*
X7637272Y-5295595D01*
X7647533Y-5284978D01*
X7656423Y-5273192D01*
X7663789Y-5260441D01*
X7669530Y-5246827D01*
X7673746Y-5232196D01*
X7675778Y-5228336D01*
X7679232Y-5225745D01*
X7683500Y-5224780D01*
X7687767Y-5225745D01*
X7691221Y-5228336D01*
X7693253Y-5232196D01*
X7697470Y-5246827D01*
X7703210Y-5260441D01*
X7710576Y-5273192D01*
X7719466Y-5284978D01*
X7729728Y-5295595D01*
X7741259Y-5304840D01*
X7753807Y-5312613D01*
X7767218Y-5318760D01*
X7781239Y-5323230D01*
X7795768Y-5325973D01*
X7810500Y-5326888D01*
X7825231Y-5325973D01*
X7839760Y-5323230D01*
X7853781Y-5318760D01*
X7867192Y-5312613D01*
X7879740Y-5304840D01*
X7891272Y-5295595D01*
X7901533Y-5284978D01*
X7910423Y-5273192D01*
X7917789Y-5260441D01*
X7923530Y-5246827D01*
X7927594Y-5232654D01*
X7929880Y-5218074D01*
X7930337Y-5203291D01*
X7928965Y-5188610D01*
X7925816Y-5174183D01*
X7920888Y-5160264D01*
X7914284Y-5147056D01*
X7906156Y-5134762D01*
X7896555Y-5123535D01*
X7885633Y-5113629D01*
X7873593Y-5105095D01*
X7860588Y-5098084D01*
X7846822Y-5092750D01*
X7832547Y-5089194D01*
X7817866Y-5087366D01*
X7803134Y-5087366D01*
X7788452Y-5089194D01*
X7774178Y-5092750D01*
X7760411Y-5098084D01*
X7747406Y-5105095D01*
X7735366Y-5113629D01*
X7724444Y-5123535D01*
X7714843Y-5134762D01*
X7706715Y-5147056D01*
X7700111Y-5160264D01*
X7695184Y-5174183D01*
X7693406Y-5182311D01*
X7691881Y-5185918D01*
X7689088Y-5188661D01*
X7685430Y-5190134D01*
X7681569Y-5190134D01*
X7677912Y-5188661D01*
X7675118Y-5185918D01*
X7673594Y-5182311D01*
X7671816Y-5174183D01*
X7666888Y-5160264D01*
X7660284Y-5147056D01*
X7652156Y-5134762D01*
X7642555Y-5123535D01*
X7631633Y-5113629D01*
X7619593Y-5105095D01*
X7606588Y-5098084D01*
X7592822Y-5092750D01*
X7578547Y-5089194D01*
X7563866Y-5087366D01*
X7549134Y-5087366D01*
X7534452Y-5089194D01*
X7520178Y-5092750D01*
X7506411Y-5098084D01*
X7493406Y-5105095D01*
X7481366Y-5113629D01*
X7470444Y-5123535D01*
X7460843Y-5134762D01*
X7452715Y-5147056D01*
X7446111Y-5160264D01*
X7441184Y-5174183D01*
X7438034Y-5188610D01*
X7436713Y-5203291D01*
X7437120Y-5218074D01*
X7439406Y-5232654D01*
X7443470Y-5246827D01*
X7449210Y-5260441D01*
X7456576Y-5273192D01*
X7465466Y-5284978D01*
X7475728Y-5295595D01*
X7487259Y-5304840D01*
X7499807Y-5312613D01*
X7513218Y-5318760D01*
X7527239Y-5323230D01*
X7541768Y-5325973D01*
G37*
G36*
X8318500Y-5326888D02*
G01*
X8333231Y-5325973D01*
X8347760Y-5323230D01*
X8361781Y-5318760D01*
X8375192Y-5312613D01*
X8387740Y-5304840D01*
X8399272Y-5295595D01*
X8409533Y-5284978D01*
X8418423Y-5273192D01*
X8425789Y-5260441D01*
X8431530Y-5246827D01*
X8435746Y-5232196D01*
X8437778Y-5228336D01*
X8441232Y-5225745D01*
X8445500Y-5224780D01*
X8449767Y-5225745D01*
X8453221Y-5228336D01*
X8455253Y-5232196D01*
X8459470Y-5246827D01*
X8465210Y-5260441D01*
X8472576Y-5273192D01*
X8481466Y-5284978D01*
X8491728Y-5295595D01*
X8503259Y-5304840D01*
X8515807Y-5312613D01*
X8529218Y-5318760D01*
X8543239Y-5323230D01*
X8557768Y-5325973D01*
X8572500Y-5326888D01*
X8587232Y-5325973D01*
X8601760Y-5323230D01*
X8615781Y-5318760D01*
X8629192Y-5312613D01*
X8641740Y-5304840D01*
X8653272Y-5295595D01*
X8663533Y-5284978D01*
X8672423Y-5273192D01*
X8679789Y-5260441D01*
X8685530Y-5246827D01*
X8689746Y-5232196D01*
X8691778Y-5228336D01*
X8695232Y-5225745D01*
X8699500Y-5224780D01*
X8703767Y-5225745D01*
X8707221Y-5228336D01*
X8709253Y-5232196D01*
X8713470Y-5246827D01*
X8719210Y-5260441D01*
X8726576Y-5273192D01*
X8735466Y-5284978D01*
X8745728Y-5295595D01*
X8757259Y-5304840D01*
X8769807Y-5312613D01*
X8783218Y-5318760D01*
X8797239Y-5323230D01*
X8811768Y-5325973D01*
X8826500Y-5326888D01*
X8841232Y-5325973D01*
X8855760Y-5323230D01*
X8869781Y-5318760D01*
X8883192Y-5312613D01*
X8895740Y-5304840D01*
X8907272Y-5295595D01*
X8917533Y-5284978D01*
X8926423Y-5273192D01*
X8933789Y-5260441D01*
X8939530Y-5246827D01*
X8943594Y-5232654D01*
X8945880Y-5218074D01*
X8946337Y-5203291D01*
X8944965Y-5188610D01*
X8941816Y-5174183D01*
X8936888Y-5160264D01*
X8930284Y-5147056D01*
X8922156Y-5134762D01*
X8912555Y-5123535D01*
X8901633Y-5113629D01*
X8889593Y-5105095D01*
X8876588Y-5098084D01*
X8862822Y-5092750D01*
X8848547Y-5089194D01*
X8833866Y-5087366D01*
X8819134Y-5087366D01*
X8804452Y-5089194D01*
X8790178Y-5092750D01*
X8776411Y-5098084D01*
X8763406Y-5105095D01*
X8751366Y-5113629D01*
X8740444Y-5123535D01*
X8730843Y-5134762D01*
X8722715Y-5147056D01*
X8716111Y-5160264D01*
X8711184Y-5174183D01*
X8709406Y-5182311D01*
X8707882Y-5185918D01*
X8705088Y-5188661D01*
X8701430Y-5190134D01*
X8697569Y-5190134D01*
X8693912Y-5188661D01*
X8691118Y-5185918D01*
X8689594Y-5182311D01*
X8687816Y-5174183D01*
X8682888Y-5160264D01*
X8676284Y-5147056D01*
X8668156Y-5134762D01*
X8658555Y-5123535D01*
X8647633Y-5113629D01*
X8635593Y-5105095D01*
X8622588Y-5098084D01*
X8608822Y-5092750D01*
X8594547Y-5089194D01*
X8579866Y-5087366D01*
X8565134Y-5087366D01*
X8550452Y-5089194D01*
X8536178Y-5092750D01*
X8522411Y-5098084D01*
X8509406Y-5105095D01*
X8497366Y-5113629D01*
X8486444Y-5123535D01*
X8476843Y-5134762D01*
X8468715Y-5147056D01*
X8462111Y-5160264D01*
X8457184Y-5174183D01*
X8455406Y-5182311D01*
X8453882Y-5185918D01*
X8451088Y-5188661D01*
X8447430Y-5190134D01*
X8443569Y-5190134D01*
X8439912Y-5188661D01*
X8437118Y-5185918D01*
X8435594Y-5182311D01*
X8433816Y-5174183D01*
X8428888Y-5160264D01*
X8422284Y-5147056D01*
X8414156Y-5134762D01*
X8404555Y-5123535D01*
X8393633Y-5113629D01*
X8381593Y-5105095D01*
X8368588Y-5098084D01*
X8354822Y-5092750D01*
X8340547Y-5089194D01*
X8325866Y-5087366D01*
X8311134Y-5087366D01*
X8296452Y-5089194D01*
X8282178Y-5092750D01*
X8268411Y-5098084D01*
X8255406Y-5105095D01*
X8243366Y-5113629D01*
X8232444Y-5123535D01*
X8222843Y-5134762D01*
X8214715Y-5147056D01*
X8208111Y-5160264D01*
X8203184Y-5174183D01*
X8200034Y-5188610D01*
X8198713Y-5203291D01*
X8199120Y-5218074D01*
X8201456Y-5232755D01*
X8205470Y-5246827D01*
X8211210Y-5260441D01*
X8218576Y-5273192D01*
X8227466Y-5284978D01*
X8237728Y-5295595D01*
X8249259Y-5304840D01*
X8261807Y-5312613D01*
X8275218Y-5318760D01*
X8289239Y-5323230D01*
X8303768Y-5325973D01*
G37*
G36*
X8117840Y-5314137D02*
G01*
X8121192Y-5312613D01*
X8133740Y-5304840D01*
X8145272Y-5295595D01*
X8155533Y-5284978D01*
X8164423Y-5273192D01*
X8171840Y-5260340D01*
X8117840Y-5260340D01*
G37*
G36*
X8011159Y-5314137D02*
G01*
X8011159Y-5260340D01*
X7957159Y-5260340D01*
X7964576Y-5273192D01*
X7973466Y-5284978D01*
X7983728Y-5295595D01*
X7995259Y-5304840D01*
X8007807Y-5312613D01*
G37*
G36*
X6065926Y-5158740D02*
G01*
X6122060Y-5158740D01*
X6121044Y-5156606D01*
X6113221Y-5143601D01*
X6103823Y-5131612D01*
X6093053Y-5120894D01*
X6081115Y-5111496D01*
X6068110Y-5103622D01*
X6065926Y-5102656D01*
G37*
G36*
X4155948Y-5158740D02*
G01*
X4212031Y-5158740D01*
X4211066Y-5156606D01*
X4203192Y-5143601D01*
X4193844Y-5131612D01*
X4183075Y-5120894D01*
X4171137Y-5111496D01*
X4158081Y-5103622D01*
X4155948Y-5102656D01*
G37*
G36*
X5897168Y-5158740D02*
G01*
X5953252Y-5158740D01*
X5953252Y-5102656D01*
X5951118Y-5103622D01*
X5938062Y-5111496D01*
X5926124Y-5120894D01*
X5915355Y-5131612D01*
X5906008Y-5143601D01*
X5898134Y-5156606D01*
G37*
G36*
X3987139Y-5158740D02*
G01*
X4043273Y-5158740D01*
X4043273Y-5102656D01*
X4041089Y-5103622D01*
X4028084Y-5111496D01*
X4016146Y-5120894D01*
X4005376Y-5131612D01*
X3995978Y-5143601D01*
X3988155Y-5156606D01*
G37*
G36*
X8117840Y-5153660D02*
G01*
X8171586Y-5153660D01*
X8168284Y-5147056D01*
X8160156Y-5134762D01*
X8150555Y-5123535D01*
X8139633Y-5113629D01*
X8127593Y-5105095D01*
X8117840Y-5099862D01*
G37*
G36*
X7957413Y-5153660D02*
G01*
X8011159Y-5153660D01*
X8011159Y-5099862D01*
X8001406Y-5105095D01*
X7989366Y-5113629D01*
X7978444Y-5123535D01*
X7968843Y-5134762D01*
X7960715Y-5147056D01*
G37*
G36*
X1595475Y-5134152D02*
G01*
X1610614Y-5133238D01*
X1625600Y-5130495D01*
X1640078Y-5125974D01*
X1653946Y-5119725D01*
X1666951Y-5111851D01*
X1678939Y-5102504D01*
X1689658Y-5091734D01*
X1699056Y-5079796D01*
X1706930Y-5066741D01*
X1713179Y-5052923D01*
X1717700Y-5038394D01*
X1720443Y-5023459D01*
X1721357Y-5007965D01*
X1721357Y-4788560D01*
X1720443Y-4773066D01*
X1717700Y-4758131D01*
X1713179Y-4743602D01*
X1706930Y-4729784D01*
X1699056Y-4716729D01*
X1689658Y-4704791D01*
X1678939Y-4694021D01*
X1666951Y-4684674D01*
X1653946Y-4676800D01*
X1640078Y-4670552D01*
X1625600Y-4666030D01*
X1610614Y-4663287D01*
X1595475Y-4662373D01*
X1580286Y-4663287D01*
X1565300Y-4666030D01*
X1550822Y-4670552D01*
X1536954Y-4676800D01*
X1523949Y-4684674D01*
X1511960Y-4694021D01*
X1501241Y-4704791D01*
X1491843Y-4716729D01*
X1483969Y-4729784D01*
X1477721Y-4743602D01*
X1473200Y-4758131D01*
X1470456Y-4773066D01*
X1469542Y-4788560D01*
X1469542Y-5007965D01*
X1470456Y-5023459D01*
X1473200Y-5038394D01*
X1477721Y-5052923D01*
X1483969Y-5066741D01*
X1491843Y-5079796D01*
X1501241Y-5091734D01*
X1511960Y-5102504D01*
X1523949Y-5111851D01*
X1536954Y-5119725D01*
X1550822Y-5125974D01*
X1565300Y-5130495D01*
X1580286Y-5133238D01*
G37*
G36*
X1021791Y-5118252D02*
G01*
X1023924Y-5117287D01*
X1036929Y-5109413D01*
X1048918Y-5100015D01*
X1059637Y-5089296D01*
X1069035Y-5077307D01*
X1076909Y-5064302D01*
X1083157Y-5050434D01*
X1087678Y-5035905D01*
X1090422Y-5020970D01*
X1091234Y-5007152D01*
X1021791Y-5007152D01*
G37*
G36*
X909066Y-5118252D02*
G01*
X909066Y-5007152D01*
X839622Y-5007152D01*
X840435Y-5020970D01*
X843178Y-5035905D01*
X847699Y-5050434D01*
X853948Y-5064302D01*
X861821Y-5077307D01*
X871219Y-5089296D01*
X881938Y-5100015D01*
X893927Y-5109413D01*
X906932Y-5117287D01*
G37*
G36*
X9515195Y-4812944D02*
G01*
X9526727Y-4811572D01*
X9537954Y-4808524D01*
X9548571Y-4803749D01*
X9558274Y-4797450D01*
X9566960Y-4789728D01*
X9574377Y-4780737D01*
X9580321Y-4770780D01*
X9584639Y-4760010D01*
X9587280Y-4748682D01*
X9587687Y-4745075D01*
X9594088Y-4715408D01*
X9595104Y-4712716D01*
X9596831Y-4710379D01*
X9945370Y-4361891D01*
X9948672Y-4359706D01*
X9952532Y-4358894D01*
X10171277Y-4358894D01*
X10174782Y-4359503D01*
X10177830Y-4361281D01*
X10237063Y-4411268D01*
X10249306Y-4419904D01*
X10262311Y-4426915D01*
X10276078Y-4432249D01*
X10290352Y-4435805D01*
X10305034Y-4437634D01*
X10319766Y-4437634D01*
X10334447Y-4435805D01*
X10348722Y-4432249D01*
X10362488Y-4426915D01*
X10375493Y-4419904D01*
X10387533Y-4411370D01*
X10398455Y-4401464D01*
X10408056Y-4390237D01*
X10416184Y-4377944D01*
X10422788Y-4364736D01*
X10427716Y-4350816D01*
X10430865Y-4336389D01*
X10432237Y-4321708D01*
X10431780Y-4306925D01*
X10429494Y-4292346D01*
X10425430Y-4278172D01*
X10419689Y-4264558D01*
X10412323Y-4251807D01*
X10403433Y-4240022D01*
X10393172Y-4229404D01*
X10381640Y-4220159D01*
X10369092Y-4212386D01*
X10355681Y-4206240D01*
X10341660Y-4201769D01*
X10327132Y-4199026D01*
X10312400Y-4198112D01*
X10297668Y-4199026D01*
X10283139Y-4201769D01*
X10269118Y-4206240D01*
X10255707Y-4212386D01*
X10243159Y-4220159D01*
X10233050Y-4228134D01*
X10177830Y-4274718D01*
X10174782Y-4276496D01*
X10171277Y-4277106D01*
X9931908Y-4277106D01*
X9923424Y-4277918D01*
X9915753Y-4280255D01*
X9908692Y-4284014D01*
X9902139Y-4289450D01*
X9539020Y-4652568D01*
X9536684Y-4654296D01*
X9533991Y-4655312D01*
X9505442Y-4661509D01*
X9503613Y-4661712D01*
X9492183Y-4663948D01*
X9481261Y-4667859D01*
X9471050Y-4673396D01*
X9461804Y-4680458D01*
X9453778Y-4688840D01*
X9447072Y-4698339D01*
X9441942Y-4708753D01*
X9438436Y-4719828D01*
X9436658Y-4731308D01*
X9436658Y-4742891D01*
X9438436Y-4754372D01*
X9441942Y-4765446D01*
X9447072Y-4775860D01*
X9453778Y-4785360D01*
X9461804Y-4793742D01*
X9471050Y-4800803D01*
X9481261Y-4806340D01*
X9492183Y-4810252D01*
X9503613Y-4812487D01*
G37*
G36*
X839622Y-4784445D02*
G01*
X909066Y-4784445D01*
X909066Y-4673346D01*
X906932Y-4674311D01*
X893927Y-4682185D01*
X881938Y-4691583D01*
X871219Y-4702302D01*
X861821Y-4714290D01*
X853948Y-4727295D01*
X847699Y-4741164D01*
X843178Y-4755692D01*
X840435Y-4770628D01*
G37*
G36*
X1021791Y-4784445D02*
G01*
X1091234Y-4784445D01*
X1090422Y-4770628D01*
X1087678Y-4755692D01*
X1083157Y-4741164D01*
X1076909Y-4727295D01*
X1069035Y-4714290D01*
X1059637Y-4702302D01*
X1048918Y-4691583D01*
X1036929Y-4682185D01*
X1023924Y-4674311D01*
X1021791Y-4673346D01*
G37*
G36*
X3018129Y-4451045D02*
G01*
X3024733Y-4447794D01*
X3036265Y-4440123D01*
X3046679Y-4430979D01*
X3055823Y-4420565D01*
X3063494Y-4409033D01*
X3066745Y-4402429D01*
X3018129Y-4402429D01*
G37*
G36*
X2925470Y-4451045D02*
G01*
X2925470Y-4402429D01*
X2876854Y-4402429D01*
X2880106Y-4409033D01*
X2887776Y-4420565D01*
X2896920Y-4430979D01*
X2907334Y-4440123D01*
X2918866Y-4447794D01*
G37*
G36*
X10731500Y-4437888D02*
G01*
X10746232Y-4436973D01*
X10760760Y-4434230D01*
X10774781Y-4429760D01*
X10788192Y-4423613D01*
X10800740Y-4415840D01*
X10812272Y-4406595D01*
X10822533Y-4395978D01*
X10831423Y-4384192D01*
X10838789Y-4371441D01*
X10844530Y-4357827D01*
X10848594Y-4343654D01*
X10850880Y-4329074D01*
X10851337Y-4314291D01*
X10849965Y-4299610D01*
X10846816Y-4285183D01*
X10841888Y-4271264D01*
X10835284Y-4258056D01*
X10827156Y-4245762D01*
X10817555Y-4234535D01*
X10806633Y-4224629D01*
X10794593Y-4216095D01*
X10781588Y-4209084D01*
X10767822Y-4203750D01*
X10753547Y-4200194D01*
X10738866Y-4198366D01*
X10724134Y-4198366D01*
X10709452Y-4200194D01*
X10695178Y-4203750D01*
X10681411Y-4209084D01*
X10668406Y-4216095D01*
X10656366Y-4224629D01*
X10645444Y-4234535D01*
X10635843Y-4245762D01*
X10627715Y-4258056D01*
X10621111Y-4271264D01*
X10616184Y-4285183D01*
X10613034Y-4299610D01*
X10611713Y-4314291D01*
X10612120Y-4329074D01*
X10614406Y-4343654D01*
X10618470Y-4357827D01*
X10624210Y-4371441D01*
X10631576Y-4384192D01*
X10640466Y-4395978D01*
X10650728Y-4406595D01*
X10662259Y-4415840D01*
X10674807Y-4423613D01*
X10688218Y-4429760D01*
X10702239Y-4434230D01*
X10716768Y-4436973D01*
G37*
G36*
X1643786Y-4381754D02*
G01*
X1658213Y-4381754D01*
X1672488Y-4379976D01*
X1686458Y-4376369D01*
X1699869Y-4371086D01*
X1712518Y-4364126D01*
X1724152Y-4355642D01*
X1734667Y-4345787D01*
X1743862Y-4334662D01*
X1751584Y-4322521D01*
X1757730Y-4309465D01*
X1762201Y-4295749D01*
X1764893Y-4281576D01*
X1765807Y-4267200D01*
X1764893Y-4252823D01*
X1762201Y-4238650D01*
X1757730Y-4224934D01*
X1751584Y-4211878D01*
X1743862Y-4199737D01*
X1734667Y-4188612D01*
X1724152Y-4178757D01*
X1712518Y-4170273D01*
X1699869Y-4163314D01*
X1686458Y-4158030D01*
X1672488Y-4154424D01*
X1658213Y-4152646D01*
X1643786Y-4152646D01*
X1629511Y-4154424D01*
X1615541Y-4158030D01*
X1602130Y-4163314D01*
X1589481Y-4170273D01*
X1577848Y-4178757D01*
X1567332Y-4188612D01*
X1558137Y-4199737D01*
X1550416Y-4211878D01*
X1544269Y-4224934D01*
X1539798Y-4238650D01*
X1537106Y-4252823D01*
X1536192Y-4267200D01*
X1537106Y-4281576D01*
X1539798Y-4295749D01*
X1544269Y-4309465D01*
X1550416Y-4322521D01*
X1558137Y-4334662D01*
X1567332Y-4345787D01*
X1577848Y-4355642D01*
X1589481Y-4364126D01*
X1602130Y-4371086D01*
X1615541Y-4376369D01*
X1629511Y-4379976D01*
G37*
G36*
X2155799Y-4370019D02*
G01*
X2155799Y-4318000D01*
X2103882Y-4318000D01*
X2106015Y-4322521D01*
X2113737Y-4334662D01*
X2122932Y-4345787D01*
X2133447Y-4355642D01*
X2145080Y-4364126D01*
G37*
G36*
X2257399Y-4370019D02*
G01*
X2268118Y-4364126D01*
X2279751Y-4355642D01*
X2290267Y-4345787D01*
X2299462Y-4334662D01*
X2307183Y-4322521D01*
X2309317Y-4318000D01*
X2257399Y-4318000D01*
G37*
G36*
X3018129Y-4309770D02*
G01*
X3066745Y-4309770D01*
X3063494Y-4303166D01*
X3055823Y-4291634D01*
X3046679Y-4281220D01*
X3036265Y-4272076D01*
X3024733Y-4264406D01*
X3018129Y-4261154D01*
G37*
G36*
X2876854Y-4309770D02*
G01*
X2925470Y-4309770D01*
X2925470Y-4261154D01*
X2918866Y-4264406D01*
X2907334Y-4272076D01*
X2896920Y-4281220D01*
X2887776Y-4291634D01*
X2880106Y-4303166D01*
G37*
G36*
X5537200Y-4246067D02*
G01*
X5551017Y-4245203D01*
X5564581Y-4242460D01*
X5577738Y-4238040D01*
X5590133Y-4231894D01*
X5601665Y-4224223D01*
X5612079Y-4215079D01*
X5621223Y-4204665D01*
X5628894Y-4193133D01*
X5635040Y-4180738D01*
X5639460Y-4167581D01*
X5642203Y-4154017D01*
X5643067Y-4140200D01*
X5642203Y-4126382D01*
X5639460Y-4112818D01*
X5635040Y-4099661D01*
X5628894Y-4087266D01*
X5621223Y-4075734D01*
X5612079Y-4065320D01*
X5601665Y-4056176D01*
X5590133Y-4048506D01*
X5577738Y-4042359D01*
X5564581Y-4037939D01*
X5551017Y-4035196D01*
X5537200Y-4034332D01*
X5523382Y-4035196D01*
X5509818Y-4037939D01*
X5496661Y-4042359D01*
X5484266Y-4048506D01*
X5472734Y-4056176D01*
X5462320Y-4065320D01*
X5453176Y-4075734D01*
X5445506Y-4087266D01*
X5439359Y-4099661D01*
X5434939Y-4112818D01*
X5432196Y-4126382D01*
X5431332Y-4140200D01*
X5432196Y-4154017D01*
X5434939Y-4167581D01*
X5439359Y-4180738D01*
X5445506Y-4193133D01*
X5453176Y-4204665D01*
X5462320Y-4215079D01*
X5472734Y-4224223D01*
X5484266Y-4231894D01*
X5496661Y-4238040D01*
X5509818Y-4242460D01*
X5523382Y-4245203D01*
G37*
G36*
X6091529Y-4235145D02*
G01*
X6098133Y-4231894D01*
X6109665Y-4224223D01*
X6120079Y-4215079D01*
X6129223Y-4204665D01*
X6136894Y-4193133D01*
X6140145Y-4186529D01*
X6091529Y-4186529D01*
G37*
G36*
X5998870Y-4235145D02*
G01*
X5998870Y-4186529D01*
X5950254Y-4186529D01*
X5953506Y-4193133D01*
X5961176Y-4204665D01*
X5970320Y-4215079D01*
X5980734Y-4224223D01*
X5992266Y-4231894D01*
G37*
G36*
X2257399Y-4216400D02*
G01*
X2309317Y-4216400D01*
X2307183Y-4211878D01*
X2299462Y-4199737D01*
X2290267Y-4188612D01*
X2279751Y-4178757D01*
X2268118Y-4170273D01*
X2257399Y-4164380D01*
G37*
G36*
X2103882Y-4216400D02*
G01*
X2155799Y-4216400D01*
X2155799Y-4164380D01*
X2145080Y-4170273D01*
X2133447Y-4178757D01*
X2122932Y-4188612D01*
X2113737Y-4199737D01*
X2106015Y-4211878D01*
G37*
G36*
X6091529Y-4093870D02*
G01*
X6140145Y-4093870D01*
X6136894Y-4087266D01*
X6129223Y-4075734D01*
X6120079Y-4065320D01*
X6109665Y-4056176D01*
X6098133Y-4048506D01*
X6091529Y-4045254D01*
G37*
G36*
X5950254Y-4093870D02*
G01*
X5998870Y-4093870D01*
X5998870Y-4045254D01*
X5992266Y-4048506D01*
X5980734Y-4056176D01*
X5970320Y-4065320D01*
X5961176Y-4075734D01*
X5953506Y-4087266D01*
G37*
G36*
X4123486Y-4089654D02*
G01*
X4137914Y-4089654D01*
X4152188Y-4087876D01*
X4166158Y-4084269D01*
X4179570Y-4078986D01*
X4192219Y-4072026D01*
X4203852Y-4063542D01*
X4214368Y-4053687D01*
X4223562Y-4042562D01*
X4231284Y-4030421D01*
X4237431Y-4017365D01*
X4241901Y-4003649D01*
X4244594Y-3989476D01*
X4245508Y-3975100D01*
X4244594Y-3960723D01*
X4241901Y-3946550D01*
X4237431Y-3932834D01*
X4231284Y-3919778D01*
X4223562Y-3907637D01*
X4214368Y-3896512D01*
X4203852Y-3886657D01*
X4192219Y-3878173D01*
X4179570Y-3871214D01*
X4166158Y-3865930D01*
X4152188Y-3862324D01*
X4137914Y-3860546D01*
X4123486Y-3860546D01*
X4109212Y-3862324D01*
X4095242Y-3865930D01*
X4081830Y-3871214D01*
X4069181Y-3878173D01*
X4057548Y-3886657D01*
X4047032Y-3896512D01*
X4037837Y-3907637D01*
X4030116Y-3919778D01*
X4023969Y-3932834D01*
X4019499Y-3946550D01*
X4016806Y-3960723D01*
X4015892Y-3975100D01*
X4016806Y-3989476D01*
X4019499Y-4003649D01*
X4023969Y-4017365D01*
X4030116Y-4030421D01*
X4037837Y-4042562D01*
X4047032Y-4053687D01*
X4057548Y-4063542D01*
X4069181Y-4072026D01*
X4081830Y-4078986D01*
X4095242Y-4084269D01*
X4109212Y-4087876D01*
G37*
G36*
X4635500Y-4077919D02*
G01*
X4635500Y-4025900D01*
X4583582Y-4025900D01*
X4585716Y-4030421D01*
X4593437Y-4042562D01*
X4602632Y-4053687D01*
X4613148Y-4063542D01*
X4624781Y-4072026D01*
G37*
G36*
X4737100Y-4077919D02*
G01*
X4747818Y-4072026D01*
X4759452Y-4063542D01*
X4769967Y-4053687D01*
X4779162Y-4042562D01*
X4786884Y-4030421D01*
X4789017Y-4025900D01*
X4737100Y-4025900D01*
G37*
G36*
X4737100Y-3924300D02*
G01*
X4789017Y-3924300D01*
X4786884Y-3919778D01*
X4779162Y-3907637D01*
X4769967Y-3896512D01*
X4759452Y-3886657D01*
X4747818Y-3878173D01*
X4737100Y-3872280D01*
G37*
G36*
X4583582Y-3924300D02*
G01*
X4635500Y-3924300D01*
X4635500Y-3872280D01*
X4624781Y-3878173D01*
X4613148Y-3886657D01*
X4602632Y-3896512D01*
X4593437Y-3907637D01*
X4585716Y-3919778D01*
G37*
G36*
X829208Y-3879037D02*
G01*
X843889Y-3877665D01*
X858316Y-3874515D01*
X872236Y-3869588D01*
X885444Y-3862984D01*
X897737Y-3854856D01*
X908964Y-3845255D01*
X918870Y-3834333D01*
X927404Y-3822293D01*
X934415Y-3809288D01*
X939749Y-3795522D01*
X943305Y-3781247D01*
X945134Y-3766565D01*
X945134Y-3751834D01*
X943305Y-3737152D01*
X939749Y-3722878D01*
X934415Y-3709111D01*
X927404Y-3696106D01*
X918870Y-3684066D01*
X908964Y-3673144D01*
X897737Y-3663543D01*
X885444Y-3655415D01*
X872236Y-3648811D01*
X858316Y-3643884D01*
X843889Y-3640734D01*
X829208Y-3639413D01*
X814425Y-3639820D01*
X799846Y-3642106D01*
X785672Y-3646170D01*
X772058Y-3651910D01*
X759307Y-3659276D01*
X747522Y-3668166D01*
X736904Y-3678428D01*
X727659Y-3689959D01*
X719886Y-3702507D01*
X713740Y-3715918D01*
X709269Y-3729939D01*
X706526Y-3744468D01*
X705612Y-3759200D01*
X706526Y-3773932D01*
X709269Y-3788460D01*
X713740Y-3802481D01*
X719886Y-3815892D01*
X727659Y-3828440D01*
X736904Y-3839972D01*
X747522Y-3850233D01*
X759307Y-3859123D01*
X772058Y-3866489D01*
X785672Y-3872229D01*
X799846Y-3876294D01*
X814425Y-3878579D01*
G37*
G36*
X1819808Y-3879037D02*
G01*
X1834489Y-3877665D01*
X1848916Y-3874515D01*
X1862836Y-3869588D01*
X1876043Y-3862984D01*
X1888337Y-3854856D01*
X1899564Y-3845255D01*
X1909470Y-3834333D01*
X1918004Y-3822293D01*
X1925015Y-3809288D01*
X1930349Y-3795522D01*
X1933905Y-3781247D01*
X1935734Y-3766565D01*
X1935734Y-3751834D01*
X1933905Y-3737152D01*
X1930349Y-3722878D01*
X1925015Y-3709111D01*
X1918004Y-3696106D01*
X1909368Y-3683914D01*
X1859381Y-3624630D01*
X1857603Y-3621582D01*
X1856993Y-3618077D01*
X1856993Y-3370224D01*
X1857705Y-3366465D01*
X1859788Y-3363264D01*
X1862886Y-3361029D01*
X1866595Y-3360064D01*
X1870405Y-3360572D01*
X1873707Y-3362451D01*
X1883257Y-3370529D01*
X1894636Y-3377793D01*
X1906828Y-3383432D01*
X1919732Y-3387445D01*
X1932990Y-3389680D01*
X1946452Y-3390137D01*
X1959864Y-3388766D01*
X1972970Y-3385667D01*
X1985568Y-3380790D01*
X1997405Y-3374339D01*
X2008225Y-3366363D01*
X2017928Y-3356965D01*
X2026259Y-3346399D01*
X2033117Y-3334816D01*
X2038400Y-3322370D01*
X2041956Y-3309365D01*
X2043684Y-3296970D01*
X2050135Y-3243173D01*
X2051100Y-3239922D01*
X2053031Y-3237230D01*
X3442970Y-1847291D01*
X3446272Y-1845106D01*
X3450132Y-1844293D01*
X4518710Y-1844293D01*
X4521606Y-1844700D01*
X4524248Y-1845919D01*
X4551019Y-1863191D01*
X4556150Y-1867103D01*
X4562754Y-1870659D01*
X4566005Y-1873504D01*
X4567834Y-1877415D01*
X4567834Y-1881784D01*
X4566005Y-1885696D01*
X4562754Y-1888540D01*
X4556150Y-1892096D01*
X4550308Y-1896516D01*
X4524248Y-1913280D01*
X4521606Y-1914499D01*
X4518710Y-1914906D01*
X3531108Y-1914906D01*
X3522624Y-1915718D01*
X3514953Y-1918055D01*
X3507892Y-1921814D01*
X3501339Y-1927250D01*
X2249170Y-3179368D01*
X2246426Y-3181299D01*
X2243226Y-3182264D01*
X2187194Y-3188868D01*
X2173732Y-3191154D01*
X2160828Y-3195167D01*
X2148636Y-3200806D01*
X2137257Y-3208070D01*
X2126945Y-3216757D01*
X2117902Y-3226765D01*
X2110282Y-3237890D01*
X2104237Y-3249930D01*
X2099818Y-3262629D01*
X2097125Y-3275838D01*
X2096211Y-3289300D01*
X2097125Y-3302762D01*
X2099818Y-3315970D01*
X2104237Y-3328670D01*
X2110282Y-3340709D01*
X2117902Y-3351834D01*
X2126945Y-3361842D01*
X2137257Y-3370529D01*
X2148636Y-3377793D01*
X2160828Y-3383432D01*
X2173732Y-3387445D01*
X2186990Y-3389680D01*
X2200452Y-3390137D01*
X2213864Y-3388766D01*
X2226970Y-3385667D01*
X2239568Y-3380790D01*
X2251405Y-3374339D01*
X2262225Y-3366363D01*
X2271928Y-3356965D01*
X2280259Y-3346399D01*
X2287117Y-3334816D01*
X2292400Y-3322370D01*
X2295956Y-3309365D01*
X2297684Y-3296970D01*
X2304135Y-3243173D01*
X2305100Y-3239922D01*
X2307031Y-3237230D01*
X3544570Y-1999691D01*
X3547872Y-1997506D01*
X3551732Y-1996693D01*
X4518710Y-1996693D01*
X4521606Y-1997100D01*
X4524248Y-1998319D01*
X4551019Y-2015591D01*
X4556150Y-2019503D01*
X4566361Y-2025040D01*
X4577283Y-2028952D01*
X4588713Y-2031187D01*
X4600295Y-2031644D01*
X4611827Y-2030272D01*
X4623054Y-2027224D01*
X4633671Y-2022449D01*
X4643374Y-2016150D01*
X4652060Y-2008428D01*
X4659477Y-1999437D01*
X4665421Y-1989480D01*
X4669739Y-1978710D01*
X4672380Y-1967382D01*
X4673295Y-1955800D01*
X4672380Y-1944217D01*
X4669739Y-1932889D01*
X4665421Y-1922119D01*
X4659477Y-1912162D01*
X4652060Y-1903171D01*
X4643374Y-1895449D01*
X4633061Y-1888896D01*
X4629861Y-1886661D01*
X4627778Y-1883410D01*
X4627067Y-1879600D01*
X4627778Y-1875789D01*
X4629861Y-1872538D01*
X4643374Y-1863750D01*
X4652060Y-1856028D01*
X4659477Y-1847037D01*
X4665421Y-1837080D01*
X4669739Y-1826310D01*
X4672380Y-1814982D01*
X4673295Y-1803400D01*
X4672380Y-1791817D01*
X4669739Y-1780489D01*
X4665421Y-1769719D01*
X4659477Y-1759762D01*
X4652060Y-1750771D01*
X4643374Y-1743049D01*
X4633061Y-1736496D01*
X4629861Y-1734261D01*
X4627778Y-1731010D01*
X4627067Y-1727200D01*
X4627778Y-1723389D01*
X4629861Y-1720138D01*
X4643374Y-1711350D01*
X4652060Y-1703628D01*
X4659477Y-1694637D01*
X4665421Y-1684680D01*
X4669739Y-1673910D01*
X4672380Y-1662582D01*
X4673295Y-1651000D01*
X4672380Y-1639417D01*
X4669739Y-1628089D01*
X4665421Y-1617319D01*
X4659477Y-1607362D01*
X4652060Y-1598371D01*
X4643374Y-1590649D01*
X4633671Y-1584350D01*
X4623054Y-1579575D01*
X4611827Y-1576527D01*
X4600295Y-1575155D01*
X4588713Y-1575612D01*
X4577283Y-1577848D01*
X4566361Y-1581759D01*
X4556150Y-1587296D01*
X4550308Y-1591716D01*
X4524248Y-1608480D01*
X4521606Y-1609699D01*
X4518710Y-1610106D01*
X3340608Y-1610106D01*
X3332124Y-1610918D01*
X3324453Y-1613255D01*
X3317392Y-1617014D01*
X3310839Y-1622450D01*
X1787550Y-3145739D01*
X1782114Y-3152292D01*
X1778355Y-3159353D01*
X1776018Y-3167024D01*
X1775206Y-3175508D01*
X1775206Y-3208578D01*
X1774443Y-3212439D01*
X1772259Y-3215690D01*
X1769008Y-3217926D01*
X1765147Y-3218738D01*
X1761286Y-3218027D01*
X1757984Y-3215894D01*
X1754225Y-3212236D01*
X1743405Y-3204260D01*
X1731568Y-3197809D01*
X1718970Y-3192932D01*
X1705864Y-3189833D01*
X1692452Y-3188462D01*
X1678990Y-3188919D01*
X1665732Y-3191154D01*
X1652828Y-3195167D01*
X1640636Y-3200806D01*
X1629257Y-3208070D01*
X1618945Y-3216757D01*
X1609902Y-3226765D01*
X1602282Y-3237890D01*
X1596237Y-3249930D01*
X1591818Y-3262629D01*
X1589125Y-3275838D01*
X1588211Y-3289300D01*
X1589125Y-3302762D01*
X1591818Y-3315970D01*
X1596237Y-3328670D01*
X1602282Y-3340709D01*
X1609902Y-3351834D01*
X1618945Y-3361842D01*
X1629257Y-3370529D01*
X1640636Y-3377793D01*
X1652828Y-3383432D01*
X1665732Y-3387445D01*
X1678990Y-3389680D01*
X1692452Y-3390137D01*
X1705864Y-3388766D01*
X1718970Y-3385667D01*
X1731568Y-3380790D01*
X1743405Y-3374339D01*
X1754225Y-3366363D01*
X1757984Y-3362706D01*
X1761286Y-3360572D01*
X1765147Y-3359861D01*
X1769008Y-3360674D01*
X1772259Y-3362909D01*
X1774443Y-3366160D01*
X1775206Y-3370021D01*
X1775206Y-3618077D01*
X1774596Y-3621582D01*
X1772818Y-3624630D01*
X1726184Y-3679901D01*
X1718259Y-3689959D01*
X1710486Y-3702507D01*
X1704339Y-3715918D01*
X1699869Y-3729939D01*
X1697126Y-3744468D01*
X1696212Y-3759200D01*
X1697126Y-3773932D01*
X1699869Y-3788460D01*
X1704339Y-3802481D01*
X1710486Y-3815892D01*
X1718259Y-3828440D01*
X1727504Y-3839972D01*
X1738122Y-3850233D01*
X1749907Y-3859123D01*
X1762658Y-3866489D01*
X1776272Y-3872229D01*
X1790446Y-3876294D01*
X1805025Y-3878579D01*
G37*
G36*
X11290300Y-3561587D02*
G01*
X11305032Y-3560673D01*
X11319560Y-3557930D01*
X11333581Y-3553460D01*
X11346992Y-3547313D01*
X11359540Y-3539540D01*
X11371072Y-3530295D01*
X11381333Y-3519678D01*
X11390223Y-3507892D01*
X11397589Y-3495141D01*
X11403330Y-3481527D01*
X11407394Y-3467354D01*
X11409680Y-3452774D01*
X11410137Y-3437991D01*
X11408765Y-3423310D01*
X11405616Y-3408883D01*
X11400688Y-3394964D01*
X11394084Y-3381756D01*
X11385956Y-3369462D01*
X11376355Y-3358235D01*
X11365433Y-3348329D01*
X11353393Y-3339795D01*
X11340388Y-3332784D01*
X11325961Y-3327247D01*
X11322608Y-3325063D01*
X11320322Y-3321812D01*
X11319459Y-3317900D01*
X11320221Y-3313937D01*
X11322405Y-3310636D01*
X11325707Y-3308350D01*
X11329619Y-3307587D01*
X11383721Y-3307587D01*
X11390020Y-3306876D01*
X11395506Y-3304946D01*
X11400383Y-3301898D01*
X11404498Y-3297783D01*
X11407546Y-3292906D01*
X11409476Y-3287420D01*
X11410188Y-3281121D01*
X11410188Y-3094278D01*
X11409476Y-3087979D01*
X11407546Y-3082493D01*
X11404498Y-3077616D01*
X11400383Y-3073501D01*
X11395506Y-3070453D01*
X11390020Y-3068523D01*
X11383721Y-3067812D01*
X11196878Y-3067812D01*
X11190579Y-3068523D01*
X11185093Y-3070453D01*
X11180216Y-3073501D01*
X11176101Y-3077616D01*
X11173053Y-3082493D01*
X11171123Y-3087979D01*
X11170412Y-3094278D01*
X11170412Y-3281121D01*
X11171123Y-3287420D01*
X11173053Y-3292906D01*
X11176101Y-3297783D01*
X11180216Y-3301898D01*
X11185093Y-3304946D01*
X11190579Y-3306876D01*
X11196878Y-3307587D01*
X11250980Y-3307587D01*
X11254892Y-3308350D01*
X11258194Y-3310636D01*
X11260378Y-3313937D01*
X11261140Y-3317900D01*
X11260277Y-3321812D01*
X11257991Y-3325063D01*
X11254638Y-3327247D01*
X11240211Y-3332784D01*
X11227206Y-3339795D01*
X11215166Y-3348329D01*
X11204244Y-3358235D01*
X11194643Y-3369462D01*
X11186515Y-3381756D01*
X11179911Y-3394964D01*
X11174984Y-3408883D01*
X11171834Y-3423310D01*
X11170513Y-3437991D01*
X11170920Y-3452774D01*
X11173206Y-3467354D01*
X11177270Y-3481527D01*
X11183010Y-3495141D01*
X11190376Y-3507892D01*
X11199266Y-3519678D01*
X11209528Y-3530295D01*
X11221059Y-3539540D01*
X11233607Y-3547313D01*
X11247018Y-3553460D01*
X11261039Y-3557930D01*
X11275568Y-3560673D01*
G37*
G36*
X10534243Y-3504895D02*
G01*
X10552328Y-3504895D01*
X10558678Y-3504184D01*
X10564114Y-3502304D01*
X10568990Y-3499205D01*
X10573105Y-3495090D01*
X10576204Y-3490214D01*
X10578084Y-3484778D01*
X10578795Y-3478428D01*
X10578795Y-3460343D01*
X10534243Y-3460343D01*
G37*
G36*
X10453471Y-3504895D02*
G01*
X10471556Y-3504895D01*
X10471556Y-3460343D01*
X10427004Y-3460343D01*
X10427004Y-3478428D01*
X10427716Y-3484778D01*
X10429595Y-3490214D01*
X10432694Y-3495090D01*
X10436809Y-3499205D01*
X10441686Y-3502304D01*
X10447172Y-3504184D01*
G37*
G36*
X9965791Y-3421837D02*
G01*
X9980574Y-3421379D01*
X9995154Y-3419094D01*
X10009327Y-3415029D01*
X10022941Y-3409289D01*
X10035692Y-3401923D01*
X10047478Y-3393033D01*
X10058095Y-3382772D01*
X10067340Y-3371240D01*
X10075113Y-3358692D01*
X10081260Y-3345281D01*
X10085730Y-3331260D01*
X10088473Y-3316732D01*
X10089388Y-3302000D01*
X10088473Y-3287268D01*
X10085730Y-3272739D01*
X10081260Y-3258718D01*
X10075113Y-3245307D01*
X10067340Y-3232759D01*
X10058095Y-3221228D01*
X10047478Y-3210966D01*
X10035692Y-3202076D01*
X10022941Y-3194710D01*
X10009327Y-3188970D01*
X9995154Y-3184906D01*
X9980574Y-3182620D01*
X9965791Y-3182213D01*
X9951110Y-3183534D01*
X9936683Y-3186684D01*
X9922764Y-3191611D01*
X9909556Y-3198215D01*
X9897262Y-3206343D01*
X9886035Y-3215944D01*
X9876129Y-3226866D01*
X9867595Y-3238906D01*
X9860584Y-3251911D01*
X9855250Y-3265678D01*
X9851694Y-3279952D01*
X9849866Y-3294634D01*
X9849866Y-3309365D01*
X9851694Y-3324047D01*
X9855250Y-3338322D01*
X9860584Y-3352088D01*
X9867595Y-3365093D01*
X9876129Y-3377133D01*
X9886035Y-3388055D01*
X9897262Y-3397656D01*
X9909556Y-3405784D01*
X9922764Y-3412388D01*
X9936683Y-3417315D01*
X9951110Y-3420465D01*
G37*
G36*
X8975191Y-3421837D02*
G01*
X8989974Y-3421379D01*
X9004554Y-3419094D01*
X9018727Y-3415029D01*
X9032341Y-3409289D01*
X9045092Y-3401923D01*
X9056878Y-3393033D01*
X9067495Y-3382772D01*
X9076740Y-3371240D01*
X9084513Y-3358692D01*
X9090660Y-3345281D01*
X9095130Y-3331260D01*
X9097873Y-3316732D01*
X9098788Y-3302000D01*
X9097873Y-3287268D01*
X9095130Y-3272739D01*
X9090660Y-3258718D01*
X9084513Y-3245307D01*
X9076740Y-3232759D01*
X9067495Y-3221228D01*
X9056878Y-3210966D01*
X9045092Y-3202076D01*
X9032341Y-3194710D01*
X9018727Y-3188970D01*
X9004554Y-3184906D01*
X8989974Y-3182620D01*
X8975191Y-3182213D01*
X8960510Y-3183534D01*
X8946083Y-3186684D01*
X8932164Y-3191611D01*
X8918956Y-3198215D01*
X8906662Y-3206343D01*
X8895435Y-3215944D01*
X8885529Y-3226866D01*
X8876995Y-3238906D01*
X8869984Y-3251911D01*
X8864650Y-3265678D01*
X8861094Y-3279952D01*
X8859266Y-3294634D01*
X8859266Y-3309365D01*
X8861094Y-3324047D01*
X8864650Y-3338322D01*
X8869984Y-3352088D01*
X8876995Y-3365093D01*
X8885529Y-3377133D01*
X8895435Y-3388055D01*
X8906662Y-3397656D01*
X8918956Y-3405784D01*
X8932164Y-3412388D01*
X8946083Y-3417315D01*
X8960510Y-3420465D01*
G37*
G36*
X10427004Y-3397656D02*
G01*
X10471556Y-3397656D01*
X10471556Y-3385312D01*
X10472267Y-3381603D01*
X10474299Y-3378352D01*
X10477347Y-3376117D01*
X10481005Y-3375151D01*
X10497108Y-3377641D01*
X10508691Y-3377641D01*
X10524794Y-3375151D01*
X10528452Y-3376117D01*
X10531500Y-3378352D01*
X10533532Y-3381603D01*
X10534243Y-3385312D01*
X10534243Y-3397656D01*
X10578795Y-3397656D01*
X10578795Y-3379571D01*
X10578084Y-3373272D01*
X10576204Y-3367786D01*
X10573105Y-3362909D01*
X10565790Y-3355746D01*
X10564164Y-3351834D01*
X10564317Y-3347669D01*
X10572140Y-3333038D01*
X10576052Y-3322116D01*
X10578287Y-3310686D01*
X10578744Y-3299104D01*
X10577372Y-3287572D01*
X10574324Y-3276346D01*
X10569549Y-3265779D01*
X10563250Y-3256026D01*
X10555528Y-3247339D01*
X10554258Y-3246272D01*
X10551617Y-3242970D01*
X10550550Y-3238855D01*
X10551312Y-3234639D01*
X10553700Y-3231134D01*
X10559542Y-3225495D01*
X10566603Y-3216249D01*
X10572140Y-3206038D01*
X10576052Y-3195116D01*
X10578287Y-3183686D01*
X10578744Y-3172104D01*
X10577372Y-3160572D01*
X10574324Y-3149346D01*
X10569549Y-3138779D01*
X10563250Y-3129026D01*
X10555528Y-3120339D01*
X10546537Y-3112922D01*
X10536580Y-3106978D01*
X10525810Y-3102660D01*
X10514482Y-3100019D01*
X10502900Y-3099104D01*
X10491317Y-3100019D01*
X10479989Y-3102660D01*
X10469219Y-3106978D01*
X10459262Y-3112922D01*
X10450271Y-3120339D01*
X10442549Y-3129026D01*
X10436250Y-3138779D01*
X10431475Y-3149346D01*
X10428427Y-3160572D01*
X10427055Y-3172104D01*
X10427512Y-3183686D01*
X10429748Y-3195116D01*
X10433659Y-3206038D01*
X10439196Y-3216249D01*
X10446258Y-3225495D01*
X10452100Y-3231134D01*
X10454487Y-3234639D01*
X10455249Y-3238855D01*
X10454182Y-3242970D01*
X10451541Y-3246272D01*
X10450271Y-3247339D01*
X10442549Y-3256026D01*
X10436250Y-3265779D01*
X10431475Y-3276346D01*
X10428427Y-3287572D01*
X10427055Y-3299104D01*
X10427512Y-3310686D01*
X10429748Y-3322116D01*
X10433659Y-3333038D01*
X10441482Y-3347669D01*
X10441635Y-3351834D01*
X10440060Y-3355746D01*
X10432694Y-3362909D01*
X10429595Y-3367786D01*
X10427716Y-3373272D01*
X10427004Y-3379571D01*
G37*
G36*
X1184452Y-3390137D02*
G01*
X1197864Y-3388766D01*
X1210970Y-3385667D01*
X1223568Y-3380790D01*
X1235405Y-3374339D01*
X1246225Y-3366363D01*
X1255928Y-3356965D01*
X1264259Y-3346399D01*
X1271117Y-3334816D01*
X1276400Y-3322370D01*
X1279956Y-3309416D01*
X1281734Y-3296056D01*
X1281734Y-3282543D01*
X1279956Y-3269183D01*
X1276400Y-3256229D01*
X1271117Y-3243783D01*
X1264259Y-3232200D01*
X1255928Y-3221634D01*
X1246225Y-3212236D01*
X1235405Y-3204260D01*
X1223568Y-3197809D01*
X1210970Y-3192932D01*
X1197864Y-3189833D01*
X1184452Y-3188462D01*
X1170990Y-3188919D01*
X1157732Y-3191154D01*
X1144828Y-3195167D01*
X1132636Y-3200806D01*
X1121257Y-3208070D01*
X1110945Y-3216757D01*
X1101902Y-3226765D01*
X1094282Y-3237890D01*
X1088237Y-3249930D01*
X1083818Y-3262629D01*
X1081125Y-3275838D01*
X1080211Y-3289300D01*
X1081125Y-3302762D01*
X1083818Y-3315970D01*
X1088237Y-3328670D01*
X1094282Y-3340709D01*
X1101902Y-3351834D01*
X1110945Y-3361842D01*
X1121257Y-3370529D01*
X1132636Y-3377793D01*
X1144828Y-3383432D01*
X1157732Y-3387445D01*
X1170990Y-3389680D01*
G37*
G36*
X930452Y-3390137D02*
G01*
X943864Y-3388766D01*
X956970Y-3385667D01*
X969568Y-3380790D01*
X981405Y-3374339D01*
X992225Y-3366363D01*
X1001928Y-3356965D01*
X1010259Y-3346399D01*
X1017117Y-3334816D01*
X1022400Y-3322370D01*
X1025956Y-3309416D01*
X1027734Y-3296056D01*
X1027734Y-3282543D01*
X1025956Y-3269183D01*
X1022400Y-3256229D01*
X1017117Y-3243783D01*
X1010259Y-3232200D01*
X1001928Y-3221634D01*
X992225Y-3212236D01*
X981405Y-3204260D01*
X969568Y-3197809D01*
X956970Y-3192932D01*
X943864Y-3189833D01*
X930452Y-3188462D01*
X916990Y-3188919D01*
X903732Y-3191154D01*
X890828Y-3195167D01*
X878636Y-3200806D01*
X867257Y-3208070D01*
X856945Y-3216757D01*
X847902Y-3226765D01*
X840282Y-3237890D01*
X834237Y-3249930D01*
X829818Y-3262629D01*
X827125Y-3275838D01*
X826211Y-3289300D01*
X827125Y-3302762D01*
X829818Y-3315970D01*
X834237Y-3328670D01*
X840282Y-3340709D01*
X847902Y-3351834D01*
X856945Y-3361842D01*
X867257Y-3370529D01*
X878636Y-3377793D01*
X890828Y-3383432D01*
X903732Y-3387445D01*
X916990Y-3389680D01*
G37*
G36*
X1438452Y-3390137D02*
G01*
X1451864Y-3388766D01*
X1464970Y-3385667D01*
X1477568Y-3380790D01*
X1489405Y-3374339D01*
X1500225Y-3366363D01*
X1509928Y-3356965D01*
X1518259Y-3346399D01*
X1525117Y-3334816D01*
X1530400Y-3322370D01*
X1533956Y-3309416D01*
X1535734Y-3296056D01*
X1535734Y-3282543D01*
X1533956Y-3269183D01*
X1530400Y-3256229D01*
X1525117Y-3243783D01*
X1518259Y-3232200D01*
X1509928Y-3221634D01*
X1500225Y-3212236D01*
X1489405Y-3204260D01*
X1477568Y-3197809D01*
X1464970Y-3192932D01*
X1451864Y-3189833D01*
X1438452Y-3188462D01*
X1424990Y-3188919D01*
X1411732Y-3191154D01*
X1398828Y-3195167D01*
X1386636Y-3200806D01*
X1375257Y-3208070D01*
X1364945Y-3216757D01*
X1355902Y-3226765D01*
X1348282Y-3237890D01*
X1342237Y-3249930D01*
X1337818Y-3262629D01*
X1335125Y-3275838D01*
X1334211Y-3289300D01*
X1335125Y-3302762D01*
X1337818Y-3315970D01*
X1342237Y-3328670D01*
X1348282Y-3340709D01*
X1355902Y-3351834D01*
X1364945Y-3361842D01*
X1375257Y-3370529D01*
X1386636Y-3377793D01*
X1398828Y-3383432D01*
X1411732Y-3387445D01*
X1424990Y-3389680D01*
G37*
G36*
X422452Y-3390137D02*
G01*
X435864Y-3388766D01*
X448970Y-3385667D01*
X461568Y-3380790D01*
X473405Y-3374339D01*
X484225Y-3366363D01*
X493928Y-3356965D01*
X502259Y-3346399D01*
X509117Y-3334816D01*
X514400Y-3322370D01*
X517956Y-3309416D01*
X519734Y-3296056D01*
X519734Y-3282543D01*
X517956Y-3269183D01*
X514400Y-3256229D01*
X509117Y-3243783D01*
X502259Y-3232200D01*
X493928Y-3221634D01*
X484225Y-3212236D01*
X473405Y-3204260D01*
X461568Y-3197809D01*
X448970Y-3192932D01*
X435864Y-3189833D01*
X422452Y-3188462D01*
X408990Y-3188919D01*
X395732Y-3191154D01*
X382828Y-3195167D01*
X370636Y-3200806D01*
X359257Y-3208070D01*
X348945Y-3216757D01*
X339902Y-3226765D01*
X332282Y-3237890D01*
X326237Y-3249930D01*
X321818Y-3262629D01*
X319125Y-3275838D01*
X318211Y-3289300D01*
X319125Y-3302762D01*
X321818Y-3315970D01*
X326237Y-3328670D01*
X332282Y-3340709D01*
X339902Y-3351834D01*
X348945Y-3361842D01*
X359257Y-3370529D01*
X370636Y-3377793D01*
X382828Y-3383432D01*
X395732Y-3387445D01*
X408990Y-3389680D01*
G37*
G36*
X676452Y-3390137D02*
G01*
X689864Y-3388766D01*
X702970Y-3385667D01*
X715568Y-3380790D01*
X727405Y-3374339D01*
X738225Y-3366363D01*
X747928Y-3356965D01*
X756259Y-3346399D01*
X763117Y-3334816D01*
X768400Y-3322370D01*
X771956Y-3309416D01*
X773734Y-3296056D01*
X773734Y-3282543D01*
X771956Y-3269183D01*
X768400Y-3256229D01*
X763117Y-3243783D01*
X756259Y-3232200D01*
X747928Y-3221634D01*
X738225Y-3212236D01*
X727405Y-3204260D01*
X715568Y-3197809D01*
X702970Y-3192932D01*
X689864Y-3189833D01*
X676452Y-3188462D01*
X662990Y-3188919D01*
X649732Y-3191154D01*
X636828Y-3195167D01*
X624636Y-3200806D01*
X613257Y-3208070D01*
X602945Y-3216757D01*
X593902Y-3226765D01*
X586282Y-3237890D01*
X580237Y-3249930D01*
X575818Y-3262629D01*
X573125Y-3275838D01*
X572211Y-3289300D01*
X573125Y-3302762D01*
X575818Y-3315970D01*
X580237Y-3328670D01*
X586282Y-3340709D01*
X593902Y-3351834D01*
X602945Y-3361842D01*
X613257Y-3370529D01*
X624636Y-3377793D01*
X636828Y-3383432D01*
X649732Y-3387445D01*
X662990Y-3389680D01*
G37*
G36*
X3724452Y-3390137D02*
G01*
X3737864Y-3388766D01*
X3750970Y-3385667D01*
X3763568Y-3380790D01*
X3775405Y-3374339D01*
X3786225Y-3366363D01*
X3795928Y-3356965D01*
X3804259Y-3346399D01*
X3811117Y-3334816D01*
X3816400Y-3322370D01*
X3819956Y-3309416D01*
X3821734Y-3296056D01*
X3821734Y-3282543D01*
X3819956Y-3269183D01*
X3816400Y-3256229D01*
X3811117Y-3243783D01*
X3804259Y-3232200D01*
X3795928Y-3221634D01*
X3786225Y-3212236D01*
X3775405Y-3204260D01*
X3763568Y-3197809D01*
X3750970Y-3192932D01*
X3737864Y-3189833D01*
X3724452Y-3188462D01*
X3710990Y-3188919D01*
X3697732Y-3191154D01*
X3684828Y-3195167D01*
X3672636Y-3200806D01*
X3661257Y-3208070D01*
X3650945Y-3216757D01*
X3641902Y-3226765D01*
X3634282Y-3237890D01*
X3628237Y-3249930D01*
X3623818Y-3262629D01*
X3621125Y-3275838D01*
X3620211Y-3289300D01*
X3621125Y-3302762D01*
X3623818Y-3315970D01*
X3628237Y-3328670D01*
X3634282Y-3340709D01*
X3641902Y-3351834D01*
X3650945Y-3361842D01*
X3661257Y-3370529D01*
X3672636Y-3377793D01*
X3684828Y-3383432D01*
X3697732Y-3387445D01*
X3710990Y-3389680D01*
G37*
G36*
X3978452Y-3390137D02*
G01*
X3991864Y-3388766D01*
X4004970Y-3385667D01*
X4017568Y-3380790D01*
X4029405Y-3374339D01*
X4040225Y-3366363D01*
X4049928Y-3356965D01*
X4058259Y-3346399D01*
X4065117Y-3334816D01*
X4070400Y-3322370D01*
X4073956Y-3309416D01*
X4075734Y-3296056D01*
X4075734Y-3282543D01*
X4073956Y-3269183D01*
X4070400Y-3256229D01*
X4065117Y-3243783D01*
X4058259Y-3232200D01*
X4049928Y-3221634D01*
X4040225Y-3212236D01*
X4029405Y-3204260D01*
X4017568Y-3197809D01*
X4004970Y-3192932D01*
X3991864Y-3189833D01*
X3978452Y-3188462D01*
X3964990Y-3188919D01*
X3951732Y-3191154D01*
X3938828Y-3195167D01*
X3926636Y-3200806D01*
X3915257Y-3208070D01*
X3904945Y-3216757D01*
X3895902Y-3226765D01*
X3888282Y-3237890D01*
X3882237Y-3249930D01*
X3877818Y-3262629D01*
X3875125Y-3275838D01*
X3874211Y-3289300D01*
X3875125Y-3302762D01*
X3877818Y-3315970D01*
X3882237Y-3328670D01*
X3888282Y-3340709D01*
X3895902Y-3351834D01*
X3904945Y-3361842D01*
X3915257Y-3370529D01*
X3926636Y-3377793D01*
X3938828Y-3383432D01*
X3951732Y-3387445D01*
X3964990Y-3389680D01*
G37*
G36*
X3216452Y-3390137D02*
G01*
X3229864Y-3388766D01*
X3242970Y-3385667D01*
X3255568Y-3380790D01*
X3267405Y-3374339D01*
X3278225Y-3366363D01*
X3287928Y-3356965D01*
X3296259Y-3346399D01*
X3303117Y-3334816D01*
X3308400Y-3322370D01*
X3311956Y-3309416D01*
X3313734Y-3296056D01*
X3313734Y-3282543D01*
X3311956Y-3269183D01*
X3308400Y-3256229D01*
X3303117Y-3243783D01*
X3296259Y-3232200D01*
X3287928Y-3221634D01*
X3278225Y-3212236D01*
X3267405Y-3204260D01*
X3255568Y-3197809D01*
X3242970Y-3192932D01*
X3229864Y-3189833D01*
X3216452Y-3188462D01*
X3202990Y-3188919D01*
X3189732Y-3191154D01*
X3176828Y-3195167D01*
X3164636Y-3200806D01*
X3153257Y-3208070D01*
X3142945Y-3216757D01*
X3133902Y-3226765D01*
X3126282Y-3237890D01*
X3120237Y-3249930D01*
X3115818Y-3262629D01*
X3113125Y-3275838D01*
X3112211Y-3289300D01*
X3113125Y-3302762D01*
X3115818Y-3315970D01*
X3120237Y-3328670D01*
X3126282Y-3340709D01*
X3133902Y-3351834D01*
X3142945Y-3361842D01*
X3153257Y-3370529D01*
X3164636Y-3377793D01*
X3176828Y-3383432D01*
X3189732Y-3387445D01*
X3202990Y-3389680D01*
G37*
G36*
X4232452Y-3390137D02*
G01*
X4245864Y-3388766D01*
X4258970Y-3385667D01*
X4271568Y-3380790D01*
X4283405Y-3374339D01*
X4294225Y-3366363D01*
X4303928Y-3356965D01*
X4312259Y-3346399D01*
X4319117Y-3334816D01*
X4324400Y-3322370D01*
X4327956Y-3309416D01*
X4329734Y-3296056D01*
X4329734Y-3282543D01*
X4327956Y-3269183D01*
X4324400Y-3256229D01*
X4319117Y-3243783D01*
X4312259Y-3232200D01*
X4303928Y-3221634D01*
X4294225Y-3212236D01*
X4283405Y-3204260D01*
X4271568Y-3197809D01*
X4258970Y-3192932D01*
X4245864Y-3189833D01*
X4232452Y-3188462D01*
X4218990Y-3188919D01*
X4205732Y-3191154D01*
X4192828Y-3195167D01*
X4180636Y-3200806D01*
X4169257Y-3208070D01*
X4158945Y-3216757D01*
X4149902Y-3226765D01*
X4142282Y-3237890D01*
X4136237Y-3249930D01*
X4131818Y-3262629D01*
X4129125Y-3275838D01*
X4128211Y-3289300D01*
X4129125Y-3302762D01*
X4131818Y-3315970D01*
X4136237Y-3328670D01*
X4142282Y-3340709D01*
X4149902Y-3351834D01*
X4158945Y-3361842D01*
X4169257Y-3370529D01*
X4180636Y-3377793D01*
X4192828Y-3383432D01*
X4205732Y-3387445D01*
X4218990Y-3389680D01*
G37*
G36*
X2962452Y-3390137D02*
G01*
X2975864Y-3388766D01*
X2988970Y-3385667D01*
X3001568Y-3380790D01*
X3013405Y-3374339D01*
X3024225Y-3366363D01*
X3033928Y-3356965D01*
X3042259Y-3346399D01*
X3049117Y-3334816D01*
X3054400Y-3322370D01*
X3057956Y-3309416D01*
X3059734Y-3296056D01*
X3059734Y-3282543D01*
X3057956Y-3269183D01*
X3054400Y-3256229D01*
X3049117Y-3243783D01*
X3042259Y-3232200D01*
X3033928Y-3221634D01*
X3024225Y-3212236D01*
X3013405Y-3204260D01*
X3001568Y-3197809D01*
X2988970Y-3192932D01*
X2975864Y-3189833D01*
X2962452Y-3188462D01*
X2948990Y-3188919D01*
X2935732Y-3191154D01*
X2922828Y-3195167D01*
X2910636Y-3200806D01*
X2899257Y-3208070D01*
X2888945Y-3216757D01*
X2879902Y-3226765D01*
X2872282Y-3237890D01*
X2866237Y-3249930D01*
X2861818Y-3262629D01*
X2859125Y-3275838D01*
X2858211Y-3289300D01*
X2859125Y-3302762D01*
X2861818Y-3315970D01*
X2866237Y-3328670D01*
X2872282Y-3340709D01*
X2879902Y-3351834D01*
X2888945Y-3361842D01*
X2899257Y-3370529D01*
X2910636Y-3377793D01*
X2922828Y-3383432D01*
X2935732Y-3387445D01*
X2948990Y-3389680D01*
G37*
G36*
X2708452Y-3390137D02*
G01*
X2721864Y-3388766D01*
X2734970Y-3385667D01*
X2747568Y-3380790D01*
X2759405Y-3374339D01*
X2770225Y-3366363D01*
X2779928Y-3356965D01*
X2788259Y-3346399D01*
X2795117Y-3334816D01*
X2800400Y-3322370D01*
X2803956Y-3309416D01*
X2805734Y-3296056D01*
X2805734Y-3282543D01*
X2803956Y-3269183D01*
X2800400Y-3256229D01*
X2795117Y-3243783D01*
X2788259Y-3232200D01*
X2779928Y-3221634D01*
X2770225Y-3212236D01*
X2759405Y-3204260D01*
X2747568Y-3197809D01*
X2734970Y-3192932D01*
X2721864Y-3189833D01*
X2708452Y-3188462D01*
X2694990Y-3188919D01*
X2681732Y-3191154D01*
X2668828Y-3195167D01*
X2656636Y-3200806D01*
X2645257Y-3208070D01*
X2634945Y-3216757D01*
X2625902Y-3226765D01*
X2618282Y-3237890D01*
X2612237Y-3249930D01*
X2607818Y-3262629D01*
X2605125Y-3275838D01*
X2604211Y-3289300D01*
X2605125Y-3302762D01*
X2607818Y-3315970D01*
X2612237Y-3328670D01*
X2618282Y-3340709D01*
X2625902Y-3351834D01*
X2634945Y-3361842D01*
X2645257Y-3370529D01*
X2656636Y-3377793D01*
X2668828Y-3383432D01*
X2681732Y-3387445D01*
X2694990Y-3389680D01*
G37*
G36*
X4486452Y-3390137D02*
G01*
X4499864Y-3388766D01*
X4512970Y-3385667D01*
X4525568Y-3380790D01*
X4537405Y-3374339D01*
X4548225Y-3366363D01*
X4557928Y-3356965D01*
X4566259Y-3346399D01*
X4573117Y-3334816D01*
X4578400Y-3322370D01*
X4581956Y-3309416D01*
X4583734Y-3296056D01*
X4583734Y-3282543D01*
X4581956Y-3269183D01*
X4578400Y-3256229D01*
X4573117Y-3243783D01*
X4566259Y-3232200D01*
X4557928Y-3221634D01*
X4548225Y-3212236D01*
X4537405Y-3204260D01*
X4525568Y-3197809D01*
X4512970Y-3192932D01*
X4499864Y-3189833D01*
X4486452Y-3188462D01*
X4472990Y-3188919D01*
X4459732Y-3191154D01*
X4446828Y-3195167D01*
X4434636Y-3200806D01*
X4423257Y-3208070D01*
X4412945Y-3216757D01*
X4403902Y-3226765D01*
X4396282Y-3237890D01*
X4390237Y-3249930D01*
X4385818Y-3262629D01*
X4383125Y-3275838D01*
X4382211Y-3289300D01*
X4383125Y-3302762D01*
X4385818Y-3315970D01*
X4390237Y-3328670D01*
X4396282Y-3340709D01*
X4403902Y-3351834D01*
X4412945Y-3361842D01*
X4423257Y-3370529D01*
X4434636Y-3377793D01*
X4446828Y-3383432D01*
X4459732Y-3387445D01*
X4472990Y-3389680D01*
G37*
G36*
X4740452Y-3390137D02*
G01*
X4753864Y-3388766D01*
X4766970Y-3385667D01*
X4779568Y-3380790D01*
X4791405Y-3374339D01*
X4802225Y-3366363D01*
X4811928Y-3356965D01*
X4820259Y-3346399D01*
X4827117Y-3334816D01*
X4832400Y-3322370D01*
X4835956Y-3309416D01*
X4837734Y-3296056D01*
X4837734Y-3282543D01*
X4835956Y-3269183D01*
X4832400Y-3256229D01*
X4827117Y-3243783D01*
X4820259Y-3232200D01*
X4811928Y-3221634D01*
X4802225Y-3212236D01*
X4791405Y-3204260D01*
X4779568Y-3197809D01*
X4766970Y-3192932D01*
X4753864Y-3189833D01*
X4740452Y-3188462D01*
X4726990Y-3188919D01*
X4713732Y-3191154D01*
X4700828Y-3195167D01*
X4688636Y-3200806D01*
X4677257Y-3208070D01*
X4666945Y-3216757D01*
X4657902Y-3226765D01*
X4650282Y-3237890D01*
X4644237Y-3249930D01*
X4639818Y-3262629D01*
X4637125Y-3275838D01*
X4636211Y-3289300D01*
X4637125Y-3302762D01*
X4639818Y-3315970D01*
X4644237Y-3328670D01*
X4650282Y-3340709D01*
X4657902Y-3351834D01*
X4666945Y-3361842D01*
X4677257Y-3370529D01*
X4688636Y-3377793D01*
X4700828Y-3383432D01*
X4713732Y-3387445D01*
X4726990Y-3389680D01*
G37*
G36*
X2454452Y-3390137D02*
G01*
X2467864Y-3388766D01*
X2480970Y-3385667D01*
X2493568Y-3380790D01*
X2505405Y-3374339D01*
X2516225Y-3366363D01*
X2525928Y-3356965D01*
X2534259Y-3346399D01*
X2541117Y-3334816D01*
X2546400Y-3322370D01*
X2549956Y-3309416D01*
X2551734Y-3296056D01*
X2551734Y-3282543D01*
X2549956Y-3269183D01*
X2546400Y-3256229D01*
X2541117Y-3243783D01*
X2534259Y-3232200D01*
X2525928Y-3221634D01*
X2516225Y-3212236D01*
X2505405Y-3204260D01*
X2493568Y-3197809D01*
X2480970Y-3192932D01*
X2467864Y-3189833D01*
X2454452Y-3188462D01*
X2440990Y-3188919D01*
X2427732Y-3191154D01*
X2414828Y-3195167D01*
X2402636Y-3200806D01*
X2391257Y-3208070D01*
X2380945Y-3216757D01*
X2371902Y-3226765D01*
X2364282Y-3237890D01*
X2358237Y-3249930D01*
X2353818Y-3262629D01*
X2351125Y-3275838D01*
X2350211Y-3289300D01*
X2351125Y-3302762D01*
X2353818Y-3315970D01*
X2358237Y-3328670D01*
X2364282Y-3340709D01*
X2371902Y-3351834D01*
X2380945Y-3361842D01*
X2391257Y-3370529D01*
X2402636Y-3377793D01*
X2414828Y-3383432D01*
X2427732Y-3387445D01*
X2440990Y-3389680D01*
G37*
G36*
X3510940Y-3380028D02*
G01*
X3521405Y-3374339D01*
X3532225Y-3366363D01*
X3541928Y-3356965D01*
X3550259Y-3346399D01*
X3557117Y-3334816D01*
X3557828Y-3333140D01*
X3510940Y-3333140D01*
G37*
G36*
X5034940Y-3380028D02*
G01*
X5045405Y-3374339D01*
X5056225Y-3366363D01*
X5065928Y-3356965D01*
X5074259Y-3346399D01*
X5081117Y-3334816D01*
X5081828Y-3333140D01*
X5034940Y-3333140D01*
G37*
G36*
X3423259Y-3379927D02*
G01*
X3423259Y-3333140D01*
X3376472Y-3333140D01*
X3380282Y-3340709D01*
X3387902Y-3351834D01*
X3396945Y-3361842D01*
X3407257Y-3370529D01*
X3418636Y-3377793D01*
G37*
G36*
X4947259Y-3379927D02*
G01*
X4947259Y-3333140D01*
X4900472Y-3333140D01*
X4904282Y-3340709D01*
X4911902Y-3351834D01*
X4920945Y-3361842D01*
X4931257Y-3370529D01*
X4942636Y-3377793D01*
G37*
G36*
X4900472Y-3245459D02*
G01*
X4947259Y-3245459D01*
X4947259Y-3198672D01*
X4942636Y-3200806D01*
X4931257Y-3208070D01*
X4920945Y-3216757D01*
X4911902Y-3226765D01*
X4904282Y-3237890D01*
G37*
G36*
X3376472Y-3245459D02*
G01*
X3423259Y-3245459D01*
X3423259Y-3198672D01*
X3418636Y-3200806D01*
X3407257Y-3208070D01*
X3396945Y-3216757D01*
X3387902Y-3226765D01*
X3380282Y-3237890D01*
G37*
G36*
X3510940Y-3245459D02*
G01*
X3557828Y-3245459D01*
X3557117Y-3243783D01*
X3550259Y-3232200D01*
X3541928Y-3221634D01*
X3532225Y-3212236D01*
X3521405Y-3204260D01*
X3510940Y-3198571D01*
G37*
G36*
X5034940Y-3245459D02*
G01*
X5081828Y-3245459D01*
X5081117Y-3243783D01*
X5074259Y-3232200D01*
X5065928Y-3221634D01*
X5056225Y-3212236D01*
X5045405Y-3204260D01*
X5034940Y-3198571D01*
G37*
G36*
X9347758Y-1511808D02*
G01*
X9499041Y-1511808D01*
X9505340Y-1511096D01*
X9510826Y-1509166D01*
X9515703Y-1506118D01*
X9519818Y-1502003D01*
X9522866Y-1497126D01*
X9524796Y-1491640D01*
X9525508Y-1485341D01*
X9525508Y-1334058D01*
X9524796Y-1327759D01*
X9522866Y-1322273D01*
X9519818Y-1317396D01*
X9515703Y-1313281D01*
X9510826Y-1310233D01*
X9505340Y-1308303D01*
X9499041Y-1307592D01*
X9347758Y-1307592D01*
X9341459Y-1308303D01*
X9335973Y-1310233D01*
X9331096Y-1313281D01*
X9326981Y-1317396D01*
X9323933Y-1322273D01*
X9322003Y-1327759D01*
X9321292Y-1334058D01*
X9321292Y-1485341D01*
X9322003Y-1491640D01*
X9323933Y-1497126D01*
X9326981Y-1502003D01*
X9331096Y-1506118D01*
X9335973Y-1509166D01*
X9341459Y-1511096D01*
G37*
G36*
X10605058Y-1511808D02*
G01*
X10756341Y-1511808D01*
X10762640Y-1511096D01*
X10768126Y-1509166D01*
X10773003Y-1506118D01*
X10777118Y-1502003D01*
X10780166Y-1497126D01*
X10782096Y-1491640D01*
X10782808Y-1485341D01*
X10782808Y-1334058D01*
X10782096Y-1327759D01*
X10780166Y-1322273D01*
X10777118Y-1317396D01*
X10773003Y-1313281D01*
X10768126Y-1310233D01*
X10762640Y-1308303D01*
X10756341Y-1307592D01*
X10605058Y-1307592D01*
X10598759Y-1308303D01*
X10593273Y-1310233D01*
X10588396Y-1313281D01*
X10584281Y-1317396D01*
X10581233Y-1322273D01*
X10579303Y-1327759D01*
X10578592Y-1334058D01*
X10578592Y-1485341D01*
X10579303Y-1491640D01*
X10581233Y-1497126D01*
X10584281Y-1502003D01*
X10588396Y-1506118D01*
X10593273Y-1509166D01*
X10598759Y-1511096D01*
G37*
G36*
X9982758Y-1511808D02*
G01*
X10134041Y-1511808D01*
X10140340Y-1511096D01*
X10145826Y-1509166D01*
X10150703Y-1506118D01*
X10154818Y-1502003D01*
X10157866Y-1497126D01*
X10159796Y-1491640D01*
X10160508Y-1485341D01*
X10160508Y-1334058D01*
X10159796Y-1327759D01*
X10157866Y-1322273D01*
X10154818Y-1317396D01*
X10150703Y-1313281D01*
X10145826Y-1310233D01*
X10140340Y-1308303D01*
X10134041Y-1307592D01*
X9982758Y-1307592D01*
X9976459Y-1308303D01*
X9970973Y-1310233D01*
X9966096Y-1313281D01*
X9961981Y-1317396D01*
X9958933Y-1322273D01*
X9957003Y-1327759D01*
X9956292Y-1334058D01*
X9956292Y-1485341D01*
X9957003Y-1491640D01*
X9958933Y-1497126D01*
X9961981Y-1502003D01*
X9966096Y-1506118D01*
X9970973Y-1509166D01*
X9976459Y-1511096D01*
G37*
G36*
X9378950Y-1247495D02*
G01*
X9378950Y-1200150D01*
X9331604Y-1200150D01*
X9332264Y-1201724D01*
X9339224Y-1213459D01*
X9347708Y-1224178D01*
X9357512Y-1233678D01*
X9368485Y-1241755D01*
G37*
G36*
X10636250Y-1247495D02*
G01*
X10636250Y-1200150D01*
X10588904Y-1200150D01*
X10589564Y-1201724D01*
X10596524Y-1213459D01*
X10605008Y-1224178D01*
X10614812Y-1233678D01*
X10625785Y-1241755D01*
G37*
G36*
X10013950Y-1247495D02*
G01*
X10013950Y-1200150D01*
X9966604Y-1200150D01*
X9967264Y-1201724D01*
X9974224Y-1213459D01*
X9982708Y-1224178D01*
X9992512Y-1233678D01*
X10003485Y-1241755D01*
G37*
G36*
X9467850Y-1247343D02*
G01*
X9472472Y-1245209D01*
X9483953Y-1237894D01*
X9494367Y-1229106D01*
X9503511Y-1218946D01*
X9511233Y-1207719D01*
X9515043Y-1200150D01*
X9467850Y-1200150D01*
G37*
G36*
X10725150Y-1247343D02*
G01*
X10729772Y-1245209D01*
X10741253Y-1237894D01*
X10751667Y-1229106D01*
X10760811Y-1218946D01*
X10768533Y-1207719D01*
X10772343Y-1200150D01*
X10725150Y-1200150D01*
G37*
G36*
X10102850Y-1247343D02*
G01*
X10107472Y-1245209D01*
X10118953Y-1237894D01*
X10129367Y-1229106D01*
X10138511Y-1218946D01*
X10146233Y-1207719D01*
X10150043Y-1200150D01*
X10102850Y-1200150D01*
G37*
G36*
X1184452Y-1120140D02*
G01*
X1197864Y-1118768D01*
X1210970Y-1115669D01*
X1223568Y-1110792D01*
X1235405Y-1104341D01*
X1246225Y-1096365D01*
X1255928Y-1086967D01*
X1264259Y-1076401D01*
X1271117Y-1064818D01*
X1276400Y-1052372D01*
X1279956Y-1039418D01*
X1281734Y-1026058D01*
X1281734Y-1012545D01*
X1279956Y-999185D01*
X1276400Y-986231D01*
X1271117Y-973785D01*
X1264259Y-962202D01*
X1255928Y-951636D01*
X1246225Y-942238D01*
X1235405Y-934262D01*
X1223568Y-927811D01*
X1210970Y-922934D01*
X1197864Y-919835D01*
X1184452Y-918464D01*
X1170990Y-918921D01*
X1157732Y-921156D01*
X1144828Y-925169D01*
X1132636Y-930808D01*
X1121257Y-938072D01*
X1110945Y-946759D01*
X1101902Y-956767D01*
X1094282Y-967892D01*
X1088237Y-979932D01*
X1083818Y-992632D01*
X1081125Y-1005840D01*
X1080211Y-1019302D01*
X1081125Y-1032764D01*
X1083818Y-1045971D01*
X1088237Y-1058672D01*
X1094282Y-1070711D01*
X1101902Y-1081836D01*
X1110945Y-1091844D01*
X1121257Y-1100531D01*
X1132636Y-1107795D01*
X1144828Y-1113434D01*
X1157732Y-1117447D01*
X1170990Y-1119682D01*
G37*
G36*
X1438452Y-1120140D02*
G01*
X1451864Y-1118768D01*
X1464970Y-1115669D01*
X1477568Y-1110792D01*
X1489405Y-1104341D01*
X1500225Y-1096365D01*
X1509928Y-1086967D01*
X1518259Y-1076401D01*
X1525117Y-1064818D01*
X1530400Y-1052372D01*
X1533956Y-1039418D01*
X1535734Y-1026058D01*
X1535734Y-1012545D01*
X1533956Y-999185D01*
X1530400Y-986231D01*
X1525117Y-973785D01*
X1518259Y-962202D01*
X1509928Y-951636D01*
X1500225Y-942238D01*
X1489405Y-934262D01*
X1477568Y-927811D01*
X1464970Y-922934D01*
X1451864Y-919835D01*
X1438452Y-918464D01*
X1424990Y-918921D01*
X1411732Y-921156D01*
X1398828Y-925169D01*
X1386636Y-930808D01*
X1375257Y-938072D01*
X1364945Y-946759D01*
X1355902Y-956767D01*
X1348282Y-967892D01*
X1342237Y-979932D01*
X1337818Y-992632D01*
X1335125Y-1005840D01*
X1334211Y-1019302D01*
X1335125Y-1032764D01*
X1337818Y-1045971D01*
X1342237Y-1058672D01*
X1348282Y-1070711D01*
X1355902Y-1081836D01*
X1364945Y-1091844D01*
X1375257Y-1100531D01*
X1386636Y-1107795D01*
X1398828Y-1113434D01*
X1411732Y-1117447D01*
X1424990Y-1119682D01*
G37*
G36*
X676452Y-1120140D02*
G01*
X689864Y-1118768D01*
X702970Y-1115669D01*
X715568Y-1110792D01*
X727405Y-1104341D01*
X738225Y-1096365D01*
X747928Y-1086967D01*
X756259Y-1076401D01*
X763117Y-1064818D01*
X768400Y-1052372D01*
X771956Y-1039418D01*
X773734Y-1026058D01*
X773734Y-1012545D01*
X771956Y-999185D01*
X768400Y-986231D01*
X763117Y-973785D01*
X756259Y-962202D01*
X747928Y-951636D01*
X738225Y-942238D01*
X727405Y-934262D01*
X715568Y-927811D01*
X702970Y-922934D01*
X689864Y-919835D01*
X676452Y-918464D01*
X662990Y-918921D01*
X649732Y-921156D01*
X636828Y-925169D01*
X624636Y-930808D01*
X613257Y-938072D01*
X602945Y-946759D01*
X593902Y-956767D01*
X586282Y-967892D01*
X580237Y-979932D01*
X575818Y-992632D01*
X573125Y-1005840D01*
X572211Y-1019302D01*
X573125Y-1032764D01*
X575818Y-1045971D01*
X580237Y-1058672D01*
X586282Y-1070711D01*
X593902Y-1081836D01*
X602945Y-1091844D01*
X613257Y-1100531D01*
X624636Y-1107795D01*
X636828Y-1113434D01*
X649732Y-1117447D01*
X662990Y-1119682D01*
G37*
G36*
X930452Y-1120140D02*
G01*
X943864Y-1118768D01*
X956970Y-1115669D01*
X969568Y-1110792D01*
X981405Y-1104341D01*
X992225Y-1096365D01*
X1001928Y-1086967D01*
X1010259Y-1076401D01*
X1017117Y-1064818D01*
X1022400Y-1052372D01*
X1025956Y-1039418D01*
X1027734Y-1026058D01*
X1027734Y-1012545D01*
X1025956Y-999185D01*
X1022400Y-986231D01*
X1017117Y-973785D01*
X1010259Y-962202D01*
X1001928Y-951636D01*
X992225Y-942238D01*
X981405Y-934262D01*
X969568Y-927811D01*
X956970Y-922934D01*
X943864Y-919835D01*
X930452Y-918464D01*
X916990Y-918921D01*
X903732Y-921156D01*
X890828Y-925169D01*
X878636Y-930808D01*
X867257Y-938072D01*
X856945Y-946759D01*
X847902Y-956767D01*
X840282Y-967892D01*
X834237Y-979932D01*
X829818Y-992632D01*
X827125Y-1005840D01*
X826211Y-1019302D01*
X827125Y-1032764D01*
X829818Y-1045971D01*
X834237Y-1058672D01*
X840282Y-1070711D01*
X847902Y-1081836D01*
X856945Y-1091844D01*
X867257Y-1100531D01*
X878636Y-1107795D01*
X890828Y-1113434D01*
X903732Y-1117447D01*
X916990Y-1119682D01*
G37*
G36*
X422452Y-1120140D02*
G01*
X435864Y-1118768D01*
X448970Y-1115669D01*
X461568Y-1110792D01*
X473405Y-1104341D01*
X484225Y-1096365D01*
X493928Y-1086967D01*
X502259Y-1076401D01*
X509117Y-1064818D01*
X514400Y-1052372D01*
X517956Y-1039418D01*
X519734Y-1026058D01*
X519734Y-1012545D01*
X517956Y-999185D01*
X514400Y-986231D01*
X509117Y-973785D01*
X502259Y-962202D01*
X493928Y-951636D01*
X484225Y-942238D01*
X473405Y-934262D01*
X461568Y-927811D01*
X448970Y-922934D01*
X435864Y-919835D01*
X422452Y-918464D01*
X408990Y-918921D01*
X395732Y-921156D01*
X382828Y-925169D01*
X370636Y-930808D01*
X359257Y-938072D01*
X348945Y-946759D01*
X339902Y-956767D01*
X332282Y-967892D01*
X326237Y-979932D01*
X321818Y-992632D01*
X319125Y-1005840D01*
X318211Y-1019302D01*
X319125Y-1032764D01*
X321818Y-1045971D01*
X326237Y-1058672D01*
X332282Y-1070711D01*
X339902Y-1081836D01*
X348945Y-1091844D01*
X359257Y-1100531D01*
X370636Y-1107795D01*
X382828Y-1113434D01*
X395732Y-1117447D01*
X408990Y-1119682D01*
G37*
G36*
X1946452Y-1120140D02*
G01*
X1959864Y-1118768D01*
X1972970Y-1115669D01*
X1985568Y-1110792D01*
X1997405Y-1104341D01*
X2008225Y-1096365D01*
X2017928Y-1086967D01*
X2026259Y-1076401D01*
X2033117Y-1064818D01*
X2038400Y-1052372D01*
X2041956Y-1039418D01*
X2043734Y-1026058D01*
X2043734Y-1012545D01*
X2041956Y-999185D01*
X2038400Y-986231D01*
X2033117Y-973785D01*
X2026259Y-962202D01*
X2017928Y-951636D01*
X2008225Y-942238D01*
X1997405Y-934262D01*
X1985568Y-927811D01*
X1972970Y-922934D01*
X1959864Y-919835D01*
X1946452Y-918464D01*
X1932990Y-918921D01*
X1919732Y-921156D01*
X1906828Y-925169D01*
X1894636Y-930808D01*
X1883257Y-938072D01*
X1872945Y-946759D01*
X1863902Y-956767D01*
X1856282Y-967892D01*
X1850237Y-979932D01*
X1845818Y-992632D01*
X1843125Y-1005840D01*
X1842211Y-1019302D01*
X1843125Y-1032764D01*
X1845818Y-1045971D01*
X1850237Y-1058672D01*
X1856282Y-1070711D01*
X1863902Y-1081836D01*
X1872945Y-1091844D01*
X1883257Y-1100531D01*
X1894636Y-1107795D01*
X1906828Y-1113434D01*
X1919732Y-1117447D01*
X1932990Y-1119682D01*
G37*
G36*
X3470452Y-1120140D02*
G01*
X3483864Y-1118768D01*
X3496970Y-1115669D01*
X3509568Y-1110792D01*
X3521405Y-1104341D01*
X3532225Y-1096365D01*
X3541928Y-1086967D01*
X3550259Y-1076401D01*
X3557117Y-1064818D01*
X3562400Y-1052372D01*
X3565956Y-1039418D01*
X3567734Y-1026058D01*
X3567734Y-1012545D01*
X3565956Y-999185D01*
X3562400Y-986231D01*
X3557117Y-973785D01*
X3550259Y-962202D01*
X3541928Y-951636D01*
X3532225Y-942238D01*
X3521405Y-934262D01*
X3509568Y-927811D01*
X3496970Y-922934D01*
X3483864Y-919835D01*
X3470452Y-918464D01*
X3456990Y-918921D01*
X3443732Y-921156D01*
X3430828Y-925169D01*
X3418636Y-930808D01*
X3407257Y-938072D01*
X3396945Y-946759D01*
X3387902Y-956767D01*
X3380282Y-967892D01*
X3374237Y-979932D01*
X3369818Y-992632D01*
X3367125Y-1005840D01*
X3366211Y-1019302D01*
X3367125Y-1032764D01*
X3369818Y-1045971D01*
X3374237Y-1058672D01*
X3380282Y-1070711D01*
X3387902Y-1081836D01*
X3396945Y-1091844D01*
X3407257Y-1100531D01*
X3418636Y-1107795D01*
X3430828Y-1113434D01*
X3443732Y-1117447D01*
X3456990Y-1119682D01*
G37*
G36*
X3978452Y-1120140D02*
G01*
X3991864Y-1118768D01*
X4004970Y-1115669D01*
X4017568Y-1110792D01*
X4029405Y-1104341D01*
X4040225Y-1096365D01*
X4049928Y-1086967D01*
X4058259Y-1076401D01*
X4065117Y-1064818D01*
X4070400Y-1052372D01*
X4073956Y-1039418D01*
X4075734Y-1026058D01*
X4075734Y-1012545D01*
X4073956Y-999185D01*
X4070400Y-986231D01*
X4065117Y-973785D01*
X4058259Y-962202D01*
X4049928Y-951636D01*
X4040225Y-942238D01*
X4029405Y-934262D01*
X4017568Y-927811D01*
X4004970Y-922934D01*
X3991864Y-919835D01*
X3978452Y-918464D01*
X3964990Y-918921D01*
X3951732Y-921156D01*
X3938828Y-925169D01*
X3926636Y-930808D01*
X3915257Y-938072D01*
X3904945Y-946759D01*
X3895902Y-956767D01*
X3888282Y-967892D01*
X3882237Y-979932D01*
X3877818Y-992632D01*
X3875125Y-1005840D01*
X3874211Y-1019302D01*
X3875125Y-1032764D01*
X3877818Y-1045971D01*
X3882237Y-1058672D01*
X3888282Y-1070711D01*
X3895902Y-1081836D01*
X3904945Y-1091844D01*
X3915257Y-1100531D01*
X3926636Y-1107795D01*
X3938828Y-1113434D01*
X3951732Y-1117447D01*
X3964990Y-1119682D01*
G37*
G36*
X2200452Y-1120140D02*
G01*
X2213864Y-1118768D01*
X2226970Y-1115669D01*
X2239568Y-1110792D01*
X2251405Y-1104341D01*
X2262225Y-1096365D01*
X2271928Y-1086967D01*
X2280259Y-1076401D01*
X2287117Y-1064818D01*
X2292400Y-1052372D01*
X2295956Y-1039418D01*
X2297734Y-1026058D01*
X2297734Y-1012545D01*
X2295956Y-999185D01*
X2292400Y-986231D01*
X2287117Y-973785D01*
X2280259Y-962202D01*
X2271928Y-951636D01*
X2262225Y-942238D01*
X2251405Y-934262D01*
X2239568Y-927811D01*
X2226970Y-922934D01*
X2213864Y-919835D01*
X2200452Y-918464D01*
X2186990Y-918921D01*
X2173732Y-921156D01*
X2160828Y-925169D01*
X2148636Y-930808D01*
X2137257Y-938072D01*
X2126945Y-946759D01*
X2117902Y-956767D01*
X2110282Y-967892D01*
X2104237Y-979932D01*
X2099818Y-992632D01*
X2097125Y-1005840D01*
X2096211Y-1019302D01*
X2097125Y-1032764D01*
X2099818Y-1045971D01*
X2104237Y-1058672D01*
X2110282Y-1070711D01*
X2117902Y-1081836D01*
X2126945Y-1091844D01*
X2137257Y-1100531D01*
X2148636Y-1107795D01*
X2160828Y-1113434D01*
X2173732Y-1117447D01*
X2186990Y-1119682D01*
G37*
G36*
X3216452Y-1120140D02*
G01*
X3229864Y-1118768D01*
X3242970Y-1115669D01*
X3255568Y-1110792D01*
X3267405Y-1104341D01*
X3278225Y-1096365D01*
X3287928Y-1086967D01*
X3296259Y-1076401D01*
X3303117Y-1064818D01*
X3308400Y-1052372D01*
X3311956Y-1039418D01*
X3313734Y-1026058D01*
X3313734Y-1012545D01*
X3311956Y-999185D01*
X3308400Y-986231D01*
X3303117Y-973785D01*
X3296259Y-962202D01*
X3287928Y-951636D01*
X3278225Y-942238D01*
X3267405Y-934262D01*
X3255568Y-927811D01*
X3242970Y-922934D01*
X3229864Y-919835D01*
X3216452Y-918464D01*
X3202990Y-918921D01*
X3189732Y-921156D01*
X3176828Y-925169D01*
X3164636Y-930808D01*
X3153257Y-938072D01*
X3142945Y-946759D01*
X3133902Y-956767D01*
X3126282Y-967892D01*
X3120237Y-979932D01*
X3115818Y-992632D01*
X3113125Y-1005840D01*
X3112211Y-1019302D01*
X3113125Y-1032764D01*
X3115818Y-1045971D01*
X3120237Y-1058672D01*
X3126282Y-1070711D01*
X3133902Y-1081836D01*
X3142945Y-1091844D01*
X3153257Y-1100531D01*
X3164636Y-1107795D01*
X3176828Y-1113434D01*
X3189732Y-1117447D01*
X3202990Y-1119682D01*
G37*
G36*
X3724452Y-1120140D02*
G01*
X3737864Y-1118768D01*
X3750970Y-1115669D01*
X3763568Y-1110792D01*
X3775405Y-1104341D01*
X3786225Y-1096365D01*
X3795928Y-1086967D01*
X3804259Y-1076401D01*
X3811117Y-1064818D01*
X3816400Y-1052372D01*
X3819956Y-1039418D01*
X3821734Y-1026058D01*
X3821734Y-1012545D01*
X3819956Y-999185D01*
X3816400Y-986231D01*
X3811117Y-973785D01*
X3804259Y-962202D01*
X3795928Y-951636D01*
X3786225Y-942238D01*
X3775405Y-934262D01*
X3763568Y-927811D01*
X3750970Y-922934D01*
X3737864Y-919835D01*
X3724452Y-918464D01*
X3710990Y-918921D01*
X3697732Y-921156D01*
X3684828Y-925169D01*
X3672636Y-930808D01*
X3661257Y-938072D01*
X3650945Y-946759D01*
X3641902Y-956767D01*
X3634282Y-967892D01*
X3628237Y-979932D01*
X3623818Y-992632D01*
X3621125Y-1005840D01*
X3620211Y-1019302D01*
X3621125Y-1032764D01*
X3623818Y-1045971D01*
X3628237Y-1058672D01*
X3634282Y-1070711D01*
X3641902Y-1081836D01*
X3650945Y-1091844D01*
X3661257Y-1100531D01*
X3672636Y-1107795D01*
X3684828Y-1113434D01*
X3697732Y-1117447D01*
X3710990Y-1119682D01*
G37*
G36*
X4232452Y-1120140D02*
G01*
X4245864Y-1118768D01*
X4258970Y-1115669D01*
X4271568Y-1110792D01*
X4283405Y-1104341D01*
X4294225Y-1096365D01*
X4303928Y-1086967D01*
X4312259Y-1076401D01*
X4319117Y-1064818D01*
X4324400Y-1052372D01*
X4327956Y-1039418D01*
X4329734Y-1026058D01*
X4329734Y-1012545D01*
X4327956Y-999185D01*
X4324400Y-986231D01*
X4319117Y-973785D01*
X4312259Y-962202D01*
X4303928Y-951636D01*
X4294225Y-942238D01*
X4283405Y-934262D01*
X4271568Y-927811D01*
X4258970Y-922934D01*
X4245864Y-919835D01*
X4232452Y-918464D01*
X4218990Y-918921D01*
X4205732Y-921156D01*
X4192828Y-925169D01*
X4180636Y-930808D01*
X4169257Y-938072D01*
X4158945Y-946759D01*
X4149902Y-956767D01*
X4142282Y-967892D01*
X4136237Y-979932D01*
X4131818Y-992632D01*
X4129125Y-1005840D01*
X4128211Y-1019302D01*
X4129125Y-1032764D01*
X4131818Y-1045971D01*
X4136237Y-1058672D01*
X4142282Y-1070711D01*
X4149902Y-1081836D01*
X4158945Y-1091844D01*
X4169257Y-1100531D01*
X4180636Y-1107795D01*
X4192828Y-1113434D01*
X4205732Y-1117447D01*
X4218990Y-1119682D01*
G37*
G36*
X2454452Y-1120140D02*
G01*
X2467864Y-1118768D01*
X2480970Y-1115669D01*
X2493568Y-1110792D01*
X2505405Y-1104341D01*
X2516225Y-1096365D01*
X2525928Y-1086967D01*
X2534259Y-1076401D01*
X2541117Y-1064818D01*
X2546400Y-1052372D01*
X2549956Y-1039418D01*
X2551734Y-1026058D01*
X2551734Y-1012545D01*
X2549956Y-999185D01*
X2546400Y-986231D01*
X2541117Y-973785D01*
X2534259Y-962202D01*
X2525928Y-951636D01*
X2516225Y-942238D01*
X2505405Y-934262D01*
X2493568Y-927811D01*
X2480970Y-922934D01*
X2467864Y-919835D01*
X2454452Y-918464D01*
X2440990Y-918921D01*
X2427732Y-921156D01*
X2414828Y-925169D01*
X2402636Y-930808D01*
X2391257Y-938072D01*
X2380945Y-946759D01*
X2371902Y-956767D01*
X2364282Y-967892D01*
X2358237Y-979932D01*
X2353818Y-992632D01*
X2351125Y-1005840D01*
X2350211Y-1019302D01*
X2351125Y-1032764D01*
X2353818Y-1045971D01*
X2358237Y-1058672D01*
X2364282Y-1070711D01*
X2371902Y-1081836D01*
X2380945Y-1091844D01*
X2391257Y-1100531D01*
X2402636Y-1107795D01*
X2414828Y-1113434D01*
X2427732Y-1117447D01*
X2440990Y-1119682D01*
G37*
G36*
X2962452Y-1120140D02*
G01*
X2975864Y-1118768D01*
X2988970Y-1115669D01*
X3001568Y-1110792D01*
X3013405Y-1104341D01*
X3024225Y-1096365D01*
X3033928Y-1086967D01*
X3042259Y-1076401D01*
X3049117Y-1064818D01*
X3054400Y-1052372D01*
X3057956Y-1039418D01*
X3059734Y-1026058D01*
X3059734Y-1012545D01*
X3057956Y-999185D01*
X3054400Y-986231D01*
X3049117Y-973785D01*
X3042259Y-962202D01*
X3033928Y-951636D01*
X3024225Y-942238D01*
X3013405Y-934262D01*
X3001568Y-927811D01*
X2988970Y-922934D01*
X2975864Y-919835D01*
X2962452Y-918464D01*
X2948990Y-918921D01*
X2935732Y-921156D01*
X2922828Y-925169D01*
X2910636Y-930808D01*
X2899257Y-938072D01*
X2888945Y-946759D01*
X2879902Y-956767D01*
X2872282Y-967892D01*
X2866237Y-979932D01*
X2861818Y-992632D01*
X2859125Y-1005840D01*
X2858211Y-1019302D01*
X2859125Y-1032764D01*
X2861818Y-1045971D01*
X2866237Y-1058672D01*
X2872282Y-1070711D01*
X2879902Y-1081836D01*
X2888945Y-1091844D01*
X2899257Y-1100531D01*
X2910636Y-1107795D01*
X2922828Y-1113434D01*
X2935732Y-1117447D01*
X2948990Y-1119682D01*
G37*
G36*
X2708452Y-1120140D02*
G01*
X2721864Y-1118768D01*
X2734970Y-1115669D01*
X2747568Y-1110792D01*
X2759405Y-1104341D01*
X2770225Y-1096365D01*
X2779928Y-1086967D01*
X2788259Y-1076401D01*
X2795117Y-1064818D01*
X2800400Y-1052372D01*
X2803956Y-1039418D01*
X2805734Y-1026058D01*
X2805734Y-1012545D01*
X2803956Y-999185D01*
X2800400Y-986231D01*
X2795117Y-973785D01*
X2788259Y-962202D01*
X2779928Y-951636D01*
X2770225Y-942238D01*
X2759405Y-934262D01*
X2747568Y-927811D01*
X2734970Y-922934D01*
X2721864Y-919835D01*
X2708452Y-918464D01*
X2694990Y-918921D01*
X2681732Y-921156D01*
X2668828Y-925169D01*
X2656636Y-930808D01*
X2645257Y-938072D01*
X2634945Y-946759D01*
X2625902Y-956767D01*
X2618282Y-967892D01*
X2612237Y-979932D01*
X2607818Y-992632D01*
X2605125Y-1005840D01*
X2604211Y-1019302D01*
X2605125Y-1032764D01*
X2607818Y-1045971D01*
X2612237Y-1058672D01*
X2618282Y-1070711D01*
X2625902Y-1081836D01*
X2634945Y-1091844D01*
X2645257Y-1100531D01*
X2656636Y-1107795D01*
X2668828Y-1113434D01*
X2681732Y-1117447D01*
X2694990Y-1119682D01*
G37*
G36*
X4486452Y-1120140D02*
G01*
X4499864Y-1118768D01*
X4512970Y-1115669D01*
X4525568Y-1110792D01*
X4537405Y-1104341D01*
X4548225Y-1096365D01*
X4557928Y-1086967D01*
X4566259Y-1076401D01*
X4573117Y-1064818D01*
X4578400Y-1052372D01*
X4581956Y-1039418D01*
X4583734Y-1026058D01*
X4583734Y-1012545D01*
X4581956Y-999185D01*
X4578400Y-986231D01*
X4573117Y-973785D01*
X4566259Y-962202D01*
X4557928Y-951636D01*
X4548225Y-942238D01*
X4537405Y-934262D01*
X4525568Y-927811D01*
X4512970Y-922934D01*
X4499864Y-919835D01*
X4486452Y-918464D01*
X4472990Y-918921D01*
X4459732Y-921156D01*
X4446828Y-925169D01*
X4434636Y-930808D01*
X4423257Y-938072D01*
X4412945Y-946759D01*
X4403902Y-956767D01*
X4396282Y-967892D01*
X4390237Y-979932D01*
X4385818Y-992632D01*
X4383125Y-1005840D01*
X4382211Y-1019302D01*
X4383125Y-1032764D01*
X4385818Y-1045971D01*
X4390237Y-1058672D01*
X4396282Y-1070711D01*
X4403902Y-1081836D01*
X4412945Y-1091844D01*
X4423257Y-1100531D01*
X4434636Y-1107795D01*
X4446828Y-1113434D01*
X4459732Y-1117447D01*
X4472990Y-1119682D01*
G37*
G36*
X4740452Y-1120140D02*
G01*
X4753864Y-1118768D01*
X4766970Y-1115669D01*
X4779568Y-1110792D01*
X4791405Y-1104341D01*
X4802225Y-1096365D01*
X4811928Y-1086967D01*
X4820259Y-1076401D01*
X4827117Y-1064818D01*
X4832400Y-1052372D01*
X4835956Y-1039418D01*
X4837734Y-1026058D01*
X4837734Y-1012545D01*
X4835956Y-999185D01*
X4832400Y-986231D01*
X4827117Y-973785D01*
X4820259Y-962202D01*
X4811928Y-951636D01*
X4802225Y-942238D01*
X4791405Y-934262D01*
X4779568Y-927811D01*
X4766970Y-922934D01*
X4753864Y-919835D01*
X4740452Y-918464D01*
X4726990Y-918921D01*
X4713732Y-921156D01*
X4700828Y-925169D01*
X4688636Y-930808D01*
X4677257Y-938072D01*
X4666945Y-946759D01*
X4657902Y-956767D01*
X4650282Y-967892D01*
X4644237Y-979932D01*
X4639818Y-992632D01*
X4637125Y-1005840D01*
X4636211Y-1019302D01*
X4637125Y-1032764D01*
X4639818Y-1045971D01*
X4644237Y-1058672D01*
X4650282Y-1070711D01*
X4657902Y-1081836D01*
X4666945Y-1091844D01*
X4677257Y-1100531D01*
X4688636Y-1107795D01*
X4700828Y-1113434D01*
X4713732Y-1117447D01*
X4726990Y-1119682D01*
G37*
G36*
X4994452Y-1120140D02*
G01*
X5007864Y-1118768D01*
X5020970Y-1115669D01*
X5033568Y-1110792D01*
X5045405Y-1104341D01*
X5056225Y-1096365D01*
X5065928Y-1086967D01*
X5074259Y-1076401D01*
X5081117Y-1064818D01*
X5086400Y-1052372D01*
X5089956Y-1039418D01*
X5091734Y-1026058D01*
X5091734Y-1012545D01*
X5089956Y-999185D01*
X5086400Y-986231D01*
X5081117Y-973785D01*
X5074259Y-962202D01*
X5065928Y-951636D01*
X5056225Y-942238D01*
X5045405Y-934262D01*
X5033568Y-927811D01*
X5020970Y-922934D01*
X5007864Y-919835D01*
X4994452Y-918464D01*
X4980990Y-918921D01*
X4967732Y-921156D01*
X4954828Y-925169D01*
X4942636Y-930808D01*
X4931257Y-938072D01*
X4920945Y-946759D01*
X4911902Y-956767D01*
X4904282Y-967892D01*
X4898237Y-979932D01*
X4893818Y-992632D01*
X4891125Y-1005840D01*
X4890211Y-1019302D01*
X4891125Y-1032764D01*
X4893818Y-1045971D01*
X4898237Y-1058672D01*
X4904282Y-1070711D01*
X4911902Y-1081836D01*
X4920945Y-1091844D01*
X4931257Y-1100531D01*
X4942636Y-1107795D01*
X4954828Y-1113434D01*
X4967732Y-1117447D01*
X4980990Y-1119682D01*
G37*
G36*
X10725150Y-1111250D02*
G01*
X10772343Y-1111250D01*
X10768533Y-1103680D01*
X10760811Y-1092454D01*
X10751667Y-1082294D01*
X10741253Y-1073505D01*
X10729772Y-1066190D01*
X10725150Y-1064056D01*
G37*
G36*
X10102850Y-1111250D02*
G01*
X10150043Y-1111250D01*
X10146233Y-1103680D01*
X10138511Y-1092454D01*
X10129367Y-1082294D01*
X10118953Y-1073505D01*
X10107472Y-1066190D01*
X10102850Y-1064056D01*
G37*
G36*
X9467850Y-1111250D02*
G01*
X9515043Y-1111250D01*
X9511233Y-1103680D01*
X9503511Y-1092454D01*
X9494367Y-1082294D01*
X9483953Y-1073505D01*
X9472472Y-1066190D01*
X9467850Y-1064056D01*
G37*
G36*
X10588904Y-1111250D02*
G01*
X10636250Y-1111250D01*
X10636250Y-1063904D01*
X10625785Y-1069644D01*
X10614812Y-1077722D01*
X10605008Y-1087221D01*
X10596524Y-1097940D01*
X10589564Y-1109675D01*
G37*
G36*
X9331604Y-1111250D02*
G01*
X9378950Y-1111250D01*
X9378950Y-1063904D01*
X9368485Y-1069644D01*
X9357512Y-1077722D01*
X9347708Y-1087221D01*
X9339224Y-1097940D01*
X9332264Y-1109675D01*
G37*
G36*
X9966604Y-1111250D02*
G01*
X10013950Y-1111250D01*
X10013950Y-1063904D01*
X10003485Y-1069644D01*
X9992512Y-1077722D01*
X9982708Y-1087221D01*
X9974224Y-1097940D01*
X9967264Y-1109675D01*
G37*
G36*
X1732940Y-1110030D02*
G01*
X1743405Y-1104341D01*
X1754225Y-1096365D01*
X1763928Y-1086967D01*
X1772259Y-1076401D01*
X1779117Y-1064818D01*
X1779828Y-1063142D01*
X1732940Y-1063142D01*
G37*
G36*
X1645259Y-1109929D02*
G01*
X1645259Y-1063142D01*
X1598472Y-1063142D01*
X1602282Y-1070711D01*
X1609902Y-1081836D01*
X1618945Y-1091844D01*
X1629257Y-1100531D01*
X1640636Y-1107795D01*
G37*
G36*
X8873591Y-1008837D02*
G01*
X8888374Y-1008380D01*
X8902954Y-1006094D01*
X8917127Y-1002030D01*
X8930741Y-996289D01*
X8943492Y-988923D01*
X8955278Y-980033D01*
X8965895Y-969771D01*
X8975140Y-958240D01*
X8982913Y-945692D01*
X8989060Y-932281D01*
X8993530Y-918260D01*
X8996273Y-903732D01*
X8997188Y-889000D01*
X8996273Y-874268D01*
X8993530Y-859739D01*
X8989060Y-845718D01*
X8982913Y-832307D01*
X8975140Y-819759D01*
X8965895Y-808228D01*
X8955278Y-797966D01*
X8943492Y-789076D01*
X8930741Y-781710D01*
X8917127Y-775970D01*
X8902954Y-771906D01*
X8888374Y-769620D01*
X8873591Y-769213D01*
X8858910Y-770534D01*
X8844483Y-773684D01*
X8830564Y-778611D01*
X8817356Y-785215D01*
X8805062Y-793343D01*
X8793835Y-802944D01*
X8783929Y-813866D01*
X8775395Y-825906D01*
X8768384Y-838911D01*
X8763050Y-852678D01*
X8759494Y-866952D01*
X8757666Y-881634D01*
X8757666Y-896366D01*
X8759494Y-911047D01*
X8763050Y-925321D01*
X8768384Y-939088D01*
X8775395Y-952093D01*
X8783929Y-964133D01*
X8793835Y-975055D01*
X8805062Y-984656D01*
X8817356Y-992784D01*
X8830564Y-999388D01*
X8844483Y-1004316D01*
X8858910Y-1007465D01*
G37*
G36*
X7882991Y-1008837D02*
G01*
X7897774Y-1008380D01*
X7912353Y-1006094D01*
X7926527Y-1002030D01*
X7940141Y-996289D01*
X7952892Y-988923D01*
X7964678Y-980033D01*
X7975295Y-969771D01*
X7984540Y-958240D01*
X7992313Y-945692D01*
X7998459Y-932281D01*
X8002930Y-918260D01*
X8005673Y-903732D01*
X8006588Y-889000D01*
X8005673Y-874268D01*
X8002930Y-859739D01*
X7998459Y-845718D01*
X7992313Y-832307D01*
X7984540Y-819759D01*
X7975295Y-808228D01*
X7964678Y-797966D01*
X7952892Y-789076D01*
X7940141Y-781710D01*
X7926527Y-775970D01*
X7912353Y-771906D01*
X7897774Y-769620D01*
X7882991Y-769213D01*
X7868310Y-770534D01*
X7853883Y-773684D01*
X7839964Y-778611D01*
X7826756Y-785215D01*
X7814462Y-793343D01*
X7803235Y-802944D01*
X7793329Y-813866D01*
X7784795Y-825906D01*
X7777784Y-838911D01*
X7772450Y-852678D01*
X7768894Y-866952D01*
X7767066Y-881634D01*
X7767066Y-896366D01*
X7768894Y-911047D01*
X7772450Y-925321D01*
X7777784Y-939088D01*
X7784795Y-952093D01*
X7793329Y-964133D01*
X7803235Y-975055D01*
X7814462Y-984656D01*
X7826756Y-992784D01*
X7839964Y-999388D01*
X7853883Y-1004316D01*
X7868310Y-1007465D01*
G37*
G36*
X10054996Y-1003706D02*
G01*
X10068610Y-1003249D01*
X10082072Y-1001014D01*
X10095077Y-996950D01*
X10107472Y-991209D01*
X10118953Y-983894D01*
X10129367Y-975106D01*
X10138511Y-964946D01*
X10146233Y-953719D01*
X10152380Y-941578D01*
X10156850Y-928674D01*
X10159593Y-915314D01*
X10160508Y-901700D01*
X10159593Y-888085D01*
X10156850Y-874725D01*
X10152380Y-861821D01*
X10146233Y-849680D01*
X10138511Y-838453D01*
X10129367Y-828294D01*
X10118953Y-819505D01*
X10107472Y-812190D01*
X10095077Y-806450D01*
X10082072Y-802386D01*
X10068610Y-800150D01*
X10054996Y-799693D01*
X10041432Y-801014D01*
X10028174Y-804214D01*
X10015423Y-809091D01*
X10003485Y-815644D01*
X9992512Y-823721D01*
X9982708Y-833221D01*
X9974224Y-843940D01*
X9967264Y-855675D01*
X9961981Y-868222D01*
X9958374Y-881380D01*
X9956546Y-894892D01*
X9956546Y-908507D01*
X9958374Y-922019D01*
X9961981Y-935177D01*
X9967264Y-947724D01*
X9974224Y-959459D01*
X9982708Y-970178D01*
X9992512Y-979678D01*
X10003485Y-987755D01*
X10015423Y-994308D01*
X10028174Y-999185D01*
X10041432Y-1002385D01*
G37*
G36*
X9419996Y-1003706D02*
G01*
X9433610Y-1003249D01*
X9447072Y-1001014D01*
X9460077Y-996950D01*
X9472472Y-991209D01*
X9483953Y-983894D01*
X9494367Y-975106D01*
X9503511Y-964946D01*
X9511233Y-953719D01*
X9517380Y-941578D01*
X9521850Y-928674D01*
X9524593Y-915314D01*
X9525508Y-901700D01*
X9524593Y-888085D01*
X9521850Y-874725D01*
X9517380Y-861821D01*
X9511233Y-849680D01*
X9503511Y-838453D01*
X9494367Y-828294D01*
X9483953Y-819505D01*
X9472472Y-812190D01*
X9460077Y-806450D01*
X9447072Y-802386D01*
X9433610Y-800150D01*
X9419996Y-799693D01*
X9406432Y-801014D01*
X9393174Y-804214D01*
X9380423Y-809091D01*
X9368485Y-815644D01*
X9357512Y-823721D01*
X9347708Y-833221D01*
X9339224Y-843940D01*
X9332264Y-855675D01*
X9326981Y-868222D01*
X9323374Y-881380D01*
X9321546Y-894892D01*
X9321546Y-908507D01*
X9323374Y-922019D01*
X9326981Y-935177D01*
X9332264Y-947724D01*
X9339224Y-959459D01*
X9347708Y-970178D01*
X9357512Y-979678D01*
X9368485Y-987755D01*
X9380423Y-994308D01*
X9393174Y-999185D01*
X9406432Y-1002385D01*
G37*
G36*
X10677296Y-1003706D02*
G01*
X10690910Y-1003249D01*
X10704372Y-1001014D01*
X10717377Y-996950D01*
X10729772Y-991209D01*
X10741253Y-983894D01*
X10751667Y-975106D01*
X10760811Y-964946D01*
X10768533Y-953719D01*
X10774680Y-941578D01*
X10779150Y-928674D01*
X10781893Y-915314D01*
X10782808Y-901700D01*
X10781893Y-888085D01*
X10779150Y-874725D01*
X10774680Y-861821D01*
X10768533Y-849680D01*
X10760811Y-838453D01*
X10751667Y-828294D01*
X10741253Y-819505D01*
X10729772Y-812190D01*
X10717377Y-806450D01*
X10704372Y-802386D01*
X10690910Y-800150D01*
X10677296Y-799693D01*
X10663732Y-801014D01*
X10650474Y-804214D01*
X10637723Y-809091D01*
X10625785Y-815644D01*
X10614812Y-823721D01*
X10605008Y-833221D01*
X10596524Y-843940D01*
X10589564Y-855675D01*
X10584281Y-868222D01*
X10580674Y-881380D01*
X10578846Y-894892D01*
X10578846Y-908507D01*
X10580674Y-922019D01*
X10584281Y-935177D01*
X10589564Y-947724D01*
X10596524Y-959459D01*
X10605008Y-970178D01*
X10614812Y-979678D01*
X10625785Y-987755D01*
X10637723Y-994308D01*
X10650474Y-999185D01*
X10663732Y-1002385D01*
G37*
G36*
X1598472Y-975461D02*
G01*
X1645259Y-975461D01*
X1645259Y-928674D01*
X1640636Y-930808D01*
X1629257Y-938072D01*
X1618945Y-946759D01*
X1609902Y-956767D01*
X1602282Y-967892D01*
G37*
G36*
X1732940Y-975461D02*
G01*
X1779828Y-975461D01*
X1779117Y-973785D01*
X1772259Y-962202D01*
X1763928Y-951636D01*
X1754225Y-942238D01*
X1743405Y-934262D01*
X1732940Y-928573D01*
G37*
G36*
X426415Y-710285D02*
G01*
X428294Y-709574D01*
X437489Y-704240D01*
X445668Y-697534D01*
X452729Y-689610D01*
X458368Y-680669D01*
X460197Y-676402D01*
X426415Y-676402D01*
G37*
G36*
X11626291Y-710285D02*
G01*
X11628170Y-709574D01*
X11637365Y-704240D01*
X11645544Y-697534D01*
X11652605Y-689610D01*
X11658244Y-680669D01*
X11660073Y-676402D01*
X11626291Y-676402D01*
G37*
G36*
X373684Y-710234D02*
G01*
X373684Y-676402D01*
X339699Y-676402D01*
X344373Y-685241D01*
X350723Y-693724D01*
X358394Y-701090D01*
X367131Y-707085D01*
G37*
G36*
X11573560Y-710234D02*
G01*
X11573560Y-676402D01*
X11539575Y-676402D01*
X11544249Y-685241D01*
X11550599Y-693724D01*
X11558270Y-701090D01*
X11567007Y-707085D01*
G37*
G36*
X604215Y-638098D02*
G01*
X606094Y-637387D01*
X615289Y-632053D01*
X623468Y-625348D01*
X630529Y-617423D01*
X636168Y-608482D01*
X637997Y-604215D01*
X604215Y-604215D01*
G37*
G36*
X248615Y-638098D02*
G01*
X250494Y-637387D01*
X259689Y-632053D01*
X267868Y-625348D01*
X274929Y-617423D01*
X280568Y-608482D01*
X282397Y-604215D01*
X248615Y-604215D01*
G37*
G36*
X11804091Y-638098D02*
G01*
X11805970Y-637387D01*
X11815165Y-632053D01*
X11823344Y-625348D01*
X11830405Y-617423D01*
X11836044Y-608482D01*
X11837873Y-604215D01*
X11804091Y-604215D01*
G37*
G36*
X11448491Y-638098D02*
G01*
X11450370Y-637387D01*
X11459565Y-632053D01*
X11467744Y-625348D01*
X11474805Y-617423D01*
X11480444Y-608482D01*
X11482273Y-604215D01*
X11448491Y-604215D01*
G37*
G36*
X195884Y-638048D02*
G01*
X195884Y-604215D01*
X161899Y-604215D01*
X166573Y-613054D01*
X172923Y-621538D01*
X180594Y-628853D01*
X189331Y-634898D01*
G37*
G36*
X551484Y-638048D02*
G01*
X551484Y-604215D01*
X517499Y-604215D01*
X522173Y-613054D01*
X528523Y-621538D01*
X536194Y-628853D01*
X544931Y-634898D01*
G37*
G36*
X11751360Y-638048D02*
G01*
X11751360Y-604215D01*
X11717375Y-604215D01*
X11722049Y-613054D01*
X11728399Y-621538D01*
X11736070Y-628853D01*
X11744807Y-634898D01*
G37*
G36*
X11395760Y-638048D02*
G01*
X11395760Y-604215D01*
X11361775Y-604215D01*
X11366449Y-613054D01*
X11372799Y-621538D01*
X11380470Y-628853D01*
X11389207Y-634898D01*
G37*
G36*
X339699Y-623722D02*
G01*
X373684Y-623722D01*
X373684Y-600202D01*
X374548Y-596138D01*
X376936Y-592785D01*
X380492Y-590651D01*
X384606Y-590092D01*
X395274Y-590905D01*
X414985Y-590346D01*
X419252Y-590702D01*
X422960Y-592785D01*
X425500Y-596239D01*
X426415Y-600405D01*
X426415Y-623722D01*
X460197Y-623722D01*
X458368Y-619455D01*
X452729Y-610463D01*
X445211Y-602132D01*
X442417Y-598576D01*
X441451Y-594207D01*
X442468Y-589838D01*
X445312Y-586282D01*
X449326Y-584352D01*
X451764Y-583793D01*
X469798Y-577748D01*
X487121Y-569925D01*
X503631Y-560425D01*
X513334Y-553415D01*
X516178Y-551992D01*
X519277Y-551484D01*
X551484Y-551484D01*
X551484Y-519277D01*
X552043Y-516026D01*
X553567Y-513130D01*
X557784Y-507593D01*
X567690Y-491337D01*
X575970Y-474218D01*
X582472Y-456336D01*
X584352Y-448868D01*
X586282Y-445008D01*
X589584Y-442315D01*
X593750Y-441198D01*
X597966Y-441909D01*
X601522Y-444347D01*
X606348Y-449376D01*
X614832Y-455726D01*
X623722Y-460400D01*
X623722Y-426415D01*
X600303Y-426415D01*
X596290Y-425602D01*
X592937Y-423265D01*
X590804Y-419760D01*
X590143Y-415747D01*
X590956Y-400050D01*
X590143Y-384352D01*
X590804Y-380339D01*
X592937Y-376834D01*
X596290Y-374497D01*
X600303Y-373684D01*
X623722Y-373684D01*
X623722Y-339902D01*
X619455Y-341731D01*
X610463Y-347370D01*
X598525Y-357784D01*
X594207Y-358749D01*
X589838Y-357784D01*
X586333Y-355092D01*
X584352Y-351129D01*
X582472Y-343763D01*
X575970Y-325882D01*
X567690Y-308762D01*
X557784Y-292506D01*
X553567Y-286969D01*
X552043Y-284073D01*
X551484Y-280822D01*
X551484Y-248615D01*
X519277Y-248615D01*
X516178Y-248107D01*
X513334Y-246684D01*
X503631Y-239674D01*
X487121Y-230174D01*
X469798Y-222351D01*
X451764Y-216306D01*
X449326Y-215747D01*
X445312Y-213817D01*
X442468Y-210261D01*
X441451Y-205892D01*
X442417Y-201523D01*
X445668Y-197561D01*
X452729Y-189636D01*
X458368Y-180644D01*
X460197Y-176377D01*
X426415Y-176377D01*
X426415Y-199694D01*
X425500Y-203860D01*
X422960Y-207314D01*
X419252Y-209397D01*
X414324Y-209702D01*
X395274Y-209194D01*
X384606Y-210007D01*
X380492Y-209448D01*
X376936Y-207314D01*
X374548Y-203962D01*
X373684Y-199898D01*
X373684Y-176377D01*
X339699Y-176377D01*
X344373Y-185267D01*
X350723Y-193751D01*
X355752Y-198526D01*
X358140Y-202082D01*
X358851Y-206248D01*
X357835Y-210362D01*
X355244Y-213664D01*
X351485Y-215646D01*
X339242Y-219100D01*
X321513Y-226060D01*
X304596Y-234746D01*
X283972Y-248005D01*
X280619Y-248615D01*
X248615Y-248615D01*
X248615Y-280619D01*
X248158Y-283616D01*
X246837Y-286308D01*
X237185Y-300532D01*
X228041Y-317246D01*
X220675Y-334772D01*
X215493Y-351434D01*
X213360Y-355244D01*
X209854Y-357784D01*
X205587Y-358597D01*
X201371Y-357581D01*
X189636Y-347370D01*
X180644Y-341731D01*
X176377Y-339902D01*
X176377Y-373684D01*
X199847Y-373684D01*
X203962Y-374548D01*
X207365Y-377037D01*
X209499Y-380695D01*
X209956Y-384860D01*
X209397Y-390550D01*
X209397Y-409549D01*
X209956Y-415239D01*
X209499Y-419404D01*
X207365Y-423062D01*
X203962Y-425551D01*
X199847Y-426415D01*
X176377Y-426415D01*
X176377Y-460400D01*
X185267Y-455726D01*
X193751Y-449376D01*
X198424Y-444449D01*
X201879Y-442112D01*
X206044Y-441350D01*
X210108Y-442315D01*
X213461Y-444855D01*
X215493Y-448513D01*
X220675Y-465328D01*
X228041Y-482854D01*
X237185Y-499567D01*
X246837Y-513791D01*
X248158Y-516483D01*
X248615Y-519480D01*
X248615Y-551484D01*
X280619Y-551484D01*
X283972Y-552094D01*
X304596Y-565353D01*
X321513Y-574040D01*
X339242Y-580999D01*
X351485Y-584454D01*
X355244Y-586435D01*
X357835Y-589737D01*
X358851Y-593852D01*
X358140Y-598017D01*
X355752Y-601573D01*
X350723Y-606348D01*
X344373Y-614832D01*
G37*
G36*
X11539575Y-623722D02*
G01*
X11573560Y-623722D01*
X11573560Y-600202D01*
X11574424Y-596138D01*
X11576812Y-592785D01*
X11580368Y-590651D01*
X11584482Y-590092D01*
X11595150Y-590905D01*
X11614861Y-590346D01*
X11619128Y-590702D01*
X11622836Y-592785D01*
X11625376Y-596239D01*
X11626291Y-600405D01*
X11626291Y-623722D01*
X11660073Y-623722D01*
X11658244Y-619455D01*
X11652605Y-610463D01*
X11645087Y-602132D01*
X11642293Y-598576D01*
X11641328Y-594207D01*
X11642344Y-589838D01*
X11645188Y-586282D01*
X11649202Y-584352D01*
X11651640Y-583793D01*
X11669674Y-577748D01*
X11686997Y-569925D01*
X11703507Y-560425D01*
X11713210Y-553415D01*
X11716054Y-551992D01*
X11719153Y-551484D01*
X11751360Y-551484D01*
X11751360Y-519277D01*
X11751919Y-516026D01*
X11753443Y-513130D01*
X11757660Y-507593D01*
X11767566Y-491337D01*
X11775846Y-474218D01*
X11782348Y-456336D01*
X11784228Y-448868D01*
X11786158Y-445008D01*
X11789460Y-442315D01*
X11793626Y-441198D01*
X11797842Y-441909D01*
X11801398Y-444347D01*
X11806224Y-449376D01*
X11814708Y-455726D01*
X11823598Y-460400D01*
X11823598Y-426415D01*
X11800179Y-426415D01*
X11796166Y-425602D01*
X11792813Y-423265D01*
X11790680Y-419760D01*
X11790019Y-415747D01*
X11790832Y-400050D01*
X11790019Y-384352D01*
X11790680Y-380339D01*
X11792813Y-376834D01*
X11796166Y-374497D01*
X11800179Y-373684D01*
X11823598Y-373684D01*
X11823598Y-339902D01*
X11819331Y-341731D01*
X11810339Y-347370D01*
X11798401Y-357784D01*
X11794083Y-358749D01*
X11789714Y-357784D01*
X11786209Y-355092D01*
X11784228Y-351129D01*
X11782348Y-343763D01*
X11775846Y-325882D01*
X11767566Y-308762D01*
X11757660Y-292506D01*
X11753443Y-286969D01*
X11751919Y-284073D01*
X11751360Y-280822D01*
X11751360Y-248615D01*
X11719153Y-248615D01*
X11716054Y-248107D01*
X11713210Y-246684D01*
X11703507Y-239674D01*
X11686997Y-230174D01*
X11669674Y-222351D01*
X11651640Y-216306D01*
X11649202Y-215747D01*
X11645188Y-213817D01*
X11642344Y-210261D01*
X11641328Y-205892D01*
X11642293Y-201523D01*
X11645544Y-197561D01*
X11652605Y-189636D01*
X11658244Y-180644D01*
X11660073Y-176377D01*
X11626291Y-176377D01*
X11626291Y-199694D01*
X11625376Y-203860D01*
X11622836Y-207314D01*
X11619128Y-209397D01*
X11614200Y-209702D01*
X11595150Y-209194D01*
X11584482Y-210007D01*
X11580368Y-209448D01*
X11576812Y-207314D01*
X11574424Y-203962D01*
X11573560Y-199898D01*
X11573560Y-176377D01*
X11539575Y-176377D01*
X11544249Y-185267D01*
X11550599Y-193751D01*
X11555628Y-198526D01*
X11558016Y-202082D01*
X11558727Y-206248D01*
X11557711Y-210362D01*
X11555120Y-213664D01*
X11551361Y-215646D01*
X11539118Y-219100D01*
X11521389Y-226060D01*
X11504472Y-234746D01*
X11483848Y-248005D01*
X11480495Y-248615D01*
X11448491Y-248615D01*
X11448491Y-280619D01*
X11448034Y-283616D01*
X11446713Y-286308D01*
X11437061Y-300532D01*
X11427917Y-317246D01*
X11420551Y-334772D01*
X11415369Y-351434D01*
X11413236Y-355244D01*
X11409730Y-357784D01*
X11405463Y-358597D01*
X11401247Y-357581D01*
X11389512Y-347370D01*
X11380520Y-341731D01*
X11376253Y-339902D01*
X11376253Y-373684D01*
X11399723Y-373684D01*
X11403838Y-374548D01*
X11407241Y-377037D01*
X11409375Y-380695D01*
X11409832Y-384860D01*
X11409273Y-390550D01*
X11409273Y-409549D01*
X11409832Y-415239D01*
X11409375Y-419404D01*
X11407241Y-423062D01*
X11403838Y-425551D01*
X11399723Y-426415D01*
X11376253Y-426415D01*
X11376253Y-460400D01*
X11385143Y-455726D01*
X11393627Y-449376D01*
X11398300Y-444449D01*
X11401755Y-442112D01*
X11405920Y-441350D01*
X11409984Y-442315D01*
X11413337Y-444855D01*
X11415369Y-448513D01*
X11420551Y-465328D01*
X11427917Y-482854D01*
X11437061Y-499567D01*
X11446713Y-513791D01*
X11448034Y-516483D01*
X11448491Y-519480D01*
X11448491Y-551484D01*
X11480495Y-551484D01*
X11483848Y-552094D01*
X11504472Y-565353D01*
X11521389Y-574040D01*
X11539118Y-580999D01*
X11551361Y-584454D01*
X11555120Y-586435D01*
X11557711Y-589737D01*
X11558727Y-593852D01*
X11558016Y-598017D01*
X11555628Y-601573D01*
X11550599Y-606348D01*
X11544249Y-614832D01*
G37*
G36*
X1290878Y-615188D02*
G01*
X1477721Y-615188D01*
X1484020Y-614476D01*
X1489506Y-612546D01*
X1494383Y-609498D01*
X1498498Y-605383D01*
X1501546Y-600506D01*
X1503476Y-595020D01*
X1504188Y-588721D01*
X1504188Y-401878D01*
X1503476Y-395579D01*
X1501546Y-390093D01*
X1498498Y-385216D01*
X1494383Y-381101D01*
X1489506Y-378053D01*
X1484020Y-376123D01*
X1477721Y-375412D01*
X1290878Y-375412D01*
X1284579Y-376123D01*
X1279093Y-378053D01*
X1274216Y-381101D01*
X1270101Y-385216D01*
X1267053Y-390093D01*
X1265123Y-395579D01*
X1264412Y-401878D01*
X1264412Y-588721D01*
X1265123Y-595020D01*
X1267053Y-600506D01*
X1270101Y-605383D01*
X1274216Y-609498D01*
X1279093Y-612546D01*
X1284579Y-614476D01*
G37*
G36*
X1888591Y-615137D02*
G01*
X1903374Y-614680D01*
X1917954Y-612394D01*
X1932127Y-608330D01*
X1945741Y-602589D01*
X1958492Y-595223D01*
X1970278Y-586333D01*
X1980895Y-576072D01*
X1990140Y-564540D01*
X1997913Y-551992D01*
X2004060Y-538581D01*
X2008530Y-524560D01*
X2011273Y-510032D01*
X2012188Y-495300D01*
X2011273Y-480568D01*
X2008530Y-466039D01*
X2004060Y-452018D01*
X1997913Y-438607D01*
X1990140Y-426059D01*
X1980895Y-414528D01*
X1970278Y-404266D01*
X1958492Y-395376D01*
X1945741Y-388010D01*
X1932127Y-382270D01*
X1917954Y-378206D01*
X1903374Y-375920D01*
X1888591Y-375513D01*
X1873910Y-376834D01*
X1859483Y-379984D01*
X1845564Y-384911D01*
X1832356Y-391515D01*
X1820062Y-399643D01*
X1808835Y-409244D01*
X1798929Y-420166D01*
X1790395Y-432206D01*
X1783384Y-445211D01*
X1778050Y-458978D01*
X1774494Y-473252D01*
X1772666Y-487934D01*
X1772666Y-502666D01*
X1774494Y-517347D01*
X1778050Y-531622D01*
X1783384Y-545388D01*
X1790395Y-558393D01*
X1798929Y-570433D01*
X1808835Y-581355D01*
X1820062Y-590956D01*
X1832356Y-599084D01*
X1845564Y-605688D01*
X1859483Y-610616D01*
X1873910Y-613765D01*
G37*
G36*
X2879191Y-615137D02*
G01*
X2893974Y-614680D01*
X2908554Y-612394D01*
X2922727Y-608330D01*
X2936341Y-602589D01*
X2949092Y-595223D01*
X2960878Y-586333D01*
X2971495Y-576072D01*
X2980740Y-564540D01*
X2988513Y-551992D01*
X2994660Y-538581D01*
X2999130Y-524560D01*
X3001873Y-510032D01*
X3002788Y-495300D01*
X3001873Y-480568D01*
X2999130Y-466039D01*
X2994660Y-452018D01*
X2988513Y-438607D01*
X2980740Y-426059D01*
X2971495Y-414528D01*
X2960878Y-404266D01*
X2949092Y-395376D01*
X2936341Y-388010D01*
X2922727Y-382270D01*
X2908554Y-378206D01*
X2893974Y-375920D01*
X2879191Y-375513D01*
X2864510Y-376834D01*
X2850083Y-379984D01*
X2836164Y-384911D01*
X2822956Y-391515D01*
X2810662Y-399643D01*
X2799435Y-409244D01*
X2789529Y-420166D01*
X2780995Y-432206D01*
X2773984Y-445211D01*
X2768650Y-458978D01*
X2765094Y-473252D01*
X2763266Y-487934D01*
X2763266Y-502666D01*
X2765094Y-517347D01*
X2768650Y-531622D01*
X2773984Y-545388D01*
X2780995Y-558393D01*
X2789529Y-570433D01*
X2799435Y-581355D01*
X2810662Y-590956D01*
X2822956Y-599084D01*
X2836164Y-605688D01*
X2850083Y-610616D01*
X2864510Y-613765D01*
G37*
G36*
X1076960Y-602640D02*
G01*
X1076960Y-548640D01*
X1023162Y-548640D01*
X1024686Y-551992D01*
X1032459Y-564540D01*
X1041704Y-576072D01*
X1052322Y-586333D01*
X1064107Y-595223D01*
G37*
G36*
X4207408Y-602437D02*
G01*
X4222089Y-601065D01*
X4236516Y-597916D01*
X4250436Y-592988D01*
X4263644Y-586384D01*
X4275937Y-578256D01*
X4287164Y-568655D01*
X4297070Y-557733D01*
X4305604Y-545693D01*
X4312615Y-532688D01*
X4317949Y-518922D01*
X4321505Y-504647D01*
X4323334Y-489966D01*
X4323334Y-475234D01*
X4321505Y-460552D01*
X4317949Y-446278D01*
X4312615Y-432511D01*
X4305604Y-419506D01*
X4297070Y-407466D01*
X4287164Y-396544D01*
X4275937Y-386943D01*
X4263644Y-378815D01*
X4250436Y-372211D01*
X4236516Y-367284D01*
X4222089Y-364134D01*
X4207408Y-362813D01*
X4192625Y-363220D01*
X4178046Y-365506D01*
X4163872Y-369570D01*
X4150258Y-375310D01*
X4137507Y-382676D01*
X4125722Y-391566D01*
X4115104Y-401828D01*
X4105859Y-413359D01*
X4098086Y-425907D01*
X4091940Y-439318D01*
X4087469Y-453339D01*
X4084726Y-467868D01*
X4083812Y-482600D01*
X4084726Y-497332D01*
X4087469Y-511860D01*
X4091940Y-525881D01*
X4098086Y-539292D01*
X4105859Y-551840D01*
X4115104Y-563372D01*
X4125722Y-573633D01*
X4137507Y-582523D01*
X4150258Y-589889D01*
X4163872Y-595630D01*
X4178046Y-599694D01*
X4192625Y-601980D01*
G37*
G36*
X5198008Y-602437D02*
G01*
X5212689Y-601065D01*
X5227116Y-597916D01*
X5241036Y-592988D01*
X5254244Y-586384D01*
X5266537Y-578256D01*
X5277764Y-568655D01*
X5287670Y-557733D01*
X5296204Y-545693D01*
X5303215Y-532688D01*
X5308549Y-518922D01*
X5312105Y-504647D01*
X5313934Y-489966D01*
X5313934Y-475234D01*
X5312105Y-460552D01*
X5308549Y-446278D01*
X5303215Y-432511D01*
X5296204Y-419506D01*
X5287670Y-407466D01*
X5277764Y-396544D01*
X5266537Y-386943D01*
X5254244Y-378815D01*
X5241036Y-372211D01*
X5227116Y-367284D01*
X5212689Y-364134D01*
X5198008Y-362813D01*
X5183225Y-363220D01*
X5168646Y-365506D01*
X5154472Y-369570D01*
X5140858Y-375310D01*
X5128107Y-382676D01*
X5116322Y-391566D01*
X5105704Y-401828D01*
X5096459Y-413359D01*
X5088686Y-425907D01*
X5082540Y-439318D01*
X5078069Y-453339D01*
X5075326Y-467868D01*
X5074412Y-482600D01*
X5075326Y-497332D01*
X5078069Y-511860D01*
X5082540Y-525881D01*
X5088686Y-539292D01*
X5096459Y-551840D01*
X5105704Y-563372D01*
X5116322Y-573633D01*
X5128107Y-582523D01*
X5140858Y-589889D01*
X5154472Y-595630D01*
X5168646Y-599694D01*
X5183225Y-601980D01*
G37*
G36*
X1183640Y-602386D02*
G01*
X1190244Y-599084D01*
X1202537Y-590956D01*
X1213764Y-581355D01*
X1223670Y-570433D01*
X1232204Y-558393D01*
X1237437Y-548640D01*
X1183640Y-548640D01*
G37*
G36*
X3611372Y-578256D02*
G01*
X3624427Y-578256D01*
X3637432Y-576478D01*
X3650030Y-572973D01*
X3662019Y-567740D01*
X3673195Y-560933D01*
X3683355Y-552653D01*
X3692296Y-543102D01*
X3699814Y-532434D01*
X3705860Y-520801D01*
X3710228Y-508457D01*
X3712870Y-495655D01*
X3713784Y-482600D01*
X3712870Y-469544D01*
X3710228Y-456742D01*
X3705860Y-444398D01*
X3699814Y-432765D01*
X3692296Y-422097D01*
X3683355Y-412546D01*
X3673195Y-404266D01*
X3662019Y-397459D01*
X3650030Y-392277D01*
X3637432Y-388721D01*
X3624427Y-386943D01*
X3611372Y-386943D01*
X3598367Y-388721D01*
X3585768Y-392277D01*
X3573779Y-397459D01*
X3562604Y-404266D01*
X3552444Y-412546D01*
X3543503Y-422097D01*
X3535984Y-432765D01*
X3529939Y-444398D01*
X3527450Y-451358D01*
X3526536Y-452932D01*
X3525570Y-456742D01*
X3522929Y-469544D01*
X3522014Y-482600D01*
X3522929Y-495655D01*
X3525570Y-508457D01*
X3526536Y-512267D01*
X3527450Y-513842D01*
X3529939Y-520801D01*
X3535984Y-532434D01*
X3543503Y-543102D01*
X3552444Y-552653D01*
X3562604Y-560933D01*
X3573779Y-567740D01*
X3585768Y-572973D01*
X3598367Y-576478D01*
G37*
G36*
X3459226Y-568909D02*
G01*
X3462020Y-567740D01*
X3473196Y-560933D01*
X3483356Y-552653D01*
X3492296Y-543102D01*
X3499815Y-532434D01*
X3504234Y-523951D01*
X3459226Y-523951D01*
G37*
G36*
X3376574Y-568909D02*
G01*
X3376574Y-523951D01*
X3331565Y-523951D01*
X3335985Y-532434D01*
X3343503Y-543102D01*
X3352444Y-552653D01*
X3362604Y-560933D01*
X3373780Y-567740D01*
G37*
G36*
X604215Y-551484D02*
G01*
X637997Y-551484D01*
X636168Y-547217D01*
X630529Y-538276D01*
X623468Y-530352D01*
X615289Y-523646D01*
X606094Y-518312D01*
X604215Y-517601D01*
G37*
G36*
X11804091Y-551484D02*
G01*
X11837873Y-551484D01*
X11836044Y-547217D01*
X11830405Y-538276D01*
X11823344Y-530352D01*
X11815165Y-523646D01*
X11805970Y-518312D01*
X11804091Y-517601D01*
G37*
G36*
X161899Y-551484D02*
G01*
X195884Y-551484D01*
X195884Y-517651D01*
X189331Y-520801D01*
X180594Y-526846D01*
X172923Y-534162D01*
X166573Y-542645D01*
G37*
G36*
X11361775Y-551484D02*
G01*
X11395760Y-551484D01*
X11395760Y-517651D01*
X11389207Y-520801D01*
X11380470Y-526846D01*
X11372799Y-534162D01*
X11366449Y-542645D01*
G37*
G36*
X123698Y-460400D02*
G01*
X123698Y-426415D01*
X89865Y-426415D01*
X93014Y-432968D01*
X99009Y-441706D01*
X106375Y-449376D01*
X114858Y-455726D01*
G37*
G36*
X676402Y-460400D02*
G01*
X685241Y-455726D01*
X693724Y-449376D01*
X701090Y-441706D01*
X707085Y-432968D01*
X710234Y-426415D01*
X676402Y-426415D01*
G37*
G36*
X11876278Y-460400D02*
G01*
X11885117Y-455726D01*
X11893600Y-449376D01*
X11900966Y-441706D01*
X11906961Y-432968D01*
X11910110Y-426415D01*
X11876278Y-426415D01*
G37*
G36*
X11323574Y-460400D02*
G01*
X11323574Y-426415D01*
X11289741Y-426415D01*
X11292890Y-432968D01*
X11298885Y-441706D01*
X11306251Y-449376D01*
X11314734Y-455726D01*
G37*
G36*
X1183640Y-441959D02*
G01*
X1237437Y-441959D01*
X1232204Y-432206D01*
X1223670Y-420166D01*
X1213764Y-409244D01*
X1202537Y-399643D01*
X1190244Y-391515D01*
X1183640Y-388213D01*
G37*
G36*
X1023162Y-441959D02*
G01*
X1076960Y-441959D01*
X1076960Y-387959D01*
X1064107Y-395376D01*
X1052322Y-404266D01*
X1041704Y-414528D01*
X1032459Y-426059D01*
X1024686Y-438607D01*
G37*
G36*
X3459226Y-441248D02*
G01*
X3504234Y-441248D01*
X3499815Y-432765D01*
X3492296Y-422097D01*
X3483356Y-412546D01*
X3473196Y-404266D01*
X3462020Y-397459D01*
X3459226Y-396290D01*
G37*
G36*
X3331565Y-441248D02*
G01*
X3376574Y-441248D01*
X3376574Y-396290D01*
X3373780Y-397459D01*
X3362604Y-404266D01*
X3352444Y-412546D01*
X3343503Y-422097D01*
X3335985Y-432765D01*
G37*
G36*
X89814Y-373684D02*
G01*
X123698Y-373684D01*
X123698Y-339902D01*
X119430Y-341731D01*
X110489Y-347370D01*
X102565Y-354431D01*
X95859Y-362610D01*
X90525Y-371805D01*
G37*
G36*
X676402Y-373684D02*
G01*
X710285Y-373684D01*
X709574Y-371805D01*
X704240Y-362610D01*
X697534Y-354431D01*
X689610Y-347370D01*
X680669Y-341731D01*
X676402Y-339902D01*
G37*
G36*
X11876278Y-373684D02*
G01*
X11910161Y-373684D01*
X11909450Y-371805D01*
X11904116Y-362610D01*
X11897410Y-354431D01*
X11889486Y-347370D01*
X11880545Y-341731D01*
X11876278Y-339902D01*
G37*
G36*
X11289690Y-373684D02*
G01*
X11323574Y-373684D01*
X11323574Y-339902D01*
X11319306Y-341731D01*
X11310366Y-347370D01*
X11302441Y-354431D01*
X11295735Y-362610D01*
X11290401Y-371805D01*
G37*
G36*
X604215Y-282498D02*
G01*
X606094Y-281787D01*
X615289Y-276453D01*
X623468Y-269748D01*
X630529Y-261823D01*
X636168Y-252882D01*
X637997Y-248615D01*
X604215Y-248615D01*
G37*
G36*
X11804091Y-282498D02*
G01*
X11805970Y-281787D01*
X11815165Y-276453D01*
X11823344Y-269748D01*
X11830405Y-261823D01*
X11836044Y-252882D01*
X11837873Y-248615D01*
X11804091Y-248615D01*
G37*
G36*
X195884Y-282448D02*
G01*
X195884Y-248615D01*
X161899Y-248615D01*
X166573Y-257454D01*
X172923Y-265938D01*
X180594Y-273253D01*
X189331Y-279298D01*
G37*
G36*
X11395760Y-282448D02*
G01*
X11395760Y-248615D01*
X11361775Y-248615D01*
X11366449Y-257454D01*
X11372799Y-265938D01*
X11380470Y-273253D01*
X11389207Y-279298D01*
G37*
G36*
X248615Y-195884D02*
G01*
X282397Y-195884D01*
X280568Y-191617D01*
X274929Y-182676D01*
X267868Y-174752D01*
X259689Y-168046D01*
X250494Y-162712D01*
X248615Y-162001D01*
G37*
G36*
X604215Y-195884D02*
G01*
X637997Y-195884D01*
X636168Y-191617D01*
X630529Y-182676D01*
X623468Y-174752D01*
X615289Y-168046D01*
X606094Y-162712D01*
X604215Y-162001D01*
G37*
G36*
X11804091Y-195884D02*
G01*
X11837873Y-195884D01*
X11836044Y-191617D01*
X11830405Y-182676D01*
X11823344Y-174752D01*
X11815165Y-168046D01*
X11805970Y-162712D01*
X11804091Y-162001D01*
G37*
G36*
X11448491Y-195884D02*
G01*
X11482273Y-195884D01*
X11480444Y-191617D01*
X11474805Y-182676D01*
X11467744Y-174752D01*
X11459565Y-168046D01*
X11450370Y-162712D01*
X11448491Y-162001D01*
G37*
G36*
X161899Y-195884D02*
G01*
X195884Y-195884D01*
X195884Y-162052D01*
X189331Y-165201D01*
X180594Y-171246D01*
X172923Y-178562D01*
X166573Y-187045D01*
G37*
G36*
X517499Y-195884D02*
G01*
X551484Y-195884D01*
X551484Y-162052D01*
X544931Y-165201D01*
X536194Y-171246D01*
X528523Y-178562D01*
X522173Y-187045D01*
G37*
G36*
X11717375Y-195884D02*
G01*
X11751360Y-195884D01*
X11751360Y-162052D01*
X11744807Y-165201D01*
X11736070Y-171246D01*
X11728399Y-178562D01*
X11722049Y-187045D01*
G37*
G36*
X11361775Y-195884D02*
G01*
X11395760Y-195884D01*
X11395760Y-162052D01*
X11389207Y-165201D01*
X11380470Y-171246D01*
X11372799Y-178562D01*
X11366449Y-187045D01*
G37*
G36*
X426415Y-123698D02*
G01*
X460197Y-123698D01*
X458368Y-119430D01*
X452729Y-110489D01*
X445668Y-102565D01*
X437489Y-95859D01*
X428294Y-90525D01*
X426415Y-89814D01*
G37*
G36*
X11626291Y-123698D02*
G01*
X11660073Y-123698D01*
X11658244Y-119430D01*
X11652605Y-110489D01*
X11645544Y-102565D01*
X11637365Y-95859D01*
X11628170Y-90525D01*
X11626291Y-89814D01*
G37*
G36*
X339699Y-123698D02*
G01*
X373684Y-123698D01*
X373684Y-89865D01*
X367131Y-93014D01*
X358394Y-99009D01*
X350723Y-106375D01*
X344373Y-114858D01*
G37*
G36*
X11539575Y-123698D02*
G01*
X11573560Y-123698D01*
X11573560Y-89865D01*
X11567007Y-93014D01*
X11558270Y-99009D01*
X11550599Y-106375D01*
X11544249Y-114858D01*
G37*

%LPD*%
G36*
X1801114Y-3631234D02*
G01*
X1745589Y-3697020D01*
X1886610Y-3697020D01*
X1831086Y-3631234D01*
G37*
G36*
X10250220Y-4247489D02*
G01*
X10184434Y-4303014D01*
X10184434Y-4332986D01*
X10250220Y-4388510D01*
G37*
G36*
X3419805Y-4409033D02*
G01*
X3439820Y-4465015D01*
X3519779Y-4465015D01*
X3539794Y-4409033D01*
G37*
G36*
X2258669Y-3206496D02*
G01*
X2192426Y-3214471D01*
X2271928Y-3293973D01*
X2279904Y-3227730D01*
G37*
G36*
X2004669Y-3206496D02*
G01*
X1938426Y-3214471D01*
X2017928Y-3293973D01*
X2025904Y-3227730D01*
G37*
G36*
X4564329Y-1765909D02*
G01*
X4529328Y-1788414D01*
X4529328Y-1818386D01*
X4564329Y-1840890D01*
G37*
G36*
X4564329Y-1918309D02*
G01*
X4529328Y-1940814D01*
X4529328Y-1970786D01*
X4564329Y-1993290D01*
G37*
G36*
X9549841Y-4678375D02*
G01*
X9509150Y-4687214D01*
X9562185Y-4740249D01*
X9571024Y-4699558D01*
G37*
G36*
X4564329Y-1613509D02*
G01*
X4529328Y-1636014D01*
X4529328Y-1665986D01*
X4564329Y-1688490D01*
G37*
G36*
X5925667Y-6199327D02*
G01*
X5866993Y-6253784D01*
X5909614Y-6377990D01*
X6056172Y-6241897D01*
G37*
D10*
X10312400Y-5308600D02*
G01*
X10312400Y-5334000D01*
X10071100Y-5575300D01*
X10071100Y-6388100D01*
X10198100Y-6515100D01*
X8826500Y-6223000D02*
G01*
X9601200Y-6223000D01*
X9944100Y-5880100D01*
X1816100Y-3759200D02*
G01*
X1816100Y-3175000D01*
X3340100Y-1651000D01*
X4597400Y-1651000D01*
X4597400Y-1955800D02*
G01*
X3530600Y-1955800D01*
X2197100Y-3289300D01*
X4597400Y-1803400D02*
G01*
X3429000Y-1803400D01*
X1943100Y-3289300D01*
X10312400Y-4318000D02*
G01*
X9931400Y-4318000D01*
X9512300Y-4737100D01*
D11*
X5981700Y-6311897D02*
G01*
X5626102Y-5956300D01*
X4127500Y-5956300D01*
X3479800Y-5308600D01*
X3479800Y-4356100D01*
D12*
G01*
X1335404Y-5350789D03*
D13*
G01*
X965403Y-4895799D03*
G01*
X1595373Y-4898262D03*
D11*
G01*
X11599925Y-150063D03*
G01*
X11599925Y-650062D03*
G01*
X11349939Y-400050D03*
G01*
X11849938Y-400050D03*
G01*
X11777725Y-222250D03*
G01*
X11422125Y-222250D03*
G01*
X11777725Y-577850D03*
G01*
X11422125Y-577850D03*
G01*
X400050Y-6349949D03*
G01*
X400050Y-6849948D03*
G01*
X150063Y-6599936D03*
G01*
X650062Y-6599936D03*
G01*
X577850Y-6422136D03*
G01*
X222250Y-6422136D03*
G01*
X577850Y-6777736D03*
G01*
X222250Y-6777736D03*
G01*
X11599925Y-6349949D03*
G01*
X11599925Y-6849948D03*
G01*
X11349939Y-6599936D03*
G01*
X11849938Y-6599936D03*
G01*
X11777725Y-6422136D03*
G01*
X11422125Y-6422136D03*
G01*
X11777725Y-6777736D03*
G01*
X11422125Y-6777736D03*
G01*
X400050Y-150063D03*
G01*
X400050Y-650062D03*
G01*
X150063Y-400050D03*
G01*
X650062Y-400050D03*
G01*
X577850Y-222250D03*
G01*
X222250Y-222250D03*
G01*
X577850Y-577850D03*
G01*
X222250Y-577850D03*
D14*
G01*
X1130300Y-6134100D03*
G01*
X3289300Y-6134100D03*
D15*
G01*
X4099610Y-6595897D03*
G01*
X4099610Y-6341897D03*
D16*
G01*
X4099610Y-5469102D03*
G01*
X4099610Y-5215102D03*
G01*
X6009589Y-5215102D03*
G01*
X6009589Y-5469102D03*
D15*
G01*
X6009589Y-6341897D03*
G01*
X6009589Y-6595897D03*
D18*
G01*
X4686300Y-3975100D03*
G01*
X4130700Y-3975100D03*
G01*
X1651000Y-4267200D03*
G01*
X2206599Y-4267200D03*
D19*
G01*
X7886700Y-889000D03*
G01*
X8877300Y-889000D03*
G01*
X5194300Y-482600D03*
G01*
X4203700Y-482600D03*
G01*
X1892300Y-495300D03*
G01*
X2882900Y-495300D03*
G01*
X1816100Y-3759200D03*
G01*
X825500Y-3759200D03*
G01*
X10731500Y-4318000D03*
G01*
X10731500Y-5308600D03*
G01*
X10312400Y-5308600D03*
G01*
X10312400Y-4318000D03*
G01*
X8978900Y-3302000D03*
G01*
X9969500Y-3302000D03*
D20*
G01*
X5537200Y-4140200D03*
G01*
X6045200Y-4140200D03*
G01*
X3479800Y-4356100D03*
G01*
X2971800Y-4356100D03*
D21*
G01*
X4991100Y-1019302D03*
G01*
X4737100Y-1019302D03*
G01*
X4483100Y-1019302D03*
G01*
X4229100Y-1019302D03*
G01*
X3975100Y-1019302D03*
G01*
X3721100Y-1019302D03*
G01*
X3467100Y-1019302D03*
G01*
X3213100Y-1019302D03*
G01*
X2959100Y-1019302D03*
G01*
X2705100Y-1019302D03*
G01*
X2451100Y-1019302D03*
G01*
X2197100Y-1019302D03*
G01*
X1943100Y-1019302D03*
G01*
X1689100Y-1019302D03*
G01*
X1435100Y-1019302D03*
G01*
X1181100Y-1019302D03*
G01*
X927100Y-1019302D03*
G01*
X673100Y-1019302D03*
G01*
X419100Y-1019302D03*
G01*
X4991100Y-3289300D03*
G01*
X4737100Y-3289300D03*
G01*
X4483100Y-3289300D03*
G01*
X4229100Y-3289300D03*
G01*
X3975100Y-3289300D03*
G01*
X3721100Y-3289300D03*
G01*
X3467100Y-3289300D03*
G01*
X3213100Y-3289300D03*
G01*
X2959100Y-3289300D03*
G01*
X2705100Y-3289300D03*
G01*
X2451100Y-3289300D03*
G01*
X2197100Y-3289300D03*
G01*
X1943100Y-3289300D03*
G01*
X1689100Y-3289300D03*
G01*
X1435100Y-3289300D03*
G01*
X1181100Y-3289300D03*
G01*
X927100Y-3289300D03*
G01*
X673100Y-3289300D03*
G01*
X419100Y-3289300D03*
D22*
G01*
X10680700Y-901700D03*
G01*
X10680700Y-1155700D03*
D23*
G01*
X10680700Y-1409700D03*
D22*
G01*
X10058400Y-901700D03*
G01*
X10058400Y-1155700D03*
D23*
G01*
X10058400Y-1409700D03*
D22*
G01*
X9423400Y-901700D03*
G01*
X9423400Y-1155700D03*
D23*
G01*
X9423400Y-1409700D03*
D22*
G01*
X9944100Y-5880100D03*
G01*
X10198100Y-5880100D03*
D23*
G01*
X10452100Y-5880100D03*
D22*
G01*
X10706100Y-5880100D03*
G01*
X9944100Y-6515100D03*
G01*
X10198100Y-6515100D03*
D23*
G01*
X10452100Y-6515100D03*
D22*
G01*
X10706100Y-6515100D03*
D19*
G01*
X8826500Y-6223000D03*
G01*
X8572500Y-6223000D03*
G01*
X8318500Y-6223000D03*
G01*
X8064500Y-6223000D03*
G01*
X7810500Y-6223000D03*
G01*
X7556500Y-6223000D03*
G01*
X7556500Y-5207000D03*
G01*
X7810500Y-5207000D03*
G01*
X8064500Y-5207000D03*
G01*
X8318500Y-5207000D03*
G01*
X8572500Y-5207000D03*
G01*
X8826500Y-5207000D03*
D24*
G01*
X3617899Y-482600D03*
G01*
X3417900Y-482600D03*
D19*
G01*
X1130300Y-495300D03*
D25*
G01*
X1384300Y-495300D03*
D26*
G01*
X10502900Y-3429000D03*
D27*
G01*
X10502900Y-3302000D03*
G01*
X10502900Y-3175000D03*
D19*
G01*
X11290300Y-3441700D03*
D25*
G01*
X11290300Y-3187700D03*
D27*
G01*
X4597400Y-1803400D03*
G01*
X4597400Y-1955800D03*
G01*
X9512300Y-4737100D03*
G01*
X4597400Y-1651000D03*
M02*
