G04 Layer: TopSilkscreenLayer*
G04 EasyEDA v6.5.57, 2026-08-28 16:13:09*
G04 5e0a217a3e3e4001abd121eb4e72d0a8,73b71592eb5d450092b712373c5d4a3f,10*
G04 Gerber Generator version 0.2*
G04 Scale: 100 percent, Rotated: No, Reflected: No *
G04 Dimensions in millimeters *
G04 leading zeros omitted , absolute positions ,4 integer and 5 decimal *
%FSLAX45Y45*%
%MOMM*%

%ADD10C,0.1524*%
%ADD11C,0.0800*%
%ADD12C,0.2032*%
%ADD13C,0.2540*%
%ADD14C,0.0762*%
%ADD15C,0.0178*%

%LPD*%
G36*
X1426921Y-1121511D02*
G01*
X1411478Y-1121562D01*
X1407668Y-1123696D01*
X1383588Y-1125016D01*
X1382674Y-1127861D01*
X1376273Y-1127861D01*
X1369568Y-1131366D01*
X1354632Y-1138224D01*
X1345946Y-1146911D01*
X1343507Y-1146911D01*
X1343507Y-1150416D01*
X1340256Y-1151686D01*
X1335278Y-1161491D01*
X1332077Y-1163523D01*
X1331976Y-1169111D01*
X1328267Y-1174038D01*
X1328166Y-1180541D01*
X1324457Y-1185468D01*
X1324457Y-1197203D01*
X1321257Y-1200353D01*
X1320596Y-1528521D01*
X1326388Y-1532940D01*
X1411579Y-1532991D01*
X1414627Y-1529943D01*
X1414627Y-1228445D01*
X1418437Y-1226972D01*
X1418437Y-1223111D01*
X1424178Y-1217371D01*
X1436878Y-1217371D01*
X1442567Y-1222400D01*
X1442567Y-1225346D01*
X1446377Y-1228496D01*
X1446377Y-1235303D01*
X1450136Y-1240231D01*
X1450187Y-1246733D01*
X1453946Y-1251661D01*
X1453997Y-1259433D01*
X1457756Y-1264361D01*
X1457807Y-1272743D01*
X1461312Y-1279601D01*
X1463040Y-1291640D01*
X1465427Y-1293114D01*
X1465427Y-1300073D01*
X1469186Y-1305001D01*
X1469237Y-1312773D01*
X1472996Y-1317701D01*
X1473047Y-1326743D01*
X1476806Y-1331671D01*
X1476857Y-1341018D01*
X1480667Y-1344828D01*
X1480667Y-1353413D01*
X1484426Y-1358341D01*
X1484477Y-1366113D01*
X1488236Y-1371041D01*
X1488287Y-1379423D01*
X1491792Y-1386332D01*
X1493520Y-1398320D01*
X1495755Y-1399692D01*
X1497482Y-1411122D01*
X1499717Y-1412494D01*
X1499717Y-1419504D01*
X1503476Y-1424432D01*
X1503527Y-1432458D01*
X1507337Y-1436319D01*
X1507337Y-1446174D01*
X1511096Y-1451102D01*
X1511147Y-1459179D01*
X1514957Y-1462989D01*
X1514957Y-1472844D01*
X1518716Y-1477772D01*
X1518767Y-1483715D01*
X1525168Y-1495552D01*
X1527505Y-1500987D01*
X1547672Y-1521155D01*
X1573682Y-1534261D01*
X1578660Y-1534261D01*
X1582470Y-1538071D01*
X1594358Y-1538173D01*
X1599285Y-1541881D01*
X1658010Y-1541881D01*
X1662938Y-1538173D01*
X1669440Y-1538071D01*
X1674368Y-1534363D01*
X1679448Y-1534261D01*
X1692808Y-1525066D01*
X1692808Y-1522831D01*
X1696618Y-1522831D01*
X1696618Y-1519021D01*
X1700428Y-1519021D01*
X1700428Y-1515211D01*
X1704238Y-1515211D01*
X1704238Y-1512773D01*
X1711198Y-1505559D01*
X1716278Y-1495552D01*
X1719478Y-1492199D01*
X1719529Y-1485392D01*
X1723288Y-1480464D01*
X1723288Y-1472539D01*
X1726438Y-1469390D01*
X1726438Y-1132281D01*
X1633728Y-1132281D01*
X1632457Y-1433322D01*
X1631391Y-1435862D01*
X1633321Y-1442618D01*
X1627378Y-1448562D01*
X1614678Y-1448562D01*
X1609039Y-1442872D01*
X1607413Y-1436471D01*
X1605178Y-1436471D01*
X1605178Y-1426210D01*
X1601368Y-1424787D01*
X1601368Y-1417726D01*
X1597507Y-1414576D01*
X1597507Y-1406499D01*
X1593799Y-1401572D01*
X1593697Y-1392529D01*
X1589989Y-1387551D01*
X1589887Y-1379829D01*
X1586179Y-1374851D01*
X1586026Y-1365961D01*
X1582369Y-1359611D01*
X1582267Y-1353159D01*
X1578559Y-1348181D01*
X1578457Y-1339799D01*
X1575003Y-1332941D01*
X1573276Y-1320952D01*
X1570837Y-1319479D01*
X1570837Y-1311910D01*
X1567027Y-1310436D01*
X1567027Y-1299768D01*
X1563319Y-1294841D01*
X1563217Y-1284528D01*
X1559509Y-1279601D01*
X1559407Y-1271524D01*
X1555597Y-1267714D01*
X1555597Y-1259128D01*
X1551889Y-1254201D01*
X1551787Y-1245311D01*
X1547977Y-1238046D01*
X1547926Y-1232611D01*
X1544269Y-1226261D01*
X1544167Y-1220825D01*
X1540205Y-1207211D01*
X1536547Y-1200048D01*
X1536547Y-1194917D01*
X1530197Y-1183081D01*
X1527759Y-1177391D01*
X1525422Y-1177391D01*
X1523796Y-1171041D01*
X1521307Y-1171041D01*
X1521307Y-1167130D01*
X1517497Y-1165656D01*
X1517497Y-1162151D01*
X1513687Y-1162151D01*
X1513687Y-1158798D01*
X1505305Y-1150721D01*
X1503426Y-1150721D01*
X1497126Y-1143914D01*
X1492351Y-1141171D01*
X1480058Y-1134821D01*
X1478026Y-1131671D01*
X1472438Y-1131570D01*
X1467510Y-1127861D01*
X1461008Y-1127760D01*
X1454658Y-1124102D01*
X1443990Y-1124051D01*
X1442415Y-1121511D01*
G37*
G36*
X1891233Y-1124051D02*
G01*
X1888083Y-1127861D01*
X1879244Y-1127861D01*
X1860245Y-1137361D01*
X1854098Y-1140663D01*
X1854098Y-1143101D01*
X1849170Y-1143101D01*
X1828038Y-1164031D01*
X1822957Y-1174191D01*
X1821586Y-1175461D01*
X1815998Y-1186332D01*
X1815998Y-1191056D01*
X1812188Y-1198321D01*
X1812188Y-1202486D01*
X1808378Y-1209751D01*
X1808378Y-1218996D01*
X1804568Y-1220470D01*
X1804568Y-1226616D01*
X1800758Y-1233881D01*
X1800656Y-1241501D01*
X1796948Y-1246428D01*
X1796948Y-1252016D01*
X1793138Y-1259281D01*
X1793036Y-1264361D01*
X1789328Y-1269288D01*
X1789328Y-1279956D01*
X1785518Y-1281430D01*
X1785416Y-1291031D01*
X1781708Y-1295958D01*
X1781606Y-1302461D01*
X1777898Y-1307388D01*
X1777796Y-1315161D01*
X1774088Y-1320088D01*
X1773986Y-1326591D01*
X1770278Y-1331518D01*
X1770278Y-1340104D01*
X1766468Y-1343964D01*
X1766468Y-1351534D01*
X1762658Y-1355344D01*
X1762556Y-1363421D01*
X1758848Y-1368399D01*
X1758746Y-1374851D01*
X1755139Y-1381201D01*
X1754936Y-1387551D01*
X1751228Y-1392529D01*
X1751228Y-1401114D01*
X1747418Y-1404924D01*
X1747316Y-1413002D01*
X1743608Y-1417929D01*
X1743506Y-1424432D01*
X1739798Y-1429359D01*
X1739696Y-1437132D01*
X1735988Y-1442059D01*
X1735886Y-1448562D01*
X1732178Y-1453489D01*
X1732178Y-1462074D01*
X1728368Y-1465884D01*
X1728368Y-1474368D01*
X1725777Y-1475232D01*
X1724152Y-1485392D01*
X1721815Y-1486916D01*
X1720342Y-1498092D01*
X1716938Y-1503070D01*
X1716938Y-1511604D01*
X1713128Y-1515414D01*
X1713128Y-1521409D01*
X1710893Y-1522780D01*
X1709572Y-1527810D01*
X1714042Y-1532991D01*
X1806905Y-1533499D01*
X1810918Y-1530146D01*
X1810918Y-1525574D01*
X1813712Y-1524660D01*
X1815744Y-1514602D01*
X1818893Y-1505712D01*
X1820925Y-1500632D01*
X1822653Y-1491742D01*
X1826158Y-1486712D01*
X1826209Y-1480312D01*
X1829968Y-1475384D01*
X1829968Y-1466799D01*
X1833778Y-1462989D01*
X1833829Y-1454912D01*
X1837588Y-1449984D01*
X1837588Y-1443329D01*
X1840433Y-1440484D01*
X1842414Y-1430782D01*
X1845564Y-1421892D01*
X1849018Y-1415135D01*
X1849018Y-1405788D01*
X1852828Y-1401978D01*
X1852930Y-1396441D01*
X1856638Y-1391513D01*
X1856739Y-1385011D01*
X1860448Y-1380083D01*
X1860499Y-1371041D01*
X1864258Y-1366113D01*
X1864309Y-1359611D01*
X1868068Y-1354683D01*
X1868068Y-1348028D01*
X1871776Y-1343101D01*
X1871980Y-1336751D01*
X1875688Y-1331823D01*
X1875789Y-1325321D01*
X1879498Y-1320393D01*
X1879600Y-1312621D01*
X1883308Y-1307693D01*
X1883410Y-1301191D01*
X1887118Y-1296263D01*
X1887118Y-1289304D01*
X1889455Y-1287881D01*
X1891131Y-1277721D01*
X1893316Y-1276400D01*
X1895093Y-1264361D01*
X1898548Y-1259382D01*
X1898548Y-1252220D01*
X1902358Y-1250746D01*
X1902358Y-1241348D01*
X1906066Y-1236421D01*
X1906168Y-1231544D01*
X1910638Y-1222095D01*
X1918258Y-1220876D01*
X1925878Y-1222044D01*
X1930298Y-1231544D01*
X1930298Y-1236573D01*
X1934006Y-1241501D01*
X1934108Y-1248003D01*
X1937816Y-1252931D01*
X1937918Y-1259382D01*
X1941372Y-1264361D01*
X1943150Y-1276400D01*
X1945335Y-1277721D01*
X1947011Y-1287881D01*
X1949348Y-1289304D01*
X1949348Y-1296263D01*
X1953107Y-1301191D01*
X1953158Y-1307693D01*
X1956866Y-1312621D01*
X1956968Y-1320596D01*
X1960778Y-1323746D01*
X1960778Y-1330401D01*
X1964588Y-1337716D01*
X1964588Y-1343456D01*
X1968398Y-1346606D01*
X1968398Y-1354683D01*
X1972157Y-1359611D01*
X1972208Y-1366062D01*
X1975662Y-1371041D01*
X1977440Y-1383080D01*
X1979625Y-1384401D01*
X1981301Y-1394561D01*
X1983638Y-1395984D01*
X1983638Y-1403553D01*
X1987448Y-1404975D01*
X1987448Y-1414983D01*
X1991258Y-1416405D01*
X1991258Y-1425854D01*
X1995017Y-1430782D01*
X1995068Y-1438554D01*
X1998827Y-1443482D01*
X1998878Y-1448714D01*
X2002637Y-1453642D01*
X2002688Y-1460144D01*
X2006447Y-1465072D01*
X2006498Y-1472844D01*
X2010257Y-1477772D01*
X2010308Y-1484274D01*
X2014067Y-1489202D01*
X2014118Y-1495704D01*
X2017877Y-1500632D01*
X2017928Y-1507134D01*
X2021687Y-1512062D01*
X2021738Y-1517650D01*
X2025751Y-1529842D01*
X2030933Y-1534261D01*
X2327198Y-1534109D01*
X2339898Y-1531620D01*
X2353259Y-1529689D01*
X2356307Y-1526641D01*
X2360777Y-1526641D01*
X2371039Y-1521307D01*
X2371039Y-1519021D01*
X2375916Y-1519021D01*
X2379726Y-1515211D01*
X2382164Y-1515211D01*
X2405329Y-1491843D01*
X2405329Y-1488744D01*
X2407208Y-1487932D01*
X2412949Y-1479753D01*
X2412949Y-1477416D01*
X2416759Y-1474266D01*
X2416759Y-1469491D01*
X2419096Y-1469491D01*
X2420721Y-1463802D01*
X2424734Y-1454912D01*
X2427122Y-1450136D01*
X2428544Y-1435862D01*
X2431999Y-1430832D01*
X2431999Y-1388719D01*
X2428240Y-1383741D01*
X2428189Y-1376934D01*
X2419756Y-1360881D01*
X2414828Y-1352651D01*
X2412949Y-1352651D01*
X2412949Y-1349044D01*
X2386177Y-1322171D01*
X2382723Y-1322171D01*
X2381504Y-1318920D01*
X2371902Y-1313891D01*
X2364130Y-1306931D01*
X2359609Y-1306931D01*
X2359609Y-1304442D01*
X2352954Y-1302766D01*
X2339340Y-1295501D01*
X2333447Y-1295501D01*
X2330399Y-1292453D01*
X2315768Y-1290066D01*
X2204567Y-1289100D01*
X2200148Y-1291437D01*
X2193848Y-1287983D01*
X2188667Y-1287881D01*
X2179878Y-1280363D01*
X2176678Y-1280261D01*
X2176678Y-1274368D01*
X2172970Y-1269441D01*
X2172868Y-1243736D01*
X2176678Y-1240586D01*
X2176678Y-1233271D01*
X2180488Y-1233271D01*
X2180488Y-1229461D01*
X2184298Y-1229461D01*
X2184298Y-1225651D01*
X2188108Y-1225651D01*
X2188108Y-1222197D01*
X2199894Y-1220571D01*
X2410612Y-1220571D01*
X2415387Y-1214831D01*
X2415489Y-1209294D01*
X2412949Y-1207719D01*
X2415286Y-1203299D01*
X2413101Y-1199743D01*
X2415743Y-1194866D01*
X2414219Y-1185621D01*
X2414270Y-1160221D01*
X2415743Y-1149400D01*
X2412796Y-1145844D01*
X2415489Y-1144219D01*
X2415489Y-1134719D01*
X2412441Y-1131671D01*
X2168448Y-1131722D01*
X2162098Y-1135380D01*
X2153056Y-1135481D01*
X2148128Y-1139190D01*
X2142591Y-1139291D01*
X2138781Y-1143101D01*
X2133447Y-1143101D01*
X2132076Y-1146657D01*
X2125878Y-1148232D01*
X2125878Y-1150721D01*
X2122017Y-1150721D01*
X2120544Y-1154531D01*
X2117090Y-1154531D01*
X2097938Y-1174191D01*
X2097938Y-1176274D01*
X2091994Y-1184351D01*
X2086508Y-1195222D01*
X2086457Y-1199591D01*
X2082698Y-1204518D01*
X2082698Y-1212443D01*
X2079955Y-1215186D01*
X2077313Y-1236421D01*
X2077364Y-1265631D01*
X2079701Y-1286662D01*
X2082698Y-1289659D01*
X2082698Y-1297533D01*
X2086457Y-1302461D01*
X2086508Y-1307185D01*
X2092858Y-1318971D01*
X2095347Y-1324711D01*
X2097938Y-1324711D01*
X2097938Y-1328115D01*
X2105558Y-1337310D01*
X2105558Y-1339951D01*
X2109368Y-1339951D01*
X2109368Y-1343761D01*
X2113178Y-1343761D01*
X2113178Y-1347063D01*
X2121560Y-1355191D01*
X2123490Y-1355191D01*
X2129078Y-1360982D01*
X2136698Y-1365910D01*
X2144928Y-1370431D01*
X2148433Y-1370431D01*
X2151583Y-1374241D01*
X2158644Y-1374241D01*
X2165908Y-1378051D01*
X2317394Y-1378051D01*
X2325928Y-1381658D01*
X2333599Y-1390091D01*
X2338019Y-1398117D01*
X2338019Y-1415542D01*
X2329738Y-1431899D01*
X2325827Y-1435862D01*
X2309418Y-1444091D01*
X2100478Y-1444091D01*
X2100478Y-1440586D01*
X2096871Y-1437589D01*
X2095195Y-1427581D01*
X2092858Y-1426159D01*
X2092807Y-1419352D01*
X2089150Y-1413002D01*
X2089048Y-1406194D01*
X2085238Y-1402384D01*
X2085238Y-1395069D01*
X2081530Y-1390091D01*
X2081428Y-1382064D01*
X2078024Y-1378610D01*
X2076196Y-1366672D01*
X2073808Y-1365199D01*
X2073808Y-1358188D01*
X2070100Y-1353261D01*
X2069998Y-1346809D01*
X2066289Y-1341831D01*
X2066188Y-1334058D01*
X2062480Y-1329131D01*
X2062378Y-1321054D01*
X2058568Y-1317244D01*
X2058568Y-1310081D01*
X2054758Y-1302816D01*
X2054758Y-1297228D01*
X2051050Y-1292301D01*
X2050948Y-1284528D01*
X2047239Y-1279601D01*
X2047138Y-1271524D01*
X2043328Y-1267714D01*
X2043328Y-1259128D01*
X2039620Y-1254201D01*
X2039518Y-1247698D01*
X2035810Y-1242771D01*
X2035708Y-1236370D01*
X2032304Y-1231341D01*
X2030780Y-1219962D01*
X2028088Y-1219098D01*
X2028088Y-1210564D01*
X2024278Y-1206754D01*
X2024278Y-1199134D01*
X2020468Y-1195324D01*
X2020468Y-1189837D01*
X2014067Y-1178001D01*
X2011324Y-1171041D01*
X2009038Y-1171041D01*
X2009038Y-1167130D01*
X2005228Y-1165656D01*
X2005228Y-1163320D01*
X1999538Y-1155192D01*
X1993188Y-1148740D01*
X1981454Y-1139291D01*
X1979675Y-1139291D01*
X1975866Y-1135481D01*
X1971192Y-1135481D01*
X1969770Y-1131671D01*
X1964385Y-1131671D01*
X1960625Y-1127861D01*
X1951278Y-1127760D01*
X1946351Y-1124051D01*
G37*
G36*
X2644902Y-1124051D02*
G01*
X2593949Y-1124305D01*
X2588869Y-1125524D01*
X2586431Y-1127861D01*
X2578557Y-1127861D01*
X2573629Y-1131570D01*
X2566924Y-1131671D01*
X2563774Y-1135481D01*
X2560167Y-1135481D01*
X2552039Y-1141171D01*
X2550769Y-1142746D01*
X2545588Y-1144320D01*
X2537256Y-1151991D01*
X2535275Y-1151991D01*
X2524048Y-1169009D01*
X2520899Y-1172464D01*
X2520899Y-1177086D01*
X2517089Y-1178560D01*
X2517089Y-1183538D01*
X2510790Y-1196340D01*
X2509113Y-1207211D01*
X2505659Y-1212240D01*
X2505557Y-1218641D01*
X2501849Y-1223568D01*
X2501747Y-1231341D01*
X2498039Y-1236268D01*
X2498039Y-1243279D01*
X2495651Y-1244752D01*
X2493873Y-1256741D01*
X2490419Y-1261770D01*
X2490317Y-1268171D01*
X2486609Y-1273098D01*
X2486507Y-1279601D01*
X2482799Y-1284528D01*
X2482697Y-1292301D01*
X2478989Y-1297228D01*
X2478887Y-1306271D01*
X2475179Y-1311198D01*
X2475077Y-1317701D01*
X2471369Y-1322628D01*
X2471267Y-1329131D01*
X2467559Y-1334058D01*
X2467559Y-1341424D01*
X2463749Y-1345184D01*
X2463647Y-1353261D01*
X2459939Y-1358188D01*
X2459939Y-1365199D01*
X2457551Y-1366672D01*
X2455773Y-1378661D01*
X2452319Y-1383690D01*
X2452217Y-1390091D01*
X2448509Y-1395069D01*
X2448509Y-1402384D01*
X2444699Y-1406194D01*
X2444699Y-1414729D01*
X2442311Y-1416202D01*
X2440584Y-1428242D01*
X2437079Y-1433830D01*
X2436977Y-1439672D01*
X2433269Y-1444599D01*
X2433167Y-1452372D01*
X2429459Y-1457299D01*
X2429357Y-1463802D01*
X2425649Y-1468729D01*
X2425649Y-1478127D01*
X2421839Y-1479600D01*
X2421839Y-1488744D01*
X2418029Y-1492554D01*
X2417927Y-1500632D01*
X2414219Y-1505559D01*
X2414117Y-1512062D01*
X2410510Y-1518412D01*
X2410409Y-1524863D01*
X2408021Y-1527302D01*
X2412593Y-1532890D01*
X2505456Y-1533347D01*
X2512009Y-1526286D01*
X2512009Y-1516329D01*
X2515819Y-1512519D01*
X2515819Y-1506474D01*
X2518206Y-1505000D01*
X2519984Y-1493012D01*
X2523439Y-1487982D01*
X2523540Y-1481582D01*
X2527249Y-1476654D01*
X2527249Y-1469999D01*
X2530957Y-1465072D01*
X2531160Y-1457452D01*
X2534869Y-1452524D01*
X2534970Y-1446022D01*
X2538679Y-1441094D01*
X2538780Y-1434592D01*
X2542489Y-1429613D01*
X2542489Y-1422908D01*
X2544064Y-1421384D01*
X2550109Y-1404061D01*
X2550210Y-1397711D01*
X2553919Y-1392783D01*
X2554020Y-1386332D01*
X2557729Y-1381353D01*
X2557830Y-1374851D01*
X2561539Y-1369923D01*
X2561539Y-1364386D01*
X2565349Y-1357071D01*
X2565450Y-1351991D01*
X2569057Y-1345641D01*
X2569260Y-1339291D01*
X2572969Y-1334363D01*
X2572969Y-1324965D01*
X2576779Y-1323492D01*
X2576779Y-1313535D01*
X2580589Y-1312062D01*
X2580589Y-1302918D01*
X2584399Y-1299108D01*
X2584500Y-1291031D01*
X2588209Y-1286103D01*
X2588310Y-1279601D01*
X2592019Y-1274673D01*
X2592120Y-1268171D01*
X2595829Y-1263243D01*
X2595829Y-1252575D01*
X2599639Y-1251102D01*
X2599740Y-1244041D01*
X2603449Y-1239113D01*
X2603449Y-1233678D01*
X2609291Y-1222603D01*
X2616809Y-1220571D01*
X2623159Y-1221994D01*
X2631389Y-1239164D01*
X2631389Y-1246733D01*
X2635148Y-1251661D01*
X2635199Y-1258163D01*
X2638958Y-1263091D01*
X2639009Y-1269593D01*
X2642768Y-1274521D01*
X2642819Y-1282293D01*
X2646578Y-1287221D01*
X2646629Y-1293723D01*
X2650388Y-1298651D01*
X2650439Y-1305153D01*
X2654198Y-1310081D01*
X2654249Y-1316583D01*
X2658008Y-1321511D01*
X2658059Y-1328013D01*
X2661818Y-1332941D01*
X2661869Y-1341018D01*
X2665679Y-1344828D01*
X2665679Y-1353413D01*
X2669438Y-1358341D01*
X2669489Y-1364792D01*
X2673096Y-1369923D01*
X2674874Y-1379372D01*
X2677109Y-1380744D01*
X2677109Y-1387703D01*
X2680868Y-1392682D01*
X2680919Y-1399133D01*
X2684678Y-1404061D01*
X2684729Y-1411884D01*
X2688488Y-1416812D01*
X2688539Y-1423466D01*
X2692349Y-1426616D01*
X2692450Y-1433322D01*
X2696108Y-1439672D01*
X2696159Y-1446174D01*
X2699918Y-1451102D01*
X2699969Y-1457604D01*
X2703728Y-1462532D01*
X2703779Y-1470609D01*
X2707233Y-1474012D01*
X2709011Y-1485950D01*
X2711399Y-1487424D01*
X2711399Y-1494993D01*
X2715209Y-1496415D01*
X2715209Y-1505864D01*
X2718968Y-1510792D01*
X2719019Y-1517294D01*
X2722778Y-1522222D01*
X2722829Y-1528978D01*
X2731414Y-1534261D01*
X2815082Y-1534261D01*
X2819044Y-1531112D01*
X2820517Y-1526844D01*
X2816860Y-1523796D01*
X2816758Y-1514602D01*
X2813100Y-1508252D01*
X2812999Y-1501749D01*
X2809290Y-1496822D01*
X2809240Y-1487779D01*
X2805480Y-1482852D01*
X2805379Y-1476502D01*
X2801924Y-1469898D01*
X2800197Y-1458112D01*
X2797810Y-1456639D01*
X2797810Y-1449679D01*
X2794050Y-1444752D01*
X2793949Y-1438402D01*
X2790139Y-1431086D01*
X2790139Y-1424076D01*
X2786329Y-1420926D01*
X2786329Y-1411579D01*
X2782620Y-1406601D01*
X2782519Y-1398879D01*
X2778810Y-1393901D01*
X2778709Y-1387449D01*
X2775000Y-1382522D01*
X2774899Y-1374444D01*
X2771089Y-1370634D01*
X2771089Y-1362049D01*
X2767380Y-1357071D01*
X2767279Y-1349349D01*
X2763570Y-1344371D01*
X2763469Y-1335328D01*
X2759760Y-1330401D01*
X2759659Y-1323898D01*
X2755950Y-1318971D01*
X2755798Y-1311351D01*
X2752039Y-1306423D01*
X2751988Y-1297381D01*
X2748330Y-1291031D01*
X2748229Y-1284528D01*
X2744520Y-1279601D01*
X2744419Y-1273200D01*
X2740964Y-1268171D01*
X2739186Y-1256182D01*
X2736799Y-1254709D01*
X2736799Y-1247851D01*
X2732989Y-1240586D01*
X2732989Y-1234998D01*
X2729280Y-1230071D01*
X2729179Y-1221994D01*
X2725369Y-1218184D01*
X2725369Y-1209598D01*
X2721660Y-1204671D01*
X2721559Y-1196898D01*
X2717850Y-1191971D01*
X2717749Y-1185316D01*
X2713939Y-1182166D01*
X2713939Y-1178560D01*
X2710129Y-1177086D01*
X2710129Y-1172464D01*
X2706827Y-1169111D01*
X2704947Y-1165301D01*
X2701899Y-1160221D01*
X2682290Y-1140612D01*
X2675839Y-1138986D01*
X2675839Y-1137005D01*
X2665628Y-1131671D01*
X2660904Y-1131671D01*
X2659430Y-1127861D01*
X2649829Y-1127760D01*
G37*
D10*
X5243829Y-4329684D02*
G01*
X5192013Y-4329684D01*
X5186679Y-4376420D01*
X5192013Y-4371339D01*
X5207508Y-4366005D01*
X5223256Y-4366005D01*
X5238750Y-4371339D01*
X5249163Y-4381500D01*
X5254243Y-4397247D01*
X5254243Y-4407662D01*
X5249163Y-4423155D01*
X5238750Y-4433570D01*
X5223256Y-4438650D01*
X5207508Y-4438650D01*
X5192013Y-4433570D01*
X5186679Y-4428489D01*
X5181600Y-4418076D01*
X5288534Y-4329684D02*
G01*
X5330190Y-4438650D01*
X5371845Y-4329684D02*
G01*
X5330190Y-4438650D01*
X2578100Y-4350512D02*
G01*
X2588513Y-4345178D01*
X2604008Y-4329684D01*
X2604008Y-4438650D01*
X2643631Y-4355592D02*
G01*
X2643631Y-4350512D01*
X2648711Y-4340097D01*
X2654045Y-4334763D01*
X2664459Y-4329684D01*
X2685034Y-4329684D01*
X2695447Y-4334763D01*
X2700781Y-4340097D01*
X2705861Y-4350512D01*
X2705861Y-4360926D01*
X2700781Y-4371339D01*
X2690368Y-4386834D01*
X2638297Y-4438650D01*
X2711195Y-4438650D01*
X2745486Y-4329684D02*
G01*
X2786888Y-4438650D01*
X2828543Y-4329684D02*
G01*
X2786888Y-4438650D01*
X881379Y-4101845D02*
G01*
X881379Y-4096765D01*
X886713Y-4086352D01*
X891794Y-4081271D01*
X902207Y-4075937D01*
X923036Y-4075937D01*
X933195Y-4081271D01*
X938529Y-4086352D01*
X943610Y-4096765D01*
X943610Y-4107179D01*
X938529Y-4117339D01*
X928115Y-4133087D01*
X876300Y-4184904D01*
X948944Y-4184904D01*
X1024381Y-4075937D02*
G01*
X982979Y-4184904D01*
X1024381Y-4075937D02*
G01*
X1066037Y-4184904D01*
X998473Y-4148581D02*
G01*
X1050289Y-4148581D01*
X1100073Y-4138168D02*
G01*
X1193545Y-4138168D01*
X1268984Y-4075937D02*
G01*
X1258823Y-4075937D01*
X1248410Y-4081271D01*
X1243076Y-4096765D01*
X1243076Y-4184904D01*
X1227581Y-4112260D02*
G01*
X1263904Y-4112260D01*
X1303273Y-4112260D02*
G01*
X1303273Y-4164076D01*
X1308354Y-4179570D01*
X1318768Y-4184904D01*
X1334262Y-4184904D01*
X1344676Y-4179570D01*
X1360170Y-4164076D01*
X1360170Y-4112260D02*
G01*
X1360170Y-4184904D01*
X1451355Y-4127754D02*
G01*
X1446276Y-4117339D01*
X1430781Y-4112260D01*
X1415287Y-4112260D01*
X1399539Y-4117339D01*
X1394460Y-4127754D01*
X1399539Y-4138168D01*
X1409954Y-4143247D01*
X1435862Y-4148581D01*
X1446276Y-4153662D01*
X1451355Y-4164076D01*
X1451355Y-4169155D01*
X1446276Y-4179570D01*
X1430781Y-4184904D01*
X1415287Y-4184904D01*
X1399539Y-4179570D01*
X1394460Y-4169155D01*
X1485645Y-4143247D02*
G01*
X1547876Y-4143247D01*
X1547876Y-4133087D01*
X1542795Y-4122673D01*
X1537462Y-4117339D01*
X1527047Y-4112260D01*
X1511554Y-4112260D01*
X1501139Y-4117339D01*
X1490979Y-4127754D01*
X1485645Y-4143247D01*
X1485645Y-4153662D01*
X1490979Y-4169155D01*
X1501139Y-4179570D01*
X1511554Y-4184904D01*
X1527047Y-4184904D01*
X1537462Y-4179570D01*
X1547876Y-4169155D01*
D11*
X152400Y-2052828D02*
G01*
X152400Y-2129281D01*
X152400Y-2052828D02*
G01*
X185165Y-2052828D01*
X196087Y-2056384D01*
X199644Y-2060194D01*
X203200Y-2067305D01*
X203200Y-2074671D01*
X199644Y-2082037D01*
X196087Y-2085594D01*
X185165Y-2089150D01*
X152400Y-2089150D01*
X177800Y-2089150D02*
G01*
X203200Y-2129281D01*
X227329Y-2078228D02*
G01*
X267207Y-2129281D01*
X267207Y-2078228D02*
G01*
X227329Y-2129281D01*
X177800Y-2306828D02*
G01*
X177800Y-2383281D01*
X152400Y-2306828D02*
G01*
X203200Y-2306828D01*
X227329Y-2332228D02*
G01*
X267207Y-2383281D01*
X267207Y-2332228D02*
G01*
X227329Y-2383281D01*
X130810Y-2604515D02*
G01*
X127000Y-2597150D01*
X119887Y-2589784D01*
X112521Y-2586228D01*
X98044Y-2586228D01*
X90678Y-2589784D01*
X83565Y-2597150D01*
X79755Y-2604515D01*
X76200Y-2615437D01*
X76200Y-2633471D01*
X79755Y-2644394D01*
X83565Y-2651760D01*
X90678Y-2659126D01*
X98044Y-2662681D01*
X112521Y-2662681D01*
X119887Y-2659126D01*
X127000Y-2651760D01*
X130810Y-2644394D01*
X130810Y-2633471D01*
X112521Y-2633471D02*
G01*
X130810Y-2633471D01*
X154686Y-2586228D02*
G01*
X154686Y-2662681D01*
X154686Y-2586228D02*
G01*
X205739Y-2662681D01*
X205739Y-2586228D02*
G01*
X205739Y-2662681D01*
X229615Y-2586228D02*
G01*
X229615Y-2662681D01*
X229615Y-2586228D02*
G01*
X255015Y-2586228D01*
X265937Y-2589784D01*
X273304Y-2597150D01*
X276860Y-2604515D01*
X280670Y-2615437D01*
X280670Y-2633471D01*
X276860Y-2644394D01*
X273304Y-2651760D01*
X265937Y-2659126D01*
X255015Y-2662681D01*
X229615Y-2662681D01*
X6846468Y-1176528D02*
G01*
X6886346Y-1176528D01*
X6864502Y-1205737D01*
X6875424Y-1205737D01*
X6882790Y-1209294D01*
X6886346Y-1212850D01*
X6889902Y-1223771D01*
X6889902Y-1231137D01*
X6886346Y-1242060D01*
X6878980Y-1249426D01*
X6868312Y-1252981D01*
X6857390Y-1252981D01*
X6846468Y-1249426D01*
X6842658Y-1245615D01*
X6839102Y-1238504D01*
X6914032Y-1176528D02*
G01*
X6942988Y-1252981D01*
X6972198Y-1176528D02*
G01*
X6942988Y-1252981D01*
X7003440Y-1176528D02*
G01*
X7043572Y-1176528D01*
X7021728Y-1205737D01*
X7032650Y-1205737D01*
X7039762Y-1209294D01*
X7043572Y-1212850D01*
X7047128Y-1223771D01*
X7047128Y-1231137D01*
X7043572Y-1242060D01*
X7036206Y-1249426D01*
X7025284Y-1252981D01*
X7014362Y-1252981D01*
X7003440Y-1249426D01*
X6999884Y-1245615D01*
X6996074Y-1238504D01*
X6928002Y-1682750D02*
G01*
X6920890Y-1675384D01*
X6909968Y-1671828D01*
X6895490Y-1671828D01*
X6884568Y-1675384D01*
X6877202Y-1682750D01*
X6877202Y-1690115D01*
X6880758Y-1697228D01*
X6884568Y-1701037D01*
X6891680Y-1704594D01*
X6913524Y-1711960D01*
X6920890Y-1715515D01*
X6924446Y-1719071D01*
X6928002Y-1726437D01*
X6928002Y-1737360D01*
X6920890Y-1744726D01*
X6909968Y-1748281D01*
X6895490Y-1748281D01*
X6884568Y-1744726D01*
X6877202Y-1737360D01*
X6952132Y-1671828D02*
G01*
X6955688Y-1675384D01*
X6959498Y-1671828D01*
X6955688Y-1668271D01*
X6952132Y-1671828D01*
X6955688Y-1697228D02*
G01*
X6955688Y-1748281D01*
X7027062Y-1697228D02*
G01*
X7027062Y-1755394D01*
X7023506Y-1766315D01*
X7019696Y-1770126D01*
X7012584Y-1773681D01*
X7001662Y-1773681D01*
X6994296Y-1770126D01*
X7027062Y-1708150D02*
G01*
X7019696Y-1701037D01*
X7012584Y-1697228D01*
X7001662Y-1697228D01*
X6994296Y-1701037D01*
X6986930Y-1708150D01*
X6983374Y-1719071D01*
X6983374Y-1726437D01*
X6986930Y-1737360D01*
X6994296Y-1744726D01*
X7001662Y-1748281D01*
X7012584Y-1748281D01*
X7019696Y-1744726D01*
X7027062Y-1737360D01*
X5994400Y-2764028D02*
G01*
X5994400Y-2840481D01*
X5994400Y-2764028D02*
G01*
X6027165Y-2764028D01*
X6038088Y-2767584D01*
X6041643Y-2771394D01*
X6045200Y-2778505D01*
X6045200Y-2789428D01*
X6041643Y-2796794D01*
X6038088Y-2800350D01*
X6027165Y-2804160D01*
X5994400Y-2804160D01*
X6069329Y-2764028D02*
G01*
X6087363Y-2840481D01*
X6105652Y-2764028D02*
G01*
X6087363Y-2840481D01*
X6105652Y-2764028D02*
G01*
X6123940Y-2840481D01*
X6141974Y-2764028D02*
G01*
X6123940Y-2840481D01*
X6166104Y-2764028D02*
G01*
X6166104Y-2840481D01*
X6166104Y-2764028D02*
G01*
X6195059Y-2840481D01*
X6224270Y-2764028D02*
G01*
X6195059Y-2840481D01*
X6224270Y-2764028D02*
G01*
X6224270Y-2840481D01*
X6337300Y-2764028D02*
G01*
X6337300Y-2840481D01*
X6311900Y-2764028D02*
G01*
X6362700Y-2764028D01*
X6430518Y-2800350D02*
G01*
X6423152Y-2793237D01*
X6415786Y-2789428D01*
X6404863Y-2789428D01*
X6397752Y-2793237D01*
X6390386Y-2800350D01*
X6386829Y-2811271D01*
X6386829Y-2818637D01*
X6390386Y-2829560D01*
X6397752Y-2836926D01*
X6404863Y-2840481D01*
X6415786Y-2840481D01*
X6423152Y-2836926D01*
X6430518Y-2829560D01*
X6454393Y-2764028D02*
G01*
X6454393Y-2840481D01*
X6454393Y-2804160D02*
G01*
X6465315Y-2793237D01*
X6472681Y-2789428D01*
X6483604Y-2789428D01*
X6490715Y-2793237D01*
X6494525Y-2804160D01*
X6494525Y-2840481D01*
X6578600Y-2778505D02*
G01*
X6585965Y-2774950D01*
X6596888Y-2764028D01*
X6596888Y-2840481D01*
X6624320Y-2782315D02*
G01*
X6624320Y-2778505D01*
X6628129Y-2771394D01*
X6631686Y-2767584D01*
X6639052Y-2764028D01*
X6653529Y-2764028D01*
X6660895Y-2767584D01*
X6664452Y-2771394D01*
X6668008Y-2778505D01*
X6668008Y-2785871D01*
X6664452Y-2793237D01*
X6657086Y-2804160D01*
X6620763Y-2840481D01*
X6671563Y-2840481D01*
X6695693Y-2764028D02*
G01*
X6724904Y-2840481D01*
X6753859Y-2764028D02*
G01*
X6724904Y-2840481D01*
X6887209Y-2782315D02*
G01*
X6883400Y-2774950D01*
X6876288Y-2767584D01*
X6868922Y-2764028D01*
X6854443Y-2764028D01*
X6847077Y-2767584D01*
X6839965Y-2774950D01*
X6836156Y-2782315D01*
X6832600Y-2793237D01*
X6832600Y-2811271D01*
X6836156Y-2822194D01*
X6839965Y-2829560D01*
X6847077Y-2836926D01*
X6854443Y-2840481D01*
X6868922Y-2840481D01*
X6876288Y-2836926D01*
X6883400Y-2829560D01*
X6887209Y-2822194D01*
X6887209Y-2811271D01*
X6868922Y-2811271D02*
G01*
X6887209Y-2811271D01*
X6911086Y-2764028D02*
G01*
X6911086Y-2840481D01*
X6911086Y-2764028D02*
G01*
X6962140Y-2840481D01*
X6962140Y-2764028D02*
G01*
X6962140Y-2840481D01*
X6986015Y-2764028D02*
G01*
X6986015Y-2840481D01*
X6986015Y-2764028D02*
G01*
X7011415Y-2764028D01*
X7022338Y-2767584D01*
X7029704Y-2774950D01*
X7033259Y-2782315D01*
X7037070Y-2793237D01*
X7037070Y-2811271D01*
X7033259Y-2822194D01*
X7029704Y-2829560D01*
X7022338Y-2836926D01*
X7011415Y-2840481D01*
X6986015Y-2840481D01*
X894587Y-414528D02*
G01*
X858265Y-414528D01*
X854455Y-447294D01*
X858265Y-443737D01*
X869187Y-439928D01*
X880110Y-439928D01*
X890778Y-443737D01*
X898144Y-450850D01*
X901700Y-461771D01*
X901700Y-469137D01*
X898144Y-480060D01*
X890778Y-487426D01*
X880110Y-490981D01*
X869187Y-490981D01*
X858265Y-487426D01*
X854455Y-483615D01*
X850900Y-476504D01*
X925829Y-414528D02*
G01*
X954786Y-490981D01*
X983995Y-414528D02*
G01*
X954786Y-490981D01*
X5392165Y-427228D02*
G01*
X5432043Y-427228D01*
X5410200Y-456437D01*
X5421122Y-456437D01*
X5428488Y-459994D01*
X5432043Y-463550D01*
X5435600Y-474471D01*
X5435600Y-481837D01*
X5432043Y-492760D01*
X5424677Y-500126D01*
X5414009Y-503681D01*
X5403088Y-503681D01*
X5392165Y-500126D01*
X5388356Y-496315D01*
X5384800Y-489204D01*
X5459729Y-427228D02*
G01*
X5488686Y-503681D01*
X5517895Y-427228D02*
G01*
X5488686Y-503681D01*
X5549138Y-427228D02*
G01*
X5589270Y-427228D01*
X5567425Y-456437D01*
X5578347Y-456437D01*
X5585459Y-459994D01*
X5589270Y-463550D01*
X5592825Y-474471D01*
X5592825Y-481837D01*
X5589270Y-492760D01*
X5581904Y-500126D01*
X5570981Y-503681D01*
X5560059Y-503681D01*
X5549138Y-500126D01*
X5545581Y-496315D01*
X5541772Y-489204D01*
X5452109Y-2223515D02*
G01*
X5448300Y-2216150D01*
X5441188Y-2208784D01*
X5433822Y-2205228D01*
X5419343Y-2205228D01*
X5411977Y-2208784D01*
X5404865Y-2216150D01*
X5401056Y-2223515D01*
X5397500Y-2234437D01*
X5397500Y-2252471D01*
X5401056Y-2263394D01*
X5404865Y-2270760D01*
X5411977Y-2278126D01*
X5419343Y-2281681D01*
X5433822Y-2281681D01*
X5441188Y-2278126D01*
X5448300Y-2270760D01*
X5452109Y-2263394D01*
X5452109Y-2252471D01*
X5433822Y-2252471D02*
G01*
X5452109Y-2252471D01*
X5475986Y-2205228D02*
G01*
X5475986Y-2281681D01*
X5475986Y-2205228D02*
G01*
X5527040Y-2281681D01*
X5527040Y-2205228D02*
G01*
X5527040Y-2281681D01*
X5550915Y-2205228D02*
G01*
X5550915Y-2281681D01*
X5550915Y-2205228D02*
G01*
X5576315Y-2205228D01*
X5587238Y-2208784D01*
X5594604Y-2216150D01*
X5598159Y-2223515D01*
X5601970Y-2234437D01*
X5601970Y-2252471D01*
X5598159Y-2263394D01*
X5594604Y-2270760D01*
X5587238Y-2278126D01*
X5576315Y-2281681D01*
X5550915Y-2281681D01*
X6893712Y-1436115D02*
G01*
X6889902Y-1428750D01*
X6882790Y-1421384D01*
X6875424Y-1417828D01*
X6860946Y-1417828D01*
X6853580Y-1421384D01*
X6846468Y-1428750D01*
X6842658Y-1436115D01*
X6839102Y-1447037D01*
X6839102Y-1465071D01*
X6842658Y-1475994D01*
X6846468Y-1483360D01*
X6853580Y-1490726D01*
X6860946Y-1494281D01*
X6875424Y-1494281D01*
X6882790Y-1490726D01*
X6889902Y-1483360D01*
X6893712Y-1475994D01*
X6893712Y-1465071D01*
X6875424Y-1465071D02*
G01*
X6893712Y-1465071D01*
X6917588Y-1417828D02*
G01*
X6917588Y-1494281D01*
X6917588Y-1417828D02*
G01*
X6968642Y-1494281D01*
X6968642Y-1417828D02*
G01*
X6968642Y-1494281D01*
X6992518Y-1417828D02*
G01*
X6992518Y-1494281D01*
X6992518Y-1417828D02*
G01*
X7017918Y-1417828D01*
X7028840Y-1421384D01*
X7036206Y-1428750D01*
X7039762Y-1436115D01*
X7043572Y-1447037D01*
X7043572Y-1465071D01*
X7039762Y-1475994D01*
X7036206Y-1483360D01*
X7028840Y-1490726D01*
X7017918Y-1494281D01*
X6992518Y-1494281D01*
D10*
X7112000Y-3022777D02*
G01*
X7112000Y-3131743D01*
X7112000Y-3022777D02*
G01*
X7153656Y-3131743D01*
X7195058Y-3022777D02*
G01*
X7153656Y-3131743D01*
X7195058Y-3022777D02*
G01*
X7195058Y-3131743D01*
X7234681Y-3048685D02*
G01*
X7234681Y-3043605D01*
X7239761Y-3033191D01*
X7245095Y-3027857D01*
X7255509Y-3022777D01*
X7276084Y-3022777D01*
X7286497Y-3027857D01*
X7291831Y-3033191D01*
X7296911Y-3043605D01*
X7296911Y-3054019D01*
X7291831Y-3064433D01*
X7281418Y-3079927D01*
X7229347Y-3131743D01*
X7302245Y-3131743D01*
X7112000Y-2398179D02*
G01*
X7112000Y-2507145D01*
X7112000Y-2398179D02*
G01*
X7153656Y-2507145D01*
X7195058Y-2398179D02*
G01*
X7153656Y-2507145D01*
X7195058Y-2398179D02*
G01*
X7195058Y-2507145D01*
X7229347Y-2419007D02*
G01*
X7239761Y-2413673D01*
X7255509Y-2398179D01*
X7255509Y-2507145D01*
X7211822Y-913384D02*
G01*
X7211822Y-1022350D01*
X7175500Y-913384D02*
G01*
X7248143Y-913384D01*
X7282434Y-934212D02*
G01*
X7292847Y-928878D01*
X7308595Y-913384D01*
X7308595Y-1022350D01*
X6551422Y-913384D02*
G01*
X6551422Y-1022350D01*
X6515100Y-913384D02*
G01*
X6587743Y-913384D01*
X6627368Y-939292D02*
G01*
X6627368Y-934212D01*
X6632447Y-923797D01*
X6637781Y-918463D01*
X6648195Y-913384D01*
X6668770Y-913384D01*
X6679184Y-918463D01*
X6684518Y-923797D01*
X6689597Y-934212D01*
X6689597Y-944626D01*
X6684518Y-955039D01*
X6674104Y-970534D01*
X6622034Y-1022350D01*
X6694931Y-1022350D01*
X5954522Y-913384D02*
G01*
X5954522Y-1022350D01*
X5918200Y-913384D02*
G01*
X5990843Y-913384D01*
X6035547Y-913384D02*
G01*
X6092697Y-913384D01*
X6061709Y-955039D01*
X6077204Y-955039D01*
X6087618Y-960120D01*
X6092697Y-965200D01*
X6098031Y-980947D01*
X6098031Y-991362D01*
X6092697Y-1006855D01*
X6082284Y-1017270D01*
X6066790Y-1022350D01*
X6051295Y-1022350D01*
X6035547Y-1017270D01*
X6030468Y-1012189D01*
X6025134Y-1001776D01*
X1767078Y-2755392D02*
G01*
X1761744Y-2744978D01*
X1751329Y-2734563D01*
X1741170Y-2729484D01*
X1720342Y-2729484D01*
X1709928Y-2734563D01*
X1699513Y-2744978D01*
X1694179Y-2755392D01*
X1689100Y-2771139D01*
X1689100Y-2797047D01*
X1694179Y-2812542D01*
X1699513Y-2822955D01*
X1709928Y-2833370D01*
X1720342Y-2838450D01*
X1741170Y-2838450D01*
X1751329Y-2833370D01*
X1761744Y-2822955D01*
X1767078Y-2812542D01*
X1853184Y-2729484D02*
G01*
X1801368Y-2802128D01*
X1879345Y-2802128D01*
X1853184Y-2729484D02*
G01*
X1853184Y-2838450D01*
X5310377Y-3428492D02*
G01*
X5305043Y-3418078D01*
X5294629Y-3407663D01*
X5284470Y-3402584D01*
X5263641Y-3402584D01*
X5253227Y-3407663D01*
X5242813Y-3418078D01*
X5237479Y-3428492D01*
X5232400Y-3444239D01*
X5232400Y-3470147D01*
X5237479Y-3485642D01*
X5242813Y-3496055D01*
X5253227Y-3506470D01*
X5263641Y-3511550D01*
X5284470Y-3511550D01*
X5294629Y-3506470D01*
X5305043Y-3496055D01*
X5310377Y-3485642D01*
X5406897Y-3402584D02*
G01*
X5355081Y-3402584D01*
X5349747Y-3449320D01*
X5355081Y-3444239D01*
X5370575Y-3438905D01*
X5386070Y-3438905D01*
X5401818Y-3444239D01*
X5412231Y-3454400D01*
X5417311Y-3470147D01*
X5417311Y-3480562D01*
X5412231Y-3496055D01*
X5401818Y-3506470D01*
X5386070Y-3511550D01*
X5370575Y-3511550D01*
X5355081Y-3506470D01*
X5349747Y-3501389D01*
X5344668Y-3490976D01*
X723900Y-3867912D02*
G01*
X734313Y-3862578D01*
X749807Y-3847084D01*
X749807Y-3956050D01*
X789431Y-3872992D02*
G01*
X789431Y-3867912D01*
X794512Y-3857497D01*
X799845Y-3852163D01*
X810260Y-3847084D01*
X830834Y-3847084D01*
X841247Y-3852163D01*
X846581Y-3857497D01*
X851662Y-3867912D01*
X851662Y-3878326D01*
X846581Y-3888739D01*
X836168Y-3904234D01*
X784097Y-3956050D01*
X856995Y-3956050D01*
X891286Y-3847084D02*
G01*
X932687Y-3956050D01*
X974344Y-3847084D02*
G01*
X932687Y-3956050D01*
X4815077Y-520192D02*
G01*
X4809743Y-509778D01*
X4799329Y-499363D01*
X4789170Y-494284D01*
X4768341Y-494284D01*
X4757927Y-499363D01*
X4747513Y-509778D01*
X4742179Y-520192D01*
X4737100Y-535939D01*
X4737100Y-561847D01*
X4742179Y-577342D01*
X4747513Y-587755D01*
X4757927Y-598170D01*
X4768341Y-603250D01*
X4789170Y-603250D01*
X4799329Y-598170D01*
X4809743Y-587755D01*
X4815077Y-577342D01*
X4849368Y-515112D02*
G01*
X4859781Y-509778D01*
X4875275Y-494284D01*
X4875275Y-603250D01*
X2376677Y-4012692D02*
G01*
X2371343Y-4002278D01*
X2360929Y-3991863D01*
X2350770Y-3986784D01*
X2329941Y-3986784D01*
X2319527Y-3991863D01*
X2309113Y-4002278D01*
X2303779Y-4012692D01*
X2298700Y-4028439D01*
X2298700Y-4054347D01*
X2303779Y-4069842D01*
X2309113Y-4080255D01*
X2319527Y-4090670D01*
X2329941Y-4095750D01*
X2350770Y-4095750D01*
X2360929Y-4090670D01*
X2371343Y-4080255D01*
X2376677Y-4069842D01*
X2416047Y-4012692D02*
G01*
X2416047Y-4007612D01*
X2421381Y-3997197D01*
X2426461Y-3991863D01*
X2436875Y-3986784D01*
X2457704Y-3986784D01*
X2468118Y-3991863D01*
X2473197Y-3997197D01*
X2478531Y-4007612D01*
X2478531Y-4018026D01*
X2473197Y-4028439D01*
X2462784Y-4043934D01*
X2410968Y-4095750D01*
X2483611Y-4095750D01*
X5450077Y-2945892D02*
G01*
X5444743Y-2935478D01*
X5434329Y-2925063D01*
X5424170Y-2919984D01*
X5403341Y-2919984D01*
X5392927Y-2925063D01*
X5382513Y-2935478D01*
X5377179Y-2945892D01*
X5372100Y-2961639D01*
X5372100Y-2987547D01*
X5377179Y-3003042D01*
X5382513Y-3013455D01*
X5392927Y-3023870D01*
X5403341Y-3028950D01*
X5424170Y-3028950D01*
X5434329Y-3023870D01*
X5444743Y-3013455D01*
X5450077Y-3003042D01*
X5494781Y-2919984D02*
G01*
X5551931Y-2919984D01*
X5520690Y-2961639D01*
X5536184Y-2961639D01*
X5546597Y-2966720D01*
X5551931Y-2971800D01*
X5557011Y-2987547D01*
X5557011Y-2997962D01*
X5551931Y-3013455D01*
X5541518Y-3023870D01*
X5525770Y-3028950D01*
X5510275Y-3028950D01*
X5494781Y-3023870D01*
X5489447Y-3018789D01*
X5484368Y-3008376D01*
X596900Y-951484D02*
G01*
X596900Y-1060450D01*
X596900Y-951484D02*
G01*
X633221Y-951484D01*
X648970Y-956563D01*
X659129Y-966978D01*
X664463Y-977392D01*
X669544Y-993139D01*
X669544Y-1019047D01*
X664463Y-1034542D01*
X659129Y-1044955D01*
X648970Y-1055370D01*
X633221Y-1060450D01*
X596900Y-1060450D01*
X703834Y-972312D02*
G01*
X714247Y-966978D01*
X729995Y-951484D01*
X729995Y-1060450D01*
X6565900Y-151384D02*
G01*
X6565900Y-260350D01*
X6565900Y-151384D02*
G01*
X6602222Y-151384D01*
X6617970Y-156463D01*
X6628129Y-166878D01*
X6633463Y-177292D01*
X6638543Y-193039D01*
X6638543Y-218947D01*
X6633463Y-234442D01*
X6628129Y-244855D01*
X6617970Y-255270D01*
X6602222Y-260350D01*
X6565900Y-260350D01*
X6678168Y-177292D02*
G01*
X6678168Y-172212D01*
X6683247Y-161797D01*
X6688581Y-156463D01*
X6698995Y-151384D01*
X6719570Y-151384D01*
X6729984Y-156463D01*
X6735318Y-161797D01*
X6740397Y-172212D01*
X6740397Y-182626D01*
X6735318Y-193039D01*
X6724904Y-208534D01*
X6672834Y-260350D01*
X6745731Y-260350D01*
X6609841Y-545084D02*
G01*
X6599427Y-550163D01*
X6589013Y-560578D01*
X6583679Y-570992D01*
X6578600Y-586739D01*
X6578600Y-612647D01*
X6583679Y-628142D01*
X6589013Y-638555D01*
X6599427Y-648970D01*
X6609841Y-654050D01*
X6630670Y-654050D01*
X6640829Y-648970D01*
X6651243Y-638555D01*
X6656577Y-628142D01*
X6661658Y-612647D01*
X6661658Y-586739D01*
X6656577Y-570992D01*
X6651243Y-560578D01*
X6640829Y-550163D01*
X6630670Y-545084D01*
X6609841Y-545084D01*
X6625336Y-633476D02*
G01*
X6656577Y-664463D01*
X6695947Y-565912D02*
G01*
X6706361Y-560578D01*
X6722109Y-545084D01*
X6722109Y-654050D01*
X4450841Y-684784D02*
G01*
X4440427Y-689863D01*
X4430013Y-700278D01*
X4424679Y-710692D01*
X4419600Y-726439D01*
X4419600Y-752347D01*
X4424679Y-767842D01*
X4430013Y-778255D01*
X4440427Y-788670D01*
X4450841Y-793750D01*
X4471670Y-793750D01*
X4481829Y-788670D01*
X4492243Y-778255D01*
X4497577Y-767842D01*
X4502658Y-752347D01*
X4502658Y-726439D01*
X4497577Y-710692D01*
X4492243Y-700278D01*
X4481829Y-689863D01*
X4471670Y-684784D01*
X4450841Y-684784D01*
X4466336Y-773176D02*
G01*
X4497577Y-804163D01*
X4542281Y-710692D02*
G01*
X4542281Y-705612D01*
X4547361Y-695197D01*
X4552695Y-689863D01*
X4563109Y-684784D01*
X4583684Y-684784D01*
X4594097Y-689863D01*
X4599431Y-695197D01*
X4604511Y-705612D01*
X4604511Y-716026D01*
X4599431Y-726439D01*
X4589018Y-741934D01*
X4536947Y-793750D01*
X4609845Y-793750D01*
X4438141Y-1167384D02*
G01*
X4427727Y-1172463D01*
X4417313Y-1182878D01*
X4411979Y-1193292D01*
X4406900Y-1209039D01*
X4406900Y-1234947D01*
X4411979Y-1250442D01*
X4417313Y-1260855D01*
X4427727Y-1271270D01*
X4438141Y-1276350D01*
X4458970Y-1276350D01*
X4469129Y-1271270D01*
X4479543Y-1260855D01*
X4484877Y-1250442D01*
X4489958Y-1234947D01*
X4489958Y-1209039D01*
X4484877Y-1193292D01*
X4479543Y-1182878D01*
X4469129Y-1172463D01*
X4458970Y-1167384D01*
X4438141Y-1167384D01*
X4453636Y-1255776D02*
G01*
X4484877Y-1286763D01*
X4534661Y-1167384D02*
G01*
X4591811Y-1167384D01*
X4560570Y-1209039D01*
X4576318Y-1209039D01*
X4586731Y-1214120D01*
X4591811Y-1219200D01*
X4597145Y-1234947D01*
X4597145Y-1245362D01*
X4591811Y-1260855D01*
X4581397Y-1271270D01*
X4565904Y-1276350D01*
X4550409Y-1276350D01*
X4534661Y-1271270D01*
X4529581Y-1266189D01*
X4524247Y-1255776D01*
X4749800Y-1180084D02*
G01*
X4749800Y-1289050D01*
X4749800Y-1180084D02*
G01*
X4796536Y-1180084D01*
X4812029Y-1185163D01*
X4817363Y-1190497D01*
X4822443Y-1200912D01*
X4822443Y-1211326D01*
X4817363Y-1221739D01*
X4812029Y-1226820D01*
X4796536Y-1231900D01*
X4749800Y-1231900D01*
X4786122Y-1231900D02*
G01*
X4822443Y-1289050D01*
X4856734Y-1200912D02*
G01*
X4867147Y-1195578D01*
X4882895Y-1180084D01*
X4882895Y-1289050D01*
X4724400Y-722884D02*
G01*
X4724400Y-831850D01*
X4724400Y-722884D02*
G01*
X4771136Y-722884D01*
X4786629Y-727963D01*
X4791963Y-733297D01*
X4797043Y-743712D01*
X4797043Y-754126D01*
X4791963Y-764539D01*
X4786629Y-769620D01*
X4771136Y-774700D01*
X4724400Y-774700D01*
X4760722Y-774700D02*
G01*
X4797043Y-831850D01*
X4836668Y-748792D02*
G01*
X4836668Y-743712D01*
X4841747Y-733297D01*
X4847081Y-727963D01*
X4857495Y-722884D01*
X4878070Y-722884D01*
X4888484Y-727963D01*
X4893818Y-733297D01*
X4898897Y-743712D01*
X4898897Y-754126D01*
X4893818Y-764539D01*
X4883404Y-780034D01*
X4831334Y-831850D01*
X4904231Y-831850D01*
X571500Y-1307084D02*
G01*
X571500Y-1416050D01*
X571500Y-1307084D02*
G01*
X618236Y-1307084D01*
X633729Y-1312163D01*
X639063Y-1317497D01*
X644144Y-1327912D01*
X644144Y-1338326D01*
X639063Y-1348739D01*
X633729Y-1353820D01*
X618236Y-1358900D01*
X571500Y-1358900D01*
X607821Y-1358900D02*
G01*
X644144Y-1416050D01*
X688847Y-1307084D02*
G01*
X745997Y-1307084D01*
X715010Y-1348739D01*
X730504Y-1348739D01*
X740918Y-1353820D01*
X745997Y-1358900D01*
X751331Y-1374647D01*
X751331Y-1385062D01*
X745997Y-1400555D01*
X735584Y-1410970D01*
X720089Y-1416050D01*
X704595Y-1416050D01*
X688847Y-1410970D01*
X683768Y-1405889D01*
X678434Y-1395476D01*
X4737100Y-951484D02*
G01*
X4737100Y-1060450D01*
X4737100Y-951484D02*
G01*
X4783836Y-951484D01*
X4799329Y-956563D01*
X4804663Y-961897D01*
X4809743Y-972312D01*
X4809743Y-982726D01*
X4804663Y-993139D01*
X4799329Y-998220D01*
X4783836Y-1003300D01*
X4737100Y-1003300D01*
X4773422Y-1003300D02*
G01*
X4809743Y-1060450D01*
X4896104Y-951484D02*
G01*
X4844034Y-1024128D01*
X4922011Y-1024128D01*
X4896104Y-951484D02*
G01*
X4896104Y-1060450D01*
X4724400Y-1586484D02*
G01*
X4724400Y-1695450D01*
X4724400Y-1586484D02*
G01*
X4771136Y-1586484D01*
X4786629Y-1591563D01*
X4791963Y-1596897D01*
X4797043Y-1607312D01*
X4797043Y-1617726D01*
X4791963Y-1628139D01*
X4786629Y-1633220D01*
X4771136Y-1638300D01*
X4724400Y-1638300D01*
X4760722Y-1638300D02*
G01*
X4797043Y-1695450D01*
X4893818Y-1586484D02*
G01*
X4841747Y-1586484D01*
X4836668Y-1633220D01*
X4841747Y-1628139D01*
X4857495Y-1622805D01*
X4872990Y-1622805D01*
X4888484Y-1628139D01*
X4898897Y-1638300D01*
X4904231Y-1654047D01*
X4904231Y-1664462D01*
X4898897Y-1679955D01*
X4888484Y-1690370D01*
X4872990Y-1695450D01*
X4857495Y-1695450D01*
X4841747Y-1690370D01*
X4836668Y-1685289D01*
X4831334Y-1674876D01*
X4724400Y-1815084D02*
G01*
X4724400Y-1924050D01*
X4724400Y-1815084D02*
G01*
X4771136Y-1815084D01*
X4786629Y-1820163D01*
X4791963Y-1825497D01*
X4797043Y-1835912D01*
X4797043Y-1846326D01*
X4791963Y-1856739D01*
X4786629Y-1861820D01*
X4771136Y-1866900D01*
X4724400Y-1866900D01*
X4760722Y-1866900D02*
G01*
X4797043Y-1924050D01*
X4893818Y-1830578D02*
G01*
X4888484Y-1820163D01*
X4872990Y-1815084D01*
X4862575Y-1815084D01*
X4847081Y-1820163D01*
X4836668Y-1835912D01*
X4831334Y-1861820D01*
X4831334Y-1887728D01*
X4836668Y-1908555D01*
X4847081Y-1918970D01*
X4862575Y-1924050D01*
X4867909Y-1924050D01*
X4883404Y-1918970D01*
X4893818Y-1908555D01*
X4898897Y-1893062D01*
X4898897Y-1887728D01*
X4893818Y-1872234D01*
X4883404Y-1861820D01*
X4867909Y-1856739D01*
X4862575Y-1856739D01*
X4847081Y-1861820D01*
X4836668Y-1872234D01*
X4831334Y-1887728D01*
X5600700Y-557784D02*
G01*
X5600700Y-666750D01*
X5600700Y-557784D02*
G01*
X5647436Y-557784D01*
X5662929Y-562863D01*
X5668263Y-568197D01*
X5673343Y-578612D01*
X5673343Y-589026D01*
X5668263Y-599439D01*
X5662929Y-604520D01*
X5647436Y-609600D01*
X5600700Y-609600D01*
X5637022Y-609600D02*
G01*
X5673343Y-666750D01*
X5780531Y-557784D02*
G01*
X5728461Y-666750D01*
X5707634Y-557784D02*
G01*
X5780531Y-557784D01*
X3683000Y-760984D02*
G01*
X3683000Y-869950D01*
X3683000Y-760984D02*
G01*
X3729736Y-760984D01*
X3745229Y-766063D01*
X3750563Y-771397D01*
X3755643Y-781812D01*
X3755643Y-792226D01*
X3750563Y-802639D01*
X3745229Y-807720D01*
X3729736Y-812800D01*
X3683000Y-812800D01*
X3719322Y-812800D02*
G01*
X3755643Y-869950D01*
X3816095Y-760984D02*
G01*
X3800347Y-766063D01*
X3795268Y-776478D01*
X3795268Y-786892D01*
X3800347Y-797305D01*
X3810761Y-802639D01*
X3831590Y-807720D01*
X3847084Y-812800D01*
X3857497Y-823213D01*
X3862831Y-833628D01*
X3862831Y-849376D01*
X3857497Y-859789D01*
X3852418Y-864870D01*
X3836670Y-869950D01*
X3816095Y-869950D01*
X3800347Y-864870D01*
X3795268Y-859789D01*
X3789934Y-849376D01*
X3789934Y-833628D01*
X3795268Y-823213D01*
X3805681Y-812800D01*
X3821175Y-807720D01*
X3842004Y-802639D01*
X3852418Y-797305D01*
X3857497Y-786892D01*
X3857497Y-776478D01*
X3852418Y-766063D01*
X3836670Y-760984D01*
X3816095Y-760984D01*
X3683000Y-519684D02*
G01*
X3683000Y-628650D01*
X3683000Y-519684D02*
G01*
X3729736Y-519684D01*
X3745229Y-524763D01*
X3750563Y-530097D01*
X3755643Y-540512D01*
X3755643Y-550926D01*
X3750563Y-561339D01*
X3745229Y-566420D01*
X3729736Y-571500D01*
X3683000Y-571500D01*
X3719322Y-571500D02*
G01*
X3755643Y-628650D01*
X3857497Y-556005D02*
G01*
X3852418Y-571500D01*
X3842004Y-581913D01*
X3826509Y-587247D01*
X3821175Y-587247D01*
X3805681Y-581913D01*
X3795268Y-571500D01*
X3789934Y-556005D01*
X3789934Y-550926D01*
X3795268Y-535178D01*
X3805681Y-524763D01*
X3821175Y-519684D01*
X3826509Y-519684D01*
X3842004Y-524763D01*
X3852418Y-535178D01*
X3857497Y-556005D01*
X3857497Y-581913D01*
X3852418Y-608076D01*
X3842004Y-623570D01*
X3826509Y-628650D01*
X3816095Y-628650D01*
X3800347Y-623570D01*
X3795268Y-613155D01*
X3683000Y-1053084D02*
G01*
X3683000Y-1162050D01*
X3683000Y-1053084D02*
G01*
X3729736Y-1053084D01*
X3745229Y-1058163D01*
X3750563Y-1063497D01*
X3755643Y-1073912D01*
X3755643Y-1084326D01*
X3750563Y-1094739D01*
X3745229Y-1099820D01*
X3729736Y-1104900D01*
X3683000Y-1104900D01*
X3719322Y-1104900D02*
G01*
X3755643Y-1162050D01*
X3789934Y-1073912D02*
G01*
X3800347Y-1068578D01*
X3816095Y-1053084D01*
X3816095Y-1162050D01*
X3881374Y-1053084D02*
G01*
X3865879Y-1058163D01*
X3855465Y-1073912D01*
X3850386Y-1099820D01*
X3850386Y-1115313D01*
X3855465Y-1141476D01*
X3865879Y-1156970D01*
X3881374Y-1162050D01*
X3891788Y-1162050D01*
X3907536Y-1156970D01*
X3917950Y-1141476D01*
X3923029Y-1115313D01*
X3923029Y-1099820D01*
X3917950Y-1073912D01*
X3907536Y-1058163D01*
X3891788Y-1053084D01*
X3881374Y-1053084D01*
X3683000Y-1307084D02*
G01*
X3683000Y-1416050D01*
X3683000Y-1307084D02*
G01*
X3729736Y-1307084D01*
X3745229Y-1312163D01*
X3750563Y-1317497D01*
X3755643Y-1327912D01*
X3755643Y-1338326D01*
X3750563Y-1348739D01*
X3745229Y-1353820D01*
X3729736Y-1358900D01*
X3683000Y-1358900D01*
X3719322Y-1358900D02*
G01*
X3755643Y-1416050D01*
X3789934Y-1327912D02*
G01*
X3800347Y-1322578D01*
X3816095Y-1307084D01*
X3816095Y-1416050D01*
X3850386Y-1327912D02*
G01*
X3860800Y-1322578D01*
X3876293Y-1307084D01*
X3876293Y-1416050D01*
D12*
X4007358Y-4166105D02*
G01*
X4007358Y-4332221D01*
X3924300Y-4249163D02*
G01*
X4090670Y-4249163D01*
X3924300Y-3055365D02*
G01*
X4090670Y-3055365D01*
X3073400Y-3528819D02*
G01*
X3073400Y-3722621D01*
X3134359Y-3528819D02*
G01*
X3134359Y-3722621D01*
X3134359Y-3528819D02*
G01*
X3263645Y-3722621D01*
X3263645Y-3528819D02*
G01*
X3263645Y-3722621D01*
X4500374Y-3541519D02*
G01*
X4481832Y-3550663D01*
X4463544Y-3569205D01*
X4454146Y-3587747D01*
X4445002Y-3615433D01*
X4445002Y-3661407D01*
X4454146Y-3689347D01*
X4463544Y-3707635D01*
X4481832Y-3726177D01*
X4500374Y-3735321D01*
X4537458Y-3735321D01*
X4555746Y-3726177D01*
X4574288Y-3707635D01*
X4583432Y-3689347D01*
X4592830Y-3661407D01*
X4592830Y-3615433D01*
X4583432Y-3587747D01*
X4574288Y-3569205D01*
X4555746Y-3550663D01*
X4537458Y-3541519D01*
X4500374Y-3541519D01*
X4653790Y-3541519D02*
G01*
X4653790Y-3679949D01*
X4662934Y-3707635D01*
X4681476Y-3726177D01*
X4709162Y-3735321D01*
X4727704Y-3735321D01*
X4755390Y-3726177D01*
X4773932Y-3707635D01*
X4783076Y-3679949D01*
X4783076Y-3541519D01*
X4908552Y-3541519D02*
G01*
X4908552Y-3735321D01*
X4844036Y-3541519D02*
G01*
X4973322Y-3541519D01*
D10*
X266700Y-379984D02*
G01*
X266700Y-457962D01*
X271779Y-473455D01*
X282194Y-483870D01*
X297942Y-488950D01*
X308355Y-488950D01*
X323850Y-483870D01*
X334263Y-473455D01*
X339344Y-457962D01*
X339344Y-379984D01*
X373634Y-400812D02*
G01*
X384047Y-395478D01*
X399795Y-379984D01*
X399795Y-488950D01*
X465073Y-379984D02*
G01*
X449579Y-385063D01*
X439165Y-400812D01*
X434086Y-426720D01*
X434086Y-442213D01*
X439165Y-468376D01*
X449579Y-483870D01*
X465073Y-488950D01*
X475487Y-488950D01*
X491236Y-483870D01*
X501650Y-468376D01*
X506729Y-442213D01*
X506729Y-426720D01*
X501650Y-400812D01*
X491236Y-385063D01*
X475487Y-379984D01*
X465073Y-379984D01*
X6959600Y-354584D02*
G01*
X6959600Y-432562D01*
X6964679Y-448055D01*
X6975093Y-458470D01*
X6990841Y-463550D01*
X7001256Y-463550D01*
X7016750Y-458470D01*
X7027163Y-448055D01*
X7032243Y-432562D01*
X7032243Y-354584D01*
X7066534Y-375412D02*
G01*
X7076947Y-370078D01*
X7092695Y-354584D01*
X7092695Y-463550D01*
X7126986Y-375412D02*
G01*
X7137400Y-370078D01*
X7152893Y-354584D01*
X7152893Y-463550D01*
X241300Y-4158284D02*
G01*
X241300Y-4236262D01*
X246379Y-4251756D01*
X256794Y-4262170D01*
X272542Y-4267250D01*
X282955Y-4267250D01*
X298450Y-4262170D01*
X308863Y-4251756D01*
X313944Y-4236262D01*
X313944Y-4158284D01*
X348234Y-4179112D02*
G01*
X358647Y-4173778D01*
X374395Y-4158284D01*
X374395Y-4267250D01*
X413765Y-4184192D02*
G01*
X413765Y-4179112D01*
X419100Y-4168698D01*
X424179Y-4163364D01*
X434594Y-4158284D01*
X455421Y-4158284D01*
X465836Y-4163364D01*
X470915Y-4168698D01*
X476250Y-4179112D01*
X476250Y-4189526D01*
X470915Y-4199940D01*
X460502Y-4215434D01*
X408686Y-4267250D01*
X481329Y-4267250D01*
X6959600Y-4170984D02*
G01*
X6959600Y-4248962D01*
X6964679Y-4264456D01*
X6975093Y-4274870D01*
X6990841Y-4279950D01*
X7001256Y-4279950D01*
X7016750Y-4274870D01*
X7027163Y-4264456D01*
X7032243Y-4248962D01*
X7032243Y-4170984D01*
X7066534Y-4191812D02*
G01*
X7076947Y-4186478D01*
X7092695Y-4170984D01*
X7092695Y-4279950D01*
X7137400Y-4170984D02*
G01*
X7194550Y-4170984D01*
X7163308Y-4212640D01*
X7178802Y-4212640D01*
X7189215Y-4217720D01*
X7194550Y-4222800D01*
X7199629Y-4238548D01*
X7199629Y-4248962D01*
X7194550Y-4264456D01*
X7184136Y-4274870D01*
X7168388Y-4279950D01*
X7152893Y-4279950D01*
X7137400Y-4274870D01*
X7132065Y-4269790D01*
X7126986Y-4259376D01*
X127000Y-1789684D02*
G01*
X127000Y-1867662D01*
X132079Y-1883155D01*
X142494Y-1893570D01*
X158242Y-1898650D01*
X168655Y-1898650D01*
X184150Y-1893570D01*
X194563Y-1883155D01*
X199644Y-1867662D01*
X199644Y-1789684D01*
X275589Y-1789684D02*
G01*
X233934Y-1898650D01*
X275589Y-1789684D02*
G01*
X317245Y-1898650D01*
X249681Y-1862328D02*
G01*
X301497Y-1862328D01*
X351536Y-1789684D02*
G01*
X351536Y-1898650D01*
X351536Y-1789684D02*
G01*
X398271Y-1789684D01*
X413765Y-1794763D01*
X419100Y-1800097D01*
X424179Y-1810512D01*
X424179Y-1820926D01*
X419100Y-1831339D01*
X413765Y-1836420D01*
X398271Y-1841500D01*
X351536Y-1841500D01*
X387857Y-1841500D02*
G01*
X424179Y-1898650D01*
X494792Y-1789684D02*
G01*
X494792Y-1898650D01*
X458470Y-1789684D02*
G01*
X531113Y-1789684D01*
X1485900Y-4329684D02*
G01*
X1485900Y-4438650D01*
X1485900Y-4329684D02*
G01*
X1553463Y-4329684D01*
X1485900Y-4381500D02*
G01*
X1527555Y-4381500D01*
X1587754Y-4350512D02*
G01*
X1598168Y-4345178D01*
X1613662Y-4329684D01*
X1613662Y-4438650D01*
G36*
X2514600Y-2806700D02*
G01*
X2514600Y-3675379D01*
X2600960Y-3601720D01*
X2679700Y-3520440D01*
X2733040Y-3403600D01*
X2753360Y-3322320D01*
X2766060Y-3238500D01*
X2743200Y-3108960D01*
X2692400Y-2987040D01*
X2613660Y-2882900D01*
G37*
G36*
X6045200Y-3517900D02*
G01*
X6045200Y-4386580D01*
X6131560Y-4312920D01*
X6210300Y-4231640D01*
X6263640Y-4114800D01*
X6283960Y-4033520D01*
X6296660Y-3949700D01*
X6273800Y-3820160D01*
X6223000Y-3698240D01*
X6144260Y-3594100D01*
G37*
D13*
X6007100Y-2947593D02*
G01*
X6273800Y-2947593D01*
X6273800Y-3252393D01*
X6007100Y-3252393D01*
X6007100Y-2947593D01*
X6273800Y-2947593D02*
G01*
X6527800Y-2947593D01*
X6527800Y-3252393D01*
X6273800Y-3252393D01*
X6273800Y-2947593D01*
X6527800Y-2947593D02*
G01*
X6781800Y-2947593D01*
X6781800Y-3252393D01*
X6527800Y-3252393D01*
X6527800Y-2947593D01*
X6781800Y-2947593D02*
G01*
X7035800Y-2947593D01*
X7035800Y-3252393D01*
X6781800Y-3252393D01*
X6781800Y-2947593D01*
X6007100Y-2297595D02*
G01*
X6273800Y-2297595D01*
X6273800Y-2602395D01*
X6007100Y-2602395D01*
X6007100Y-2297595D01*
X6273800Y-2297595D02*
G01*
X6527800Y-2297595D01*
X6527800Y-2602395D01*
X6273800Y-2602395D01*
X6273800Y-2297595D01*
X6527800Y-2297595D02*
G01*
X6781800Y-2297595D01*
X6781800Y-2602395D01*
X6527800Y-2602395D01*
X6527800Y-2297595D01*
X6781800Y-2297595D02*
G01*
X7035800Y-2297595D01*
X7035800Y-2602395D01*
X6781800Y-2602395D01*
X6781800Y-2297595D01*
X7378700Y-1841500D02*
G01*
X7128687Y-1841500D01*
X7128687Y-1591487D01*
X7378700Y-1591487D01*
X7378700Y-1841500D01*
X7378700Y-1587500D02*
G01*
X7128687Y-1587500D01*
X7128687Y-1337487D01*
X7378700Y-1337487D01*
X7378700Y-1587500D01*
X7378700Y-1333500D02*
G01*
X7128687Y-1333500D01*
X7128687Y-1083487D01*
X7378700Y-1083487D01*
X7378700Y-1333500D01*
X6753301Y-1841500D02*
G01*
X6503288Y-1841500D01*
X6503288Y-1591487D01*
X6753301Y-1591487D01*
X6753301Y-1841500D01*
X6753301Y-1587500D02*
G01*
X6503288Y-1587500D01*
X6503288Y-1337487D01*
X6753301Y-1337487D01*
X6753301Y-1587500D01*
X6753301Y-1333500D02*
G01*
X6503288Y-1333500D01*
X6503288Y-1083487D01*
X6753301Y-1083487D01*
X6753301Y-1333500D01*
X6134100Y-1841500D02*
G01*
X5884087Y-1841500D01*
X5884087Y-1591487D01*
X6134100Y-1591487D01*
X6134100Y-1841500D01*
X6134100Y-1587500D02*
G01*
X5884087Y-1587500D01*
X5884087Y-1337487D01*
X6134100Y-1337487D01*
X6134100Y-1587500D01*
X6134100Y-1333500D02*
G01*
X5884087Y-1333500D01*
X5884087Y-1083487D01*
X6134100Y-1083487D01*
X6134100Y-1333500D01*
X1955800Y-3035300D02*
G01*
X2057400Y-3035300D01*
X2006600Y-2984500D02*
G01*
X2006600Y-3086100D01*
X5486400Y-3746500D02*
G01*
X5588000Y-3746500D01*
X5537200Y-3695700D02*
G01*
X5537200Y-3797300D01*
X5372100Y-340898D02*
G01*
X5372100Y-90898D01*
X5651096Y-90898D02*
G01*
X775103Y-90898D01*
X5651096Y-340898D02*
G01*
X5651096Y-90898D01*
X775103Y-340898D02*
G01*
X5651096Y-340898D01*
X775103Y-90898D02*
G01*
X775103Y-340898D01*
X5372092Y-2610893D02*
G01*
X5372092Y-2360894D01*
X5651088Y-2360894D02*
G01*
X775096Y-2360894D01*
X5651088Y-2610893D02*
G01*
X5651088Y-2360894D01*
X775096Y-2610893D02*
G01*
X5651088Y-2610893D01*
X775096Y-2360894D02*
G01*
X775096Y-2610893D01*
X1498800Y-3755600D02*
G01*
X1438800Y-3755600D01*
X1498800Y-3510600D02*
G01*
X1498800Y-3755600D01*
X1498800Y-3090600D02*
G01*
X1498800Y-2855600D01*
X1498800Y-2855600D02*
G01*
X128803Y-2855600D01*
X128803Y-2855600D02*
G01*
X128803Y-3755600D01*
X128803Y-3755600D02*
G01*
X1028801Y-3755600D01*
X5120718Y-475142D02*
G01*
X5200716Y-475142D01*
X5064673Y-475096D02*
G01*
X4984676Y-475096D01*
X5120718Y-617110D02*
G01*
X5200716Y-617110D01*
X5064673Y-617062D02*
G01*
X4984676Y-617062D01*
X5231691Y-506125D02*
G01*
X5231691Y-586130D01*
X4953698Y-586077D02*
G01*
X4953698Y-506074D01*
X2054781Y-4109557D02*
G01*
X1974783Y-4109557D01*
X2110826Y-4109603D02*
G01*
X2190823Y-4109603D01*
X2054781Y-3967589D02*
G01*
X1974783Y-3967589D01*
X2110826Y-3967637D02*
G01*
X2190823Y-3967637D01*
X1943808Y-4078574D02*
G01*
X1943808Y-3998569D01*
X2221801Y-3998622D02*
G01*
X2221801Y-4078625D01*
X5432981Y-3245957D02*
G01*
X5352983Y-3245957D01*
X5489026Y-3246003D02*
G01*
X5569023Y-3246003D01*
X5432981Y-3103989D02*
G01*
X5352983Y-3103989D01*
X5489026Y-3104037D02*
G01*
X5569023Y-3104037D01*
X5322008Y-3214974D02*
G01*
X5322008Y-3134969D01*
X5600001Y-3135022D02*
G01*
X5600001Y-3215025D01*
X335531Y-1086101D02*
G01*
X208531Y-1086101D01*
X208531Y-945893D01*
X335531Y-945893D01*
X346600Y-1016195D02*
G01*
X367487Y-1016010D01*
X385599Y-1086002D02*
G01*
X495597Y-1086002D01*
X525599Y-1055994D01*
X525599Y-976000D01*
X495597Y-945992D01*
X495597Y-945992D02*
G01*
X385599Y-945992D01*
X346600Y-1055994D02*
G01*
X346600Y-977996D01*
X5988050Y-342900D02*
G01*
X5988050Y-88900D01*
X6508750Y-88900D01*
X6508750Y-342900D01*
X5988050Y-342900D01*
D10*
X6528020Y-695469D02*
G01*
X6528020Y-523730D01*
X6424858Y-523730D01*
X6222779Y-695469D02*
G01*
X6222779Y-523730D01*
X6325941Y-523730D01*
X6420939Y-695469D02*
G01*
X6329860Y-695469D01*
X4062780Y-648992D02*
G01*
X4062780Y-824232D01*
X4166941Y-824232D01*
X4370019Y-648992D02*
G01*
X4370019Y-824232D01*
X4265858Y-824232D01*
X4170860Y-648992D02*
G01*
X4261939Y-648992D01*
X4062780Y-1144292D02*
G01*
X4062780Y-1319532D01*
X4166941Y-1319532D01*
X4370019Y-1144292D02*
G01*
X4370019Y-1319532D01*
X4265858Y-1319532D01*
X4170860Y-1144292D02*
G01*
X4261939Y-1144292D01*
X5135321Y-1297960D02*
G01*
X5231208Y-1297960D01*
X5231208Y-1165839D01*
X5135321Y-1165839D01*
X5050078Y-1297960D02*
G01*
X4954191Y-1297960D01*
X4954191Y-1165839D01*
X5050078Y-1165839D01*
X5050078Y-708639D02*
G01*
X4954191Y-708639D01*
X4954191Y-840760D01*
X5050078Y-840760D01*
X5135321Y-708639D02*
G01*
X5231208Y-708639D01*
X5231208Y-840760D01*
X5135321Y-840760D01*
X312978Y-1305539D02*
G01*
X217091Y-1305539D01*
X217091Y-1437660D01*
X312978Y-1437660D01*
X398221Y-1305539D02*
G01*
X494108Y-1305539D01*
X494108Y-1437660D01*
X398221Y-1437660D01*
X5050078Y-937239D02*
G01*
X4954191Y-937239D01*
X4954191Y-1069360D01*
X5050078Y-1069360D01*
X5135321Y-937239D02*
G01*
X5231208Y-937239D01*
X5231208Y-1069360D01*
X5135321Y-1069360D01*
X5050078Y-1572239D02*
G01*
X4954191Y-1572239D01*
X4954191Y-1704360D01*
X5050078Y-1704360D01*
X5135321Y-1572239D02*
G01*
X5231208Y-1572239D01*
X5231208Y-1704360D01*
X5135321Y-1704360D01*
X5050078Y-1800839D02*
G01*
X4954191Y-1800839D01*
X4954191Y-1932960D01*
X5050078Y-1932960D01*
X5135321Y-1800839D02*
G01*
X5231208Y-1800839D01*
X5231208Y-1932960D01*
X5135321Y-1932960D01*
X5926378Y-543539D02*
G01*
X5830491Y-543539D01*
X5830491Y-675660D01*
X5926378Y-675660D01*
X6011621Y-543539D02*
G01*
X6107508Y-543539D01*
X6107508Y-675660D01*
X6011621Y-675660D01*
X3437178Y-746739D02*
G01*
X3341291Y-746739D01*
X3341291Y-878860D01*
X3437178Y-878860D01*
X3522421Y-746739D02*
G01*
X3618308Y-746739D01*
X3618308Y-878860D01*
X3522421Y-878860D01*
X3437178Y-505439D02*
G01*
X3341291Y-505439D01*
X3341291Y-637560D01*
X3437178Y-637560D01*
X3522421Y-505439D02*
G01*
X3618308Y-505439D01*
X3618308Y-637560D01*
X3522421Y-637560D01*
X3437178Y-1051539D02*
G01*
X3341291Y-1051539D01*
X3341291Y-1183660D01*
X3437178Y-1183660D01*
X3522421Y-1051539D02*
G01*
X3618308Y-1051539D01*
X3618308Y-1183660D01*
X3522421Y-1183660D01*
X3437178Y-1292839D02*
G01*
X3341291Y-1292839D01*
X3341291Y-1424960D01*
X3437178Y-1424960D01*
X3522421Y-1292839D02*
G01*
X3618308Y-1292839D01*
X3618308Y-1424960D01*
X3522421Y-1424960D01*
D13*
X2895600Y-4472198D02*
G01*
X5105400Y-4472198D01*
X2895600Y-2792199D02*
G01*
X5105400Y-2792199D01*
X2895600Y-2792199D02*
G01*
X2895600Y-4472198D01*
X5105400Y-2792199D02*
G01*
X5105400Y-4472198D01*
X317500Y-1981200D02*
G01*
X567512Y-1981200D01*
X567512Y-2231212D01*
X317500Y-2231212D01*
X317500Y-1981200D01*
X317500Y-2235200D02*
G01*
X567512Y-2235200D01*
X567512Y-2485212D01*
X317500Y-2485212D01*
X317500Y-2235200D01*
X317500Y-2489200D02*
G01*
X567512Y-2489200D01*
X567512Y-2739212D01*
X317500Y-2739212D01*
X317500Y-2489200D01*
D10*
X1075781Y-4272239D02*
G01*
X956769Y-4272239D01*
X1261021Y-4272239D02*
G01*
X1380030Y-4272239D01*
X941529Y-4287479D02*
G01*
X941529Y-4475520D01*
X1395270Y-4287479D02*
G01*
X1395270Y-4475520D01*
X956769Y-4490760D02*
G01*
X1075781Y-4490760D01*
X1380030Y-4490760D02*
G01*
X1261021Y-4490760D01*
D13*
G75*
G01*
X4984681Y-617063D02*
G02*
X4953699Y-586077I0J30983D01*
G75*
G01*
X4953699Y-506080D02*
G02*
X4984681Y-475097I30982J0D01*
G75*
G01*
X5200711Y-475143D02*
G02*
X5231691Y-506125I-3J-30982D01*
G75*
G01*
X5231691Y-586123D02*
G02*
X5200711Y-617111I-30983J-5D01*
G75*
G01*
X2190819Y-3967637D02*
G02*
X2221801Y-3998623I0J-30983D01*
G75*
G01*
X2221801Y-4078620D02*
G02*
X2190819Y-4109603I-30982J0D01*
G75*
G01*
X1974789Y-4109557D02*
G02*
X1943809Y-4078575I3J30982D01*
G75*
G01*
X1943809Y-3998577D02*
G02*
X1974789Y-3967589I30983J5D01*
G75*
G01*
X5569019Y-3104037D02*
G02*
X5600001Y-3135023I0J-30983D01*
G75*
G01*
X5600001Y-3215020D02*
G02*
X5569019Y-3246003I-30982J0D01*
G75*
G01*
X5352989Y-3245957D02*
G02*
X5322009Y-3214975I3J30982D01*
G75*
G01*
X5322009Y-3134977D02*
G02*
X5352989Y-3103989I30983J5D01*
D14*
G75*
G01*
X1168400Y-4381500D02*
G02*
X1168400Y-4297004I73175J42248D01*
G75*
G01*
X1168400Y-4381500D02*
G02*
X1168400Y-4465996I-73175J-42248D01*
D13*
G75*
G01
X2760599Y-3238500D02*
G03X2760599Y-3238500I-499999J0D01*
G75*
G01
X6291199Y-3949700D02*
G03X6291199Y-3949700I-499999J0D01*
M02*
