G04 Layer: TopLayer*
G04 EasyEDA v6.5.57, 2026-08-28 16:13:09*
G04 5e0a217a3e3e4001abd121eb4e72d0a8,73b71592eb5d450092b712373c5d4a3f,10*
G04 Gerber Generator version 0.2*
G04 Scale: 100 percent, Rotated: No, Reflected: No *
G04 Dimensions in millimeters *
G04 leading zeros omitted , absolute positions ,4 integer and 5 decimal *
%FSLAX45Y45*%
%MOMM*%

%AMMACRO1*21,1,$1,$2,0,0,$3*%
%ADD10C,0.3000*%
%ADD11C,2.0000*%
%ADD12C,0.8000*%
%ADD13R,0.8000X0.9000*%
%ADD14R,0.8000X0.8000*%
%ADD15R,0.5320X1.0375*%
%ADD16R,0.6000X1.0700*%
%ADD17MACRO1,0.864X0.8065X90.0000*%
%ADD18C,0.0144*%
%ADD19MACRO1,0.864X0.8065X-90.0000*%
%ADD20R,1.1901X1.7280*%
%ADD21C,1.5240*%
%ADD22R,1.5240X1.5240*%
%ADD23C,1.6000*%
%ADD24R,1.6000X1.6000*%
%ADD25O,4.199992X1.999996*%
%ADD26O,1.999996X4.199992*%
%ADD27C,1.8796*%
%ADD28R,1.8796X1.8796*%
%ADD29R,2.0000X2.0000*%
%ADD30C,0.6200*%

%LPD*%
G36*
X3968546Y-1481175D02*
G01*
X3964635Y-1480413D01*
X3961333Y-1478229D01*
X3959148Y-1474927D01*
X3958386Y-1471015D01*
X3959148Y-1467154D01*
X3961333Y-1463852D01*
X4011371Y-1413814D01*
X4014673Y-1411630D01*
X4018534Y-1410868D01*
X4129430Y-1410868D01*
X4133951Y-1411935D01*
X4143349Y-1416608D01*
X4146550Y-1419148D01*
X4148531Y-1422755D01*
X4149039Y-1424381D01*
X4152747Y-1431391D01*
X4157776Y-1437538D01*
X4163923Y-1442567D01*
X4170934Y-1446276D01*
X4178503Y-1448612D01*
X4186885Y-1449425D01*
X4245914Y-1449425D01*
X4254296Y-1448612D01*
X4261866Y-1446276D01*
X4268876Y-1442567D01*
X4275023Y-1437538D01*
X4280052Y-1431391D01*
X4283760Y-1424381D01*
X4284268Y-1422806D01*
X4286199Y-1419199D01*
X4289450Y-1416659D01*
X4298797Y-1411986D01*
X4303369Y-1410919D01*
X4390237Y-1410919D01*
X4394606Y-1411884D01*
X4399534Y-1414221D01*
X4402988Y-1416710D01*
X4412538Y-1422603D01*
X4422902Y-1426870D01*
X4433824Y-1429512D01*
X4445000Y-1430375D01*
X4456176Y-1429512D01*
X4467098Y-1426870D01*
X4477461Y-1422603D01*
X4487011Y-1416710D01*
X4495546Y-1409446D01*
X4502810Y-1400911D01*
X4508703Y-1391361D01*
X4512970Y-1380998D01*
X4515612Y-1370076D01*
X4516475Y-1358900D01*
X4515612Y-1347724D01*
X4512970Y-1336802D01*
X4508703Y-1326438D01*
X4502810Y-1316888D01*
X4495546Y-1308354D01*
X4487011Y-1301089D01*
X4477461Y-1295196D01*
X4467098Y-1290929D01*
X4456176Y-1288288D01*
X4445000Y-1287424D01*
X4433824Y-1288288D01*
X4422902Y-1290929D01*
X4412538Y-1295196D01*
X4409135Y-1296873D01*
X4399940Y-1299514D01*
X4397146Y-1299921D01*
X4303369Y-1299921D01*
X4298797Y-1298803D01*
X4289450Y-1294130D01*
X4286199Y-1291590D01*
X4284268Y-1287983D01*
X4283760Y-1286408D01*
X4280052Y-1279448D01*
X4275023Y-1273302D01*
X4268876Y-1268272D01*
X4261866Y-1264513D01*
X4256532Y-1262888D01*
X4252874Y-1260906D01*
X4250334Y-1257604D01*
X4249318Y-1253591D01*
X4250029Y-1249476D01*
X4252264Y-1246022D01*
X4264761Y-1233525D01*
X4294581Y-1205230D01*
X4297832Y-1203147D01*
X4301591Y-1202436D01*
X4340910Y-1202436D01*
X4349292Y-1201572D01*
X4356862Y-1199286D01*
X4363872Y-1195578D01*
X4370019Y-1190498D01*
X4375048Y-1184402D01*
X4378756Y-1177391D01*
X4380534Y-1171651D01*
X4382465Y-1168095D01*
X4385716Y-1165555D01*
X4393793Y-1161491D01*
X4398365Y-1160424D01*
X4406696Y-1160424D01*
X4411726Y-1160170D01*
X4416552Y-1159560D01*
X4421276Y-1158494D01*
X4425899Y-1157071D01*
X4430369Y-1155192D01*
X4434636Y-1152956D01*
X4438751Y-1150366D01*
X4442561Y-1147419D01*
X4446320Y-1144016D01*
X4573016Y-1017320D01*
X4576419Y-1013561D01*
X4579366Y-1009751D01*
X4581956Y-1005636D01*
X4584192Y-1001369D01*
X4586071Y-996899D01*
X4587494Y-992276D01*
X4588560Y-987552D01*
X4589170Y-982726D01*
X4589424Y-977696D01*
X4589424Y-813003D01*
X4589170Y-807974D01*
X4588560Y-803148D01*
X4587494Y-798423D01*
X4586071Y-793800D01*
X4584192Y-789330D01*
X4581956Y-785063D01*
X4579366Y-780948D01*
X4576419Y-777138D01*
X4573016Y-773379D01*
X4416755Y-617016D01*
X4406747Y-603351D01*
X4405223Y-600202D01*
X4404817Y-596696D01*
X4405630Y-593293D01*
X4408271Y-587248D01*
X4409694Y-582777D01*
X4410760Y-578002D01*
X4411370Y-573227D01*
X4411624Y-568147D01*
X4411624Y-331063D01*
X4412488Y-326948D01*
X4414977Y-323545D01*
X4418634Y-321411D01*
X4422851Y-321005D01*
X4426864Y-322275D01*
X4429404Y-323748D01*
X4443069Y-329539D01*
X4457344Y-333603D01*
X4471974Y-335889D01*
X4486808Y-336346D01*
X4501591Y-334975D01*
X4516069Y-331774D01*
X4530090Y-326847D01*
X4543348Y-320243D01*
X4555693Y-312064D01*
X4566970Y-302412D01*
X4576978Y-291439D01*
X4585563Y-279349D01*
X4592574Y-266242D01*
X4597908Y-252425D01*
X4600194Y-243433D01*
X4601819Y-239877D01*
X4604715Y-237236D01*
X4608372Y-235915D01*
X4612284Y-236016D01*
X4615891Y-237591D01*
X4618583Y-240436D01*
X4624730Y-259435D01*
X4630928Y-272897D01*
X4638751Y-285496D01*
X4648047Y-297078D01*
X4658715Y-307390D01*
X4670552Y-316331D01*
X4683404Y-323748D01*
X4697069Y-329539D01*
X4711344Y-333603D01*
X4725974Y-335889D01*
X4740808Y-336346D01*
X4755591Y-334975D01*
X4770069Y-331774D01*
X4784090Y-326847D01*
X4797348Y-320243D01*
X4809693Y-312064D01*
X4820970Y-302412D01*
X4830978Y-291439D01*
X4839563Y-279349D01*
X4846574Y-266242D01*
X4851908Y-252425D01*
X4854194Y-243433D01*
X4855819Y-239877D01*
X4858715Y-237236D01*
X4862372Y-235915D01*
X4866284Y-236016D01*
X4869891Y-237591D01*
X4872583Y-240436D01*
X4878730Y-259435D01*
X4884928Y-272897D01*
X4892751Y-285496D01*
X4902047Y-297078D01*
X4912715Y-307390D01*
X4924552Y-316331D01*
X4937404Y-323748D01*
X4951069Y-329539D01*
X4965344Y-333603D01*
X4979974Y-335889D01*
X4994808Y-336346D01*
X5009591Y-334975D01*
X5024069Y-331774D01*
X5038090Y-326847D01*
X5051348Y-320243D01*
X5063693Y-312064D01*
X5074970Y-302412D01*
X5084978Y-291439D01*
X5093563Y-279349D01*
X5100574Y-266242D01*
X5105908Y-252425D01*
X5108194Y-243433D01*
X5109819Y-239877D01*
X5112715Y-237236D01*
X5116372Y-235915D01*
X5120284Y-236016D01*
X5123891Y-237591D01*
X5126583Y-240436D01*
X5132730Y-259435D01*
X5138928Y-272897D01*
X5146751Y-285496D01*
X5153660Y-294386D01*
X5187340Y-336296D01*
X5189016Y-339293D01*
X5189575Y-342646D01*
X5189575Y-450443D01*
X5188813Y-454304D01*
X5186629Y-457606D01*
X5183327Y-459841D01*
X5179415Y-460603D01*
X5123180Y-460603D01*
X5114798Y-461416D01*
X5107228Y-463702D01*
X5100218Y-467461D01*
X5096103Y-470052D01*
X5092700Y-470662D01*
X5089296Y-470052D01*
X5085181Y-467461D01*
X5078171Y-463702D01*
X5070602Y-461416D01*
X5062220Y-460603D01*
X5049062Y-460603D01*
X5049062Y-517245D01*
X5072024Y-517245D01*
X5075885Y-518007D01*
X5079187Y-520242D01*
X5081422Y-523544D01*
X5082184Y-527405D01*
X5082184Y-564794D01*
X5081422Y-568655D01*
X5079187Y-571957D01*
X5075885Y-574192D01*
X5072024Y-574954D01*
X5049062Y-574954D01*
X5049062Y-631596D01*
X5062220Y-631596D01*
X5070602Y-630783D01*
X5078171Y-628497D01*
X5085080Y-624789D01*
X5088940Y-623620D01*
X5092954Y-624078D01*
X5096459Y-626059D01*
X5098948Y-629208D01*
X5106111Y-643534D01*
X5107178Y-648055D01*
X5107178Y-675741D01*
X5106314Y-679856D01*
X5098897Y-696569D01*
X5096764Y-699668D01*
X5093716Y-701751D01*
X5090109Y-702614D01*
X5086400Y-702106D01*
X5083149Y-700328D01*
X5080203Y-697839D01*
X5073192Y-694131D01*
X5065572Y-691794D01*
X5057190Y-690981D01*
X4977536Y-690981D01*
X4969154Y-691794D01*
X4961585Y-694131D01*
X4954574Y-697839D01*
X4948428Y-702868D01*
X4943398Y-709015D01*
X4940554Y-713333D01*
X4938014Y-715162D01*
X4924653Y-721868D01*
X4920081Y-722934D01*
X4911394Y-722934D01*
X4906314Y-723138D01*
X4901539Y-723798D01*
X4896815Y-724814D01*
X4892192Y-726287D01*
X4887722Y-728116D01*
X4883404Y-730351D01*
X4879340Y-732993D01*
X4875479Y-735939D01*
X4871770Y-739343D01*
X4774184Y-836879D01*
X4770780Y-840638D01*
X4767834Y-844448D01*
X4765243Y-848563D01*
X4763008Y-852830D01*
X4761128Y-857300D01*
X4759706Y-861923D01*
X4758639Y-866648D01*
X4758029Y-871474D01*
X4757775Y-876503D01*
X4757775Y-1001521D01*
X4757013Y-1005382D01*
X4754829Y-1008684D01*
X4669129Y-1094333D01*
X4667199Y-1095908D01*
X4664913Y-1096873D01*
X4649470Y-1101547D01*
X4642967Y-1102614D01*
X4631486Y-1106170D01*
X4620666Y-1111402D01*
X4610709Y-1118158D01*
X4601921Y-1126337D01*
X4594402Y-1135786D01*
X4588408Y-1146200D01*
X4583988Y-1157376D01*
X4581296Y-1169111D01*
X4580432Y-1181100D01*
X4581296Y-1193088D01*
X4583988Y-1204823D01*
X4588408Y-1215999D01*
X4594402Y-1226413D01*
X4601921Y-1235862D01*
X4610709Y-1244041D01*
X4620666Y-1250797D01*
X4631486Y-1256030D01*
X4642967Y-1259586D01*
X4654905Y-1261364D01*
X4666894Y-1261364D01*
X4678832Y-1259586D01*
X4690313Y-1256030D01*
X4701133Y-1250797D01*
X4711090Y-1244041D01*
X4719878Y-1235862D01*
X4727397Y-1226413D01*
X4733391Y-1215999D01*
X4737811Y-1204874D01*
X4740859Y-1191107D01*
X4745126Y-1177086D01*
X4746091Y-1174800D01*
X4747666Y-1172870D01*
X4852416Y-1068120D01*
X4855819Y-1064361D01*
X4858766Y-1060551D01*
X4861356Y-1056436D01*
X4863592Y-1052169D01*
X4865471Y-1047699D01*
X4866894Y-1043076D01*
X4867960Y-1038352D01*
X4868570Y-1033526D01*
X4868824Y-1028496D01*
X4868824Y-903478D01*
X4869586Y-899617D01*
X4871770Y-896315D01*
X4925110Y-843026D01*
X4928616Y-840740D01*
X4932730Y-840028D01*
X4936794Y-841095D01*
X4946294Y-845819D01*
X4948936Y-847750D01*
X4950815Y-850392D01*
X4960772Y-870305D01*
X4961839Y-874826D01*
X4961839Y-903173D01*
X4960772Y-907694D01*
X4950104Y-929081D01*
X4948834Y-931011D01*
X4943398Y-937615D01*
X4939690Y-944626D01*
X4937353Y-952195D01*
X4936540Y-960577D01*
X4936540Y-1046022D01*
X4937353Y-1054404D01*
X4939842Y-1062532D01*
X4940198Y-1066698D01*
X4938826Y-1070660D01*
X4935982Y-1073759D01*
X4932172Y-1075436D01*
X4925872Y-1076706D01*
X4921300Y-1078128D01*
X4916830Y-1080008D01*
X4912563Y-1082243D01*
X4908448Y-1084834D01*
X4904638Y-1087780D01*
X4900879Y-1091184D01*
X4513884Y-1478229D01*
X4510582Y-1480413D01*
X4506722Y-1481175D01*
G37*

%LPC*%
G36*
X4983226Y-631596D02*
G01*
X4996383Y-631596D01*
X4996383Y-574954D01*
X4942179Y-574954D01*
X4942179Y-590600D01*
X4943043Y-598982D01*
X4945329Y-606602D01*
X4949088Y-613562D01*
X4954117Y-619709D01*
X4960213Y-624738D01*
X4967224Y-628497D01*
X4974793Y-630783D01*
G37*
G36*
X4942179Y-517245D02*
G01*
X4996383Y-517245D01*
X4996383Y-460603D01*
X4983226Y-460603D01*
X4974793Y-461416D01*
X4967224Y-463702D01*
X4960213Y-467461D01*
X4954117Y-472490D01*
X4949088Y-478637D01*
X4945329Y-485597D01*
X4943043Y-493217D01*
X4942179Y-501599D01*
G37*

%LPD*%
G36*
X400253Y-4574082D02*
G01*
X374142Y-4573168D01*
X348742Y-4570526D01*
X323545Y-4566158D01*
X298754Y-4560112D01*
X274421Y-4552340D01*
X250647Y-4542942D01*
X227584Y-4531969D01*
X205333Y-4519422D01*
X183997Y-4505401D01*
X163677Y-4489958D01*
X144424Y-4473143D01*
X126390Y-4455058D01*
X109626Y-4435805D01*
X94183Y-4415434D01*
X80213Y-4394047D01*
X67716Y-4371797D01*
X56743Y-4348683D01*
X47396Y-4324908D01*
X39725Y-4300575D01*
X33680Y-4275734D01*
X29362Y-4250588D01*
X26771Y-4225188D01*
X25908Y-4199382D01*
X25908Y-400608D01*
X26822Y-374142D01*
X29464Y-348742D01*
X33832Y-323545D01*
X39878Y-298754D01*
X47650Y-274421D01*
X57048Y-250647D01*
X68021Y-227584D01*
X80568Y-205333D01*
X94589Y-183997D01*
X110032Y-163677D01*
X126847Y-144424D01*
X144932Y-126390D01*
X164185Y-109626D01*
X184556Y-94183D01*
X205943Y-80213D01*
X228193Y-67716D01*
X251307Y-56743D01*
X275082Y-47396D01*
X299415Y-39725D01*
X324256Y-33680D01*
X349402Y-29362D01*
X374802Y-26771D01*
X400608Y-25908D01*
X4366869Y-25908D01*
X4370730Y-26670D01*
X4374032Y-28905D01*
X4376267Y-32156D01*
X4377029Y-36068D01*
X4376267Y-39979D01*
X4374032Y-43230D01*
X4316984Y-100279D01*
X4313580Y-104038D01*
X4310634Y-107848D01*
X4308246Y-111658D01*
X4305452Y-114554D01*
X4301744Y-116128D01*
X4297781Y-116179D01*
X4294022Y-114655D01*
X4289348Y-111556D01*
X4276090Y-104952D01*
X4262069Y-100025D01*
X4247591Y-96824D01*
X4232808Y-95453D01*
X4217974Y-95910D01*
X4203344Y-98196D01*
X4189069Y-102260D01*
X4175404Y-108051D01*
X4162551Y-115468D01*
X4150715Y-124409D01*
X4140047Y-134721D01*
X4130751Y-146304D01*
X4122928Y-158902D01*
X4116730Y-172364D01*
X4110583Y-191363D01*
X4107891Y-194208D01*
X4104284Y-195783D01*
X4100372Y-195884D01*
X4096715Y-194564D01*
X4093819Y-191922D01*
X4092194Y-188366D01*
X4089908Y-179374D01*
X4084574Y-165557D01*
X4077563Y-152450D01*
X4068978Y-140360D01*
X4058970Y-129387D01*
X4047693Y-119735D01*
X4035348Y-111556D01*
X4022090Y-104952D01*
X4008069Y-100025D01*
X3993591Y-96824D01*
X3978808Y-95453D01*
X3963974Y-95910D01*
X3949344Y-98196D01*
X3935069Y-102260D01*
X3921404Y-108051D01*
X3908551Y-115468D01*
X3896715Y-124409D01*
X3886047Y-134721D01*
X3876751Y-146304D01*
X3868928Y-158902D01*
X3862730Y-172364D01*
X3856583Y-191363D01*
X3853891Y-194208D01*
X3850284Y-195783D01*
X3846372Y-195884D01*
X3842715Y-194564D01*
X3839819Y-191922D01*
X3838194Y-188366D01*
X3835908Y-179374D01*
X3830574Y-165557D01*
X3823563Y-152450D01*
X3814978Y-140360D01*
X3804970Y-129387D01*
X3793693Y-119735D01*
X3781348Y-111556D01*
X3768090Y-104952D01*
X3754069Y-100025D01*
X3739591Y-96824D01*
X3724808Y-95453D01*
X3709974Y-95910D01*
X3695344Y-98196D01*
X3681069Y-102260D01*
X3667404Y-108051D01*
X3654551Y-115468D01*
X3642715Y-124409D01*
X3632047Y-134721D01*
X3622751Y-146304D01*
X3614928Y-158902D01*
X3608730Y-172364D01*
X3602583Y-191363D01*
X3599891Y-194208D01*
X3596284Y-195783D01*
X3592372Y-195884D01*
X3588715Y-194564D01*
X3585819Y-191922D01*
X3584194Y-188366D01*
X3581908Y-179374D01*
X3576574Y-165557D01*
X3569563Y-152450D01*
X3560978Y-140360D01*
X3550970Y-129387D01*
X3539693Y-119735D01*
X3527348Y-111556D01*
X3514090Y-104952D01*
X3500069Y-100025D01*
X3485591Y-96824D01*
X3470808Y-95453D01*
X3455974Y-95910D01*
X3441344Y-98196D01*
X3427069Y-102260D01*
X3413404Y-108051D01*
X3400551Y-115468D01*
X3388715Y-124409D01*
X3378047Y-134721D01*
X3368751Y-146304D01*
X3360928Y-158902D01*
X3354730Y-172364D01*
X3348583Y-191363D01*
X3345891Y-194208D01*
X3342284Y-195783D01*
X3338372Y-195884D01*
X3334715Y-194564D01*
X3331819Y-191922D01*
X3330194Y-188366D01*
X3327908Y-179374D01*
X3322574Y-165557D01*
X3315563Y-152450D01*
X3306978Y-140360D01*
X3296970Y-129387D01*
X3285693Y-119735D01*
X3273348Y-111556D01*
X3260090Y-104952D01*
X3246069Y-100025D01*
X3231591Y-96824D01*
X3216808Y-95453D01*
X3201974Y-95910D01*
X3187344Y-98196D01*
X3173069Y-102260D01*
X3159404Y-108051D01*
X3146552Y-115468D01*
X3134715Y-124409D01*
X3124047Y-134721D01*
X3114751Y-146304D01*
X3106928Y-158902D01*
X3100730Y-172364D01*
X3094583Y-191363D01*
X3091891Y-194208D01*
X3088284Y-195783D01*
X3084372Y-195884D01*
X3080715Y-194564D01*
X3077819Y-191922D01*
X3076194Y-188366D01*
X3073908Y-179374D01*
X3068574Y-165557D01*
X3061563Y-152450D01*
X3052978Y-140360D01*
X3042970Y-129387D01*
X3031693Y-119735D01*
X3019348Y-111556D01*
X3006090Y-104952D01*
X2992069Y-100025D01*
X2977591Y-96824D01*
X2962808Y-95453D01*
X2947974Y-95910D01*
X2933344Y-98196D01*
X2919069Y-102260D01*
X2905404Y-108051D01*
X2892552Y-115468D01*
X2880715Y-124409D01*
X2870047Y-134721D01*
X2860751Y-146304D01*
X2852928Y-158902D01*
X2846730Y-172364D01*
X2840583Y-191363D01*
X2837891Y-194208D01*
X2834284Y-195783D01*
X2830372Y-195884D01*
X2826715Y-194564D01*
X2823819Y-191922D01*
X2822194Y-188366D01*
X2819908Y-179374D01*
X2814574Y-165557D01*
X2807563Y-152450D01*
X2798978Y-140360D01*
X2788970Y-129387D01*
X2777693Y-119735D01*
X2765348Y-111556D01*
X2752090Y-104952D01*
X2738069Y-100025D01*
X2723591Y-96824D01*
X2708808Y-95453D01*
X2693974Y-95910D01*
X2679344Y-98196D01*
X2665069Y-102260D01*
X2651404Y-108051D01*
X2638552Y-115468D01*
X2626715Y-124409D01*
X2616047Y-134721D01*
X2606751Y-146304D01*
X2598928Y-158902D01*
X2592730Y-172364D01*
X2586583Y-191363D01*
X2583891Y-194208D01*
X2580284Y-195783D01*
X2576372Y-195884D01*
X2572715Y-194564D01*
X2569819Y-191922D01*
X2568194Y-188366D01*
X2565908Y-179374D01*
X2560574Y-165557D01*
X2553563Y-152450D01*
X2544978Y-140360D01*
X2534970Y-129387D01*
X2523693Y-119735D01*
X2511348Y-111556D01*
X2498090Y-104952D01*
X2484069Y-100025D01*
X2469591Y-96824D01*
X2454808Y-95453D01*
X2439974Y-95910D01*
X2425344Y-98196D01*
X2411069Y-102260D01*
X2397404Y-108051D01*
X2384552Y-115468D01*
X2372715Y-124409D01*
X2362047Y-134721D01*
X2352751Y-146304D01*
X2344928Y-158902D01*
X2338730Y-172364D01*
X2334260Y-186486D01*
X2331516Y-201117D01*
X2330602Y-215900D01*
X2331516Y-230682D01*
X2334260Y-245313D01*
X2338730Y-259435D01*
X2344928Y-272897D01*
X2352751Y-285496D01*
X2362047Y-297078D01*
X2372715Y-307390D01*
X2384552Y-316331D01*
X2397404Y-323748D01*
X2411069Y-329539D01*
X2417470Y-331368D01*
X2421128Y-333248D01*
X2423718Y-336499D01*
X2424836Y-340461D01*
X2424226Y-344576D01*
X2422093Y-348081D01*
X2418740Y-350469D01*
X2414676Y-351282D01*
X1980133Y-351282D01*
X1976170Y-350469D01*
X1972818Y-348183D01*
X1970633Y-344779D01*
X1969973Y-340817D01*
X1970887Y-336905D01*
X1973275Y-333603D01*
X1976729Y-331571D01*
X1990089Y-326847D01*
X2003348Y-320243D01*
X2015693Y-312064D01*
X2026970Y-302412D01*
X2036978Y-291439D01*
X2045563Y-279349D01*
X2052574Y-266242D01*
X2057907Y-252425D01*
X2061514Y-238048D01*
X2063343Y-223316D01*
X2063343Y-208483D01*
X2061514Y-193751D01*
X2057907Y-179374D01*
X2052574Y-165557D01*
X2045563Y-152450D01*
X2036978Y-140360D01*
X2026970Y-129387D01*
X2015693Y-119735D01*
X2003348Y-111556D01*
X1990089Y-104952D01*
X1976069Y-100025D01*
X1961591Y-96824D01*
X1946808Y-95453D01*
X1931974Y-95910D01*
X1917344Y-98196D01*
X1903069Y-102260D01*
X1889404Y-108051D01*
X1876552Y-115468D01*
X1864715Y-124409D01*
X1854047Y-134721D01*
X1844751Y-146304D01*
X1836928Y-158902D01*
X1830730Y-172364D01*
X1824583Y-191363D01*
X1821891Y-194208D01*
X1818284Y-195783D01*
X1814372Y-195884D01*
X1810715Y-194564D01*
X1807819Y-191922D01*
X1806193Y-188366D01*
X1803907Y-179374D01*
X1798574Y-165557D01*
X1791563Y-152450D01*
X1782978Y-140360D01*
X1772970Y-129387D01*
X1761693Y-119735D01*
X1749348Y-111556D01*
X1736089Y-104952D01*
X1722069Y-100025D01*
X1707591Y-96824D01*
X1692808Y-95453D01*
X1677974Y-95910D01*
X1663344Y-98196D01*
X1649069Y-102260D01*
X1635404Y-108051D01*
X1622552Y-115468D01*
X1610715Y-124409D01*
X1600047Y-134721D01*
X1590751Y-146304D01*
X1582928Y-158902D01*
X1576730Y-172364D01*
X1570583Y-191363D01*
X1567891Y-194208D01*
X1564284Y-195783D01*
X1560372Y-195884D01*
X1556715Y-194564D01*
X1553819Y-191922D01*
X1552194Y-188366D01*
X1549908Y-179374D01*
X1544574Y-165557D01*
X1537563Y-152450D01*
X1528978Y-140360D01*
X1518970Y-129387D01*
X1507693Y-119735D01*
X1495348Y-111556D01*
X1482090Y-104952D01*
X1468069Y-100025D01*
X1453591Y-96824D01*
X1438808Y-95453D01*
X1423974Y-95910D01*
X1409344Y-98196D01*
X1395069Y-102260D01*
X1381404Y-108051D01*
X1368552Y-115468D01*
X1356715Y-124409D01*
X1346047Y-134721D01*
X1336751Y-146304D01*
X1328928Y-158902D01*
X1322730Y-172364D01*
X1316583Y-191363D01*
X1313891Y-194208D01*
X1310284Y-195783D01*
X1306372Y-195884D01*
X1302715Y-194564D01*
X1299819Y-191922D01*
X1298194Y-188366D01*
X1295908Y-179374D01*
X1290574Y-165557D01*
X1283563Y-152450D01*
X1274978Y-140360D01*
X1264970Y-129387D01*
X1253693Y-119735D01*
X1241348Y-111556D01*
X1228090Y-104952D01*
X1214069Y-100025D01*
X1199591Y-96824D01*
X1184808Y-95453D01*
X1169974Y-95910D01*
X1155344Y-98196D01*
X1141069Y-102260D01*
X1127404Y-108051D01*
X1114552Y-115468D01*
X1102715Y-124409D01*
X1092047Y-134721D01*
X1082751Y-146304D01*
X1074928Y-158902D01*
X1068730Y-172364D01*
X1062583Y-191363D01*
X1059891Y-194208D01*
X1056284Y-195783D01*
X1052372Y-195884D01*
X1048715Y-194564D01*
X1045819Y-191922D01*
X1044194Y-188366D01*
X1041908Y-179374D01*
X1036574Y-165557D01*
X1029563Y-152450D01*
X1020978Y-140360D01*
X1010970Y-129387D01*
X999693Y-119735D01*
X987348Y-111556D01*
X974090Y-104952D01*
X960069Y-100025D01*
X945591Y-96824D01*
X930808Y-95453D01*
X915974Y-95910D01*
X901344Y-98196D01*
X887069Y-102260D01*
X873404Y-108051D01*
X860552Y-115468D01*
X848715Y-124409D01*
X838047Y-134721D01*
X828751Y-146304D01*
X820928Y-158902D01*
X814730Y-172364D01*
X810260Y-186486D01*
X807516Y-201117D01*
X806602Y-215900D01*
X807516Y-230682D01*
X810260Y-245313D01*
X814730Y-259435D01*
X820928Y-272897D01*
X831646Y-290017D01*
X846023Y-330149D01*
X846582Y-333603D01*
X846582Y-1397558D01*
X845819Y-1401419D01*
X843635Y-1404721D01*
X601522Y-1646885D01*
X595528Y-1654149D01*
X594004Y-1656283D01*
X589127Y-1664360D01*
X587959Y-1666697D01*
X584352Y-1675384D01*
X583539Y-1677873D01*
X581253Y-1687017D01*
X579932Y-1698955D01*
X579882Y-2088946D01*
X579018Y-2093112D01*
X576478Y-2096566D01*
X572770Y-2098649D01*
X568553Y-2099056D01*
X564540Y-2097684D01*
X561390Y-2094788D01*
X559765Y-2090877D01*
X557530Y-2079193D01*
X553008Y-2065223D01*
X546760Y-2051964D01*
X538886Y-2039620D01*
X529539Y-2028342D01*
X518871Y-2018284D01*
X507034Y-2009698D01*
X494182Y-2002637D01*
X480568Y-1997202D01*
X466343Y-1993595D01*
X451815Y-1991766D01*
X437184Y-1991766D01*
X422656Y-1993595D01*
X408432Y-1997202D01*
X394817Y-2002637D01*
X381965Y-2009698D01*
X370128Y-2018284D01*
X359460Y-2028342D01*
X350113Y-2039620D01*
X342239Y-2051964D01*
X335991Y-2065223D01*
X331470Y-2079193D01*
X328726Y-2093569D01*
X327812Y-2108200D01*
X328726Y-2122830D01*
X331470Y-2137206D01*
X335991Y-2151176D01*
X342239Y-2164435D01*
X350113Y-2176780D01*
X359460Y-2188057D01*
X370128Y-2198116D01*
X381965Y-2206701D01*
X394817Y-2213762D01*
X408432Y-2219198D01*
X422656Y-2222804D01*
X437184Y-2224633D01*
X451815Y-2224633D01*
X466343Y-2222804D01*
X480568Y-2219198D01*
X494182Y-2213762D01*
X507034Y-2206701D01*
X518871Y-2198116D01*
X529539Y-2188057D01*
X538886Y-2176780D01*
X546760Y-2164435D01*
X553008Y-2151176D01*
X557530Y-2137206D01*
X559765Y-2125522D01*
X561390Y-2121611D01*
X564540Y-2118715D01*
X568553Y-2117344D01*
X572770Y-2117750D01*
X576478Y-2119833D01*
X579018Y-2123287D01*
X579882Y-2127453D01*
X579882Y-2342946D01*
X579018Y-2347112D01*
X576478Y-2350566D01*
X572770Y-2352649D01*
X568553Y-2353056D01*
X564540Y-2351684D01*
X561390Y-2348788D01*
X559765Y-2344877D01*
X557530Y-2333193D01*
X553008Y-2319223D01*
X546760Y-2305964D01*
X538886Y-2293620D01*
X529539Y-2282342D01*
X518871Y-2272284D01*
X507034Y-2263698D01*
X494182Y-2256637D01*
X480568Y-2251202D01*
X466343Y-2247595D01*
X451815Y-2245766D01*
X437184Y-2245766D01*
X422656Y-2247595D01*
X408432Y-2251202D01*
X394817Y-2256637D01*
X381965Y-2263698D01*
X370128Y-2272284D01*
X359460Y-2282342D01*
X350113Y-2293620D01*
X342239Y-2305964D01*
X335991Y-2319223D01*
X331470Y-2333193D01*
X328726Y-2347569D01*
X327812Y-2362200D01*
X328726Y-2376830D01*
X331470Y-2391206D01*
X335991Y-2405176D01*
X342239Y-2418435D01*
X350113Y-2430780D01*
X359460Y-2442057D01*
X370128Y-2452116D01*
X381965Y-2460701D01*
X394817Y-2467762D01*
X408432Y-2473198D01*
X422656Y-2476804D01*
X437184Y-2478633D01*
X451815Y-2478633D01*
X466343Y-2476804D01*
X480568Y-2473198D01*
X494182Y-2467762D01*
X507034Y-2460701D01*
X518871Y-2452116D01*
X529539Y-2442057D01*
X538886Y-2430780D01*
X546760Y-2418435D01*
X553008Y-2405176D01*
X557530Y-2391206D01*
X559765Y-2379522D01*
X561390Y-2375611D01*
X564540Y-2372715D01*
X568553Y-2371344D01*
X572770Y-2371750D01*
X576478Y-2373833D01*
X579018Y-2377287D01*
X579882Y-2381453D01*
X579882Y-2527909D01*
X579069Y-2531973D01*
X576732Y-2535326D01*
X573227Y-2537460D01*
X569163Y-2538069D01*
X565200Y-2537002D01*
X561949Y-2534462D01*
X560019Y-2530906D01*
X558088Y-2524506D01*
X554329Y-2517546D01*
X549300Y-2511399D01*
X543153Y-2506370D01*
X536194Y-2502611D01*
X528574Y-2500325D01*
X520192Y-2499512D01*
X488950Y-2499512D01*
X488950Y-2571750D01*
X569722Y-2571750D01*
X573633Y-2572512D01*
X576884Y-2574696D01*
X579120Y-2577998D01*
X579882Y-2581859D01*
X579932Y-2593695D01*
X580847Y-2602941D01*
X581304Y-2605786D01*
X583539Y-2614726D01*
X584352Y-2617216D01*
X587959Y-2625902D01*
X589127Y-2628239D01*
X594004Y-2636316D01*
X595528Y-2638450D01*
X601522Y-2645714D01*
X719785Y-2763977D01*
X727049Y-2769971D01*
X729183Y-2771495D01*
X737260Y-2776372D01*
X739597Y-2777540D01*
X748284Y-2781147D01*
X750773Y-2781960D01*
X759917Y-2784246D01*
X771855Y-2785567D01*
X5055158Y-2785618D01*
X5059019Y-2786380D01*
X5062321Y-2788564D01*
X5225135Y-2951378D01*
X5227320Y-2954680D01*
X5228082Y-2958541D01*
X5228132Y-3095447D01*
X5229453Y-3107385D01*
X5231739Y-3116529D01*
X5232552Y-3119018D01*
X5236159Y-3127705D01*
X5237327Y-3130042D01*
X5242204Y-3138119D01*
X5243677Y-3140202D01*
X5251246Y-3149244D01*
X5308600Y-3230270D01*
X5310022Y-3233013D01*
X5310479Y-3236112D01*
X5310530Y-3806342D01*
X5311851Y-3818280D01*
X5314137Y-3827424D01*
X5314950Y-3829913D01*
X5318556Y-3838600D01*
X5319725Y-3840937D01*
X5324602Y-3849014D01*
X5326126Y-3851148D01*
X5332120Y-3858412D01*
X5397042Y-3923436D01*
X5399074Y-3926230D01*
X5408117Y-3945331D01*
X5409082Y-3949700D01*
X5408117Y-3954068D01*
X5399024Y-3973169D01*
X5397042Y-3976014D01*
X5151932Y-4221124D01*
X5148275Y-4223461D01*
X5143957Y-4224070D01*
X5139842Y-4222851D01*
X5096357Y-4198874D01*
X5093360Y-4196334D01*
X5091531Y-4192828D01*
X5091125Y-4188917D01*
X5092903Y-4184091D01*
X5095189Y-4176471D01*
X5096002Y-4168089D01*
X5096002Y-3969105D01*
X5095189Y-3960723D01*
X5092903Y-3953103D01*
X5089144Y-3946144D01*
X5084114Y-3939997D01*
X5077968Y-3934968D01*
X5070957Y-3931208D01*
X5063388Y-3928922D01*
X5055006Y-3928110D01*
X4856022Y-3928110D01*
X4847590Y-3928922D01*
X4840020Y-3931208D01*
X4833010Y-3934968D01*
X4826914Y-3939997D01*
X4821834Y-3946144D01*
X4818126Y-3953103D01*
X4815840Y-3960723D01*
X4814976Y-3969105D01*
X4814976Y-4168089D01*
X4815840Y-4176471D01*
X4818126Y-4184091D01*
X4821732Y-4190796D01*
X4822799Y-4193946D01*
X4822799Y-4197248D01*
X4821732Y-4200398D01*
X4818126Y-4207103D01*
X4815840Y-4214723D01*
X4814976Y-4223105D01*
X4814976Y-4422089D01*
X4815840Y-4430471D01*
X4818126Y-4438091D01*
X4821834Y-4445050D01*
X4826914Y-4451197D01*
X4833010Y-4456226D01*
X4840020Y-4459986D01*
X4847590Y-4462272D01*
X4856022Y-4463084D01*
X5055260Y-4463084D01*
X5060035Y-4462830D01*
X5063388Y-4462322D01*
X5067808Y-4461154D01*
X5071008Y-4459986D01*
X5075326Y-4457954D01*
X5174894Y-4403039D01*
X5177434Y-4402023D01*
X5188254Y-4399432D01*
X5190693Y-4398670D01*
X5199380Y-4395063D01*
X5201767Y-4393844D01*
X5209794Y-4389018D01*
X5211978Y-4387494D01*
X5219192Y-4381500D01*
X5510885Y-4089857D01*
X5513730Y-4087825D01*
X5552643Y-4069435D01*
X5555437Y-4068572D01*
X5562955Y-4067403D01*
X5577230Y-4063339D01*
X5590895Y-4057548D01*
X5603748Y-4050131D01*
X5615584Y-4041190D01*
X5626252Y-4030878D01*
X5635548Y-4019296D01*
X5643372Y-4006697D01*
X5649569Y-3993235D01*
X5654040Y-3979113D01*
X5656783Y-3964482D01*
X5657697Y-3949700D01*
X5656783Y-3934917D01*
X5654040Y-3920286D01*
X5649569Y-3906164D01*
X5643372Y-3892702D01*
X5635548Y-3880104D01*
X5626252Y-3868521D01*
X5615584Y-3858209D01*
X5603748Y-3849268D01*
X5590895Y-3841851D01*
X5577230Y-3836060D01*
X5562955Y-3831996D01*
X5555437Y-3830828D01*
X5552643Y-3829964D01*
X5513730Y-3811524D01*
X5510885Y-3809542D01*
X5474462Y-3773119D01*
X5472277Y-3769817D01*
X5471515Y-3765956D01*
X5471515Y-3269742D01*
X5472379Y-3265627D01*
X5474868Y-3262223D01*
X5478475Y-3260090D01*
X5482640Y-3259632D01*
X5491480Y-3260496D01*
X5504637Y-3260496D01*
X5504637Y-3203854D01*
X5481675Y-3203854D01*
X5477764Y-3203092D01*
X5474462Y-3200857D01*
X5472277Y-3197555D01*
X5471515Y-3193694D01*
X5471515Y-3156305D01*
X5472277Y-3152444D01*
X5474512Y-3149142D01*
X5477764Y-3146907D01*
X5481675Y-3146145D01*
X5504637Y-3146145D01*
X5504637Y-3089503D01*
X5491480Y-3089503D01*
X5483098Y-3090316D01*
X5475528Y-3092602D01*
X5468518Y-3096361D01*
X5464556Y-3098850D01*
X5461203Y-3099460D01*
X5457799Y-3098901D01*
X5453938Y-3096615D01*
X5393436Y-3054400D01*
X5391150Y-3052165D01*
X5389626Y-3049270D01*
X5389118Y-3046069D01*
X5389067Y-2918155D01*
X5387746Y-2906217D01*
X5385460Y-2897073D01*
X5384647Y-2894584D01*
X5381040Y-2885897D01*
X5379872Y-2883560D01*
X5374995Y-2875483D01*
X5373471Y-2873349D01*
X5367477Y-2866085D01*
X5147614Y-2646222D01*
X5140350Y-2640228D01*
X5138216Y-2638704D01*
X5130139Y-2633827D01*
X5127802Y-2632659D01*
X5119116Y-2629052D01*
X5116626Y-2628239D01*
X5107482Y-2625953D01*
X5095544Y-2624632D01*
X5013807Y-2624582D01*
X5009692Y-2623718D01*
X5006289Y-2621229D01*
X5004155Y-2617622D01*
X5003698Y-2613406D01*
X5004968Y-2609392D01*
X5007813Y-2606243D01*
X5011623Y-2604516D01*
X5024069Y-2601772D01*
X5038039Y-2596845D01*
X5051348Y-2590241D01*
X5063693Y-2582062D01*
X5074970Y-2572410D01*
X5084978Y-2561437D01*
X5093512Y-2549347D01*
X5100574Y-2536240D01*
X5105908Y-2522423D01*
X5108194Y-2513431D01*
X5109819Y-2509875D01*
X5112715Y-2507234D01*
X5116372Y-2505862D01*
X5120284Y-2506014D01*
X5123840Y-2507589D01*
X5126583Y-2510434D01*
X5132730Y-2529433D01*
X5138928Y-2542895D01*
X5146751Y-2555494D01*
X5156047Y-2567076D01*
X5166715Y-2577388D01*
X5178552Y-2586329D01*
X5191404Y-2593746D01*
X5205069Y-2599537D01*
X5219293Y-2603601D01*
X5233974Y-2605887D01*
X5248808Y-2606344D01*
X5263591Y-2604973D01*
X5278069Y-2601772D01*
X5292039Y-2596845D01*
X5305348Y-2590241D01*
X5317693Y-2582062D01*
X5328970Y-2572410D01*
X5338978Y-2561437D01*
X5347512Y-2549347D01*
X5354574Y-2536240D01*
X5358942Y-2524912D01*
X5360416Y-2522575D01*
X5360619Y-2519629D01*
X5363514Y-2508046D01*
X5365343Y-2493314D01*
X5365343Y-2478481D01*
X5363514Y-2463749D01*
X5360619Y-2452166D01*
X5360416Y-2449220D01*
X5358942Y-2446883D01*
X5354574Y-2435555D01*
X5347512Y-2422448D01*
X5338978Y-2410358D01*
X5328970Y-2399385D01*
X5317693Y-2389733D01*
X5305348Y-2381554D01*
X5292039Y-2374950D01*
X5278069Y-2370023D01*
X5263591Y-2366822D01*
X5248808Y-2365451D01*
X5233974Y-2365908D01*
X5219293Y-2368194D01*
X5205069Y-2372258D01*
X5191404Y-2378049D01*
X5178552Y-2385466D01*
X5166715Y-2394407D01*
X5156047Y-2404719D01*
X5146751Y-2416302D01*
X5138928Y-2428900D01*
X5132730Y-2442362D01*
X5126583Y-2461361D01*
X5123840Y-2464206D01*
X5120284Y-2465781D01*
X5116372Y-2465882D01*
X5112715Y-2464562D01*
X5109819Y-2461869D01*
X5108194Y-2458364D01*
X5105908Y-2449372D01*
X5100574Y-2435555D01*
X5093512Y-2422448D01*
X5084978Y-2410358D01*
X5074970Y-2399385D01*
X5063693Y-2389733D01*
X5051348Y-2381554D01*
X5038039Y-2374950D01*
X5024069Y-2370023D01*
X5009591Y-2366822D01*
X4994808Y-2365451D01*
X4979974Y-2365908D01*
X4965293Y-2368194D01*
X4951069Y-2372258D01*
X4937404Y-2378049D01*
X4924552Y-2385466D01*
X4912715Y-2394407D01*
X4902047Y-2404719D01*
X4892751Y-2416302D01*
X4884928Y-2428900D01*
X4878730Y-2442362D01*
X4872583Y-2461361D01*
X4869840Y-2464206D01*
X4866284Y-2465781D01*
X4862372Y-2465882D01*
X4858715Y-2464562D01*
X4855819Y-2461869D01*
X4854194Y-2458364D01*
X4851908Y-2449372D01*
X4846574Y-2435555D01*
X4839512Y-2422448D01*
X4830978Y-2410358D01*
X4820970Y-2399385D01*
X4809693Y-2389733D01*
X4797348Y-2381554D01*
X4784039Y-2374950D01*
X4770069Y-2370023D01*
X4755591Y-2366822D01*
X4740808Y-2365451D01*
X4725974Y-2365908D01*
X4711293Y-2368194D01*
X4697069Y-2372258D01*
X4683404Y-2378049D01*
X4670552Y-2385466D01*
X4658715Y-2394407D01*
X4648047Y-2404719D01*
X4638751Y-2416302D01*
X4630928Y-2428900D01*
X4624730Y-2442362D01*
X4618583Y-2461361D01*
X4615840Y-2464206D01*
X4612284Y-2465781D01*
X4608372Y-2465882D01*
X4604715Y-2464562D01*
X4601819Y-2461869D01*
X4600194Y-2458364D01*
X4597908Y-2449372D01*
X4592574Y-2435555D01*
X4585512Y-2422448D01*
X4576978Y-2410358D01*
X4566970Y-2399385D01*
X4555693Y-2389733D01*
X4543348Y-2381554D01*
X4530039Y-2374950D01*
X4516069Y-2370023D01*
X4501591Y-2366822D01*
X4486808Y-2365451D01*
X4471974Y-2365908D01*
X4457293Y-2368194D01*
X4443069Y-2372258D01*
X4429404Y-2378049D01*
X4416552Y-2385466D01*
X4404715Y-2394407D01*
X4394047Y-2404719D01*
X4384751Y-2416302D01*
X4376928Y-2428900D01*
X4370730Y-2442362D01*
X4364583Y-2461361D01*
X4361840Y-2464206D01*
X4358284Y-2465781D01*
X4354372Y-2465882D01*
X4350715Y-2464562D01*
X4347819Y-2461869D01*
X4346194Y-2458364D01*
X4343908Y-2449372D01*
X4338574Y-2435555D01*
X4331512Y-2422448D01*
X4322978Y-2410358D01*
X4312970Y-2399385D01*
X4301693Y-2389733D01*
X4289348Y-2381554D01*
X4276039Y-2374950D01*
X4262069Y-2370023D01*
X4247591Y-2366822D01*
X4232808Y-2365451D01*
X4217974Y-2365908D01*
X4203293Y-2368194D01*
X4189069Y-2372258D01*
X4175404Y-2378049D01*
X4162551Y-2385466D01*
X4150715Y-2394407D01*
X4140047Y-2404719D01*
X4130751Y-2416302D01*
X4122928Y-2428900D01*
X4116730Y-2442362D01*
X4112260Y-2456484D01*
X4109516Y-2471064D01*
X4108602Y-2485898D01*
X4109516Y-2500680D01*
X4112260Y-2515260D01*
X4116730Y-2529433D01*
X4122928Y-2542895D01*
X4130751Y-2555494D01*
X4140047Y-2567076D01*
X4150715Y-2577388D01*
X4162551Y-2586329D01*
X4175404Y-2593746D01*
X4189069Y-2599537D01*
X4203293Y-2603601D01*
X4208475Y-2604414D01*
X4212488Y-2605938D01*
X4215485Y-2608986D01*
X4216958Y-2613050D01*
X4216654Y-2617317D01*
X4214571Y-2621127D01*
X4211116Y-2623667D01*
X4206900Y-2624582D01*
X3743807Y-2624582D01*
X3739692Y-2623718D01*
X3736289Y-2621229D01*
X3734155Y-2617622D01*
X3733698Y-2613406D01*
X3734968Y-2609392D01*
X3737813Y-2606243D01*
X3741623Y-2604516D01*
X3754069Y-2601772D01*
X3768039Y-2596845D01*
X3781348Y-2590241D01*
X3793693Y-2582062D01*
X3804970Y-2572410D01*
X3814978Y-2561437D01*
X3823512Y-2549347D01*
X3830574Y-2536240D01*
X3835908Y-2522423D01*
X3839514Y-2508046D01*
X3841343Y-2493314D01*
X3841343Y-2478481D01*
X3839514Y-2463749D01*
X3835908Y-2449372D01*
X3830574Y-2435555D01*
X3823512Y-2422448D01*
X3814978Y-2410358D01*
X3804970Y-2399385D01*
X3793693Y-2389733D01*
X3781348Y-2381554D01*
X3768039Y-2374950D01*
X3754069Y-2370023D01*
X3739591Y-2366822D01*
X3724808Y-2365451D01*
X3709974Y-2365908D01*
X3695293Y-2368194D01*
X3681069Y-2372258D01*
X3667404Y-2378049D01*
X3654551Y-2385466D01*
X3642715Y-2394407D01*
X3632047Y-2404719D01*
X3622751Y-2416302D01*
X3614928Y-2428900D01*
X3608730Y-2442362D01*
X3602583Y-2461361D01*
X3599840Y-2464206D01*
X3596284Y-2465781D01*
X3592372Y-2465882D01*
X3588715Y-2464562D01*
X3585819Y-2461869D01*
X3584194Y-2458364D01*
X3581908Y-2449372D01*
X3576574Y-2435555D01*
X3569512Y-2422448D01*
X3560978Y-2410358D01*
X3550970Y-2399385D01*
X3539693Y-2389733D01*
X3527348Y-2381554D01*
X3514039Y-2374950D01*
X3500069Y-2370023D01*
X3485591Y-2366822D01*
X3470808Y-2365451D01*
X3455974Y-2365908D01*
X3441293Y-2368194D01*
X3427069Y-2372258D01*
X3413404Y-2378049D01*
X3400551Y-2385466D01*
X3388715Y-2394407D01*
X3378047Y-2404719D01*
X3368751Y-2416302D01*
X3360928Y-2428900D01*
X3354730Y-2442362D01*
X3348583Y-2461361D01*
X3345840Y-2464206D01*
X3342284Y-2465781D01*
X3338372Y-2465882D01*
X3334715Y-2464562D01*
X3331819Y-2461869D01*
X3330194Y-2458364D01*
X3327908Y-2449372D01*
X3322574Y-2435555D01*
X3315512Y-2422448D01*
X3306978Y-2410358D01*
X3296970Y-2399385D01*
X3285693Y-2389733D01*
X3273348Y-2381554D01*
X3260039Y-2374950D01*
X3246069Y-2370023D01*
X3231591Y-2366822D01*
X3216808Y-2365451D01*
X3201974Y-2365908D01*
X3187293Y-2368194D01*
X3173069Y-2372258D01*
X3159404Y-2378049D01*
X3146552Y-2385466D01*
X3134715Y-2394407D01*
X3124047Y-2404719D01*
X3114751Y-2416302D01*
X3106928Y-2428900D01*
X3100730Y-2442362D01*
X3094583Y-2461361D01*
X3091840Y-2464206D01*
X3088284Y-2465781D01*
X3084372Y-2465882D01*
X3080715Y-2464562D01*
X3077819Y-2461869D01*
X3076194Y-2458364D01*
X3073908Y-2449372D01*
X3068574Y-2435555D01*
X3061512Y-2422448D01*
X3052978Y-2410358D01*
X3042970Y-2399385D01*
X3031693Y-2389733D01*
X3019348Y-2381554D01*
X3006039Y-2374950D01*
X2992069Y-2370023D01*
X2977591Y-2366822D01*
X2962808Y-2365451D01*
X2947974Y-2365908D01*
X2933293Y-2368194D01*
X2926181Y-2370226D01*
X2921762Y-2370480D01*
X2917698Y-2368854D01*
X2914650Y-2365603D01*
X2913278Y-2361387D01*
X2913837Y-2357018D01*
X2916224Y-2353259D01*
X3445713Y-1823770D01*
X3449015Y-1821586D01*
X3452876Y-1820824D01*
X4647996Y-1820824D01*
X4653026Y-1820570D01*
X4657852Y-1819960D01*
X4662576Y-1818893D01*
X4667199Y-1817471D01*
X4671669Y-1815592D01*
X4675936Y-1813356D01*
X4680051Y-1810766D01*
X4683861Y-1807819D01*
X4687620Y-1804416D01*
X4719574Y-1772412D01*
X4722926Y-1770176D01*
X4726838Y-1769465D01*
X4730750Y-1770278D01*
X4734052Y-1772513D01*
X4736236Y-1775866D01*
X4740808Y-1787499D01*
X4746802Y-1797913D01*
X4754321Y-1807362D01*
X4763109Y-1815541D01*
X4773066Y-1822297D01*
X4783886Y-1827530D01*
X4795367Y-1831086D01*
X4807305Y-1832864D01*
X4819294Y-1832864D01*
X4831232Y-1831086D01*
X4842713Y-1827530D01*
X4853533Y-1822297D01*
X4863490Y-1815541D01*
X4872278Y-1807362D01*
X4879797Y-1797913D01*
X4885791Y-1787499D01*
X4890211Y-1776374D01*
X4893259Y-1762607D01*
X4897526Y-1748586D01*
X4898491Y-1746300D01*
X4900066Y-1744370D01*
X4934051Y-1710334D01*
X4937201Y-1708200D01*
X4940960Y-1707388D01*
X4944719Y-1707997D01*
X4948021Y-1709928D01*
X4950307Y-1712975D01*
X4960772Y-1733905D01*
X4961839Y-1738426D01*
X4961839Y-1766773D01*
X4960772Y-1771294D01*
X4950104Y-1792681D01*
X4948834Y-1794611D01*
X4943398Y-1801215D01*
X4939690Y-1808225D01*
X4937353Y-1815795D01*
X4936540Y-1824177D01*
X4936540Y-1909622D01*
X4937353Y-1918004D01*
X4939690Y-1925574D01*
X4943398Y-1932584D01*
X4948428Y-1938731D01*
X4954574Y-1943760D01*
X4961585Y-1947468D01*
X4969154Y-1949805D01*
X4977536Y-1950618D01*
X5057190Y-1950618D01*
X5065572Y-1949805D01*
X5073192Y-1947468D01*
X5080203Y-1943760D01*
X5086248Y-1938731D01*
X5089296Y-1937054D01*
X5092700Y-1936445D01*
X5096103Y-1937054D01*
X5099151Y-1938731D01*
X5105247Y-1943760D01*
X5112207Y-1947468D01*
X5119827Y-1949805D01*
X5128209Y-1950618D01*
X5207863Y-1950618D01*
X5216245Y-1949805D01*
X5223814Y-1947468D01*
X5230825Y-1943760D01*
X5236972Y-1938731D01*
X5240223Y-1934768D01*
X5243525Y-1932127D01*
X5260746Y-1923491D01*
X5265318Y-1922424D01*
X5751322Y-1922424D01*
X5755182Y-1923186D01*
X5758484Y-1925370D01*
X6149289Y-2316175D01*
X6151473Y-2319477D01*
X6152286Y-2323388D01*
X6151473Y-2327249D01*
X6149289Y-2330551D01*
X6145987Y-2332786D01*
X6142126Y-2333548D01*
X6139484Y-2333548D01*
X6124956Y-2335377D01*
X6110732Y-2339035D01*
X6097117Y-2344420D01*
X6084265Y-2351481D01*
X6072428Y-2360066D01*
X6061760Y-2370124D01*
X6052413Y-2381402D01*
X6044539Y-2393797D01*
X6038291Y-2407056D01*
X6033770Y-2420975D01*
X6031026Y-2435352D01*
X6030112Y-2449982D01*
X6031026Y-2464612D01*
X6033770Y-2478989D01*
X6038291Y-2492959D01*
X6044539Y-2506218D01*
X6052413Y-2518562D01*
X6061760Y-2529890D01*
X6072428Y-2539898D01*
X6084265Y-2548534D01*
X6097117Y-2555595D01*
X6110732Y-2560980D01*
X6124956Y-2564638D01*
X6139484Y-2566466D01*
X6154115Y-2566466D01*
X6168644Y-2564638D01*
X6182868Y-2560980D01*
X6196482Y-2555595D01*
X6203238Y-2551887D01*
X6207252Y-2550668D01*
X6211417Y-2551125D01*
X6214973Y-2553258D01*
X6217412Y-2556662D01*
X6218275Y-2560777D01*
X6218275Y-2615996D01*
X6218529Y-2621026D01*
X6219139Y-2625852D01*
X6220206Y-2630576D01*
X6221628Y-2635199D01*
X6223508Y-2639669D01*
X6225743Y-2643936D01*
X6228334Y-2648051D01*
X6231280Y-2651861D01*
X6234684Y-2655620D01*
X6342329Y-2763215D01*
X6344513Y-2766517D01*
X6345275Y-2770378D01*
X6345275Y-2978658D01*
X6344716Y-2982010D01*
X6343091Y-2984957D01*
X6306464Y-3031337D01*
X6298539Y-3043783D01*
X6292291Y-3057042D01*
X6287770Y-3070961D01*
X6285026Y-3085388D01*
X6284112Y-3100019D01*
X6285026Y-3114598D01*
X6287770Y-3129026D01*
X6292291Y-3142945D01*
X6298539Y-3156204D01*
X6306413Y-3168599D01*
X6315760Y-3179876D01*
X6326428Y-3189884D01*
X6338265Y-3198520D01*
X6351117Y-3205581D01*
X6364732Y-3210966D01*
X6378956Y-3214624D01*
X6393484Y-3216452D01*
X6408115Y-3216452D01*
X6422644Y-3214624D01*
X6436868Y-3210966D01*
X6450482Y-3205581D01*
X6463334Y-3198520D01*
X6475171Y-3189884D01*
X6485839Y-3179876D01*
X6495186Y-3168599D01*
X6503060Y-3156204D01*
X6509308Y-3142945D01*
X6513423Y-3130245D01*
X6515303Y-3126841D01*
X6518351Y-3124403D01*
X6522059Y-3123285D01*
X6525920Y-3123590D01*
X6529374Y-3125368D01*
X6531914Y-3128314D01*
X6536740Y-3136798D01*
X6537756Y-3139236D01*
X6538112Y-3141878D01*
X6538112Y-3175711D01*
X6538925Y-3184093D01*
X6541211Y-3191662D01*
X6544970Y-3198672D01*
X6549999Y-3204819D01*
X6556146Y-3209848D01*
X6563106Y-3213557D01*
X6570725Y-3215894D01*
X6579108Y-3216706D01*
X6730492Y-3216706D01*
X6738874Y-3215894D01*
X6746494Y-3213557D01*
X6753453Y-3209848D01*
X6759600Y-3204819D01*
X6764629Y-3198672D01*
X6768388Y-3191662D01*
X6770674Y-3184093D01*
X6771487Y-3175711D01*
X6771487Y-3141878D01*
X6771843Y-3139287D01*
X6772808Y-3136849D01*
X6781393Y-3121609D01*
X6787388Y-3107080D01*
X6791756Y-3091942D01*
X6794398Y-3076448D01*
X6795058Y-3065119D01*
X6795973Y-3061411D01*
X6798208Y-3058312D01*
X6801408Y-3056280D01*
X6805168Y-3055569D01*
X6864350Y-3055569D01*
X6864350Y-2992323D01*
X6859117Y-2994406D01*
X6846265Y-3001467D01*
X6834428Y-3010103D01*
X6823760Y-3020110D01*
X6814058Y-3031947D01*
X6811009Y-3035046D01*
X6806946Y-3036570D01*
X6802628Y-3036265D01*
X6798818Y-3034182D01*
X6796227Y-3030728D01*
X6795312Y-3026511D01*
X6795312Y-2523490D01*
X6796227Y-2519222D01*
X6798818Y-2515768D01*
X6802628Y-2513736D01*
X6806946Y-2513431D01*
X6811009Y-2514955D01*
X6814413Y-2518562D01*
X6823760Y-2529890D01*
X6834428Y-2539898D01*
X6846265Y-2548534D01*
X6859117Y-2555595D01*
X6864350Y-2557627D01*
X6864350Y-2494432D01*
X6805472Y-2494432D01*
X6801561Y-2493670D01*
X6798259Y-2491486D01*
X6796074Y-2488184D01*
X6795312Y-2484272D01*
X6795312Y-2451404D01*
X6794398Y-2435352D01*
X6791045Y-2414778D01*
X6792061Y-2411171D01*
X6794296Y-2408224D01*
X6797497Y-2406243D01*
X6801154Y-2405532D01*
X6864350Y-2405532D01*
X6864350Y-2342337D01*
X6859117Y-2344420D01*
X6846265Y-2351481D01*
X6834428Y-2360066D01*
X6823760Y-2370124D01*
X6814413Y-2381402D01*
X6806539Y-2393797D01*
X6803745Y-2399741D01*
X6801459Y-2402840D01*
X6798157Y-2404922D01*
X6794296Y-2405583D01*
X6790537Y-2404719D01*
X6787337Y-2402535D01*
X6785152Y-2399284D01*
X6781393Y-2390140D01*
X6771690Y-2372868D01*
X6771131Y-2370328D01*
X6770674Y-2365908D01*
X6768388Y-2358288D01*
X6764629Y-2351328D01*
X6759600Y-2345182D01*
X6753453Y-2340152D01*
X6746494Y-2336393D01*
X6738874Y-2334107D01*
X6733946Y-2333650D01*
X6730034Y-2332431D01*
X6715759Y-2324506D01*
X6701180Y-2318512D01*
X6686042Y-2314143D01*
X6670548Y-2311501D01*
X6654800Y-2310587D01*
X6639052Y-2311501D01*
X6623558Y-2314143D01*
X6608419Y-2318512D01*
X6593840Y-2324506D01*
X6579565Y-2332431D01*
X6575653Y-2333650D01*
X6570725Y-2334107D01*
X6563106Y-2336393D01*
X6556146Y-2340152D01*
X6549999Y-2345182D01*
X6544970Y-2351328D01*
X6541211Y-2358288D01*
X6538925Y-2365908D01*
X6538468Y-2370328D01*
X6537909Y-2372868D01*
X6528206Y-2390140D01*
X6524447Y-2399284D01*
X6522262Y-2402535D01*
X6519062Y-2404719D01*
X6515303Y-2405583D01*
X6511442Y-2404922D01*
X6508140Y-2402840D01*
X6505854Y-2399741D01*
X6503060Y-2393797D01*
X6495135Y-2381300D01*
X6458508Y-2334971D01*
X6456934Y-2332126D01*
X6456324Y-2328875D01*
X6456070Y-2319172D01*
X6455460Y-2314448D01*
X6454394Y-2309723D01*
X6452971Y-2305100D01*
X6451092Y-2300630D01*
X6448856Y-2296363D01*
X6446266Y-2292248D01*
X6443319Y-2288438D01*
X6439916Y-2284679D01*
X6003493Y-1848307D01*
X6001308Y-1845005D01*
X6000546Y-1841093D01*
X6001308Y-1837232D01*
X6003493Y-1833930D01*
X6006795Y-1831746D01*
X6010706Y-1830933D01*
X6014415Y-1830933D01*
X6028944Y-1829104D01*
X6043168Y-1825498D01*
X6056782Y-1820062D01*
X6069634Y-1813001D01*
X6082639Y-1803450D01*
X6122162Y-1772208D01*
X6125108Y-1770583D01*
X6128461Y-1770024D01*
X6504940Y-1770024D01*
X6508292Y-1770583D01*
X6511239Y-1772208D01*
X6551930Y-1804416D01*
X6563766Y-1813001D01*
X6576618Y-1820062D01*
X6590233Y-1825498D01*
X6604457Y-1829104D01*
X6618986Y-1830933D01*
X6633616Y-1830933D01*
X6648145Y-1829104D01*
X6662369Y-1825498D01*
X6675983Y-1820062D01*
X6688836Y-1813001D01*
X6701840Y-1803450D01*
X6741363Y-1772208D01*
X6744309Y-1770583D01*
X6747662Y-1770024D01*
X7130338Y-1770024D01*
X7133691Y-1770583D01*
X7136638Y-1772208D01*
X7177328Y-1804416D01*
X7189165Y-1813001D01*
X7202017Y-1820062D01*
X7215631Y-1825498D01*
X7229856Y-1829104D01*
X7244384Y-1830933D01*
X7259015Y-1830933D01*
X7273544Y-1829104D01*
X7287768Y-1825498D01*
X7301382Y-1820062D01*
X7314234Y-1813001D01*
X7326071Y-1804416D01*
X7336739Y-1794357D01*
X7346086Y-1783080D01*
X7353960Y-1770735D01*
X7360208Y-1757476D01*
X7364730Y-1743506D01*
X7367473Y-1729130D01*
X7368387Y-1714500D01*
X7367473Y-1699869D01*
X7364730Y-1685493D01*
X7360208Y-1671523D01*
X7353960Y-1658264D01*
X7346086Y-1645920D01*
X7336739Y-1634642D01*
X7326071Y-1624584D01*
X7314234Y-1615998D01*
X7301382Y-1608937D01*
X7287768Y-1603502D01*
X7273544Y-1599895D01*
X7259015Y-1598066D01*
X7244384Y-1598066D01*
X7229856Y-1599895D01*
X7215631Y-1603502D01*
X7202017Y-1608937D01*
X7189165Y-1615998D01*
X7176160Y-1625549D01*
X7136638Y-1656791D01*
X7133691Y-1658416D01*
X7130338Y-1658975D01*
X6747662Y-1658975D01*
X6744309Y-1658416D01*
X6741363Y-1656791D01*
X6700672Y-1624584D01*
X6688836Y-1615998D01*
X6675983Y-1608937D01*
X6662369Y-1603502D01*
X6648145Y-1599895D01*
X6633616Y-1598066D01*
X6618986Y-1598066D01*
X6604457Y-1599895D01*
X6590233Y-1603502D01*
X6576618Y-1608937D01*
X6563766Y-1615998D01*
X6550761Y-1625549D01*
X6511239Y-1656791D01*
X6508292Y-1658416D01*
X6504940Y-1658975D01*
X6128461Y-1658975D01*
X6125108Y-1658416D01*
X6122162Y-1656791D01*
X6081471Y-1624584D01*
X6069634Y-1615998D01*
X6056782Y-1608937D01*
X6043168Y-1603502D01*
X6028944Y-1599895D01*
X6014415Y-1598066D01*
X5999581Y-1598066D01*
X5951270Y-1600809D01*
X5947105Y-1600149D01*
X5943549Y-1597812D01*
X5805220Y-1459484D01*
X5801461Y-1456080D01*
X5797651Y-1453134D01*
X5793536Y-1450543D01*
X5789269Y-1448308D01*
X5784799Y-1446428D01*
X5780176Y-1445006D01*
X5775452Y-1443939D01*
X5770626Y-1443329D01*
X5765596Y-1443075D01*
X5589778Y-1443075D01*
X5585917Y-1442313D01*
X5582615Y-1440129D01*
X5335320Y-1192784D01*
X5333085Y-1190752D01*
X5330698Y-1187500D01*
X5329783Y-1183538D01*
X5330444Y-1179576D01*
X5332628Y-1176172D01*
X5335981Y-1173886D01*
X5339943Y-1173124D01*
X5409996Y-1173124D01*
X5415026Y-1172870D01*
X5419852Y-1172260D01*
X5424576Y-1171194D01*
X5429199Y-1169771D01*
X5433669Y-1167892D01*
X5437936Y-1165656D01*
X5442051Y-1163066D01*
X5445861Y-1160119D01*
X5449620Y-1156716D01*
X5525516Y-1080820D01*
X5528919Y-1077061D01*
X5531866Y-1073251D01*
X5534456Y-1069136D01*
X5536692Y-1064869D01*
X5538571Y-1060399D01*
X5539994Y-1055776D01*
X5541060Y-1051052D01*
X5541670Y-1046226D01*
X5541924Y-1041196D01*
X5541924Y-814578D01*
X5542686Y-810717D01*
X5544870Y-807415D01*
X5684215Y-668070D01*
X5687517Y-665886D01*
X5691378Y-665124D01*
X5796381Y-665124D01*
X5800953Y-666191D01*
X5818174Y-674827D01*
X5821476Y-677468D01*
X5824728Y-681431D01*
X5830874Y-686460D01*
X5837885Y-690168D01*
X5845454Y-692505D01*
X5853836Y-693318D01*
X5933490Y-693318D01*
X5941872Y-692505D01*
X5949492Y-690168D01*
X5956503Y-686460D01*
X5962548Y-681431D01*
X5965596Y-679754D01*
X5969000Y-679145D01*
X5972403Y-679754D01*
X5975451Y-681431D01*
X5981547Y-686460D01*
X5988507Y-690168D01*
X5996127Y-692505D01*
X6004509Y-693318D01*
X6029909Y-693318D01*
X6033516Y-693978D01*
X6058509Y-703529D01*
X6062065Y-705815D01*
X6115050Y-758850D01*
X6118809Y-762254D01*
X6122619Y-765200D01*
X6126734Y-767791D01*
X6131001Y-770026D01*
X6135471Y-771906D01*
X6140094Y-773328D01*
X6144818Y-774395D01*
X6149644Y-775004D01*
X6154674Y-775258D01*
X6196838Y-775258D01*
X6201359Y-776325D01*
X6211366Y-781304D01*
X6213957Y-783132D01*
X6215837Y-785723D01*
X6220206Y-794105D01*
X6225184Y-800201D01*
X6231331Y-805230D01*
X6238290Y-808990D01*
X6245910Y-811276D01*
X6254292Y-812088D01*
X6306515Y-812088D01*
X6314897Y-811276D01*
X6322466Y-808990D01*
X6329476Y-805230D01*
X6335623Y-800201D01*
X6340652Y-794054D01*
X6344361Y-787095D01*
X6346698Y-779475D01*
X6347510Y-771093D01*
X6347510Y-668324D01*
X6346698Y-659942D01*
X6344361Y-652373D01*
X6340652Y-645363D01*
X6335623Y-639216D01*
X6329476Y-634187D01*
X6322466Y-630478D01*
X6314897Y-628192D01*
X6306515Y-627329D01*
X6254292Y-627329D01*
X6245910Y-628192D01*
X6238290Y-630478D01*
X6231331Y-634187D01*
X6225184Y-639216D01*
X6220206Y-645312D01*
X6215837Y-653745D01*
X6213906Y-656336D01*
X6211366Y-658164D01*
X6201359Y-663143D01*
X6196838Y-664210D01*
X6181648Y-664210D01*
X6177788Y-663448D01*
X6174486Y-661263D01*
X6138722Y-625500D01*
X6137249Y-623570D01*
X6136233Y-621385D01*
X6125616Y-588314D01*
X6125159Y-585216D01*
X6125159Y-566877D01*
X6124346Y-558495D01*
X6122009Y-550926D01*
X6118301Y-543915D01*
X6113272Y-537768D01*
X6107125Y-532739D01*
X6100114Y-529031D01*
X6092545Y-526694D01*
X6084163Y-525881D01*
X6004509Y-525881D01*
X5996127Y-526694D01*
X5988507Y-529031D01*
X5981547Y-532739D01*
X5975451Y-537768D01*
X5972403Y-539445D01*
X5969000Y-540054D01*
X5965596Y-539445D01*
X5962548Y-537768D01*
X5956503Y-532739D01*
X5949492Y-529031D01*
X5941872Y-526694D01*
X5933490Y-525881D01*
X5853836Y-525881D01*
X5845454Y-526694D01*
X5837885Y-529031D01*
X5830874Y-532739D01*
X5824728Y-537768D01*
X5821476Y-541731D01*
X5818174Y-544372D01*
X5800953Y-553008D01*
X5796381Y-554075D01*
X5664403Y-554075D01*
X5659374Y-554329D01*
X5654548Y-554939D01*
X5649823Y-556006D01*
X5645200Y-557428D01*
X5640730Y-559308D01*
X5636463Y-561543D01*
X5632348Y-564134D01*
X5628538Y-567080D01*
X5624779Y-570484D01*
X5447284Y-747979D01*
X5443880Y-751738D01*
X5440934Y-755548D01*
X5438343Y-759663D01*
X5436108Y-763930D01*
X5434228Y-768400D01*
X5432806Y-773023D01*
X5431739Y-777748D01*
X5431129Y-782574D01*
X5430875Y-787603D01*
X5430875Y-1014221D01*
X5430113Y-1018082D01*
X5427929Y-1021384D01*
X5390184Y-1059129D01*
X5386882Y-1061313D01*
X5383022Y-1062075D01*
X5258460Y-1062075D01*
X5254345Y-1061212D01*
X5250942Y-1058773D01*
X5248808Y-1055116D01*
X5248351Y-1050950D01*
X5248859Y-1046022D01*
X5248859Y-960577D01*
X5248046Y-952195D01*
X5245709Y-944626D01*
X5244896Y-943102D01*
X5243728Y-939037D01*
X5244338Y-934821D01*
X5246573Y-931214D01*
X5250129Y-928878D01*
X5255920Y-926592D01*
X5260136Y-924356D01*
X5264251Y-921766D01*
X5268061Y-918819D01*
X5271820Y-915416D01*
X5360416Y-826820D01*
X5363819Y-823061D01*
X5366766Y-819251D01*
X5369356Y-815136D01*
X5371592Y-810869D01*
X5373471Y-806399D01*
X5374894Y-801776D01*
X5375960Y-797052D01*
X5376570Y-792226D01*
X5376824Y-787196D01*
X5376824Y-433578D01*
X5377586Y-429717D01*
X5379770Y-426415D01*
X5445506Y-360730D01*
X5448655Y-358546D01*
X5498287Y-337210D01*
X5502300Y-336397D01*
X5578602Y-336397D01*
X5586984Y-335584D01*
X5594604Y-333298D01*
X5601563Y-329539D01*
X5607710Y-324510D01*
X5612739Y-318363D01*
X5616498Y-311404D01*
X5618784Y-303784D01*
X5619597Y-295402D01*
X5619597Y-284734D01*
X5620308Y-281025D01*
X5622239Y-277876D01*
X5625236Y-275640D01*
X5631535Y-272491D01*
X5636056Y-271424D01*
X5970473Y-271424D01*
X5974994Y-272491D01*
X5981293Y-275640D01*
X5984290Y-277876D01*
X5986221Y-281076D01*
X5986932Y-284734D01*
X5986932Y-309372D01*
X5987745Y-317754D01*
X5990031Y-325374D01*
X5993790Y-332333D01*
X5998819Y-338480D01*
X6004966Y-343509D01*
X6011926Y-347268D01*
X6019546Y-349554D01*
X6027928Y-350367D01*
X6214872Y-350367D01*
X6223254Y-349554D01*
X6230874Y-347268D01*
X6237833Y-343509D01*
X6243980Y-338480D01*
X6249009Y-332333D01*
X6252768Y-325374D01*
X6255054Y-317754D01*
X6255867Y-309473D01*
X6257036Y-305714D01*
X6259525Y-302666D01*
X6262979Y-300786D01*
X6266891Y-300329D01*
X6270701Y-301447D01*
X6273749Y-303936D01*
X6317488Y-355803D01*
X6319266Y-358851D01*
X6319875Y-362356D01*
X6319875Y-396189D01*
X6319570Y-398729D01*
X6309156Y-439369D01*
X6308293Y-448106D01*
X6308293Y-550875D01*
X6309106Y-559257D01*
X6311442Y-566826D01*
X6315151Y-573836D01*
X6320180Y-579983D01*
X6326327Y-585012D01*
X6333337Y-588721D01*
X6340906Y-591007D01*
X6349288Y-591870D01*
X6401511Y-591870D01*
X6409893Y-591007D01*
X6417462Y-588721D01*
X6424472Y-585012D01*
X6430619Y-579983D01*
X6435648Y-573836D01*
X6439357Y-566826D01*
X6441694Y-559257D01*
X6442506Y-550875D01*
X6442456Y-445566D01*
X6441694Y-439470D01*
X6431229Y-398729D01*
X6430924Y-396189D01*
X6430924Y-362356D01*
X6431534Y-358851D01*
X6433312Y-355803D01*
X6478270Y-302514D01*
X6487769Y-289814D01*
X6495592Y-276250D01*
X6501739Y-261874D01*
X6506260Y-246888D01*
X6508953Y-231495D01*
X6509867Y-215900D01*
X6508953Y-200304D01*
X6506260Y-184912D01*
X6501739Y-169926D01*
X6495592Y-155549D01*
X6487769Y-141986D01*
X6478422Y-129489D01*
X6467703Y-118110D01*
X6455714Y-108051D01*
X6442659Y-99466D01*
X6428638Y-92405D01*
X6413957Y-87071D01*
X6398768Y-83464D01*
X6383223Y-81635D01*
X6367576Y-81635D01*
X6352032Y-83464D01*
X6336842Y-87071D01*
X6322161Y-92405D01*
X6308140Y-99466D01*
X6295085Y-108051D01*
X6283096Y-118110D01*
X6273393Y-128422D01*
X6270244Y-130657D01*
X6266535Y-131572D01*
X6262725Y-131064D01*
X6259372Y-129133D01*
X6256985Y-126136D01*
X6255867Y-122428D01*
X6255054Y-114046D01*
X6252768Y-106426D01*
X6249009Y-99466D01*
X6243980Y-93319D01*
X6237833Y-88290D01*
X6230874Y-84531D01*
X6223254Y-82245D01*
X6214872Y-81432D01*
X6027928Y-81432D01*
X6019546Y-82245D01*
X6011926Y-84531D01*
X6004966Y-88290D01*
X5998819Y-93319D01*
X5993790Y-99466D01*
X5990031Y-106426D01*
X5987745Y-114046D01*
X5986932Y-122428D01*
X5986932Y-147066D01*
X5986221Y-150723D01*
X5984290Y-153924D01*
X5981293Y-156159D01*
X5974994Y-159308D01*
X5970473Y-160375D01*
X5636056Y-160375D01*
X5631535Y-159308D01*
X5625236Y-156159D01*
X5622239Y-153924D01*
X5620308Y-150774D01*
X5619597Y-147066D01*
X5619597Y-136398D01*
X5618784Y-128016D01*
X5616498Y-120396D01*
X5612739Y-113436D01*
X5607710Y-107289D01*
X5601563Y-102260D01*
X5594604Y-98501D01*
X5586984Y-96215D01*
X5578602Y-95402D01*
X5472938Y-95402D01*
X5469229Y-94691D01*
X5444642Y-85039D01*
X5441188Y-82804D01*
X5401665Y-43230D01*
X5399430Y-39979D01*
X5398668Y-36068D01*
X5399430Y-32156D01*
X5401665Y-28905D01*
X5404967Y-26670D01*
X5408828Y-25908D01*
X7099401Y-25908D01*
X7125868Y-26822D01*
X7151268Y-29464D01*
X7176414Y-33832D01*
X7201255Y-39878D01*
X7225588Y-47650D01*
X7249312Y-57048D01*
X7272375Y-68021D01*
X7294625Y-80568D01*
X7315962Y-94589D01*
X7336332Y-110032D01*
X7355535Y-126847D01*
X7373620Y-144932D01*
X7390384Y-164185D01*
X7405776Y-184556D01*
X7419797Y-205943D01*
X7432294Y-228193D01*
X7443216Y-251307D01*
X7452563Y-275082D01*
X7460284Y-299415D01*
X7466279Y-324256D01*
X7470597Y-349402D01*
X7473188Y-374802D01*
X7474102Y-400608D01*
X7474102Y-4199382D01*
X7473137Y-4225848D01*
X7470495Y-4251248D01*
X7466177Y-4276445D01*
X7460081Y-4301236D01*
X7452359Y-4325569D01*
X7442962Y-4349343D01*
X7431938Y-4372406D01*
X7419390Y-4394657D01*
X7405370Y-4415993D01*
X7389926Y-4436313D01*
X7373112Y-4455566D01*
X7355027Y-4473600D01*
X7335774Y-4490364D01*
X7315403Y-4505807D01*
X7294067Y-4519777D01*
X7271766Y-4532274D01*
X7248702Y-4543247D01*
X7224928Y-4552594D01*
X7200595Y-4560265D01*
X7175753Y-4566310D01*
X7150557Y-4570628D01*
X7125157Y-4573219D01*
X7099401Y-4574082D01*
G37*

%LPC*%
G36*
X426364Y-4525873D02*
G01*
X429412Y-4524908D01*
X440232Y-4519676D01*
X450189Y-4512919D01*
X458978Y-4504740D01*
X466496Y-4495342D01*
X472490Y-4484928D01*
X475894Y-4476343D01*
X426364Y-4476343D01*
G37*
G36*
X373634Y-4525873D02*
G01*
X373634Y-4476343D01*
X324104Y-4476343D01*
X327507Y-4484928D01*
X333502Y-4495342D01*
X341020Y-4504740D01*
X349808Y-4512919D01*
X359765Y-4519676D01*
X370586Y-4524908D01*
G37*
G36*
X7126325Y-4525873D02*
G01*
X7129373Y-4524908D01*
X7140244Y-4519676D01*
X7150150Y-4512919D01*
X7158990Y-4504740D01*
X7166457Y-4495342D01*
X7172502Y-4484928D01*
X7175855Y-4476343D01*
X7126325Y-4476343D01*
G37*
G36*
X7073646Y-4525873D02*
G01*
X7073646Y-4476343D01*
X7024116Y-4476343D01*
X7027468Y-4484928D01*
X7033514Y-4495342D01*
X7040981Y-4504740D01*
X7049820Y-4512919D01*
X7059726Y-4519676D01*
X7070598Y-4524908D01*
G37*
G36*
X1023924Y-4522012D02*
G01*
X1039621Y-4521098D01*
X1055166Y-4518456D01*
X1070305Y-4514088D01*
X1083056Y-4508855D01*
X1085900Y-4508093D01*
X1091285Y-4507585D01*
X1098905Y-4505299D01*
X1105865Y-4501540D01*
X1112012Y-4496511D01*
X1117041Y-4490364D01*
X1120292Y-4484319D01*
X1133754Y-4469079D01*
X1142847Y-4456226D01*
X1150467Y-4442460D01*
X1156512Y-4427880D01*
X1158646Y-4420514D01*
X1160678Y-4416704D01*
X1164183Y-4414062D01*
X1168400Y-4413148D01*
X1172616Y-4414062D01*
X1176121Y-4416704D01*
X1178153Y-4420514D01*
X1180287Y-4427880D01*
X1186332Y-4442460D01*
X1193952Y-4456226D01*
X1203045Y-4469079D01*
X1216507Y-4484319D01*
X1219758Y-4490364D01*
X1224788Y-4496511D01*
X1230934Y-4501540D01*
X1237894Y-4505299D01*
X1245514Y-4507585D01*
X1250899Y-4508093D01*
X1253744Y-4508855D01*
X1266494Y-4514088D01*
X1281633Y-4518456D01*
X1297178Y-4521098D01*
X1313180Y-4522012D01*
X1669592Y-4522012D01*
X1685645Y-4521098D01*
X1701139Y-4518456D01*
X1716278Y-4514088D01*
X1730857Y-4508093D01*
X1744624Y-4500473D01*
X1757476Y-4491329D01*
X1769465Y-4480661D01*
X2071776Y-4178350D01*
X2082444Y-4166362D01*
X2091588Y-4153509D01*
X2099208Y-4139742D01*
X2103069Y-4130344D01*
X2105304Y-4127042D01*
X2108606Y-4124858D01*
X2112467Y-4124096D01*
X2126437Y-4124096D01*
X2126437Y-4067454D01*
X2123287Y-4067454D01*
X2119376Y-4066692D01*
X2116074Y-4064457D01*
X2113889Y-4061155D01*
X2113127Y-4057294D01*
X2113127Y-4019905D01*
X2113889Y-4016044D01*
X2116074Y-4012742D01*
X2119376Y-4010507D01*
X2123287Y-4009745D01*
X2126437Y-4009745D01*
X2126437Y-3953103D01*
X2123287Y-3953103D01*
X2119376Y-3952341D01*
X2116074Y-3950106D01*
X2113889Y-3946804D01*
X2113127Y-3942943D01*
X2113127Y-3568242D01*
X2113889Y-3564382D01*
X2116074Y-3561079D01*
X2119376Y-3558895D01*
X2123287Y-3558082D01*
X2127148Y-3558895D01*
X2130450Y-3561079D01*
X2409240Y-3839819D01*
X2411425Y-3843121D01*
X2412187Y-3847033D01*
X2412187Y-3987495D01*
X2413101Y-4003548D01*
X2415743Y-4019042D01*
X2420112Y-4034180D01*
X2426106Y-4048760D01*
X2433726Y-4062526D01*
X2442870Y-4075379D01*
X2453538Y-4087368D01*
X2787954Y-4421733D01*
X2799892Y-4432452D01*
X2812745Y-4441545D01*
X2826562Y-4449165D01*
X2841091Y-4455210D01*
X2856230Y-4459579D01*
X2871774Y-4462221D01*
X2887776Y-4463084D01*
X3145028Y-4463084D01*
X3153410Y-4462272D01*
X3160979Y-4459986D01*
X3167989Y-4456226D01*
X3174136Y-4451197D01*
X3179165Y-4445050D01*
X3182874Y-4438091D01*
X3185160Y-4430471D01*
X3186023Y-4422089D01*
X3186023Y-4223105D01*
X3185160Y-4214723D01*
X3182874Y-4207103D01*
X3179267Y-4200398D01*
X3178200Y-4197248D01*
X3178200Y-4193946D01*
X3179267Y-4190796D01*
X3182874Y-4184091D01*
X3185160Y-4176471D01*
X3186023Y-4168089D01*
X3186023Y-3969105D01*
X3185160Y-3960723D01*
X3182874Y-3953103D01*
X3179165Y-3946144D01*
X3174136Y-3939997D01*
X3167989Y-3934968D01*
X3160979Y-3931208D01*
X3153410Y-3928922D01*
X3145028Y-3928110D01*
X2945993Y-3928110D01*
X2937611Y-3928922D01*
X2930042Y-3931208D01*
X2923032Y-3934968D01*
X2916885Y-3939997D01*
X2911856Y-3946144D01*
X2908147Y-3953103D01*
X2905810Y-3960723D01*
X2904998Y-3969105D01*
X2904998Y-4116882D01*
X2904236Y-4120743D01*
X2902000Y-4124045D01*
X2898698Y-4126229D01*
X2894838Y-4127042D01*
X2890926Y-4126229D01*
X2887675Y-4124045D01*
X2696159Y-3932580D01*
X2693974Y-3929278D01*
X2693212Y-3925366D01*
X2693212Y-3784904D01*
X2692298Y-3768851D01*
X2689656Y-3753358D01*
X2685288Y-3738219D01*
X2679293Y-3723640D01*
X2671673Y-3709873D01*
X2662529Y-3697020D01*
X2651861Y-3685032D01*
X2106168Y-3139338D01*
X2094179Y-3128670D01*
X2081326Y-3119526D01*
X2067560Y-3111906D01*
X2052980Y-3105912D01*
X2037842Y-3101543D01*
X2022348Y-3098901D01*
X2006600Y-3097987D01*
X1990852Y-3098901D01*
X1975357Y-3101543D01*
X1960219Y-3105912D01*
X1945639Y-3111906D01*
X1931873Y-3119526D01*
X1919020Y-3128670D01*
X1907032Y-3139338D01*
X1873453Y-3172917D01*
X1862785Y-3184906D01*
X1853641Y-3197758D01*
X1846021Y-3211525D01*
X1840026Y-3226104D01*
X1835657Y-3241243D01*
X1833016Y-3256737D01*
X1832102Y-3272790D01*
X1832102Y-4016349D01*
X1831339Y-4020261D01*
X1829155Y-4023563D01*
X1614678Y-4238040D01*
X1611376Y-4240225D01*
X1607464Y-4240987D01*
X1313180Y-4240987D01*
X1297178Y-4241901D01*
X1281633Y-4244543D01*
X1266494Y-4248912D01*
X1253744Y-4254144D01*
X1250899Y-4254906D01*
X1245514Y-4255414D01*
X1237894Y-4257700D01*
X1230934Y-4261459D01*
X1224788Y-4266488D01*
X1219758Y-4272635D01*
X1216507Y-4278680D01*
X1203045Y-4293920D01*
X1193952Y-4306773D01*
X1186332Y-4320540D01*
X1183944Y-4326280D01*
X1181760Y-4329531D01*
X1178458Y-4331766D01*
X1174546Y-4332528D01*
X1170686Y-4331766D01*
X1167384Y-4329531D01*
X1165199Y-4326280D01*
X1164386Y-4322368D01*
X1164386Y-4296308D01*
X1165199Y-4292396D01*
X1167384Y-4289145D01*
X1236319Y-4220159D01*
X1239621Y-4217974D01*
X1243533Y-4217212D01*
X1485595Y-4217212D01*
X1501648Y-4216298D01*
X1517142Y-4213656D01*
X1532280Y-4209288D01*
X1546860Y-4203293D01*
X1560626Y-4195673D01*
X1573479Y-4186529D01*
X1585468Y-4175861D01*
X1724761Y-4036568D01*
X1735429Y-4024579D01*
X1744573Y-4011726D01*
X1752193Y-3997960D01*
X1758188Y-3983380D01*
X1762556Y-3968242D01*
X1765198Y-3952748D01*
X1766112Y-3936695D01*
X1766112Y-3430168D01*
X1765198Y-3414166D01*
X1762556Y-3398621D01*
X1758188Y-3383483D01*
X1752193Y-3368954D01*
X1744573Y-3355136D01*
X1735429Y-3342284D01*
X1724761Y-3330346D01*
X1679448Y-3285032D01*
X1677263Y-3281781D01*
X1634489Y-3180384D01*
X1633728Y-3177032D01*
X1633474Y-3172358D01*
X1630832Y-3156813D01*
X1626463Y-3141675D01*
X1620418Y-3127095D01*
X1612798Y-3113328D01*
X1603705Y-3100476D01*
X1593189Y-3088741D01*
X1581454Y-3078226D01*
X1568602Y-3069082D01*
X1554784Y-3061462D01*
X1540256Y-3055467D01*
X1525117Y-3051098D01*
X1509572Y-3048457D01*
X1493875Y-3047593D01*
X1478127Y-3048457D01*
X1462582Y-3051098D01*
X1447444Y-3055467D01*
X1432915Y-3061462D01*
X1419098Y-3069082D01*
X1406245Y-3078226D01*
X1394510Y-3088741D01*
X1383995Y-3100476D01*
X1374902Y-3113328D01*
X1367282Y-3127095D01*
X1361236Y-3141675D01*
X1356868Y-3156813D01*
X1354226Y-3172358D01*
X1353362Y-3188360D01*
X1353362Y-3407765D01*
X1354226Y-3423767D01*
X1356868Y-3439312D01*
X1361236Y-3454450D01*
X1367282Y-3469030D01*
X1374902Y-3482797D01*
X1383995Y-3495649D01*
X1394510Y-3507384D01*
X1406245Y-3517900D01*
X1419098Y-3527044D01*
X1432915Y-3534664D01*
X1447444Y-3540658D01*
X1462582Y-3545027D01*
X1476654Y-3547414D01*
X1479956Y-3548634D01*
X1482699Y-3550869D01*
X1484477Y-3553968D01*
X1485087Y-3557422D01*
X1485087Y-3676802D01*
X1484122Y-3681120D01*
X1481429Y-3684625D01*
X1477467Y-3686657D01*
X1473047Y-3686759D01*
X1468983Y-3685032D01*
X1466037Y-3681729D01*
X1462735Y-3675786D01*
X1453642Y-3662934D01*
X1443126Y-3651199D01*
X1431391Y-3640683D01*
X1418539Y-3631590D01*
X1404772Y-3623919D01*
X1390192Y-3617925D01*
X1375054Y-3613556D01*
X1359509Y-3610914D01*
X1343507Y-3610000D01*
X1124102Y-3610000D01*
X1108049Y-3610914D01*
X1092555Y-3613556D01*
X1077417Y-3617925D01*
X1062837Y-3623919D01*
X1049070Y-3631590D01*
X1036218Y-3640683D01*
X1024483Y-3651199D01*
X1013968Y-3662934D01*
X1004824Y-3675786D01*
X997203Y-3689553D01*
X991209Y-3704132D01*
X986840Y-3719271D01*
X984199Y-3734815D01*
X983335Y-3750513D01*
X984199Y-3766261D01*
X986840Y-3781806D01*
X991209Y-3796944D01*
X997203Y-3811473D01*
X1004824Y-3825290D01*
X1013968Y-3838143D01*
X1024483Y-3849878D01*
X1036218Y-3860342D01*
X1049070Y-3869486D01*
X1062837Y-3877106D01*
X1077417Y-3883151D01*
X1092555Y-3887470D01*
X1108049Y-3890111D01*
X1124102Y-3891026D01*
X1343507Y-3891026D01*
X1359509Y-3890111D01*
X1375054Y-3887470D01*
X1390192Y-3883151D01*
X1404772Y-3877106D01*
X1418539Y-3869486D01*
X1431391Y-3860342D01*
X1443126Y-3849878D01*
X1453642Y-3838143D01*
X1462735Y-3825290D01*
X1466037Y-3819347D01*
X1468983Y-3815994D01*
X1473047Y-3814267D01*
X1477467Y-3814419D01*
X1481429Y-3816400D01*
X1484122Y-3819906D01*
X1485087Y-3824224D01*
X1485087Y-3874566D01*
X1484325Y-3878478D01*
X1482140Y-3881780D01*
X1430680Y-3933240D01*
X1427378Y-3935425D01*
X1423466Y-3936187D01*
X1181404Y-3936187D01*
X1165352Y-3937101D01*
X1149858Y-3939743D01*
X1134719Y-3944112D01*
X1120140Y-3950106D01*
X1106373Y-3957726D01*
X1093520Y-3966870D01*
X1081532Y-3977538D01*
X924763Y-4134358D01*
X914044Y-4146296D01*
X904951Y-4159148D01*
X897331Y-4172965D01*
X891286Y-4187494D01*
X886917Y-4202633D01*
X884275Y-4218178D01*
X883412Y-4234180D01*
X883412Y-4381195D01*
X884275Y-4397248D01*
X886917Y-4412742D01*
X891286Y-4427880D01*
X897331Y-4442460D01*
X904951Y-4456226D01*
X914044Y-4469079D01*
X927506Y-4484319D01*
X930757Y-4490364D01*
X935786Y-4496511D01*
X941933Y-4501540D01*
X948893Y-4505299D01*
X956513Y-4507585D01*
X961898Y-4508093D01*
X964793Y-4508855D01*
X977493Y-4514088D01*
X992632Y-4518456D01*
X1008176Y-4521098D01*
G37*
G36*
X604164Y-4453636D02*
G01*
X607212Y-4452721D01*
X618032Y-4447489D01*
X627989Y-4440732D01*
X636778Y-4432554D01*
X644296Y-4423105D01*
X650290Y-4412691D01*
X653694Y-4404156D01*
X604164Y-4404156D01*
G37*
G36*
X195834Y-4453636D02*
G01*
X195834Y-4404156D01*
X146304Y-4404156D01*
X149707Y-4412691D01*
X155702Y-4423105D01*
X163220Y-4432554D01*
X172008Y-4440732D01*
X181965Y-4447489D01*
X192786Y-4452721D01*
G37*
G36*
X551434Y-4453636D02*
G01*
X551434Y-4404156D01*
X501904Y-4404156D01*
X505307Y-4412691D01*
X511301Y-4423105D01*
X518820Y-4432554D01*
X527608Y-4440732D01*
X537565Y-4447489D01*
X548386Y-4452721D01*
G37*
G36*
X248564Y-4453636D02*
G01*
X251612Y-4452721D01*
X262432Y-4447489D01*
X272389Y-4440732D01*
X281178Y-4432554D01*
X288696Y-4423105D01*
X294690Y-4412691D01*
X298094Y-4404156D01*
X248564Y-4404156D01*
G37*
G36*
X6948525Y-4453636D02*
G01*
X6951573Y-4452721D01*
X6962444Y-4447489D01*
X6972350Y-4440732D01*
X6981190Y-4432554D01*
X6988657Y-4423105D01*
X6994702Y-4412691D01*
X6998055Y-4404156D01*
X6948525Y-4404156D01*
G37*
G36*
X7304125Y-4453636D02*
G01*
X7307173Y-4452721D01*
X7318044Y-4447489D01*
X7327950Y-4440732D01*
X7336790Y-4432554D01*
X7344257Y-4423105D01*
X7350302Y-4412691D01*
X7353655Y-4404156D01*
X7304125Y-4404156D01*
G37*
G36*
X6895846Y-4453636D02*
G01*
X6895846Y-4404156D01*
X6846316Y-4404156D01*
X6849668Y-4412691D01*
X6855714Y-4423105D01*
X6863181Y-4432554D01*
X6872020Y-4440732D01*
X6881926Y-4447489D01*
X6892798Y-4452721D01*
G37*
G36*
X7251446Y-4453636D02*
G01*
X7251446Y-4404156D01*
X7201916Y-4404156D01*
X7205268Y-4412691D01*
X7211314Y-4423105D01*
X7218781Y-4432554D01*
X7227620Y-4440732D01*
X7237526Y-4447489D01*
X7248398Y-4452721D01*
G37*
G36*
X7024116Y-4423664D02*
G01*
X7073646Y-4423664D01*
X7073646Y-4415028D01*
X7074458Y-4411065D01*
X7076694Y-4407763D01*
X7080097Y-4405579D01*
X7084059Y-4404868D01*
X7104989Y-4405426D01*
X7115454Y-4404664D01*
X7119569Y-4405223D01*
X7123074Y-4407357D01*
X7125512Y-4410760D01*
X7126325Y-4414824D01*
X7126325Y-4423664D01*
X7175855Y-4423664D01*
X7172502Y-4415078D01*
X7167524Y-4406493D01*
X7166203Y-4402328D01*
X7166762Y-4398010D01*
X7169099Y-4394301D01*
X7172756Y-4391914D01*
X7182053Y-4388408D01*
X7184745Y-4387088D01*
X7187438Y-4386275D01*
X7189165Y-4384852D01*
X7199833Y-4379569D01*
X7216698Y-4369104D01*
X7232497Y-4357065D01*
X7235596Y-4354169D01*
X7238796Y-4352137D01*
X7242505Y-4351426D01*
X7251446Y-4351426D01*
X7251446Y-4342434D01*
X7252106Y-4338828D01*
X7253986Y-4335678D01*
X7260183Y-4328668D01*
X7271867Y-4312615D01*
X7281925Y-4295495D01*
X7284770Y-4289450D01*
X7286244Y-4287367D01*
X7286904Y-4284827D01*
X7290308Y-4277461D01*
X7291882Y-4272991D01*
X7294219Y-4269232D01*
X7297928Y-4266844D01*
X7302347Y-4266234D01*
X7306564Y-4267606D01*
X7315047Y-4272483D01*
X7323632Y-4275886D01*
X7323632Y-4226356D01*
X7314895Y-4226356D01*
X7310881Y-4225544D01*
X7307529Y-4223207D01*
X7305344Y-4219702D01*
X7304735Y-4215688D01*
X7305497Y-4199991D01*
X7304735Y-4184294D01*
X7305344Y-4180281D01*
X7307529Y-4176776D01*
X7310881Y-4174439D01*
X7314895Y-4173626D01*
X7323632Y-4173626D01*
X7323632Y-4124096D01*
X7315047Y-4127500D01*
X7306564Y-4132376D01*
X7302347Y-4133748D01*
X7297928Y-4133138D01*
X7294219Y-4130751D01*
X7291882Y-4126992D01*
X7290308Y-4122521D01*
X7286904Y-4115155D01*
X7286244Y-4112615D01*
X7284770Y-4110532D01*
X7281925Y-4104487D01*
X7271867Y-4087368D01*
X7260183Y-4071315D01*
X7253986Y-4064304D01*
X7252106Y-4061155D01*
X7251446Y-4057548D01*
X7251446Y-4048556D01*
X7242505Y-4048556D01*
X7238796Y-4047845D01*
X7235596Y-4045813D01*
X7232497Y-4042918D01*
X7216698Y-4030878D01*
X7199833Y-4020413D01*
X7189165Y-4015130D01*
X7187438Y-4013708D01*
X7184745Y-4012946D01*
X7182053Y-4011574D01*
X7172756Y-4008069D01*
X7169099Y-4005681D01*
X7166762Y-4001973D01*
X7166203Y-3997655D01*
X7167524Y-3993489D01*
X7172502Y-3984904D01*
X7175855Y-3976319D01*
X7126325Y-3976319D01*
X7126325Y-3985158D01*
X7125512Y-3989222D01*
X7123074Y-3992626D01*
X7119569Y-3994759D01*
X7115454Y-3995318D01*
X7104989Y-3994556D01*
X7084059Y-3995115D01*
X7080097Y-3994404D01*
X7076694Y-3992219D01*
X7074458Y-3988917D01*
X7073646Y-3984955D01*
X7073646Y-3976319D01*
X7024116Y-3976319D01*
X7027468Y-3984904D01*
X7032294Y-3993286D01*
X7033615Y-3997299D01*
X7033158Y-4001515D01*
X7031024Y-4005173D01*
X7027570Y-4007662D01*
X7014819Y-4013200D01*
X7012330Y-4013708D01*
X7008926Y-4015790D01*
X6991553Y-4025442D01*
X6975195Y-4036720D01*
X6964019Y-4046169D01*
X6960971Y-4047947D01*
X6957466Y-4048556D01*
X6948525Y-4048556D01*
X6948525Y-4057192D01*
X6947966Y-4060596D01*
X6946290Y-4063542D01*
X6933742Y-4079189D01*
X6922871Y-4095800D01*
X6914997Y-4110786D01*
X6913575Y-4112463D01*
X6913118Y-4114647D01*
X6907936Y-4127449D01*
X6905498Y-4131005D01*
X6901789Y-4133189D01*
X6897522Y-4133697D01*
X6893407Y-4132376D01*
X6884924Y-4127500D01*
X6876338Y-4124096D01*
X6876338Y-4173626D01*
X6885127Y-4173626D01*
X6889242Y-4174490D01*
X6892645Y-4176979D01*
X6894779Y-4180586D01*
X6895236Y-4184802D01*
X6894728Y-4190085D01*
X6894728Y-4209897D01*
X6895236Y-4215180D01*
X6894779Y-4219397D01*
X6892645Y-4223004D01*
X6889242Y-4225493D01*
X6885127Y-4226356D01*
X6876338Y-4226356D01*
X6876338Y-4275886D01*
X6884924Y-4272483D01*
X6893407Y-4267606D01*
X6897522Y-4266285D01*
X6901789Y-4266793D01*
X6905498Y-4268978D01*
X6907936Y-4272534D01*
X6913118Y-4285335D01*
X6913575Y-4287520D01*
X6914997Y-4289196D01*
X6922871Y-4304182D01*
X6933742Y-4320794D01*
X6946290Y-4336440D01*
X6947966Y-4339386D01*
X6948525Y-4342790D01*
X6948525Y-4351426D01*
X6957466Y-4351426D01*
X6960971Y-4352036D01*
X6964019Y-4353814D01*
X6975195Y-4363262D01*
X6991553Y-4374540D01*
X7008926Y-4384192D01*
X7012330Y-4386275D01*
X7014819Y-4386783D01*
X7027570Y-4392320D01*
X7031024Y-4394809D01*
X7033158Y-4398467D01*
X7033615Y-4402683D01*
X7032294Y-4406696D01*
X7027468Y-4415078D01*
G37*
G36*
X324104Y-4423664D02*
G01*
X373634Y-4423664D01*
X373634Y-4415028D01*
X374446Y-4411065D01*
X376732Y-4407763D01*
X380085Y-4405579D01*
X384098Y-4404868D01*
X404977Y-4405426D01*
X415442Y-4404664D01*
X419557Y-4405223D01*
X423113Y-4407357D01*
X425500Y-4410760D01*
X426364Y-4414824D01*
X426364Y-4423664D01*
X475894Y-4423664D01*
X472490Y-4415078D01*
X467563Y-4406493D01*
X466242Y-4402328D01*
X466801Y-4398010D01*
X469087Y-4394301D01*
X472744Y-4391914D01*
X482092Y-4388408D01*
X484733Y-4387088D01*
X487426Y-4386275D01*
X489204Y-4384852D01*
X499872Y-4379569D01*
X516737Y-4369104D01*
X532536Y-4357065D01*
X535635Y-4354169D01*
X538835Y-4352137D01*
X542544Y-4351426D01*
X551434Y-4351426D01*
X551434Y-4342434D01*
X552094Y-4338828D01*
X554024Y-4335678D01*
X560222Y-4328668D01*
X571906Y-4312615D01*
X581964Y-4295495D01*
X584758Y-4289450D01*
X586282Y-4287367D01*
X586892Y-4284827D01*
X590346Y-4277461D01*
X591921Y-4272991D01*
X594258Y-4269232D01*
X597966Y-4266844D01*
X602335Y-4266234D01*
X606552Y-4267606D01*
X615086Y-4272483D01*
X623671Y-4275886D01*
X623671Y-4226356D01*
X614883Y-4226356D01*
X610870Y-4225544D01*
X607517Y-4223207D01*
X605383Y-4219702D01*
X604723Y-4215688D01*
X605485Y-4199991D01*
X604723Y-4184294D01*
X605383Y-4180281D01*
X607517Y-4176776D01*
X610870Y-4174439D01*
X614883Y-4173626D01*
X623671Y-4173626D01*
X623671Y-4124096D01*
X615086Y-4127500D01*
X606552Y-4132376D01*
X602335Y-4133748D01*
X597966Y-4133138D01*
X594258Y-4130751D01*
X591921Y-4126992D01*
X590346Y-4122521D01*
X586892Y-4115155D01*
X586282Y-4112615D01*
X584758Y-4110532D01*
X581964Y-4104487D01*
X571906Y-4087368D01*
X560222Y-4071315D01*
X554024Y-4064304D01*
X552094Y-4061155D01*
X551434Y-4057548D01*
X551434Y-4048556D01*
X542544Y-4048556D01*
X538835Y-4047845D01*
X535635Y-4045813D01*
X532536Y-4042918D01*
X516737Y-4030878D01*
X499872Y-4020413D01*
X489204Y-4015130D01*
X487426Y-4013708D01*
X484733Y-4012946D01*
X482092Y-4011574D01*
X472744Y-4008069D01*
X469087Y-4005681D01*
X466801Y-4001973D01*
X466242Y-3997655D01*
X467563Y-3993489D01*
X472490Y-3984904D01*
X475894Y-3976319D01*
X426364Y-3976319D01*
X426364Y-3985158D01*
X425500Y-3989222D01*
X423113Y-3992626D01*
X419557Y-3994759D01*
X415442Y-3995318D01*
X404977Y-3994556D01*
X384098Y-3995115D01*
X380085Y-3994404D01*
X376732Y-3992219D01*
X374446Y-3988917D01*
X373634Y-3984955D01*
X373634Y-3976319D01*
X324104Y-3976319D01*
X327507Y-3984904D01*
X332333Y-3993286D01*
X333603Y-3997299D01*
X333146Y-4001515D01*
X331012Y-4005173D01*
X327558Y-4007662D01*
X314807Y-4013200D01*
X312318Y-4013708D01*
X308914Y-4015790D01*
X291592Y-4025442D01*
X275234Y-4036720D01*
X264058Y-4046169D01*
X260959Y-4047947D01*
X257505Y-4048556D01*
X248564Y-4048556D01*
X248564Y-4057192D01*
X247954Y-4060596D01*
X246329Y-4063542D01*
X233730Y-4079189D01*
X222859Y-4095800D01*
X214985Y-4110786D01*
X213563Y-4112463D01*
X213106Y-4114647D01*
X207924Y-4127449D01*
X205486Y-4131005D01*
X201828Y-4133189D01*
X197510Y-4133697D01*
X193446Y-4132376D01*
X184912Y-4127500D01*
X176326Y-4124096D01*
X176326Y-4173626D01*
X185166Y-4173626D01*
X189280Y-4174490D01*
X192684Y-4176979D01*
X194767Y-4180586D01*
X195275Y-4184802D01*
X194767Y-4190085D01*
X194767Y-4209897D01*
X195275Y-4215180D01*
X194767Y-4219397D01*
X192684Y-4223004D01*
X189280Y-4225493D01*
X185166Y-4226356D01*
X176326Y-4226356D01*
X176326Y-4275886D01*
X184912Y-4272483D01*
X193446Y-4267606D01*
X197510Y-4266285D01*
X201828Y-4266793D01*
X205486Y-4268978D01*
X207924Y-4272534D01*
X213106Y-4285335D01*
X213563Y-4287520D01*
X214985Y-4289196D01*
X222859Y-4304182D01*
X233730Y-4320794D01*
X246329Y-4336440D01*
X247954Y-4339386D01*
X248564Y-4342790D01*
X248564Y-4351426D01*
X257505Y-4351426D01*
X260959Y-4352036D01*
X264058Y-4353814D01*
X275234Y-4363262D01*
X291592Y-4374540D01*
X308914Y-4384192D01*
X312318Y-4386275D01*
X314807Y-4386783D01*
X327558Y-4392320D01*
X331012Y-4394809D01*
X333146Y-4398467D01*
X333603Y-4402683D01*
X332333Y-4406696D01*
X327507Y-4415078D01*
G37*
G36*
X604164Y-4351426D02*
G01*
X653694Y-4351426D01*
X650290Y-4342892D01*
X644296Y-4332478D01*
X636778Y-4323029D01*
X627989Y-4314850D01*
X618032Y-4308094D01*
X607212Y-4302861D01*
X604164Y-4301947D01*
G37*
G36*
X146304Y-4351426D02*
G01*
X195834Y-4351426D01*
X195834Y-4301947D01*
X192786Y-4302861D01*
X181965Y-4308094D01*
X172008Y-4314850D01*
X163220Y-4323029D01*
X155702Y-4332478D01*
X149707Y-4342892D01*
G37*
G36*
X6846316Y-4351426D02*
G01*
X6895846Y-4351426D01*
X6895846Y-4301947D01*
X6892798Y-4302861D01*
X6881926Y-4308094D01*
X6872020Y-4314850D01*
X6863181Y-4323029D01*
X6855714Y-4332478D01*
X6849668Y-4342892D01*
G37*
G36*
X7304125Y-4351426D02*
G01*
X7353655Y-4351426D01*
X7350302Y-4342892D01*
X7344257Y-4332478D01*
X7336790Y-4323029D01*
X7327950Y-4314850D01*
X7318044Y-4308094D01*
X7307173Y-4302861D01*
X7304125Y-4301947D01*
G37*
G36*
X676351Y-4275886D02*
G01*
X684936Y-4272483D01*
X695350Y-4266488D01*
X704748Y-4258970D01*
X712927Y-4250182D01*
X719683Y-4240225D01*
X724916Y-4229404D01*
X725881Y-4226356D01*
X676351Y-4226356D01*
G37*
G36*
X123647Y-4275886D02*
G01*
X123647Y-4226356D01*
X74117Y-4226356D01*
X75082Y-4229404D01*
X80314Y-4240225D01*
X87071Y-4250182D01*
X95250Y-4258970D01*
X104648Y-4266488D01*
X115062Y-4272483D01*
G37*
G36*
X6823659Y-4275886D02*
G01*
X6823659Y-4226356D01*
X6774129Y-4226356D01*
X6775094Y-4229404D01*
X6780275Y-4240225D01*
X6787083Y-4250182D01*
X6795262Y-4258970D01*
X6804659Y-4266488D01*
X6815074Y-4272483D01*
G37*
G36*
X7376312Y-4275886D02*
G01*
X7384897Y-4272483D01*
X7395311Y-4266488D01*
X7404709Y-4258970D01*
X7412888Y-4250182D01*
X7419695Y-4240225D01*
X7424877Y-4229404D01*
X7425842Y-4226356D01*
X7376312Y-4226356D01*
G37*
G36*
X676351Y-4173626D02*
G01*
X725881Y-4173626D01*
X724916Y-4170578D01*
X719683Y-4159758D01*
X712927Y-4149801D01*
X704748Y-4141012D01*
X695350Y-4133494D01*
X684936Y-4127500D01*
X676351Y-4124096D01*
G37*
G36*
X6774129Y-4173626D02*
G01*
X6823659Y-4173626D01*
X6823659Y-4124096D01*
X6815074Y-4127500D01*
X6804659Y-4133494D01*
X6795262Y-4141012D01*
X6787083Y-4149801D01*
X6780275Y-4159758D01*
X6775094Y-4170578D01*
G37*
G36*
X7376312Y-4173626D02*
G01*
X7425842Y-4173626D01*
X7424877Y-4170578D01*
X7419695Y-4159758D01*
X7412888Y-4149801D01*
X7404709Y-4141012D01*
X7395311Y-4133494D01*
X7384897Y-4127500D01*
X7376312Y-4124096D01*
G37*
G36*
X74117Y-4173626D02*
G01*
X123647Y-4173626D01*
X123647Y-4124096D01*
X115062Y-4127500D01*
X104648Y-4133494D01*
X95250Y-4141012D01*
X87071Y-4149801D01*
X80314Y-4159758D01*
X75082Y-4170578D01*
G37*
G36*
X2179116Y-4124096D02*
G01*
X2192274Y-4124096D01*
X2200706Y-4123283D01*
X2208276Y-4120997D01*
X2215286Y-4117238D01*
X2221382Y-4112209D01*
X2226411Y-4106062D01*
X2230170Y-4099102D01*
X2232456Y-4091482D01*
X2233320Y-4083100D01*
X2233320Y-4067454D01*
X2179116Y-4067454D01*
G37*
G36*
X604164Y-4098036D02*
G01*
X607212Y-4097121D01*
X618032Y-4091889D01*
X627989Y-4085132D01*
X636778Y-4076954D01*
X644296Y-4067505D01*
X650290Y-4057091D01*
X653694Y-4048556D01*
X604164Y-4048556D01*
G37*
G36*
X195834Y-4098036D02*
G01*
X195834Y-4048556D01*
X146304Y-4048556D01*
X149707Y-4057091D01*
X155702Y-4067505D01*
X163220Y-4076954D01*
X172008Y-4085132D01*
X181965Y-4091889D01*
X192786Y-4097121D01*
G37*
G36*
X6895846Y-4098036D02*
G01*
X6895846Y-4048556D01*
X6846316Y-4048556D01*
X6849668Y-4057091D01*
X6855714Y-4067505D01*
X6863181Y-4076954D01*
X6872020Y-4085132D01*
X6881926Y-4091889D01*
X6892798Y-4097121D01*
G37*
G36*
X7304125Y-4098036D02*
G01*
X7307173Y-4097121D01*
X7318044Y-4091889D01*
X7327950Y-4085132D01*
X7336790Y-4076954D01*
X7344257Y-4067505D01*
X7350302Y-4057091D01*
X7353655Y-4048556D01*
X7304125Y-4048556D01*
G37*
G36*
X5998870Y-4060850D02*
G01*
X5998870Y-3996029D01*
X5934202Y-3996029D01*
X5935726Y-4000042D01*
X5942736Y-4013149D01*
X5951321Y-4025239D01*
X5961329Y-4036212D01*
X5972606Y-4045864D01*
X5984951Y-4054043D01*
G37*
G36*
X6091529Y-4060647D02*
G01*
X6098895Y-4057548D01*
X6111748Y-4050131D01*
X6123584Y-4041190D01*
X6134252Y-4030878D01*
X6143548Y-4019296D01*
X6151372Y-4006697D01*
X6156248Y-3996029D01*
X6091529Y-3996029D01*
G37*
G36*
X2179116Y-4009745D02*
G01*
X2233320Y-4009745D01*
X2233320Y-3994099D01*
X2232456Y-3985717D01*
X2230170Y-3978097D01*
X2226411Y-3971137D01*
X2221382Y-3964990D01*
X2215286Y-3959961D01*
X2208276Y-3956202D01*
X2200706Y-3953916D01*
X2192274Y-3953103D01*
X2179116Y-3953103D01*
G37*
G36*
X604164Y-3995826D02*
G01*
X653694Y-3995826D01*
X650290Y-3987292D01*
X644296Y-3976878D01*
X636778Y-3967429D01*
X627989Y-3959250D01*
X618032Y-3952494D01*
X607212Y-3947261D01*
X604164Y-3946347D01*
G37*
G36*
X501904Y-3995826D02*
G01*
X551434Y-3995826D01*
X551434Y-3946347D01*
X548386Y-3947261D01*
X537565Y-3952494D01*
X527608Y-3959250D01*
X518820Y-3967429D01*
X511301Y-3976878D01*
X505307Y-3987292D01*
G37*
G36*
X248564Y-3995826D02*
G01*
X298094Y-3995826D01*
X294690Y-3987292D01*
X288696Y-3976878D01*
X281178Y-3967429D01*
X272389Y-3959250D01*
X262432Y-3952494D01*
X251612Y-3947261D01*
X248564Y-3946347D01*
G37*
G36*
X146304Y-3995826D02*
G01*
X195834Y-3995826D01*
X195834Y-3946347D01*
X192786Y-3947261D01*
X181965Y-3952494D01*
X172008Y-3959250D01*
X163220Y-3967429D01*
X155702Y-3976878D01*
X149707Y-3987292D01*
G37*
G36*
X7304125Y-3995826D02*
G01*
X7353655Y-3995826D01*
X7350302Y-3987292D01*
X7344257Y-3976878D01*
X7336790Y-3967429D01*
X7327950Y-3959250D01*
X7318044Y-3952494D01*
X7307173Y-3947261D01*
X7304125Y-3946347D01*
G37*
G36*
X6846316Y-3995826D02*
G01*
X6895846Y-3995826D01*
X6895846Y-3946347D01*
X6892798Y-3947261D01*
X6881926Y-3952494D01*
X6872020Y-3959250D01*
X6863181Y-3967429D01*
X6855714Y-3976878D01*
X6849668Y-3987292D01*
G37*
G36*
X6948525Y-3995826D02*
G01*
X6998055Y-3995826D01*
X6994702Y-3987292D01*
X6988657Y-3976878D01*
X6981190Y-3967429D01*
X6972350Y-3959250D01*
X6962444Y-3952494D01*
X6951573Y-3947261D01*
X6948525Y-3946347D01*
G37*
G36*
X7201916Y-3995826D02*
G01*
X7251446Y-3995826D01*
X7251446Y-3946347D01*
X7248398Y-3947261D01*
X7237526Y-3952494D01*
X7227620Y-3959250D01*
X7218781Y-3967429D01*
X7211314Y-3976878D01*
X7205268Y-3987292D01*
G37*
G36*
X426364Y-3923639D02*
G01*
X475894Y-3923639D01*
X472490Y-3915054D01*
X466496Y-3904640D01*
X458978Y-3895242D01*
X450189Y-3887063D01*
X440232Y-3880307D01*
X429412Y-3875074D01*
X426364Y-3874109D01*
G37*
G36*
X324104Y-3923639D02*
G01*
X373634Y-3923639D01*
X373634Y-3874109D01*
X370586Y-3875074D01*
X359765Y-3880307D01*
X349808Y-3887063D01*
X341020Y-3895242D01*
X333502Y-3904640D01*
X327507Y-3915054D01*
G37*
G36*
X7126325Y-3923639D02*
G01*
X7175855Y-3923639D01*
X7172502Y-3915054D01*
X7166457Y-3904640D01*
X7158990Y-3895242D01*
X7150150Y-3887063D01*
X7140244Y-3880307D01*
X7129373Y-3875074D01*
X7126325Y-3874109D01*
G37*
G36*
X7024116Y-3923639D02*
G01*
X7073646Y-3923639D01*
X7073646Y-3874109D01*
X7070598Y-3875074D01*
X7059726Y-3880307D01*
X7049820Y-3887063D01*
X7040981Y-3895242D01*
X7033514Y-3904640D01*
X7027468Y-3915054D01*
G37*
G36*
X6091529Y-3903370D02*
G01*
X6156248Y-3903370D01*
X6151372Y-3892702D01*
X6143548Y-3880104D01*
X6134252Y-3868521D01*
X6123584Y-3858209D01*
X6111748Y-3849268D01*
X6098895Y-3841851D01*
X6091529Y-3838752D01*
G37*
G36*
X5934202Y-3903370D02*
G01*
X5998870Y-3903370D01*
X5998870Y-3838549D01*
X5984951Y-3845356D01*
X5972606Y-3853535D01*
X5961329Y-3863187D01*
X5951321Y-3874160D01*
X5942736Y-3886250D01*
X5935726Y-3899357D01*
G37*
G36*
X920191Y-3534105D02*
G01*
X924763Y-3532174D01*
X938580Y-3524554D01*
X951433Y-3515461D01*
X963168Y-3504946D01*
X973683Y-3493211D01*
X982776Y-3480358D01*
X990396Y-3466541D01*
X996442Y-3452012D01*
X1000810Y-3436874D01*
X1003452Y-3421329D01*
X1004265Y-3406952D01*
X920191Y-3406952D01*
G37*
G36*
X807466Y-3534105D02*
G01*
X807466Y-3406952D01*
X723392Y-3406952D01*
X724204Y-3421329D01*
X726846Y-3436874D01*
X731215Y-3452012D01*
X737260Y-3466541D01*
X744880Y-3480358D01*
X753973Y-3493211D01*
X764489Y-3504946D01*
X776224Y-3515461D01*
X789076Y-3524554D01*
X802894Y-3532174D01*
G37*
G36*
X2468270Y-3349650D02*
G01*
X2468270Y-3284829D01*
X2403602Y-3284829D01*
X2405126Y-3288842D01*
X2412136Y-3301949D01*
X2420721Y-3314039D01*
X2430729Y-3325012D01*
X2442006Y-3334664D01*
X2454351Y-3342843D01*
G37*
G36*
X2560929Y-3349447D02*
G01*
X2568295Y-3346348D01*
X2581148Y-3338931D01*
X2592984Y-3329990D01*
X2603652Y-3319678D01*
X2612948Y-3308096D01*
X2620772Y-3295497D01*
X2625648Y-3284829D01*
X2560929Y-3284829D01*
G37*
G36*
X3101848Y-3324351D02*
G01*
X3103880Y-3323590D01*
X3118053Y-3316122D01*
X3131312Y-3307079D01*
X3143402Y-3296564D01*
X3154273Y-3284728D01*
X3163671Y-3271774D01*
X3171596Y-3257803D01*
X3173984Y-3252165D01*
X3101848Y-3252165D01*
G37*
G36*
X5011826Y-3324351D02*
G01*
X5013858Y-3323590D01*
X5028031Y-3316122D01*
X5041290Y-3307079D01*
X5053431Y-3296564D01*
X5064252Y-3284728D01*
X5073700Y-3271774D01*
X5081574Y-3257803D01*
X5083962Y-3252165D01*
X5011826Y-3252165D01*
G37*
G36*
X2989173Y-3324250D02*
G01*
X2989173Y-3252165D01*
X2916885Y-3252165D01*
X2923184Y-3264865D01*
X2931820Y-3278378D01*
X2941980Y-3290824D01*
X2953512Y-3302000D01*
X2966212Y-3311753D01*
X2979928Y-3320034D01*
G37*
G36*
X4899152Y-3324250D02*
G01*
X4899152Y-3252165D01*
X4826914Y-3252165D01*
X4833162Y-3264865D01*
X4841849Y-3278378D01*
X4852009Y-3290824D01*
X4863490Y-3302000D01*
X4876190Y-3311753D01*
X4889957Y-3320034D01*
G37*
G36*
X5557316Y-3260496D02*
G01*
X5570474Y-3260496D01*
X5578906Y-3259683D01*
X5586476Y-3257397D01*
X5593486Y-3253638D01*
X5599582Y-3248609D01*
X5604611Y-3242462D01*
X5608370Y-3235502D01*
X5610656Y-3227882D01*
X5611520Y-3219500D01*
X5611520Y-3203854D01*
X5557316Y-3203854D01*
G37*
G36*
X6139484Y-3216452D02*
G01*
X6154115Y-3216452D01*
X6168644Y-3214624D01*
X6182868Y-3210966D01*
X6196482Y-3205581D01*
X6209334Y-3198520D01*
X6221171Y-3189884D01*
X6231839Y-3179876D01*
X6241186Y-3168599D01*
X6249060Y-3156204D01*
X6255308Y-3142945D01*
X6259830Y-3129026D01*
X6262573Y-3114598D01*
X6263487Y-3100019D01*
X6262573Y-3085388D01*
X6259830Y-3070961D01*
X6255308Y-3057042D01*
X6249060Y-3043783D01*
X6241186Y-3031388D01*
X6231839Y-3020110D01*
X6221171Y-3010103D01*
X6209334Y-3001467D01*
X6196482Y-2994406D01*
X6182868Y-2989021D01*
X6168644Y-2985363D01*
X6154115Y-2983534D01*
X6139484Y-2983534D01*
X6124956Y-2985363D01*
X6110732Y-2989021D01*
X6097117Y-2994406D01*
X6084265Y-3001467D01*
X6072428Y-3010103D01*
X6061760Y-3020110D01*
X6052413Y-3031388D01*
X6044539Y-3043783D01*
X6038291Y-3057042D01*
X6033770Y-3070961D01*
X6031026Y-3085388D01*
X6030112Y-3100019D01*
X6031026Y-3114598D01*
X6033770Y-3129026D01*
X6038291Y-3142945D01*
X6044539Y-3156204D01*
X6052413Y-3168599D01*
X6061760Y-3179876D01*
X6072428Y-3189884D01*
X6084265Y-3198520D01*
X6097117Y-3205581D01*
X6110732Y-3210966D01*
X6124956Y-3214624D01*
G37*
G36*
X6864350Y-3207664D02*
G01*
X6864350Y-3144469D01*
X6801002Y-3144469D01*
X6806539Y-3156204D01*
X6814413Y-3168599D01*
X6823760Y-3179876D01*
X6834428Y-3189884D01*
X6846265Y-3198520D01*
X6859117Y-3205581D01*
G37*
G36*
X6953250Y-3207664D02*
G01*
X6958482Y-3205581D01*
X6971334Y-3198520D01*
X6983171Y-3189884D01*
X6993839Y-3179876D01*
X7003186Y-3168599D01*
X7011060Y-3156204D01*
X7016597Y-3144469D01*
X6953250Y-3144469D01*
G37*
G36*
X2560929Y-3192170D02*
G01*
X2625648Y-3192170D01*
X2620772Y-3181502D01*
X2612948Y-3168904D01*
X2603652Y-3157321D01*
X2592984Y-3147009D01*
X2581148Y-3138068D01*
X2568295Y-3130651D01*
X2560929Y-3127552D01*
G37*
G36*
X2403602Y-3192170D02*
G01*
X2468270Y-3192170D01*
X2468270Y-3127349D01*
X2454351Y-3134156D01*
X2442006Y-3142335D01*
X2430729Y-3151987D01*
X2420721Y-3162960D01*
X2412136Y-3175050D01*
X2405126Y-3188157D01*
G37*
G36*
X920191Y-3184245D02*
G01*
X1004265Y-3184245D01*
X1003452Y-3169869D01*
X1000810Y-3154324D01*
X996442Y-3139186D01*
X990396Y-3124657D01*
X982776Y-3110839D01*
X973683Y-3097987D01*
X963168Y-3086252D01*
X951433Y-3075736D01*
X938580Y-3066643D01*
X924763Y-3059023D01*
X920191Y-3057093D01*
G37*
G36*
X723392Y-3184245D02*
G01*
X807466Y-3184245D01*
X807466Y-3057093D01*
X802894Y-3059023D01*
X789076Y-3066643D01*
X776224Y-3075736D01*
X764489Y-3086252D01*
X753973Y-3097987D01*
X744880Y-3110839D01*
X737260Y-3124657D01*
X731215Y-3139186D01*
X726846Y-3154324D01*
X724204Y-3169869D01*
G37*
G36*
X5557316Y-3146145D02*
G01*
X5611520Y-3146145D01*
X5611520Y-3130499D01*
X5610656Y-3122117D01*
X5608370Y-3114497D01*
X5604611Y-3107537D01*
X5599582Y-3101390D01*
X5593486Y-3096361D01*
X5586476Y-3092602D01*
X5578906Y-3090316D01*
X5570474Y-3089503D01*
X5557316Y-3089503D01*
G37*
G36*
X3101848Y-3139440D02*
G01*
X3173984Y-3139440D01*
X3171596Y-3133801D01*
X3163671Y-3119831D01*
X3154273Y-3106877D01*
X3143402Y-3095040D01*
X3131312Y-3084525D01*
X3120542Y-3077210D01*
X3117799Y-3074416D01*
X3116326Y-3070758D01*
X3116326Y-3066846D01*
X3117799Y-3063189D01*
X3120542Y-3060395D01*
X3131312Y-3053080D01*
X3143402Y-3042564D01*
X3154273Y-3030728D01*
X3163671Y-3017774D01*
X3171596Y-3003804D01*
X3173984Y-2998165D01*
X3101848Y-2998165D01*
G37*
G36*
X5011826Y-3139440D02*
G01*
X5083962Y-3139440D01*
X5081574Y-3133801D01*
X5073700Y-3119831D01*
X5064252Y-3106877D01*
X5053431Y-3095040D01*
X5041290Y-3084525D01*
X5030520Y-3077210D01*
X5027777Y-3074416D01*
X5026304Y-3070758D01*
X5026304Y-3066846D01*
X5027777Y-3063189D01*
X5030520Y-3060395D01*
X5041290Y-3053080D01*
X5053431Y-3042564D01*
X5064252Y-3030728D01*
X5073700Y-3017774D01*
X5081574Y-3003804D01*
X5083962Y-2998165D01*
X5011826Y-2998165D01*
G37*
G36*
X4826914Y-3139440D02*
G01*
X4899152Y-3139440D01*
X4899152Y-2998165D01*
X4826914Y-2998165D01*
X4833162Y-3010865D01*
X4841849Y-3024378D01*
X4852009Y-3036824D01*
X4863490Y-3048000D01*
X4876190Y-3057753D01*
X4880051Y-3060090D01*
X4883099Y-3062935D01*
X4884775Y-3066745D01*
X4884775Y-3070860D01*
X4883099Y-3074670D01*
X4880051Y-3077514D01*
X4876190Y-3079851D01*
X4863490Y-3089605D01*
X4852009Y-3100781D01*
X4841849Y-3113227D01*
X4833162Y-3126740D01*
G37*
G36*
X2916885Y-3139440D02*
G01*
X2989173Y-3139440D01*
X2989173Y-2998165D01*
X2916885Y-2998165D01*
X2923184Y-3010865D01*
X2931820Y-3024378D01*
X2941980Y-3036824D01*
X2953512Y-3048000D01*
X2966212Y-3057753D01*
X2970072Y-3060090D01*
X2973120Y-3062935D01*
X2974746Y-3066745D01*
X2974746Y-3070860D01*
X2973120Y-3074670D01*
X2970072Y-3077514D01*
X2966212Y-3079851D01*
X2953512Y-3089605D01*
X2941980Y-3100781D01*
X2931820Y-3113227D01*
X2923184Y-3126740D01*
G37*
G36*
X6953250Y-3055569D02*
G01*
X7016597Y-3055569D01*
X7011060Y-3043783D01*
X7003186Y-3031388D01*
X6993839Y-3020110D01*
X6983171Y-3010103D01*
X6971334Y-3001467D01*
X6958482Y-2994406D01*
X6953250Y-2992323D01*
G37*
G36*
X3101848Y-2885440D02*
G01*
X3173984Y-2885440D01*
X3171596Y-2879801D01*
X3163671Y-2865831D01*
X3154273Y-2852877D01*
X3143402Y-2841040D01*
X3131312Y-2830525D01*
X3118053Y-2821482D01*
X3103880Y-2814015D01*
X3101848Y-2813253D01*
G37*
G36*
X5011826Y-2885440D02*
G01*
X5083962Y-2885440D01*
X5081574Y-2879801D01*
X5073700Y-2865831D01*
X5064252Y-2852877D01*
X5053431Y-2841040D01*
X5041290Y-2830525D01*
X5028031Y-2821482D01*
X5013858Y-2814015D01*
X5011826Y-2813253D01*
G37*
G36*
X4826914Y-2885440D02*
G01*
X4899152Y-2885440D01*
X4899152Y-2813354D01*
X4889957Y-2817571D01*
X4876190Y-2825851D01*
X4863490Y-2835605D01*
X4852009Y-2846832D01*
X4841849Y-2859227D01*
X4833162Y-2872740D01*
G37*
G36*
X2916885Y-2885440D02*
G01*
X2989173Y-2885440D01*
X2989173Y-2813354D01*
X2979928Y-2817571D01*
X2966212Y-2825851D01*
X2953512Y-2835605D01*
X2941980Y-2846832D01*
X2931820Y-2859227D01*
X2923184Y-2872740D01*
G37*
G36*
X368808Y-2732887D02*
G01*
X400050Y-2732887D01*
X400050Y-2660650D01*
X327812Y-2660650D01*
X327812Y-2691892D01*
X328625Y-2700274D01*
X330911Y-2707894D01*
X334670Y-2714853D01*
X339699Y-2721000D01*
X345846Y-2726029D01*
X352806Y-2729788D01*
X360426Y-2732074D01*
G37*
G36*
X488950Y-2732887D02*
G01*
X520192Y-2732887D01*
X528574Y-2732074D01*
X536194Y-2729788D01*
X543153Y-2726029D01*
X549300Y-2721000D01*
X554329Y-2714853D01*
X558088Y-2707894D01*
X560374Y-2700274D01*
X561187Y-2691892D01*
X561187Y-2660650D01*
X488950Y-2660650D01*
G37*
G36*
X5545429Y-2606395D02*
G01*
X5578602Y-2606395D01*
X5586984Y-2605582D01*
X5594553Y-2603296D01*
X5601563Y-2599537D01*
X5607710Y-2594508D01*
X5612739Y-2588361D01*
X5616448Y-2581402D01*
X5618784Y-2573782D01*
X5619597Y-2565400D01*
X5619597Y-2532227D01*
X5545429Y-2532227D01*
G37*
G36*
X5419598Y-2606395D02*
G01*
X5452719Y-2606395D01*
X5452719Y-2532227D01*
X5378602Y-2532227D01*
X5378602Y-2565400D01*
X5379415Y-2573782D01*
X5381701Y-2581402D01*
X5385460Y-2588361D01*
X5390489Y-2594508D01*
X5396636Y-2599537D01*
X5403596Y-2603296D01*
X5411216Y-2605582D01*
G37*
G36*
X4021429Y-2597048D02*
G01*
X4035348Y-2590241D01*
X4047693Y-2582062D01*
X4058970Y-2572410D01*
X4068978Y-2561437D01*
X4077512Y-2549347D01*
X4084574Y-2536240D01*
X4086098Y-2532227D01*
X4021429Y-2532227D01*
G37*
G36*
X3928719Y-2596845D02*
G01*
X3928719Y-2532227D01*
X3864051Y-2532227D01*
X3868928Y-2542895D01*
X3876751Y-2555494D01*
X3886047Y-2567076D01*
X3896715Y-2577388D01*
X3908551Y-2586329D01*
X3921404Y-2593746D01*
G37*
G36*
X327812Y-2571750D02*
G01*
X400050Y-2571750D01*
X400050Y-2499512D01*
X368808Y-2499512D01*
X360426Y-2500325D01*
X352806Y-2502611D01*
X345846Y-2506370D01*
X339699Y-2511399D01*
X334670Y-2517546D01*
X330911Y-2524506D01*
X328625Y-2532126D01*
X327812Y-2540508D01*
G37*
G36*
X6953250Y-2557627D02*
G01*
X6958482Y-2555595D01*
X6971334Y-2548534D01*
X6983171Y-2539898D01*
X6993839Y-2529890D01*
X7003186Y-2518562D01*
X7011060Y-2506218D01*
X7016597Y-2494432D01*
X6953250Y-2494432D01*
G37*
G36*
X3864051Y-2439568D02*
G01*
X3928719Y-2439568D01*
X3928719Y-2374900D01*
X3921404Y-2378049D01*
X3908551Y-2385466D01*
X3896715Y-2394407D01*
X3886047Y-2404719D01*
X3876751Y-2416302D01*
X3868928Y-2428900D01*
G37*
G36*
X4021429Y-2439568D02*
G01*
X4086098Y-2439568D01*
X4084574Y-2435555D01*
X4077512Y-2422448D01*
X4068978Y-2410358D01*
X4058970Y-2399385D01*
X4047693Y-2389733D01*
X4035348Y-2381554D01*
X4021429Y-2374696D01*
G37*
G36*
X5378602Y-2439568D02*
G01*
X5452719Y-2439568D01*
X5452719Y-2365400D01*
X5419598Y-2365400D01*
X5411216Y-2366213D01*
X5403596Y-2368499D01*
X5396636Y-2372258D01*
X5390489Y-2377287D01*
X5385460Y-2383434D01*
X5381701Y-2390394D01*
X5379415Y-2398014D01*
X5378602Y-2406396D01*
G37*
G36*
X5545429Y-2439568D02*
G01*
X5619597Y-2439568D01*
X5619597Y-2406396D01*
X5618784Y-2398014D01*
X5616448Y-2390394D01*
X5612739Y-2383434D01*
X5607710Y-2377287D01*
X5601563Y-2372258D01*
X5594553Y-2368499D01*
X5586984Y-2366213D01*
X5578602Y-2365400D01*
X5545429Y-2365400D01*
G37*
G36*
X6953250Y-2405532D02*
G01*
X7016597Y-2405532D01*
X7011060Y-2393797D01*
X7003186Y-2381402D01*
X6993839Y-2370124D01*
X6983171Y-2360066D01*
X6971334Y-2351481D01*
X6958482Y-2344420D01*
X6953250Y-2342337D01*
G37*
G36*
X6581851Y-1568145D02*
G01*
X6581851Y-1504950D01*
X6518503Y-1504950D01*
X6524040Y-1516735D01*
X6531914Y-1529080D01*
X6541262Y-1540357D01*
X6551930Y-1550416D01*
X6563766Y-1559001D01*
X6576618Y-1566062D01*
G37*
G36*
X5962650Y-1568145D02*
G01*
X5962650Y-1504950D01*
X5899302Y-1504950D01*
X5904839Y-1516735D01*
X5912713Y-1529080D01*
X5922060Y-1540357D01*
X5932728Y-1550416D01*
X5944565Y-1559001D01*
X5957417Y-1566062D01*
G37*
G36*
X6670751Y-1568145D02*
G01*
X6675983Y-1566062D01*
X6688836Y-1559001D01*
X6700672Y-1550416D01*
X6711340Y-1540357D01*
X6720687Y-1529080D01*
X6728561Y-1516735D01*
X6734098Y-1504950D01*
X6670751Y-1504950D01*
G37*
G36*
X7296150Y-1568145D02*
G01*
X7301382Y-1566062D01*
X7314234Y-1559001D01*
X7326071Y-1550416D01*
X7336739Y-1540357D01*
X7346086Y-1529080D01*
X7353960Y-1516735D01*
X7359497Y-1504950D01*
X7296150Y-1504950D01*
G37*
G36*
X7207250Y-1568145D02*
G01*
X7207250Y-1504950D01*
X7143902Y-1504950D01*
X7149439Y-1516735D01*
X7157313Y-1529080D01*
X7166660Y-1540357D01*
X7177328Y-1550416D01*
X7189165Y-1559001D01*
X7202017Y-1566062D01*
G37*
G36*
X6051550Y-1568145D02*
G01*
X6056782Y-1566062D01*
X6069634Y-1559001D01*
X6081471Y-1550416D01*
X6092139Y-1540357D01*
X6101486Y-1529080D01*
X6109360Y-1516735D01*
X6114897Y-1504950D01*
X6051550Y-1504950D01*
G37*
G36*
X240436Y-1455318D02*
G01*
X320090Y-1455318D01*
X328472Y-1454505D01*
X336092Y-1452168D01*
X343103Y-1448460D01*
X349148Y-1443431D01*
X352196Y-1441754D01*
X355600Y-1441145D01*
X359003Y-1441754D01*
X362051Y-1443431D01*
X368147Y-1448460D01*
X375107Y-1452168D01*
X382727Y-1454505D01*
X391109Y-1455318D01*
X470763Y-1455318D01*
X479145Y-1454505D01*
X486714Y-1452168D01*
X493725Y-1448460D01*
X499872Y-1443431D01*
X504901Y-1437284D01*
X508609Y-1430274D01*
X510946Y-1422704D01*
X511759Y-1414322D01*
X511759Y-1328877D01*
X510946Y-1320495D01*
X508609Y-1312926D01*
X504901Y-1305915D01*
X500329Y-1300378D01*
X499059Y-1298448D01*
X488035Y-1276146D01*
X486968Y-1271574D01*
X487019Y-1261211D01*
X487324Y-1258722D01*
X488238Y-1256436D01*
X495706Y-1242669D01*
X498297Y-1239113D01*
X504291Y-1228699D01*
X508711Y-1217523D01*
X511403Y-1205788D01*
X512267Y-1193800D01*
X511403Y-1181811D01*
X508711Y-1170076D01*
X504291Y-1158900D01*
X498297Y-1148486D01*
X490778Y-1139037D01*
X481990Y-1130858D01*
X472033Y-1124102D01*
X461213Y-1118870D01*
X453085Y-1116380D01*
X449478Y-1114399D01*
X445262Y-1114653D01*
X437794Y-1113536D01*
X425805Y-1113536D01*
X415950Y-1115009D01*
X413308Y-1114856D01*
X410514Y-1116380D01*
X402386Y-1118870D01*
X391566Y-1124102D01*
X381609Y-1130858D01*
X372821Y-1139037D01*
X365302Y-1148486D01*
X359308Y-1158900D01*
X355600Y-1168349D01*
X353415Y-1171702D01*
X350113Y-1173937D01*
X346252Y-1174750D01*
X342290Y-1174038D01*
X338988Y-1171854D01*
X336753Y-1168501D01*
X335940Y-1164590D01*
X336042Y-1113028D01*
X337108Y-1108456D01*
X347167Y-1088440D01*
X349300Y-1085545D01*
X352399Y-1083614D01*
X355904Y-1082852D01*
X359511Y-1083411D01*
X362661Y-1085189D01*
X368147Y-1089660D01*
X375107Y-1093368D01*
X382727Y-1095705D01*
X391109Y-1096518D01*
X404266Y-1096518D01*
X404266Y-1042365D01*
X371246Y-1042365D01*
X367385Y-1041552D01*
X364083Y-1039368D01*
X361899Y-1036066D01*
X361086Y-1032205D01*
X361086Y-999794D01*
X361899Y-995934D01*
X364083Y-992632D01*
X367385Y-990447D01*
X371246Y-989634D01*
X404266Y-989634D01*
X404266Y-935482D01*
X391109Y-935482D01*
X382727Y-936294D01*
X375107Y-938631D01*
X368147Y-942340D01*
X362051Y-947369D01*
X359003Y-949045D01*
X355600Y-949655D01*
X352196Y-949045D01*
X349148Y-947369D01*
X343052Y-942340D01*
X336092Y-938631D01*
X328472Y-936294D01*
X320090Y-935482D01*
X241096Y-935482D01*
X232714Y-936294D01*
X225094Y-938631D01*
X218135Y-942340D01*
X211988Y-947369D01*
X206959Y-953516D01*
X203200Y-960526D01*
X200914Y-968095D01*
X200101Y-976477D01*
X200101Y-1055522D01*
X200914Y-1063904D01*
X203200Y-1071473D01*
X206959Y-1078484D01*
X211582Y-1084122D01*
X212852Y-1086053D01*
X223977Y-1108354D01*
X225044Y-1112926D01*
X224790Y-1271371D01*
X223723Y-1275943D01*
X212902Y-1297482D01*
X211683Y-1299362D01*
X206298Y-1305915D01*
X202590Y-1312926D01*
X200253Y-1320495D01*
X199440Y-1328877D01*
X199440Y-1414322D01*
X200253Y-1422704D01*
X202590Y-1430274D01*
X206298Y-1437284D01*
X211328Y-1443431D01*
X217474Y-1448460D01*
X224485Y-1452168D01*
X232054Y-1454505D01*
G37*
G36*
X5899302Y-1416050D02*
G01*
X5962650Y-1416050D01*
X5962650Y-1352854D01*
X5957417Y-1354937D01*
X5944565Y-1361998D01*
X5932728Y-1370584D01*
X5922060Y-1380642D01*
X5912713Y-1391920D01*
X5904839Y-1404264D01*
G37*
G36*
X6518503Y-1416050D02*
G01*
X6581851Y-1416050D01*
X6581851Y-1352854D01*
X6576618Y-1354937D01*
X6563766Y-1361998D01*
X6551930Y-1370584D01*
X6541262Y-1380642D01*
X6531914Y-1391920D01*
X6524040Y-1404264D01*
G37*
G36*
X7296150Y-1416050D02*
G01*
X7359497Y-1416050D01*
X7353960Y-1404264D01*
X7346086Y-1391920D01*
X7336739Y-1380642D01*
X7326071Y-1370584D01*
X7314234Y-1361998D01*
X7301382Y-1354937D01*
X7296150Y-1352854D01*
G37*
G36*
X6670751Y-1416050D02*
G01*
X6734098Y-1416050D01*
X6728561Y-1404264D01*
X6720687Y-1391920D01*
X6711340Y-1380642D01*
X6700672Y-1370584D01*
X6688836Y-1361998D01*
X6675983Y-1354937D01*
X6670751Y-1352854D01*
G37*
G36*
X6051550Y-1416050D02*
G01*
X6114897Y-1416050D01*
X6109360Y-1404264D01*
X6101486Y-1391920D01*
X6092139Y-1380642D01*
X6081471Y-1370584D01*
X6069634Y-1361998D01*
X6056782Y-1354937D01*
X6051550Y-1352854D01*
G37*
G36*
X7143902Y-1416050D02*
G01*
X7207250Y-1416050D01*
X7207250Y-1352854D01*
X7202017Y-1354937D01*
X7189165Y-1361998D01*
X7177328Y-1370584D01*
X7166660Y-1380642D01*
X7157313Y-1391920D01*
X7149439Y-1404264D01*
G37*
G36*
X5931408Y-1323187D02*
G01*
X6082792Y-1323187D01*
X6091174Y-1322374D01*
X6098794Y-1320088D01*
X6105753Y-1316329D01*
X6111900Y-1311300D01*
X6116929Y-1305153D01*
X6120688Y-1298194D01*
X6122974Y-1290574D01*
X6123787Y-1282192D01*
X6123787Y-1275334D01*
X6124498Y-1271625D01*
X6126429Y-1268476D01*
X6129426Y-1266240D01*
X6135725Y-1263091D01*
X6140246Y-1262024D01*
X6493154Y-1262024D01*
X6497675Y-1263091D01*
X6503974Y-1266240D01*
X6506972Y-1268476D01*
X6508902Y-1271625D01*
X6509613Y-1275334D01*
X6509613Y-1282192D01*
X6510426Y-1290574D01*
X6512712Y-1298194D01*
X6516471Y-1305153D01*
X6521500Y-1311300D01*
X6527647Y-1316329D01*
X6534607Y-1320088D01*
X6542227Y-1322374D01*
X6550609Y-1323187D01*
X6701993Y-1323187D01*
X6710375Y-1322374D01*
X6717995Y-1320088D01*
X6724954Y-1316329D01*
X6731101Y-1311300D01*
X6736130Y-1305153D01*
X6739890Y-1298194D01*
X6742175Y-1290574D01*
X6742988Y-1282192D01*
X6742988Y-1275334D01*
X6743700Y-1271625D01*
X6745630Y-1268476D01*
X6748627Y-1266240D01*
X6754926Y-1263091D01*
X6759448Y-1262024D01*
X7118553Y-1262024D01*
X7123074Y-1263091D01*
X7129373Y-1266240D01*
X7132370Y-1268476D01*
X7134301Y-1271625D01*
X7135012Y-1275334D01*
X7135012Y-1282192D01*
X7135825Y-1290574D01*
X7138111Y-1298194D01*
X7141870Y-1305153D01*
X7146899Y-1311300D01*
X7153046Y-1316329D01*
X7160006Y-1320088D01*
X7167625Y-1322374D01*
X7176008Y-1323187D01*
X7327392Y-1323187D01*
X7335774Y-1322374D01*
X7343394Y-1320088D01*
X7350353Y-1316329D01*
X7356500Y-1311300D01*
X7361529Y-1305153D01*
X7365288Y-1298194D01*
X7367574Y-1290574D01*
X7368387Y-1282192D01*
X7368387Y-1130808D01*
X7367574Y-1122426D01*
X7365288Y-1114806D01*
X7361529Y-1107846D01*
X7356500Y-1101699D01*
X7350353Y-1096670D01*
X7343394Y-1092911D01*
X7335774Y-1090625D01*
X7327392Y-1089812D01*
X7176008Y-1089812D01*
X7167625Y-1090625D01*
X7160006Y-1092911D01*
X7153046Y-1096670D01*
X7146899Y-1101699D01*
X7141870Y-1107846D01*
X7138111Y-1114806D01*
X7135825Y-1122426D01*
X7135012Y-1130808D01*
X7135012Y-1137666D01*
X7134301Y-1141374D01*
X7132370Y-1144524D01*
X7129373Y-1146759D01*
X7123074Y-1149908D01*
X7118553Y-1150975D01*
X6759448Y-1150975D01*
X6754926Y-1149908D01*
X6748627Y-1146759D01*
X6745630Y-1144524D01*
X6743700Y-1141374D01*
X6742988Y-1137666D01*
X6742988Y-1130808D01*
X6742175Y-1122426D01*
X6739890Y-1114806D01*
X6736130Y-1107846D01*
X6731101Y-1101699D01*
X6724954Y-1096670D01*
X6717995Y-1092911D01*
X6710375Y-1090625D01*
X6701993Y-1089812D01*
X6550609Y-1089812D01*
X6542227Y-1090625D01*
X6534607Y-1092911D01*
X6527647Y-1096670D01*
X6521500Y-1101699D01*
X6516471Y-1107846D01*
X6512712Y-1114806D01*
X6510426Y-1122426D01*
X6509613Y-1130808D01*
X6509613Y-1137666D01*
X6508902Y-1141374D01*
X6506972Y-1144524D01*
X6503974Y-1146759D01*
X6497675Y-1149908D01*
X6493154Y-1150975D01*
X6140246Y-1150975D01*
X6135725Y-1149908D01*
X6129426Y-1146759D01*
X6126429Y-1144524D01*
X6124498Y-1141374D01*
X6123787Y-1137666D01*
X6123787Y-1130808D01*
X6122974Y-1122426D01*
X6120688Y-1114806D01*
X6116929Y-1107846D01*
X6111900Y-1101699D01*
X6105753Y-1096670D01*
X6098794Y-1092911D01*
X6091174Y-1090625D01*
X6082792Y-1089812D01*
X5931408Y-1089812D01*
X5923026Y-1090625D01*
X5915406Y-1092911D01*
X5908446Y-1096670D01*
X5902299Y-1101699D01*
X5897270Y-1107846D01*
X5893511Y-1114806D01*
X5891225Y-1122426D01*
X5890412Y-1130808D01*
X5890412Y-1282192D01*
X5891225Y-1290574D01*
X5893511Y-1298194D01*
X5897270Y-1305153D01*
X5902299Y-1311300D01*
X5908446Y-1316329D01*
X5915406Y-1320088D01*
X5923026Y-1322374D01*
G37*
G36*
X456946Y-1096518D02*
G01*
X470103Y-1096518D01*
X478485Y-1095705D01*
X486105Y-1093368D01*
X493064Y-1089660D01*
X499211Y-1084630D01*
X504240Y-1078484D01*
X508000Y-1071473D01*
X510285Y-1063904D01*
X511098Y-1055522D01*
X511098Y-1042365D01*
X456946Y-1042365D01*
G37*
G36*
X456946Y-989634D02*
G01*
X511098Y-989634D01*
X511098Y-976477D01*
X510285Y-968095D01*
X508000Y-960526D01*
X504240Y-953516D01*
X499211Y-947369D01*
X493064Y-942340D01*
X486105Y-938631D01*
X478485Y-936294D01*
X470103Y-935482D01*
X456946Y-935482D01*
G37*
G36*
X6490055Y-812088D02*
G01*
X6496507Y-812088D01*
X6504889Y-811276D01*
X6512509Y-808990D01*
X6519468Y-805230D01*
X6525615Y-800201D01*
X6530644Y-794054D01*
X6534404Y-787095D01*
X6536690Y-779475D01*
X6537502Y-771093D01*
X6537502Y-751992D01*
X6490055Y-751992D01*
G37*
G36*
X6444284Y-812088D02*
G01*
X6450736Y-812088D01*
X6450736Y-751992D01*
X6403289Y-751992D01*
X6403289Y-771093D01*
X6404102Y-779475D01*
X6406438Y-787095D01*
X6410147Y-794054D01*
X6415176Y-800201D01*
X6421323Y-805230D01*
X6428333Y-808990D01*
X6435902Y-811276D01*
G37*
G36*
X426364Y-725881D02*
G01*
X429412Y-724916D01*
X440232Y-719683D01*
X450189Y-712927D01*
X458978Y-704748D01*
X466496Y-695350D01*
X472490Y-684936D01*
X475894Y-676351D01*
X426364Y-676351D01*
G37*
G36*
X373634Y-725881D02*
G01*
X373634Y-676351D01*
X324104Y-676351D01*
X327507Y-684936D01*
X333502Y-695350D01*
X341020Y-704748D01*
X349808Y-712927D01*
X359765Y-719683D01*
X370586Y-724916D01*
G37*
G36*
X7073646Y-725881D02*
G01*
X7073646Y-676351D01*
X7024116Y-676351D01*
X7027468Y-684936D01*
X7033514Y-695350D01*
X7040981Y-704748D01*
X7049820Y-712927D01*
X7059726Y-719683D01*
X7070598Y-724916D01*
G37*
G36*
X7126325Y-725881D02*
G01*
X7129373Y-724916D01*
X7140244Y-719683D01*
X7150150Y-712927D01*
X7158990Y-704748D01*
X7166457Y-695350D01*
X7172502Y-684936D01*
X7175855Y-676351D01*
X7126325Y-676351D01*
G37*
G36*
X6490055Y-687425D02*
G01*
X6537502Y-687425D01*
X6537502Y-668324D01*
X6536690Y-659942D01*
X6534404Y-652373D01*
X6530644Y-645363D01*
X6525615Y-639216D01*
X6519468Y-634187D01*
X6512509Y-630478D01*
X6504889Y-628192D01*
X6496507Y-627329D01*
X6490055Y-627329D01*
G37*
G36*
X6403289Y-687425D02*
G01*
X6450736Y-687425D01*
X6450736Y-627329D01*
X6444284Y-627329D01*
X6435902Y-628192D01*
X6428333Y-630478D01*
X6421323Y-634187D01*
X6415176Y-639216D01*
X6410147Y-645363D01*
X6406438Y-652373D01*
X6404102Y-659942D01*
X6403289Y-668324D01*
G37*
G36*
X195834Y-653643D02*
G01*
X195834Y-604164D01*
X146304Y-604164D01*
X149707Y-612698D01*
X155702Y-623112D01*
X163220Y-632561D01*
X172008Y-640740D01*
X181965Y-647496D01*
X192786Y-652729D01*
G37*
G36*
X604164Y-653643D02*
G01*
X607212Y-652729D01*
X618032Y-647496D01*
X627989Y-640740D01*
X636778Y-632561D01*
X644296Y-623112D01*
X650290Y-612698D01*
X653694Y-604164D01*
X604164Y-604164D01*
G37*
G36*
X551434Y-653643D02*
G01*
X551434Y-604164D01*
X501904Y-604164D01*
X505307Y-612698D01*
X511301Y-623112D01*
X518820Y-632561D01*
X527608Y-640740D01*
X537565Y-647496D01*
X548386Y-652729D01*
G37*
G36*
X248564Y-653643D02*
G01*
X251612Y-652729D01*
X262432Y-647496D01*
X272389Y-640740D01*
X281178Y-632561D01*
X288696Y-623112D01*
X294690Y-612698D01*
X298094Y-604164D01*
X248564Y-604164D01*
G37*
G36*
X6948525Y-653643D02*
G01*
X6951573Y-652729D01*
X6962444Y-647496D01*
X6972350Y-640740D01*
X6981190Y-632561D01*
X6988657Y-623112D01*
X6994702Y-612698D01*
X6998055Y-604164D01*
X6948525Y-604164D01*
G37*
G36*
X7251446Y-653643D02*
G01*
X7251446Y-604164D01*
X7201916Y-604164D01*
X7205268Y-612698D01*
X7211314Y-623112D01*
X7218781Y-632561D01*
X7227620Y-640740D01*
X7237526Y-647496D01*
X7248398Y-652729D01*
G37*
G36*
X6895846Y-653643D02*
G01*
X6895846Y-604164D01*
X6846316Y-604164D01*
X6849668Y-612698D01*
X6855714Y-623112D01*
X6863181Y-632561D01*
X6872020Y-640740D01*
X6881926Y-647496D01*
X6892798Y-652729D01*
G37*
G36*
X7304125Y-653643D02*
G01*
X7307173Y-652729D01*
X7318044Y-647496D01*
X7327950Y-640740D01*
X7336790Y-632561D01*
X7344257Y-623112D01*
X7350302Y-612698D01*
X7353655Y-604164D01*
X7304125Y-604164D01*
G37*
G36*
X7024116Y-623671D02*
G01*
X7073646Y-623671D01*
X7073646Y-615035D01*
X7074458Y-611073D01*
X7076694Y-607771D01*
X7080097Y-605586D01*
X7084059Y-604875D01*
X7104989Y-605434D01*
X7115454Y-604672D01*
X7119569Y-605231D01*
X7123074Y-607364D01*
X7125512Y-610768D01*
X7126325Y-614832D01*
X7126325Y-623671D01*
X7175855Y-623671D01*
X7172502Y-615086D01*
X7167524Y-606501D01*
X7166203Y-602335D01*
X7166762Y-598017D01*
X7169099Y-594309D01*
X7172756Y-591921D01*
X7182053Y-588416D01*
X7184745Y-587095D01*
X7187438Y-586282D01*
X7189165Y-584860D01*
X7199833Y-579577D01*
X7216698Y-569112D01*
X7232497Y-557072D01*
X7235596Y-554177D01*
X7238796Y-552145D01*
X7242505Y-551434D01*
X7251446Y-551434D01*
X7251446Y-542442D01*
X7252106Y-538835D01*
X7253986Y-535686D01*
X7260183Y-528675D01*
X7271867Y-512622D01*
X7281925Y-495503D01*
X7284770Y-489458D01*
X7286244Y-487375D01*
X7286904Y-484835D01*
X7290308Y-477469D01*
X7291882Y-472998D01*
X7294219Y-469239D01*
X7297928Y-466851D01*
X7302347Y-466242D01*
X7306564Y-467614D01*
X7315047Y-472490D01*
X7323632Y-475894D01*
X7323632Y-426364D01*
X7314895Y-426364D01*
X7310881Y-425551D01*
X7307529Y-423214D01*
X7305344Y-419709D01*
X7304735Y-415696D01*
X7305497Y-399999D01*
X7304735Y-384302D01*
X7305344Y-380288D01*
X7307529Y-376783D01*
X7310881Y-374446D01*
X7314895Y-373634D01*
X7323632Y-373634D01*
X7323632Y-324104D01*
X7315047Y-327507D01*
X7306564Y-332384D01*
X7302347Y-333756D01*
X7297928Y-333146D01*
X7294219Y-330758D01*
X7291882Y-326999D01*
X7290308Y-322529D01*
X7286904Y-315163D01*
X7286244Y-312623D01*
X7284770Y-310540D01*
X7281925Y-304495D01*
X7271867Y-287375D01*
X7260183Y-271322D01*
X7253986Y-264312D01*
X7252106Y-261162D01*
X7251446Y-257556D01*
X7251446Y-248564D01*
X7242505Y-248564D01*
X7238796Y-247853D01*
X7235596Y-245821D01*
X7232497Y-242925D01*
X7216698Y-230886D01*
X7199833Y-220421D01*
X7189165Y-215138D01*
X7187438Y-213715D01*
X7184745Y-212953D01*
X7182053Y-211582D01*
X7172756Y-208076D01*
X7169099Y-205689D01*
X7166762Y-201980D01*
X7166203Y-197662D01*
X7167524Y-193497D01*
X7172502Y-184912D01*
X7175855Y-176326D01*
X7126325Y-176326D01*
X7126325Y-185166D01*
X7125512Y-189230D01*
X7123074Y-192633D01*
X7119569Y-194767D01*
X7115454Y-195326D01*
X7104989Y-194564D01*
X7084059Y-195122D01*
X7080097Y-194411D01*
X7076694Y-192227D01*
X7074458Y-188925D01*
X7073646Y-184962D01*
X7073646Y-176326D01*
X7024116Y-176326D01*
X7027468Y-184912D01*
X7032294Y-193294D01*
X7033615Y-197307D01*
X7033158Y-201523D01*
X7031024Y-205181D01*
X7027570Y-207670D01*
X7014819Y-213207D01*
X7012330Y-213715D01*
X7008926Y-215798D01*
X6991553Y-225450D01*
X6975195Y-236728D01*
X6964019Y-246176D01*
X6960971Y-247954D01*
X6957466Y-248564D01*
X6948525Y-248564D01*
X6948525Y-257200D01*
X6947966Y-260604D01*
X6946290Y-263550D01*
X6933742Y-279196D01*
X6922871Y-295808D01*
X6914997Y-310794D01*
X6913575Y-312470D01*
X6913118Y-314655D01*
X6907936Y-327456D01*
X6905498Y-331012D01*
X6901789Y-333197D01*
X6897522Y-333705D01*
X6893407Y-332384D01*
X6884924Y-327507D01*
X6876338Y-324104D01*
X6876338Y-373634D01*
X6885127Y-373634D01*
X6889242Y-374497D01*
X6892645Y-376986D01*
X6894779Y-380593D01*
X6895236Y-384810D01*
X6894728Y-390093D01*
X6894728Y-409905D01*
X6895236Y-415188D01*
X6894779Y-419404D01*
X6892645Y-423011D01*
X6889242Y-425500D01*
X6885127Y-426364D01*
X6876338Y-426364D01*
X6876338Y-475894D01*
X6884924Y-472490D01*
X6893407Y-467614D01*
X6897522Y-466293D01*
X6901789Y-466801D01*
X6905498Y-468985D01*
X6907936Y-472541D01*
X6913118Y-485343D01*
X6913575Y-487527D01*
X6914997Y-489204D01*
X6922871Y-504190D01*
X6933742Y-520801D01*
X6946290Y-536448D01*
X6947966Y-539394D01*
X6948525Y-542798D01*
X6948525Y-551434D01*
X6957466Y-551434D01*
X6960971Y-552043D01*
X6964019Y-553821D01*
X6975195Y-563270D01*
X6991553Y-574548D01*
X7008926Y-584200D01*
X7012330Y-586282D01*
X7014819Y-586790D01*
X7027570Y-592328D01*
X7031024Y-594817D01*
X7033158Y-598474D01*
X7033615Y-602691D01*
X7032294Y-606704D01*
X7027468Y-615086D01*
G37*
G36*
X324104Y-623671D02*
G01*
X373634Y-623671D01*
X373634Y-615035D01*
X374446Y-611073D01*
X376732Y-607771D01*
X380085Y-605586D01*
X384098Y-604875D01*
X404977Y-605434D01*
X415442Y-604672D01*
X419557Y-605231D01*
X423113Y-607364D01*
X425500Y-610768D01*
X426364Y-614832D01*
X426364Y-623671D01*
X475894Y-623671D01*
X472490Y-615086D01*
X467563Y-606501D01*
X466242Y-602335D01*
X466801Y-598017D01*
X469087Y-594309D01*
X472744Y-591921D01*
X482092Y-588416D01*
X484733Y-587095D01*
X487426Y-586282D01*
X489204Y-584860D01*
X499872Y-579577D01*
X516737Y-569112D01*
X532536Y-557072D01*
X535635Y-554177D01*
X538835Y-552145D01*
X542544Y-551434D01*
X551434Y-551434D01*
X551434Y-542442D01*
X552094Y-538835D01*
X554024Y-535686D01*
X560222Y-528675D01*
X571906Y-512622D01*
X581964Y-495503D01*
X584758Y-489458D01*
X586282Y-487375D01*
X586892Y-484835D01*
X590346Y-477469D01*
X591921Y-472998D01*
X594258Y-469239D01*
X597966Y-466851D01*
X602335Y-466242D01*
X606552Y-467614D01*
X615086Y-472490D01*
X623671Y-475894D01*
X623671Y-426364D01*
X614883Y-426364D01*
X610870Y-425551D01*
X607517Y-423214D01*
X605383Y-419709D01*
X604723Y-415696D01*
X605485Y-399999D01*
X604723Y-384302D01*
X605383Y-380288D01*
X607517Y-376783D01*
X610870Y-374446D01*
X614883Y-373634D01*
X623671Y-373634D01*
X623671Y-324104D01*
X615086Y-327507D01*
X606552Y-332384D01*
X602335Y-333756D01*
X597966Y-333146D01*
X594258Y-330758D01*
X591921Y-326999D01*
X590346Y-322529D01*
X586892Y-315163D01*
X586282Y-312623D01*
X584758Y-310540D01*
X581964Y-304495D01*
X571906Y-287375D01*
X560222Y-271322D01*
X554024Y-264312D01*
X552094Y-261162D01*
X551434Y-257556D01*
X551434Y-248564D01*
X542544Y-248564D01*
X538835Y-247853D01*
X535635Y-245821D01*
X532536Y-242925D01*
X516737Y-230886D01*
X499872Y-220421D01*
X489204Y-215138D01*
X487426Y-213715D01*
X484733Y-212953D01*
X482092Y-211582D01*
X472744Y-208076D01*
X469087Y-205689D01*
X466801Y-201980D01*
X466242Y-197662D01*
X467563Y-193497D01*
X472490Y-184912D01*
X475894Y-176326D01*
X426364Y-176326D01*
X426364Y-185166D01*
X425500Y-189230D01*
X423113Y-192633D01*
X419557Y-194767D01*
X415442Y-195326D01*
X404977Y-194564D01*
X384098Y-195122D01*
X380085Y-194411D01*
X376732Y-192227D01*
X374446Y-188925D01*
X373634Y-184962D01*
X373634Y-176326D01*
X324104Y-176326D01*
X327507Y-184912D01*
X332333Y-193294D01*
X333603Y-197307D01*
X333146Y-201523D01*
X331012Y-205181D01*
X327558Y-207670D01*
X314807Y-213207D01*
X312318Y-213715D01*
X308914Y-215798D01*
X291592Y-225450D01*
X275234Y-236728D01*
X264058Y-246176D01*
X260959Y-247954D01*
X257505Y-248564D01*
X248564Y-248564D01*
X248564Y-257200D01*
X247954Y-260604D01*
X246329Y-263550D01*
X233730Y-279196D01*
X222859Y-295808D01*
X214985Y-310794D01*
X213563Y-312470D01*
X213106Y-314655D01*
X207924Y-327456D01*
X205486Y-331012D01*
X201828Y-333197D01*
X197510Y-333705D01*
X193446Y-332384D01*
X184912Y-327507D01*
X176326Y-324104D01*
X176326Y-373634D01*
X185166Y-373634D01*
X189280Y-374497D01*
X192684Y-376986D01*
X194767Y-380593D01*
X195275Y-384810D01*
X194767Y-390093D01*
X194767Y-409905D01*
X195275Y-415188D01*
X194767Y-419404D01*
X192684Y-423011D01*
X189280Y-425500D01*
X185166Y-426364D01*
X176326Y-426364D01*
X176326Y-475894D01*
X184912Y-472490D01*
X193446Y-467614D01*
X197510Y-466293D01*
X201828Y-466801D01*
X205486Y-468985D01*
X207924Y-472541D01*
X213106Y-485343D01*
X213563Y-487527D01*
X214985Y-489204D01*
X222859Y-504190D01*
X233730Y-520801D01*
X246329Y-536448D01*
X247954Y-539394D01*
X248564Y-542798D01*
X248564Y-551434D01*
X257505Y-551434D01*
X260959Y-552043D01*
X264058Y-553821D01*
X275234Y-563270D01*
X291592Y-574548D01*
X308914Y-584200D01*
X312318Y-586282D01*
X314807Y-586790D01*
X327558Y-592328D01*
X331012Y-594817D01*
X333146Y-598474D01*
X333603Y-602691D01*
X332333Y-606704D01*
X327507Y-615086D01*
G37*
G36*
X146304Y-551434D02*
G01*
X195834Y-551434D01*
X195834Y-501954D01*
X192786Y-502869D01*
X181965Y-508101D01*
X172008Y-514858D01*
X163220Y-523036D01*
X155702Y-532485D01*
X149707Y-542899D01*
G37*
G36*
X604164Y-551434D02*
G01*
X653694Y-551434D01*
X650290Y-542899D01*
X644296Y-532485D01*
X636778Y-523036D01*
X627989Y-514858D01*
X618032Y-508101D01*
X607212Y-502869D01*
X604164Y-501954D01*
G37*
G36*
X7304125Y-551434D02*
G01*
X7353655Y-551434D01*
X7350302Y-542899D01*
X7344257Y-532485D01*
X7336790Y-523036D01*
X7327950Y-514858D01*
X7318044Y-508101D01*
X7307173Y-502869D01*
X7304125Y-501954D01*
G37*
G36*
X6846316Y-551434D02*
G01*
X6895846Y-551434D01*
X6895846Y-501954D01*
X6892798Y-502869D01*
X6881926Y-508101D01*
X6872020Y-514858D01*
X6863181Y-523036D01*
X6855714Y-532485D01*
X6849668Y-542899D01*
G37*
G36*
X123647Y-475894D02*
G01*
X123647Y-426364D01*
X74117Y-426364D01*
X75082Y-429412D01*
X80314Y-440232D01*
X87071Y-450189D01*
X95250Y-458978D01*
X104648Y-466496D01*
X115062Y-472490D01*
G37*
G36*
X6823659Y-475894D02*
G01*
X6823659Y-426364D01*
X6774129Y-426364D01*
X6775094Y-429412D01*
X6780275Y-440232D01*
X6787083Y-450189D01*
X6795262Y-458978D01*
X6804659Y-466496D01*
X6815074Y-472490D01*
G37*
G36*
X676351Y-475894D02*
G01*
X684936Y-472490D01*
X695350Y-466496D01*
X704748Y-458978D01*
X712927Y-450189D01*
X719683Y-440232D01*
X724916Y-429412D01*
X725881Y-426364D01*
X676351Y-426364D01*
G37*
G36*
X7376312Y-475894D02*
G01*
X7384897Y-472490D01*
X7395311Y-466496D01*
X7404709Y-458978D01*
X7412888Y-450189D01*
X7419695Y-440232D01*
X7424877Y-429412D01*
X7425842Y-426364D01*
X7376312Y-426364D01*
G37*
G36*
X6774129Y-373634D02*
G01*
X6823659Y-373634D01*
X6823659Y-324104D01*
X6815074Y-327507D01*
X6804659Y-333502D01*
X6795262Y-341020D01*
X6787083Y-349808D01*
X6780275Y-359765D01*
X6775094Y-370586D01*
G37*
G36*
X7376312Y-373634D02*
G01*
X7425842Y-373634D01*
X7424877Y-370586D01*
X7419695Y-359765D01*
X7412888Y-349808D01*
X7404709Y-341020D01*
X7395311Y-333502D01*
X7384897Y-327507D01*
X7376312Y-324104D01*
G37*
G36*
X74117Y-373634D02*
G01*
X123647Y-373634D01*
X123647Y-324104D01*
X115062Y-327507D01*
X104648Y-333502D01*
X95250Y-341020D01*
X87071Y-349808D01*
X80314Y-359765D01*
X75082Y-370586D01*
G37*
G36*
X676351Y-373634D02*
G01*
X725881Y-373634D01*
X724916Y-370586D01*
X719683Y-359765D01*
X712927Y-349808D01*
X704748Y-341020D01*
X695350Y-333502D01*
X684936Y-327507D01*
X676351Y-324104D01*
G37*
G36*
X2243429Y-327050D02*
G01*
X2257348Y-320243D01*
X2269693Y-312064D01*
X2280970Y-302412D01*
X2290978Y-291439D01*
X2299563Y-279349D01*
X2306574Y-266242D01*
X2308098Y-262229D01*
X2243429Y-262229D01*
G37*
G36*
X2150770Y-326847D02*
G01*
X2150770Y-262229D01*
X2086051Y-262229D01*
X2090928Y-272897D01*
X2098751Y-285496D01*
X2108047Y-297078D01*
X2118715Y-307390D01*
X2130552Y-316331D01*
X2143404Y-323748D01*
G37*
G36*
X195834Y-298043D02*
G01*
X195834Y-248564D01*
X146304Y-248564D01*
X149707Y-257098D01*
X155702Y-267512D01*
X163220Y-276961D01*
X172008Y-285140D01*
X181965Y-291896D01*
X192786Y-297129D01*
G37*
G36*
X604164Y-298043D02*
G01*
X607212Y-297129D01*
X618032Y-291896D01*
X627989Y-285140D01*
X636778Y-276961D01*
X644296Y-267512D01*
X650290Y-257098D01*
X653694Y-248564D01*
X604164Y-248564D01*
G37*
G36*
X7304125Y-298043D02*
G01*
X7307173Y-297129D01*
X7318044Y-291896D01*
X7327950Y-285140D01*
X7336790Y-276961D01*
X7344257Y-267512D01*
X7350302Y-257098D01*
X7353655Y-248564D01*
X7304125Y-248564D01*
G37*
G36*
X6895846Y-298043D02*
G01*
X6895846Y-248564D01*
X6846316Y-248564D01*
X6849668Y-257098D01*
X6855714Y-267512D01*
X6863181Y-276961D01*
X6872020Y-285140D01*
X6881926Y-291896D01*
X6892798Y-297129D01*
G37*
G36*
X604164Y-195834D02*
G01*
X653694Y-195834D01*
X650290Y-187299D01*
X644296Y-176885D01*
X636778Y-167436D01*
X627989Y-159258D01*
X618032Y-152501D01*
X607212Y-147269D01*
X604164Y-146354D01*
G37*
G36*
X146304Y-195834D02*
G01*
X195834Y-195834D01*
X195834Y-146354D01*
X192786Y-147269D01*
X181965Y-152501D01*
X172008Y-159258D01*
X163220Y-167436D01*
X155702Y-176885D01*
X149707Y-187299D01*
G37*
G36*
X501904Y-195834D02*
G01*
X551434Y-195834D01*
X551434Y-146354D01*
X548386Y-147269D01*
X537565Y-152501D01*
X527608Y-159258D01*
X518820Y-167436D01*
X511301Y-176885D01*
X505307Y-187299D01*
G37*
G36*
X248564Y-195834D02*
G01*
X298094Y-195834D01*
X294690Y-187299D01*
X288696Y-176885D01*
X281178Y-167436D01*
X272389Y-159258D01*
X262432Y-152501D01*
X251612Y-147269D01*
X248564Y-146354D01*
G37*
G36*
X6846316Y-195834D02*
G01*
X6895846Y-195834D01*
X6895846Y-146354D01*
X6892798Y-147269D01*
X6881926Y-152501D01*
X6872020Y-159258D01*
X6863181Y-167436D01*
X6855714Y-176885D01*
X6849668Y-187299D01*
G37*
G36*
X7304125Y-195834D02*
G01*
X7353655Y-195834D01*
X7350302Y-187299D01*
X7344257Y-176885D01*
X7336790Y-167436D01*
X7327950Y-159258D01*
X7318044Y-152501D01*
X7307173Y-147269D01*
X7304125Y-146354D01*
G37*
G36*
X7201916Y-195834D02*
G01*
X7251446Y-195834D01*
X7251446Y-146354D01*
X7248398Y-147269D01*
X7237526Y-152501D01*
X7227620Y-159258D01*
X7218781Y-167436D01*
X7211314Y-176885D01*
X7205268Y-187299D01*
G37*
G36*
X6948525Y-195834D02*
G01*
X6998055Y-195834D01*
X6994702Y-187299D01*
X6988657Y-176885D01*
X6981190Y-167436D01*
X6972350Y-159258D01*
X6962444Y-152501D01*
X6951573Y-147269D01*
X6948525Y-146354D01*
G37*
G36*
X2086051Y-169570D02*
G01*
X2150770Y-169570D01*
X2150770Y-104952D01*
X2143404Y-108051D01*
X2130552Y-115468D01*
X2118715Y-124409D01*
X2108047Y-134721D01*
X2098751Y-146304D01*
X2090928Y-158902D01*
G37*
G36*
X2243429Y-169570D02*
G01*
X2308098Y-169570D01*
X2306574Y-165557D01*
X2299563Y-152450D01*
X2290978Y-140360D01*
X2280970Y-129387D01*
X2269693Y-119735D01*
X2257348Y-111556D01*
X2243429Y-104749D01*
G37*
G36*
X426364Y-123647D02*
G01*
X475894Y-123647D01*
X472490Y-115062D01*
X466496Y-104648D01*
X458978Y-95250D01*
X450189Y-87071D01*
X440232Y-80314D01*
X429412Y-75082D01*
X426364Y-74117D01*
G37*
G36*
X324104Y-123647D02*
G01*
X373634Y-123647D01*
X373634Y-74117D01*
X370586Y-75082D01*
X359765Y-80314D01*
X349808Y-87071D01*
X341020Y-95250D01*
X333502Y-104648D01*
X327507Y-115062D01*
G37*
G36*
X7126325Y-123647D02*
G01*
X7175855Y-123647D01*
X7172502Y-115062D01*
X7166457Y-104648D01*
X7158990Y-95250D01*
X7150150Y-87071D01*
X7140244Y-80314D01*
X7129373Y-75082D01*
X7126325Y-74117D01*
G37*
G36*
X7024116Y-123647D02*
G01*
X7073646Y-123647D01*
X7073646Y-74117D01*
X7070598Y-75082D01*
X7059726Y-80314D01*
X7049820Y-87071D01*
X7040981Y-95250D01*
X7033514Y-104648D01*
X7027468Y-115062D01*
G37*

%LPD*%
G36*
X6385814Y-2996234D02*
G01*
X6343650Y-3049574D01*
X6457950Y-3049574D01*
X6415786Y-2996234D01*
G37*
G36*
X6385814Y-2346248D02*
G01*
X6343650Y-2399588D01*
X6457950Y-2399588D01*
X6415786Y-2346248D01*
G37*
G36*
X7201306Y-1657350D02*
G01*
X7147966Y-1699514D01*
X7147966Y-1729486D01*
X7201306Y-1771650D01*
G37*
G36*
X6676694Y-1657350D02*
G01*
X6676694Y-1771650D01*
X6730034Y-1729486D01*
X6730034Y-1699514D01*
G37*
G36*
X6575907Y-1657350D02*
G01*
X6522567Y-1699514D01*
X6522567Y-1729486D01*
X6575907Y-1771650D01*
G37*
G36*
X5998616Y-1638757D02*
G01*
X5930900Y-1642465D01*
X5913424Y-1667408D01*
X5933033Y-1732381D01*
G37*
G36*
X6057493Y-1657350D02*
G01*
X6057493Y-1771650D01*
X6110833Y-1729486D01*
X6110833Y-1699514D01*
G37*
G36*
X5488482Y-3844391D02*
G01*
X5431891Y-3900982D01*
X5457342Y-3954729D01*
X5542229Y-3869842D01*
G37*
G36*
X5457342Y-3944670D02*
G01*
X5431891Y-3998417D01*
X5488482Y-4055008D01*
X5542229Y-4029557D01*
G37*
G36*
X867105Y-268833D02*
G01*
X887120Y-324815D01*
X967079Y-324815D01*
X987094Y-268833D01*
G37*
G36*
X1007008Y-212598D02*
G01*
X920394Y-295605D01*
X973582Y-322224D01*
X1031341Y-266852D01*
G37*
G36*
X3153105Y-268833D02*
G01*
X3198114Y-324815D01*
X3228086Y-324815D01*
X3273094Y-268833D01*
G37*
G36*
X3407105Y-268833D02*
G01*
X3452114Y-324815D01*
X3482086Y-324815D01*
X3527094Y-268833D01*
G37*
G36*
X5185105Y-268833D02*
G01*
X5230114Y-324815D01*
X5260086Y-324815D01*
X5305094Y-268833D01*
G37*
G36*
X2265375Y-2399741D02*
G01*
X2193798Y-2405989D01*
X2276805Y-2492603D01*
X2286101Y-2421382D01*
G37*
G36*
X2519375Y-2399741D02*
G01*
X2447798Y-2405989D01*
X2530805Y-2492603D01*
X2540101Y-2421382D01*
G37*
G36*
X2771495Y-2398268D02*
G01*
X2700070Y-2406040D01*
X2784957Y-2490927D01*
X2792730Y-2419502D01*
G37*
G36*
X6304940Y-278079D02*
G01*
X6360414Y-343865D01*
X6390386Y-343865D01*
X6445859Y-278079D01*
G37*
G36*
X401675Y-1220114D02*
G01*
X416559Y-1248206D01*
X446582Y-1248308D01*
X461670Y-1220368D01*
G37*
G36*
X4426508Y-1334008D02*
G01*
X4404207Y-1340408D01*
X4401718Y-1370431D01*
X4422648Y-1380388D01*
G37*
G36*
X4841189Y-1703476D02*
G01*
X4810810Y-1712671D01*
X4853228Y-1755089D01*
X4862423Y-1724710D01*
G37*
G36*
X4688789Y-1131976D02*
G01*
X4658410Y-1141171D01*
X4700828Y-1183589D01*
X4710023Y-1153210D01*
G37*
G36*
X4424476Y-840333D02*
G01*
X4402785Y-848614D01*
X4402785Y-878586D01*
X4424476Y-886866D01*
G37*
G36*
X7175500Y-1169009D02*
G01*
X7130491Y-1191514D01*
X7130491Y-1221486D01*
X7175500Y-1243990D01*
G37*
G36*
X6702501Y-1169009D02*
G01*
X6702501Y-1243990D01*
X6747509Y-1221486D01*
X6747509Y-1191514D01*
G37*
G36*
X6550101Y-1169009D02*
G01*
X6505092Y-1191514D01*
X6505092Y-1221486D01*
X6550101Y-1243990D01*
G37*
G36*
X6083300Y-1169009D02*
G01*
X6083300Y-1243990D01*
X6128308Y-1221486D01*
X6128308Y-1191514D01*
G37*
G36*
X5579110Y-178409D02*
G01*
X5579110Y-253390D01*
X5624118Y-230886D01*
X5624118Y-200914D01*
G37*
G36*
X5419090Y-277622D02*
G01*
X5389829Y-316687D01*
X5423712Y-325170D01*
X5491835Y-295910D01*
G37*
G36*
X5420004Y-118922D02*
G01*
X5402122Y-143408D01*
X5419090Y-196443D01*
X5463336Y-135890D01*
G37*
G36*
X5234482Y-471982D02*
G01*
X5202682Y-501091D01*
X5202682Y-562508D01*
X5245100Y-503834D01*
G37*
G36*
X5125212Y-591108D02*
G01*
X5147716Y-636117D01*
X5177688Y-636117D01*
X5200192Y-591108D01*
G37*
G36*
X5336895Y-3064306D02*
G01*
X5281980Y-3122574D01*
X5351018Y-3220008D01*
X5430977Y-3129991D01*
G37*
G36*
X5351018Y-3220008D02*
G01*
X5351018Y-3339998D01*
X5430977Y-3339998D01*
X5430977Y-3220008D01*
G37*
G36*
X243128Y-1055979D02*
G01*
X265531Y-1100988D01*
X295554Y-1100988D01*
X318109Y-1055979D01*
G37*
G36*
X6027420Y-178409D02*
G01*
X5982411Y-200914D01*
X5982411Y-230886D01*
X6027420Y-253390D01*
G37*
G36*
X6253784Y-682244D02*
G01*
X6208776Y-704748D01*
X6208776Y-734720D01*
X6253784Y-757224D01*
G37*
G36*
X6360414Y-402590D02*
G01*
X6348780Y-447598D01*
X6402019Y-447598D01*
X6390386Y-402590D01*
G37*
G36*
X4281424Y-605586D02*
G01*
X4236415Y-666851D01*
X4236415Y-709320D01*
X4281424Y-666597D01*
G37*
G36*
X4341368Y-582777D02*
G01*
X4341368Y-657809D01*
X4386376Y-686511D01*
X4386376Y-644093D01*
G37*
G36*
X4345482Y-557784D02*
G01*
X4341368Y-559612D01*
X4341368Y-620572D01*
X4356100Y-589584D01*
G37*
G36*
X4091432Y-575614D02*
G01*
X4046423Y-598068D01*
X4046423Y-628091D01*
X4091432Y-650595D01*
G37*
G36*
X4246422Y-826109D02*
G01*
X4246422Y-901090D01*
X4291380Y-878586D01*
X4291380Y-848614D01*
G37*
G36*
X4186377Y-822604D02*
G01*
X4141419Y-845108D01*
X4141419Y-875131D01*
X4186377Y-897585D01*
G37*
G36*
X4281424Y-1100886D02*
G01*
X4236415Y-1162151D01*
X4236415Y-1204620D01*
X4281424Y-1161897D01*
G37*
G36*
X4341368Y-1067409D02*
G01*
X4341368Y-1142390D01*
X4386376Y-1119886D01*
X4386376Y-1089914D01*
G37*
G36*
X4091432Y-1070914D02*
G01*
X4046423Y-1093368D01*
X4046423Y-1123391D01*
X4091432Y-1145895D01*
G37*
G36*
X4246422Y-1317904D02*
G01*
X4246422Y-1392885D01*
X4291380Y-1370431D01*
X4291380Y-1340408D01*
G37*
G36*
X4186377Y-1317853D02*
G01*
X4141419Y-1340358D01*
X4141419Y-1370330D01*
X4186377Y-1392834D01*
G37*
G36*
X5208371Y-1194409D02*
G01*
X5208371Y-1269390D01*
X5253329Y-1246886D01*
X5253329Y-1216914D01*
G37*
G36*
X4977028Y-1215186D02*
G01*
X4960264Y-1267714D01*
X4978501Y-1291894D01*
X5022138Y-1275080D01*
G37*
G36*
X5057698Y-758240D02*
G01*
X5012232Y-817880D01*
X5056073Y-834644D01*
X5074412Y-810564D01*
G37*
G36*
X4977028Y-740918D02*
G01*
X4932070Y-763422D01*
X4932070Y-793445D01*
X4977028Y-815949D01*
G37*
G36*
X4979873Y-817880D02*
G01*
X5002377Y-862888D01*
X5032349Y-862888D01*
X5054854Y-817880D01*
G37*
G36*
X5147716Y-686511D02*
G01*
X5127701Y-731520D01*
X5200192Y-731520D01*
X5177688Y-686511D01*
G37*
G36*
X265277Y-1283411D02*
G01*
X242722Y-1328420D01*
X317703Y-1328420D01*
X295300Y-1283411D01*
G37*
G36*
X416407Y-1283411D02*
G01*
X393700Y-1328420D01*
X468731Y-1328420D01*
X446430Y-1283411D01*
G37*
G36*
X5002377Y-915111D02*
G01*
X4979873Y-960119D01*
X5054854Y-960119D01*
X5032349Y-915111D01*
G37*
G36*
X5127701Y-987094D02*
G01*
X5111038Y-1039215D01*
X5129479Y-1063142D01*
X5173472Y-1046480D01*
G37*
G36*
X4979873Y-1681480D02*
G01*
X5002377Y-1726488D01*
X5032349Y-1726488D01*
X5054854Y-1681480D01*
G37*
G36*
X4977028Y-1600809D02*
G01*
X4932070Y-1623314D01*
X4932070Y-1653286D01*
X4977028Y-1675790D01*
G37*
G36*
X5208371Y-1600809D02*
G01*
X5208371Y-1675790D01*
X5253329Y-1653286D01*
X5253329Y-1623314D01*
G37*
G36*
X5002377Y-1778711D02*
G01*
X4979873Y-1823720D01*
X5054854Y-1823720D01*
X5032349Y-1778711D01*
G37*
G36*
X5208371Y-1829409D02*
G01*
X5208371Y-1904390D01*
X5253329Y-1881886D01*
X5253329Y-1851914D01*
G37*
G36*
X5853328Y-572109D02*
G01*
X5808370Y-594614D01*
X5808370Y-624586D01*
X5853328Y-647090D01*
G37*
G36*
X6084671Y-593140D02*
G01*
X6039205Y-652780D01*
X6083046Y-669544D01*
X6101384Y-645414D01*
G37*
G36*
X3364128Y-769620D02*
G01*
X3292195Y-868375D01*
X3346805Y-926896D01*
X3444798Y-855980D01*
G37*
G36*
X3364128Y-769620D02*
G01*
X3251200Y-772820D01*
X3251200Y-852779D01*
X3364128Y-855980D01*
G37*
G36*
X3595471Y-796340D02*
G01*
X3550005Y-855980D01*
X3593846Y-872744D01*
X3612184Y-848614D01*
G37*
G36*
X3444798Y-555040D02*
G01*
X3399332Y-614680D01*
X3443173Y-631444D01*
X3461512Y-607364D01*
G37*
G36*
X3595471Y-554990D02*
G01*
X3550056Y-614680D01*
X3586124Y-623722D01*
X3605885Y-601065D01*
G37*
G36*
X3516426Y-511556D02*
G01*
X3498087Y-535635D01*
X3514801Y-587959D01*
X3560267Y-528320D01*
G37*
G36*
X3444798Y-1101140D02*
G01*
X3399332Y-1160780D01*
X3443173Y-1177544D01*
X3461512Y-1153464D01*
G37*
G36*
X3595471Y-1074420D02*
G01*
X3595471Y-1145895D01*
X3640429Y-1123391D01*
X3640429Y-1093368D01*
G37*
G36*
X3516579Y-1057757D02*
G01*
X3498138Y-1081684D01*
X3514801Y-1133805D01*
X3560572Y-1074420D01*
G37*
G36*
X3346602Y-1245006D02*
G01*
X3291992Y-1303528D01*
X3364128Y-1402080D01*
X3444798Y-1315720D01*
G37*
G36*
X3595471Y-1342186D02*
G01*
X3550361Y-1402080D01*
X3593998Y-1418894D01*
X3612235Y-1394714D01*
G37*
G36*
X2887522Y-4222597D02*
G01*
X2887522Y-4422597D01*
X2945485Y-4422597D01*
X2945485Y-4222597D01*
G37*
G36*
X5055514Y-4222597D02*
G01*
X5055514Y-4422597D01*
X5164277Y-4362602D01*
X5164277Y-4282592D01*
G37*
G36*
X1593799Y-3188055D02*
G01*
X1593799Y-3408070D01*
X1554886Y-3500577D01*
X1643786Y-3306673D01*
G37*
D10*
X5168138Y-1231900D02*
G01*
X5295900Y-1231900D01*
X5562600Y-1498600D01*
X5765800Y-1498600D01*
X5981700Y-1714500D01*
X6026404Y-1714500D01*
X6044331Y-609600D02*
G01*
X6154465Y-719734D01*
X6280404Y-719734D01*
X5893561Y-609600D02*
G01*
X5664200Y-609600D01*
X5486400Y-787400D01*
X5486400Y-1041400D01*
X5410200Y-1117600D01*
X5130800Y-1117600D01*
X5092700Y-1155700D01*
X5092700Y-1320800D01*
X4648200Y-1765300D01*
X3425697Y-1765300D01*
X2705100Y-2485897D01*
X7226300Y-1714500D02*
G01*
X6626298Y-1714500D01*
X7226300Y-1206500D02*
G01*
X6626298Y-1206500D01*
X6626298Y-1714500D02*
G01*
X6026304Y-1714500D01*
X6626298Y-1206500D02*
G01*
X6026304Y-1206500D01*
X5499100Y-215900D02*
G01*
X6121400Y-215900D01*
X6375400Y-499465D02*
G01*
X6375400Y-215900D01*
X5168138Y-1866900D02*
G01*
X5778500Y-1866900D01*
X6273800Y-2362200D01*
X6273800Y-2616200D01*
X6400800Y-2743200D01*
X6400800Y-3100070D01*
X5168036Y-1638300D02*
G01*
X5715000Y-1638300D01*
X6400800Y-2324100D01*
X6400800Y-2449995D01*
X4216400Y-860097D02*
G01*
X4219902Y-863600D01*
X4445000Y-863600D01*
D11*
X6654800Y-3060700D02*
G01*
X6654800Y-2451100D01*
D12*
X5390997Y-3175000D02*
G01*
X5308600Y-3092602D01*
X5308600Y-2921000D01*
X5092700Y-2705100D01*
X774700Y-2705100D01*
X660400Y-2590800D01*
X660400Y-1701800D01*
X927100Y-1435100D01*
X927100Y-215900D01*
X5537200Y-3949700D02*
G01*
X5390997Y-3803497D01*
X5390997Y-3175000D01*
X4955489Y-4322597D02*
G01*
X5164302Y-4322597D01*
X5537200Y-3949700D01*
D11*
X2006600Y-3238500D02*
G01*
X2552700Y-3784600D01*
X2552700Y-3987800D01*
X2887497Y-4322597D01*
X3045510Y-4322597D01*
X1312900Y-4381500D02*
G01*
X1669897Y-4381500D01*
X1972614Y-4078782D01*
X1972614Y-3272485D01*
X2006600Y-3238500D01*
X1023899Y-4381500D02*
G01*
X1023899Y-4233900D01*
X1181100Y-4076700D01*
X1485900Y-4076700D01*
X1625600Y-3937000D01*
X1625600Y-3429888D01*
X1493773Y-3298062D01*
D10*
X3555136Y-571500D02*
G01*
X3596728Y-613092D01*
X4121398Y-613092D01*
X3555136Y-571500D02*
G01*
X3467100Y-483463D01*
X3467100Y-219202D01*
X3555136Y-1117600D02*
G01*
X3564343Y-1108392D01*
X4121404Y-1108392D01*
X3404463Y-1117600D02*
G01*
X3506063Y-1219200D01*
X4200588Y-1219200D01*
X4311395Y-1108392D01*
X5181600Y-546100D02*
G01*
X5245100Y-482600D01*
X5245100Y-219202D01*
X5168036Y-774700D02*
G01*
X5162702Y-769365D01*
X5162702Y-546100D01*
X5017363Y-774700D02*
G01*
X5118963Y-876300D01*
X5232400Y-876300D01*
X5321300Y-787400D01*
X5321300Y-406400D01*
X5499100Y-228600D01*
X5499100Y-219202D01*
X3555136Y-812800D02*
G01*
X3682136Y-939800D01*
X3911600Y-939800D01*
X3991297Y-860107D01*
X4216400Y-860107D01*
X3404463Y-571500D02*
G01*
X3544163Y-711200D01*
X4213285Y-711200D01*
X4311401Y-613092D01*
X4311395Y-1108392D02*
G01*
X4314888Y-1104900D01*
X4406900Y-1104900D01*
X4533900Y-977900D01*
X4533900Y-812800D01*
X4334192Y-613092D01*
X4311395Y-613092D01*
X4445000Y-1358900D02*
G01*
X4441507Y-1355407D01*
X4216400Y-1355407D01*
X5499100Y-219202D02*
G01*
X5356097Y-76200D01*
X4419600Y-76200D01*
X4356100Y-139700D01*
X4356100Y-568388D01*
X4311395Y-613092D01*
X4660900Y-1181100D02*
G01*
X4813300Y-1028700D01*
X4813300Y-876300D01*
X4911166Y-778433D01*
X5013634Y-778433D01*
X5017368Y-774700D01*
X5017363Y-1003300D02*
G01*
X5017363Y-774705D01*
X5017368Y-774700D01*
X5168138Y-1003300D02*
G01*
X5041138Y-1130300D01*
X4940300Y-1130300D01*
X4533900Y-1536700D01*
X3149600Y-1536700D01*
X2197100Y-2489200D01*
X5017261Y-1231900D02*
G01*
X4598161Y-1651000D01*
X3289300Y-1651000D01*
X2451100Y-2489200D01*
X5017363Y-1866900D02*
G01*
X5017363Y-1638305D01*
X5017368Y-1638300D01*
D12*
X3404361Y-1358900D02*
G01*
X3251200Y-1206500D01*
X3251200Y-965962D01*
X3404361Y-812800D01*
D10*
X3555238Y-1358900D02*
G01*
X3656838Y-1460500D01*
X3886200Y-1460500D01*
X3991356Y-1355344D01*
X4216400Y-1355344D01*
D12*
X3404463Y-812800D02*
G01*
X3251200Y-812800D01*
X3073400Y-635000D01*
X3073400Y-533400D01*
X2971800Y-431800D01*
X1139700Y-431800D01*
X927100Y-219199D01*
D10*
X280162Y-1371600D02*
G01*
X280670Y-1016000D01*
X431037Y-1371600D02*
G01*
X431800Y-1193800D01*
X3555238Y-1117600D02*
G01*
X3479800Y-1042162D01*
X3479800Y-736600D01*
X3441700Y-698500D01*
X3276600Y-698500D01*
X3213100Y-635000D01*
X3213100Y-219202D01*
X4813300Y-1752600D02*
G01*
X4927600Y-1638300D01*
X5017368Y-1638300D01*
D13*
G01*
X5022697Y-546100D03*
G01*
X5162702Y-546100D03*
G01*
X2152802Y-4038600D03*
G01*
X2012797Y-4038600D03*
G01*
X5531002Y-3175000D03*
G01*
X5390997Y-3175000D03*
D14*
G01*
X430606Y-1016000D03*
G01*
X280593Y-1016000D03*
D15*
G01*
X6280404Y-719734D03*
G01*
X6470395Y-719734D03*
G01*
X6375400Y-499465D03*
D16*
G01*
X4311395Y-613105D03*
G01*
X4121404Y-613105D03*
G01*
X4216400Y-860094D03*
G01*
X4311395Y-1108405D03*
G01*
X4121404Y-1108405D03*
G01*
X4216400Y-1355394D03*
D17*
G01*
X5168024Y-1231900D03*
G01*
X5017375Y-1231900D03*
D19*
G01*
X5017375Y-774700D03*
G01*
X5168024Y-774700D03*
G01*
X280275Y-1371600D03*
G01*
X430924Y-1371600D03*
G01*
X5017375Y-1003300D03*
G01*
X5168024Y-1003300D03*
G01*
X5017375Y-1638300D03*
G01*
X5168024Y-1638300D03*
G01*
X5017375Y-1866900D03*
G01*
X5168024Y-1866900D03*
G01*
X5893675Y-609600D03*
G01*
X6044324Y-609600D03*
G01*
X3404475Y-812800D03*
G01*
X3555124Y-812800D03*
G01*
X3404475Y-571500D03*
G01*
X3555124Y-571500D03*
G01*
X3404475Y-1117600D03*
G01*
X3555124Y-1117600D03*
G01*
X3404475Y-1358900D03*
G01*
X3555124Y-1358900D03*
D20*
G01*
X1023899Y-4381500D03*
G01*
X1312900Y-4381500D03*
D21*
G01*
X6146800Y-3099993D03*
G01*
X6400800Y-3099993D03*
D22*
G01*
X6654800Y-3099993D03*
D21*
G01*
X6908800Y-3099993D03*
G01*
X6146800Y-2449995D03*
G01*
X6400800Y-2449995D03*
D22*
G01*
X6654800Y-2449995D03*
D21*
G01*
X6908800Y-2449995D03*
G01*
X7251700Y-1714500D03*
G01*
X7251700Y-1460500D03*
D22*
G01*
X7251700Y-1206500D03*
D21*
G01*
X6626301Y-1714500D03*
G01*
X6626301Y-1460500D03*
D22*
G01*
X6626301Y-1206500D03*
D21*
G01*
X6007100Y-1714500D03*
G01*
X6007100Y-1460500D03*
D22*
G01*
X6007100Y-1206500D03*
D23*
G01*
X2006600Y-3238500D03*
G01*
X2514600Y-3238500D03*
G01*
X5537200Y-3949700D03*
G01*
X6045200Y-3949700D03*
G01*
X927100Y-215900D03*
G01*
X1181100Y-215900D03*
G01*
X1435100Y-215900D03*
G01*
X1689100Y-215900D03*
G01*
X1943100Y-215900D03*
G01*
X2197100Y-215900D03*
G01*
X2451100Y-215900D03*
G01*
X2705100Y-215900D03*
G01*
X2959100Y-215900D03*
G01*
X3213100Y-215900D03*
G01*
X3467100Y-215900D03*
G01*
X3721100Y-215900D03*
G01*
X3975100Y-215900D03*
G01*
X4229100Y-215900D03*
G01*
X4483100Y-215900D03*
G01*
X4737100Y-215900D03*
G01*
X4991100Y-215900D03*
G01*
X5245100Y-215900D03*
D24*
G01*
X5499100Y-215900D03*
D23*
G01*
X927100Y-2485897D03*
G01*
X1181100Y-2485897D03*
G01*
X1435100Y-2485897D03*
G01*
X1689100Y-2485897D03*
G01*
X1943100Y-2485897D03*
G01*
X2197100Y-2485897D03*
G01*
X2451100Y-2485897D03*
G01*
X2705100Y-2485897D03*
G01*
X2959100Y-2485897D03*
G01*
X3213100Y-2485897D03*
G01*
X3467100Y-2485897D03*
G01*
X3721100Y-2485897D03*
G01*
X3975100Y-2485897D03*
G01*
X4229100Y-2485897D03*
G01*
X4483100Y-2485897D03*
G01*
X4737100Y-2485897D03*
G01*
X4991100Y-2485897D03*
G01*
X5245100Y-2485897D03*
D24*
G01*
X5499100Y-2485897D03*
D25*
G01*
X1233804Y-3750589D03*
D26*
G01*
X863803Y-3295599D03*
G01*
X1493773Y-3298062D03*
D27*
G01*
X6375400Y-215900D03*
D28*
G01*
X6121400Y-215900D03*
D29*
G01*
X3045510Y-4322597D03*
G01*
X3045510Y-4068597D03*
D11*
G01*
X3045510Y-3195802D03*
G01*
X3045510Y-2941802D03*
G01*
X4955489Y-2941802D03*
G01*
X4955489Y-3195802D03*
D29*
G01*
X4955489Y-4068597D03*
G01*
X4955489Y-4322597D03*
D12*
G01*
X399999Y-150012D03*
G01*
X399999Y-650011D03*
G01*
X150012Y-399999D03*
G01*
X650011Y-399999D03*
G01*
X577799Y-222199D03*
G01*
X222199Y-222199D03*
G01*
X577799Y-577799D03*
G01*
X222199Y-577799D03*
G01*
X7099985Y-150012D03*
G01*
X7099985Y-650011D03*
G01*
X6849999Y-399999D03*
G01*
X7349997Y-399999D03*
G01*
X7277785Y-222199D03*
G01*
X6922185Y-222199D03*
G01*
X7277785Y-577799D03*
G01*
X6922185Y-577799D03*
G01*
X399999Y-3950004D03*
G01*
X399999Y-4450003D03*
G01*
X150012Y-4199991D03*
G01*
X650011Y-4199991D03*
G01*
X577799Y-4022191D03*
G01*
X222199Y-4022191D03*
G01*
X577799Y-4377791D03*
G01*
X222199Y-4377791D03*
G01*
X7099985Y-3950004D03*
G01*
X7099985Y-4450003D03*
G01*
X6849999Y-4199991D03*
G01*
X7349997Y-4199991D03*
G01*
X7277785Y-4022191D03*
G01*
X6922185Y-4022191D03*
G01*
X7277785Y-4377791D03*
G01*
X6922185Y-4377791D03*
D21*
G01*
X444500Y-2108200D03*
G01*
X444500Y-2362200D03*
D22*
G01*
X444500Y-2616200D03*
D12*
G01*
X431800Y-1193800D03*
D30*
G01*
X4445000Y-1358900D03*
D12*
G01*
X5461000Y-622300D03*
G01*
X5626100Y-838200D03*
G01*
X5346700Y-977900D03*
G01*
X4813300Y-406400D03*
G01*
X4660900Y-406400D03*
G01*
X5105400Y-406400D03*
G01*
X4953000Y-406400D03*
G01*
X4813300Y-1752600D03*
G01*
X4660900Y-1181100D03*
D30*
G01*
X4445000Y-863600D03*
D12*
G01*
X5626100Y-977900D03*
G01*
X5626100Y-1143000D03*
G01*
X5626100Y-1295400D03*
M02*
