G04 Layer: TopPasteMaskLayer*
G04 EasyEDA v6.5.57, 2026-08-28 16:13:09*
G04 5e0a217a3e3e4001abd121eb4e72d0a8,73b71592eb5d450092b712373c5d4a3f,10*
G04 Gerber Generator version 0.2*
G04 Scale: 100 percent, Rotated: No, Reflected: No *
G04 Dimensions in millimeters *
G04 leading zeros omitted , absolute positions ,4 integer and 5 decimal *
%FSLAX45Y45*%
%MOMM*%

%ADD10R,0.8000X0.9000*%
%ADD11R,0.8000X0.8000*%
%ADD12R,0.5320X1.0375*%
%ADD13R,0.6000X1.0700*%
%ADD14R,1.1901X1.7280*%
%ADD15R,0.0175X1.7280*%

%LPD*%
G36*
X5132222Y-1186891D02*
G01*
X5127193Y-1191920D01*
X5127193Y-1214678D01*
X5164175Y-1214678D01*
X5164175Y-1247698D01*
X5127193Y-1247698D01*
X5127193Y-1271879D01*
X5132222Y-1276908D01*
X5212181Y-1276908D01*
X5217210Y-1271879D01*
X5217210Y-1191920D01*
X5212181Y-1186891D01*
G37*
G36*
X4973218Y-1186891D02*
G01*
X4968189Y-1191920D01*
X4968189Y-1271879D01*
X4973218Y-1276908D01*
X5053177Y-1276908D01*
X5058206Y-1271879D01*
X5058206Y-1249121D01*
X5021224Y-1249121D01*
X5021224Y-1216101D01*
X5058206Y-1216101D01*
X5058206Y-1191920D01*
X5053177Y-1186891D01*
G37*
G36*
X4973218Y-729691D02*
G01*
X4968189Y-734720D01*
X4968189Y-814679D01*
X4973218Y-819708D01*
X5053177Y-819708D01*
X5058206Y-814679D01*
X5058206Y-791921D01*
X5021224Y-791921D01*
X5021224Y-758901D01*
X5058206Y-758901D01*
X5058206Y-734720D01*
X5053177Y-729691D01*
G37*
G36*
X5132222Y-729691D02*
G01*
X5127193Y-734720D01*
X5127193Y-757478D01*
X5164175Y-757478D01*
X5164175Y-790498D01*
X5127193Y-790498D01*
X5127193Y-814679D01*
X5132222Y-819708D01*
X5212181Y-819708D01*
X5217210Y-814679D01*
X5217210Y-734720D01*
X5212181Y-729691D01*
G37*
G36*
X236118Y-1326591D02*
G01*
X231089Y-1331620D01*
X231089Y-1411579D01*
X236118Y-1416608D01*
X316077Y-1416608D01*
X321106Y-1411579D01*
X321106Y-1388821D01*
X284073Y-1388821D01*
X284073Y-1355801D01*
X321106Y-1355801D01*
X321106Y-1331620D01*
X316077Y-1326591D01*
G37*
G36*
X395122Y-1326591D02*
G01*
X390093Y-1331620D01*
X390093Y-1354378D01*
X427126Y-1354378D01*
X427126Y-1387398D01*
X390093Y-1387398D01*
X390093Y-1411579D01*
X395122Y-1416608D01*
X475081Y-1416608D01*
X480110Y-1411579D01*
X480110Y-1331620D01*
X475081Y-1326591D01*
G37*
G36*
X4973218Y-958291D02*
G01*
X4968189Y-963320D01*
X4968189Y-1043279D01*
X4973218Y-1048308D01*
X5053177Y-1048308D01*
X5058206Y-1043279D01*
X5058206Y-1020521D01*
X5021224Y-1020521D01*
X5021224Y-987501D01*
X5058206Y-987501D01*
X5058206Y-963320D01*
X5053177Y-958291D01*
G37*
G36*
X5132222Y-958291D02*
G01*
X5127193Y-963320D01*
X5127193Y-986078D01*
X5164175Y-986078D01*
X5164175Y-1019098D01*
X5127193Y-1019098D01*
X5127193Y-1043279D01*
X5132222Y-1048308D01*
X5212181Y-1048308D01*
X5217210Y-1043279D01*
X5217210Y-963320D01*
X5212181Y-958291D01*
G37*
G36*
X4973218Y-1593291D02*
G01*
X4968189Y-1598320D01*
X4968189Y-1678279D01*
X4973218Y-1683308D01*
X5053177Y-1683308D01*
X5058206Y-1678279D01*
X5058206Y-1655521D01*
X5021224Y-1655521D01*
X5021224Y-1622501D01*
X5058206Y-1622501D01*
X5058206Y-1598320D01*
X5053177Y-1593291D01*
G37*
G36*
X5132222Y-1593291D02*
G01*
X5127193Y-1598320D01*
X5127193Y-1621078D01*
X5164175Y-1621078D01*
X5164175Y-1654098D01*
X5127193Y-1654098D01*
X5127193Y-1678279D01*
X5132222Y-1683308D01*
X5212181Y-1683308D01*
X5217210Y-1678279D01*
X5217210Y-1598320D01*
X5212181Y-1593291D01*
G37*
G36*
X4973218Y-1821891D02*
G01*
X4968189Y-1826920D01*
X4968189Y-1906879D01*
X4973218Y-1911908D01*
X5053177Y-1911908D01*
X5058206Y-1906879D01*
X5058206Y-1884121D01*
X5021224Y-1884121D01*
X5021224Y-1851101D01*
X5058206Y-1851101D01*
X5058206Y-1826920D01*
X5053177Y-1821891D01*
G37*
G36*
X5132222Y-1821891D02*
G01*
X5127193Y-1826920D01*
X5127193Y-1849678D01*
X5164175Y-1849678D01*
X5164175Y-1882698D01*
X5127193Y-1882698D01*
X5127193Y-1906879D01*
X5132222Y-1911908D01*
X5212181Y-1911908D01*
X5217210Y-1906879D01*
X5217210Y-1826920D01*
X5212181Y-1821891D01*
G37*
G36*
X5849518Y-564591D02*
G01*
X5844489Y-569620D01*
X5844489Y-649579D01*
X5849518Y-654608D01*
X5929477Y-654608D01*
X5934506Y-649579D01*
X5934506Y-626821D01*
X5897524Y-626821D01*
X5897524Y-593801D01*
X5934506Y-593801D01*
X5934506Y-569620D01*
X5929477Y-564591D01*
G37*
G36*
X6008522Y-564591D02*
G01*
X6003493Y-569620D01*
X6003493Y-592378D01*
X6040475Y-592378D01*
X6040475Y-625398D01*
X6003493Y-625398D01*
X6003493Y-649579D01*
X6008522Y-654608D01*
X6088481Y-654608D01*
X6093510Y-649579D01*
X6093510Y-569620D01*
X6088481Y-564591D01*
G37*
G36*
X3360318Y-767791D02*
G01*
X3355289Y-772820D01*
X3355289Y-852779D01*
X3360318Y-857808D01*
X3440277Y-857808D01*
X3445306Y-852779D01*
X3445306Y-830021D01*
X3408324Y-830021D01*
X3408324Y-797001D01*
X3445306Y-797001D01*
X3445306Y-772820D01*
X3440277Y-767791D01*
G37*
G36*
X3519322Y-767791D02*
G01*
X3514293Y-772820D01*
X3514293Y-795578D01*
X3551275Y-795578D01*
X3551275Y-828598D01*
X3514293Y-828598D01*
X3514293Y-852779D01*
X3519322Y-857808D01*
X3599281Y-857808D01*
X3604310Y-852779D01*
X3604310Y-772820D01*
X3599281Y-767791D01*
G37*
G36*
X3360318Y-526491D02*
G01*
X3355289Y-531520D01*
X3355289Y-611479D01*
X3360318Y-616508D01*
X3440277Y-616508D01*
X3445306Y-611479D01*
X3445306Y-588721D01*
X3408324Y-588721D01*
X3408324Y-555701D01*
X3445306Y-555701D01*
X3445306Y-531520D01*
X3440277Y-526491D01*
G37*
G36*
X3519322Y-526491D02*
G01*
X3514293Y-531520D01*
X3514293Y-554278D01*
X3551275Y-554278D01*
X3551275Y-587298D01*
X3514293Y-587298D01*
X3514293Y-611479D01*
X3519322Y-616508D01*
X3599281Y-616508D01*
X3604310Y-611479D01*
X3604310Y-531520D01*
X3599281Y-526491D01*
G37*
G36*
X3360318Y-1072591D02*
G01*
X3355289Y-1077620D01*
X3355289Y-1157579D01*
X3360318Y-1162608D01*
X3440277Y-1162608D01*
X3445306Y-1157579D01*
X3445306Y-1134821D01*
X3408324Y-1134821D01*
X3408324Y-1101801D01*
X3445306Y-1101801D01*
X3445306Y-1077620D01*
X3440277Y-1072591D01*
G37*
G36*
X3519322Y-1072591D02*
G01*
X3514293Y-1077620D01*
X3514293Y-1100378D01*
X3551275Y-1100378D01*
X3551275Y-1133398D01*
X3514293Y-1133398D01*
X3514293Y-1157579D01*
X3519322Y-1162608D01*
X3599281Y-1162608D01*
X3604310Y-1157579D01*
X3604310Y-1077620D01*
X3599281Y-1072591D01*
G37*
G36*
X3360318Y-1313891D02*
G01*
X3355289Y-1318920D01*
X3355289Y-1398879D01*
X3360318Y-1403908D01*
X3440277Y-1403908D01*
X3445306Y-1398879D01*
X3445306Y-1376121D01*
X3408324Y-1376121D01*
X3408324Y-1343101D01*
X3445306Y-1343101D01*
X3445306Y-1318920D01*
X3440277Y-1313891D01*
G37*
G36*
X3519322Y-1313891D02*
G01*
X3514293Y-1318920D01*
X3514293Y-1341678D01*
X3551275Y-1341678D01*
X3551275Y-1374698D01*
X3514293Y-1374698D01*
X3514293Y-1398879D01*
X3519322Y-1403908D01*
X3599281Y-1403908D01*
X3604310Y-1398879D01*
X3604310Y-1318920D01*
X3599281Y-1313891D01*
G37*
D10*
G01*
X5022697Y-546100D03*
G01*
X5162702Y-546100D03*
G01*
X2152802Y-4038600D03*
G01*
X2012797Y-4038600D03*
G01*
X5531002Y-3175000D03*
G01*
X5390997Y-3175000D03*
D11*
G01*
X430606Y-1016000D03*
G01*
X280593Y-1016000D03*
D12*
G01*
X6280404Y-719734D03*
G01*
X6470395Y-719734D03*
G01*
X6375400Y-499465D03*
D13*
G01*
X4311395Y-613105D03*
G01*
X4121404Y-613105D03*
G01*
X4216400Y-860094D03*
G01*
X4311395Y-1108405D03*
G01*
X4121404Y-1108405D03*
G01*
X4216400Y-1355394D03*
D14*
G01*
X1023899Y-4381500D03*
G01*
X1312900Y-4381500D03*
M02*
