G04 Layer: TopLayer*
G04 EasyEDA v6.5.57, 2026-08-22 12:43:49*
G04 d5c1c7cf252c4259a0bd62168661ddc8,73b71592eb5d450092b712373c5d4a3f,10*
G04 Gerber Generator version 0.2*
G04 Scale: 100 percent, Rotated: No, Reflected: No *
G04 Dimensions in millimeters *
G04 leading zeros omitted , absolute positions ,4 integer and 5 decimal *
%FSLAX45Y45*%
%MOMM*%

%ADD10C,2.0000*%
%ADD11C,0.3000*%
%ADD12C,0.8000*%
%ADD13C,1.5240*%
%ADD14R,1.5240X1.5240*%
%ADD15O,4.199992X1.999996*%
%ADD16O,1.999996X4.199992*%
%ADD17O,3.799992X4.99999*%
%ADD18O,0.014X4.99999*%
%ADD19R,2.0000X2.0000*%
%ADD20C,1.7780*%
%ADD21C,1.8796*%
%ADD22C,1.6000*%
%ADD23C,1.5000*%
%ADD24C,1.4000*%
%ADD25R,1.8796X1.8796*%
%ADD26R,1.0000X1.0000*%
%ADD27C,1.0000*%

%LPD*%
G36*
X400608Y-6474104D02*
G01*
X374142Y-6473139D01*
X348742Y-6470497D01*
X323545Y-6466179D01*
X298754Y-6460083D01*
X274421Y-6452362D01*
X250647Y-6442964D01*
X227584Y-6431940D01*
X205333Y-6419392D01*
X183997Y-6405372D01*
X163677Y-6389928D01*
X144424Y-6373114D01*
X126390Y-6355029D01*
X109626Y-6335776D01*
X94183Y-6315405D01*
X80213Y-6294069D01*
X67716Y-6271768D01*
X56743Y-6248704D01*
X47396Y-6224930D01*
X39725Y-6200597D01*
X33680Y-6175756D01*
X29362Y-6150559D01*
X26771Y-6125159D01*
X25908Y-6099403D01*
X25908Y-400608D01*
X26822Y-374142D01*
X29464Y-348742D01*
X33832Y-323545D01*
X39878Y-298754D01*
X47650Y-274421D01*
X57048Y-250647D01*
X68021Y-227584D01*
X80568Y-205333D01*
X94589Y-183997D01*
X110032Y-163677D01*
X126847Y-144424D01*
X144932Y-126390D01*
X164185Y-109626D01*
X184556Y-94183D01*
X205943Y-80213D01*
X228193Y-67716D01*
X251307Y-56743D01*
X275082Y-47396D01*
X299415Y-39725D01*
X324256Y-33680D01*
X349402Y-29362D01*
X374802Y-26771D01*
X400608Y-25908D01*
X7599375Y-25908D01*
X7625842Y-26822D01*
X7651242Y-29464D01*
X7676438Y-33832D01*
X7701229Y-39878D01*
X7725562Y-47650D01*
X7749336Y-57048D01*
X7772400Y-68021D01*
X7794650Y-80568D01*
X7815986Y-94589D01*
X7836306Y-110032D01*
X7855559Y-126847D01*
X7873593Y-144932D01*
X7890357Y-164185D01*
X7905800Y-184556D01*
X7919770Y-205943D01*
X7932267Y-228193D01*
X7943240Y-251307D01*
X7952587Y-275082D01*
X7960258Y-299415D01*
X7966303Y-324256D01*
X7970621Y-349402D01*
X7973212Y-374802D01*
X7974075Y-400608D01*
X7974075Y-6099403D01*
X7973161Y-6125870D01*
X7970520Y-6151270D01*
X7966151Y-6176416D01*
X7960106Y-6201257D01*
X7952333Y-6225590D01*
X7942935Y-6249314D01*
X7931962Y-6272377D01*
X7919415Y-6294628D01*
X7905394Y-6315964D01*
X7889951Y-6336334D01*
X7873136Y-6355537D01*
X7855051Y-6373622D01*
X7835798Y-6390386D01*
X7815427Y-6405778D01*
X7794040Y-6419799D01*
X7771790Y-6432296D01*
X7748676Y-6443218D01*
X7724902Y-6452565D01*
X7700568Y-6460286D01*
X7675727Y-6466281D01*
X7650581Y-6470599D01*
X7625181Y-6473190D01*
X7599375Y-6474104D01*
G37*

%LPC*%
G36*
X426415Y-6425844D02*
G01*
X429463Y-6424879D01*
X440283Y-6419697D01*
X450240Y-6412890D01*
X459028Y-6404711D01*
X466547Y-6395313D01*
X472541Y-6384899D01*
X475945Y-6376314D01*
X426415Y-6376314D01*
G37*
G36*
X373684Y-6425844D02*
G01*
X373684Y-6376314D01*
X324154Y-6376314D01*
X327558Y-6384899D01*
X333552Y-6395313D01*
X341071Y-6404711D01*
X349859Y-6412890D01*
X359816Y-6419697D01*
X370636Y-6424879D01*
G37*
G36*
X7573619Y-6425844D02*
G01*
X7573619Y-6376314D01*
X7524089Y-6376314D01*
X7527493Y-6384899D01*
X7533487Y-6395313D01*
X7541006Y-6404711D01*
X7549794Y-6412890D01*
X7559751Y-6419697D01*
X7570571Y-6424879D01*
G37*
G36*
X7626350Y-6425844D02*
G01*
X7629398Y-6424879D01*
X7640218Y-6419697D01*
X7650175Y-6412890D01*
X7658963Y-6404711D01*
X7666481Y-6395313D01*
X7672476Y-6384899D01*
X7675880Y-6376314D01*
X7626350Y-6376314D01*
G37*
G36*
X248615Y-6353657D02*
G01*
X251663Y-6352692D01*
X262483Y-6347460D01*
X272440Y-6340703D01*
X281228Y-6332524D01*
X288747Y-6323126D01*
X294741Y-6312712D01*
X298145Y-6304127D01*
X248615Y-6304127D01*
G37*
G36*
X551484Y-6353657D02*
G01*
X551484Y-6304127D01*
X501954Y-6304127D01*
X505358Y-6312712D01*
X511352Y-6323126D01*
X518871Y-6332524D01*
X527659Y-6340703D01*
X537616Y-6347460D01*
X548436Y-6352692D01*
G37*
G36*
X195884Y-6353657D02*
G01*
X195884Y-6304127D01*
X146354Y-6304127D01*
X149758Y-6312712D01*
X155752Y-6323126D01*
X163271Y-6332524D01*
X172059Y-6340703D01*
X182016Y-6347460D01*
X192836Y-6352692D01*
G37*
G36*
X604215Y-6353657D02*
G01*
X607263Y-6352692D01*
X618083Y-6347460D01*
X628040Y-6340703D01*
X636828Y-6332524D01*
X644347Y-6323126D01*
X650341Y-6312712D01*
X653745Y-6304127D01*
X604215Y-6304127D01*
G37*
G36*
X7751419Y-6353657D02*
G01*
X7751419Y-6304127D01*
X7701889Y-6304127D01*
X7705293Y-6312712D01*
X7711287Y-6323126D01*
X7718806Y-6332524D01*
X7727594Y-6340703D01*
X7737551Y-6347460D01*
X7748371Y-6352692D01*
G37*
G36*
X7448550Y-6353657D02*
G01*
X7451598Y-6352692D01*
X7462418Y-6347460D01*
X7472375Y-6340703D01*
X7481163Y-6332524D01*
X7488681Y-6323126D01*
X7494676Y-6312712D01*
X7498080Y-6304127D01*
X7448550Y-6304127D01*
G37*
G36*
X7804150Y-6353657D02*
G01*
X7807198Y-6352692D01*
X7818018Y-6347460D01*
X7827975Y-6340703D01*
X7836763Y-6332524D01*
X7844281Y-6323126D01*
X7850276Y-6312712D01*
X7853680Y-6304127D01*
X7804150Y-6304127D01*
G37*
G36*
X7395819Y-6353657D02*
G01*
X7395819Y-6304127D01*
X7346289Y-6304127D01*
X7349693Y-6312712D01*
X7355687Y-6323126D01*
X7363206Y-6332524D01*
X7371994Y-6340703D01*
X7381951Y-6347460D01*
X7392771Y-6352692D01*
G37*
G36*
X324154Y-6323634D02*
G01*
X373684Y-6323634D01*
X373684Y-6314998D01*
X374497Y-6311087D01*
X376783Y-6307734D01*
X380136Y-6305550D01*
X384149Y-6304889D01*
X405028Y-6305448D01*
X415493Y-6304686D01*
X419608Y-6305194D01*
X423164Y-6307378D01*
X425551Y-6310731D01*
X426415Y-6314795D01*
X426415Y-6323634D01*
X475945Y-6323634D01*
X472541Y-6315049D01*
X467614Y-6306515D01*
X466293Y-6302349D01*
X466851Y-6298031D01*
X469138Y-6294323D01*
X472795Y-6291935D01*
X482142Y-6288379D01*
X484784Y-6287058D01*
X487476Y-6286296D01*
X489254Y-6284874D01*
X499922Y-6279591D01*
X516788Y-6269126D01*
X532587Y-6257036D01*
X535686Y-6254140D01*
X538886Y-6252159D01*
X542594Y-6251448D01*
X551484Y-6251448D01*
X551484Y-6242405D01*
X552145Y-6238798D01*
X554075Y-6235700D01*
X560273Y-6228689D01*
X571957Y-6212586D01*
X582015Y-6195466D01*
X584809Y-6189421D01*
X586333Y-6187389D01*
X586943Y-6184849D01*
X590397Y-6177483D01*
X591972Y-6173012D01*
X594309Y-6169253D01*
X598017Y-6166866D01*
X602386Y-6166256D01*
X606602Y-6167577D01*
X615137Y-6172504D01*
X623722Y-6175857D01*
X623722Y-6126327D01*
X614934Y-6126327D01*
X610920Y-6125514D01*
X607568Y-6123178D01*
X605434Y-6119723D01*
X604774Y-6115710D01*
X605536Y-6100013D01*
X604774Y-6084265D01*
X605434Y-6080252D01*
X607568Y-6076797D01*
X610920Y-6074460D01*
X614934Y-6073648D01*
X623722Y-6073648D01*
X623722Y-6024118D01*
X615137Y-6027470D01*
X606602Y-6032398D01*
X602386Y-6033719D01*
X598017Y-6033109D01*
X594309Y-6030722D01*
X591972Y-6026962D01*
X590397Y-6022492D01*
X586943Y-6015126D01*
X586333Y-6012586D01*
X584809Y-6010554D01*
X582015Y-6004509D01*
X571957Y-5987389D01*
X560273Y-5971286D01*
X554075Y-5964275D01*
X552145Y-5961176D01*
X551484Y-5957570D01*
X551484Y-5948527D01*
X542594Y-5948527D01*
X538886Y-5947816D01*
X535686Y-5945835D01*
X532587Y-5942939D01*
X516788Y-5930849D01*
X499922Y-5920384D01*
X489254Y-5915101D01*
X487476Y-5913678D01*
X484784Y-5912916D01*
X482142Y-5911596D01*
X472795Y-5908040D01*
X469138Y-5905652D01*
X466851Y-5901994D01*
X466293Y-5897626D01*
X467614Y-5893460D01*
X472541Y-5884926D01*
X475945Y-5876340D01*
X426415Y-5876340D01*
X426415Y-5885180D01*
X425551Y-5889244D01*
X423164Y-5892596D01*
X419608Y-5894781D01*
X415493Y-5895289D01*
X405028Y-5894527D01*
X384149Y-5895086D01*
X380136Y-5894425D01*
X376783Y-5892241D01*
X374497Y-5888888D01*
X373684Y-5884976D01*
X373684Y-5876340D01*
X324154Y-5876340D01*
X327558Y-5884926D01*
X332384Y-5893257D01*
X333654Y-5897321D01*
X333197Y-5901537D01*
X331063Y-5905195D01*
X327609Y-5907633D01*
X314858Y-5913221D01*
X312369Y-5913678D01*
X308965Y-5915761D01*
X291642Y-5925413D01*
X275285Y-5936691D01*
X264109Y-5946140D01*
X261010Y-5947918D01*
X257556Y-5948527D01*
X248615Y-5948527D01*
X248615Y-5957214D01*
X248005Y-5960567D01*
X246379Y-5963564D01*
X233781Y-5979210D01*
X222910Y-5995822D01*
X215036Y-6010808D01*
X213614Y-6012484D01*
X213156Y-6014669D01*
X207975Y-6027420D01*
X205536Y-6030976D01*
X201879Y-6033211D01*
X197561Y-6033719D01*
X193497Y-6032398D01*
X184962Y-6027470D01*
X176377Y-6024118D01*
X176377Y-6073648D01*
X185216Y-6073648D01*
X189331Y-6074511D01*
X192735Y-6076950D01*
X194818Y-6080607D01*
X195326Y-6084773D01*
X194818Y-6090056D01*
X194818Y-6109919D01*
X195326Y-6115202D01*
X194818Y-6119368D01*
X192735Y-6123025D01*
X189331Y-6125464D01*
X185216Y-6126327D01*
X176377Y-6126327D01*
X176377Y-6175857D01*
X184962Y-6172504D01*
X193497Y-6167577D01*
X197561Y-6166256D01*
X201879Y-6166764D01*
X205536Y-6168999D01*
X207975Y-6172555D01*
X213156Y-6185306D01*
X213614Y-6187490D01*
X215036Y-6189167D01*
X222910Y-6204153D01*
X233781Y-6220764D01*
X246379Y-6236411D01*
X248005Y-6239408D01*
X248615Y-6242761D01*
X248615Y-6251448D01*
X257556Y-6251448D01*
X261010Y-6252057D01*
X264109Y-6253835D01*
X275285Y-6263284D01*
X291642Y-6274562D01*
X308965Y-6284214D01*
X312369Y-6286296D01*
X314858Y-6286754D01*
X327609Y-6292342D01*
X331063Y-6294780D01*
X333197Y-6298438D01*
X333654Y-6302654D01*
X332384Y-6306718D01*
X327558Y-6315049D01*
G37*
G36*
X7524089Y-6323634D02*
G01*
X7573619Y-6323634D01*
X7573619Y-6314998D01*
X7574432Y-6311087D01*
X7576718Y-6307734D01*
X7580071Y-6305550D01*
X7584084Y-6304889D01*
X7604963Y-6305448D01*
X7615428Y-6304686D01*
X7619542Y-6305194D01*
X7623098Y-6307378D01*
X7625486Y-6310731D01*
X7626350Y-6314795D01*
X7626350Y-6323634D01*
X7675880Y-6323634D01*
X7672476Y-6315049D01*
X7667548Y-6306515D01*
X7666228Y-6302349D01*
X7666786Y-6298031D01*
X7669072Y-6294323D01*
X7672730Y-6291935D01*
X7682077Y-6288379D01*
X7684719Y-6287058D01*
X7687411Y-6286296D01*
X7689189Y-6284874D01*
X7699857Y-6279591D01*
X7716723Y-6269126D01*
X7732522Y-6257036D01*
X7735620Y-6254140D01*
X7738821Y-6252159D01*
X7742529Y-6251448D01*
X7751419Y-6251448D01*
X7751419Y-6242405D01*
X7752080Y-6238798D01*
X7754010Y-6235700D01*
X7760208Y-6228689D01*
X7771892Y-6212586D01*
X7781950Y-6195466D01*
X7784744Y-6189421D01*
X7786268Y-6187389D01*
X7786878Y-6184849D01*
X7790332Y-6177483D01*
X7791907Y-6173012D01*
X7794244Y-6169253D01*
X7797952Y-6166866D01*
X7802321Y-6166256D01*
X7806537Y-6167577D01*
X7815072Y-6172504D01*
X7823657Y-6175857D01*
X7823657Y-6126327D01*
X7814868Y-6126327D01*
X7810855Y-6125514D01*
X7807502Y-6123178D01*
X7805369Y-6119723D01*
X7804708Y-6115710D01*
X7805470Y-6100013D01*
X7804708Y-6084265D01*
X7805369Y-6080252D01*
X7807502Y-6076797D01*
X7810855Y-6074460D01*
X7814868Y-6073648D01*
X7823657Y-6073648D01*
X7823657Y-6024118D01*
X7815072Y-6027470D01*
X7806537Y-6032398D01*
X7802321Y-6033719D01*
X7797952Y-6033109D01*
X7794244Y-6030722D01*
X7791907Y-6026962D01*
X7790332Y-6022492D01*
X7786878Y-6015126D01*
X7786268Y-6012586D01*
X7784744Y-6010554D01*
X7781950Y-6004509D01*
X7771892Y-5987389D01*
X7760208Y-5971286D01*
X7754010Y-5964275D01*
X7752080Y-5961176D01*
X7751419Y-5957570D01*
X7751419Y-5948527D01*
X7742529Y-5948527D01*
X7738821Y-5947816D01*
X7735620Y-5945835D01*
X7732522Y-5942939D01*
X7716723Y-5930849D01*
X7699857Y-5920384D01*
X7689189Y-5915101D01*
X7687411Y-5913678D01*
X7684719Y-5912916D01*
X7682077Y-5911596D01*
X7672730Y-5908040D01*
X7669072Y-5905652D01*
X7666786Y-5901994D01*
X7666228Y-5897626D01*
X7667548Y-5893460D01*
X7672476Y-5884926D01*
X7675880Y-5876340D01*
X7626350Y-5876340D01*
X7626350Y-5885180D01*
X7625486Y-5889244D01*
X7623098Y-5892596D01*
X7619542Y-5894781D01*
X7615428Y-5895289D01*
X7604963Y-5894527D01*
X7584084Y-5895086D01*
X7580071Y-5894425D01*
X7576718Y-5892241D01*
X7574432Y-5888888D01*
X7573619Y-5884976D01*
X7573619Y-5876340D01*
X7524089Y-5876340D01*
X7527493Y-5884926D01*
X7532319Y-5893257D01*
X7533589Y-5897321D01*
X7533131Y-5901537D01*
X7530998Y-5905195D01*
X7527544Y-5907633D01*
X7514793Y-5913221D01*
X7512303Y-5913678D01*
X7508900Y-5915761D01*
X7491577Y-5925413D01*
X7475220Y-5936691D01*
X7464044Y-5946140D01*
X7460945Y-5947918D01*
X7457490Y-5948527D01*
X7448550Y-5948527D01*
X7448550Y-5957214D01*
X7447940Y-5960567D01*
X7446314Y-5963564D01*
X7433716Y-5979210D01*
X7422845Y-5995822D01*
X7414971Y-6010808D01*
X7413548Y-6012484D01*
X7413091Y-6014669D01*
X7407909Y-6027420D01*
X7405471Y-6030976D01*
X7401814Y-6033211D01*
X7397496Y-6033719D01*
X7393431Y-6032398D01*
X7384897Y-6027470D01*
X7376312Y-6024118D01*
X7376312Y-6073648D01*
X7385151Y-6073648D01*
X7389266Y-6074511D01*
X7392670Y-6076950D01*
X7394752Y-6080607D01*
X7395260Y-6084773D01*
X7394752Y-6090056D01*
X7394752Y-6109919D01*
X7395260Y-6115202D01*
X7394752Y-6119368D01*
X7392670Y-6123025D01*
X7389266Y-6125464D01*
X7385151Y-6126327D01*
X7376312Y-6126327D01*
X7376312Y-6175857D01*
X7384897Y-6172504D01*
X7393431Y-6167577D01*
X7397496Y-6166256D01*
X7401814Y-6166764D01*
X7405471Y-6168999D01*
X7407909Y-6172555D01*
X7413091Y-6185306D01*
X7413548Y-6187490D01*
X7414971Y-6189167D01*
X7422845Y-6204153D01*
X7433716Y-6220764D01*
X7446314Y-6236411D01*
X7447940Y-6239408D01*
X7448550Y-6242761D01*
X7448550Y-6251448D01*
X7457490Y-6251448D01*
X7460945Y-6252057D01*
X7464044Y-6253835D01*
X7475220Y-6263284D01*
X7491577Y-6274562D01*
X7508900Y-6284214D01*
X7512303Y-6286296D01*
X7514793Y-6286754D01*
X7527544Y-6292342D01*
X7530998Y-6294780D01*
X7533131Y-6298438D01*
X7533589Y-6302654D01*
X7532319Y-6306718D01*
X7527493Y-6315049D01*
G37*
G36*
X604215Y-6251448D02*
G01*
X653745Y-6251448D01*
X650341Y-6242862D01*
X644347Y-6232448D01*
X636828Y-6223050D01*
X628040Y-6214872D01*
X618083Y-6208115D01*
X607263Y-6202883D01*
X604215Y-6201918D01*
G37*
G36*
X146354Y-6251448D02*
G01*
X195884Y-6251448D01*
X195884Y-6201918D01*
X192836Y-6202883D01*
X182016Y-6208115D01*
X172059Y-6214872D01*
X163271Y-6223050D01*
X155752Y-6232448D01*
X149758Y-6242862D01*
G37*
G36*
X7346289Y-6251448D02*
G01*
X7395819Y-6251448D01*
X7395819Y-6201918D01*
X7392771Y-6202883D01*
X7381951Y-6208115D01*
X7371994Y-6214872D01*
X7363206Y-6223050D01*
X7355687Y-6232448D01*
X7349693Y-6242862D01*
G37*
G36*
X7804150Y-6251448D02*
G01*
X7853680Y-6251448D01*
X7850276Y-6242862D01*
X7844281Y-6232448D01*
X7836763Y-6223050D01*
X7827975Y-6214872D01*
X7818018Y-6208115D01*
X7807198Y-6202883D01*
X7804150Y-6201918D01*
G37*
G36*
X676402Y-6175857D02*
G01*
X684987Y-6172504D01*
X695401Y-6166459D01*
X704799Y-6158992D01*
X712978Y-6150152D01*
X719734Y-6140246D01*
X724966Y-6129375D01*
X725932Y-6126327D01*
X676402Y-6126327D01*
G37*
G36*
X123698Y-6175857D02*
G01*
X123698Y-6126327D01*
X74168Y-6126327D01*
X75133Y-6129375D01*
X80365Y-6140246D01*
X87122Y-6150152D01*
X95300Y-6158992D01*
X104698Y-6166459D01*
X115112Y-6172504D01*
G37*
G36*
X7323632Y-6175857D02*
G01*
X7323632Y-6126327D01*
X7274102Y-6126327D01*
X7275068Y-6129375D01*
X7280300Y-6140246D01*
X7287056Y-6150152D01*
X7295235Y-6158992D01*
X7304633Y-6166459D01*
X7315047Y-6172504D01*
G37*
G36*
X7876336Y-6175857D02*
G01*
X7884922Y-6172504D01*
X7895336Y-6166459D01*
X7904734Y-6158992D01*
X7912912Y-6150152D01*
X7919669Y-6140246D01*
X7924901Y-6129375D01*
X7925866Y-6126327D01*
X7876336Y-6126327D01*
G37*
G36*
X3954373Y-6152946D02*
G01*
X3954373Y-6080760D01*
X3882237Y-6080760D01*
X3884625Y-6086398D01*
X3892499Y-6100368D01*
X3901948Y-6113322D01*
X3912768Y-6125159D01*
X3924909Y-6135674D01*
X3938168Y-6144717D01*
X3952341Y-6152184D01*
G37*
G36*
X5864352Y-6152946D02*
G01*
X5864352Y-6080760D01*
X5792216Y-6080760D01*
X5794603Y-6086398D01*
X5802528Y-6100368D01*
X5811926Y-6113322D01*
X5822797Y-6125159D01*
X5834888Y-6135674D01*
X5848146Y-6144717D01*
X5862320Y-6152184D01*
G37*
G36*
X5977026Y-6152845D02*
G01*
X5986272Y-6148628D01*
X5999988Y-6140348D01*
X6012688Y-6130594D01*
X6024219Y-6119368D01*
X6034379Y-6106972D01*
X6043015Y-6093460D01*
X6049314Y-6080760D01*
X5977026Y-6080760D01*
G37*
G36*
X4067048Y-6152845D02*
G01*
X4076242Y-6148628D01*
X4090009Y-6140348D01*
X4102709Y-6130594D01*
X4114190Y-6119368D01*
X4124350Y-6106972D01*
X4133037Y-6093460D01*
X4139285Y-6080760D01*
X4067048Y-6080760D01*
G37*
G36*
X676402Y-6073648D02*
G01*
X725932Y-6073648D01*
X724966Y-6070600D01*
X719734Y-6059728D01*
X712978Y-6049822D01*
X704799Y-6040983D01*
X695401Y-6033516D01*
X684987Y-6027470D01*
X676402Y-6024118D01*
G37*
G36*
X7274102Y-6073648D02*
G01*
X7323632Y-6073648D01*
X7323632Y-6024118D01*
X7315047Y-6027470D01*
X7304633Y-6033516D01*
X7295235Y-6040983D01*
X7287056Y-6049822D01*
X7280300Y-6059728D01*
X7275068Y-6070600D01*
G37*
G36*
X74168Y-6073648D02*
G01*
X123698Y-6073648D01*
X123698Y-6024118D01*
X115112Y-6027470D01*
X104698Y-6033516D01*
X95300Y-6040983D01*
X87122Y-6049822D01*
X80365Y-6059728D01*
X75133Y-6070600D01*
G37*
G36*
X7876336Y-6073648D02*
G01*
X7925866Y-6073648D01*
X7924901Y-6070600D01*
X7919669Y-6059728D01*
X7912912Y-6049822D01*
X7904734Y-6040983D01*
X7895336Y-6033516D01*
X7884922Y-6027470D01*
X7876336Y-6024118D01*
G37*
G36*
X604215Y-5998057D02*
G01*
X607263Y-5997092D01*
X618083Y-5991860D01*
X628040Y-5985103D01*
X636828Y-5976924D01*
X644347Y-5967526D01*
X650341Y-5957112D01*
X653745Y-5948527D01*
X604215Y-5948527D01*
G37*
G36*
X195884Y-5998057D02*
G01*
X195884Y-5948527D01*
X146354Y-5948527D01*
X149758Y-5957112D01*
X155752Y-5967526D01*
X163271Y-5976924D01*
X172059Y-5985103D01*
X182016Y-5991860D01*
X192836Y-5997092D01*
G37*
G36*
X7395819Y-5998057D02*
G01*
X7395819Y-5948527D01*
X7346289Y-5948527D01*
X7349693Y-5957112D01*
X7355687Y-5967526D01*
X7363206Y-5976924D01*
X7371994Y-5985103D01*
X7381951Y-5991860D01*
X7392771Y-5997092D01*
G37*
G36*
X7804150Y-5998057D02*
G01*
X7807198Y-5997092D01*
X7818018Y-5991860D01*
X7827975Y-5985103D01*
X7836763Y-5976924D01*
X7844281Y-5967526D01*
X7850276Y-5957112D01*
X7853680Y-5948527D01*
X7804150Y-5948527D01*
G37*
G36*
X5792216Y-5968034D02*
G01*
X5864352Y-5968034D01*
X5864352Y-5826760D01*
X5792216Y-5826760D01*
X5794603Y-5832398D01*
X5802528Y-5846368D01*
X5811926Y-5859322D01*
X5822797Y-5871159D01*
X5834888Y-5881674D01*
X5845657Y-5888990D01*
X5848400Y-5891784D01*
X5849924Y-5895441D01*
X5849924Y-5899353D01*
X5848400Y-5903010D01*
X5845657Y-5905804D01*
X5834888Y-5913120D01*
X5822797Y-5923635D01*
X5811926Y-5935472D01*
X5802528Y-5948426D01*
X5794603Y-5962396D01*
G37*
G36*
X3882237Y-5968034D02*
G01*
X3954373Y-5968034D01*
X3954373Y-5826760D01*
X3882237Y-5826760D01*
X3884625Y-5832398D01*
X3892499Y-5846368D01*
X3901948Y-5859322D01*
X3912768Y-5871159D01*
X3924909Y-5881674D01*
X3935679Y-5888990D01*
X3938422Y-5891784D01*
X3939895Y-5895441D01*
X3939895Y-5899353D01*
X3938422Y-5903010D01*
X3935679Y-5905804D01*
X3924909Y-5913120D01*
X3912768Y-5923635D01*
X3901948Y-5935472D01*
X3892499Y-5948426D01*
X3884625Y-5962396D01*
G37*
G36*
X4067048Y-5968034D02*
G01*
X4139285Y-5968034D01*
X4133037Y-5955334D01*
X4124350Y-5941822D01*
X4114190Y-5929376D01*
X4102709Y-5918200D01*
X4090009Y-5908446D01*
X4086148Y-5906109D01*
X4083100Y-5903264D01*
X4081424Y-5899454D01*
X4081424Y-5895340D01*
X4083100Y-5891530D01*
X4086148Y-5888685D01*
X4090009Y-5886348D01*
X4102709Y-5876594D01*
X4114190Y-5865418D01*
X4124350Y-5852972D01*
X4133037Y-5839460D01*
X4139285Y-5826760D01*
X4067048Y-5826760D01*
G37*
G36*
X5977026Y-5968034D02*
G01*
X6049314Y-5968034D01*
X6043015Y-5955334D01*
X6034379Y-5941822D01*
X6024219Y-5929376D01*
X6012688Y-5918200D01*
X5999988Y-5908446D01*
X5996127Y-5906109D01*
X5993079Y-5903264D01*
X5991453Y-5899454D01*
X5991453Y-5895340D01*
X5993079Y-5891530D01*
X5996127Y-5888685D01*
X5999988Y-5886348D01*
X6012688Y-5876594D01*
X6024219Y-5865418D01*
X6034379Y-5852972D01*
X6043015Y-5839460D01*
X6049314Y-5826760D01*
X5977026Y-5826760D01*
G37*
G36*
X1119936Y-5954471D02*
G01*
X1140663Y-5954471D01*
X1161237Y-5952591D01*
X1181608Y-5948934D01*
X1201521Y-5943396D01*
X1220876Y-5936132D01*
X1239520Y-5927191D01*
X1257300Y-5916574D01*
X1274013Y-5904433D01*
X1289608Y-5890818D01*
X1303883Y-5875832D01*
X1316786Y-5859678D01*
X1328166Y-5842406D01*
X1337970Y-5824220D01*
X1343660Y-5810859D01*
X1345895Y-5807608D01*
X1349146Y-5805474D01*
X1353007Y-5804712D01*
X1409395Y-5804712D01*
X1425448Y-5803798D01*
X1440942Y-5801156D01*
X1456080Y-5796788D01*
X1470660Y-5790793D01*
X1484426Y-5783173D01*
X1497279Y-5774029D01*
X1509268Y-5763361D01*
X2093061Y-5179568D01*
X2103729Y-5167579D01*
X2112873Y-5154726D01*
X2120493Y-5140960D01*
X2126488Y-5126380D01*
X2130856Y-5111242D01*
X2133498Y-5095748D01*
X2134412Y-5079695D01*
X2134412Y-4813604D01*
X2133498Y-4797552D01*
X2130856Y-4782058D01*
X2126488Y-4766919D01*
X2120493Y-4752340D01*
X2112873Y-4738573D01*
X2103729Y-4725720D01*
X2092960Y-4713630D01*
X1981047Y-4601870D01*
X1749501Y-4305604D01*
X1748231Y-4303420D01*
X1747469Y-4301032D01*
X1745132Y-4287113D01*
X1740763Y-4271975D01*
X1734718Y-4257395D01*
X1727098Y-4243628D01*
X1718005Y-4230776D01*
X1707489Y-4219041D01*
X1695754Y-4208526D01*
X1682902Y-4199382D01*
X1669084Y-4191762D01*
X1654556Y-4185767D01*
X1639417Y-4181398D01*
X1623872Y-4178757D01*
X1608175Y-4177893D01*
X1592427Y-4178757D01*
X1576882Y-4181398D01*
X1561744Y-4185767D01*
X1547215Y-4191762D01*
X1533398Y-4199382D01*
X1520545Y-4208526D01*
X1508810Y-4219041D01*
X1498295Y-4230776D01*
X1489202Y-4243628D01*
X1481582Y-4257395D01*
X1475536Y-4271975D01*
X1471168Y-4287113D01*
X1468526Y-4302658D01*
X1467662Y-4318660D01*
X1467662Y-4538065D01*
X1468526Y-4554067D01*
X1471168Y-4569612D01*
X1475536Y-4584750D01*
X1481582Y-4599330D01*
X1489202Y-4613097D01*
X1498295Y-4625949D01*
X1508810Y-4637684D01*
X1520545Y-4648200D01*
X1533398Y-4657344D01*
X1547215Y-4664964D01*
X1561744Y-4670958D01*
X1576882Y-4675327D01*
X1592427Y-4677968D01*
X1608175Y-4678832D01*
X1623872Y-4677968D01*
X1639417Y-4675327D01*
X1647139Y-4673092D01*
X1650695Y-4672736D01*
X1654149Y-4673650D01*
X1657096Y-4675682D01*
X1850389Y-4868621D01*
X1852625Y-4871923D01*
X1853387Y-4875784D01*
X1853387Y-5017566D01*
X1852625Y-5021478D01*
X1850440Y-5024780D01*
X1358493Y-5516727D01*
X1355191Y-5518912D01*
X1351330Y-5519674D01*
X1347470Y-5518912D01*
X1344168Y-5516778D01*
X1341932Y-5513527D01*
X1337970Y-5504180D01*
X1328166Y-5485993D01*
X1316786Y-5468721D01*
X1303883Y-5452567D01*
X1289608Y-5437581D01*
X1274013Y-5423966D01*
X1257300Y-5411825D01*
X1239520Y-5401208D01*
X1220876Y-5392267D01*
X1201521Y-5385003D01*
X1181608Y-5379466D01*
X1161237Y-5375808D01*
X1140663Y-5373928D01*
X1119936Y-5373928D01*
X1099362Y-5375808D01*
X1078992Y-5379466D01*
X1059078Y-5385003D01*
X1039723Y-5392267D01*
X1021080Y-5401208D01*
X1003300Y-5411825D01*
X986586Y-5423966D01*
X970991Y-5437581D01*
X956716Y-5452567D01*
X943813Y-5468721D01*
X932434Y-5485993D01*
X922629Y-5504180D01*
X914501Y-5523230D01*
X908100Y-5542889D01*
X903528Y-5563057D01*
X900734Y-5583529D01*
X899769Y-5604408D01*
X899769Y-5723991D01*
X900734Y-5744870D01*
X903528Y-5765342D01*
X908100Y-5785510D01*
X914501Y-5805170D01*
X922629Y-5824220D01*
X932434Y-5842406D01*
X943813Y-5859678D01*
X956716Y-5875832D01*
X970991Y-5890818D01*
X986586Y-5904433D01*
X1003300Y-5916574D01*
X1021080Y-5927191D01*
X1039723Y-5936132D01*
X1059078Y-5943396D01*
X1078992Y-5948934D01*
X1099362Y-5952591D01*
G37*
G36*
X3278936Y-5954471D02*
G01*
X3299663Y-5954471D01*
X3320237Y-5952591D01*
X3340608Y-5948934D01*
X3360521Y-5943396D01*
X3379876Y-5936132D01*
X3398520Y-5927191D01*
X3416300Y-5916574D01*
X3433013Y-5904433D01*
X3448608Y-5890818D01*
X3462883Y-5875832D01*
X3475786Y-5859678D01*
X3487165Y-5842406D01*
X3496970Y-5824220D01*
X3505098Y-5805170D01*
X3511499Y-5785510D01*
X3516071Y-5765342D01*
X3518865Y-5744870D01*
X3519830Y-5723991D01*
X3519830Y-5604408D01*
X3518865Y-5583529D01*
X3516071Y-5563057D01*
X3511499Y-5542889D01*
X3505098Y-5523230D01*
X3496970Y-5504180D01*
X3487165Y-5485993D01*
X3475786Y-5468721D01*
X3462883Y-5452567D01*
X3448608Y-5437581D01*
X3433013Y-5423966D01*
X3416300Y-5411825D01*
X3398520Y-5401208D01*
X3379876Y-5392267D01*
X3360521Y-5385003D01*
X3340608Y-5379466D01*
X3320237Y-5375808D01*
X3299663Y-5373928D01*
X3278936Y-5373928D01*
X3258362Y-5375808D01*
X3237992Y-5379466D01*
X3218078Y-5385003D01*
X3198723Y-5392267D01*
X3180080Y-5401208D01*
X3162300Y-5411825D01*
X3145586Y-5423966D01*
X3129991Y-5437581D01*
X3115716Y-5452567D01*
X3102813Y-5468721D01*
X3099257Y-5474106D01*
X3096056Y-5477205D01*
X3091789Y-5478627D01*
X3087370Y-5478068D01*
X3083610Y-5475681D01*
X2645359Y-5037480D01*
X2643174Y-5034178D01*
X2642412Y-5030266D01*
X2642412Y-4609033D01*
X2643174Y-4605121D01*
X2645359Y-4601819D01*
X2887319Y-4359859D01*
X2890621Y-4357674D01*
X2894533Y-4356912D01*
X3471672Y-4356912D01*
X3475532Y-4357674D01*
X3478834Y-4359859D01*
X3481019Y-4363161D01*
X3481832Y-4367072D01*
X3481019Y-4370933D01*
X3478834Y-4374235D01*
X3355238Y-4497832D01*
X3344570Y-4509820D01*
X3335426Y-4522673D01*
X3327806Y-4536440D01*
X3321812Y-4551019D01*
X3317443Y-4566158D01*
X3314801Y-4581652D01*
X3313887Y-4597704D01*
X3313887Y-4939995D01*
X3314801Y-4956048D01*
X3317443Y-4971542D01*
X3321812Y-4986680D01*
X3327806Y-5001260D01*
X3335426Y-5015026D01*
X3344570Y-5027879D01*
X3355238Y-5039868D01*
X3672332Y-5356961D01*
X3684320Y-5367629D01*
X3697173Y-5376773D01*
X3710940Y-5384393D01*
X3725519Y-5390388D01*
X3740658Y-5394756D01*
X3756151Y-5397398D01*
X3772204Y-5398312D01*
X4546295Y-5398312D01*
X4562348Y-5397398D01*
X4577842Y-5394756D01*
X4592980Y-5390388D01*
X4607560Y-5384393D01*
X4621326Y-5376773D01*
X4634179Y-5367629D01*
X4646168Y-5356961D01*
X5215991Y-4787087D01*
X5219293Y-4784902D01*
X5223205Y-4784090D01*
X5770372Y-4784090D01*
X5774486Y-4785004D01*
X5777890Y-4787442D01*
X5780024Y-4791100D01*
X5780481Y-4795266D01*
X5780176Y-4798110D01*
X5780176Y-4997094D01*
X5781040Y-5005476D01*
X5783326Y-5013096D01*
X5787034Y-5020056D01*
X5792063Y-5026202D01*
X5798210Y-5031232D01*
X5805220Y-5034991D01*
X5812790Y-5037277D01*
X5821172Y-5038090D01*
X6020206Y-5038090D01*
X6028588Y-5037277D01*
X6036157Y-5034991D01*
X6043168Y-5031232D01*
X6049314Y-5026202D01*
X6054344Y-5020056D01*
X6058052Y-5013096D01*
X6060389Y-5005476D01*
X6061202Y-4997094D01*
X6061202Y-4798517D01*
X6061964Y-4794656D01*
X6064199Y-4791354D01*
X6067501Y-4789170D01*
X6071362Y-4788357D01*
X6075273Y-4789170D01*
X6078524Y-4791354D01*
X6143040Y-4855819D01*
X6145225Y-4859121D01*
X6145987Y-4863033D01*
X6145987Y-5028895D01*
X6146901Y-5044948D01*
X6149543Y-5060442D01*
X6153912Y-5075580D01*
X6159906Y-5090160D01*
X6167526Y-5103926D01*
X6176670Y-5116779D01*
X6187338Y-5128768D01*
X6339332Y-5280761D01*
X6351320Y-5291429D01*
X6364173Y-5300573D01*
X6377940Y-5308193D01*
X6392519Y-5314188D01*
X6407658Y-5318556D01*
X6423152Y-5321198D01*
X6439204Y-5322112D01*
X7012127Y-5322112D01*
X7016038Y-5322874D01*
X7019340Y-5325059D01*
X7021525Y-5328361D01*
X7022287Y-5332272D01*
X7022287Y-5451043D01*
X7021372Y-5455259D01*
X7018781Y-5458714D01*
X7014972Y-5460796D01*
X7010653Y-5461050D01*
X7006590Y-5459526D01*
X7003186Y-5455920D01*
X6993839Y-5444642D01*
X6983171Y-5434584D01*
X6971334Y-5425998D01*
X6958482Y-5418937D01*
X6944868Y-5413502D01*
X6930644Y-5409895D01*
X6916115Y-5408066D01*
X6901484Y-5408066D01*
X6886956Y-5409895D01*
X6872731Y-5413502D01*
X6859117Y-5418937D01*
X6846265Y-5425998D01*
X6834428Y-5434584D01*
X6823760Y-5444642D01*
X6814413Y-5455920D01*
X6806539Y-5468264D01*
X6800291Y-5481523D01*
X6795770Y-5495493D01*
X6793026Y-5509869D01*
X6792112Y-5524500D01*
X6793026Y-5539130D01*
X6795770Y-5553506D01*
X6800291Y-5567476D01*
X6806539Y-5580735D01*
X6814413Y-5593080D01*
X6823760Y-5604357D01*
X6834428Y-5614416D01*
X6846265Y-5623001D01*
X6859117Y-5630062D01*
X6872731Y-5635498D01*
X6886956Y-5639104D01*
X6901484Y-5640933D01*
X6916115Y-5640933D01*
X6930644Y-5639104D01*
X6944868Y-5635498D01*
X6958482Y-5630062D01*
X6971334Y-5623001D01*
X6983171Y-5614416D01*
X6993839Y-5604357D01*
X7003186Y-5593080D01*
X7011060Y-5580735D01*
X7013600Y-5575300D01*
X7015886Y-5572150D01*
X7019188Y-5570118D01*
X7023049Y-5569458D01*
X7026859Y-5570270D01*
X7030059Y-5572506D01*
X7032193Y-5575706D01*
X7036206Y-5585460D01*
X7046010Y-5602884D01*
X7046925Y-5608574D01*
X7049211Y-5616194D01*
X7052970Y-5623153D01*
X7057999Y-5629300D01*
X7064146Y-5634329D01*
X7071106Y-5638088D01*
X7078725Y-5640374D01*
X7084415Y-5641289D01*
X7101840Y-5651093D01*
X7116419Y-5657088D01*
X7131558Y-5661456D01*
X7147052Y-5664098D01*
X7162800Y-5665012D01*
X7178548Y-5664098D01*
X7194042Y-5661456D01*
X7209180Y-5657088D01*
X7223759Y-5651093D01*
X7241184Y-5641289D01*
X7246874Y-5640374D01*
X7254494Y-5638088D01*
X7261453Y-5634329D01*
X7267600Y-5629300D01*
X7272629Y-5623153D01*
X7276388Y-5616194D01*
X7278674Y-5608574D01*
X7279589Y-5602884D01*
X7289393Y-5585460D01*
X7293406Y-5575706D01*
X7295540Y-5572506D01*
X7298740Y-5570270D01*
X7302550Y-5569458D01*
X7306411Y-5570118D01*
X7309713Y-5572150D01*
X7311999Y-5575300D01*
X7314539Y-5580735D01*
X7322413Y-5593080D01*
X7331760Y-5604357D01*
X7342428Y-5614416D01*
X7354265Y-5623001D01*
X7367117Y-5630062D01*
X7372350Y-5632145D01*
X7372350Y-5568950D01*
X7309459Y-5568950D01*
X7305802Y-5568238D01*
X7302601Y-5566308D01*
X7300366Y-5563311D01*
X7299350Y-5559704D01*
X7299756Y-5555742D01*
X7302398Y-5540248D01*
X7303312Y-5524195D01*
X7303312Y-5490210D01*
X7304074Y-5486298D01*
X7306259Y-5483047D01*
X7309561Y-5480812D01*
X7313472Y-5480050D01*
X7372350Y-5480050D01*
X7372350Y-5416854D01*
X7367117Y-5418937D01*
X7354265Y-5425998D01*
X7342428Y-5434584D01*
X7331760Y-5444642D01*
X7322058Y-5456478D01*
X7319009Y-5459526D01*
X7314946Y-5461050D01*
X7310628Y-5460796D01*
X7306818Y-5458714D01*
X7304227Y-5455259D01*
X7303312Y-5451043D01*
X7303312Y-5013756D01*
X7304227Y-5009540D01*
X7306818Y-5006086D01*
X7310628Y-5004003D01*
X7314946Y-5003749D01*
X7319009Y-5005273D01*
X7322413Y-5008880D01*
X7331760Y-5020157D01*
X7342428Y-5030216D01*
X7354265Y-5038801D01*
X7367117Y-5045862D01*
X7372350Y-5047945D01*
X7372350Y-4984750D01*
X7313472Y-4984750D01*
X7309561Y-4983988D01*
X7306259Y-4981752D01*
X7304074Y-4978501D01*
X7303312Y-4974590D01*
X7303312Y-4940604D01*
X7302398Y-4924552D01*
X7299706Y-4908804D01*
X7299350Y-4905095D01*
X7300366Y-4901488D01*
X7302601Y-4898491D01*
X7305802Y-4896561D01*
X7309459Y-4895850D01*
X7372350Y-4895850D01*
X7372350Y-4832654D01*
X7367117Y-4834737D01*
X7354265Y-4841798D01*
X7342428Y-4850384D01*
X7331760Y-4860442D01*
X7322413Y-4871720D01*
X7314539Y-4884064D01*
X7311999Y-4889500D01*
X7309713Y-4892649D01*
X7306411Y-4894681D01*
X7302550Y-4895342D01*
X7298740Y-4894529D01*
X7295540Y-4892294D01*
X7293406Y-4889093D01*
X7289393Y-4879340D01*
X7279589Y-4861915D01*
X7278674Y-4856226D01*
X7276388Y-4848606D01*
X7272629Y-4841646D01*
X7267600Y-4835499D01*
X7261453Y-4830470D01*
X7254494Y-4826711D01*
X7246874Y-4824425D01*
X7241184Y-4823510D01*
X7223759Y-4813706D01*
X7209180Y-4807712D01*
X7194042Y-4803343D01*
X7178548Y-4800701D01*
X7162800Y-4799787D01*
X7147052Y-4800701D01*
X7131558Y-4803343D01*
X7116419Y-4807712D01*
X7101840Y-4813706D01*
X7084415Y-4823510D01*
X7078725Y-4824425D01*
X7071106Y-4826711D01*
X7064146Y-4830470D01*
X7057999Y-4835499D01*
X7052970Y-4841646D01*
X7049211Y-4848606D01*
X7046925Y-4856226D01*
X7046010Y-4861915D01*
X7036206Y-4879340D01*
X7032193Y-4889093D01*
X7030059Y-4892294D01*
X7026859Y-4894529D01*
X7023049Y-4895342D01*
X7019188Y-4894681D01*
X7015886Y-4892649D01*
X7013600Y-4889500D01*
X7011060Y-4884064D01*
X7003135Y-4871618D01*
X6966508Y-4825238D01*
X6964883Y-4822291D01*
X6964324Y-4818938D01*
X6964324Y-4738878D01*
X6965086Y-4735017D01*
X6967270Y-4731715D01*
X7062216Y-4636820D01*
X7065619Y-4633061D01*
X7068566Y-4629251D01*
X7071156Y-4625136D01*
X7073392Y-4620869D01*
X7075271Y-4616399D01*
X7076694Y-4611776D01*
X7077760Y-4607052D01*
X7078370Y-4602226D01*
X7078624Y-4597196D01*
X7078624Y-4356303D01*
X7078370Y-4351274D01*
X7077760Y-4346448D01*
X7076694Y-4341723D01*
X7075271Y-4337100D01*
X7073392Y-4332630D01*
X7071156Y-4328363D01*
X7068566Y-4324248D01*
X7065619Y-4320438D01*
X7062216Y-4316679D01*
X6899198Y-4153712D01*
X6897166Y-4150817D01*
X6896252Y-4147413D01*
X6891324Y-4087622D01*
X6895541Y-4025493D01*
X6896303Y-4022293D01*
X6897471Y-4019499D01*
X6898894Y-4014876D01*
X6899960Y-4010151D01*
X6900570Y-4005326D01*
X6900824Y-4000296D01*
X6900824Y-2806903D01*
X6900570Y-2801874D01*
X6899960Y-2797048D01*
X6898894Y-2792323D01*
X6897471Y-2787700D01*
X6895592Y-2783230D01*
X6893356Y-2778963D01*
X6890766Y-2774848D01*
X6887819Y-2771038D01*
X6884416Y-2767279D01*
X6579920Y-2462784D01*
X6576161Y-2459380D01*
X6572351Y-2456434D01*
X6568236Y-2453843D01*
X6563969Y-2451608D01*
X6559499Y-2449728D01*
X6554876Y-2448306D01*
X6550152Y-2447239D01*
X6545326Y-2446629D01*
X6540296Y-2446375D01*
X6123178Y-2446375D01*
X6119317Y-2445613D01*
X6116015Y-2443429D01*
X5805220Y-2132584D01*
X5801461Y-2129180D01*
X5797651Y-2126234D01*
X5793536Y-2123643D01*
X5789269Y-2121408D01*
X5784799Y-2119528D01*
X5780176Y-2118106D01*
X5775452Y-2117039D01*
X5770626Y-2116429D01*
X5765596Y-2116175D01*
X4646676Y-2116175D01*
X4642815Y-2115413D01*
X4639513Y-2113229D01*
X3670503Y-1144168D01*
X3668268Y-1140917D01*
X3667506Y-1137056D01*
X3668268Y-1133195D01*
X3670401Y-1129893D01*
X3673652Y-1127658D01*
X3677513Y-1126845D01*
X3681425Y-1127556D01*
X3685387Y-1129131D01*
X3699459Y-1132738D01*
X3713835Y-1134567D01*
X3728364Y-1134567D01*
X3742740Y-1132738D01*
X3756812Y-1129131D01*
X3770274Y-1123797D01*
X3782974Y-1116787D01*
X3794709Y-1108303D01*
X3805275Y-1098346D01*
X3814521Y-1087170D01*
X3822293Y-1074928D01*
X3828491Y-1061821D01*
X3832961Y-1048003D01*
X3835654Y-1033780D01*
X3836568Y-1019302D01*
X3835654Y-1004824D01*
X3832961Y-990600D01*
X3828491Y-976782D01*
X3822293Y-963676D01*
X3814521Y-951433D01*
X3805275Y-940257D01*
X3794709Y-930300D01*
X3782974Y-921816D01*
X3770274Y-914806D01*
X3756812Y-909472D01*
X3742740Y-905865D01*
X3728364Y-904036D01*
X3713835Y-904036D01*
X3699459Y-905865D01*
X3685387Y-909472D01*
X3671925Y-914806D01*
X3659225Y-921816D01*
X3647490Y-930300D01*
X3636924Y-940257D01*
X3627678Y-951433D01*
X3619906Y-963676D01*
X3613708Y-976782D01*
X3609238Y-990600D01*
X3606546Y-1004824D01*
X3605631Y-1019302D01*
X3606546Y-1033780D01*
X3609238Y-1048003D01*
X3612946Y-1059484D01*
X3613404Y-1063955D01*
X3611829Y-1068171D01*
X3608628Y-1071321D01*
X3604361Y-1072743D01*
X3599891Y-1072235D01*
X3596132Y-1069797D01*
X3590950Y-1064666D01*
X3588969Y-1061923D01*
X3588054Y-1058672D01*
X3581704Y-1004976D01*
X3578961Y-990600D01*
X3574491Y-976782D01*
X3568293Y-963676D01*
X3560521Y-951433D01*
X3551275Y-940257D01*
X3540709Y-930300D01*
X3528974Y-921816D01*
X3516274Y-914806D01*
X3502812Y-909472D01*
X3488740Y-905865D01*
X3474364Y-904036D01*
X3459835Y-904036D01*
X3445459Y-905865D01*
X3431387Y-909472D01*
X3417925Y-914806D01*
X3405225Y-921816D01*
X3393490Y-930300D01*
X3382924Y-940257D01*
X3373678Y-951433D01*
X3365906Y-963676D01*
X3359708Y-976782D01*
X3355238Y-990600D01*
X3352546Y-1004824D01*
X3351631Y-1019302D01*
X3352546Y-1033780D01*
X3355238Y-1048003D01*
X3358946Y-1059484D01*
X3359404Y-1063955D01*
X3357829Y-1068171D01*
X3354628Y-1071321D01*
X3350361Y-1072743D01*
X3345891Y-1072235D01*
X3342132Y-1069797D01*
X3336950Y-1064666D01*
X3334969Y-1061923D01*
X3334054Y-1058672D01*
X3327704Y-1004976D01*
X3324961Y-990600D01*
X3320491Y-976782D01*
X3314293Y-963676D01*
X3306521Y-951433D01*
X3297275Y-940257D01*
X3286709Y-930300D01*
X3274974Y-921816D01*
X3262274Y-914806D01*
X3248812Y-909472D01*
X3234740Y-905865D01*
X3220364Y-904036D01*
X3205835Y-904036D01*
X3191459Y-905865D01*
X3177387Y-909472D01*
X3163925Y-914806D01*
X3151225Y-921816D01*
X3139490Y-930300D01*
X3128924Y-940257D01*
X3119678Y-951433D01*
X3111906Y-963676D01*
X3105708Y-976782D01*
X3101238Y-990600D01*
X3098546Y-1004824D01*
X3097631Y-1019302D01*
X3098546Y-1033780D01*
X3101238Y-1048003D01*
X3103372Y-1054608D01*
X3103778Y-1059078D01*
X3102254Y-1063294D01*
X3099003Y-1066393D01*
X3094786Y-1067866D01*
X3090316Y-1067308D01*
X3086557Y-1064920D01*
X3083864Y-1062278D01*
X3081985Y-1059637D01*
X3081020Y-1056538D01*
X3073654Y-1004824D01*
X3070961Y-990600D01*
X3066491Y-976782D01*
X3060293Y-963676D01*
X3052521Y-951433D01*
X3043275Y-940257D01*
X3032709Y-930300D01*
X3020974Y-921816D01*
X3008274Y-914806D01*
X2994812Y-909472D01*
X2980740Y-905865D01*
X2966364Y-904036D01*
X2951835Y-904036D01*
X2937459Y-905865D01*
X2923387Y-909472D01*
X2909925Y-914806D01*
X2897225Y-921816D01*
X2885490Y-930300D01*
X2874924Y-940257D01*
X2865678Y-951433D01*
X2857906Y-963676D01*
X2851708Y-976782D01*
X2847238Y-990600D01*
X2844546Y-1004824D01*
X2843631Y-1019302D01*
X2844546Y-1033780D01*
X2847238Y-1048003D01*
X2849372Y-1054608D01*
X2849778Y-1059078D01*
X2848254Y-1063294D01*
X2845003Y-1066393D01*
X2840786Y-1067866D01*
X2836316Y-1067308D01*
X2832557Y-1064920D01*
X2829864Y-1062278D01*
X2827985Y-1059637D01*
X2827020Y-1056538D01*
X2819654Y-1004824D01*
X2816961Y-990600D01*
X2812491Y-976782D01*
X2806293Y-963676D01*
X2798521Y-951433D01*
X2789275Y-940257D01*
X2778709Y-930300D01*
X2766974Y-921816D01*
X2754274Y-914806D01*
X2740812Y-909472D01*
X2726740Y-905865D01*
X2712364Y-904036D01*
X2697835Y-904036D01*
X2683459Y-905865D01*
X2669387Y-909472D01*
X2655925Y-914806D01*
X2643225Y-921816D01*
X2631490Y-930300D01*
X2620924Y-940257D01*
X2611678Y-951433D01*
X2603906Y-963676D01*
X2597708Y-976782D01*
X2593238Y-990600D01*
X2590546Y-1004824D01*
X2589631Y-1019302D01*
X2590546Y-1033780D01*
X2593238Y-1048003D01*
X2597708Y-1061821D01*
X2603906Y-1074928D01*
X2611678Y-1087170D01*
X2620924Y-1098346D01*
X2631490Y-1108303D01*
X2643225Y-1116787D01*
X2655925Y-1123797D01*
X2669387Y-1129131D01*
X2683459Y-1132738D01*
X2698851Y-1134618D01*
X2746552Y-1139240D01*
X2749905Y-1140155D01*
X2752750Y-1142187D01*
X4291279Y-2680716D01*
X4295038Y-2684119D01*
X4298848Y-2687066D01*
X4302963Y-2689656D01*
X4307230Y-2691892D01*
X4311700Y-2693771D01*
X4316323Y-2695194D01*
X4321048Y-2696260D01*
X4325874Y-2696870D01*
X4330903Y-2697124D01*
X5352643Y-2697124D01*
X5355488Y-2697530D01*
X5358130Y-2698699D01*
X5378450Y-2711754D01*
X5379872Y-2712923D01*
X5390337Y-2719984D01*
X5401716Y-2725470D01*
X5413705Y-2729382D01*
X5426151Y-2731566D01*
X5438749Y-2732024D01*
X5451297Y-2730703D01*
X5463540Y-2727655D01*
X5475274Y-2722930D01*
X5486196Y-2716631D01*
X5496153Y-2708859D01*
X5504891Y-2699766D01*
X5512358Y-2689555D01*
X5518251Y-2678379D01*
X5522569Y-2666542D01*
X5525211Y-2654198D01*
X5526074Y-2641600D01*
X5525211Y-2629001D01*
X5522569Y-2616657D01*
X5518251Y-2604820D01*
X5512358Y-2593644D01*
X5504891Y-2583434D01*
X5496153Y-2574340D01*
X5486196Y-2566568D01*
X5475274Y-2560269D01*
X5463540Y-2555544D01*
X5451297Y-2552496D01*
X5449214Y-2552293D01*
X5445099Y-2550871D01*
X5441899Y-2547874D01*
X5440273Y-2543810D01*
X5440476Y-2539441D01*
X5442559Y-2535580D01*
X5446014Y-2532938D01*
X5450281Y-2532024D01*
X5484622Y-2532024D01*
X5488482Y-2532786D01*
X5491784Y-2534970D01*
X5694629Y-2737815D01*
X5696813Y-2741117D01*
X5697575Y-2744978D01*
X5697575Y-3466896D01*
X5697829Y-3471926D01*
X5698439Y-3476751D01*
X5699506Y-3481476D01*
X5700928Y-3486099D01*
X5702808Y-3490569D01*
X5705043Y-3494836D01*
X5707634Y-3498951D01*
X5710580Y-3502761D01*
X5713984Y-3506520D01*
X6308801Y-4101287D01*
X6310833Y-4104182D01*
X6311747Y-4107586D01*
X6317996Y-4181043D01*
X6320739Y-4196588D01*
X6325260Y-4211574D01*
X6331458Y-4225950D01*
X6339230Y-4239514D01*
X6348577Y-4252061D01*
X6359296Y-4263390D01*
X6371285Y-4273448D01*
X6384340Y-4282033D01*
X6398361Y-4289094D01*
X6413042Y-4294428D01*
X6428232Y-4298035D01*
X6443776Y-4299864D01*
X6459423Y-4299864D01*
X6474968Y-4298035D01*
X6490157Y-4294428D01*
X6504838Y-4289094D01*
X6518859Y-4282033D01*
X6531914Y-4273448D01*
X6544513Y-4262882D01*
X6547815Y-4261002D01*
X6551625Y-4260494D01*
X6555333Y-4261408D01*
X6558432Y-4263644D01*
X6560464Y-4266895D01*
X6561175Y-4270654D01*
X6561175Y-4305096D01*
X6561429Y-4310126D01*
X6562039Y-4314952D01*
X6563106Y-4319676D01*
X6564528Y-4324299D01*
X6566408Y-4328769D01*
X6568643Y-4333036D01*
X6571234Y-4337151D01*
X6574180Y-4340961D01*
X6577584Y-4344720D01*
X6613601Y-4380687D01*
X6615633Y-4383582D01*
X6616547Y-4386986D01*
X6622796Y-4460443D01*
X6625539Y-4475988D01*
X6630060Y-4490974D01*
X6636258Y-4505350D01*
X6644030Y-4518914D01*
X6653377Y-4531461D01*
X6664096Y-4542790D01*
X6676085Y-4552848D01*
X6689140Y-4561433D01*
X6703161Y-4568494D01*
X6717842Y-4573828D01*
X6733031Y-4577435D01*
X6748576Y-4579264D01*
X6764223Y-4579264D01*
X6779768Y-4577435D01*
X6794957Y-4573828D01*
X6809638Y-4568494D01*
X6823659Y-4561433D01*
X6836714Y-4552848D01*
X6848703Y-4542790D01*
X6859422Y-4531461D01*
X6868769Y-4518914D01*
X6876592Y-4505350D01*
X6882739Y-4490974D01*
X6887260Y-4475988D01*
X6889953Y-4460595D01*
X6890867Y-4445000D01*
X6889953Y-4429404D01*
X6887260Y-4414012D01*
X6882739Y-4399026D01*
X6876592Y-4384649D01*
X6868769Y-4371086D01*
X6859422Y-4358589D01*
X6848703Y-4347210D01*
X6836714Y-4337151D01*
X6823659Y-4328566D01*
X6809638Y-4321505D01*
X6794957Y-4316171D01*
X6779717Y-4312564D01*
X6765544Y-4310837D01*
X6698386Y-4305147D01*
X6694982Y-4304233D01*
X6692087Y-4302201D01*
X6675170Y-4285284D01*
X6672986Y-4281982D01*
X6672224Y-4278122D01*
X6672224Y-4213555D01*
X6673138Y-4209288D01*
X6675729Y-4205833D01*
X6679590Y-4203801D01*
X6683908Y-4203496D01*
X6687972Y-4205071D01*
X6689140Y-4205833D01*
X6703161Y-4212894D01*
X6717842Y-4218228D01*
X6733082Y-4221835D01*
X6747256Y-4223562D01*
X6814413Y-4229252D01*
X6817817Y-4230166D01*
X6820712Y-4232198D01*
X6964629Y-4376115D01*
X6966813Y-4379417D01*
X6967575Y-4383278D01*
X6967575Y-4570222D01*
X6966813Y-4574082D01*
X6964629Y-4577384D01*
X6869684Y-4672279D01*
X6866280Y-4676038D01*
X6863334Y-4679848D01*
X6860743Y-4683963D01*
X6858508Y-4688230D01*
X6856628Y-4692700D01*
X6855206Y-4697323D01*
X6854139Y-4702048D01*
X6853529Y-4706874D01*
X6853275Y-4711903D01*
X6853275Y-4818938D01*
X6852716Y-4822291D01*
X6851091Y-4825238D01*
X6814464Y-4871618D01*
X6806539Y-4884064D01*
X6800291Y-4897323D01*
X6795770Y-4911293D01*
X6793026Y-4925669D01*
X6792112Y-4940300D01*
X6793026Y-4954930D01*
X6795770Y-4969306D01*
X6800291Y-4983276D01*
X6806539Y-4996535D01*
X6814413Y-5008880D01*
X6823760Y-5020157D01*
X6827316Y-5023510D01*
X6829653Y-5026812D01*
X6830517Y-5030724D01*
X6829806Y-5034686D01*
X6827621Y-5038039D01*
X6824268Y-5040274D01*
X6820357Y-5041087D01*
X6743242Y-5041087D01*
X6739331Y-5040274D01*
X6735978Y-5038039D01*
X6733794Y-5034686D01*
X6733082Y-5030724D01*
X6733946Y-5026812D01*
X6736283Y-5023510D01*
X6739839Y-5020157D01*
X6749186Y-5008880D01*
X6757060Y-4996535D01*
X6763308Y-4983276D01*
X6767830Y-4969306D01*
X6770573Y-4954930D01*
X6771487Y-4940300D01*
X6770573Y-4925669D01*
X6767830Y-4911293D01*
X6763308Y-4897323D01*
X6757060Y-4884064D01*
X6749186Y-4871720D01*
X6739839Y-4860442D01*
X6729171Y-4850384D01*
X6717334Y-4841798D01*
X6704482Y-4834737D01*
X6690868Y-4829302D01*
X6676644Y-4825695D01*
X6662115Y-4823866D01*
X6647484Y-4823866D01*
X6632956Y-4825695D01*
X6618731Y-4829302D01*
X6605117Y-4834737D01*
X6592265Y-4841798D01*
X6580428Y-4850384D01*
X6569760Y-4860442D01*
X6560413Y-4871720D01*
X6552539Y-4884064D01*
X6546291Y-4897323D01*
X6541770Y-4911293D01*
X6539026Y-4925669D01*
X6538112Y-4940300D01*
X6539026Y-4954930D01*
X6541770Y-4969306D01*
X6546291Y-4983276D01*
X6552539Y-4996535D01*
X6560413Y-5008880D01*
X6569760Y-5020157D01*
X6573316Y-5023510D01*
X6575653Y-5026812D01*
X6576517Y-5030724D01*
X6575806Y-5034686D01*
X6573621Y-5038039D01*
X6570268Y-5040274D01*
X6566357Y-5041087D01*
X6501333Y-5041087D01*
X6497421Y-5040325D01*
X6494119Y-5038140D01*
X6429959Y-4973980D01*
X6427774Y-4970678D01*
X6427012Y-4966766D01*
X6427012Y-4800904D01*
X6426098Y-4784852D01*
X6423456Y-4769358D01*
X6419088Y-4754219D01*
X6413093Y-4739640D01*
X6405473Y-4725873D01*
X6396329Y-4713020D01*
X6385661Y-4701032D01*
X6229045Y-4544466D01*
X6217107Y-4533747D01*
X6204254Y-4524654D01*
X6190437Y-4517034D01*
X6175908Y-4510989D01*
X6160770Y-4506620D01*
X6145225Y-4503978D01*
X6129223Y-4503115D01*
X5161076Y-4503115D01*
X5145074Y-4503978D01*
X5129530Y-4506620D01*
X5114391Y-4510989D01*
X5099812Y-4517034D01*
X5086045Y-4524654D01*
X5073192Y-4533747D01*
X5061254Y-4544466D01*
X4491380Y-5114340D01*
X4488078Y-5116525D01*
X4484166Y-5117287D01*
X3834333Y-5117287D01*
X3830421Y-5116525D01*
X3827119Y-5114340D01*
X3597859Y-4885080D01*
X3595674Y-4881778D01*
X3594912Y-4877866D01*
X3594912Y-4659833D01*
X3595674Y-4655921D01*
X3597859Y-4652619D01*
X3891127Y-4359402D01*
X3894175Y-4357319D01*
X3897731Y-4356404D01*
X3905250Y-4355998D01*
X3920744Y-4353356D01*
X3935882Y-4348988D01*
X3950462Y-4342993D01*
X3964228Y-4335373D01*
X3977081Y-4326229D01*
X3988866Y-4315764D01*
X3999331Y-4303979D01*
X4008475Y-4291126D01*
X4016095Y-4277360D01*
X4022090Y-4262780D01*
X4026458Y-4247642D01*
X4029100Y-4232148D01*
X4030014Y-4216400D01*
X4029100Y-4200652D01*
X4026458Y-4185158D01*
X4022090Y-4170019D01*
X4016095Y-4155440D01*
X4008475Y-4141673D01*
X3999331Y-4128820D01*
X3988866Y-4117035D01*
X3977081Y-4106570D01*
X3964228Y-4097426D01*
X3950462Y-4089806D01*
X3935882Y-4083812D01*
X3920744Y-4079443D01*
X3905250Y-4076801D01*
X3889197Y-4075887D01*
X2832404Y-4075887D01*
X2816352Y-4076801D01*
X2800858Y-4079443D01*
X2785719Y-4083812D01*
X2771140Y-4089806D01*
X2757373Y-4097426D01*
X2744520Y-4106570D01*
X2732532Y-4117238D01*
X2402738Y-4447032D01*
X2392070Y-4459020D01*
X2382926Y-4471873D01*
X2375306Y-4485640D01*
X2369312Y-4500219D01*
X2364943Y-4515358D01*
X2362301Y-4530852D01*
X2361387Y-4546904D01*
X2361387Y-5092395D01*
X2362301Y-5108448D01*
X2364943Y-5123942D01*
X2369312Y-5139080D01*
X2375306Y-5153660D01*
X2382926Y-5167426D01*
X2392070Y-5180279D01*
X2402738Y-5192268D01*
X2973832Y-5763361D01*
X2985820Y-5774029D01*
X2998673Y-5783173D01*
X3012440Y-5790793D01*
X3027019Y-5796788D01*
X3042158Y-5801156D01*
X3057652Y-5803798D01*
X3066999Y-5804357D01*
X3070606Y-5805220D01*
X3073704Y-5807354D01*
X3075787Y-5810504D01*
X3081629Y-5824220D01*
X3091434Y-5842406D01*
X3102813Y-5859678D01*
X3115716Y-5875832D01*
X3129991Y-5890818D01*
X3145586Y-5904433D01*
X3162300Y-5916574D01*
X3180080Y-5927191D01*
X3198723Y-5936132D01*
X3218078Y-5943396D01*
X3237992Y-5948934D01*
X3258362Y-5952591D01*
G37*
G36*
X146354Y-5895848D02*
G01*
X195884Y-5895848D01*
X195884Y-5846318D01*
X192836Y-5847283D01*
X182016Y-5852515D01*
X172059Y-5859272D01*
X163271Y-5867450D01*
X155752Y-5876848D01*
X149758Y-5887262D01*
G37*
G36*
X501954Y-5895848D02*
G01*
X551484Y-5895848D01*
X551484Y-5846318D01*
X548436Y-5847283D01*
X537616Y-5852515D01*
X527659Y-5859272D01*
X518871Y-5867450D01*
X511352Y-5876848D01*
X505358Y-5887262D01*
G37*
G36*
X248615Y-5895848D02*
G01*
X298145Y-5895848D01*
X294741Y-5887262D01*
X288747Y-5876848D01*
X281228Y-5867450D01*
X272440Y-5859272D01*
X262483Y-5852515D01*
X251663Y-5847283D01*
X248615Y-5846318D01*
G37*
G36*
X604215Y-5895848D02*
G01*
X653745Y-5895848D01*
X650341Y-5887262D01*
X644347Y-5876848D01*
X636828Y-5867450D01*
X628040Y-5859272D01*
X618083Y-5852515D01*
X607263Y-5847283D01*
X604215Y-5846318D01*
G37*
G36*
X7346289Y-5895848D02*
G01*
X7395819Y-5895848D01*
X7395819Y-5846318D01*
X7392771Y-5847283D01*
X7381951Y-5852515D01*
X7371994Y-5859272D01*
X7363206Y-5867450D01*
X7355687Y-5876848D01*
X7349693Y-5887262D01*
G37*
G36*
X7448550Y-5895848D02*
G01*
X7498080Y-5895848D01*
X7494676Y-5887262D01*
X7488681Y-5876848D01*
X7481163Y-5867450D01*
X7472375Y-5859272D01*
X7462418Y-5852515D01*
X7451598Y-5847283D01*
X7448550Y-5846318D01*
G37*
G36*
X7804150Y-5895848D02*
G01*
X7853680Y-5895848D01*
X7850276Y-5887262D01*
X7844281Y-5876848D01*
X7836763Y-5867450D01*
X7827975Y-5859272D01*
X7818018Y-5852515D01*
X7807198Y-5847283D01*
X7804150Y-5846318D01*
G37*
G36*
X7701889Y-5895848D02*
G01*
X7751419Y-5895848D01*
X7751419Y-5846318D01*
X7748371Y-5847283D01*
X7737551Y-5852515D01*
X7727594Y-5859272D01*
X7718806Y-5867450D01*
X7711287Y-5876848D01*
X7705293Y-5887262D01*
G37*
G36*
X324154Y-5823661D02*
G01*
X373684Y-5823661D01*
X373684Y-5774131D01*
X370636Y-5775096D01*
X359816Y-5780278D01*
X349859Y-5787085D01*
X341071Y-5795264D01*
X333552Y-5804662D01*
X327558Y-5815076D01*
G37*
G36*
X426415Y-5823661D02*
G01*
X475945Y-5823661D01*
X472541Y-5815076D01*
X466547Y-5804662D01*
X459028Y-5795264D01*
X450240Y-5787085D01*
X440283Y-5780278D01*
X429463Y-5775096D01*
X426415Y-5774131D01*
G37*
G36*
X7524089Y-5823661D02*
G01*
X7573619Y-5823661D01*
X7573619Y-5774131D01*
X7570571Y-5775096D01*
X7559751Y-5780278D01*
X7549794Y-5787085D01*
X7541006Y-5795264D01*
X7533487Y-5804662D01*
X7527493Y-5815076D01*
G37*
G36*
X7626350Y-5823661D02*
G01*
X7675880Y-5823661D01*
X7672476Y-5815076D01*
X7666481Y-5804662D01*
X7658963Y-5795264D01*
X7650175Y-5787085D01*
X7640218Y-5780278D01*
X7629398Y-5775096D01*
X7626350Y-5774131D01*
G37*
G36*
X5792216Y-5714034D02*
G01*
X5864352Y-5714034D01*
X5864352Y-5641848D01*
X5862320Y-5642610D01*
X5848146Y-5650077D01*
X5834888Y-5659120D01*
X5822797Y-5669635D01*
X5811926Y-5681472D01*
X5802528Y-5694426D01*
X5794603Y-5708396D01*
G37*
G36*
X3882237Y-5714034D02*
G01*
X3954373Y-5714034D01*
X3954373Y-5641848D01*
X3952341Y-5642610D01*
X3938168Y-5650077D01*
X3924909Y-5659120D01*
X3912768Y-5669635D01*
X3901948Y-5681472D01*
X3892499Y-5694426D01*
X3884625Y-5708396D01*
G37*
G36*
X4067048Y-5714034D02*
G01*
X4139285Y-5714034D01*
X4133037Y-5701334D01*
X4124350Y-5687822D01*
X4114190Y-5675376D01*
X4102709Y-5664200D01*
X4090009Y-5654446D01*
X4076242Y-5646166D01*
X4067048Y-5641949D01*
G37*
G36*
X5977026Y-5714034D02*
G01*
X6049314Y-5714034D01*
X6043015Y-5701334D01*
X6034379Y-5687822D01*
X6024219Y-5675376D01*
X6012688Y-5664200D01*
X5999988Y-5654446D01*
X5986272Y-5646166D01*
X5977026Y-5641949D01*
G37*
G36*
X6647484Y-5640933D02*
G01*
X6662115Y-5640933D01*
X6676644Y-5639104D01*
X6690868Y-5635498D01*
X6704482Y-5630062D01*
X6717334Y-5623001D01*
X6729171Y-5614416D01*
X6739839Y-5604357D01*
X6749186Y-5593080D01*
X6757060Y-5580735D01*
X6763308Y-5567476D01*
X6767830Y-5553506D01*
X6770573Y-5539130D01*
X6771487Y-5524500D01*
X6770573Y-5509869D01*
X6767830Y-5495493D01*
X6763308Y-5481523D01*
X6757060Y-5468264D01*
X6749186Y-5455920D01*
X6739839Y-5444642D01*
X6729171Y-5434584D01*
X6717334Y-5425998D01*
X6704482Y-5418937D01*
X6690868Y-5413502D01*
X6676644Y-5409895D01*
X6662115Y-5408066D01*
X6647484Y-5408066D01*
X6632956Y-5409895D01*
X6618731Y-5413502D01*
X6605117Y-5418937D01*
X6592265Y-5425998D01*
X6580428Y-5434584D01*
X6569760Y-5444642D01*
X6560413Y-5455920D01*
X6552539Y-5468264D01*
X6546291Y-5481523D01*
X6541770Y-5495493D01*
X6539026Y-5509869D01*
X6538112Y-5524500D01*
X6539026Y-5539130D01*
X6541770Y-5553506D01*
X6546291Y-5567476D01*
X6552539Y-5580735D01*
X6560413Y-5593080D01*
X6569760Y-5604357D01*
X6580428Y-5614416D01*
X6592265Y-5623001D01*
X6605117Y-5630062D01*
X6618731Y-5635498D01*
X6632956Y-5639104D01*
G37*
G36*
X7461250Y-5632145D02*
G01*
X7466482Y-5630062D01*
X7479334Y-5623001D01*
X7491171Y-5614416D01*
X7501839Y-5604357D01*
X7511186Y-5593080D01*
X7519060Y-5580735D01*
X7524597Y-5568950D01*
X7461250Y-5568950D01*
G37*
G36*
X7461250Y-5480050D02*
G01*
X7524597Y-5480050D01*
X7519060Y-5468264D01*
X7511186Y-5455920D01*
X7501839Y-5444642D01*
X7491171Y-5434584D01*
X7479334Y-5425998D01*
X7466482Y-5418937D01*
X7461250Y-5416854D01*
G37*
G36*
X7461250Y-5047945D02*
G01*
X7466482Y-5045862D01*
X7479334Y-5038801D01*
X7491171Y-5030216D01*
X7501839Y-5020157D01*
X7511186Y-5008880D01*
X7519060Y-4996535D01*
X7524597Y-4984750D01*
X7461250Y-4984750D01*
G37*
G36*
X3911193Y-5038090D02*
G01*
X4110177Y-5038090D01*
X4118610Y-5037277D01*
X4126179Y-5034991D01*
X4133189Y-5031232D01*
X4139285Y-5026202D01*
X4144365Y-5020056D01*
X4148074Y-5013096D01*
X4150360Y-5005476D01*
X4151223Y-4997094D01*
X4151223Y-4798110D01*
X4150360Y-4789728D01*
X4146804Y-4778044D01*
X4147261Y-4774031D01*
X4149191Y-4770526D01*
X4152392Y-4768037D01*
X4238091Y-4725162D01*
X4242663Y-4724095D01*
X4452416Y-4724044D01*
X4461764Y-4723180D01*
X4464354Y-4722723D01*
X4473498Y-4720488D01*
X4475988Y-4719675D01*
X4484674Y-4716068D01*
X4487062Y-4714849D01*
X4495088Y-4710023D01*
X4497222Y-4708499D01*
X4504486Y-4702505D01*
X5284927Y-3922166D01*
X5288635Y-3919778D01*
X5293004Y-3919220D01*
X5297170Y-3920540D01*
X5300421Y-3923487D01*
X5302097Y-3927551D01*
X5304739Y-3942587D01*
X5309260Y-3957574D01*
X5315458Y-3971950D01*
X5323230Y-3985514D01*
X5332577Y-3998061D01*
X5343296Y-4009390D01*
X5355285Y-4019448D01*
X5368340Y-4028033D01*
X5371287Y-4029506D01*
X5374741Y-4032351D01*
X5376621Y-4036364D01*
X5376621Y-4040835D01*
X5374741Y-4044848D01*
X5371287Y-4047693D01*
X5368340Y-4049166D01*
X5355285Y-4057751D01*
X5343296Y-4067810D01*
X5332577Y-4079189D01*
X5323230Y-4091686D01*
X5315458Y-4105249D01*
X5309260Y-4119626D01*
X5304739Y-4134612D01*
X5302046Y-4150004D01*
X5301132Y-4165600D01*
X5302046Y-4181195D01*
X5304739Y-4196588D01*
X5309260Y-4211574D01*
X5315458Y-4225950D01*
X5323230Y-4239514D01*
X5332577Y-4252061D01*
X5343296Y-4263390D01*
X5355285Y-4273448D01*
X5368340Y-4282033D01*
X5382361Y-4289094D01*
X5397042Y-4294428D01*
X5412232Y-4298035D01*
X5427776Y-4299864D01*
X5443423Y-4299864D01*
X5458968Y-4298035D01*
X5474157Y-4294428D01*
X5488838Y-4289094D01*
X5502859Y-4282033D01*
X5515914Y-4273448D01*
X5527903Y-4263390D01*
X5538622Y-4252061D01*
X5547969Y-4239514D01*
X5555792Y-4225950D01*
X5561939Y-4211574D01*
X5566460Y-4196588D01*
X5569153Y-4181195D01*
X5570067Y-4165600D01*
X5569153Y-4150004D01*
X5566460Y-4134612D01*
X5561939Y-4119626D01*
X5555792Y-4105249D01*
X5547969Y-4091686D01*
X5538622Y-4079189D01*
X5527903Y-4067810D01*
X5515914Y-4057751D01*
X5502859Y-4049166D01*
X5499912Y-4047693D01*
X5496458Y-4044848D01*
X5494578Y-4040835D01*
X5494578Y-4036364D01*
X5496458Y-4032351D01*
X5499912Y-4029506D01*
X5502859Y-4028033D01*
X5515914Y-4019448D01*
X5527903Y-4009390D01*
X5538622Y-3998061D01*
X5547969Y-3985514D01*
X5555792Y-3971950D01*
X5561939Y-3957574D01*
X5566460Y-3942587D01*
X5569153Y-3927195D01*
X5570067Y-3911600D01*
X5569153Y-3896004D01*
X5566460Y-3880612D01*
X5561939Y-3865626D01*
X5555792Y-3851249D01*
X5547969Y-3837686D01*
X5538622Y-3825189D01*
X5527903Y-3813810D01*
X5515914Y-3803751D01*
X5502859Y-3795166D01*
X5499912Y-3793693D01*
X5496458Y-3790848D01*
X5494578Y-3786835D01*
X5494578Y-3782364D01*
X5496458Y-3778351D01*
X5499912Y-3775506D01*
X5502859Y-3774033D01*
X5515914Y-3765448D01*
X5527903Y-3755390D01*
X5538622Y-3744061D01*
X5547969Y-3731514D01*
X5555792Y-3717950D01*
X5561939Y-3703574D01*
X5566460Y-3688587D01*
X5569153Y-3673195D01*
X5570067Y-3657600D01*
X5569153Y-3642004D01*
X5566460Y-3626612D01*
X5561939Y-3611626D01*
X5555792Y-3597249D01*
X5547969Y-3583686D01*
X5538622Y-3571189D01*
X5527903Y-3559810D01*
X5515914Y-3549751D01*
X5502859Y-3541166D01*
X5499912Y-3539693D01*
X5496458Y-3536848D01*
X5494578Y-3532835D01*
X5494578Y-3528364D01*
X5496458Y-3524351D01*
X5499912Y-3521506D01*
X5502859Y-3520033D01*
X5515914Y-3511448D01*
X5527903Y-3501390D01*
X5538622Y-3490061D01*
X5547969Y-3477514D01*
X5555792Y-3463950D01*
X5558790Y-3456940D01*
X5488940Y-3456940D01*
X5488940Y-3519627D01*
X5488178Y-3523437D01*
X5486095Y-3526688D01*
X5482894Y-3528923D01*
X5479135Y-3529787D01*
X5458968Y-3525164D01*
X5443423Y-3523335D01*
X5427776Y-3523335D01*
X5412232Y-3525164D01*
X5392064Y-3529787D01*
X5388305Y-3528923D01*
X5385104Y-3526688D01*
X5383022Y-3523437D01*
X5382260Y-3519627D01*
X5382260Y-3456940D01*
X5312410Y-3456940D01*
X5315458Y-3463950D01*
X5323230Y-3477514D01*
X5332577Y-3490061D01*
X5343296Y-3501390D01*
X5355285Y-3511448D01*
X5368340Y-3520033D01*
X5371287Y-3521506D01*
X5374741Y-3524351D01*
X5376621Y-3528364D01*
X5376621Y-3532835D01*
X5374741Y-3536848D01*
X5371287Y-3539693D01*
X5368340Y-3541166D01*
X5355285Y-3549751D01*
X5343296Y-3559810D01*
X5332577Y-3571189D01*
X5323230Y-3583686D01*
X5315458Y-3597249D01*
X5309260Y-3611626D01*
X5304739Y-3626612D01*
X5302046Y-3642106D01*
X5282641Y-3695344D01*
X5280304Y-3699052D01*
X4419244Y-4560112D01*
X4415942Y-4562348D01*
X4412030Y-4563110D01*
X4242663Y-4563110D01*
X4238091Y-4562043D01*
X4126229Y-4506214D01*
X4121251Y-4504537D01*
X4118660Y-4503928D01*
X4113428Y-4503216D01*
X3911193Y-4503115D01*
X3902811Y-4503928D01*
X3895242Y-4506214D01*
X3888232Y-4509973D01*
X3882085Y-4515002D01*
X3877056Y-4521149D01*
X3873296Y-4528108D01*
X3871010Y-4535728D01*
X3870198Y-4544110D01*
X3870198Y-4743094D01*
X3871010Y-4751476D01*
X3873296Y-4759096D01*
X3876903Y-4765802D01*
X3877970Y-4768951D01*
X3877970Y-4772253D01*
X3876903Y-4775403D01*
X3873296Y-4782108D01*
X3871010Y-4789728D01*
X3870198Y-4798110D01*
X3870198Y-4997094D01*
X3871010Y-5005476D01*
X3873296Y-5013096D01*
X3877056Y-5020056D01*
X3882085Y-5026202D01*
X3888232Y-5031232D01*
X3895242Y-5034991D01*
X3902811Y-5037277D01*
G37*
G36*
X1238402Y-5021326D02*
G01*
X1457807Y-5021326D01*
X1473809Y-5020411D01*
X1489354Y-5017770D01*
X1504492Y-5013452D01*
X1519072Y-5007406D01*
X1532839Y-4999786D01*
X1545691Y-4990642D01*
X1557426Y-4980178D01*
X1567942Y-4968443D01*
X1577035Y-4955590D01*
X1584706Y-4941773D01*
X1590700Y-4927244D01*
X1595069Y-4912106D01*
X1597710Y-4896561D01*
X1598574Y-4880813D01*
X1597710Y-4865116D01*
X1595069Y-4849571D01*
X1590700Y-4834432D01*
X1584706Y-4819853D01*
X1577035Y-4806086D01*
X1567942Y-4793234D01*
X1557426Y-4781499D01*
X1545691Y-4770983D01*
X1532839Y-4761890D01*
X1519072Y-4754219D01*
X1504492Y-4748225D01*
X1489354Y-4743856D01*
X1473809Y-4741214D01*
X1457807Y-4740300D01*
X1238402Y-4740300D01*
X1222349Y-4741214D01*
X1206855Y-4743856D01*
X1191717Y-4748225D01*
X1177137Y-4754219D01*
X1163370Y-4761890D01*
X1150518Y-4770983D01*
X1138783Y-4781499D01*
X1128268Y-4793234D01*
X1119124Y-4806086D01*
X1111504Y-4819853D01*
X1105509Y-4834432D01*
X1101140Y-4849571D01*
X1098499Y-4865116D01*
X1097635Y-4880813D01*
X1098499Y-4896561D01*
X1101140Y-4912106D01*
X1105509Y-4927244D01*
X1111504Y-4941773D01*
X1119124Y-4955590D01*
X1128268Y-4968443D01*
X1138783Y-4980178D01*
X1150518Y-4990642D01*
X1163370Y-4999786D01*
X1177137Y-5007406D01*
X1191717Y-5013452D01*
X1206855Y-5017770D01*
X1222349Y-5020411D01*
G37*
G36*
X7461250Y-4895850D02*
G01*
X7524597Y-4895850D01*
X7519060Y-4884064D01*
X7511186Y-4871720D01*
X7501839Y-4860442D01*
X7491171Y-4850384D01*
X7479334Y-4841798D01*
X7466482Y-4834737D01*
X7461250Y-4832654D01*
G37*
G36*
X2992729Y-4708550D02*
G01*
X3006648Y-4701743D01*
X3018993Y-4693564D01*
X3030270Y-4683912D01*
X3040278Y-4672939D01*
X3048863Y-4660849D01*
X3055874Y-4647742D01*
X3057398Y-4643729D01*
X2992729Y-4643729D01*
G37*
G36*
X2900070Y-4708347D02*
G01*
X2900070Y-4643729D01*
X2835351Y-4643729D01*
X2840228Y-4654397D01*
X2848051Y-4666996D01*
X2857347Y-4678578D01*
X2868015Y-4688890D01*
X2879852Y-4697831D01*
X2892704Y-4705248D01*
G37*
G36*
X1034491Y-4664405D02*
G01*
X1039063Y-4662474D01*
X1052880Y-4654854D01*
X1065733Y-4645761D01*
X1077468Y-4635246D01*
X1087983Y-4623511D01*
X1097076Y-4610658D01*
X1104696Y-4596841D01*
X1110742Y-4582312D01*
X1115110Y-4567174D01*
X1117752Y-4551629D01*
X1118565Y-4537252D01*
X1034491Y-4537252D01*
G37*
G36*
X921766Y-4664405D02*
G01*
X921766Y-4537252D01*
X837692Y-4537252D01*
X838504Y-4551629D01*
X841146Y-4567174D01*
X845515Y-4582312D01*
X851560Y-4596841D01*
X859180Y-4610658D01*
X868273Y-4623511D01*
X878789Y-4635246D01*
X890524Y-4645761D01*
X903376Y-4654854D01*
X917194Y-4662474D01*
G37*
G36*
X7739176Y-4579264D02*
G01*
X7754823Y-4579264D01*
X7770368Y-4577435D01*
X7785557Y-4573828D01*
X7800238Y-4568494D01*
X7814259Y-4561433D01*
X7827314Y-4552848D01*
X7839303Y-4542790D01*
X7850022Y-4531461D01*
X7859369Y-4518914D01*
X7867192Y-4505350D01*
X7873339Y-4490974D01*
X7877860Y-4475988D01*
X7880553Y-4460595D01*
X7881467Y-4445000D01*
X7880553Y-4429404D01*
X7877860Y-4414012D01*
X7873339Y-4399026D01*
X7867192Y-4384649D01*
X7859369Y-4371086D01*
X7848447Y-4356709D01*
X7804912Y-4305096D01*
X7803134Y-4302048D01*
X7802524Y-4298543D01*
X7802524Y-4235856D01*
X7803134Y-4232351D01*
X7804912Y-4229303D01*
X7849870Y-4176014D01*
X7859369Y-4163314D01*
X7867192Y-4149750D01*
X7873339Y-4135374D01*
X7877860Y-4120387D01*
X7880553Y-4104995D01*
X7881467Y-4089400D01*
X7880553Y-4073804D01*
X7877860Y-4058412D01*
X7873339Y-4043426D01*
X7867192Y-4029049D01*
X7859369Y-4015486D01*
X7850022Y-4002989D01*
X7839303Y-3991610D01*
X7827314Y-3981551D01*
X7814259Y-3972966D01*
X7800238Y-3965905D01*
X7785557Y-3960571D01*
X7770317Y-3956964D01*
X7756144Y-3955237D01*
X7688986Y-3949547D01*
X7685582Y-3948633D01*
X7682687Y-3946601D01*
X7595920Y-3859784D01*
X7592161Y-3856380D01*
X7588351Y-3853434D01*
X7584236Y-3850843D01*
X7579969Y-3848608D01*
X7575499Y-3846728D01*
X7570876Y-3845306D01*
X7566152Y-3844239D01*
X7561325Y-3843629D01*
X7556296Y-3843375D01*
X7384846Y-3843375D01*
X7380935Y-3842613D01*
X7377633Y-3840429D01*
X7375448Y-3837127D01*
X7374686Y-3833215D01*
X7375448Y-3829354D01*
X7377633Y-3826052D01*
X7488021Y-3715715D01*
X7491984Y-3713226D01*
X7520584Y-3703726D01*
X7523784Y-3703167D01*
X7649972Y-3703167D01*
X7658353Y-3702354D01*
X7665974Y-3700068D01*
X7672933Y-3696309D01*
X7679080Y-3691280D01*
X7684109Y-3685133D01*
X7687868Y-3678174D01*
X7690154Y-3670554D01*
X7690967Y-3662172D01*
X7690967Y-3475228D01*
X7690154Y-3466846D01*
X7687868Y-3459226D01*
X7684109Y-3452266D01*
X7679080Y-3446119D01*
X7672933Y-3441090D01*
X7665974Y-3437331D01*
X7658353Y-3435045D01*
X7649972Y-3434232D01*
X7463028Y-3434232D01*
X7454646Y-3435045D01*
X7447025Y-3437331D01*
X7440066Y-3441090D01*
X7433919Y-3446119D01*
X7428890Y-3452266D01*
X7425131Y-3459226D01*
X7422845Y-3466846D01*
X7422032Y-3475126D01*
X7420864Y-3478885D01*
X7418374Y-3481933D01*
X7414920Y-3483813D01*
X7411008Y-3484270D01*
X7407198Y-3483152D01*
X7404150Y-3480663D01*
X7360412Y-3428796D01*
X7358634Y-3425748D01*
X7358024Y-3422243D01*
X7358024Y-3379978D01*
X7358786Y-3376117D01*
X7360970Y-3372815D01*
X7557516Y-3176320D01*
X7560919Y-3172561D01*
X7563866Y-3168751D01*
X7566456Y-3164636D01*
X7568692Y-3160369D01*
X7570571Y-3155899D01*
X7571994Y-3151276D01*
X7573060Y-3146552D01*
X7573670Y-3141726D01*
X7573924Y-3136696D01*
X7573924Y-3105556D01*
X7574330Y-3102711D01*
X7575499Y-3100070D01*
X7589723Y-3077972D01*
X7595108Y-3070555D01*
X7601051Y-3059430D01*
X7605369Y-3047542D01*
X7608011Y-3035198D01*
X7608874Y-3022600D01*
X7608011Y-3010001D01*
X7605369Y-2997657D01*
X7601051Y-2985820D01*
X7595108Y-2974644D01*
X7587691Y-2964434D01*
X7578953Y-2955340D01*
X7568996Y-2947568D01*
X7558074Y-2941269D01*
X7546340Y-2936544D01*
X7534097Y-2933496D01*
X7521549Y-2932176D01*
X7508951Y-2932633D01*
X7496505Y-2934817D01*
X7484516Y-2938729D01*
X7473137Y-2944266D01*
X7462774Y-2951276D01*
X7458709Y-2952851D01*
X7454341Y-2952648D01*
X7450480Y-2950565D01*
X7447838Y-2947111D01*
X7446924Y-2942844D01*
X7446924Y-2821178D01*
X7447686Y-2817317D01*
X7449870Y-2814015D01*
X7500315Y-2763570D01*
X7503617Y-2761386D01*
X7507478Y-2760624D01*
X7670596Y-2760624D01*
X7675625Y-2760370D01*
X7680452Y-2759760D01*
X7685176Y-2758694D01*
X7689799Y-2757271D01*
X7694269Y-2755392D01*
X7698536Y-2753156D01*
X7702651Y-2750566D01*
X7706461Y-2747619D01*
X7710220Y-2744216D01*
X7849616Y-2604820D01*
X7853019Y-2601061D01*
X7855966Y-2597251D01*
X7858556Y-2593136D01*
X7860792Y-2588869D01*
X7862671Y-2584399D01*
X7864094Y-2579776D01*
X7865160Y-2575052D01*
X7865770Y-2570226D01*
X7866024Y-2565196D01*
X7866024Y-1117803D01*
X7865770Y-1112774D01*
X7865160Y-1107948D01*
X7864094Y-1103223D01*
X7862671Y-1098600D01*
X7860792Y-1094130D01*
X7858556Y-1089863D01*
X7855966Y-1085748D01*
X7853019Y-1081938D01*
X7849616Y-1078179D01*
X7735620Y-964184D01*
X7731861Y-960780D01*
X7728051Y-957834D01*
X7723936Y-955243D01*
X7719669Y-953008D01*
X7715199Y-951128D01*
X7710576Y-949706D01*
X7705852Y-948639D01*
X7701025Y-948029D01*
X7695996Y-947775D01*
X7228078Y-947775D01*
X7224217Y-947013D01*
X7220915Y-944829D01*
X7106970Y-830884D01*
X7104786Y-827582D01*
X7104024Y-823721D01*
X7104024Y-616356D01*
X7104634Y-612851D01*
X7106412Y-609803D01*
X7151370Y-556514D01*
X7160869Y-543814D01*
X7168692Y-530250D01*
X7174839Y-515874D01*
X7179360Y-500888D01*
X7182053Y-485495D01*
X7182967Y-469900D01*
X7182053Y-454304D01*
X7179360Y-438912D01*
X7174839Y-423926D01*
X7168692Y-409549D01*
X7160869Y-395986D01*
X7151522Y-383489D01*
X7140803Y-372110D01*
X7128814Y-362051D01*
X7115759Y-353466D01*
X7101738Y-346405D01*
X7087057Y-341071D01*
X7071868Y-337464D01*
X7056323Y-335635D01*
X7040676Y-335635D01*
X7025131Y-337464D01*
X7009942Y-341071D01*
X6995261Y-346405D01*
X6981240Y-353466D01*
X6968185Y-362051D01*
X6956196Y-372110D01*
X6945477Y-383489D01*
X6936130Y-395986D01*
X6928358Y-409549D01*
X6922160Y-423926D01*
X6917639Y-438912D01*
X6914946Y-454304D01*
X6914032Y-469900D01*
X6914946Y-485495D01*
X6917639Y-500888D01*
X6922160Y-515874D01*
X6928358Y-530250D01*
X6936130Y-543814D01*
X6947052Y-558190D01*
X6990588Y-609803D01*
X6992366Y-612851D01*
X6992975Y-616356D01*
X6992975Y-850696D01*
X6993229Y-855726D01*
X6993839Y-860552D01*
X6994906Y-865276D01*
X6996328Y-869899D01*
X6998208Y-874369D01*
X7000443Y-878636D01*
X7003034Y-882751D01*
X7005980Y-886561D01*
X7009384Y-890320D01*
X7161479Y-1042416D01*
X7165238Y-1045819D01*
X7169048Y-1048766D01*
X7173163Y-1051356D01*
X7177430Y-1053592D01*
X7181900Y-1055471D01*
X7186523Y-1056894D01*
X7191248Y-1057960D01*
X7196074Y-1058570D01*
X7201103Y-1058824D01*
X7669022Y-1058824D01*
X7672882Y-1059586D01*
X7676184Y-1061770D01*
X7752029Y-1137615D01*
X7754213Y-1140917D01*
X7754975Y-1144778D01*
X7754975Y-2538222D01*
X7754213Y-2542082D01*
X7752029Y-2545384D01*
X7650784Y-2646629D01*
X7647482Y-2648813D01*
X7643622Y-2649575D01*
X7480503Y-2649575D01*
X7475474Y-2649829D01*
X7470648Y-2650439D01*
X7465923Y-2651506D01*
X7461300Y-2652928D01*
X7456830Y-2654808D01*
X7452563Y-2657043D01*
X7448448Y-2659634D01*
X7444638Y-2662580D01*
X7440879Y-2665984D01*
X7352284Y-2754579D01*
X7348880Y-2758338D01*
X7345934Y-2762148D01*
X7343343Y-2766263D01*
X7341108Y-2770530D01*
X7339228Y-2775000D01*
X7337806Y-2779623D01*
X7336739Y-2784348D01*
X7336129Y-2789174D01*
X7335875Y-2794203D01*
X7335875Y-2923336D01*
X7335215Y-2927045D01*
X7333183Y-2930245D01*
X7330186Y-2932480D01*
X7326528Y-2933496D01*
X7313879Y-2932074D01*
X7295743Y-2932074D01*
X7295743Y-2991612D01*
X7298994Y-2993237D01*
X7301534Y-2995879D01*
X7302906Y-2999232D01*
X7303058Y-3002838D01*
X7301128Y-3016300D01*
X7301128Y-3028899D01*
X7303058Y-3042361D01*
X7302906Y-3045968D01*
X7301534Y-3049320D01*
X7298994Y-3051962D01*
X7295743Y-3053588D01*
X7295743Y-3113125D01*
X7313879Y-3113125D01*
X7322312Y-3112262D01*
X7329881Y-3109976D01*
X7336891Y-3106267D01*
X7339330Y-3104235D01*
X7342682Y-3102406D01*
X7346543Y-3101949D01*
X7350252Y-3102965D01*
X7357516Y-3106521D01*
X7369505Y-3110382D01*
X7381951Y-3112566D01*
X7394549Y-3113024D01*
X7407097Y-3111703D01*
X7419340Y-3108655D01*
X7431074Y-3103930D01*
X7441996Y-3097631D01*
X7444994Y-3095244D01*
X7448753Y-3093415D01*
X7452969Y-3093262D01*
X7456881Y-3094786D01*
X7459827Y-3097784D01*
X7462469Y-3102711D01*
X7462875Y-3105556D01*
X7462875Y-3109722D01*
X7462113Y-3113582D01*
X7459929Y-3116884D01*
X7263384Y-3313379D01*
X7259980Y-3317138D01*
X7257034Y-3320948D01*
X7254443Y-3325063D01*
X7252208Y-3329330D01*
X7250328Y-3333800D01*
X7248906Y-3338423D01*
X7247839Y-3343148D01*
X7247229Y-3347974D01*
X7246975Y-3353003D01*
X7246975Y-3422243D01*
X7246366Y-3425748D01*
X7244588Y-3428796D01*
X7199630Y-3482086D01*
X7190130Y-3494786D01*
X7182358Y-3508349D01*
X7176160Y-3522726D01*
X7171639Y-3537712D01*
X7168946Y-3553104D01*
X7168032Y-3568700D01*
X7168946Y-3584295D01*
X7171639Y-3599687D01*
X7176160Y-3614674D01*
X7182358Y-3629050D01*
X7190130Y-3642614D01*
X7199477Y-3655161D01*
X7210196Y-3666490D01*
X7222185Y-3676548D01*
X7235240Y-3685133D01*
X7249261Y-3692194D01*
X7263942Y-3697528D01*
X7279131Y-3701135D01*
X7294676Y-3702964D01*
X7310323Y-3702964D01*
X7319162Y-3701897D01*
X7323277Y-3702304D01*
X7326934Y-3704285D01*
X7329474Y-3707587D01*
X7330490Y-3711600D01*
X7329779Y-3715715D01*
X7327493Y-3719169D01*
X7206284Y-3840429D01*
X7202982Y-3842613D01*
X7199122Y-3843375D01*
X7106056Y-3843375D01*
X7103211Y-3842969D01*
X7100570Y-3841800D01*
X7090054Y-3834993D01*
X7087006Y-3831945D01*
X7080199Y-3821429D01*
X7079030Y-3818788D01*
X7078624Y-3815943D01*
X7078624Y-2794203D01*
X7078370Y-2789174D01*
X7077760Y-2784348D01*
X7076694Y-2779623D01*
X7075271Y-2775000D01*
X7073392Y-2770530D01*
X7071156Y-2766263D01*
X7068566Y-2762148D01*
X7065619Y-2758338D01*
X7062216Y-2754579D01*
X6605320Y-2297684D01*
X6601561Y-2294280D01*
X6597751Y-2291334D01*
X6593636Y-2288743D01*
X6589369Y-2286508D01*
X6584899Y-2284628D01*
X6580276Y-2283206D01*
X6575552Y-2282139D01*
X6570725Y-2281529D01*
X6565696Y-2281275D01*
X6161278Y-2281275D01*
X6157417Y-2280513D01*
X6154115Y-2278329D01*
X5868720Y-1992884D01*
X5864961Y-1989480D01*
X5861151Y-1986534D01*
X5857036Y-1983943D01*
X5852769Y-1981707D01*
X5848299Y-1979828D01*
X5843676Y-1978406D01*
X5838952Y-1977339D01*
X5834126Y-1976729D01*
X5829096Y-1976475D01*
X4751578Y-1976475D01*
X4747717Y-1975713D01*
X4744415Y-1973529D01*
X4554270Y-1783384D01*
X4552086Y-1780082D01*
X4551324Y-1776222D01*
X4551324Y-1541780D01*
X4552086Y-1537919D01*
X4554270Y-1534617D01*
X4945735Y-1143152D01*
X4948478Y-1141171D01*
X4951730Y-1140256D01*
X5000548Y-1134364D01*
X5012690Y-1132738D01*
X5026812Y-1129131D01*
X5040274Y-1123797D01*
X5052974Y-1116787D01*
X5064709Y-1108303D01*
X5075275Y-1098346D01*
X5084521Y-1087170D01*
X5092293Y-1074928D01*
X5098491Y-1061821D01*
X5102961Y-1048003D01*
X5105654Y-1033780D01*
X5106568Y-1019302D01*
X5105654Y-1004824D01*
X5102961Y-990600D01*
X5098491Y-976782D01*
X5092293Y-963676D01*
X5084470Y-951331D01*
X5048758Y-905967D01*
X5047183Y-902969D01*
X5046624Y-899668D01*
X5046624Y-793546D01*
X5047386Y-789635D01*
X5049570Y-786333D01*
X5052872Y-784148D01*
X5056784Y-783386D01*
X5060645Y-784148D01*
X5063947Y-786333D01*
X5091226Y-813612D01*
X5098999Y-820115D01*
X5107381Y-824992D01*
X5116423Y-828294D01*
X5125974Y-829970D01*
X5135626Y-829970D01*
X5145176Y-828294D01*
X5154218Y-824992D01*
X5162600Y-820115D01*
X5170373Y-813612D01*
X5358587Y-625398D01*
X5361482Y-623366D01*
X5364886Y-622452D01*
X5432501Y-616712D01*
X5495696Y-613257D01*
X5499862Y-613918D01*
X5503418Y-616254D01*
X5974029Y-1086815D01*
X5976213Y-1090117D01*
X5976975Y-1093978D01*
X5976975Y-1460296D01*
X5977229Y-1465326D01*
X5977839Y-1470152D01*
X5978906Y-1474876D01*
X5980328Y-1479499D01*
X5982208Y-1483969D01*
X5984443Y-1488236D01*
X5987034Y-1492351D01*
X5989980Y-1496161D01*
X5993384Y-1499920D01*
X6182664Y-1689201D01*
X6185154Y-1693164D01*
X6194653Y-1721764D01*
X6195212Y-1724964D01*
X6195212Y-1815592D01*
X6196025Y-1823974D01*
X6198311Y-1831593D01*
X6202070Y-1838553D01*
X6207099Y-1844700D01*
X6213246Y-1849729D01*
X6220206Y-1853488D01*
X6227826Y-1855774D01*
X6236208Y-1856587D01*
X6387592Y-1856587D01*
X6395974Y-1855774D01*
X6403594Y-1853488D01*
X6410553Y-1849729D01*
X6416700Y-1844700D01*
X6421729Y-1838553D01*
X6425488Y-1831593D01*
X6427774Y-1823974D01*
X6428587Y-1815592D01*
X6428587Y-1808734D01*
X6429298Y-1805025D01*
X6431229Y-1801875D01*
X6434226Y-1799640D01*
X6440525Y-1796491D01*
X6445046Y-1795424D01*
X6813753Y-1795424D01*
X6818274Y-1796491D01*
X6824573Y-1799640D01*
X6827570Y-1801875D01*
X6829501Y-1805025D01*
X6830212Y-1808734D01*
X6830212Y-1815592D01*
X6831025Y-1823974D01*
X6833311Y-1831593D01*
X6837070Y-1838553D01*
X6842099Y-1844700D01*
X6848246Y-1849729D01*
X6855206Y-1853488D01*
X6862825Y-1855774D01*
X6871208Y-1856587D01*
X7022592Y-1856587D01*
X7030974Y-1855774D01*
X7038594Y-1853488D01*
X7045553Y-1849729D01*
X7051700Y-1844700D01*
X7056729Y-1838553D01*
X7060488Y-1831593D01*
X7062774Y-1823974D01*
X7063587Y-1815592D01*
X7063587Y-1808734D01*
X7064298Y-1805025D01*
X7066229Y-1801875D01*
X7069226Y-1799640D01*
X7075525Y-1796491D01*
X7080046Y-1795424D01*
X7461453Y-1795424D01*
X7465974Y-1796491D01*
X7472273Y-1799640D01*
X7475270Y-1801875D01*
X7477201Y-1805025D01*
X7477912Y-1808734D01*
X7477912Y-1815592D01*
X7478725Y-1823974D01*
X7481011Y-1831593D01*
X7484770Y-1838553D01*
X7489799Y-1844700D01*
X7495946Y-1849729D01*
X7502906Y-1853488D01*
X7510525Y-1855774D01*
X7518908Y-1856587D01*
X7670292Y-1856587D01*
X7678674Y-1855774D01*
X7686294Y-1853488D01*
X7693253Y-1849729D01*
X7699400Y-1844700D01*
X7704429Y-1838553D01*
X7708188Y-1831593D01*
X7710474Y-1823974D01*
X7711287Y-1815592D01*
X7711287Y-1664207D01*
X7710474Y-1655825D01*
X7708188Y-1648206D01*
X7704429Y-1641246D01*
X7699400Y-1635099D01*
X7693253Y-1630070D01*
X7686294Y-1626311D01*
X7678674Y-1624025D01*
X7670292Y-1623212D01*
X7518908Y-1623212D01*
X7510525Y-1624025D01*
X7502906Y-1626311D01*
X7495946Y-1630070D01*
X7489799Y-1635099D01*
X7484770Y-1641246D01*
X7481011Y-1648206D01*
X7478725Y-1655825D01*
X7477912Y-1664207D01*
X7477912Y-1671066D01*
X7477201Y-1674774D01*
X7475270Y-1677924D01*
X7472273Y-1680159D01*
X7465974Y-1683308D01*
X7461453Y-1684375D01*
X7080046Y-1684375D01*
X7075525Y-1683308D01*
X7069226Y-1680159D01*
X7066229Y-1677924D01*
X7064298Y-1674774D01*
X7063587Y-1671066D01*
X7063587Y-1664207D01*
X7062774Y-1655825D01*
X7060488Y-1648206D01*
X7056729Y-1641246D01*
X7051700Y-1635099D01*
X7045553Y-1630070D01*
X7038594Y-1626311D01*
X7030974Y-1624025D01*
X7022592Y-1623212D01*
X6871208Y-1623212D01*
X6862825Y-1624025D01*
X6855206Y-1626311D01*
X6848246Y-1630070D01*
X6842099Y-1635099D01*
X6837070Y-1641246D01*
X6833311Y-1648206D01*
X6831025Y-1655825D01*
X6830212Y-1664207D01*
X6830212Y-1671066D01*
X6829501Y-1674774D01*
X6827570Y-1677924D01*
X6824573Y-1680159D01*
X6818274Y-1683308D01*
X6813753Y-1684375D01*
X6445046Y-1684375D01*
X6440525Y-1683308D01*
X6434226Y-1680159D01*
X6431229Y-1677924D01*
X6429298Y-1674774D01*
X6428587Y-1671066D01*
X6428587Y-1664207D01*
X6427774Y-1655825D01*
X6425488Y-1648206D01*
X6421729Y-1641246D01*
X6416700Y-1635099D01*
X6410553Y-1630070D01*
X6403594Y-1626311D01*
X6395974Y-1624025D01*
X6387592Y-1623212D01*
X6296964Y-1623212D01*
X6293764Y-1622653D01*
X6274409Y-1616202D01*
X6270752Y-1614119D01*
X6268313Y-1610715D01*
X6267450Y-1606600D01*
X6267450Y-1530350D01*
X6201968Y-1530350D01*
X6199936Y-1534007D01*
X6196685Y-1536547D01*
X6192621Y-1537512D01*
X6188557Y-1536852D01*
X6185052Y-1534566D01*
X6090970Y-1440484D01*
X6088786Y-1437182D01*
X6088024Y-1433322D01*
X6088024Y-1067003D01*
X6087770Y-1061974D01*
X6087160Y-1057148D01*
X6086094Y-1052423D01*
X6084671Y-1047800D01*
X6082792Y-1043330D01*
X6080556Y-1039063D01*
X6077966Y-1034948D01*
X6075019Y-1031138D01*
X6071616Y-1027379D01*
X5573217Y-528980D01*
X5571490Y-526745D01*
X5570474Y-524103D01*
X5554472Y-454761D01*
X5553252Y-450596D01*
X5551728Y-444042D01*
X5546394Y-429361D01*
X5539333Y-415340D01*
X5530748Y-402285D01*
X5520690Y-390296D01*
X5509361Y-379577D01*
X5496814Y-370230D01*
X5483250Y-362458D01*
X5468874Y-356260D01*
X5453888Y-351739D01*
X5438495Y-349046D01*
X5422900Y-348132D01*
X5407304Y-349046D01*
X5391912Y-351739D01*
X5376926Y-356260D01*
X5362549Y-362458D01*
X5348986Y-370230D01*
X5336489Y-379577D01*
X5325110Y-390296D01*
X5315051Y-402285D01*
X5306466Y-415340D01*
X5299405Y-429361D01*
X5294071Y-444042D01*
X5290464Y-459282D01*
X5288737Y-473456D01*
X5283047Y-540613D01*
X5282133Y-544017D01*
X5280101Y-546912D01*
X5137962Y-689000D01*
X5134711Y-691235D01*
X5130800Y-691997D01*
X5126888Y-691235D01*
X5123637Y-689000D01*
X5083403Y-648766D01*
X5081168Y-645515D01*
X5080406Y-641604D01*
X5081168Y-637692D01*
X5083403Y-634441D01*
X5157216Y-560628D01*
X5160619Y-556869D01*
X5163566Y-553059D01*
X5166156Y-548944D01*
X5168392Y-544677D01*
X5170271Y-540207D01*
X5171694Y-535584D01*
X5172760Y-530860D01*
X5173370Y-526034D01*
X5173624Y-521004D01*
X5173624Y-433019D01*
X5173370Y-427532D01*
X5172760Y-423164D01*
X5171744Y-418084D01*
X5168392Y-408889D01*
X5163515Y-400507D01*
X5157012Y-392734D01*
X5106720Y-342392D01*
X5102961Y-338988D01*
X5099151Y-336042D01*
X5095036Y-333451D01*
X5090769Y-331216D01*
X5086299Y-329336D01*
X5081676Y-327914D01*
X5076952Y-326847D01*
X5072126Y-326237D01*
X5067096Y-325983D01*
X5016703Y-325983D01*
X5011674Y-326237D01*
X5006848Y-326847D01*
X5002123Y-327914D01*
X4997500Y-329336D01*
X4993030Y-331216D01*
X4988763Y-333451D01*
X4984648Y-336042D01*
X4980838Y-338988D01*
X4977079Y-342392D01*
X4960162Y-359308D01*
X4956911Y-361543D01*
X4953000Y-362305D01*
X4949088Y-361543D01*
X4945837Y-359308D01*
X4928920Y-342392D01*
X4925161Y-338988D01*
X4921351Y-336042D01*
X4917236Y-333451D01*
X4912969Y-331216D01*
X4908499Y-329336D01*
X4903876Y-327914D01*
X4899152Y-326847D01*
X4894326Y-326237D01*
X4889296Y-325983D01*
X4838903Y-325983D01*
X4833874Y-326237D01*
X4829048Y-326847D01*
X4824323Y-327914D01*
X4819700Y-329336D01*
X4815230Y-331216D01*
X4810963Y-333451D01*
X4806848Y-336042D01*
X4803038Y-338988D01*
X4799279Y-342392D01*
X4748784Y-392887D01*
X4745380Y-396646D01*
X4742434Y-400456D01*
X4739843Y-404571D01*
X4737608Y-408838D01*
X4735728Y-413308D01*
X4734306Y-417931D01*
X4733239Y-422656D01*
X4732629Y-427482D01*
X4732375Y-432511D01*
X4732375Y-546404D01*
X4732629Y-551434D01*
X4733239Y-556260D01*
X4734306Y-560984D01*
X4735728Y-565607D01*
X4737608Y-570077D01*
X4739843Y-574344D01*
X4742434Y-578459D01*
X4745380Y-582269D01*
X4748784Y-586028D01*
X4932629Y-769823D01*
X4934813Y-773125D01*
X4935575Y-776986D01*
X4935575Y-860755D01*
X4934813Y-864666D01*
X4932629Y-867968D01*
X4929327Y-870153D01*
X4925415Y-870915D01*
X4921554Y-870153D01*
X4918252Y-867968D01*
X4635550Y-585266D01*
X4633722Y-582726D01*
X4632706Y-579729D01*
X4632655Y-576630D01*
X4642053Y-511098D01*
X4642967Y-495300D01*
X4642053Y-479704D01*
X4639360Y-464312D01*
X4634839Y-449326D01*
X4628692Y-434949D01*
X4620869Y-421385D01*
X4611522Y-408889D01*
X4600803Y-397510D01*
X4588814Y-387451D01*
X4575759Y-378866D01*
X4561738Y-371805D01*
X4547057Y-366471D01*
X4531868Y-362864D01*
X4516323Y-361035D01*
X4500676Y-361035D01*
X4485132Y-362864D01*
X4469942Y-366471D01*
X4455261Y-371805D01*
X4441240Y-378866D01*
X4428185Y-387451D01*
X4416196Y-397510D01*
X4405477Y-408889D01*
X4396130Y-421385D01*
X4388358Y-434949D01*
X4382160Y-449326D01*
X4377639Y-464312D01*
X4374946Y-479704D01*
X4374032Y-495300D01*
X4374946Y-510895D01*
X4377639Y-526288D01*
X4382160Y-541274D01*
X4388358Y-555650D01*
X4396130Y-569214D01*
X4405477Y-581761D01*
X4416196Y-593090D01*
X4428185Y-603148D01*
X4441240Y-611733D01*
X4455261Y-618794D01*
X4468774Y-623773D01*
X4538624Y-646887D01*
X4542637Y-649325D01*
X4787747Y-894435D01*
X4789932Y-897686D01*
X4790694Y-901547D01*
X4789932Y-905459D01*
X4787798Y-908710D01*
X4784547Y-910945D01*
X4780686Y-911758D01*
X4776825Y-911047D01*
X4772812Y-909472D01*
X4758690Y-905865D01*
X4746548Y-904240D01*
X4697730Y-898347D01*
X4694478Y-897432D01*
X4691735Y-895451D01*
X4506518Y-710184D01*
X4502759Y-706780D01*
X4498949Y-703834D01*
X4494834Y-701243D01*
X4490567Y-699008D01*
X4486097Y-697128D01*
X4481474Y-695706D01*
X4476750Y-694639D01*
X4471924Y-694029D01*
X4466894Y-693775D01*
X3799078Y-693775D01*
X3795217Y-693013D01*
X3791915Y-690829D01*
X3660698Y-559612D01*
X3658666Y-556717D01*
X3657752Y-553313D01*
X3651504Y-479856D01*
X3648760Y-464312D01*
X3644239Y-449326D01*
X3638092Y-434949D01*
X3630269Y-421385D01*
X3620922Y-408889D01*
X3610203Y-397510D01*
X3598214Y-387451D01*
X3585159Y-378866D01*
X3571138Y-371805D01*
X3556457Y-366471D01*
X3541268Y-362864D01*
X3525723Y-361035D01*
X3510076Y-361035D01*
X3494532Y-362864D01*
X3479342Y-366471D01*
X3464661Y-371805D01*
X3450640Y-378866D01*
X3437585Y-387451D01*
X3429406Y-394055D01*
X3377996Y-437388D01*
X3374948Y-439166D01*
X3371443Y-439775D01*
X3260445Y-439775D01*
X3257194Y-439267D01*
X3254298Y-437692D01*
X3211271Y-404723D01*
X3199079Y-397357D01*
X3186176Y-391617D01*
X3172561Y-387604D01*
X3158591Y-385318D01*
X3144469Y-384860D01*
X3130346Y-386232D01*
X3116580Y-389382D01*
X3103270Y-394258D01*
X3090722Y-400812D01*
X3079089Y-408940D01*
X3068624Y-418439D01*
X3059430Y-429209D01*
X3056585Y-433628D01*
X3053892Y-436422D01*
X3050336Y-437946D01*
X3046476Y-438099D01*
X3042818Y-436778D01*
X3039922Y-434136D01*
X3032150Y-423672D01*
X3022295Y-413512D01*
X3011220Y-404672D01*
X2999079Y-397357D01*
X2989326Y-393039D01*
X2989326Y-453948D01*
X3031490Y-453948D01*
X3035808Y-454914D01*
X3039313Y-457657D01*
X3041345Y-461670D01*
X3041446Y-466090D01*
X3038398Y-481177D01*
X3037535Y-495300D01*
X3038398Y-509422D01*
X3041446Y-524510D01*
X3041345Y-528929D01*
X3039313Y-532942D01*
X3035808Y-535686D01*
X3031490Y-536651D01*
X2989326Y-536651D01*
X2989326Y-597560D01*
X2999079Y-593242D01*
X3011220Y-585927D01*
X3022295Y-577088D01*
X3032150Y-566928D01*
X3039922Y-556463D01*
X3042818Y-553821D01*
X3046476Y-552500D01*
X3050336Y-552653D01*
X3053892Y-554177D01*
X3056585Y-556971D01*
X3059430Y-561390D01*
X3068624Y-572160D01*
X3079089Y-581660D01*
X3090722Y-589788D01*
X3103270Y-596341D01*
X3116580Y-601218D01*
X3130346Y-604367D01*
X3144469Y-605739D01*
X3158591Y-605282D01*
X3172561Y-602996D01*
X3186176Y-598982D01*
X3199079Y-593242D01*
X3211271Y-585876D01*
X3254298Y-552907D01*
X3257194Y-551332D01*
X3260445Y-550824D01*
X3371443Y-550824D01*
X3374948Y-551434D01*
X3377996Y-553212D01*
X3429406Y-596544D01*
X3437585Y-603148D01*
X3450640Y-611733D01*
X3464661Y-618794D01*
X3479342Y-624128D01*
X3494582Y-627735D01*
X3508756Y-629462D01*
X3575913Y-635152D01*
X3579317Y-636066D01*
X3582212Y-638098D01*
X3732479Y-788416D01*
X3736238Y-791819D01*
X3740048Y-794766D01*
X3744163Y-797356D01*
X3748430Y-799592D01*
X3752900Y-801471D01*
X3757523Y-802894D01*
X3762248Y-803960D01*
X3767074Y-804570D01*
X3772103Y-804824D01*
X4439920Y-804824D01*
X4443780Y-805586D01*
X4447082Y-807770D01*
X4533696Y-894435D01*
X4535932Y-897686D01*
X4536694Y-901547D01*
X4535932Y-905408D01*
X4533798Y-908710D01*
X4530547Y-910945D01*
X4526686Y-911758D01*
X4522774Y-911047D01*
X4518812Y-909472D01*
X4504740Y-905865D01*
X4490364Y-904036D01*
X4475835Y-904036D01*
X4461459Y-905865D01*
X4447387Y-909472D01*
X4433925Y-914806D01*
X4421225Y-921816D01*
X4409490Y-930300D01*
X4398924Y-940257D01*
X4389678Y-951433D01*
X4381906Y-963676D01*
X4375708Y-976782D01*
X4371238Y-990600D01*
X4368546Y-1004824D01*
X4367631Y-1019302D01*
X4368546Y-1033780D01*
X4371238Y-1048003D01*
X4375708Y-1061821D01*
X4381906Y-1074928D01*
X4389678Y-1087170D01*
X4398924Y-1098346D01*
X4409490Y-1108303D01*
X4421225Y-1116787D01*
X4433925Y-1123797D01*
X4447387Y-1129131D01*
X4461459Y-1132738D01*
X4475835Y-1134567D01*
X4490364Y-1134567D01*
X4504740Y-1132738D01*
X4518812Y-1129131D01*
X4532274Y-1123797D01*
X4544974Y-1116787D01*
X4556709Y-1108303D01*
X4567275Y-1098346D01*
X4576521Y-1087170D01*
X4584293Y-1074928D01*
X4590491Y-1061821D01*
X4594961Y-1048003D01*
X4597654Y-1033780D01*
X4598568Y-1019302D01*
X4597654Y-1004824D01*
X4594961Y-990600D01*
X4591253Y-979119D01*
X4590796Y-974648D01*
X4592370Y-970432D01*
X4595571Y-967282D01*
X4599838Y-965860D01*
X4604308Y-966368D01*
X4608068Y-968756D01*
X4613249Y-973937D01*
X4615230Y-976680D01*
X4616145Y-979932D01*
X4622495Y-1033627D01*
X4625238Y-1048003D01*
X4629708Y-1061821D01*
X4635906Y-1074928D01*
X4643678Y-1087170D01*
X4652924Y-1098346D01*
X4663490Y-1108303D01*
X4675225Y-1116787D01*
X4687925Y-1123797D01*
X4701387Y-1129131D01*
X4715459Y-1132738D01*
X4729835Y-1134567D01*
X4744364Y-1134567D01*
X4758740Y-1132738D01*
X4772812Y-1129131D01*
X4776774Y-1127556D01*
X4780686Y-1126845D01*
X4784547Y-1127658D01*
X4787798Y-1129893D01*
X4789932Y-1133195D01*
X4790694Y-1137056D01*
X4789932Y-1140917D01*
X4787696Y-1144168D01*
X4456684Y-1475181D01*
X4453280Y-1478940D01*
X4450334Y-1482750D01*
X4447743Y-1486865D01*
X4445508Y-1491132D01*
X4443628Y-1495602D01*
X4442206Y-1500225D01*
X4441139Y-1504950D01*
X4440529Y-1509776D01*
X4440275Y-1514805D01*
X4440275Y-1803196D01*
X4440529Y-1808225D01*
X4441139Y-1813052D01*
X4442206Y-1817776D01*
X4443628Y-1822399D01*
X4445508Y-1826869D01*
X4447743Y-1831136D01*
X4450334Y-1835251D01*
X4453280Y-1839061D01*
X4456684Y-1842820D01*
X4684979Y-2071116D01*
X4688738Y-2074519D01*
X4692548Y-2077466D01*
X4696663Y-2080056D01*
X4700930Y-2082292D01*
X4705400Y-2084171D01*
X4710023Y-2085593D01*
X4714748Y-2086660D01*
X4719574Y-2087270D01*
X4724603Y-2087524D01*
X5802122Y-2087524D01*
X5805982Y-2088286D01*
X5809284Y-2090470D01*
X6094679Y-2375916D01*
X6098438Y-2379319D01*
X6102248Y-2382266D01*
X6106363Y-2384856D01*
X6110630Y-2387092D01*
X6115100Y-2388971D01*
X6119723Y-2390394D01*
X6124448Y-2391460D01*
X6129274Y-2392070D01*
X6134303Y-2392324D01*
X6538722Y-2392324D01*
X6542582Y-2393086D01*
X6545884Y-2395270D01*
X6964629Y-2814015D01*
X6966813Y-2817317D01*
X6967575Y-2821178D01*
X6967575Y-3815943D01*
X6967169Y-3818788D01*
X6966000Y-3821429D01*
X6952284Y-3842765D01*
X6949897Y-3845712D01*
X6943191Y-3856431D01*
X6938060Y-3867962D01*
X6934606Y-3880104D01*
X6932828Y-3892600D01*
X6932828Y-3905199D01*
X6934606Y-3917696D01*
X6938060Y-3929837D01*
X6943191Y-3941368D01*
X6949897Y-3952087D01*
X6958025Y-3961739D01*
X6967372Y-3970223D01*
X6977837Y-3977284D01*
X6989216Y-3982770D01*
X7001205Y-3986682D01*
X7013651Y-3988866D01*
X7026249Y-3989324D01*
X7038797Y-3988003D01*
X7051040Y-3984955D01*
X7062774Y-3980230D01*
X7073696Y-3973931D01*
X7078573Y-3970121D01*
X7100570Y-3955999D01*
X7103211Y-3954830D01*
X7106056Y-3954424D01*
X7529322Y-3954424D01*
X7533182Y-3955186D01*
X7536484Y-3957370D01*
X7604201Y-4025087D01*
X7606233Y-4027982D01*
X7607147Y-4031386D01*
X7613396Y-4104843D01*
X7616139Y-4120387D01*
X7620660Y-4135374D01*
X7626858Y-4149750D01*
X7634630Y-4163314D01*
X7645552Y-4177690D01*
X7689088Y-4229303D01*
X7690866Y-4232351D01*
X7691475Y-4235856D01*
X7691475Y-4298543D01*
X7690866Y-4302048D01*
X7689088Y-4305096D01*
X7644130Y-4358386D01*
X7634630Y-4371086D01*
X7626858Y-4384649D01*
X7620660Y-4399026D01*
X7616139Y-4414012D01*
X7613446Y-4429404D01*
X7612532Y-4445000D01*
X7613446Y-4460595D01*
X7616139Y-4475988D01*
X7620660Y-4490974D01*
X7626858Y-4505350D01*
X7634630Y-4518914D01*
X7643977Y-4531461D01*
X7654696Y-4542790D01*
X7666685Y-4552848D01*
X7679740Y-4561433D01*
X7693761Y-4568494D01*
X7708442Y-4573828D01*
X7723631Y-4577435D01*
G37*
G36*
X2835351Y-4551070D02*
G01*
X2900070Y-4551070D01*
X2900070Y-4486452D01*
X2892704Y-4489551D01*
X2879852Y-4496968D01*
X2868015Y-4505909D01*
X2857347Y-4516221D01*
X2848051Y-4527804D01*
X2840228Y-4540402D01*
G37*
G36*
X2992729Y-4551070D02*
G01*
X3057398Y-4551070D01*
X3055874Y-4547057D01*
X3048863Y-4533950D01*
X3040278Y-4521860D01*
X3030270Y-4510887D01*
X3018993Y-4501235D01*
X3006648Y-4493056D01*
X2992729Y-4486249D01*
G37*
G36*
X4394200Y-4335272D02*
G01*
X4394200Y-4267200D01*
X4326229Y-4267200D01*
X4329887Y-4275480D01*
X4337659Y-4288688D01*
X4347006Y-4300880D01*
X4357674Y-4311853D01*
X4369562Y-4321505D01*
X4382516Y-4329734D01*
G37*
G36*
X4495800Y-4335170D02*
G01*
X4500626Y-4333189D01*
X4514088Y-4325823D01*
X4526534Y-4316882D01*
X4537862Y-4306519D01*
X4547870Y-4294936D01*
X4556404Y-4282186D01*
X4563414Y-4268571D01*
X4563922Y-4267200D01*
X4495800Y-4267200D01*
G37*
G36*
X1034491Y-4314545D02*
G01*
X1118565Y-4314545D01*
X1117752Y-4300169D01*
X1115110Y-4284624D01*
X1110742Y-4269486D01*
X1104696Y-4254957D01*
X1097076Y-4241139D01*
X1087983Y-4228287D01*
X1077468Y-4216552D01*
X1065733Y-4206036D01*
X1052880Y-4196943D01*
X1039063Y-4189323D01*
X1034491Y-4187393D01*
G37*
G36*
X837692Y-4314545D02*
G01*
X921766Y-4314545D01*
X921766Y-4187393D01*
X917194Y-4189323D01*
X903376Y-4196943D01*
X890524Y-4206036D01*
X878789Y-4216552D01*
X868273Y-4228287D01*
X859180Y-4241139D01*
X851560Y-4254957D01*
X845515Y-4269486D01*
X841146Y-4284624D01*
X838504Y-4300169D01*
G37*
G36*
X4326229Y-4165600D02*
G01*
X4394200Y-4165600D01*
X4394200Y-4097528D01*
X4382516Y-4103065D01*
X4369562Y-4111294D01*
X4357674Y-4120946D01*
X4347006Y-4131919D01*
X4337659Y-4144111D01*
X4329887Y-4157319D01*
G37*
G36*
X4495800Y-4165600D02*
G01*
X4563922Y-4165600D01*
X4563414Y-4164228D01*
X4556404Y-4150614D01*
X4547870Y-4137863D01*
X4537862Y-4126280D01*
X4526534Y-4115917D01*
X4514088Y-4106976D01*
X4500626Y-4099610D01*
X4495800Y-4097629D01*
G37*
G36*
X2005025Y-4150817D02*
G01*
X2019858Y-4150106D01*
X2034489Y-4147565D01*
X2048662Y-4143248D01*
X2062225Y-4137253D01*
X2074925Y-4129582D01*
X2086610Y-4120438D01*
X2097074Y-4109923D01*
X2106168Y-4098239D01*
X2113788Y-4085488D01*
X2119731Y-4071874D01*
X2123998Y-4057700D01*
X2126437Y-4043070D01*
X2127097Y-4028236D01*
X2125929Y-4013454D01*
X2122932Y-3998925D01*
X2118207Y-3984853D01*
X2111756Y-3971493D01*
X2103729Y-3958996D01*
X2094230Y-3947617D01*
X2083409Y-3937457D01*
X2071420Y-3928770D01*
X2058466Y-3921556D01*
X2044700Y-3916019D01*
X2030374Y-3912209D01*
X2024989Y-3911447D01*
X2021992Y-3910584D01*
X1983181Y-3892194D01*
X1980336Y-3890213D01*
X1574495Y-3484422D01*
X1567281Y-3478428D01*
X1565097Y-3476904D01*
X1557070Y-3472027D01*
X1554683Y-3470859D01*
X1545996Y-3467252D01*
X1543507Y-3466439D01*
X1534363Y-3464153D01*
X1522425Y-3462832D01*
X555955Y-3462832D01*
X544017Y-3464153D01*
X534873Y-3466439D01*
X532384Y-3467252D01*
X523697Y-3470859D01*
X521360Y-3472027D01*
X513283Y-3476904D01*
X511149Y-3478428D01*
X503885Y-3484422D01*
X404317Y-3583940D01*
X400913Y-3586175D01*
X372059Y-3597706D01*
X368300Y-3598418D01*
X364540Y-3597706D01*
X340918Y-3588258D01*
X337566Y-3586073D01*
X335280Y-3582771D01*
X334518Y-3578809D01*
X334518Y-3390239D01*
X335483Y-3385921D01*
X338175Y-3382416D01*
X342138Y-3380384D01*
X346557Y-3380282D01*
X350621Y-3382010D01*
X357225Y-3386785D01*
X369925Y-3393795D01*
X383387Y-3399129D01*
X397459Y-3402736D01*
X411835Y-3404565D01*
X426364Y-3404565D01*
X440740Y-3402736D01*
X454812Y-3399129D01*
X468274Y-3393795D01*
X480974Y-3386785D01*
X492709Y-3378301D01*
X503275Y-3368344D01*
X512521Y-3357168D01*
X520293Y-3344926D01*
X526491Y-3331819D01*
X530961Y-3318001D01*
X533654Y-3303778D01*
X534568Y-3289300D01*
X533654Y-3274822D01*
X530961Y-3260598D01*
X526491Y-3246780D01*
X520293Y-3233674D01*
X512521Y-3221431D01*
X503275Y-3210255D01*
X492709Y-3200298D01*
X480974Y-3191814D01*
X468274Y-3184804D01*
X454812Y-3179470D01*
X440740Y-3175863D01*
X426364Y-3174034D01*
X411835Y-3174034D01*
X397459Y-3175863D01*
X383387Y-3179470D01*
X369925Y-3184804D01*
X357225Y-3191814D01*
X350621Y-3196590D01*
X346557Y-3198317D01*
X342138Y-3198215D01*
X338175Y-3196183D01*
X335483Y-3192678D01*
X334518Y-3188360D01*
X334518Y-1221943D01*
X335280Y-1218082D01*
X337464Y-1214780D01*
X398424Y-1153820D01*
X400862Y-1152042D01*
X434797Y-1134160D01*
X438251Y-1133043D01*
X440740Y-1132738D01*
X454812Y-1129131D01*
X468274Y-1123797D01*
X480974Y-1116787D01*
X492709Y-1108303D01*
X503275Y-1098346D01*
X512521Y-1087170D01*
X520293Y-1074928D01*
X526491Y-1061821D01*
X530961Y-1048003D01*
X533654Y-1033780D01*
X534568Y-1019302D01*
X533654Y-1004824D01*
X530961Y-990600D01*
X526491Y-976782D01*
X520293Y-963676D01*
X512521Y-951433D01*
X503275Y-940257D01*
X492709Y-930300D01*
X480974Y-921816D01*
X468274Y-914806D01*
X454812Y-909472D01*
X440740Y-905865D01*
X426364Y-904036D01*
X411835Y-904036D01*
X397459Y-905865D01*
X383387Y-909472D01*
X369925Y-914806D01*
X357225Y-921816D01*
X345490Y-930300D01*
X334924Y-940257D01*
X325678Y-951433D01*
X317906Y-963676D01*
X311708Y-976782D01*
X307238Y-990600D01*
X305308Y-1000607D01*
X304342Y-1003452D01*
X286359Y-1037539D01*
X284530Y-1039977D01*
X195122Y-1129487D01*
X189128Y-1136751D01*
X187604Y-1138885D01*
X182727Y-1146962D01*
X181559Y-1149299D01*
X177952Y-1157986D01*
X177139Y-1160475D01*
X174853Y-1169619D01*
X173532Y-1181557D01*
X173532Y-3622344D01*
X174853Y-3634282D01*
X177139Y-3643426D01*
X177952Y-3645915D01*
X181559Y-3654602D01*
X182727Y-3656939D01*
X187604Y-3665016D01*
X189128Y-3667150D01*
X195122Y-3674414D01*
X218440Y-3697782D01*
X220675Y-3701186D01*
X239623Y-3748582D01*
X240284Y-3751173D01*
X240944Y-3756710D01*
X244551Y-3771595D01*
X249885Y-3785971D01*
X256895Y-3799586D01*
X265430Y-3812336D01*
X275437Y-3823919D01*
X286766Y-3834282D01*
X299212Y-3843223D01*
X312674Y-3850589D01*
X326847Y-3856380D01*
X341630Y-3860393D01*
X356819Y-3862679D01*
X372110Y-3863136D01*
X387400Y-3861765D01*
X402386Y-3858615D01*
X416915Y-3853687D01*
X430784Y-3847134D01*
X443738Y-3838905D01*
X455625Y-3829253D01*
X466293Y-3818280D01*
X475640Y-3806088D01*
X483412Y-3792880D01*
X489610Y-3778859D01*
X494080Y-3764178D01*
X496620Y-3750005D01*
X497179Y-3748024D01*
X515924Y-3701186D01*
X518159Y-3697782D01*
X589178Y-3626764D01*
X592480Y-3624579D01*
X596341Y-3623818D01*
X826617Y-3623818D01*
X830580Y-3624630D01*
X833932Y-3626865D01*
X836066Y-3630269D01*
X836777Y-3634282D01*
X835863Y-3638194D01*
X833475Y-3641445D01*
X831037Y-3643680D01*
X821029Y-3655263D01*
X812495Y-3668014D01*
X805484Y-3681628D01*
X804976Y-3683000D01*
X873099Y-3683000D01*
X873099Y-3633978D01*
X873861Y-3630066D01*
X876096Y-3626764D01*
X879348Y-3624579D01*
X883259Y-3623818D01*
X964539Y-3623818D01*
X968451Y-3624579D01*
X971702Y-3626764D01*
X973937Y-3630066D01*
X974699Y-3633978D01*
X974699Y-3683000D01*
X1042669Y-3683000D01*
X1039012Y-3674719D01*
X1031240Y-3661511D01*
X1021892Y-3649319D01*
X1013866Y-3641039D01*
X1011732Y-3637737D01*
X1011021Y-3633876D01*
X1011783Y-3630015D01*
X1014018Y-3626764D01*
X1017269Y-3624579D01*
X1021181Y-3623818D01*
X1482039Y-3623818D01*
X1485950Y-3624579D01*
X1489252Y-3626764D01*
X1866493Y-4004056D01*
X1868474Y-4006850D01*
X1886915Y-4045762D01*
X1887778Y-4048658D01*
X1888591Y-4054551D01*
X1892452Y-4068876D01*
X1898091Y-4082592D01*
X1905304Y-4095546D01*
X1914093Y-4107484D01*
X1924304Y-4118305D01*
X1935734Y-4127754D01*
X1948230Y-4135729D01*
X1961642Y-4142079D01*
X1975713Y-4146804D01*
X1990242Y-4149699D01*
G37*
G36*
X2470150Y-4133443D02*
G01*
X2469032Y-4068622D01*
X2404364Y-4069740D01*
X2405989Y-4073753D01*
X2413254Y-4086656D01*
X2422042Y-4098645D01*
X2432202Y-4109415D01*
X2443632Y-4118864D01*
X2456129Y-4126839D01*
G37*
G36*
X2562860Y-4131614D02*
G01*
X2570124Y-4128363D01*
X2582875Y-4120743D01*
X2594559Y-4111599D01*
X2605024Y-4101084D01*
X2614117Y-4089349D01*
X2621686Y-4076598D01*
X2626410Y-4065879D01*
X2561691Y-4066997D01*
G37*
G36*
X2402738Y-3977081D02*
G01*
X2467406Y-3975912D01*
X2466289Y-3911142D01*
X2452522Y-3918204D01*
X2440279Y-3926586D01*
X2429205Y-3936441D01*
X2419400Y-3947566D01*
X2411018Y-3959860D01*
X2404262Y-3973017D01*
G37*
G36*
X2560116Y-3974337D02*
G01*
X2624785Y-3973169D01*
X2619705Y-3962603D01*
X2611678Y-3950157D01*
X2602179Y-3938778D01*
X2591358Y-3928618D01*
X2579370Y-3919880D01*
X2566365Y-3912666D01*
X2558948Y-3909720D01*
G37*
G36*
X974699Y-3852672D02*
G01*
X986383Y-3847134D01*
X999337Y-3838905D01*
X1011224Y-3829253D01*
X1021892Y-3818280D01*
X1031240Y-3806088D01*
X1039012Y-3792880D01*
X1042669Y-3784600D01*
X974699Y-3784600D01*
G37*
G36*
X873099Y-3852570D02*
G01*
X873099Y-3784600D01*
X804976Y-3784600D01*
X805484Y-3785971D01*
X812495Y-3799586D01*
X821029Y-3812336D01*
X831037Y-3823919D01*
X842365Y-3834282D01*
X854811Y-3843223D01*
X868273Y-3850589D01*
G37*
G36*
X1681835Y-3404565D02*
G01*
X1696364Y-3404565D01*
X1710740Y-3402736D01*
X1724812Y-3399129D01*
X1738274Y-3393795D01*
X1750974Y-3386785D01*
X1762709Y-3378301D01*
X1773275Y-3368344D01*
X1782521Y-3357168D01*
X1790293Y-3344926D01*
X1796491Y-3331819D01*
X1800961Y-3318001D01*
X1803654Y-3303778D01*
X1804568Y-3289300D01*
X1803654Y-3274822D01*
X1800961Y-3260598D01*
X1796491Y-3246780D01*
X1790293Y-3233674D01*
X1782521Y-3221431D01*
X1773275Y-3210255D01*
X1762709Y-3200298D01*
X1750974Y-3191814D01*
X1738274Y-3184804D01*
X1724812Y-3179470D01*
X1710740Y-3175863D01*
X1696364Y-3174034D01*
X1681835Y-3174034D01*
X1667459Y-3175863D01*
X1653387Y-3179470D01*
X1639925Y-3184804D01*
X1627225Y-3191814D01*
X1615490Y-3200298D01*
X1604924Y-3210255D01*
X1595678Y-3221431D01*
X1587906Y-3233674D01*
X1581708Y-3246780D01*
X1577238Y-3260598D01*
X1574546Y-3274822D01*
X1573631Y-3289300D01*
X1574546Y-3303778D01*
X1577238Y-3318001D01*
X1581708Y-3331819D01*
X1587906Y-3344926D01*
X1595678Y-3357168D01*
X1604924Y-3368344D01*
X1615490Y-3378301D01*
X1627225Y-3386785D01*
X1639925Y-3393795D01*
X1653387Y-3399129D01*
X1667459Y-3402736D01*
G37*
G36*
X1427835Y-3404565D02*
G01*
X1442364Y-3404565D01*
X1456740Y-3402736D01*
X1470812Y-3399129D01*
X1484274Y-3393795D01*
X1496974Y-3386785D01*
X1508709Y-3378301D01*
X1519275Y-3368344D01*
X1528521Y-3357168D01*
X1536293Y-3344926D01*
X1542491Y-3331819D01*
X1546961Y-3318001D01*
X1549654Y-3303778D01*
X1550568Y-3289300D01*
X1549654Y-3274822D01*
X1546961Y-3260598D01*
X1542491Y-3246780D01*
X1536293Y-3233674D01*
X1528521Y-3221431D01*
X1519275Y-3210255D01*
X1508709Y-3200298D01*
X1496974Y-3191814D01*
X1484274Y-3184804D01*
X1470812Y-3179470D01*
X1456740Y-3175863D01*
X1442364Y-3174034D01*
X1427835Y-3174034D01*
X1413459Y-3175863D01*
X1399387Y-3179470D01*
X1385925Y-3184804D01*
X1373225Y-3191814D01*
X1361490Y-3200298D01*
X1350924Y-3210255D01*
X1341678Y-3221431D01*
X1333906Y-3233674D01*
X1327708Y-3246780D01*
X1323238Y-3260598D01*
X1320546Y-3274822D01*
X1319631Y-3289300D01*
X1320546Y-3303778D01*
X1323238Y-3318001D01*
X1327708Y-3331819D01*
X1333906Y-3344926D01*
X1341678Y-3357168D01*
X1350924Y-3368344D01*
X1361490Y-3378301D01*
X1373225Y-3386785D01*
X1385925Y-3393795D01*
X1399387Y-3399129D01*
X1413459Y-3402736D01*
G37*
G36*
X919835Y-3404565D02*
G01*
X934364Y-3404565D01*
X948740Y-3402736D01*
X962812Y-3399129D01*
X976274Y-3393795D01*
X988974Y-3386785D01*
X1000709Y-3378301D01*
X1011275Y-3368344D01*
X1020521Y-3357168D01*
X1028293Y-3344926D01*
X1034491Y-3331819D01*
X1038961Y-3318001D01*
X1041653Y-3303778D01*
X1042568Y-3289300D01*
X1041653Y-3274822D01*
X1038961Y-3260598D01*
X1034491Y-3246780D01*
X1028293Y-3233674D01*
X1020521Y-3221431D01*
X1011275Y-3210255D01*
X1000709Y-3200298D01*
X988974Y-3191814D01*
X976274Y-3184804D01*
X962812Y-3179470D01*
X948740Y-3175863D01*
X934364Y-3174034D01*
X919835Y-3174034D01*
X905459Y-3175863D01*
X891387Y-3179470D01*
X877925Y-3184804D01*
X865225Y-3191814D01*
X853490Y-3200298D01*
X842924Y-3210255D01*
X833678Y-3221431D01*
X825906Y-3233674D01*
X819708Y-3246780D01*
X815238Y-3260598D01*
X812546Y-3274822D01*
X811631Y-3289300D01*
X812546Y-3303778D01*
X815238Y-3318001D01*
X819708Y-3331819D01*
X825906Y-3344926D01*
X833678Y-3357168D01*
X842924Y-3368344D01*
X853490Y-3378301D01*
X865225Y-3386785D01*
X877925Y-3393795D01*
X891387Y-3399129D01*
X905459Y-3402736D01*
G37*
G36*
X665835Y-3404565D02*
G01*
X680364Y-3404565D01*
X694740Y-3402736D01*
X708812Y-3399129D01*
X722274Y-3393795D01*
X734974Y-3386785D01*
X746709Y-3378301D01*
X757275Y-3368344D01*
X766521Y-3357168D01*
X774293Y-3344926D01*
X780491Y-3331819D01*
X784961Y-3318001D01*
X787654Y-3303778D01*
X788568Y-3289300D01*
X787654Y-3274822D01*
X784961Y-3260598D01*
X780491Y-3246780D01*
X774293Y-3233674D01*
X766521Y-3221431D01*
X757275Y-3210255D01*
X746709Y-3200298D01*
X734974Y-3191814D01*
X722274Y-3184804D01*
X708812Y-3179470D01*
X694740Y-3175863D01*
X680364Y-3174034D01*
X665835Y-3174034D01*
X651459Y-3175863D01*
X637387Y-3179470D01*
X623925Y-3184804D01*
X611225Y-3191814D01*
X599490Y-3200298D01*
X588924Y-3210255D01*
X579678Y-3221431D01*
X571906Y-3233674D01*
X565708Y-3246780D01*
X561238Y-3260598D01*
X558546Y-3274822D01*
X557631Y-3289300D01*
X558546Y-3303778D01*
X561238Y-3318001D01*
X565708Y-3331819D01*
X571906Y-3344926D01*
X579678Y-3357168D01*
X588924Y-3368344D01*
X599490Y-3378301D01*
X611225Y-3386785D01*
X623925Y-3393795D01*
X637387Y-3399129D01*
X651459Y-3402736D01*
G37*
G36*
X1173835Y-3404565D02*
G01*
X1188364Y-3404565D01*
X1202740Y-3402736D01*
X1216812Y-3399129D01*
X1230274Y-3393795D01*
X1242974Y-3386785D01*
X1254709Y-3378301D01*
X1265275Y-3368344D01*
X1274521Y-3357168D01*
X1282293Y-3344926D01*
X1288491Y-3331819D01*
X1292961Y-3318001D01*
X1295654Y-3303778D01*
X1296568Y-3289300D01*
X1295654Y-3274822D01*
X1292961Y-3260598D01*
X1288491Y-3246780D01*
X1282293Y-3233674D01*
X1274521Y-3221431D01*
X1265275Y-3210255D01*
X1254709Y-3200298D01*
X1242974Y-3191814D01*
X1230274Y-3184804D01*
X1216812Y-3179470D01*
X1202740Y-3175863D01*
X1188364Y-3174034D01*
X1173835Y-3174034D01*
X1159459Y-3175863D01*
X1145387Y-3179470D01*
X1131925Y-3184804D01*
X1119225Y-3191814D01*
X1107490Y-3200298D01*
X1096924Y-3210255D01*
X1087678Y-3221431D01*
X1079906Y-3233674D01*
X1073708Y-3246780D01*
X1069238Y-3260598D01*
X1066546Y-3274822D01*
X1065631Y-3289300D01*
X1066546Y-3303778D01*
X1069238Y-3318001D01*
X1073708Y-3331819D01*
X1079906Y-3344926D01*
X1087678Y-3357168D01*
X1096924Y-3368344D01*
X1107490Y-3378301D01*
X1119225Y-3386785D01*
X1131925Y-3393795D01*
X1145387Y-3399129D01*
X1159459Y-3402736D01*
G37*
G36*
X1935835Y-3404565D02*
G01*
X1950364Y-3404565D01*
X1964740Y-3402736D01*
X1978812Y-3399129D01*
X1992274Y-3393795D01*
X2004974Y-3386785D01*
X2016709Y-3378301D01*
X2027275Y-3368344D01*
X2036521Y-3357168D01*
X2044293Y-3344926D01*
X2050491Y-3331819D01*
X2054961Y-3318001D01*
X2057654Y-3303778D01*
X2058568Y-3289300D01*
X2057654Y-3274822D01*
X2054961Y-3260598D01*
X2050491Y-3246780D01*
X2044293Y-3233674D01*
X2036521Y-3221431D01*
X2027275Y-3210255D01*
X2016709Y-3200298D01*
X2004974Y-3191814D01*
X1992274Y-3184804D01*
X1978812Y-3179470D01*
X1964740Y-3175863D01*
X1950364Y-3174034D01*
X1935835Y-3174034D01*
X1921459Y-3175863D01*
X1907387Y-3179470D01*
X1893925Y-3184804D01*
X1881225Y-3191814D01*
X1869490Y-3200298D01*
X1858924Y-3210255D01*
X1849678Y-3221431D01*
X1841906Y-3233674D01*
X1835708Y-3246780D01*
X1831238Y-3260598D01*
X1828546Y-3274822D01*
X1827631Y-3289300D01*
X1828546Y-3303778D01*
X1831238Y-3318001D01*
X1835708Y-3331819D01*
X1841906Y-3344926D01*
X1849678Y-3357168D01*
X1858924Y-3368344D01*
X1869490Y-3378301D01*
X1881225Y-3386785D01*
X1893925Y-3393795D01*
X1907387Y-3399129D01*
X1921459Y-3402736D01*
G37*
G36*
X4475835Y-3404565D02*
G01*
X4490364Y-3404565D01*
X4504740Y-3402736D01*
X4518812Y-3399129D01*
X4532274Y-3393795D01*
X4544974Y-3386785D01*
X4556709Y-3378301D01*
X4567275Y-3368344D01*
X4576521Y-3357168D01*
X4584293Y-3344926D01*
X4590491Y-3331819D01*
X4594961Y-3318001D01*
X4597654Y-3303778D01*
X4598568Y-3289300D01*
X4597654Y-3274822D01*
X4594961Y-3260598D01*
X4590491Y-3246780D01*
X4584293Y-3233674D01*
X4576521Y-3221431D01*
X4567275Y-3210255D01*
X4556709Y-3200298D01*
X4544974Y-3191814D01*
X4532274Y-3184804D01*
X4518812Y-3179470D01*
X4504740Y-3175863D01*
X4490364Y-3174034D01*
X4475835Y-3174034D01*
X4461459Y-3175863D01*
X4447387Y-3179470D01*
X4433925Y-3184804D01*
X4421225Y-3191814D01*
X4409490Y-3200298D01*
X4398924Y-3210255D01*
X4389678Y-3221431D01*
X4381906Y-3233674D01*
X4375708Y-3246780D01*
X4371238Y-3260598D01*
X4368546Y-3274822D01*
X4367631Y-3289300D01*
X4368546Y-3303778D01*
X4371238Y-3318001D01*
X4375708Y-3331819D01*
X4381906Y-3344926D01*
X4389678Y-3357168D01*
X4398924Y-3368344D01*
X4409490Y-3378301D01*
X4421225Y-3386785D01*
X4433925Y-3393795D01*
X4447387Y-3399129D01*
X4461459Y-3402736D01*
G37*
G36*
X3205835Y-3404565D02*
G01*
X3220364Y-3404565D01*
X3234740Y-3402736D01*
X3248812Y-3399129D01*
X3262274Y-3393795D01*
X3274974Y-3386785D01*
X3286709Y-3378301D01*
X3297275Y-3368344D01*
X3306521Y-3357168D01*
X3314293Y-3344926D01*
X3320491Y-3331819D01*
X3324961Y-3318001D01*
X3327654Y-3303778D01*
X3328568Y-3289300D01*
X3327654Y-3274822D01*
X3324961Y-3260598D01*
X3320491Y-3246780D01*
X3314293Y-3233674D01*
X3306521Y-3221431D01*
X3297275Y-3210255D01*
X3286709Y-3200298D01*
X3274974Y-3191814D01*
X3262274Y-3184804D01*
X3248812Y-3179470D01*
X3234740Y-3175863D01*
X3220364Y-3174034D01*
X3205835Y-3174034D01*
X3191459Y-3175863D01*
X3177387Y-3179470D01*
X3163925Y-3184804D01*
X3151225Y-3191814D01*
X3139490Y-3200298D01*
X3128924Y-3210255D01*
X3119678Y-3221431D01*
X3111906Y-3233674D01*
X3105708Y-3246780D01*
X3101238Y-3260598D01*
X3098546Y-3274822D01*
X3097631Y-3289300D01*
X3098546Y-3303778D01*
X3101238Y-3318001D01*
X3105708Y-3331819D01*
X3111906Y-3344926D01*
X3119678Y-3357168D01*
X3128924Y-3368344D01*
X3139490Y-3378301D01*
X3151225Y-3386785D01*
X3163925Y-3393795D01*
X3177387Y-3399129D01*
X3191459Y-3402736D01*
G37*
G36*
X3713835Y-3404565D02*
G01*
X3728364Y-3404565D01*
X3742740Y-3402736D01*
X3756812Y-3399129D01*
X3770274Y-3393795D01*
X3782974Y-3386785D01*
X3794709Y-3378301D01*
X3805275Y-3368344D01*
X3814521Y-3357168D01*
X3822293Y-3344926D01*
X3828491Y-3331819D01*
X3832961Y-3318001D01*
X3835654Y-3303778D01*
X3836568Y-3289300D01*
X3835654Y-3274822D01*
X3832961Y-3260598D01*
X3828491Y-3246780D01*
X3822293Y-3233674D01*
X3814521Y-3221431D01*
X3805275Y-3210255D01*
X3794709Y-3200298D01*
X3782974Y-3191814D01*
X3770274Y-3184804D01*
X3756812Y-3179470D01*
X3742740Y-3175863D01*
X3728364Y-3174034D01*
X3713835Y-3174034D01*
X3699459Y-3175863D01*
X3685387Y-3179470D01*
X3671925Y-3184804D01*
X3659225Y-3191814D01*
X3647490Y-3200298D01*
X3636924Y-3210255D01*
X3627678Y-3221431D01*
X3619906Y-3233674D01*
X3613708Y-3246780D01*
X3609238Y-3260598D01*
X3606546Y-3274822D01*
X3605631Y-3289300D01*
X3606546Y-3303778D01*
X3609238Y-3318001D01*
X3613708Y-3331819D01*
X3619906Y-3344926D01*
X3627678Y-3357168D01*
X3636924Y-3368344D01*
X3647490Y-3378301D01*
X3659225Y-3386785D01*
X3671925Y-3393795D01*
X3685387Y-3399129D01*
X3699459Y-3402736D01*
G37*
G36*
X2951835Y-3404565D02*
G01*
X2966364Y-3404565D01*
X2980740Y-3402736D01*
X2994812Y-3399129D01*
X3008274Y-3393795D01*
X3020974Y-3386785D01*
X3032709Y-3378301D01*
X3043275Y-3368344D01*
X3052521Y-3357168D01*
X3060293Y-3344926D01*
X3066491Y-3331819D01*
X3070961Y-3318001D01*
X3073654Y-3303778D01*
X3074568Y-3289300D01*
X3073654Y-3274822D01*
X3070961Y-3260598D01*
X3066491Y-3246780D01*
X3060293Y-3233674D01*
X3052521Y-3221431D01*
X3043275Y-3210255D01*
X3032709Y-3200298D01*
X3020974Y-3191814D01*
X3008274Y-3184804D01*
X2994812Y-3179470D01*
X2980740Y-3175863D01*
X2966364Y-3174034D01*
X2951835Y-3174034D01*
X2937459Y-3175863D01*
X2923387Y-3179470D01*
X2909925Y-3184804D01*
X2897225Y-3191814D01*
X2885490Y-3200298D01*
X2874924Y-3210255D01*
X2865678Y-3221431D01*
X2857906Y-3233674D01*
X2851708Y-3246780D01*
X2847238Y-3260598D01*
X2844546Y-3274822D01*
X2843631Y-3289300D01*
X2844546Y-3303778D01*
X2847238Y-3318001D01*
X2851708Y-3331819D01*
X2857906Y-3344926D01*
X2865678Y-3357168D01*
X2874924Y-3368344D01*
X2885490Y-3378301D01*
X2897225Y-3386785D01*
X2909925Y-3393795D01*
X2923387Y-3399129D01*
X2937459Y-3402736D01*
G37*
G36*
X4221835Y-3404565D02*
G01*
X4236364Y-3404565D01*
X4250740Y-3402736D01*
X4264812Y-3399129D01*
X4278274Y-3393795D01*
X4290974Y-3386785D01*
X4302709Y-3378301D01*
X4313275Y-3368344D01*
X4322521Y-3357168D01*
X4330293Y-3344926D01*
X4336491Y-3331819D01*
X4340961Y-3318001D01*
X4343654Y-3303778D01*
X4344568Y-3289300D01*
X4343654Y-3274822D01*
X4340961Y-3260598D01*
X4336491Y-3246780D01*
X4330293Y-3233674D01*
X4322521Y-3221431D01*
X4313275Y-3210255D01*
X4302709Y-3200298D01*
X4290974Y-3191814D01*
X4278274Y-3184804D01*
X4264812Y-3179470D01*
X4250740Y-3175863D01*
X4236364Y-3174034D01*
X4221835Y-3174034D01*
X4207459Y-3175863D01*
X4193387Y-3179470D01*
X4179925Y-3184804D01*
X4167225Y-3191814D01*
X4155490Y-3200298D01*
X4144924Y-3210255D01*
X4135678Y-3221431D01*
X4127906Y-3233674D01*
X4121708Y-3246780D01*
X4117238Y-3260598D01*
X4114546Y-3274822D01*
X4113631Y-3289300D01*
X4114546Y-3303778D01*
X4117238Y-3318001D01*
X4121708Y-3331819D01*
X4127906Y-3344926D01*
X4135678Y-3357168D01*
X4144924Y-3368344D01*
X4155490Y-3378301D01*
X4167225Y-3386785D01*
X4179925Y-3393795D01*
X4193387Y-3399129D01*
X4207459Y-3402736D01*
G37*
G36*
X3967835Y-3404565D02*
G01*
X3982364Y-3404565D01*
X3996740Y-3402736D01*
X4010812Y-3399129D01*
X4024274Y-3393795D01*
X4036974Y-3386785D01*
X4048709Y-3378301D01*
X4059275Y-3368344D01*
X4068521Y-3357168D01*
X4076293Y-3344926D01*
X4082491Y-3331819D01*
X4086961Y-3318001D01*
X4089654Y-3303778D01*
X4090568Y-3289300D01*
X4089654Y-3274822D01*
X4086961Y-3260598D01*
X4082491Y-3246780D01*
X4076293Y-3233674D01*
X4068521Y-3221431D01*
X4059275Y-3210255D01*
X4048709Y-3200298D01*
X4036974Y-3191814D01*
X4024274Y-3184804D01*
X4010812Y-3179470D01*
X3996740Y-3175863D01*
X3982364Y-3174034D01*
X3967835Y-3174034D01*
X3953459Y-3175863D01*
X3939387Y-3179470D01*
X3925925Y-3184804D01*
X3913225Y-3191814D01*
X3901490Y-3200298D01*
X3890924Y-3210255D01*
X3881678Y-3221431D01*
X3873906Y-3233674D01*
X3867708Y-3246780D01*
X3863238Y-3260598D01*
X3860546Y-3274822D01*
X3859631Y-3289300D01*
X3860546Y-3303778D01*
X3863238Y-3318001D01*
X3867708Y-3331819D01*
X3873906Y-3344926D01*
X3881678Y-3357168D01*
X3890924Y-3368344D01*
X3901490Y-3378301D01*
X3913225Y-3386785D01*
X3925925Y-3393795D01*
X3939387Y-3399129D01*
X3953459Y-3402736D01*
G37*
G36*
X2189835Y-3404565D02*
G01*
X2204364Y-3404565D01*
X2218740Y-3402736D01*
X2232812Y-3399129D01*
X2246274Y-3393795D01*
X2258974Y-3386785D01*
X2270709Y-3378301D01*
X2281275Y-3368344D01*
X2290521Y-3357168D01*
X2298293Y-3344926D01*
X2304491Y-3331819D01*
X2308961Y-3318001D01*
X2311654Y-3303778D01*
X2312568Y-3289300D01*
X2311654Y-3274822D01*
X2308961Y-3260598D01*
X2304491Y-3246780D01*
X2298293Y-3233674D01*
X2290521Y-3221431D01*
X2281275Y-3210255D01*
X2270709Y-3200298D01*
X2258974Y-3191814D01*
X2246274Y-3184804D01*
X2232812Y-3179470D01*
X2218740Y-3175863D01*
X2204364Y-3174034D01*
X2189835Y-3174034D01*
X2175459Y-3175863D01*
X2161387Y-3179470D01*
X2147925Y-3184804D01*
X2135225Y-3191814D01*
X2123490Y-3200298D01*
X2112924Y-3210255D01*
X2103678Y-3221431D01*
X2095906Y-3233674D01*
X2089708Y-3246780D01*
X2085238Y-3260598D01*
X2082546Y-3274822D01*
X2081631Y-3289300D01*
X2082546Y-3303778D01*
X2085238Y-3318001D01*
X2089708Y-3331819D01*
X2095906Y-3344926D01*
X2103678Y-3357168D01*
X2112924Y-3368344D01*
X2123490Y-3378301D01*
X2135225Y-3386785D01*
X2147925Y-3393795D01*
X2161387Y-3399129D01*
X2175459Y-3402736D01*
G37*
G36*
X2697835Y-3404565D02*
G01*
X2712364Y-3404565D01*
X2726740Y-3402736D01*
X2740812Y-3399129D01*
X2754274Y-3393795D01*
X2766974Y-3386785D01*
X2778709Y-3378301D01*
X2789275Y-3368344D01*
X2798521Y-3357168D01*
X2806293Y-3344926D01*
X2812491Y-3331819D01*
X2816961Y-3318001D01*
X2819654Y-3303778D01*
X2820568Y-3289300D01*
X2819654Y-3274822D01*
X2816961Y-3260598D01*
X2812491Y-3246780D01*
X2806293Y-3233674D01*
X2798521Y-3221431D01*
X2789275Y-3210255D01*
X2778709Y-3200298D01*
X2766974Y-3191814D01*
X2754274Y-3184804D01*
X2740812Y-3179470D01*
X2726740Y-3175863D01*
X2712364Y-3174034D01*
X2697835Y-3174034D01*
X2683459Y-3175863D01*
X2669387Y-3179470D01*
X2655925Y-3184804D01*
X2643225Y-3191814D01*
X2631490Y-3200298D01*
X2620924Y-3210255D01*
X2611678Y-3221431D01*
X2603906Y-3233674D01*
X2597708Y-3246780D01*
X2593238Y-3260598D01*
X2590546Y-3274822D01*
X2589631Y-3289300D01*
X2590546Y-3303778D01*
X2593238Y-3318001D01*
X2597708Y-3331819D01*
X2603906Y-3344926D01*
X2611678Y-3357168D01*
X2620924Y-3368344D01*
X2631490Y-3378301D01*
X2643225Y-3386785D01*
X2655925Y-3393795D01*
X2669387Y-3399129D01*
X2683459Y-3402736D01*
G37*
G36*
X2443835Y-3404565D02*
G01*
X2458364Y-3404565D01*
X2472740Y-3402736D01*
X2486812Y-3399129D01*
X2500274Y-3393795D01*
X2512974Y-3386785D01*
X2524709Y-3378301D01*
X2535275Y-3368344D01*
X2544521Y-3357168D01*
X2552293Y-3344926D01*
X2558491Y-3331819D01*
X2562961Y-3318001D01*
X2565654Y-3303778D01*
X2566568Y-3289300D01*
X2565654Y-3274822D01*
X2562961Y-3260598D01*
X2558491Y-3246780D01*
X2552293Y-3233674D01*
X2544521Y-3221431D01*
X2535275Y-3210255D01*
X2524709Y-3200298D01*
X2512974Y-3191814D01*
X2500274Y-3184804D01*
X2486812Y-3179470D01*
X2472740Y-3175863D01*
X2458364Y-3174034D01*
X2443835Y-3174034D01*
X2429459Y-3175863D01*
X2415387Y-3179470D01*
X2401925Y-3184804D01*
X2389225Y-3191814D01*
X2377490Y-3200298D01*
X2366924Y-3210255D01*
X2357678Y-3221431D01*
X2349906Y-3233674D01*
X2343708Y-3246780D01*
X2339238Y-3260598D01*
X2336546Y-3274822D01*
X2335631Y-3289300D01*
X2336546Y-3303778D01*
X2339238Y-3318001D01*
X2343708Y-3331819D01*
X2349906Y-3344926D01*
X2357678Y-3357168D01*
X2366924Y-3368344D01*
X2377490Y-3378301D01*
X2389225Y-3386785D01*
X2401925Y-3393795D01*
X2415387Y-3399129D01*
X2429459Y-3402736D01*
G37*
G36*
X4729835Y-3404565D02*
G01*
X4744364Y-3404565D01*
X4758740Y-3402736D01*
X4772812Y-3399129D01*
X4786274Y-3393795D01*
X4798974Y-3386785D01*
X4810709Y-3378301D01*
X4821275Y-3368344D01*
X4830521Y-3357168D01*
X4838293Y-3344926D01*
X4844491Y-3331819D01*
X4848961Y-3318001D01*
X4851654Y-3303778D01*
X4852568Y-3289300D01*
X4851654Y-3274822D01*
X4848961Y-3260598D01*
X4844491Y-3246780D01*
X4838293Y-3233674D01*
X4830521Y-3221431D01*
X4821275Y-3210255D01*
X4810709Y-3200298D01*
X4798974Y-3191814D01*
X4786274Y-3184804D01*
X4772812Y-3179470D01*
X4758740Y-3175863D01*
X4744364Y-3174034D01*
X4729835Y-3174034D01*
X4715459Y-3175863D01*
X4701387Y-3179470D01*
X4687925Y-3184804D01*
X4675225Y-3191814D01*
X4663490Y-3200298D01*
X4652924Y-3210255D01*
X4643678Y-3221431D01*
X4635906Y-3233674D01*
X4629708Y-3246780D01*
X4625238Y-3260598D01*
X4622546Y-3274822D01*
X4621631Y-3289300D01*
X4622546Y-3303778D01*
X4625238Y-3318001D01*
X4629708Y-3331819D01*
X4635906Y-3344926D01*
X4643678Y-3357168D01*
X4652924Y-3368344D01*
X4663490Y-3378301D01*
X4675225Y-3386785D01*
X4687925Y-3393795D01*
X4701387Y-3399129D01*
X4715459Y-3402736D01*
G37*
G36*
X3510940Y-3395878D02*
G01*
X3516274Y-3393795D01*
X3528974Y-3386785D01*
X3540709Y-3378301D01*
X3551275Y-3368344D01*
X3560521Y-3357168D01*
X3568293Y-3344926D01*
X3573830Y-3333140D01*
X3510940Y-3333140D01*
G37*
G36*
X3423259Y-3395878D02*
G01*
X3423259Y-3333140D01*
X3360369Y-3333140D01*
X3365906Y-3344926D01*
X3373678Y-3357168D01*
X3382924Y-3368344D01*
X3393490Y-3378301D01*
X3405225Y-3386785D01*
X3417925Y-3393795D01*
G37*
G36*
X4947259Y-3395878D02*
G01*
X4947259Y-3333140D01*
X4884369Y-3333140D01*
X4889906Y-3344926D01*
X4897678Y-3357168D01*
X4906924Y-3368344D01*
X4917490Y-3378301D01*
X4929225Y-3386785D01*
X4941925Y-3393795D01*
G37*
G36*
X5034940Y-3395878D02*
G01*
X5040274Y-3393795D01*
X5052974Y-3386785D01*
X5064709Y-3378301D01*
X5075275Y-3368344D01*
X5084521Y-3357168D01*
X5092293Y-3344926D01*
X5097830Y-3333140D01*
X5034940Y-3333140D01*
G37*
G36*
X5312410Y-3350260D02*
G01*
X5382260Y-3350260D01*
X5382260Y-3287572D01*
X5383022Y-3283762D01*
X5385104Y-3280511D01*
X5388305Y-3278276D01*
X5392064Y-3277412D01*
X5412232Y-3282035D01*
X5427776Y-3283864D01*
X5443423Y-3283864D01*
X5458968Y-3282035D01*
X5479135Y-3277412D01*
X5482894Y-3278276D01*
X5486095Y-3280511D01*
X5488178Y-3283762D01*
X5488940Y-3287572D01*
X5488940Y-3350260D01*
X5558790Y-3350260D01*
X5555792Y-3343249D01*
X5547969Y-3329686D01*
X5538622Y-3317189D01*
X5527903Y-3305810D01*
X5515914Y-3295751D01*
X5502859Y-3287166D01*
X5499912Y-3285693D01*
X5496458Y-3282848D01*
X5494578Y-3278835D01*
X5494578Y-3274364D01*
X5496458Y-3270351D01*
X5499912Y-3267506D01*
X5502859Y-3266033D01*
X5515914Y-3257448D01*
X5527903Y-3247390D01*
X5538622Y-3236061D01*
X5547969Y-3223514D01*
X5555792Y-3209950D01*
X5561939Y-3195574D01*
X5566460Y-3180588D01*
X5569153Y-3165195D01*
X5570067Y-3149600D01*
X5569153Y-3134004D01*
X5566460Y-3118612D01*
X5561939Y-3103626D01*
X5555792Y-3089249D01*
X5547969Y-3075686D01*
X5538622Y-3063189D01*
X5527903Y-3051810D01*
X5515914Y-3041751D01*
X5502859Y-3033166D01*
X5499912Y-3031693D01*
X5496458Y-3028848D01*
X5494578Y-3024835D01*
X5494578Y-3020364D01*
X5496458Y-3016351D01*
X5499912Y-3013506D01*
X5502859Y-3012033D01*
X5515914Y-3003448D01*
X5527903Y-2993390D01*
X5538622Y-2982061D01*
X5547969Y-2969514D01*
X5555792Y-2955950D01*
X5561939Y-2941574D01*
X5566460Y-2926588D01*
X5569153Y-2911195D01*
X5570067Y-2895600D01*
X5569153Y-2880004D01*
X5566460Y-2864612D01*
X5561939Y-2849626D01*
X5555792Y-2835249D01*
X5547969Y-2821686D01*
X5538622Y-2809189D01*
X5527903Y-2797810D01*
X5515914Y-2787751D01*
X5502859Y-2779166D01*
X5488838Y-2772105D01*
X5474157Y-2766771D01*
X5458968Y-2763164D01*
X5443423Y-2761335D01*
X5427776Y-2761335D01*
X5412232Y-2763164D01*
X5397042Y-2766771D01*
X5382361Y-2772105D01*
X5368340Y-2779166D01*
X5355285Y-2787751D01*
X5343296Y-2797810D01*
X5332577Y-2809189D01*
X5323230Y-2821686D01*
X5315458Y-2835249D01*
X5309260Y-2849626D01*
X5304739Y-2864612D01*
X5302046Y-2880004D01*
X5301132Y-2895600D01*
X5302046Y-2911195D01*
X5304739Y-2926588D01*
X5309260Y-2941574D01*
X5315458Y-2955950D01*
X5323230Y-2969514D01*
X5332577Y-2982061D01*
X5343296Y-2993390D01*
X5355285Y-3003448D01*
X5368340Y-3012033D01*
X5371287Y-3013506D01*
X5374741Y-3016351D01*
X5376621Y-3020364D01*
X5376621Y-3024835D01*
X5374741Y-3028848D01*
X5371287Y-3031693D01*
X5368340Y-3033166D01*
X5355285Y-3041751D01*
X5343296Y-3051810D01*
X5332577Y-3063189D01*
X5323230Y-3075686D01*
X5315458Y-3089249D01*
X5309260Y-3103626D01*
X5304739Y-3118612D01*
X5302046Y-3134004D01*
X5301132Y-3149600D01*
X5302046Y-3165195D01*
X5304739Y-3180588D01*
X5309260Y-3195574D01*
X5315458Y-3209950D01*
X5323230Y-3223514D01*
X5332577Y-3236061D01*
X5343296Y-3247390D01*
X5355285Y-3257448D01*
X5368340Y-3266033D01*
X5371287Y-3267506D01*
X5374741Y-3270351D01*
X5376621Y-3274364D01*
X5376621Y-3278835D01*
X5374741Y-3282848D01*
X5371287Y-3285693D01*
X5368340Y-3287166D01*
X5355285Y-3295751D01*
X5343296Y-3305810D01*
X5332577Y-3317189D01*
X5323230Y-3329686D01*
X5315458Y-3343249D01*
G37*
G36*
X3510940Y-3245459D02*
G01*
X3573830Y-3245459D01*
X3568293Y-3233674D01*
X3560521Y-3221431D01*
X3551275Y-3210255D01*
X3540709Y-3200298D01*
X3528974Y-3191814D01*
X3516274Y-3184804D01*
X3510940Y-3182721D01*
G37*
G36*
X3360369Y-3245459D02*
G01*
X3423259Y-3245459D01*
X3423259Y-3182721D01*
X3417925Y-3184804D01*
X3405225Y-3191814D01*
X3393490Y-3200298D01*
X3382924Y-3210255D01*
X3373678Y-3221431D01*
X3365906Y-3233674D01*
G37*
G36*
X5034940Y-3245459D02*
G01*
X5097830Y-3245459D01*
X5092293Y-3233674D01*
X5084521Y-3221431D01*
X5075275Y-3210255D01*
X5064709Y-3200298D01*
X5052974Y-3191814D01*
X5040274Y-3184804D01*
X5034940Y-3182721D01*
G37*
G36*
X4884369Y-3245459D02*
G01*
X4947259Y-3245459D01*
X4947259Y-3182721D01*
X4941925Y-3184804D01*
X4929225Y-3191814D01*
X4917490Y-3200298D01*
X4906924Y-3210255D01*
X4897678Y-3221431D01*
X4889906Y-3233674D01*
G37*
G36*
X7214920Y-3113125D02*
G01*
X7233056Y-3113125D01*
X7233056Y-3053943D01*
X7173874Y-3053943D01*
X7173874Y-3072079D01*
X7174738Y-3080512D01*
X7177024Y-3088081D01*
X7180732Y-3095091D01*
X7185812Y-3101187D01*
X7191908Y-3106267D01*
X7198918Y-3109976D01*
X7206488Y-3112262D01*
G37*
G36*
X7173874Y-2991256D02*
G01*
X7233056Y-2991256D01*
X7233056Y-2932074D01*
X7214920Y-2932074D01*
X7206488Y-2932938D01*
X7198918Y-2935224D01*
X7191908Y-2938983D01*
X7185812Y-2944012D01*
X7180732Y-2950108D01*
X7177024Y-2957118D01*
X7174738Y-2964688D01*
X7173874Y-2973120D01*
G37*
G36*
X7442708Y-2580487D02*
G01*
X7473950Y-2580487D01*
X7473950Y-2508250D01*
X7401712Y-2508250D01*
X7401712Y-2539492D01*
X7402525Y-2547874D01*
X7404811Y-2555494D01*
X7408570Y-2562453D01*
X7413599Y-2568600D01*
X7419746Y-2573629D01*
X7426706Y-2577388D01*
X7434325Y-2579674D01*
G37*
G36*
X7562850Y-2580487D02*
G01*
X7594092Y-2580487D01*
X7602474Y-2579674D01*
X7610094Y-2577388D01*
X7617053Y-2573629D01*
X7623200Y-2568600D01*
X7628229Y-2562453D01*
X7631988Y-2555494D01*
X7634274Y-2547874D01*
X7635087Y-2539492D01*
X7635087Y-2508250D01*
X7562850Y-2508250D01*
G37*
G36*
X7264400Y-2580487D02*
G01*
X7279030Y-2579573D01*
X7293406Y-2576830D01*
X7307376Y-2572308D01*
X7320635Y-2566060D01*
X7332980Y-2558186D01*
X7344257Y-2548839D01*
X7354316Y-2538171D01*
X7362901Y-2526334D01*
X7369962Y-2513482D01*
X7375398Y-2499868D01*
X7379004Y-2485644D01*
X7380833Y-2471115D01*
X7380833Y-2456484D01*
X7379004Y-2441956D01*
X7375398Y-2427732D01*
X7369962Y-2414117D01*
X7362901Y-2401265D01*
X7354316Y-2389428D01*
X7344257Y-2378760D01*
X7332980Y-2369413D01*
X7320635Y-2361539D01*
X7307376Y-2355291D01*
X7293406Y-2350770D01*
X7279030Y-2348026D01*
X7264400Y-2347112D01*
X7249769Y-2348026D01*
X7235393Y-2350770D01*
X7221423Y-2355291D01*
X7208164Y-2361539D01*
X7195820Y-2369413D01*
X7184542Y-2378760D01*
X7174484Y-2389428D01*
X7165898Y-2401265D01*
X7158837Y-2414117D01*
X7153402Y-2427732D01*
X7149795Y-2441956D01*
X7147966Y-2456484D01*
X7147966Y-2471115D01*
X7149795Y-2485644D01*
X7153402Y-2499868D01*
X7158837Y-2513482D01*
X7165898Y-2526334D01*
X7174484Y-2538171D01*
X7184542Y-2548839D01*
X7195820Y-2558186D01*
X7208164Y-2566060D01*
X7221423Y-2572308D01*
X7235393Y-2576830D01*
X7249769Y-2579573D01*
G37*
G36*
X7010400Y-2580487D02*
G01*
X7025030Y-2579573D01*
X7039406Y-2576830D01*
X7053376Y-2572308D01*
X7066635Y-2566060D01*
X7078980Y-2558186D01*
X7090257Y-2548839D01*
X7100316Y-2538171D01*
X7108901Y-2526334D01*
X7115962Y-2513482D01*
X7121398Y-2499868D01*
X7125004Y-2485644D01*
X7126833Y-2471115D01*
X7126833Y-2456484D01*
X7125004Y-2441956D01*
X7121398Y-2427732D01*
X7115962Y-2414117D01*
X7108901Y-2401265D01*
X7100316Y-2389428D01*
X7090257Y-2378760D01*
X7078980Y-2369413D01*
X7066635Y-2361539D01*
X7053376Y-2355291D01*
X7039406Y-2350770D01*
X7025030Y-2348026D01*
X7010400Y-2347112D01*
X6995769Y-2348026D01*
X6981393Y-2350770D01*
X6967423Y-2355291D01*
X6954164Y-2361539D01*
X6941820Y-2369413D01*
X6930542Y-2378760D01*
X6920484Y-2389428D01*
X6911898Y-2401265D01*
X6904837Y-2414117D01*
X6899402Y-2427732D01*
X6895795Y-2441956D01*
X6893966Y-2456484D01*
X6893966Y-2471115D01*
X6895795Y-2485644D01*
X6899402Y-2499868D01*
X6904837Y-2513482D01*
X6911898Y-2526334D01*
X6920484Y-2538171D01*
X6930542Y-2548839D01*
X6941820Y-2558186D01*
X6954164Y-2566060D01*
X6967423Y-2572308D01*
X6981393Y-2576830D01*
X6995769Y-2579573D01*
G37*
G36*
X7401712Y-2419350D02*
G01*
X7473950Y-2419350D01*
X7473950Y-2347112D01*
X7442708Y-2347112D01*
X7434325Y-2347925D01*
X7426706Y-2350211D01*
X7419746Y-2353970D01*
X7413599Y-2358999D01*
X7408570Y-2365146D01*
X7404811Y-2372106D01*
X7402525Y-2379726D01*
X7401712Y-2388108D01*
G37*
G36*
X7562850Y-2419350D02*
G01*
X7635087Y-2419350D01*
X7635087Y-2388108D01*
X7634274Y-2379726D01*
X7631988Y-2372106D01*
X7628229Y-2365146D01*
X7623200Y-2358999D01*
X7617053Y-2353970D01*
X7610094Y-2350211D01*
X7602474Y-2347925D01*
X7594092Y-2347112D01*
X7562850Y-2347112D01*
G37*
G36*
X4791049Y-1855724D02*
G01*
X4803597Y-1854403D01*
X4815840Y-1851355D01*
X4827574Y-1846630D01*
X4838496Y-1840331D01*
X4843373Y-1836521D01*
X4865370Y-1822399D01*
X4868011Y-1821230D01*
X4870856Y-1820824D01*
X5448096Y-1820824D01*
X5453126Y-1820570D01*
X5457952Y-1819960D01*
X5462676Y-1818893D01*
X5467299Y-1817471D01*
X5471769Y-1815592D01*
X5476036Y-1813356D01*
X5480151Y-1810766D01*
X5483961Y-1807819D01*
X5487720Y-1804416D01*
X5688787Y-1603298D01*
X5691682Y-1601266D01*
X5695086Y-1600352D01*
X5768543Y-1594104D01*
X5784088Y-1591360D01*
X5799074Y-1586839D01*
X5813450Y-1580692D01*
X5827014Y-1572869D01*
X5839561Y-1563522D01*
X5850890Y-1552803D01*
X5860948Y-1540814D01*
X5869533Y-1527759D01*
X5876594Y-1513738D01*
X5881928Y-1499057D01*
X5885535Y-1483868D01*
X5887364Y-1468323D01*
X5887364Y-1452676D01*
X5885535Y-1437132D01*
X5881928Y-1421942D01*
X5876594Y-1407261D01*
X5869533Y-1393240D01*
X5860948Y-1380185D01*
X5850890Y-1368196D01*
X5839561Y-1357477D01*
X5827014Y-1348130D01*
X5813450Y-1340358D01*
X5799074Y-1334160D01*
X5784088Y-1329639D01*
X5768695Y-1326946D01*
X5753100Y-1326032D01*
X5737504Y-1326946D01*
X5722112Y-1329639D01*
X5707126Y-1334160D01*
X5692749Y-1340358D01*
X5679186Y-1348130D01*
X5666689Y-1357477D01*
X5655310Y-1368196D01*
X5645251Y-1380185D01*
X5636666Y-1393240D01*
X5629605Y-1407261D01*
X5624271Y-1421942D01*
X5620664Y-1437182D01*
X5618937Y-1451356D01*
X5613247Y-1518513D01*
X5612333Y-1521917D01*
X5610301Y-1524812D01*
X5428284Y-1706829D01*
X5424982Y-1709013D01*
X5421122Y-1709775D01*
X4870856Y-1709775D01*
X4868011Y-1709369D01*
X4865370Y-1708200D01*
X4842662Y-1693519D01*
X4838496Y-1690268D01*
X4829708Y-1685188D01*
X4826558Y-1682394D01*
X4824831Y-1678533D01*
X4824831Y-1674266D01*
X4826558Y-1670405D01*
X4829708Y-1667611D01*
X4838496Y-1662531D01*
X4843373Y-1658721D01*
X4865370Y-1644599D01*
X4868011Y-1643430D01*
X4870856Y-1643024D01*
X5308396Y-1643024D01*
X5313426Y-1642770D01*
X5318252Y-1642160D01*
X5322976Y-1641093D01*
X5327599Y-1639671D01*
X5332069Y-1637792D01*
X5336336Y-1635556D01*
X5340451Y-1632966D01*
X5344261Y-1630019D01*
X5348020Y-1626616D01*
X5358587Y-1615998D01*
X5361482Y-1613966D01*
X5364886Y-1613052D01*
X5438343Y-1606804D01*
X5453888Y-1604060D01*
X5468874Y-1599539D01*
X5483250Y-1593392D01*
X5496814Y-1585569D01*
X5509361Y-1576222D01*
X5520690Y-1565503D01*
X5530748Y-1553514D01*
X5539333Y-1540459D01*
X5546394Y-1526438D01*
X5551728Y-1511757D01*
X5555335Y-1496568D01*
X5557164Y-1481023D01*
X5557164Y-1465376D01*
X5555335Y-1449832D01*
X5551728Y-1434642D01*
X5546394Y-1419961D01*
X5539333Y-1405940D01*
X5530748Y-1392885D01*
X5520690Y-1380896D01*
X5509361Y-1370177D01*
X5496814Y-1360830D01*
X5483250Y-1353058D01*
X5468874Y-1346860D01*
X5453888Y-1342339D01*
X5438495Y-1339646D01*
X5422900Y-1338732D01*
X5407304Y-1339646D01*
X5391912Y-1342339D01*
X5376926Y-1346860D01*
X5362549Y-1353058D01*
X5348986Y-1360830D01*
X5336489Y-1370177D01*
X5325110Y-1380896D01*
X5315051Y-1392885D01*
X5306466Y-1405940D01*
X5299405Y-1419961D01*
X5294071Y-1434642D01*
X5290464Y-1449882D01*
X5288737Y-1464056D01*
X5283758Y-1522679D01*
X5282742Y-1526286D01*
X5280507Y-1529334D01*
X5277307Y-1531315D01*
X5273598Y-1531975D01*
X4870856Y-1531975D01*
X4868011Y-1531569D01*
X4865370Y-1530400D01*
X4842662Y-1515719D01*
X4838496Y-1512468D01*
X4827574Y-1506169D01*
X4815840Y-1501444D01*
X4803597Y-1498396D01*
X4791049Y-1497076D01*
X4778451Y-1497533D01*
X4766005Y-1499717D01*
X4754016Y-1503629D01*
X4742637Y-1509115D01*
X4732172Y-1516176D01*
X4722825Y-1524660D01*
X4714697Y-1534312D01*
X4707991Y-1545031D01*
X4702860Y-1556562D01*
X4699406Y-1568704D01*
X4697628Y-1581200D01*
X4697628Y-1593799D01*
X4699406Y-1606296D01*
X4702860Y-1618437D01*
X4707991Y-1629968D01*
X4714697Y-1640687D01*
X4722825Y-1650339D01*
X4732172Y-1658823D01*
X4742637Y-1665884D01*
X4745532Y-1667256D01*
X4749038Y-1670100D01*
X4751019Y-1674164D01*
X4751019Y-1678635D01*
X4749038Y-1682699D01*
X4745532Y-1685543D01*
X4742637Y-1686915D01*
X4732172Y-1693976D01*
X4722825Y-1702460D01*
X4714697Y-1712112D01*
X4707991Y-1722831D01*
X4702860Y-1734362D01*
X4699406Y-1746504D01*
X4697628Y-1759000D01*
X4697628Y-1771599D01*
X4699406Y-1784096D01*
X4702860Y-1796237D01*
X4707991Y-1807768D01*
X4714697Y-1818487D01*
X4722825Y-1828139D01*
X4732172Y-1836623D01*
X4742637Y-1843684D01*
X4754016Y-1849170D01*
X4766005Y-1853082D01*
X4778451Y-1855266D01*
G37*
G36*
X6991350Y-1593545D02*
G01*
X6996582Y-1591462D01*
X7009434Y-1584401D01*
X7021271Y-1575816D01*
X7031939Y-1565757D01*
X7041286Y-1554480D01*
X7049160Y-1542135D01*
X7054697Y-1530350D01*
X6991350Y-1530350D01*
G37*
G36*
X7639050Y-1593545D02*
G01*
X7644282Y-1591462D01*
X7657134Y-1584401D01*
X7668971Y-1575816D01*
X7679639Y-1565757D01*
X7688986Y-1554480D01*
X7696860Y-1542135D01*
X7702397Y-1530350D01*
X7639050Y-1530350D01*
G37*
G36*
X7550150Y-1593545D02*
G01*
X7550150Y-1530350D01*
X7486802Y-1530350D01*
X7492339Y-1542135D01*
X7500213Y-1554480D01*
X7509560Y-1565757D01*
X7520228Y-1575816D01*
X7532065Y-1584401D01*
X7544917Y-1591462D01*
G37*
G36*
X6356350Y-1593545D02*
G01*
X6361582Y-1591462D01*
X6374434Y-1584401D01*
X6386271Y-1575816D01*
X6396939Y-1565757D01*
X6406286Y-1554480D01*
X6414160Y-1542135D01*
X6419697Y-1530350D01*
X6356350Y-1530350D01*
G37*
G36*
X6902450Y-1593545D02*
G01*
X6902450Y-1530350D01*
X6839102Y-1530350D01*
X6844639Y-1542135D01*
X6852513Y-1554480D01*
X6861860Y-1565757D01*
X6872528Y-1575816D01*
X6884365Y-1584401D01*
X6897217Y-1591462D01*
G37*
G36*
X6839102Y-1441450D02*
G01*
X6902450Y-1441450D01*
X6902450Y-1378254D01*
X6897217Y-1380337D01*
X6884365Y-1387398D01*
X6872528Y-1395984D01*
X6861860Y-1406042D01*
X6852513Y-1417320D01*
X6844639Y-1429664D01*
G37*
G36*
X6991350Y-1441450D02*
G01*
X7054697Y-1441450D01*
X7049160Y-1429664D01*
X7041286Y-1417320D01*
X7031939Y-1406042D01*
X7021271Y-1395984D01*
X7009434Y-1387398D01*
X6996582Y-1380337D01*
X6991350Y-1378254D01*
G37*
G36*
X7486802Y-1441450D02*
G01*
X7550150Y-1441450D01*
X7550150Y-1378254D01*
X7544917Y-1380337D01*
X7532065Y-1387398D01*
X7520228Y-1395984D01*
X7509560Y-1406042D01*
X7500213Y-1417320D01*
X7492339Y-1429664D01*
G37*
G36*
X6204102Y-1441450D02*
G01*
X6267450Y-1441450D01*
X6267450Y-1378254D01*
X6262217Y-1380337D01*
X6249365Y-1387398D01*
X6237528Y-1395984D01*
X6226860Y-1406042D01*
X6217513Y-1417320D01*
X6209639Y-1429664D01*
G37*
G36*
X6356350Y-1441450D02*
G01*
X6419697Y-1441450D01*
X6414160Y-1429664D01*
X6406286Y-1417320D01*
X6396939Y-1406042D01*
X6386271Y-1395984D01*
X6374434Y-1387398D01*
X6361582Y-1380337D01*
X6356350Y-1378254D01*
G37*
G36*
X7639050Y-1441450D02*
G01*
X7702397Y-1441450D01*
X7696860Y-1429664D01*
X7688986Y-1417320D01*
X7679639Y-1406042D01*
X7668971Y-1395984D01*
X7657134Y-1387398D01*
X7644282Y-1380337D01*
X7639050Y-1378254D01*
G37*
G36*
X6304584Y-1348333D02*
G01*
X6319215Y-1348333D01*
X6333744Y-1346504D01*
X6347968Y-1342898D01*
X6361582Y-1337462D01*
X6374434Y-1330401D01*
X6387439Y-1320850D01*
X6426962Y-1289608D01*
X6429908Y-1287983D01*
X6433261Y-1287424D01*
X6825538Y-1287424D01*
X6828891Y-1287983D01*
X6831838Y-1289608D01*
X6872528Y-1321816D01*
X6884365Y-1330401D01*
X6897217Y-1337462D01*
X6910831Y-1342898D01*
X6925056Y-1346504D01*
X6939584Y-1348333D01*
X6954215Y-1348333D01*
X6968744Y-1346504D01*
X6982968Y-1342898D01*
X6996582Y-1337462D01*
X7009434Y-1330401D01*
X7022439Y-1320850D01*
X7061962Y-1289608D01*
X7064908Y-1287983D01*
X7068261Y-1287424D01*
X7473238Y-1287424D01*
X7476591Y-1287983D01*
X7479538Y-1289608D01*
X7520228Y-1321816D01*
X7532065Y-1330401D01*
X7544917Y-1337462D01*
X7558531Y-1342898D01*
X7572756Y-1346504D01*
X7587284Y-1348333D01*
X7601915Y-1348333D01*
X7616444Y-1346504D01*
X7630668Y-1342898D01*
X7644282Y-1337462D01*
X7657134Y-1330401D01*
X7668971Y-1321816D01*
X7679639Y-1311757D01*
X7688986Y-1300480D01*
X7696860Y-1288135D01*
X7703108Y-1274876D01*
X7707630Y-1260906D01*
X7710373Y-1246530D01*
X7711287Y-1231900D01*
X7710373Y-1217269D01*
X7707630Y-1202893D01*
X7703108Y-1188923D01*
X7696860Y-1175664D01*
X7688986Y-1163320D01*
X7679639Y-1152042D01*
X7668971Y-1141984D01*
X7657134Y-1133398D01*
X7644282Y-1126337D01*
X7630668Y-1120902D01*
X7616444Y-1117295D01*
X7601915Y-1115466D01*
X7587284Y-1115466D01*
X7572756Y-1117295D01*
X7558531Y-1120902D01*
X7544917Y-1126337D01*
X7532065Y-1133398D01*
X7519060Y-1142949D01*
X7479538Y-1174191D01*
X7476591Y-1175816D01*
X7473238Y-1176375D01*
X7068261Y-1176375D01*
X7064908Y-1175816D01*
X7061962Y-1174191D01*
X7021271Y-1141984D01*
X7009434Y-1133398D01*
X6996582Y-1126337D01*
X6982968Y-1120902D01*
X6968744Y-1117295D01*
X6954215Y-1115466D01*
X6939584Y-1115466D01*
X6925056Y-1117295D01*
X6910831Y-1120902D01*
X6897217Y-1126337D01*
X6884365Y-1133398D01*
X6871360Y-1142949D01*
X6831838Y-1174191D01*
X6828891Y-1175816D01*
X6825538Y-1176375D01*
X6433261Y-1176375D01*
X6429908Y-1175816D01*
X6426962Y-1174191D01*
X6395821Y-1149604D01*
X6394196Y-1147978D01*
X6369608Y-1116838D01*
X6367983Y-1113891D01*
X6367424Y-1110538D01*
X6367424Y-1028903D01*
X6367170Y-1023874D01*
X6366560Y-1019048D01*
X6365494Y-1014323D01*
X6364071Y-1009700D01*
X6362192Y-1005230D01*
X6359956Y-1000963D01*
X6357366Y-996848D01*
X6354419Y-993038D01*
X6351016Y-989279D01*
X5895898Y-534212D01*
X5893866Y-531317D01*
X5892952Y-527913D01*
X5887262Y-460756D01*
X5885535Y-446582D01*
X5881928Y-431342D01*
X5876594Y-416661D01*
X5869533Y-402640D01*
X5860948Y-389585D01*
X5850890Y-377596D01*
X5839561Y-366877D01*
X5827014Y-357530D01*
X5813450Y-349758D01*
X5799074Y-343560D01*
X5784088Y-339039D01*
X5768695Y-336346D01*
X5753100Y-335432D01*
X5737504Y-336346D01*
X5722112Y-339039D01*
X5707126Y-343560D01*
X5692749Y-349758D01*
X5679186Y-357530D01*
X5666689Y-366877D01*
X5655310Y-377596D01*
X5645251Y-389585D01*
X5636666Y-402640D01*
X5629605Y-416661D01*
X5624271Y-431342D01*
X5620664Y-446532D01*
X5618835Y-462076D01*
X5618835Y-477723D01*
X5620664Y-493268D01*
X5624271Y-508457D01*
X5629605Y-523138D01*
X5636666Y-537159D01*
X5645251Y-550214D01*
X5655310Y-562203D01*
X5666689Y-572922D01*
X5679186Y-582269D01*
X5692749Y-590092D01*
X5707126Y-596239D01*
X5722112Y-600760D01*
X5737656Y-603504D01*
X5811113Y-609752D01*
X5814517Y-610666D01*
X5817412Y-612698D01*
X6253429Y-1048715D01*
X6255613Y-1052017D01*
X6256375Y-1055878D01*
X6256375Y-1110538D01*
X6255816Y-1113891D01*
X6254191Y-1116838D01*
X6217564Y-1163218D01*
X6209639Y-1175664D01*
X6203391Y-1188923D01*
X6198870Y-1202893D01*
X6196126Y-1217269D01*
X6195212Y-1231900D01*
X6196126Y-1246530D01*
X6198870Y-1260906D01*
X6203391Y-1274876D01*
X6209639Y-1288135D01*
X6217513Y-1300480D01*
X6226860Y-1311757D01*
X6237528Y-1321816D01*
X6249365Y-1330401D01*
X6262217Y-1337462D01*
X6275832Y-1342898D01*
X6290056Y-1346504D01*
G37*
G36*
X1173835Y-1134567D02*
G01*
X1188364Y-1134567D01*
X1202740Y-1132738D01*
X1216812Y-1129131D01*
X1230274Y-1123797D01*
X1242974Y-1116787D01*
X1254709Y-1108303D01*
X1265275Y-1098346D01*
X1274521Y-1087170D01*
X1282293Y-1074928D01*
X1288491Y-1061821D01*
X1292961Y-1048003D01*
X1295654Y-1033780D01*
X1296568Y-1019302D01*
X1295654Y-1004824D01*
X1292961Y-990600D01*
X1288491Y-976782D01*
X1282293Y-963676D01*
X1274521Y-951433D01*
X1265275Y-940257D01*
X1254709Y-930300D01*
X1242974Y-921816D01*
X1230274Y-914806D01*
X1216812Y-909472D01*
X1202740Y-905865D01*
X1188364Y-904036D01*
X1173835Y-904036D01*
X1159459Y-905865D01*
X1145387Y-909472D01*
X1131925Y-914806D01*
X1119225Y-921816D01*
X1107490Y-930300D01*
X1096924Y-940257D01*
X1087678Y-951433D01*
X1079906Y-963676D01*
X1073708Y-976782D01*
X1069238Y-990600D01*
X1066546Y-1004824D01*
X1065631Y-1019302D01*
X1066546Y-1033780D01*
X1069238Y-1048003D01*
X1073708Y-1061821D01*
X1079906Y-1074928D01*
X1087678Y-1087170D01*
X1096924Y-1098346D01*
X1107490Y-1108303D01*
X1119225Y-1116787D01*
X1131925Y-1123797D01*
X1145387Y-1129131D01*
X1159459Y-1132738D01*
G37*
G36*
X919835Y-1134567D02*
G01*
X934364Y-1134567D01*
X948740Y-1132738D01*
X962812Y-1129131D01*
X976274Y-1123797D01*
X988974Y-1116787D01*
X1000709Y-1108303D01*
X1011275Y-1098346D01*
X1020521Y-1087170D01*
X1028293Y-1074928D01*
X1034491Y-1061821D01*
X1038961Y-1048003D01*
X1041653Y-1033780D01*
X1042568Y-1019302D01*
X1041653Y-1004824D01*
X1038961Y-990600D01*
X1034491Y-976782D01*
X1028293Y-963676D01*
X1020521Y-951433D01*
X1011275Y-940257D01*
X1000709Y-930300D01*
X988974Y-921816D01*
X976274Y-914806D01*
X962812Y-909472D01*
X948740Y-905865D01*
X934364Y-904036D01*
X919835Y-904036D01*
X905459Y-905865D01*
X891387Y-909472D01*
X877925Y-914806D01*
X865225Y-921816D01*
X853490Y-930300D01*
X842924Y-940257D01*
X833678Y-951433D01*
X825906Y-963676D01*
X819708Y-976782D01*
X815238Y-990600D01*
X812546Y-1004824D01*
X811631Y-1019302D01*
X812546Y-1033780D01*
X815238Y-1048003D01*
X819708Y-1061821D01*
X825906Y-1074928D01*
X833678Y-1087170D01*
X842924Y-1098346D01*
X853490Y-1108303D01*
X865225Y-1116787D01*
X877925Y-1123797D01*
X891387Y-1129131D01*
X905459Y-1132738D01*
G37*
G36*
X1427835Y-1134567D02*
G01*
X1442364Y-1134567D01*
X1456740Y-1132738D01*
X1470812Y-1129131D01*
X1484274Y-1123797D01*
X1496974Y-1116787D01*
X1508709Y-1108303D01*
X1519275Y-1098346D01*
X1528521Y-1087170D01*
X1536293Y-1074928D01*
X1542491Y-1061821D01*
X1546961Y-1048003D01*
X1549654Y-1033780D01*
X1550568Y-1019302D01*
X1549654Y-1004824D01*
X1546961Y-990600D01*
X1542491Y-976782D01*
X1536293Y-963676D01*
X1528521Y-951433D01*
X1519275Y-940257D01*
X1508709Y-930300D01*
X1496974Y-921816D01*
X1484274Y-914806D01*
X1470812Y-909472D01*
X1456740Y-905865D01*
X1442364Y-904036D01*
X1427835Y-904036D01*
X1413459Y-905865D01*
X1399387Y-909472D01*
X1385925Y-914806D01*
X1373225Y-921816D01*
X1361490Y-930300D01*
X1350924Y-940257D01*
X1341678Y-951433D01*
X1333906Y-963676D01*
X1327708Y-976782D01*
X1323238Y-990600D01*
X1320546Y-1004824D01*
X1319631Y-1019302D01*
X1320546Y-1033780D01*
X1323238Y-1048003D01*
X1327708Y-1061821D01*
X1333906Y-1074928D01*
X1341678Y-1087170D01*
X1350924Y-1098346D01*
X1361490Y-1108303D01*
X1373225Y-1116787D01*
X1385925Y-1123797D01*
X1399387Y-1129131D01*
X1413459Y-1132738D01*
G37*
G36*
X665835Y-1134567D02*
G01*
X680364Y-1134567D01*
X694740Y-1132738D01*
X708812Y-1129131D01*
X722274Y-1123797D01*
X734974Y-1116787D01*
X746709Y-1108303D01*
X757275Y-1098346D01*
X766521Y-1087170D01*
X774293Y-1074928D01*
X780491Y-1061821D01*
X784961Y-1048003D01*
X787654Y-1033780D01*
X788568Y-1019302D01*
X787654Y-1004824D01*
X784961Y-990600D01*
X780491Y-976782D01*
X774293Y-963676D01*
X766521Y-951433D01*
X757275Y-940257D01*
X746709Y-930300D01*
X734974Y-921816D01*
X722274Y-914806D01*
X708812Y-909472D01*
X694740Y-905865D01*
X680364Y-904036D01*
X665835Y-904036D01*
X651459Y-905865D01*
X637387Y-909472D01*
X623925Y-914806D01*
X611225Y-921816D01*
X599490Y-930300D01*
X588924Y-940257D01*
X579678Y-951433D01*
X571906Y-963676D01*
X565708Y-976782D01*
X561238Y-990600D01*
X558546Y-1004824D01*
X557631Y-1019302D01*
X558546Y-1033780D01*
X561238Y-1048003D01*
X565708Y-1061821D01*
X571906Y-1074928D01*
X579678Y-1087170D01*
X588924Y-1098346D01*
X599490Y-1108303D01*
X611225Y-1116787D01*
X623925Y-1123797D01*
X637387Y-1129131D01*
X651459Y-1132738D01*
G37*
G36*
X4221835Y-1134567D02*
G01*
X4236364Y-1134567D01*
X4250740Y-1132738D01*
X4264812Y-1129131D01*
X4278274Y-1123797D01*
X4290974Y-1116787D01*
X4302709Y-1108303D01*
X4313275Y-1098346D01*
X4322521Y-1087170D01*
X4330293Y-1074928D01*
X4336491Y-1061821D01*
X4340961Y-1048003D01*
X4343654Y-1033780D01*
X4344568Y-1019302D01*
X4343654Y-1004824D01*
X4340961Y-990600D01*
X4336491Y-976782D01*
X4330293Y-963676D01*
X4322521Y-951433D01*
X4313275Y-940257D01*
X4302709Y-930300D01*
X4290974Y-921816D01*
X4278274Y-914806D01*
X4264812Y-909472D01*
X4250740Y-905865D01*
X4236364Y-904036D01*
X4221835Y-904036D01*
X4207459Y-905865D01*
X4193387Y-909472D01*
X4179925Y-914806D01*
X4167225Y-921816D01*
X4155490Y-930300D01*
X4144924Y-940257D01*
X4135678Y-951433D01*
X4127906Y-963676D01*
X4121708Y-976782D01*
X4117238Y-990600D01*
X4114546Y-1004824D01*
X4113631Y-1019302D01*
X4114546Y-1033780D01*
X4117238Y-1048003D01*
X4121708Y-1061821D01*
X4127906Y-1074928D01*
X4135678Y-1087170D01*
X4144924Y-1098346D01*
X4155490Y-1108303D01*
X4167225Y-1116787D01*
X4179925Y-1123797D01*
X4193387Y-1129131D01*
X4207459Y-1132738D01*
G37*
G36*
X3967835Y-1134567D02*
G01*
X3982364Y-1134567D01*
X3996740Y-1132738D01*
X4010812Y-1129131D01*
X4024274Y-1123797D01*
X4036974Y-1116787D01*
X4048709Y-1108303D01*
X4059275Y-1098346D01*
X4068521Y-1087170D01*
X4076293Y-1074928D01*
X4082491Y-1061821D01*
X4086961Y-1048003D01*
X4089654Y-1033780D01*
X4090568Y-1019302D01*
X4089654Y-1004824D01*
X4086961Y-990600D01*
X4082491Y-976782D01*
X4076293Y-963676D01*
X4068521Y-951433D01*
X4059275Y-940257D01*
X4048709Y-930300D01*
X4036974Y-921816D01*
X4024274Y-914806D01*
X4010812Y-909472D01*
X3996740Y-905865D01*
X3982364Y-904036D01*
X3967835Y-904036D01*
X3953459Y-905865D01*
X3939387Y-909472D01*
X3925925Y-914806D01*
X3913225Y-921816D01*
X3901490Y-930300D01*
X3890924Y-940257D01*
X3881678Y-951433D01*
X3873906Y-963676D01*
X3867708Y-976782D01*
X3863238Y-990600D01*
X3860546Y-1004824D01*
X3859631Y-1019302D01*
X3860546Y-1033780D01*
X3863238Y-1048003D01*
X3867708Y-1061821D01*
X3873906Y-1074928D01*
X3881678Y-1087170D01*
X3890924Y-1098346D01*
X3901490Y-1108303D01*
X3913225Y-1116787D01*
X3925925Y-1123797D01*
X3939387Y-1129131D01*
X3953459Y-1132738D01*
G37*
G36*
X2443835Y-1134567D02*
G01*
X2458364Y-1134567D01*
X2472740Y-1132738D01*
X2486812Y-1129131D01*
X2500274Y-1123797D01*
X2512974Y-1116787D01*
X2524709Y-1108303D01*
X2535275Y-1098346D01*
X2544521Y-1087170D01*
X2552293Y-1074928D01*
X2558491Y-1061821D01*
X2562961Y-1048003D01*
X2565654Y-1033780D01*
X2566568Y-1019302D01*
X2565654Y-1004824D01*
X2562961Y-990600D01*
X2558491Y-976782D01*
X2552293Y-963676D01*
X2544521Y-951433D01*
X2535275Y-940257D01*
X2524709Y-930300D01*
X2512974Y-921816D01*
X2500274Y-914806D01*
X2486812Y-909472D01*
X2472740Y-905865D01*
X2458364Y-904036D01*
X2443835Y-904036D01*
X2429459Y-905865D01*
X2415387Y-909472D01*
X2401925Y-914806D01*
X2389225Y-921816D01*
X2377490Y-930300D01*
X2366924Y-940257D01*
X2357678Y-951433D01*
X2349906Y-963676D01*
X2343708Y-976782D01*
X2339238Y-990600D01*
X2336546Y-1004824D01*
X2335631Y-1019302D01*
X2336546Y-1033780D01*
X2339238Y-1048003D01*
X2343708Y-1061821D01*
X2349906Y-1074928D01*
X2357678Y-1087170D01*
X2366924Y-1098346D01*
X2377490Y-1108303D01*
X2389225Y-1116787D01*
X2401925Y-1123797D01*
X2415387Y-1129131D01*
X2429459Y-1132738D01*
G37*
G36*
X1935835Y-1134567D02*
G01*
X1950364Y-1134567D01*
X1964740Y-1132738D01*
X1978812Y-1129131D01*
X1992274Y-1123797D01*
X2004974Y-1116787D01*
X2016709Y-1108303D01*
X2027275Y-1098346D01*
X2036521Y-1087170D01*
X2044293Y-1074928D01*
X2050491Y-1061821D01*
X2054961Y-1048003D01*
X2057704Y-1033627D01*
X2064054Y-979932D01*
X2064969Y-976680D01*
X2066950Y-973937D01*
X2072132Y-968756D01*
X2075942Y-966368D01*
X2080361Y-965860D01*
X2084628Y-967282D01*
X2087829Y-970432D01*
X2089404Y-974648D01*
X2088946Y-979119D01*
X2085238Y-990600D01*
X2082546Y-1004824D01*
X2081631Y-1019302D01*
X2082546Y-1033780D01*
X2085238Y-1048003D01*
X2089708Y-1061821D01*
X2095906Y-1074928D01*
X2103678Y-1087170D01*
X2112924Y-1098346D01*
X2123490Y-1108303D01*
X2135225Y-1116787D01*
X2147925Y-1123797D01*
X2161387Y-1129131D01*
X2175459Y-1132738D01*
X2189835Y-1134567D01*
X2204364Y-1134567D01*
X2218740Y-1132738D01*
X2232812Y-1129131D01*
X2246274Y-1123797D01*
X2258974Y-1116787D01*
X2270709Y-1108303D01*
X2281275Y-1098346D01*
X2290521Y-1087170D01*
X2298293Y-1074928D01*
X2304491Y-1061821D01*
X2308961Y-1048003D01*
X2311654Y-1033780D01*
X2312568Y-1019302D01*
X2311654Y-1004824D01*
X2308961Y-990600D01*
X2304491Y-976782D01*
X2298293Y-963676D01*
X2290521Y-951433D01*
X2281275Y-940257D01*
X2270709Y-930300D01*
X2258974Y-921816D01*
X2246274Y-914806D01*
X2232812Y-909472D01*
X2218740Y-905865D01*
X2204364Y-904036D01*
X2189835Y-904036D01*
X2175459Y-905865D01*
X2161387Y-909472D01*
X2157374Y-911047D01*
X2153513Y-911758D01*
X2149652Y-910945D01*
X2146401Y-908710D01*
X2144268Y-905459D01*
X2143506Y-901547D01*
X2144268Y-897686D01*
X2146452Y-894435D01*
X2388616Y-652322D01*
X2392019Y-648563D01*
X2394966Y-644753D01*
X2397556Y-640638D01*
X2399792Y-636371D01*
X2401671Y-631901D01*
X2403094Y-627278D01*
X2404160Y-622554D01*
X2404770Y-617728D01*
X2405024Y-612698D01*
X2405024Y-560984D01*
X2405786Y-557072D01*
X2407970Y-553770D01*
X2411272Y-551586D01*
X2415184Y-550824D01*
X2469743Y-550824D01*
X2473248Y-551434D01*
X2476296Y-553212D01*
X2527706Y-596544D01*
X2535885Y-603148D01*
X2548940Y-611733D01*
X2562961Y-618794D01*
X2577642Y-624128D01*
X2592832Y-627735D01*
X2608376Y-629564D01*
X2624023Y-629564D01*
X2639568Y-627735D01*
X2654757Y-624128D01*
X2669438Y-618794D01*
X2683459Y-611733D01*
X2696514Y-603148D01*
X2708503Y-593090D01*
X2719222Y-581761D01*
X2728569Y-569214D01*
X2736392Y-555650D01*
X2742539Y-541274D01*
X2747060Y-526288D01*
X2749753Y-510895D01*
X2750667Y-495300D01*
X2749753Y-479704D01*
X2747060Y-464312D01*
X2742539Y-449326D01*
X2736392Y-434949D01*
X2728569Y-421385D01*
X2719222Y-408889D01*
X2708503Y-397510D01*
X2696514Y-387451D01*
X2683459Y-378866D01*
X2669438Y-371805D01*
X2654757Y-366471D01*
X2639568Y-362864D01*
X2624023Y-361035D01*
X2608376Y-361035D01*
X2592832Y-362864D01*
X2577642Y-366471D01*
X2562961Y-371805D01*
X2548940Y-378866D01*
X2535885Y-387451D01*
X2527706Y-394055D01*
X2476296Y-437388D01*
X2473248Y-439166D01*
X2469743Y-439775D01*
X2349957Y-439775D01*
X2339848Y-440690D01*
X2330551Y-443179D01*
X2321763Y-447243D01*
X2313838Y-452831D01*
X2307031Y-459638D01*
X2301443Y-467563D01*
X2297379Y-476351D01*
X2294890Y-485648D01*
X2293975Y-495757D01*
X2293975Y-585724D01*
X2293213Y-589584D01*
X2291029Y-592886D01*
X1988464Y-895451D01*
X1985721Y-897432D01*
X1982470Y-898347D01*
X1933651Y-904240D01*
X1921510Y-905865D01*
X1907387Y-909472D01*
X1893925Y-914806D01*
X1881225Y-921816D01*
X1869490Y-930300D01*
X1858924Y-940257D01*
X1849678Y-951433D01*
X1841906Y-963676D01*
X1835708Y-976782D01*
X1831238Y-990600D01*
X1828546Y-1004824D01*
X1827631Y-1019302D01*
X1828546Y-1033780D01*
X1831238Y-1048003D01*
X1835708Y-1061821D01*
X1841906Y-1074928D01*
X1849678Y-1087170D01*
X1858924Y-1098346D01*
X1869490Y-1108303D01*
X1881225Y-1116787D01*
X1893925Y-1123797D01*
X1907387Y-1129131D01*
X1921459Y-1132738D01*
G37*
G36*
X1645259Y-1125880D02*
G01*
X1645259Y-1063142D01*
X1582369Y-1063142D01*
X1587906Y-1074928D01*
X1595678Y-1087170D01*
X1604924Y-1098346D01*
X1615490Y-1108303D01*
X1627225Y-1116787D01*
X1639925Y-1123797D01*
G37*
G36*
X1732940Y-1125880D02*
G01*
X1738274Y-1123797D01*
X1750974Y-1116787D01*
X1762709Y-1108303D01*
X1773275Y-1098346D01*
X1782521Y-1087170D01*
X1790293Y-1074928D01*
X1795830Y-1063142D01*
X1732940Y-1063142D01*
G37*
G36*
X1582369Y-975461D02*
G01*
X1645259Y-975461D01*
X1645259Y-912723D01*
X1639925Y-914806D01*
X1627225Y-921816D01*
X1615490Y-930300D01*
X1604924Y-940257D01*
X1595678Y-951433D01*
X1587906Y-963676D01*
G37*
G36*
X1732940Y-975461D02*
G01*
X1795830Y-975461D01*
X1790293Y-963676D01*
X1782521Y-951433D01*
X1773275Y-940257D01*
X1762709Y-930300D01*
X1750974Y-921816D01*
X1738274Y-914806D01*
X1732940Y-912723D01*
G37*
G36*
X426415Y-725932D02*
G01*
X429463Y-724966D01*
X440283Y-719734D01*
X450240Y-712978D01*
X459028Y-704799D01*
X466547Y-695401D01*
X472541Y-684987D01*
X475945Y-676402D01*
X426415Y-676402D01*
G37*
G36*
X373684Y-725932D02*
G01*
X373684Y-676402D01*
X324154Y-676402D01*
X327558Y-684987D01*
X333552Y-695401D01*
X341071Y-704799D01*
X349859Y-712978D01*
X359816Y-719734D01*
X370636Y-724966D01*
G37*
G36*
X7626350Y-725932D02*
G01*
X7629398Y-724966D01*
X7640218Y-719734D01*
X7650175Y-712978D01*
X7658963Y-704799D01*
X7666481Y-695401D01*
X7672476Y-684987D01*
X7675880Y-676402D01*
X7626350Y-676402D01*
G37*
G36*
X7573619Y-725932D02*
G01*
X7573619Y-676402D01*
X7524089Y-676402D01*
X7527493Y-684987D01*
X7533487Y-695401D01*
X7541006Y-704799D01*
X7549794Y-712978D01*
X7559751Y-719734D01*
X7570571Y-724966D01*
G37*
G36*
X551484Y-653694D02*
G01*
X551484Y-604215D01*
X501954Y-604215D01*
X505358Y-612749D01*
X511352Y-623163D01*
X518871Y-632612D01*
X527659Y-640791D01*
X537616Y-647547D01*
X548436Y-652780D01*
G37*
G36*
X195884Y-653694D02*
G01*
X195884Y-604215D01*
X146354Y-604215D01*
X149758Y-612749D01*
X155752Y-623163D01*
X163271Y-632612D01*
X172059Y-640791D01*
X182016Y-647547D01*
X192836Y-652780D01*
G37*
G36*
X604215Y-653694D02*
G01*
X607263Y-652780D01*
X618083Y-647547D01*
X628040Y-640791D01*
X636828Y-632612D01*
X644347Y-623163D01*
X650341Y-612749D01*
X653745Y-604215D01*
X604215Y-604215D01*
G37*
G36*
X248615Y-653694D02*
G01*
X251663Y-652780D01*
X262483Y-647547D01*
X272440Y-640791D01*
X281228Y-632612D01*
X288747Y-623163D01*
X294741Y-612749D01*
X298145Y-604215D01*
X248615Y-604215D01*
G37*
G36*
X7804150Y-653694D02*
G01*
X7807198Y-652780D01*
X7818018Y-647547D01*
X7827975Y-640791D01*
X7836763Y-632612D01*
X7844281Y-623163D01*
X7850276Y-612749D01*
X7853680Y-604215D01*
X7804150Y-604215D01*
G37*
G36*
X7448550Y-653694D02*
G01*
X7451598Y-652780D01*
X7462418Y-647547D01*
X7472375Y-640791D01*
X7481163Y-632612D01*
X7488681Y-623163D01*
X7494676Y-612749D01*
X7498080Y-604215D01*
X7448550Y-604215D01*
G37*
G36*
X7751419Y-653694D02*
G01*
X7751419Y-604215D01*
X7701889Y-604215D01*
X7705293Y-612749D01*
X7711287Y-623163D01*
X7718806Y-632612D01*
X7727594Y-640791D01*
X7737551Y-647547D01*
X7748371Y-652780D01*
G37*
G36*
X7395819Y-653694D02*
G01*
X7395819Y-604215D01*
X7346289Y-604215D01*
X7349693Y-612749D01*
X7355687Y-623163D01*
X7363206Y-632612D01*
X7371994Y-640791D01*
X7381951Y-647547D01*
X7392771Y-652780D01*
G37*
G36*
X1176528Y-629767D02*
G01*
X1363472Y-629767D01*
X1371854Y-628954D01*
X1379474Y-626668D01*
X1386433Y-622909D01*
X1392580Y-617880D01*
X1397609Y-611733D01*
X1401368Y-604774D01*
X1403654Y-597154D01*
X1404467Y-588772D01*
X1404467Y-564134D01*
X1405178Y-560425D01*
X1407109Y-557276D01*
X1410106Y-555040D01*
X1416405Y-551891D01*
X1420926Y-550824D01*
X1479143Y-550824D01*
X1482648Y-551434D01*
X1485696Y-553212D01*
X1537106Y-596544D01*
X1545285Y-603148D01*
X1558340Y-611733D01*
X1572361Y-618794D01*
X1587042Y-624128D01*
X1602232Y-627735D01*
X1617776Y-629564D01*
X1633423Y-629564D01*
X1648968Y-627735D01*
X1664157Y-624128D01*
X1678838Y-618794D01*
X1692859Y-611733D01*
X1705914Y-603148D01*
X1717903Y-593090D01*
X1728622Y-581761D01*
X1737969Y-569214D01*
X1745792Y-555650D01*
X1751939Y-541274D01*
X1756460Y-526288D01*
X1759153Y-510895D01*
X1760067Y-495300D01*
X1759153Y-479704D01*
X1756460Y-464312D01*
X1751939Y-449326D01*
X1745792Y-434949D01*
X1737969Y-421385D01*
X1728622Y-408889D01*
X1717903Y-397510D01*
X1705914Y-387451D01*
X1692859Y-378866D01*
X1678838Y-371805D01*
X1664157Y-366471D01*
X1648968Y-362864D01*
X1633423Y-361035D01*
X1617776Y-361035D01*
X1602232Y-362864D01*
X1587042Y-366471D01*
X1572361Y-371805D01*
X1558340Y-378866D01*
X1545285Y-387451D01*
X1537106Y-394055D01*
X1485696Y-437388D01*
X1482648Y-439166D01*
X1479143Y-439775D01*
X1420926Y-439775D01*
X1416405Y-438708D01*
X1410106Y-435559D01*
X1407109Y-433324D01*
X1405178Y-430174D01*
X1404467Y-426466D01*
X1404467Y-401828D01*
X1403654Y-393446D01*
X1401368Y-385826D01*
X1397609Y-378866D01*
X1392580Y-372719D01*
X1386433Y-367690D01*
X1379474Y-363931D01*
X1371854Y-361645D01*
X1363472Y-360832D01*
X1176528Y-360832D01*
X1168146Y-361645D01*
X1160526Y-363931D01*
X1153566Y-367690D01*
X1147419Y-372719D01*
X1142390Y-378866D01*
X1138631Y-385826D01*
X1136345Y-393446D01*
X1135532Y-401828D01*
X1134414Y-405536D01*
X1132027Y-408533D01*
X1128674Y-410464D01*
X1124864Y-410972D01*
X1121156Y-410057D01*
X1118006Y-407822D01*
X1108303Y-397510D01*
X1096314Y-387451D01*
X1083259Y-378866D01*
X1069340Y-371856D01*
X1069340Y-441959D01*
X1125372Y-441959D01*
X1129233Y-442722D01*
X1132535Y-444957D01*
X1134719Y-448208D01*
X1135532Y-452120D01*
X1135532Y-538480D01*
X1134719Y-542391D01*
X1132535Y-545642D01*
X1129233Y-547878D01*
X1125372Y-548640D01*
X1069340Y-548640D01*
X1069340Y-618744D01*
X1083259Y-611733D01*
X1096314Y-603148D01*
X1108303Y-593090D01*
X1118006Y-582777D01*
X1121156Y-580542D01*
X1124864Y-579628D01*
X1128674Y-580136D01*
X1132027Y-582066D01*
X1134414Y-585063D01*
X1135532Y-588772D01*
X1136345Y-597154D01*
X1138631Y-604774D01*
X1142390Y-611733D01*
X1147419Y-617880D01*
X1153566Y-622909D01*
X1160526Y-626668D01*
X1168146Y-628954D01*
G37*
G36*
X324154Y-623722D02*
G01*
X373684Y-623722D01*
X373684Y-615086D01*
X374497Y-611124D01*
X376783Y-607822D01*
X380136Y-605637D01*
X384149Y-604926D01*
X405028Y-605485D01*
X415493Y-604723D01*
X419608Y-605282D01*
X423164Y-607415D01*
X425551Y-610819D01*
X426415Y-614883D01*
X426415Y-623722D01*
X475945Y-623722D01*
X472541Y-615137D01*
X467614Y-606552D01*
X466293Y-602386D01*
X466851Y-598068D01*
X469138Y-594360D01*
X472795Y-591972D01*
X482142Y-588467D01*
X484784Y-587146D01*
X487476Y-586333D01*
X489254Y-584911D01*
X499922Y-579628D01*
X516788Y-569163D01*
X532587Y-557123D01*
X535686Y-554228D01*
X538886Y-552196D01*
X542594Y-551484D01*
X551484Y-551484D01*
X551484Y-542493D01*
X552145Y-538886D01*
X554075Y-535736D01*
X560273Y-528726D01*
X571957Y-512673D01*
X582015Y-495554D01*
X584809Y-489508D01*
X586333Y-487426D01*
X586943Y-484885D01*
X590397Y-477520D01*
X591972Y-473049D01*
X594309Y-469290D01*
X598017Y-466902D01*
X602386Y-466293D01*
X606602Y-467664D01*
X615137Y-472541D01*
X623722Y-475945D01*
X623722Y-426415D01*
X614934Y-426415D01*
X610920Y-425602D01*
X607568Y-423265D01*
X605434Y-419760D01*
X604774Y-415747D01*
X605536Y-400050D01*
X604774Y-384352D01*
X605434Y-380339D01*
X607568Y-376834D01*
X610920Y-374497D01*
X614934Y-373684D01*
X623722Y-373684D01*
X623722Y-324154D01*
X615137Y-327558D01*
X606602Y-332435D01*
X602386Y-333806D01*
X598017Y-333197D01*
X594309Y-330809D01*
X591972Y-327050D01*
X590397Y-322580D01*
X586943Y-315214D01*
X586333Y-312674D01*
X584809Y-310591D01*
X582015Y-304546D01*
X571957Y-287426D01*
X560273Y-271373D01*
X554075Y-264363D01*
X552145Y-261213D01*
X551484Y-257606D01*
X551484Y-248615D01*
X542594Y-248615D01*
X538886Y-247904D01*
X535686Y-245871D01*
X532587Y-242976D01*
X516788Y-230936D01*
X499922Y-220471D01*
X489254Y-215188D01*
X487476Y-213766D01*
X484784Y-213004D01*
X482142Y-211632D01*
X472795Y-208127D01*
X469138Y-205740D01*
X466851Y-202031D01*
X466293Y-197713D01*
X467614Y-193548D01*
X472541Y-184962D01*
X475945Y-176377D01*
X426415Y-176377D01*
X426415Y-185216D01*
X425551Y-189280D01*
X423164Y-192684D01*
X419608Y-194818D01*
X415493Y-195376D01*
X405028Y-194614D01*
X384149Y-195173D01*
X380136Y-194462D01*
X376783Y-192278D01*
X374497Y-188976D01*
X373684Y-185013D01*
X373684Y-176377D01*
X324154Y-176377D01*
X327558Y-184962D01*
X332384Y-193344D01*
X333654Y-197358D01*
X333197Y-201574D01*
X331063Y-205232D01*
X327609Y-207721D01*
X314858Y-213258D01*
X312369Y-213766D01*
X308965Y-215849D01*
X291642Y-225501D01*
X275285Y-236778D01*
X264109Y-246227D01*
X261010Y-248005D01*
X257556Y-248615D01*
X248615Y-248615D01*
X248615Y-257251D01*
X248005Y-260654D01*
X246379Y-263601D01*
X233781Y-279247D01*
X222910Y-295859D01*
X215036Y-310845D01*
X213614Y-312521D01*
X213156Y-314706D01*
X207975Y-327507D01*
X205536Y-331063D01*
X201879Y-333248D01*
X197561Y-333756D01*
X193497Y-332435D01*
X184962Y-327558D01*
X176377Y-324154D01*
X176377Y-373684D01*
X185216Y-373684D01*
X189331Y-374548D01*
X192735Y-377037D01*
X194818Y-380644D01*
X195326Y-384860D01*
X194818Y-390144D01*
X194818Y-409956D01*
X195326Y-415239D01*
X194818Y-419455D01*
X192735Y-423062D01*
X189331Y-425551D01*
X185216Y-426415D01*
X176377Y-426415D01*
X176377Y-475945D01*
X184962Y-472541D01*
X193497Y-467664D01*
X197561Y-466343D01*
X201879Y-466851D01*
X205536Y-469036D01*
X207975Y-472592D01*
X213156Y-485393D01*
X213614Y-487578D01*
X215036Y-489254D01*
X222910Y-504240D01*
X233781Y-520852D01*
X246379Y-536498D01*
X248005Y-539445D01*
X248615Y-542848D01*
X248615Y-551484D01*
X257556Y-551484D01*
X261010Y-552094D01*
X264109Y-553872D01*
X275285Y-563321D01*
X291642Y-574598D01*
X308965Y-584250D01*
X312369Y-586333D01*
X314858Y-586841D01*
X327609Y-592378D01*
X331063Y-594868D01*
X333197Y-598525D01*
X333654Y-602742D01*
X332384Y-606755D01*
X327558Y-615137D01*
G37*
G36*
X7524089Y-623722D02*
G01*
X7573619Y-623722D01*
X7573619Y-615086D01*
X7574432Y-611124D01*
X7576718Y-607822D01*
X7580071Y-605637D01*
X7584084Y-604926D01*
X7604963Y-605485D01*
X7615428Y-604723D01*
X7619542Y-605282D01*
X7623098Y-607415D01*
X7625486Y-610819D01*
X7626350Y-614883D01*
X7626350Y-623722D01*
X7675880Y-623722D01*
X7672476Y-615137D01*
X7667548Y-606552D01*
X7666228Y-602386D01*
X7666786Y-598068D01*
X7669072Y-594360D01*
X7672730Y-591972D01*
X7682077Y-588467D01*
X7684719Y-587146D01*
X7687411Y-586333D01*
X7689189Y-584911D01*
X7699857Y-579628D01*
X7716723Y-569163D01*
X7732522Y-557123D01*
X7735620Y-554228D01*
X7738821Y-552196D01*
X7742529Y-551484D01*
X7751419Y-551484D01*
X7751419Y-542493D01*
X7752080Y-538886D01*
X7754010Y-535736D01*
X7760208Y-528726D01*
X7771892Y-512673D01*
X7781950Y-495554D01*
X7784744Y-489508D01*
X7786268Y-487426D01*
X7786878Y-484885D01*
X7790332Y-477520D01*
X7791907Y-473049D01*
X7794244Y-469290D01*
X7797952Y-466902D01*
X7802321Y-466293D01*
X7806537Y-467664D01*
X7815072Y-472541D01*
X7823657Y-475945D01*
X7823657Y-426415D01*
X7814868Y-426415D01*
X7810855Y-425602D01*
X7807502Y-423265D01*
X7805369Y-419760D01*
X7804708Y-415747D01*
X7805470Y-400050D01*
X7804708Y-384352D01*
X7805369Y-380339D01*
X7807502Y-376834D01*
X7810855Y-374497D01*
X7814868Y-373684D01*
X7823657Y-373684D01*
X7823657Y-324154D01*
X7815072Y-327558D01*
X7806537Y-332435D01*
X7802321Y-333806D01*
X7797952Y-333197D01*
X7794244Y-330809D01*
X7791907Y-327050D01*
X7790332Y-322580D01*
X7786878Y-315214D01*
X7786268Y-312674D01*
X7784744Y-310591D01*
X7781950Y-304546D01*
X7771892Y-287426D01*
X7760208Y-271373D01*
X7754010Y-264363D01*
X7752080Y-261213D01*
X7751419Y-257606D01*
X7751419Y-248615D01*
X7742529Y-248615D01*
X7738821Y-247904D01*
X7735620Y-245871D01*
X7732522Y-242976D01*
X7716723Y-230936D01*
X7699857Y-220471D01*
X7689189Y-215188D01*
X7687411Y-213766D01*
X7684719Y-213004D01*
X7682077Y-211632D01*
X7672730Y-208127D01*
X7669072Y-205740D01*
X7666786Y-202031D01*
X7666228Y-197713D01*
X7667548Y-193548D01*
X7672476Y-184962D01*
X7675880Y-176377D01*
X7626350Y-176377D01*
X7626350Y-185216D01*
X7625486Y-189280D01*
X7623098Y-192684D01*
X7619542Y-194818D01*
X7615428Y-195376D01*
X7604963Y-194614D01*
X7584084Y-195173D01*
X7580071Y-194462D01*
X7576718Y-192278D01*
X7574432Y-188976D01*
X7573619Y-185013D01*
X7573619Y-176377D01*
X7524089Y-176377D01*
X7527493Y-184962D01*
X7532319Y-193344D01*
X7533589Y-197358D01*
X7533131Y-201574D01*
X7530998Y-205232D01*
X7527544Y-207721D01*
X7514793Y-213258D01*
X7512303Y-213766D01*
X7508900Y-215849D01*
X7491577Y-225501D01*
X7475220Y-236778D01*
X7464044Y-246227D01*
X7460945Y-248005D01*
X7457490Y-248615D01*
X7448550Y-248615D01*
X7448550Y-257251D01*
X7447940Y-260654D01*
X7446314Y-263601D01*
X7433716Y-279247D01*
X7422845Y-295859D01*
X7414971Y-310845D01*
X7413548Y-312521D01*
X7413091Y-314706D01*
X7407909Y-327507D01*
X7405471Y-331063D01*
X7401814Y-333248D01*
X7397496Y-333756D01*
X7393431Y-332435D01*
X7384897Y-327558D01*
X7376312Y-324154D01*
X7376312Y-373684D01*
X7385151Y-373684D01*
X7389266Y-374548D01*
X7392670Y-377037D01*
X7394752Y-380644D01*
X7395260Y-384860D01*
X7394752Y-390144D01*
X7394752Y-409956D01*
X7395260Y-415239D01*
X7394752Y-419455D01*
X7392670Y-423062D01*
X7389266Y-425551D01*
X7385151Y-426415D01*
X7376312Y-426415D01*
X7376312Y-475945D01*
X7384897Y-472541D01*
X7393431Y-467664D01*
X7397496Y-466343D01*
X7401814Y-466851D01*
X7405471Y-469036D01*
X7407909Y-472592D01*
X7413091Y-485393D01*
X7413548Y-487578D01*
X7414971Y-489254D01*
X7422845Y-504240D01*
X7433716Y-520852D01*
X7446314Y-536498D01*
X7447940Y-539445D01*
X7448550Y-542848D01*
X7448550Y-551484D01*
X7457490Y-551484D01*
X7460945Y-552094D01*
X7464044Y-553872D01*
X7475220Y-563321D01*
X7491577Y-574598D01*
X7508900Y-584250D01*
X7512303Y-586333D01*
X7514793Y-586841D01*
X7527544Y-592378D01*
X7530998Y-594868D01*
X7533131Y-598525D01*
X7533589Y-602742D01*
X7532319Y-606755D01*
X7527493Y-615137D01*
G37*
G36*
X962660Y-618744D02*
G01*
X962660Y-548640D01*
X892810Y-548640D01*
X895858Y-555650D01*
X903630Y-569214D01*
X912977Y-581761D01*
X923696Y-593090D01*
X935685Y-603148D01*
X948740Y-611733D01*
G37*
G36*
X6050076Y-604164D02*
G01*
X6065723Y-604164D01*
X6081268Y-602335D01*
X6096457Y-598728D01*
X6111138Y-593394D01*
X6125159Y-586333D01*
X6138214Y-577748D01*
X6150203Y-567690D01*
X6160922Y-556361D01*
X6170269Y-543814D01*
X6178092Y-530250D01*
X6184239Y-515874D01*
X6188760Y-500888D01*
X6191453Y-485495D01*
X6192367Y-469900D01*
X6191453Y-454304D01*
X6188760Y-438912D01*
X6184239Y-423926D01*
X6178092Y-409549D01*
X6170269Y-395986D01*
X6160922Y-383489D01*
X6150203Y-372110D01*
X6138214Y-362051D01*
X6125159Y-353466D01*
X6111138Y-346405D01*
X6096457Y-341071D01*
X6081268Y-337464D01*
X6065723Y-335635D01*
X6050076Y-335635D01*
X6034532Y-337464D01*
X6019342Y-341071D01*
X6004661Y-346405D01*
X5990640Y-353466D01*
X5977585Y-362051D01*
X5965596Y-372110D01*
X5954877Y-383489D01*
X5945530Y-395986D01*
X5937758Y-409549D01*
X5931560Y-423926D01*
X5927039Y-438912D01*
X5924346Y-454304D01*
X5923432Y-469900D01*
X5924346Y-485495D01*
X5927039Y-500888D01*
X5931560Y-515874D01*
X5937758Y-530250D01*
X5945530Y-543814D01*
X5954877Y-556361D01*
X5965596Y-567690D01*
X5977585Y-577748D01*
X5990640Y-586333D01*
X6004661Y-593394D01*
X6019342Y-598728D01*
X6034532Y-602335D01*
G37*
G36*
X2906674Y-597560D02*
G01*
X2906674Y-536651D01*
X2845562Y-536651D01*
X2851708Y-549503D01*
X2859430Y-561390D01*
X2868625Y-572160D01*
X2879090Y-581660D01*
X2890723Y-589788D01*
X2903270Y-596341D01*
G37*
G36*
X146354Y-551484D02*
G01*
X195884Y-551484D01*
X195884Y-502005D01*
X192836Y-502920D01*
X182016Y-508152D01*
X172059Y-514908D01*
X163271Y-523087D01*
X155752Y-532536D01*
X149758Y-542950D01*
G37*
G36*
X604215Y-551484D02*
G01*
X653745Y-551484D01*
X650341Y-542950D01*
X644347Y-532536D01*
X636828Y-523087D01*
X628040Y-514908D01*
X618083Y-508152D01*
X607263Y-502920D01*
X604215Y-502005D01*
G37*
G36*
X7804150Y-551484D02*
G01*
X7853680Y-551484D01*
X7850276Y-542950D01*
X7844281Y-532536D01*
X7836763Y-523087D01*
X7827975Y-514908D01*
X7818018Y-508152D01*
X7807198Y-502920D01*
X7804150Y-502005D01*
G37*
G36*
X7346289Y-551484D02*
G01*
X7395819Y-551484D01*
X7395819Y-502005D01*
X7392771Y-502920D01*
X7381951Y-508152D01*
X7371994Y-514908D01*
X7363206Y-523087D01*
X7355687Y-532536D01*
X7349693Y-542950D01*
G37*
G36*
X123698Y-475945D02*
G01*
X123698Y-426415D01*
X74168Y-426415D01*
X75133Y-429463D01*
X80365Y-440283D01*
X87122Y-450240D01*
X95300Y-459028D01*
X104698Y-466547D01*
X115112Y-472541D01*
G37*
G36*
X676402Y-475945D02*
G01*
X684987Y-472541D01*
X695401Y-466547D01*
X704799Y-459028D01*
X712978Y-450240D01*
X719734Y-440283D01*
X724966Y-429463D01*
X725932Y-426415D01*
X676402Y-426415D01*
G37*
G36*
X7323632Y-475945D02*
G01*
X7323632Y-426415D01*
X7274102Y-426415D01*
X7275068Y-429463D01*
X7280300Y-440283D01*
X7287056Y-450240D01*
X7295235Y-459028D01*
X7304633Y-466547D01*
X7315047Y-472541D01*
G37*
G36*
X7876336Y-475945D02*
G01*
X7884922Y-472541D01*
X7895336Y-466547D01*
X7904734Y-459028D01*
X7912912Y-450240D01*
X7919669Y-440283D01*
X7924901Y-429463D01*
X7925866Y-426415D01*
X7876336Y-426415D01*
G37*
G36*
X2845562Y-453948D02*
G01*
X2906674Y-453948D01*
X2906674Y-393039D01*
X2903270Y-394258D01*
X2890723Y-400812D01*
X2879090Y-408940D01*
X2868625Y-418439D01*
X2859430Y-429209D01*
X2851708Y-441096D01*
G37*
G36*
X892810Y-441959D02*
G01*
X962660Y-441959D01*
X962660Y-371856D01*
X948740Y-378866D01*
X935685Y-387451D01*
X923696Y-397510D01*
X912977Y-408889D01*
X903630Y-421385D01*
X895858Y-434949D01*
G37*
G36*
X74168Y-373684D02*
G01*
X123698Y-373684D01*
X123698Y-324154D01*
X115112Y-327558D01*
X104698Y-333552D01*
X95300Y-341071D01*
X87122Y-349859D01*
X80365Y-359816D01*
X75133Y-370636D01*
G37*
G36*
X676402Y-373684D02*
G01*
X725932Y-373684D01*
X724966Y-370636D01*
X719734Y-359816D01*
X712978Y-349859D01*
X704799Y-341071D01*
X695401Y-333552D01*
X684987Y-327558D01*
X676402Y-324154D01*
G37*
G36*
X7274102Y-373684D02*
G01*
X7323632Y-373684D01*
X7323632Y-324154D01*
X7315047Y-327558D01*
X7304633Y-333552D01*
X7295235Y-341071D01*
X7287056Y-349859D01*
X7280300Y-359816D01*
X7275068Y-370636D01*
G37*
G36*
X7876336Y-373684D02*
G01*
X7925866Y-373684D01*
X7924901Y-370636D01*
X7919669Y-359816D01*
X7912912Y-349859D01*
X7904734Y-341071D01*
X7895336Y-333552D01*
X7884922Y-327558D01*
X7876336Y-324154D01*
G37*
G36*
X195884Y-298094D02*
G01*
X195884Y-248615D01*
X146354Y-248615D01*
X149758Y-257149D01*
X155752Y-267563D01*
X163271Y-277012D01*
X172059Y-285191D01*
X182016Y-291947D01*
X192836Y-297180D01*
G37*
G36*
X604215Y-298094D02*
G01*
X607263Y-297180D01*
X618083Y-291947D01*
X628040Y-285191D01*
X636828Y-277012D01*
X644347Y-267563D01*
X650341Y-257149D01*
X653745Y-248615D01*
X604215Y-248615D01*
G37*
G36*
X7804150Y-298094D02*
G01*
X7807198Y-297180D01*
X7818018Y-291947D01*
X7827975Y-285191D01*
X7836763Y-277012D01*
X7844281Y-267563D01*
X7850276Y-257149D01*
X7853680Y-248615D01*
X7804150Y-248615D01*
G37*
G36*
X7395819Y-298094D02*
G01*
X7395819Y-248615D01*
X7346289Y-248615D01*
X7349693Y-257149D01*
X7355687Y-267563D01*
X7363206Y-277012D01*
X7371994Y-285191D01*
X7381951Y-291947D01*
X7392771Y-297180D01*
G37*
G36*
X146354Y-195884D02*
G01*
X195884Y-195884D01*
X195884Y-146405D01*
X192836Y-147320D01*
X182016Y-152552D01*
X172059Y-159308D01*
X163271Y-167487D01*
X155752Y-176936D01*
X149758Y-187350D01*
G37*
G36*
X501954Y-195884D02*
G01*
X551484Y-195884D01*
X551484Y-146405D01*
X548436Y-147320D01*
X537616Y-152552D01*
X527659Y-159308D01*
X518871Y-167487D01*
X511352Y-176936D01*
X505358Y-187350D01*
G37*
G36*
X248615Y-195884D02*
G01*
X298145Y-195884D01*
X294741Y-187350D01*
X288747Y-176936D01*
X281228Y-167487D01*
X272440Y-159308D01*
X262483Y-152552D01*
X251663Y-147320D01*
X248615Y-146405D01*
G37*
G36*
X604215Y-195884D02*
G01*
X653745Y-195884D01*
X650341Y-187350D01*
X644347Y-176936D01*
X636828Y-167487D01*
X628040Y-159308D01*
X618083Y-152552D01*
X607263Y-147320D01*
X604215Y-146405D01*
G37*
G36*
X7804150Y-195884D02*
G01*
X7853680Y-195884D01*
X7850276Y-187350D01*
X7844281Y-176936D01*
X7836763Y-167487D01*
X7827975Y-159308D01*
X7818018Y-152552D01*
X7807198Y-147320D01*
X7804150Y-146405D01*
G37*
G36*
X7701889Y-195884D02*
G01*
X7751419Y-195884D01*
X7751419Y-146405D01*
X7748371Y-147320D01*
X7737551Y-152552D01*
X7727594Y-159308D01*
X7718806Y-167487D01*
X7711287Y-176936D01*
X7705293Y-187350D01*
G37*
G36*
X7448550Y-195884D02*
G01*
X7498080Y-195884D01*
X7494676Y-187350D01*
X7488681Y-176936D01*
X7481163Y-167487D01*
X7472375Y-159308D01*
X7462418Y-152552D01*
X7451598Y-147320D01*
X7448550Y-146405D01*
G37*
G36*
X7346289Y-195884D02*
G01*
X7395819Y-195884D01*
X7395819Y-146405D01*
X7392771Y-147320D01*
X7381951Y-152552D01*
X7371994Y-159308D01*
X7363206Y-167487D01*
X7355687Y-176936D01*
X7349693Y-187350D01*
G37*
G36*
X324154Y-123698D02*
G01*
X373684Y-123698D01*
X373684Y-74168D01*
X370636Y-75133D01*
X359816Y-80365D01*
X349859Y-87122D01*
X341071Y-95300D01*
X333552Y-104698D01*
X327558Y-115112D01*
G37*
G36*
X426415Y-123698D02*
G01*
X475945Y-123698D01*
X472541Y-115112D01*
X466547Y-104698D01*
X459028Y-95300D01*
X450240Y-87122D01*
X440283Y-80365D01*
X429463Y-75133D01*
X426415Y-74168D01*
G37*
G36*
X7626350Y-123698D02*
G01*
X7675880Y-123698D01*
X7672476Y-115112D01*
X7666481Y-104698D01*
X7658963Y-95300D01*
X7650175Y-87122D01*
X7640218Y-80365D01*
X7629398Y-75133D01*
X7626350Y-74168D01*
G37*
G36*
X7524089Y-123698D02*
G01*
X7573619Y-123698D01*
X7573619Y-74168D01*
X7570571Y-75133D01*
X7559751Y-80365D01*
X7549794Y-87122D01*
X7541006Y-95300D01*
X7533487Y-104698D01*
X7527493Y-115112D01*
G37*

%LPD*%
G36*
X6308648Y-3939336D02*
G01*
X6304483Y-3938676D01*
X6300876Y-3936390D01*
X5811570Y-3447084D01*
X5809386Y-3443782D01*
X5808624Y-3439922D01*
X5808624Y-2718003D01*
X5808370Y-2712974D01*
X5807760Y-2708148D01*
X5806694Y-2703423D01*
X5805271Y-2698800D01*
X5803392Y-2694330D01*
X5801156Y-2690063D01*
X5798566Y-2685948D01*
X5795619Y-2682138D01*
X5792216Y-2678379D01*
X5551220Y-2437384D01*
X5547461Y-2433980D01*
X5543651Y-2431034D01*
X5539536Y-2428443D01*
X5535269Y-2426208D01*
X5530799Y-2424328D01*
X5526176Y-2422906D01*
X5521452Y-2421839D01*
X5516626Y-2421229D01*
X5511596Y-2420975D01*
X4446778Y-2420975D01*
X4442917Y-2420213D01*
X4439615Y-2418029D01*
X3167786Y-1146200D01*
X3165449Y-1142492D01*
X3164840Y-1138174D01*
X3166160Y-1133957D01*
X3169107Y-1130706D01*
X3173120Y-1129030D01*
X3177489Y-1129182D01*
X3191510Y-1132738D01*
X3203651Y-1134364D01*
X3252470Y-1140256D01*
X3255721Y-1141171D01*
X3258464Y-1143152D01*
X4478477Y-2363216D01*
X4482236Y-2366619D01*
X4486046Y-2369566D01*
X4490161Y-2372156D01*
X4494428Y-2374392D01*
X4498898Y-2376271D01*
X4503521Y-2377694D01*
X4508246Y-2378760D01*
X4513072Y-2379370D01*
X4518101Y-2379624D01*
X5611622Y-2379624D01*
X5615482Y-2380386D01*
X5618784Y-2382570D01*
X5942279Y-2706116D01*
X5946038Y-2709519D01*
X5949848Y-2712466D01*
X5953963Y-2715056D01*
X5958230Y-2717292D01*
X5962700Y-2719171D01*
X5967323Y-2720594D01*
X5972048Y-2721660D01*
X5976874Y-2722270D01*
X5981903Y-2722524D01*
X6500622Y-2722524D01*
X6504482Y-2723286D01*
X6507784Y-2725470D01*
X6558229Y-2775915D01*
X6560464Y-2779318D01*
X6561175Y-2783332D01*
X6561023Y-2790647D01*
X6560210Y-2794304D01*
X6558127Y-2797454D01*
X6555028Y-2799638D01*
X6551371Y-2800553D01*
X6547612Y-2799994D01*
X6544309Y-2798165D01*
X6531914Y-2787751D01*
X6518859Y-2779166D01*
X6504838Y-2772105D01*
X6490157Y-2766771D01*
X6474968Y-2763164D01*
X6459423Y-2761335D01*
X6443776Y-2761335D01*
X6428232Y-2763164D01*
X6413042Y-2766771D01*
X6398361Y-2772105D01*
X6384340Y-2779166D01*
X6371285Y-2787751D01*
X6359296Y-2797810D01*
X6348577Y-2809189D01*
X6339230Y-2821686D01*
X6331458Y-2835249D01*
X6325260Y-2849626D01*
X6320739Y-2864612D01*
X6318046Y-2880004D01*
X6317132Y-2895600D01*
X6318046Y-2911195D01*
X6320739Y-2926588D01*
X6325260Y-2941574D01*
X6331458Y-2955950D01*
X6339230Y-2969514D01*
X6348577Y-2982061D01*
X6359296Y-2993390D01*
X6371285Y-3003448D01*
X6384340Y-3012033D01*
X6387287Y-3013506D01*
X6390741Y-3016351D01*
X6392621Y-3020364D01*
X6392621Y-3024835D01*
X6390741Y-3028848D01*
X6387287Y-3031693D01*
X6384340Y-3033166D01*
X6371285Y-3041751D01*
X6359296Y-3051810D01*
X6348577Y-3063189D01*
X6339230Y-3075686D01*
X6331458Y-3089249D01*
X6325260Y-3103626D01*
X6320739Y-3118612D01*
X6318046Y-3134004D01*
X6317132Y-3149600D01*
X6318046Y-3165195D01*
X6320739Y-3180588D01*
X6325260Y-3195574D01*
X6331458Y-3209950D01*
X6339230Y-3223514D01*
X6348577Y-3236061D01*
X6359296Y-3247390D01*
X6371285Y-3257448D01*
X6384340Y-3266033D01*
X6387287Y-3267506D01*
X6390741Y-3270351D01*
X6392621Y-3274364D01*
X6392621Y-3278835D01*
X6390741Y-3282848D01*
X6387287Y-3285693D01*
X6384340Y-3287166D01*
X6371285Y-3295751D01*
X6359296Y-3305810D01*
X6348577Y-3317189D01*
X6339230Y-3329686D01*
X6331458Y-3343249D01*
X6328410Y-3350260D01*
X6398260Y-3350260D01*
X6398260Y-3287572D01*
X6399022Y-3283762D01*
X6401104Y-3280511D01*
X6404305Y-3278276D01*
X6408064Y-3277412D01*
X6428232Y-3282035D01*
X6443776Y-3283864D01*
X6459423Y-3283864D01*
X6474968Y-3282035D01*
X6495135Y-3277412D01*
X6498894Y-3278276D01*
X6502095Y-3280511D01*
X6504178Y-3283762D01*
X6504940Y-3287572D01*
X6504940Y-3350260D01*
X6551015Y-3350260D01*
X6554927Y-3351022D01*
X6558229Y-3353257D01*
X6560413Y-3356508D01*
X6561175Y-3360420D01*
X6561175Y-3446779D01*
X6560413Y-3450691D01*
X6558229Y-3453942D01*
X6554927Y-3456178D01*
X6551015Y-3456940D01*
X6504940Y-3456940D01*
X6504940Y-3519627D01*
X6504178Y-3523437D01*
X6502095Y-3526688D01*
X6498894Y-3528923D01*
X6495135Y-3529787D01*
X6474968Y-3525164D01*
X6459423Y-3523335D01*
X6443776Y-3523335D01*
X6428232Y-3525164D01*
X6408064Y-3529787D01*
X6404305Y-3528923D01*
X6401104Y-3526688D01*
X6399022Y-3523437D01*
X6398260Y-3519627D01*
X6398260Y-3456940D01*
X6328410Y-3456940D01*
X6331458Y-3463950D01*
X6339230Y-3477514D01*
X6348577Y-3490061D01*
X6359296Y-3501390D01*
X6371285Y-3511448D01*
X6384340Y-3520033D01*
X6387287Y-3521506D01*
X6390741Y-3524351D01*
X6392621Y-3528364D01*
X6392621Y-3532835D01*
X6390741Y-3536848D01*
X6387287Y-3539693D01*
X6384340Y-3541166D01*
X6371285Y-3549751D01*
X6359296Y-3559810D01*
X6348577Y-3571189D01*
X6339230Y-3583686D01*
X6331458Y-3597249D01*
X6325260Y-3611626D01*
X6320739Y-3626612D01*
X6318046Y-3642004D01*
X6317132Y-3657600D01*
X6318046Y-3673195D01*
X6320739Y-3688587D01*
X6325260Y-3703574D01*
X6331458Y-3717950D01*
X6339230Y-3731514D01*
X6348577Y-3744061D01*
X6359296Y-3755390D01*
X6371285Y-3765448D01*
X6384340Y-3774033D01*
X6387287Y-3775506D01*
X6390741Y-3778351D01*
X6392621Y-3782364D01*
X6392621Y-3786835D01*
X6390741Y-3790848D01*
X6387287Y-3793693D01*
X6384340Y-3795166D01*
X6371285Y-3803751D01*
X6359296Y-3813810D01*
X6348577Y-3825189D01*
X6339230Y-3837686D01*
X6331458Y-3851249D01*
X6325260Y-3865626D01*
X6320739Y-3880612D01*
X6318046Y-3896004D01*
X6317132Y-3911600D01*
X6318097Y-3927449D01*
X6317945Y-3931716D01*
X6316065Y-3935526D01*
X6312763Y-3938219D01*
G37*

%LPD*%
G36*
X7544206Y-1174750D02*
G01*
X7490866Y-1216914D01*
X7490866Y-1246886D01*
X7544206Y-1289050D01*
G37*
G36*
X6997293Y-1174750D02*
G01*
X6997293Y-1289050D01*
X7050633Y-1246886D01*
X7050633Y-1216914D01*
G37*
G36*
X6896506Y-1174750D02*
G01*
X6843166Y-1216914D01*
X6843166Y-1246886D01*
X6896506Y-1289050D01*
G37*
G36*
X6362293Y-1174750D02*
G01*
X6362293Y-1289050D01*
X6415633Y-1246886D01*
X6415633Y-1216914D01*
G37*
G36*
X6296914Y-1128166D02*
G01*
X6254750Y-1181506D01*
X6369050Y-1181506D01*
X6326886Y-1128166D01*
G37*
G36*
X6893814Y-4836566D02*
G01*
X6851650Y-4889906D01*
X6965950Y-4889906D01*
X6923786Y-4836566D01*
G37*
G36*
X425602Y-3619957D02*
G01*
X362712Y-3645052D01*
X457047Y-3739387D01*
X482142Y-3676497D01*
G37*
G36*
X310997Y-3619957D02*
G01*
X254457Y-3676497D01*
X279552Y-3739387D01*
X373888Y-3645052D01*
G37*
G36*
X5659323Y-1454607D02*
G01*
X5652008Y-1540357D01*
X5673242Y-1561592D01*
X5758992Y-1554276D01*
G37*
G36*
X5846876Y-464007D02*
G01*
X5747207Y-563676D01*
X5832957Y-570992D01*
X5854192Y-549757D01*
G37*
G36*
X4601159Y-511048D02*
G01*
X4481322Y-585266D01*
X4562754Y-612190D01*
X4588967Y-595934D01*
G37*
G36*
X3611676Y-489407D02*
G01*
X3512007Y-589076D01*
X3597757Y-596392D01*
X3618992Y-575157D01*
G37*
G36*
X3455720Y-424789D02*
G01*
X3389934Y-480314D01*
X3389934Y-510285D01*
X3455720Y-565810D01*
G37*
G36*
X1563420Y-424789D02*
G01*
X1497634Y-480314D01*
X1497634Y-510285D01*
X1563420Y-565810D01*
G37*
G36*
X2554020Y-424789D02*
G01*
X2488234Y-480314D01*
X2488234Y-510285D01*
X2554020Y-565810D01*
G37*
G36*
X5514949Y-463600D02*
G01*
X5430215Y-576275D01*
X5516067Y-571601D01*
X5534304Y-547370D01*
G37*
G36*
X5329123Y-476707D02*
G01*
X5321808Y-562457D01*
X5343042Y-583692D01*
X5428792Y-576376D01*
G37*
G36*
X5329123Y-1467307D02*
G01*
X5321808Y-1553057D01*
X5343042Y-1574292D01*
X5428792Y-1566976D01*
G37*
G36*
X7676540Y-4151579D02*
G01*
X7732014Y-4217365D01*
X7761986Y-4217365D01*
X7817459Y-4151579D01*
G37*
G36*
X7667142Y-3988308D02*
G01*
X7645908Y-4009542D01*
X7653223Y-4095292D01*
X7752892Y-3995623D01*
G37*
G36*
X6850176Y-4083507D02*
G01*
X6750507Y-4183176D01*
X6836257Y-4190492D01*
X6857492Y-4169257D01*
G37*
G36*
X6834682Y-3989882D02*
G01*
X6750507Y-3995623D01*
X6850176Y-4095292D01*
X6855917Y-4011117D01*
G37*
G36*
X6676542Y-4343908D02*
G01*
X6655308Y-4365142D01*
X6662623Y-4450892D01*
X6762292Y-4351223D01*
G37*
G36*
X7732014Y-4317034D02*
G01*
X7676540Y-4382820D01*
X7817459Y-4382820D01*
X7761986Y-4317034D01*
G37*
G36*
X6978040Y-532079D02*
G01*
X7033514Y-597865D01*
X7063486Y-597865D01*
X7118959Y-532079D01*
G37*
G36*
X1957882Y-3925011D02*
G01*
X1901342Y-3981602D01*
X1926793Y-4035348D01*
X2011629Y-3950512D01*
G37*
G36*
X4916271Y-1014577D02*
G01*
X4908296Y-1080871D01*
X4929530Y-1102106D01*
X4995773Y-1094130D01*
G37*
G36*
X4976114Y-917194D02*
G01*
X4934864Y-969670D01*
X5047335Y-969670D01*
X5006086Y-917194D01*
G37*
G36*
X4929530Y-936498D02*
G01*
X4908296Y-957681D01*
X4916271Y-1023975D01*
X4995773Y-944422D01*
G37*
G36*
X4675530Y-936498D02*
G01*
X4654296Y-957681D01*
X4662271Y-1023975D01*
X4741773Y-944422D01*
G37*
G36*
X3541928Y-1014577D02*
G01*
X3462426Y-1094130D01*
X3528669Y-1102106D01*
X3549904Y-1080871D01*
G37*
G36*
X3287928Y-1014577D02*
G01*
X3208426Y-1094130D01*
X3274669Y-1102106D01*
X3295904Y-1080871D01*
G37*
G36*
X3033826Y-1012901D02*
G01*
X2956102Y-1094232D01*
X3022549Y-1100683D01*
X3043275Y-1078992D01*
G37*
G36*
X2779826Y-1012901D02*
G01*
X2702102Y-1094232D01*
X2768549Y-1100683D01*
X2789275Y-1078992D01*
G37*
G36*
X2004669Y-936498D02*
G01*
X1938426Y-944422D01*
X2017928Y-1023975D01*
X2025904Y-957681D01*
G37*
G36*
X344271Y-1014577D02*
G01*
X318617Y-1063193D01*
X375158Y-1119784D01*
X423773Y-1094130D01*
G37*
G36*
X5341823Y-3651707D02*
G01*
X5316829Y-3719779D01*
X5373420Y-3776370D01*
X5441492Y-3751376D01*
G37*
G36*
X6371742Y-4064508D02*
G01*
X6350508Y-4085742D01*
X6357823Y-4171492D01*
X6457492Y-4071823D01*
G37*
G36*
X3194304Y-442823D02*
G01*
X3194304Y-547776D01*
X3243326Y-510285D01*
X3243326Y-480314D01*
G37*
G36*
X7480909Y-3055670D02*
G01*
X7503414Y-3090672D01*
X7533386Y-3090672D01*
X7555890Y-3055670D01*
G37*
G36*
X7287514Y-3440734D02*
G01*
X7232040Y-3506520D01*
X7372959Y-3506520D01*
X7317486Y-3440734D01*
G37*
G36*
X5402529Y-2604109D02*
G01*
X5367528Y-2626614D01*
X5367528Y-2656586D01*
X5402529Y-2679090D01*
G37*
G36*
X4820970Y-1727809D02*
G01*
X4820970Y-1802790D01*
X4855972Y-1780286D01*
X4855972Y-1750314D01*
G37*
G36*
X4820970Y-1550009D02*
G01*
X4820970Y-1624990D01*
X4855972Y-1602486D01*
X4855972Y-1572514D01*
G37*
G36*
X7056170Y-3861409D02*
G01*
X7056170Y-3936390D01*
X7091172Y-3913886D01*
X7091172Y-3883914D01*
G37*
G36*
X7056170Y-3861409D02*
G01*
X7056170Y-3936390D01*
X7091172Y-3913886D01*
X7091172Y-3883914D01*
G37*
G36*
X7008114Y-3830828D02*
G01*
X6985609Y-3865829D01*
X7060590Y-3865829D01*
X7038086Y-3830828D01*
G37*
G36*
X7518400Y-1702409D02*
G01*
X7473391Y-1724914D01*
X7473391Y-1754886D01*
X7518400Y-1777390D01*
G37*
G36*
X6870700Y-1702409D02*
G01*
X6825691Y-1724914D01*
X6825691Y-1754886D01*
X6870700Y-1777390D01*
G37*
G36*
X7023100Y-1702409D02*
G01*
X7023100Y-1777390D01*
X7068108Y-1754886D01*
X7068108Y-1724914D01*
G37*
G36*
X6388100Y-1702409D02*
G01*
X6388100Y-1777390D01*
X6433108Y-1754886D01*
X6433108Y-1724914D01*
G37*
G36*
X6240983Y-1647799D02*
G01*
X6219799Y-1668983D01*
X6235700Y-1716735D01*
X6288735Y-1663700D01*
G37*
G36*
X6020714Y-4543602D02*
G01*
X6020714Y-4743602D01*
X6129528Y-4743602D01*
X6129528Y-4543602D01*
G37*
G36*
X5520690Y-4543602D02*
G01*
X5520690Y-4743602D01*
X5820714Y-4743602D01*
X5820714Y-4543602D01*
G37*
G36*
X4110685Y-4543602D02*
G01*
X4110685Y-4743602D01*
X4230674Y-4683607D01*
X4230674Y-4603597D01*
G37*
G36*
X1363980Y-457809D02*
G01*
X1363980Y-532790D01*
X1408988Y-510285D01*
X1408988Y-480314D01*
G37*
G36*
X7462520Y-3609644D02*
G01*
X7446619Y-3657396D01*
X7467803Y-3678580D01*
X7515555Y-3662679D01*
G37*
G36*
X1708099Y-4318355D02*
G01*
X1708099Y-4538370D01*
X1915160Y-4876038D01*
X1951228Y-4629454D01*
G37*
G36*
X1409700Y-5564225D02*
G01*
X1320292Y-5604205D01*
X1320292Y-5724194D01*
X1409700Y-5764174D01*
G37*
G36*
X3073400Y-5564225D02*
G01*
X3073400Y-5764174D01*
X3099308Y-5724194D01*
X3099308Y-5604205D01*
G37*
D10*
X1130300Y-5664200D02*
G01*
X1409700Y-5664200D01*
X1993900Y-5080000D01*
X1993900Y-4813300D01*
X1608073Y-4428236D01*
D11*
X7048500Y-469900D02*
G01*
X7048500Y-850900D01*
X7200900Y-1003300D01*
X7696200Y-1003300D01*
X7810500Y-1117600D01*
X7810500Y-2565400D01*
X7670800Y-2705100D01*
X7480300Y-2705100D01*
X7391400Y-2794000D01*
X7391400Y-3022600D01*
X6756400Y-4089400D02*
G01*
X7023100Y-4356100D01*
X7023100Y-4597400D01*
X6908800Y-4711700D01*
X6908800Y-4940300D01*
D10*
X5920689Y-4643605D02*
G01*
X6129505Y-4643605D01*
X6286500Y-4800600D01*
X6286500Y-5029200D01*
X6438900Y-5181600D01*
X7162800Y-5181600D01*
X7162800Y-5524500D02*
G01*
X7162800Y-4940300D01*
D11*
X6946900Y-1231900D02*
G01*
X7594600Y-1231900D01*
X6311900Y-1231900D02*
G01*
X6946900Y-1231900D01*
X6311900Y-1739900D02*
G01*
X6946900Y-1739900D01*
X6311900Y-1739900D02*
G01*
X6032500Y-1460500D01*
X6032500Y-1066800D01*
X5448300Y-482600D01*
X5422900Y-482600D01*
X5753100Y-469900D02*
G01*
X6311900Y-1028700D01*
X6311900Y-1231900D01*
X6946900Y-1739900D02*
G01*
X7594600Y-1739900D01*
X7518400Y-3022600D02*
G01*
X7518400Y-3136900D01*
X7302500Y-3352800D01*
X7302500Y-3568700D01*
X7023100Y-3898900D02*
G01*
X7226300Y-3898900D01*
X7556500Y-3568700D01*
X7747000Y-4445000D02*
G01*
X7747000Y-4089400D01*
X7023100Y-3898900D02*
G01*
X7556500Y-3898900D01*
X7747000Y-4089400D01*
X7023100Y-3898900D02*
G01*
X7023100Y-2794000D01*
X6565900Y-2336800D01*
X6134100Y-2336800D01*
X5829300Y-2032000D01*
X4724400Y-2032000D01*
X4495800Y-1803400D01*
X4495800Y-1514599D01*
X4991100Y-1019299D01*
X3467100Y-1019299D02*
G01*
X4619500Y-2171700D01*
X5765800Y-2171700D01*
X6096000Y-2501900D01*
X6540500Y-2501900D01*
X6845300Y-2806700D01*
X6845300Y-4000500D01*
X6756400Y-4089400D01*
X3213100Y-1019299D02*
G01*
X4517900Y-2324100D01*
X5638800Y-2324100D01*
X5981700Y-2667000D01*
X6527800Y-2667000D01*
X6616700Y-2755900D01*
X6616700Y-4305300D01*
X6756400Y-4445000D01*
D10*
X3889502Y-4216400D02*
G01*
X3835400Y-4216400D01*
X3454400Y-4597400D01*
X3289300Y-5664200D02*
G01*
X3073400Y-5664200D01*
X2501900Y-5092700D01*
X2501900Y-4546600D01*
X2832100Y-4216400D01*
X3889502Y-4216400D01*
D11*
X2959100Y-1019302D02*
G01*
X2962402Y-1019302D01*
X4419600Y-2476500D01*
X5511800Y-2476500D01*
X5753100Y-2717800D01*
X5753100Y-3467100D01*
X6451600Y-4165600D01*
X4787900Y-1765300D02*
G01*
X5448300Y-1765300D01*
X5753100Y-1460500D01*
X4787900Y-1587500D02*
G01*
X5308600Y-1587500D01*
X5422900Y-1473200D01*
X2705100Y-1019302D02*
G01*
X2708402Y-1019302D01*
X4330700Y-2641600D01*
X5435600Y-2641600D01*
D12*
X4010710Y-4643605D02*
G01*
X4449594Y-4643605D01*
X5435600Y-3657600D01*
D10*
X3454400Y-4597400D02*
G01*
X3454400Y-4940300D01*
X3771900Y-5257800D01*
X4546600Y-5257800D01*
X5160789Y-4643605D01*
X5920691Y-4643605D01*
D12*
X368300Y-3733800D02*
G01*
X558800Y-3543300D01*
X1519605Y-3543300D01*
X2006650Y-4030345D01*
X368300Y-3733800D02*
G01*
X254000Y-3619500D01*
X254000Y-1184402D01*
X419100Y-1019302D01*
D11*
X4991100Y-1019302D02*
G01*
X5032502Y-977900D01*
X5422900Y-482600D02*
G01*
X5130800Y-774700D01*
X5067300Y-711200D01*
X5067300Y-711200D02*
G01*
X4997704Y-641604D01*
X5118100Y-521207D01*
X5118100Y-495807D01*
X4991100Y-749807D02*
G01*
X4991100Y-1019299D01*
X5118100Y-432307D02*
G01*
X5067300Y-381507D01*
X5016500Y-381507D01*
X4953000Y-445007D01*
X4889500Y-381507D01*
X4838700Y-381507D01*
X4787900Y-432307D01*
X4787900Y-546607D01*
X4991100Y-749807D01*
X5118100Y-508000D02*
G01*
X5118100Y-432815D01*
X4737100Y-1019302D02*
G01*
X4467097Y-749300D01*
X3771900Y-749300D01*
X3517900Y-495300D01*
X3147999Y-495300D02*
G01*
X3517900Y-495300D01*
X4991100Y-1019299D02*
G01*
X4508500Y-536699D01*
X4508500Y-495300D01*
X2616200Y-495300D02*
G01*
X2349500Y-495300D01*
X2349500Y-612899D01*
X1943100Y-1019299D01*
X1625600Y-495300D02*
G01*
X1270000Y-495300D01*
D13*
G01*
X7594600Y-1231900D03*
G01*
X7594600Y-1485900D03*
D14*
G01*
X7594600Y-1739900D03*
D13*
G01*
X6946900Y-1231900D03*
G01*
X6946900Y-1485900D03*
D14*
G01*
X6946900Y-1739900D03*
D13*
G01*
X6311900Y-1231900D03*
G01*
X6311900Y-1485900D03*
D14*
G01*
X6311900Y-1739900D03*
D13*
G01*
X6654800Y-4940300D03*
G01*
X6908800Y-4940300D03*
D14*
G01*
X7162800Y-4940300D03*
D13*
G01*
X7416800Y-4940300D03*
G01*
X6654800Y-5524500D03*
G01*
X6908800Y-5524500D03*
D14*
G01*
X7162800Y-5524500D03*
D13*
G01*
X7416800Y-5524500D03*
G01*
X7010400Y-2463800D03*
G01*
X7264400Y-2463800D03*
D14*
G01*
X7518400Y-2463800D03*
D15*
G01*
X1348104Y-4880889D03*
D16*
G01*
X978103Y-4425899D03*
G01*
X1608073Y-4428362D03*
D12*
G01*
X7599984Y-150063D03*
G01*
X7599984Y-650062D03*
G01*
X7349997Y-400050D03*
G01*
X7849997Y-400050D03*
G01*
X7777784Y-222250D03*
G01*
X7422184Y-222250D03*
G01*
X7777784Y-577850D03*
G01*
X7422184Y-577850D03*
G01*
X400050Y-5850001D03*
G01*
X400050Y-6350000D03*
G01*
X150063Y-6099987D03*
G01*
X650062Y-6099987D03*
G01*
X577850Y-5922187D03*
G01*
X222250Y-5922187D03*
G01*
X577850Y-6277787D03*
G01*
X222250Y-6277787D03*
G01*
X7599984Y-5850001D03*
G01*
X7599984Y-6350000D03*
G01*
X7349997Y-6099987D03*
G01*
X7849997Y-6099987D03*
G01*
X7777784Y-5922187D03*
G01*
X7422184Y-5922187D03*
G01*
X7777784Y-6277787D03*
G01*
X7422184Y-6277787D03*
G01*
X400050Y-150063D03*
G01*
X400050Y-650062D03*
G01*
X150063Y-400050D03*
G01*
X650062Y-400050D03*
G01*
X577850Y-222250D03*
G01*
X222250Y-222250D03*
G01*
X577850Y-577850D03*
G01*
X222250Y-577850D03*
D17*
G01*
X1130300Y-5664200D03*
G01*
X3289300Y-5664200D03*
D19*
G01*
X5920689Y-4643605D03*
G01*
X5920689Y-4897605D03*
D10*
G01*
X5920689Y-5770399D03*
G01*
X5920689Y-6024399D03*
G01*
X4010710Y-6024399D03*
G01*
X4010710Y-5770399D03*
D19*
G01*
X4010710Y-4897605D03*
G01*
X4010710Y-4643605D03*
D20*
G01*
X4445000Y-4216400D03*
G01*
X3889400Y-4216400D03*
G01*
X368300Y-3733800D03*
G01*
X923899Y-3733800D03*
D21*
G01*
X5753100Y-1460500D03*
G01*
X5753100Y-469900D03*
G01*
X4508500Y-495300D03*
G01*
X3517900Y-495300D03*
G01*
X1625600Y-495300D03*
G01*
X2616200Y-495300D03*
G01*
X5422900Y-482600D03*
G01*
X5422900Y-1473200D03*
G01*
X7747000Y-4089400D03*
G01*
X6756400Y-4089400D03*
G01*
X6756400Y-4445000D03*
G01*
X7747000Y-4445000D03*
G01*
X6057900Y-469900D03*
G01*
X7048500Y-469900D03*
D22*
G01*
X3454400Y-4597400D03*
G01*
X2946400Y-4597400D03*
G01*
X2006638Y-4030332D03*
G01*
X2514561Y-4021467D03*
D23*
G01*
X4991100Y-1019302D03*
G01*
X4737100Y-1019302D03*
G01*
X4483100Y-1019302D03*
G01*
X4229100Y-1019302D03*
G01*
X3975100Y-1019302D03*
G01*
X3721100Y-1019302D03*
G01*
X3467100Y-1019302D03*
G01*
X3213100Y-1019302D03*
G01*
X2959100Y-1019302D03*
G01*
X2705100Y-1019302D03*
G01*
X2451100Y-1019302D03*
G01*
X2197100Y-1019302D03*
G01*
X1943100Y-1019302D03*
G01*
X1689100Y-1019302D03*
G01*
X1435100Y-1019302D03*
G01*
X1181100Y-1019302D03*
G01*
X927100Y-1019302D03*
G01*
X673100Y-1019302D03*
G01*
X419100Y-1019302D03*
G01*
X4991100Y-3289300D03*
G01*
X4737100Y-3289300D03*
G01*
X4483100Y-3289300D03*
G01*
X4229100Y-3289300D03*
G01*
X3975100Y-3289300D03*
G01*
X3721100Y-3289300D03*
G01*
X3467100Y-3289300D03*
G01*
X3213100Y-3289300D03*
G01*
X2959100Y-3289300D03*
G01*
X2705100Y-3289300D03*
G01*
X2451100Y-3289300D03*
G01*
X2197100Y-3289300D03*
G01*
X1943100Y-3289300D03*
G01*
X1689100Y-3289300D03*
G01*
X1435100Y-3289300D03*
G01*
X1181100Y-3289300D03*
G01*
X927100Y-3289300D03*
G01*
X673100Y-3289300D03*
G01*
X419100Y-3289300D03*
D21*
G01*
X5435600Y-4165600D03*
G01*
X5435600Y-3911600D03*
G01*
X5435600Y-3657600D03*
G01*
X5435600Y-3403600D03*
G01*
X5435600Y-3149600D03*
G01*
X5435600Y-2895600D03*
G01*
X6451600Y-2895600D03*
G01*
X6451600Y-3149600D03*
G01*
X6451600Y-3403600D03*
G01*
X6451600Y-3657600D03*
G01*
X6451600Y-3911600D03*
G01*
X6451600Y-4165600D03*
D24*
G01*
X3147999Y-495300D03*
G01*
X2948000Y-495300D03*
D21*
G01*
X1016000Y-495300D03*
D25*
G01*
X1270000Y-495300D03*
D26*
G01*
X7264400Y-3022600D03*
D27*
G01*
X7391400Y-3022600D03*
G01*
X7518400Y-3022600D03*
D21*
G01*
X7302500Y-3568700D03*
D25*
G01*
X7556500Y-3568700D03*
D27*
G01*
X5435600Y-2641600D03*
G01*
X4787900Y-1765300D03*
G01*
X4787900Y-1587500D03*
G01*
X7023100Y-3898900D03*
M02*
