G04 Layer: TopSilkscreenLayer*
G04 EasyEDA v6.5.57, 2026-08-21 18:24:28*
G04 95df02b17ae24060b49c9fd1e424970a,73b71592eb5d450092b712373c5d4a3f,10*
G04 Gerber Generator version 0.2*
G04 Scale: 100 percent, Rotated: No, Reflected: No *
G04 Dimensions in millimeters *
G04 leading zeros omitted , absolute positions ,4 integer and 5 decimal *
%FSLAX45Y45*%
%MOMM*%

%ADD10C,0.2032*%
%ADD11C,0.1524*%
%ADD12C,0.2540*%
%ADD13C,0.2032*%
%ADD14C,0.1270*%
%ADD15C,0.0159*%

%LPD*%
G36*
X10339527Y-1867103D02*
G01*
X10339527Y-1915515D01*
X10380624Y-1915515D01*
X10380624Y-1867103D01*
G37*
G36*
X9427057Y-1883257D02*
G01*
X9427057Y-2101799D01*
X9468154Y-2101799D01*
X9468154Y-2040940D01*
X9482074Y-2028952D01*
X9524644Y-2101799D01*
X9569399Y-2101799D01*
X9569399Y-2100630D01*
X9507169Y-2002942D01*
X9567164Y-1944878D01*
X9516922Y-1944878D01*
X9468866Y-1996795D01*
X9468104Y-1883257D01*
G37*
G36*
X8901887Y-1890268D02*
G01*
X8901887Y-1925472D01*
X8942984Y-1925472D01*
X8976004Y-1926589D01*
X8987637Y-1932381D01*
X8993581Y-1942642D01*
X8993581Y-1966112D01*
X8987586Y-1976272D01*
X8977426Y-1982266D01*
X8942984Y-1983333D01*
X8942984Y-1925472D01*
X8901887Y-1925472D01*
X8901887Y-2101900D01*
X8942222Y-2101088D01*
X8943035Y-2018182D01*
X8959189Y-2018182D01*
X8968841Y-2022246D01*
X8977731Y-2033016D01*
X9010954Y-2101799D01*
X9054490Y-2101799D01*
X9054490Y-2098852D01*
X9012021Y-2014016D01*
X9002826Y-2003552D01*
X8998712Y-2003552D01*
X8998712Y-2000605D01*
X9005468Y-2000605D01*
X9020708Y-1992985D01*
X9031122Y-1980844D01*
X9037218Y-1960676D01*
X9035745Y-1933854D01*
X9030614Y-1919173D01*
X9022334Y-1907082D01*
X9008008Y-1897938D01*
X8984792Y-1891639D01*
G37*
G36*
X9909708Y-1891995D02*
G01*
X9859365Y-1892757D01*
X9835642Y-1981504D01*
X9834118Y-1981555D01*
X9813798Y-1905965D01*
X9809734Y-1892046D01*
X9760102Y-1892046D01*
X9760102Y-2101799D01*
X9796780Y-2101799D01*
X9796983Y-1938274D01*
X9818776Y-2025650D01*
X9851745Y-2024786D01*
X9872319Y-1939188D01*
X9873081Y-2101799D01*
X9909708Y-2101799D01*
G37*
G36*
X10496499Y-1899361D02*
G01*
X10496499Y-1943404D01*
X10456926Y-1943404D01*
X10456926Y-1975662D01*
X10496296Y-1975662D01*
X10497362Y-2068830D01*
X10504017Y-2085593D01*
X10515650Y-2095550D01*
X10532465Y-2100732D01*
X10591952Y-2102154D01*
X10591139Y-2070303D01*
X10546435Y-2068830D01*
X10538307Y-2060702D01*
X10537444Y-1975662D01*
X10591952Y-1975662D01*
X10591139Y-1944116D01*
X10537596Y-1943303D01*
X10537596Y-1899361D01*
G37*
G36*
X8169148Y-1927250D02*
G01*
X8152993Y-1927758D01*
X8141258Y-1928774D01*
X8113775Y-1933244D01*
X8085531Y-1942287D01*
X8057845Y-1955190D01*
X8028279Y-1974850D01*
X7998815Y-2004263D01*
X7980172Y-2030272D01*
X7964525Y-2061057D01*
X7954518Y-2092299D01*
X7949234Y-2121611D01*
X7949234Y-2164181D01*
X7952994Y-2186178D01*
X7960156Y-2213000D01*
X7967725Y-2231593D01*
X7976616Y-2249271D01*
X7982356Y-2257399D01*
X7993735Y-2263190D01*
X8004809Y-2263140D01*
X8016849Y-2257653D01*
X8023707Y-2248052D01*
X8025028Y-2232253D01*
X8011617Y-2203754D01*
X8004454Y-2181758D01*
X8000492Y-2159762D01*
X8000847Y-2120138D01*
X8009737Y-2085746D01*
X8023555Y-2057552D01*
X8040268Y-2035098D01*
X8063026Y-2013559D01*
X8088122Y-1997252D01*
X8110677Y-1987702D01*
X8132470Y-1981555D01*
X8172043Y-1978304D01*
X8178088Y-1977237D01*
X8188045Y-1970532D01*
X8193684Y-1960880D01*
X8193684Y-1946808D01*
X8189061Y-1937867D01*
X8180070Y-1930298D01*
G37*
G36*
X9339173Y-1940458D02*
G01*
X9319260Y-1940712D01*
X9300210Y-1944827D01*
X9282379Y-1953615D01*
X9265564Y-1971192D01*
X9257284Y-1989582D01*
X9253220Y-2005736D01*
X9253423Y-2042414D01*
X9258604Y-2061464D01*
X9267545Y-2078228D01*
X9284208Y-2094128D01*
X9298736Y-2101342D01*
X9313367Y-2105507D01*
X9348571Y-2105507D01*
X9369145Y-2098954D01*
X9378645Y-2093061D01*
X9378645Y-2057806D01*
X9376918Y-2057806D01*
X9360306Y-2067966D01*
X9342831Y-2072487D01*
X9329318Y-2072487D01*
X9314738Y-2068169D01*
X9302800Y-2057958D01*
X9295942Y-2042414D01*
X9294723Y-2011222D01*
X9299498Y-1994916D01*
X9308998Y-1982419D01*
X9322765Y-1975357D01*
X9341307Y-1973834D01*
X9360306Y-1978660D01*
X9376918Y-1988870D01*
X9378746Y-1988870D01*
X9377934Y-1952904D01*
X9361779Y-1945132D01*
G37*
G36*
X10206990Y-1940458D02*
G01*
X10192105Y-1940560D01*
X10177373Y-1945639D01*
X10167924Y-1952396D01*
X10159847Y-1966112D01*
X10158984Y-1944878D01*
X10118039Y-1944878D01*
X10118039Y-2101799D01*
X10158882Y-2101799D01*
X10159847Y-1996948D01*
X10167721Y-1980133D01*
X10177424Y-1974037D01*
X10192816Y-1975154D01*
X10199116Y-1980793D01*
X10203840Y-1991055D01*
X10204805Y-2101799D01*
X10246004Y-2101799D01*
X10244480Y-1982266D01*
X10240213Y-1967585D01*
X10234117Y-1955647D01*
X10222382Y-1945030D01*
G37*
G36*
X10907979Y-1940458D02*
G01*
X10892129Y-1944928D01*
X10883087Y-1950516D01*
X10873994Y-1960270D01*
X10869117Y-1967534D01*
X10869117Y-1944878D01*
X10828070Y-1944878D01*
X10828070Y-2101799D01*
X10868964Y-2101799D01*
X10869879Y-2004263D01*
X10875975Y-1991055D01*
X10888014Y-1980234D01*
X10903407Y-1975662D01*
X10922863Y-1975662D01*
X10937646Y-1980031D01*
X10948365Y-1987296D01*
X10948365Y-1948027D01*
X10931499Y-1941626D01*
G37*
G36*
X10014610Y-1940509D02*
G01*
X9999929Y-1940712D01*
X9981946Y-1944624D01*
X9965436Y-1952650D01*
X9949637Y-1969262D01*
X9940493Y-1987397D01*
X9935768Y-2007209D01*
X9935817Y-2023262D01*
X9975697Y-2023262D01*
X9978644Y-2000402D01*
X9984689Y-1986686D01*
X9991140Y-1979675D01*
X10002875Y-1974240D01*
X10013137Y-1974240D01*
X10024872Y-1979675D01*
X10031323Y-1986686D01*
X10037368Y-2000402D01*
X10040315Y-2023262D01*
X10037419Y-2046274D01*
X10031323Y-2060041D01*
X10023398Y-2068423D01*
X10013950Y-2072487D01*
X10002062Y-2072487D01*
X9992614Y-2068423D01*
X9984689Y-2060041D01*
X9978593Y-2046274D01*
X9975697Y-2023262D01*
X9935817Y-2023262D01*
X9935819Y-2040940D01*
X9941966Y-2064004D01*
X9950754Y-2079396D01*
X9964928Y-2093772D01*
X9979660Y-2101748D01*
X9998456Y-2106168D01*
X10016083Y-2106168D01*
X10035946Y-2101951D01*
X10050424Y-2094077D01*
X10065410Y-2079091D01*
X10074046Y-2064004D01*
X10080142Y-2040940D01*
X10080244Y-2007209D01*
X10075519Y-1987397D01*
X10066426Y-1969312D01*
X10051948Y-1954022D01*
X10034473Y-1944725D01*
G37*
G36*
X10707014Y-1940509D02*
G01*
X10692333Y-1940712D01*
X10674350Y-1944624D01*
X10657890Y-1952650D01*
X10642092Y-1969262D01*
X10632897Y-1987397D01*
X10628172Y-2007209D01*
X10628221Y-2023262D01*
X10668152Y-2023262D01*
X10671048Y-2000402D01*
X10677093Y-1986686D01*
X10683544Y-1979675D01*
X10695279Y-1974240D01*
X10705541Y-1974240D01*
X10717276Y-1979675D01*
X10723778Y-1986686D01*
X10729823Y-2000402D01*
X10732719Y-2023262D01*
X10729823Y-2046274D01*
X10723727Y-2060041D01*
X10715853Y-2068423D01*
X10706404Y-2072487D01*
X10694466Y-2072487D01*
X10685018Y-2068423D01*
X10677093Y-2060041D01*
X10671048Y-2046274D01*
X10668152Y-2023262D01*
X10628221Y-2023262D01*
X10628274Y-2040940D01*
X10634370Y-2064004D01*
X10643209Y-2079396D01*
X10657332Y-2093772D01*
X10672064Y-2101748D01*
X10690910Y-2106168D01*
X10708487Y-2106168D01*
X10728401Y-2101951D01*
X10742828Y-2094077D01*
X10757814Y-2079091D01*
X10766501Y-2064004D01*
X10772546Y-2040940D01*
X10772648Y-2007209D01*
X10767974Y-1987397D01*
X10758830Y-1969312D01*
X10744352Y-1954022D01*
X10726877Y-1944725D01*
G37*
G36*
X9131503Y-1940712D02*
G01*
X9103918Y-1945030D01*
X9085275Y-1951126D01*
X9085275Y-1986229D01*
X9109456Y-1975916D01*
X9132112Y-1971243D01*
X9148521Y-1971243D01*
X9161576Y-1974545D01*
X9170365Y-1984552D01*
X9170365Y-1998776D01*
X9115348Y-2000300D01*
X9100667Y-2004568D01*
X9085580Y-2012238D01*
X9075166Y-2024430D01*
X9070492Y-2037994D01*
X9068714Y-2056180D01*
X9069679Y-2061057D01*
X9113164Y-2061057D01*
X9113164Y-2046782D01*
X9118600Y-2036521D01*
X9127540Y-2031288D01*
X9140291Y-2028799D01*
X9170771Y-2028494D01*
X9169146Y-2050084D01*
X9162643Y-2065172D01*
X9152432Y-2074164D01*
X9144660Y-2077161D01*
X9127896Y-2077161D01*
X9117838Y-2070963D01*
X9113164Y-2061057D01*
X9069679Y-2061057D01*
X9072372Y-2074621D01*
X9077960Y-2085593D01*
X9088323Y-2095957D01*
X9102242Y-2103018D01*
X9120632Y-2106625D01*
X9141307Y-2104898D01*
X9159341Y-2096363D01*
X9170365Y-2085543D01*
X9170365Y-2101799D01*
X9211665Y-2101799D01*
X9210548Y-1986686D01*
X9203994Y-1966975D01*
X9194444Y-1954479D01*
X9181338Y-1946402D01*
X9163761Y-1941830D01*
G37*
G36*
X10300462Y-1943354D02*
G01*
X10298480Y-1945335D01*
X10298480Y-1975662D01*
X10339527Y-1975662D01*
X10339527Y-2069541D01*
X10288219Y-2069541D01*
X10288219Y-2101799D01*
X10432084Y-2101799D01*
X10431221Y-2070303D01*
X10380675Y-2069490D01*
X10379913Y-1944116D01*
G37*
G36*
X8172703Y-2095957D02*
G01*
X8154466Y-2096109D01*
X8138414Y-2102256D01*
X8123377Y-2117293D01*
X8117078Y-2134209D01*
X8117078Y-2151583D01*
X8123174Y-2167890D01*
X8136839Y-2181910D01*
X8151520Y-2189124D01*
X8176463Y-2189124D01*
X8191042Y-2181910D01*
X8203031Y-2169972D01*
X8210194Y-2155393D01*
X8210194Y-2130450D01*
X8203031Y-2115769D01*
X8188959Y-2102053D01*
G37*
G36*
X8480450Y-2117953D02*
G01*
X8463991Y-2118055D01*
X8458149Y-2121306D01*
X8451240Y-2127504D01*
X8446871Y-2135886D01*
X8444331Y-2180640D01*
X8436965Y-2217064D01*
X8424926Y-2252167D01*
X8408822Y-2284476D01*
X8387232Y-2316734D01*
X8365693Y-2340711D01*
X8342782Y-2361590D01*
X8321649Y-2377236D01*
X8301888Y-2389327D01*
X8275472Y-2402586D01*
X8253577Y-2411323D01*
X8220456Y-2420112D01*
X8191144Y-2424531D01*
X8142630Y-2424582D01*
X8117789Y-2421534D01*
X8094319Y-2416911D01*
X8066430Y-2408072D01*
X8042960Y-2398471D01*
X8033664Y-2396490D01*
X8021675Y-2399741D01*
X8011871Y-2409545D01*
X8008416Y-2423210D01*
X8011464Y-2434437D01*
X8017865Y-2442616D01*
X8041487Y-2453690D01*
X8077352Y-2465628D01*
X8120735Y-2474671D01*
X8181289Y-2476296D01*
X8214614Y-2472842D01*
X8243976Y-2466949D01*
X8270341Y-2459380D01*
X8296757Y-2449220D01*
X8328456Y-2433320D01*
X8352231Y-2418537D01*
X8379104Y-2398369D01*
X8407704Y-2371242D01*
X8431326Y-2343150D01*
X8454593Y-2308098D01*
X8471763Y-2272741D01*
X8482482Y-2243785D01*
X8492337Y-2205228D01*
X8497011Y-2169058D01*
X8497011Y-2134514D01*
X8490356Y-2124608D01*
G37*
G36*
X8947353Y-2271979D02*
G01*
X8947353Y-2315210D01*
X8942578Y-2308352D01*
X8930487Y-2302865D01*
X8919413Y-2302814D01*
X8908491Y-2307336D01*
X8900160Y-2315260D01*
X8894673Y-2325928D01*
X8891422Y-2346096D01*
X8893284Y-2362200D01*
X8907068Y-2362200D01*
X8907068Y-2332888D01*
X8913520Y-2319680D01*
X8921699Y-2314600D01*
X8931402Y-2314549D01*
X8939987Y-2319020D01*
X8946540Y-2331415D01*
X8946642Y-2362200D01*
X8940292Y-2375966D01*
X8931402Y-2380538D01*
X8922156Y-2380538D01*
X8913571Y-2375509D01*
X8907068Y-2362200D01*
X8893284Y-2362200D01*
X8893454Y-2363673D01*
X8898940Y-2378506D01*
X8908491Y-2387752D01*
X8919413Y-2392273D01*
X8929878Y-2392273D01*
X8940749Y-2387854D01*
X8947353Y-2379827D01*
X8947353Y-2389378D01*
X8960561Y-2389378D01*
X8960561Y-2271979D01*
G37*
G36*
X9211411Y-2271979D02*
G01*
X9211411Y-2289606D01*
X9224619Y-2289606D01*
X9224619Y-2271979D01*
G37*
G36*
X9617811Y-2271979D02*
G01*
X9617811Y-2315210D01*
X9612985Y-2308352D01*
X9600895Y-2302865D01*
X9589160Y-2302865D01*
X9577222Y-2308301D01*
X9568230Y-2319223D01*
X9563740Y-2333498D01*
X9578187Y-2333498D01*
X9582708Y-2322728D01*
X9587738Y-2317140D01*
X9593580Y-2314702D01*
X9602673Y-2314549D01*
X9612630Y-2321204D01*
X9617659Y-2335784D01*
X9617659Y-2359304D01*
X9612630Y-2373884D01*
X9602368Y-2380792D01*
X9589820Y-2379421D01*
X9583623Y-2373934D01*
X9578238Y-2362200D01*
X9578187Y-2333498D01*
X9563740Y-2333498D01*
X9563201Y-2335225D01*
X9564370Y-2366619D01*
X9572040Y-2381300D01*
X9578949Y-2387752D01*
X9589820Y-2392273D01*
X9600895Y-2392222D01*
X9612985Y-2386736D01*
X9617811Y-2379878D01*
X9617811Y-2389378D01*
X9632442Y-2389378D01*
X9632442Y-2271979D01*
G37*
G36*
X9760102Y-2271979D02*
G01*
X9760102Y-2334361D01*
X9774021Y-2334361D01*
X9779508Y-2320137D01*
X9788702Y-2314549D01*
X9798354Y-2314549D01*
X9806736Y-2318867D01*
X9813544Y-2332888D01*
X9813645Y-2362200D01*
X9806736Y-2376220D01*
X9798354Y-2380538D01*
X9789261Y-2380538D01*
X9780371Y-2375966D01*
X9774123Y-2362200D01*
X9774021Y-2334361D01*
X9760102Y-2334361D01*
X9760102Y-2389378D01*
X9773310Y-2389378D01*
X9773310Y-2380132D01*
X9780625Y-2388057D01*
X9790785Y-2392273D01*
X9800742Y-2392273D01*
X9810699Y-2388971D01*
X9820503Y-2379827D01*
X9826142Y-2368854D01*
X9829495Y-2347112D01*
X9825990Y-2325725D01*
X9818370Y-2311704D01*
X9807498Y-2304186D01*
X9792766Y-2302459D01*
X9782098Y-2305964D01*
X9773310Y-2314752D01*
X9773310Y-2271979D01*
G37*
G36*
X10361574Y-2271979D02*
G01*
X10361574Y-2289606D01*
X10374731Y-2289606D01*
X10374731Y-2271979D01*
G37*
G36*
X10524388Y-2271979D02*
G01*
X10524388Y-2282291D01*
X10546283Y-2282291D01*
X10547146Y-2371039D01*
X10553141Y-2382774D01*
X10566095Y-2389378D01*
X10590377Y-2389378D01*
X10590377Y-2377643D01*
X10570616Y-2377592D01*
X10563250Y-2373884D01*
X10559745Y-2363673D01*
X10559592Y-2271979D01*
G37*
G36*
X10043210Y-2276043D02*
G01*
X10043210Y-2289606D01*
X10077805Y-2289606D01*
X10090912Y-2296210D01*
X10097516Y-2308250D01*
X10099954Y-2332888D01*
X10097566Y-2357374D01*
X10090912Y-2369566D01*
X10077805Y-2376170D01*
X10057892Y-2376170D01*
X10057892Y-2289606D01*
X10043210Y-2289606D01*
X10043210Y-2389682D01*
X10082072Y-2388412D01*
X10097617Y-2381605D01*
X10109301Y-2368346D01*
X10115448Y-2348077D01*
X10114026Y-2310892D01*
X10108996Y-2297074D01*
X10097617Y-2284120D01*
X10082072Y-2277313D01*
G37*
G36*
X9115348Y-2301443D02*
G01*
X9106357Y-2303780D01*
X9097264Y-2309164D01*
X9091117Y-2320086D01*
X9091117Y-2332228D01*
X9095181Y-2341981D01*
X9105087Y-2348026D01*
X9129877Y-2354173D01*
X9136583Y-2358593D01*
X9138412Y-2365959D01*
X9134652Y-2375052D01*
X9124950Y-2379065D01*
X9110929Y-2379014D01*
X9096298Y-2373680D01*
X9091117Y-2371445D01*
X9091117Y-2386177D01*
X9111538Y-2390800D01*
X9125813Y-2390800D01*
X9140748Y-2386380D01*
X9149791Y-2376119D01*
X9151315Y-2369566D01*
X9151772Y-2363673D01*
X9151264Y-2353818D01*
X9140240Y-2342794D01*
X9116822Y-2337663D01*
X9107271Y-2333752D01*
X9104528Y-2326538D01*
X9106712Y-2318207D01*
X9116822Y-2313076D01*
X9130030Y-2313178D01*
X9146133Y-2318867D01*
X9148368Y-2318918D01*
X9148368Y-2307031D01*
X9137954Y-2302713D01*
G37*
G36*
X9408718Y-2302713D02*
G01*
X9396780Y-2308301D01*
X9390430Y-2316378D01*
X9390430Y-2304135D01*
X9376460Y-2304999D01*
X9375698Y-2389378D01*
X9390430Y-2389378D01*
X9390430Y-2334666D01*
X9393834Y-2323185D01*
X9402216Y-2316124D01*
X9412274Y-2314244D01*
X9423400Y-2319680D01*
X9426905Y-2329942D01*
X9427057Y-2389378D01*
X9440468Y-2389378D01*
X9439554Y-2319680D01*
X9433661Y-2309723D01*
X9425635Y-2303729D01*
G37*
G36*
X10271353Y-2302713D02*
G01*
X10259364Y-2308301D01*
X10253014Y-2316378D01*
X10253014Y-2304135D01*
X10239044Y-2304999D01*
X10238282Y-2389378D01*
X10253014Y-2389378D01*
X10253014Y-2334666D01*
X10256469Y-2323185D01*
X10264800Y-2316124D01*
X10274858Y-2314244D01*
X10285984Y-2319680D01*
X10289489Y-2329942D01*
X10289692Y-2389378D01*
X10303052Y-2389378D01*
X10302138Y-2319680D01*
X10296245Y-2309723D01*
X10288219Y-2303729D01*
G37*
G36*
X9033205Y-2302814D02*
G01*
X9019997Y-2303068D01*
X9012631Y-2305304D01*
X9003842Y-2309876D01*
X8994648Y-2319680D01*
X8989161Y-2329942D01*
X8989161Y-2339492D01*
X9003131Y-2339492D01*
X9003131Y-2334971D01*
X9007652Y-2324201D01*
X9012631Y-2318562D01*
X9021470Y-2314651D01*
X9033205Y-2314549D01*
X9042603Y-2320290D01*
X9046870Y-2328570D01*
X9048902Y-2339492D01*
X8989161Y-2339492D01*
X8989161Y-2363673D01*
X8995562Y-2375611D01*
X9007398Y-2386330D01*
X9024213Y-2391206D01*
X9043466Y-2389479D01*
X9058859Y-2384856D01*
X9058859Y-2370429D01*
X9043212Y-2377592D01*
X9025585Y-2379472D01*
X9014764Y-2375916D01*
X9006230Y-2368702D01*
X9003334Y-2359304D01*
X9001404Y-2349754D01*
X9061805Y-2349754D01*
X9061805Y-2332228D01*
X9055811Y-2316226D01*
X9044381Y-2305913D01*
G37*
G36*
X9308033Y-2302814D02*
G01*
X9301632Y-2302865D01*
X9289694Y-2308301D01*
X9280296Y-2319680D01*
X9275978Y-2334158D01*
X9275978Y-2346401D01*
X9290659Y-2346401D01*
X9290659Y-2333498D01*
X9295180Y-2322728D01*
X9300210Y-2317140D01*
X9306052Y-2314549D01*
X9319158Y-2315718D01*
X9327134Y-2324658D01*
X9330232Y-2335784D01*
X9330232Y-2356358D01*
X9327032Y-2367940D01*
X9316974Y-2377998D01*
X9302343Y-2376576D01*
X9296095Y-2371039D01*
X9290710Y-2359304D01*
X9290659Y-2346401D01*
X9275978Y-2346401D01*
X9275978Y-2358034D01*
X9280296Y-2372461D01*
X9289694Y-2383891D01*
X9301632Y-2389276D01*
X9312757Y-2389378D01*
X9323679Y-2384907D01*
X9330232Y-2376881D01*
X9330232Y-2395982D01*
X9325102Y-2406243D01*
X9314840Y-2411526D01*
X9298381Y-2410206D01*
X9284766Y-2404211D01*
X9284766Y-2418486D01*
X9300311Y-2421991D01*
X9324136Y-2420874D01*
X9336582Y-2412085D01*
X9341967Y-2401722D01*
X9344914Y-2386025D01*
X9344914Y-2305761D01*
X9330232Y-2305761D01*
X9330232Y-2314956D01*
X9324492Y-2307590D01*
X9314434Y-2302814D01*
G37*
G36*
X9512554Y-2302814D02*
G01*
X9499701Y-2303018D01*
X9486138Y-2307183D01*
X9474657Y-2318308D01*
X9469526Y-2329078D01*
X9467621Y-2339492D01*
X9482836Y-2339492D01*
X9482836Y-2333802D01*
X9485934Y-2325522D01*
X9492386Y-2318562D01*
X9501174Y-2314651D01*
X9511436Y-2314549D01*
X9521698Y-2319680D01*
X9526828Y-2329942D01*
X9526828Y-2339492D01*
X9467621Y-2339492D01*
X9466478Y-2345740D01*
X9468510Y-2360676D01*
X9472422Y-2371801D01*
X9479889Y-2381554D01*
X9495282Y-2390089D01*
X9521698Y-2390089D01*
X9538563Y-2384552D01*
X9538563Y-2370632D01*
X9520631Y-2377846D01*
X9505543Y-2379421D01*
X9493351Y-2376119D01*
X9484461Y-2365959D01*
X9481362Y-2354884D01*
X9481362Y-2349754D01*
X9541916Y-2349754D01*
X9540290Y-2328265D01*
X9533788Y-2314448D01*
X9523730Y-2306167D01*
G37*
G36*
X10180370Y-2302814D02*
G01*
X10164267Y-2303018D01*
X10145166Y-2307945D01*
X10144252Y-2321915D01*
X10159796Y-2315768D01*
X10178897Y-2314194D01*
X10190022Y-2318816D01*
X10194290Y-2329129D01*
X10194290Y-2334717D01*
X10159847Y-2336038D01*
X10148112Y-2342134D01*
X10141712Y-2348992D01*
X10138562Y-2357272D01*
X10138562Y-2361438D01*
X10151414Y-2361438D01*
X10155174Y-2352446D01*
X10162286Y-2347772D01*
X10173055Y-2345690D01*
X10192664Y-2345334D01*
X10194594Y-2348433D01*
X10192562Y-2362911D01*
X10186162Y-2372410D01*
X10176002Y-2379370D01*
X10160558Y-2378100D01*
X10153294Y-2371293D01*
X10151414Y-2361438D01*
X10138562Y-2361438D01*
X10138562Y-2370378D01*
X10142626Y-2379827D01*
X10151059Y-2387498D01*
X10161016Y-2390800D01*
X10171582Y-2390800D01*
X10182809Y-2387701D01*
X10194290Y-2377287D01*
X10194290Y-2389378D01*
X10207498Y-2389378D01*
X10207498Y-2325420D01*
X10200894Y-2312365D01*
X10190988Y-2305761D01*
G37*
G36*
X10470489Y-2302814D02*
G01*
X10457637Y-2303018D01*
X10444073Y-2307183D01*
X10432592Y-2318308D01*
X10427512Y-2329078D01*
X10425557Y-2339492D01*
X10440771Y-2339492D01*
X10440771Y-2333802D01*
X10443921Y-2325522D01*
X10450322Y-2318562D01*
X10459110Y-2314651D01*
X10469372Y-2314549D01*
X10479633Y-2319680D01*
X10484764Y-2329942D01*
X10484764Y-2339492D01*
X10425557Y-2339492D01*
X10424414Y-2345740D01*
X10426446Y-2360676D01*
X10430408Y-2371801D01*
X10437825Y-2381554D01*
X10453217Y-2390089D01*
X10479633Y-2390089D01*
X10496499Y-2384552D01*
X10496499Y-2370632D01*
X10478617Y-2377846D01*
X10463530Y-2379421D01*
X10451287Y-2376119D01*
X10442397Y-2365959D01*
X10439298Y-2354884D01*
X10439298Y-2349754D01*
X10499852Y-2349754D01*
X10498226Y-2328265D01*
X10491724Y-2314448D01*
X10481665Y-2306167D01*
G37*
G36*
X9849561Y-2304135D02*
G01*
X9849561Y-2306726D01*
X9881768Y-2388463D01*
X9874046Y-2405634D01*
X9868001Y-2409901D01*
X9855454Y-2409901D01*
X9855454Y-2421636D01*
X9871710Y-2421636D01*
X9883038Y-2415844D01*
X9889134Y-2405938D01*
X9896703Y-2385669D01*
X9927336Y-2306218D01*
X9927336Y-2304288D01*
X9914229Y-2304288D01*
X9911486Y-2309418D01*
X9888626Y-2370886D01*
X9863531Y-2304999D01*
G37*
G36*
X9189415Y-2305761D02*
G01*
X9189415Y-2316022D01*
X9211411Y-2316022D01*
X9211411Y-2379065D01*
X9183573Y-2379065D01*
X9183573Y-2389378D01*
X9252508Y-2389378D01*
X9252508Y-2379218D01*
X9225381Y-2378354D01*
X9224568Y-2305761D01*
G37*
G36*
X10339527Y-2305761D02*
G01*
X10339527Y-2316022D01*
X10361625Y-2316022D01*
X10360812Y-2378354D01*
X10333685Y-2379218D01*
X10333685Y-2389378D01*
X10402620Y-2389378D01*
X10402620Y-2379065D01*
X10374731Y-2379065D01*
X10374731Y-2305761D01*
G37*
G36*
X9049105Y-2543657D02*
G01*
X9042958Y-2546908D01*
X9035999Y-2549652D01*
X9028023Y-2551938D01*
X9019032Y-2553817D01*
X9019032Y-2564587D01*
X9045244Y-2564587D01*
X9045244Y-2678582D01*
X9011920Y-2692400D01*
X9091980Y-2692400D01*
X9091980Y-2678582D01*
X9061704Y-2678582D01*
X9061704Y-2543657D01*
G37*
G36*
X9215526Y-2543657D02*
G01*
X9209379Y-2546908D01*
X9202420Y-2549652D01*
X9194444Y-2551938D01*
X9185452Y-2553817D01*
X9185452Y-2564587D01*
X9211665Y-2564587D01*
X9211665Y-2678582D01*
X9178340Y-2692400D01*
X9258401Y-2692400D01*
X9258401Y-2678582D01*
X9228124Y-2678582D01*
X9228124Y-2543657D01*
G37*
G36*
X8892641Y-2582672D02*
G01*
X8932672Y-2692400D01*
X8951976Y-2692400D01*
X8991193Y-2582672D01*
X8974937Y-2582672D01*
X8953195Y-2646476D01*
X8948115Y-2662783D01*
X8942832Y-2678785D01*
X8942019Y-2678785D01*
X8931656Y-2646476D01*
X8909913Y-2582672D01*
G37*
G36*
X9132620Y-2668625D02*
G01*
X9127845Y-2669590D01*
X9123883Y-2672283D01*
X9121241Y-2676499D01*
X9120225Y-2682036D01*
X9121241Y-2687320D01*
X9123883Y-2691434D01*
X9127845Y-2694076D01*
X9132620Y-2695041D01*
X9137497Y-2694076D01*
X9141510Y-2691434D01*
X9144203Y-2687320D01*
X9145219Y-2682036D01*
X9144203Y-2676499D01*
X9141510Y-2672283D01*
X9137497Y-2669590D01*
G37*
D10*
X1634744Y-5861050D02*
G01*
X1634744Y-5851652D01*
X1644142Y-5833110D01*
X1653286Y-5823965D01*
X1671828Y-5814821D01*
X1708657Y-5814821D01*
X1727200Y-5823965D01*
X1736344Y-5833110D01*
X1745742Y-5851652D01*
X1745742Y-5870194D01*
X1736344Y-5888736D01*
X1718055Y-5916421D01*
X1625600Y-6008623D01*
X1754886Y-6008623D01*
X1889760Y-5814821D02*
G01*
X1815845Y-6008623D01*
X1889760Y-5814821D02*
G01*
X1963674Y-6008623D01*
X1843531Y-5944107D02*
G01*
X1935988Y-5944107D01*
D11*
X279400Y-4274312D02*
G01*
X289813Y-4268978D01*
X305307Y-4253484D01*
X305307Y-4362450D01*
X344931Y-4279392D02*
G01*
X344931Y-4274312D01*
X350012Y-4263897D01*
X355345Y-4258563D01*
X365760Y-4253484D01*
X386334Y-4253484D01*
X396747Y-4258563D01*
X402081Y-4263897D01*
X407162Y-4274312D01*
X407162Y-4284726D01*
X402081Y-4295139D01*
X391668Y-4310634D01*
X339597Y-4362450D01*
X412495Y-4362450D01*
X446786Y-4253484D02*
G01*
X488187Y-4362450D01*
X529844Y-4253484D02*
G01*
X488187Y-4362450D01*
X11506200Y-379984D02*
G01*
X11506200Y-457962D01*
X11511279Y-473455D01*
X11521693Y-483870D01*
X11537441Y-488950D01*
X11547856Y-488950D01*
X11563350Y-483870D01*
X11573763Y-473455D01*
X11578843Y-457962D01*
X11578843Y-379984D01*
X11613134Y-400812D02*
G01*
X11623547Y-395478D01*
X11639295Y-379984D01*
X11639295Y-488950D01*
X11673586Y-400812D02*
G01*
X11684000Y-395478D01*
X11699493Y-379984D01*
X11699493Y-488950D01*
X279400Y-6526784D02*
G01*
X279400Y-6604762D01*
X284479Y-6620255D01*
X294894Y-6630670D01*
X310642Y-6635750D01*
X321055Y-6635750D01*
X336550Y-6630670D01*
X346963Y-6620255D01*
X352044Y-6604762D01*
X352044Y-6526784D01*
X386334Y-6547612D02*
G01*
X396747Y-6542278D01*
X412495Y-6526784D01*
X412495Y-6635750D01*
X451865Y-6552692D02*
G01*
X451865Y-6547612D01*
X457200Y-6537197D01*
X462279Y-6531863D01*
X472694Y-6526784D01*
X493521Y-6526784D01*
X503936Y-6531863D01*
X509015Y-6537197D01*
X514350Y-6547612D01*
X514350Y-6558026D01*
X509015Y-6568439D01*
X498602Y-6583934D01*
X446786Y-6635750D01*
X519429Y-6635750D01*
X11468100Y-6552184D02*
G01*
X11468100Y-6630162D01*
X11473179Y-6645655D01*
X11483593Y-6656070D01*
X11499341Y-6661150D01*
X11509756Y-6661150D01*
X11525250Y-6656070D01*
X11535663Y-6645655D01*
X11540743Y-6630162D01*
X11540743Y-6552184D01*
X11575034Y-6573012D02*
G01*
X11585447Y-6567678D01*
X11601195Y-6552184D01*
X11601195Y-6661150D01*
X11645900Y-6552184D02*
G01*
X11703050Y-6552184D01*
X11671808Y-6593839D01*
X11687302Y-6593839D01*
X11697715Y-6598920D01*
X11703050Y-6604000D01*
X11708129Y-6619747D01*
X11708129Y-6630162D01*
X11703050Y-6645655D01*
X11692636Y-6656070D01*
X11676888Y-6661150D01*
X11661393Y-6661150D01*
X11645900Y-6656070D01*
X11640565Y-6650989D01*
X11635486Y-6640576D01*
X266700Y-341884D02*
G01*
X266700Y-419862D01*
X271779Y-435355D01*
X282194Y-445770D01*
X297942Y-450850D01*
X308355Y-450850D01*
X323850Y-445770D01*
X334263Y-435355D01*
X339344Y-419862D01*
X339344Y-341884D01*
X373634Y-362712D02*
G01*
X384047Y-357378D01*
X399795Y-341884D01*
X399795Y-450850D01*
X465073Y-341884D02*
G01*
X449579Y-346963D01*
X439165Y-362712D01*
X434086Y-388620D01*
X434086Y-404113D01*
X439165Y-430276D01*
X449579Y-445770D01*
X465073Y-450850D01*
X475487Y-450850D01*
X491236Y-445770D01*
X501650Y-430276D01*
X506729Y-404113D01*
X506729Y-388620D01*
X501650Y-362712D01*
X491236Y-346963D01*
X475487Y-341884D01*
X465073Y-341884D01*
X2209800Y-5459984D02*
G01*
X2209800Y-5568950D01*
X2209800Y-5459984D02*
G01*
X2277363Y-5459984D01*
X2209800Y-5511800D02*
G01*
X2251456Y-5511800D01*
X2311654Y-5480812D02*
G01*
X2322068Y-5475478D01*
X2337561Y-5459984D01*
X2337561Y-5568950D01*
D10*
X2159000Y-5802121D02*
G01*
X2159000Y-5995923D01*
X2159000Y-5802121D02*
G01*
X2279141Y-5802121D01*
X2159000Y-5894323D02*
G01*
X2232913Y-5894323D01*
X2340102Y-5866637D02*
G01*
X2340102Y-5959094D01*
X2349245Y-5986779D01*
X2367788Y-5995923D01*
X2395474Y-5995923D01*
X2414015Y-5986779D01*
X2441702Y-5959094D01*
X2441702Y-5866637D02*
G01*
X2441702Y-5995923D01*
X2604261Y-5894323D02*
G01*
X2594863Y-5876036D01*
X2567177Y-5866637D01*
X2539491Y-5866637D01*
X2511806Y-5876036D01*
X2502661Y-5894323D01*
X2511806Y-5912865D01*
X2530347Y-5922010D01*
X2576575Y-5931407D01*
X2594863Y-5940552D01*
X2604261Y-5959094D01*
X2604261Y-5968237D01*
X2594863Y-5986779D01*
X2567177Y-5995923D01*
X2539491Y-5995923D01*
X2511806Y-5986779D01*
X2502661Y-5968237D01*
X2665222Y-5922010D02*
G01*
X2775965Y-5922010D01*
X2775965Y-5903721D01*
X2766822Y-5885179D01*
X2757424Y-5876036D01*
X2739136Y-5866637D01*
X2711450Y-5866637D01*
X2692908Y-5876036D01*
X2674365Y-5894323D01*
X2665222Y-5922010D01*
X2665222Y-5940552D01*
X2674365Y-5968237D01*
X2692908Y-5986779D01*
X2711450Y-5995923D01*
X2739136Y-5995923D01*
X2757424Y-5986779D01*
X2775965Y-5968237D01*
X1710944Y-6208521D02*
G01*
X1618742Y-6208521D01*
X1609344Y-6291579D01*
X1618742Y-6282436D01*
X1646428Y-6273037D01*
X1674113Y-6273037D01*
X1701800Y-6282436D01*
X1720342Y-6300723D01*
X1729486Y-6328410D01*
X1729486Y-6346952D01*
X1720342Y-6374637D01*
X1701800Y-6393179D01*
X1674113Y-6402323D01*
X1646428Y-6402323D01*
X1618742Y-6393179D01*
X1609344Y-6384036D01*
X1600200Y-6365494D01*
X1790445Y-6273037D02*
G01*
X1892045Y-6402323D01*
X1892045Y-6273037D02*
G01*
X1790445Y-6402323D01*
X1962150Y-6254750D02*
G01*
X1962150Y-6245352D01*
X1971547Y-6226810D01*
X1980691Y-6217665D01*
X1999234Y-6208521D01*
X2036063Y-6208521D01*
X2054606Y-6217665D01*
X2063750Y-6226810D01*
X2073147Y-6245352D01*
X2073147Y-6263894D01*
X2063750Y-6282436D01*
X2045461Y-6310121D01*
X1953006Y-6402323D01*
X2082291Y-6402323D01*
X2198624Y-6208521D02*
G01*
X2170938Y-6217665D01*
X2152650Y-6245352D01*
X2143252Y-6291579D01*
X2143252Y-6319265D01*
X2152650Y-6365494D01*
X2170938Y-6393179D01*
X2198624Y-6402323D01*
X2217165Y-6402323D01*
X2244852Y-6393179D01*
X2263393Y-6365494D01*
X2272538Y-6319265D01*
X2272538Y-6291579D01*
X2263393Y-6245352D01*
X2244852Y-6217665D01*
X2217165Y-6208521D01*
X2198624Y-6208521D01*
X2333497Y-6273037D02*
G01*
X2333497Y-6402323D01*
X2333497Y-6310121D02*
G01*
X2361184Y-6282436D01*
X2379725Y-6273037D01*
X2407411Y-6273037D01*
X2425954Y-6282436D01*
X2435097Y-6310121D01*
X2435097Y-6402323D01*
X2435097Y-6310121D02*
G01*
X2462784Y-6282436D01*
X2481325Y-6273037D01*
X2509011Y-6273037D01*
X2527554Y-6282436D01*
X2536697Y-6310121D01*
X2536697Y-6402323D01*
X2597658Y-6273037D02*
G01*
X2597658Y-6402323D01*
X2597658Y-6310121D02*
G01*
X2625343Y-6282436D01*
X2643886Y-6273037D01*
X2671572Y-6273037D01*
X2690113Y-6282436D01*
X2699258Y-6310121D01*
X2699258Y-6402323D01*
X2699258Y-6310121D02*
G01*
X2726943Y-6282436D01*
X2745486Y-6273037D01*
X2773172Y-6273037D01*
X2791713Y-6282436D01*
X2800858Y-6310121D01*
X2800858Y-6402323D01*
D11*
X5041900Y-4901184D02*
G01*
X5041900Y-4979162D01*
X5046979Y-4994655D01*
X5057393Y-5005070D01*
X5073141Y-5010150D01*
X5083556Y-5010150D01*
X5099050Y-5005070D01*
X5109463Y-4994655D01*
X5114543Y-4979162D01*
X5114543Y-4901184D01*
X5200904Y-4901184D02*
G01*
X5148834Y-4973828D01*
X5226811Y-4973828D01*
X5200904Y-4901184D02*
G01*
X5200904Y-5010150D01*
D10*
X5061458Y-6439407D02*
G01*
X5061458Y-6605523D01*
X4978400Y-6522465D02*
G01*
X5144770Y-6522465D01*
X4978400Y-5328668D02*
G01*
X5144770Y-5328668D01*
X4127500Y-5802121D02*
G01*
X4127500Y-5995923D01*
X4188459Y-5802121D02*
G01*
X4188459Y-5995923D01*
X4188459Y-5802121D02*
G01*
X4317745Y-5995923D01*
X4317745Y-5802121D02*
G01*
X4317745Y-5995923D01*
X5554474Y-5814821D02*
G01*
X5535932Y-5823965D01*
X5517644Y-5842507D01*
X5508246Y-5861050D01*
X5499102Y-5888736D01*
X5499102Y-5934710D01*
X5508246Y-5962650D01*
X5517644Y-5980937D01*
X5535932Y-5999479D01*
X5554474Y-6008623D01*
X5591558Y-6008623D01*
X5609846Y-5999479D01*
X5628388Y-5980937D01*
X5637532Y-5962650D01*
X5646930Y-5934710D01*
X5646930Y-5888736D01*
X5637532Y-5861050D01*
X5628388Y-5842507D01*
X5609846Y-5823965D01*
X5591558Y-5814821D01*
X5554474Y-5814821D01*
X5707890Y-5814821D02*
G01*
X5707890Y-5953252D01*
X5717034Y-5980937D01*
X5735576Y-5999479D01*
X5763262Y-6008623D01*
X5781804Y-6008623D01*
X5809490Y-5999479D01*
X5828032Y-5980937D01*
X5837176Y-5953252D01*
X5837176Y-5814821D01*
X5962652Y-5814821D02*
G01*
X5962652Y-6008623D01*
X5898136Y-5814821D02*
G01*
X6027422Y-5814821D01*
D11*
X4815077Y-3758692D02*
G01*
X4809743Y-3748278D01*
X4799329Y-3737863D01*
X4789170Y-3732784D01*
X4768341Y-3732784D01*
X4757927Y-3737863D01*
X4747513Y-3748278D01*
X4742179Y-3758692D01*
X4737100Y-3774439D01*
X4737100Y-3800347D01*
X4742179Y-3815842D01*
X4747513Y-3826255D01*
X4757927Y-3836670D01*
X4768341Y-3841750D01*
X4789170Y-3841750D01*
X4799329Y-3836670D01*
X4809743Y-3826255D01*
X4815077Y-3815842D01*
X4859781Y-3732784D02*
G01*
X4916931Y-3732784D01*
X4885690Y-3774439D01*
X4901184Y-3774439D01*
X4911597Y-3779520D01*
X4916931Y-3784600D01*
X4922011Y-3800347D01*
X4922011Y-3810762D01*
X4916931Y-3826255D01*
X4906518Y-3836670D01*
X4890770Y-3841750D01*
X4875275Y-3841750D01*
X4859781Y-3836670D01*
X4854447Y-3831589D01*
X4849368Y-3821176D01*
X2338577Y-4050792D02*
G01*
X2333243Y-4040378D01*
X2322829Y-4029963D01*
X2312670Y-4024884D01*
X2291841Y-4024884D01*
X2281427Y-4029963D01*
X2271013Y-4040378D01*
X2265679Y-4050792D01*
X2260600Y-4066539D01*
X2260600Y-4092447D01*
X2265679Y-4107942D01*
X2271013Y-4118355D01*
X2281427Y-4128770D01*
X2291841Y-4133850D01*
X2312670Y-4133850D01*
X2322829Y-4128770D01*
X2333243Y-4118355D01*
X2338577Y-4107942D01*
X2435097Y-4024884D02*
G01*
X2383281Y-4024884D01*
X2377947Y-4071620D01*
X2383281Y-4066539D01*
X2398775Y-4061205D01*
X2414270Y-4061205D01*
X2430018Y-4066539D01*
X2440431Y-4076700D01*
X2445511Y-4092447D01*
X2445511Y-4102862D01*
X2440431Y-4118355D01*
X2430018Y-4128770D01*
X2414270Y-4133850D01*
X2398775Y-4133850D01*
X2383281Y-4128770D01*
X2377947Y-4123689D01*
X2372868Y-4113276D01*
X8293100Y-608584D02*
G01*
X8293100Y-717550D01*
X8293100Y-608584D02*
G01*
X8339836Y-608584D01*
X8355329Y-613663D01*
X8360663Y-618997D01*
X8365743Y-629412D01*
X8365743Y-639826D01*
X8360663Y-650239D01*
X8355329Y-655320D01*
X8339836Y-660400D01*
X8293100Y-660400D01*
X8329422Y-660400D02*
G01*
X8365743Y-717550D01*
X8400034Y-629412D02*
G01*
X8410447Y-624078D01*
X8426195Y-608584D01*
X8426195Y-717550D01*
X4787900Y-621284D02*
G01*
X4787900Y-730250D01*
X4787900Y-621284D02*
G01*
X4834636Y-621284D01*
X4850129Y-626363D01*
X4855463Y-631697D01*
X4860543Y-642112D01*
X4860543Y-652526D01*
X4855463Y-662939D01*
X4850129Y-668020D01*
X4834636Y-673100D01*
X4787900Y-673100D01*
X4824222Y-673100D02*
G01*
X4860543Y-730250D01*
X4900168Y-647192D02*
G01*
X4900168Y-642112D01*
X4905247Y-631697D01*
X4910581Y-626363D01*
X4920995Y-621284D01*
X4941570Y-621284D01*
X4951984Y-626363D01*
X4957318Y-631697D01*
X4962397Y-642112D01*
X4962397Y-652526D01*
X4957318Y-662939D01*
X4946904Y-678434D01*
X4894834Y-730250D01*
X4967731Y-730250D01*
X2451100Y-633984D02*
G01*
X2451100Y-742950D01*
X2451100Y-633984D02*
G01*
X2497836Y-633984D01*
X2513329Y-639063D01*
X2518663Y-644397D01*
X2523743Y-654812D01*
X2523743Y-665226D01*
X2518663Y-675639D01*
X2513329Y-680720D01*
X2497836Y-685800D01*
X2451100Y-685800D01*
X2487422Y-685800D02*
G01*
X2523743Y-742950D01*
X2568447Y-633984D02*
G01*
X2625597Y-633984D01*
X2594609Y-675639D01*
X2610104Y-675639D01*
X2620518Y-680720D01*
X2625597Y-685800D01*
X2630931Y-701547D01*
X2630931Y-711962D01*
X2625597Y-727455D01*
X2615184Y-737870D01*
X2599690Y-742950D01*
X2584195Y-742950D01*
X2568447Y-737870D01*
X2563368Y-732789D01*
X2558034Y-722376D01*
X1244600Y-3504184D02*
G01*
X1244600Y-3613150D01*
X1244600Y-3504184D02*
G01*
X1291336Y-3504184D01*
X1306829Y-3509263D01*
X1312163Y-3514597D01*
X1317244Y-3525012D01*
X1317244Y-3535426D01*
X1312163Y-3545839D01*
X1306829Y-3550920D01*
X1291336Y-3556000D01*
X1244600Y-3556000D01*
X1280921Y-3556000D02*
G01*
X1317244Y-3613150D01*
X1403604Y-3504184D02*
G01*
X1351534Y-3576828D01*
X1429512Y-3576828D01*
X1403604Y-3504184D02*
G01*
X1403604Y-3613150D01*
X10883900Y-4545584D02*
G01*
X10883900Y-4654550D01*
X10883900Y-4545584D02*
G01*
X10930636Y-4545584D01*
X10946129Y-4550663D01*
X10951463Y-4555997D01*
X10956543Y-4566412D01*
X10956543Y-4576826D01*
X10951463Y-4587239D01*
X10946129Y-4592320D01*
X10930636Y-4597400D01*
X10883900Y-4597400D01*
X10920222Y-4597400D02*
G01*
X10956543Y-4654550D01*
X11053318Y-4545584D02*
G01*
X11001247Y-4545584D01*
X10996168Y-4592320D01*
X11001247Y-4587239D01*
X11016995Y-4581905D01*
X11032490Y-4581905D01*
X11047984Y-4587239D01*
X11058397Y-4597400D01*
X11063731Y-4613147D01*
X11063731Y-4623562D01*
X11058397Y-4639055D01*
X11047984Y-4649470D01*
X11032490Y-4654550D01*
X11016995Y-4654550D01*
X11001247Y-4649470D01*
X10996168Y-4644389D01*
X10990834Y-4633976D01*
X9982200Y-4570984D02*
G01*
X9982200Y-4679950D01*
X9982200Y-4570984D02*
G01*
X10028936Y-4570984D01*
X10044429Y-4576063D01*
X10049763Y-4581397D01*
X10054843Y-4591812D01*
X10054843Y-4602226D01*
X10049763Y-4612639D01*
X10044429Y-4617720D01*
X10028936Y-4622800D01*
X9982200Y-4622800D01*
X10018522Y-4622800D02*
G01*
X10054843Y-4679950D01*
X10151618Y-4586478D02*
G01*
X10146284Y-4576063D01*
X10130790Y-4570984D01*
X10120375Y-4570984D01*
X10104881Y-4576063D01*
X10094468Y-4591812D01*
X10089134Y-4617720D01*
X10089134Y-4643628D01*
X10094468Y-4664455D01*
X10104881Y-4674870D01*
X10120375Y-4679950D01*
X10125709Y-4679950D01*
X10141204Y-4674870D01*
X10151618Y-4664455D01*
X10156697Y-4648962D01*
X10156697Y-4643628D01*
X10151618Y-4628134D01*
X10141204Y-4617720D01*
X10125709Y-4612639D01*
X10120375Y-4612639D01*
X10104881Y-4617720D01*
X10094468Y-4628134D01*
X10089134Y-4643628D01*
X9359900Y-3008884D02*
G01*
X9359900Y-3117850D01*
X9359900Y-3008884D02*
G01*
X9406636Y-3008884D01*
X9422129Y-3013963D01*
X9427463Y-3019297D01*
X9432543Y-3029712D01*
X9432543Y-3040126D01*
X9427463Y-3050539D01*
X9422129Y-3055620D01*
X9406636Y-3060700D01*
X9359900Y-3060700D01*
X9396222Y-3060700D02*
G01*
X9432543Y-3117850D01*
X9539731Y-3008884D02*
G01*
X9487661Y-3117850D01*
X9466834Y-3008884D02*
G01*
X9539731Y-3008884D01*
X6275577Y-3657092D02*
G01*
X6270243Y-3646678D01*
X6259829Y-3636263D01*
X6249670Y-3631184D01*
X6228841Y-3631184D01*
X6218427Y-3636263D01*
X6208013Y-3646678D01*
X6202679Y-3657092D01*
X6197600Y-3672839D01*
X6197600Y-3698747D01*
X6202679Y-3714242D01*
X6208013Y-3724655D01*
X6218427Y-3735070D01*
X6228841Y-3740150D01*
X6249670Y-3740150D01*
X6259829Y-3735070D01*
X6270243Y-3724655D01*
X6275577Y-3714242D01*
X6361684Y-3631184D02*
G01*
X6309868Y-3703828D01*
X6387845Y-3703828D01*
X6361684Y-3631184D02*
G01*
X6361684Y-3740150D01*
X3697477Y-3872992D02*
G01*
X3692143Y-3862578D01*
X3681729Y-3852163D01*
X3671570Y-3847084D01*
X3650741Y-3847084D01*
X3640327Y-3852163D01*
X3629913Y-3862578D01*
X3624579Y-3872992D01*
X3619500Y-3888739D01*
X3619500Y-3914647D01*
X3624579Y-3930142D01*
X3629913Y-3940555D01*
X3640327Y-3950970D01*
X3650741Y-3956050D01*
X3671570Y-3956050D01*
X3681729Y-3950970D01*
X3692143Y-3940555D01*
X3697477Y-3930142D01*
X3793997Y-3862578D02*
G01*
X3788918Y-3852163D01*
X3773170Y-3847084D01*
X3763009Y-3847084D01*
X3747261Y-3852163D01*
X3736847Y-3867912D01*
X3731768Y-3893820D01*
X3731768Y-3919728D01*
X3736847Y-3940555D01*
X3747261Y-3950970D01*
X3763009Y-3956050D01*
X3768090Y-3956050D01*
X3783584Y-3950970D01*
X3793997Y-3940555D01*
X3799331Y-3925062D01*
X3799331Y-3919728D01*
X3793997Y-3904234D01*
X3783584Y-3893820D01*
X3768090Y-3888739D01*
X3763009Y-3888739D01*
X3747261Y-3893820D01*
X3736847Y-3904234D01*
X3731768Y-3919728D01*
X1600200Y-2119884D02*
G01*
X1600200Y-2197862D01*
X1605279Y-2213355D01*
X1615694Y-2223770D01*
X1631442Y-2228850D01*
X1641855Y-2228850D01*
X1657350Y-2223770D01*
X1667763Y-2213355D01*
X1672844Y-2197862D01*
X1672844Y-2119884D01*
X1707134Y-2140712D02*
G01*
X1717547Y-2135378D01*
X1733295Y-2119884D01*
X1733295Y-2228850D01*
D10*
X494284Y-1313687D02*
G01*
X494284Y-1245615D01*
X432815Y-1238757D01*
X439673Y-1245615D01*
X446531Y-1265936D01*
X446531Y-1286510D01*
X439673Y-1306829D01*
X425957Y-1320545D01*
X405637Y-1327404D01*
X391921Y-1327404D01*
X371602Y-1320545D01*
X357886Y-1306829D01*
X351028Y-1286510D01*
X351028Y-1265936D01*
X357886Y-1245615D01*
X364744Y-1238757D01*
X378460Y-1231900D01*
X494284Y-1372362D02*
G01*
X351028Y-1426971D01*
X494284Y-1481328D02*
G01*
X351028Y-1426971D01*
X5032247Y-2832862D02*
G01*
X5045709Y-2826004D01*
X5059425Y-2812287D01*
X5066284Y-2798571D01*
X5066284Y-2771394D01*
X5059425Y-2757678D01*
X5045709Y-2744215D01*
X5032247Y-2737357D01*
X5011674Y-2730500D01*
X4977638Y-2730500D01*
X4957063Y-2737357D01*
X4943602Y-2744215D01*
X4929886Y-2757678D01*
X4923027Y-2771394D01*
X4923027Y-2798571D01*
X4929886Y-2812287D01*
X4943602Y-2826004D01*
X4957063Y-2832862D01*
X4977638Y-2832862D01*
X4977638Y-2798571D02*
G01*
X4977638Y-2832862D01*
X5066284Y-2877820D02*
G01*
X4923027Y-2877820D01*
X5066284Y-2877820D02*
G01*
X4923027Y-2973323D01*
X5066284Y-2973323D02*
G01*
X4923027Y-2973323D01*
X5066284Y-3018281D02*
G01*
X4923027Y-3018281D01*
X5066284Y-3018281D02*
G01*
X5066284Y-3066034D01*
X5059425Y-3086354D01*
X5045709Y-3100070D01*
X5032247Y-3106928D01*
X5011674Y-3113786D01*
X4977638Y-3113786D01*
X4957063Y-3106928D01*
X4943602Y-3100070D01*
X4929886Y-3086354D01*
X4923027Y-3066034D01*
X4923027Y-3018281D01*
X5066284Y-1245615D02*
G01*
X5066284Y-1320545D01*
X5011674Y-1279652D01*
X5011674Y-1299971D01*
X5004815Y-1313687D01*
X4997958Y-1320545D01*
X4977638Y-1327404D01*
X4963922Y-1327404D01*
X4943602Y-1320545D01*
X4929886Y-1306829D01*
X4923027Y-1286510D01*
X4923027Y-1265936D01*
X4929886Y-1245615D01*
X4936743Y-1238757D01*
X4950459Y-1231900D01*
X5066284Y-1372362D02*
G01*
X4923027Y-1426971D01*
X5066284Y-1481328D02*
G01*
X4923027Y-1426971D01*
X5066284Y-1540002D02*
G01*
X5066284Y-1615186D01*
X5011674Y-1574292D01*
X5011674Y-1594612D01*
X5004815Y-1608328D01*
X4997958Y-1615186D01*
X4977638Y-1621789D01*
X4963922Y-1621789D01*
X4943602Y-1615186D01*
X4929886Y-1601470D01*
X4923027Y-1580895D01*
X4923027Y-1560576D01*
X4929886Y-1540002D01*
X4936743Y-1533144D01*
X4950459Y-1526539D01*
X2780284Y-1384300D02*
G01*
X2637027Y-1384300D01*
X2780284Y-1384300D02*
G01*
X2780284Y-1472945D01*
X2711958Y-1384300D02*
G01*
X2711958Y-1438910D01*
X2637027Y-1384300D02*
G01*
X2637027Y-1472945D01*
X2759709Y-1613407D02*
G01*
X2773425Y-1599692D01*
X2780284Y-1579371D01*
X2780284Y-1551939D01*
X2773425Y-1531620D01*
X2759709Y-1517904D01*
X2746247Y-1517904D01*
X2732531Y-1524762D01*
X2725674Y-1531620D01*
X2718815Y-1545081D01*
X2705354Y-1586229D01*
X2698495Y-1599692D01*
X2691638Y-1606550D01*
X2677922Y-1613407D01*
X2657602Y-1613407D01*
X2643886Y-1599692D01*
X2637027Y-1579371D01*
X2637027Y-1551939D01*
X2643886Y-1531620D01*
X2657602Y-1517904D01*
X2780284Y-1658365D02*
G01*
X2637027Y-1658365D01*
X2780284Y-1658365D02*
G01*
X2780284Y-1719834D01*
X2773425Y-1740154D01*
X2766568Y-1747012D01*
X2753106Y-1753870D01*
X2732531Y-1753870D01*
X2718815Y-1747012D01*
X2711958Y-1740154D01*
X2705354Y-1719834D01*
X2705354Y-1658365D01*
X2780284Y-1812544D02*
G01*
X2780284Y-1887473D01*
X2725674Y-1846579D01*
X2725674Y-1866900D01*
X2718815Y-1880615D01*
X2711958Y-1887473D01*
X2691638Y-1894331D01*
X2677922Y-1894331D01*
X2657602Y-1887473D01*
X2643886Y-1873757D01*
X2637027Y-1853437D01*
X2637027Y-1832863D01*
X2643886Y-1812544D01*
X2650743Y-1805686D01*
X2664459Y-1798828D01*
X2746247Y-1946147D02*
G01*
X2753106Y-1946147D01*
X2766568Y-1953005D01*
X2773425Y-1959863D01*
X2780284Y-1973326D01*
X2780284Y-2000757D01*
X2773425Y-2014220D01*
X2766568Y-2021078D01*
X2753106Y-2027936D01*
X2739390Y-2027936D01*
X2725674Y-2021078D01*
X2705354Y-2007362D01*
X2637027Y-1939289D01*
X2637027Y-2034794D01*
X2698495Y-2079752D02*
G01*
X2698495Y-2202434D01*
X2780284Y-2247392D02*
G01*
X2637027Y-2247392D01*
X2780284Y-2247392D02*
G01*
X2780284Y-2295144D01*
X2773425Y-2315718D01*
X2759709Y-2329179D01*
X2746247Y-2336037D01*
X2725674Y-2342895D01*
X2691638Y-2342895D01*
X2671063Y-2336037D01*
X2657602Y-2329179D01*
X2643886Y-2315718D01*
X2637027Y-2295144D01*
X2637027Y-2247392D01*
X2691638Y-2387854D02*
G01*
X2691638Y-2469642D01*
X2705354Y-2469642D01*
X2718815Y-2463037D01*
X2725674Y-2456179D01*
X2732531Y-2442463D01*
X2732531Y-2422144D01*
X2725674Y-2408428D01*
X2711958Y-2394712D01*
X2691638Y-2387854D01*
X2677922Y-2387854D01*
X2657602Y-2394712D01*
X2643886Y-2408428D01*
X2637027Y-2422144D01*
X2637027Y-2442463D01*
X2643886Y-2456179D01*
X2657602Y-2469642D01*
X2732531Y-2514854D02*
G01*
X2637027Y-2555747D01*
X2732531Y-2596642D02*
G01*
X2637027Y-2555747D01*
X2780284Y-2641600D02*
G01*
X2637027Y-2641600D01*
X2780284Y-2737104D02*
G01*
X2684779Y-2641600D01*
X2718815Y-2675636D02*
G01*
X2637027Y-2737104D01*
X2780284Y-2782062D02*
G01*
X2773425Y-2788920D01*
X2780284Y-2795778D01*
X2787141Y-2788920D01*
X2780284Y-2782062D01*
X2732531Y-2788920D02*
G01*
X2637027Y-2788920D01*
X2780284Y-2861055D02*
G01*
X2664459Y-2861055D01*
X2643886Y-2867913D01*
X2637027Y-2881629D01*
X2637027Y-2895092D01*
X2732531Y-2840736D02*
G01*
X2732531Y-2888487D01*
X621284Y-1841500D02*
G01*
X518921Y-1841500D01*
X498602Y-1848357D01*
X484886Y-1862073D01*
X478028Y-1882394D01*
X478028Y-1896110D01*
X484886Y-1916429D01*
X498602Y-1930145D01*
X518921Y-1937004D01*
X621284Y-1937004D01*
X600710Y-2077465D02*
G01*
X614426Y-2063750D01*
X621284Y-2043429D01*
X621284Y-2015997D01*
X614426Y-1995678D01*
X600710Y-1981962D01*
X587247Y-1981962D01*
X573531Y-1988820D01*
X566673Y-1995678D01*
X559815Y-2009139D01*
X546354Y-2050034D01*
X539495Y-2063750D01*
X532637Y-2070607D01*
X518921Y-2077465D01*
X498602Y-2077465D01*
X484886Y-2063750D01*
X478028Y-2043429D01*
X478028Y-2015997D01*
X484886Y-1995678D01*
X498602Y-1981962D01*
X621284Y-2122423D02*
G01*
X478028Y-2122423D01*
X621284Y-2122423D02*
G01*
X621284Y-2183892D01*
X614426Y-2204212D01*
X607568Y-2211070D01*
X594105Y-2217928D01*
X580389Y-2217928D01*
X566673Y-2211070D01*
X559815Y-2204212D01*
X552957Y-2183892D01*
X552957Y-2122423D02*
G01*
X552957Y-2183892D01*
X546354Y-2204212D01*
X539495Y-2211070D01*
X525779Y-2217928D01*
X505460Y-2217928D01*
X491744Y-2211070D01*
X484886Y-2204212D01*
X478028Y-2183892D01*
X478028Y-2122423D01*
X539495Y-2262886D02*
G01*
X539495Y-2385568D01*
X587247Y-2532887D02*
G01*
X600710Y-2526029D01*
X614426Y-2512313D01*
X621284Y-2498852D01*
X621284Y-2471420D01*
X614426Y-2457957D01*
X600710Y-2444242D01*
X587247Y-2437384D01*
X566673Y-2430526D01*
X532637Y-2430526D01*
X512063Y-2437384D01*
X498602Y-2444242D01*
X484886Y-2457957D01*
X478028Y-2471420D01*
X478028Y-2498852D01*
X484886Y-2512313D01*
X498602Y-2526029D01*
X512063Y-2532887D01*
D11*
X10669270Y-595884D02*
G01*
X10669270Y-678942D01*
X10663936Y-694689D01*
X10658856Y-699770D01*
X10648441Y-704850D01*
X10638027Y-704850D01*
X10627613Y-699770D01*
X10622279Y-694689D01*
X10617200Y-678942D01*
X10617200Y-668528D01*
X10703559Y-616712D02*
G01*
X10713720Y-611378D01*
X10729468Y-595884D01*
X10729468Y-704850D01*
X10034270Y-595884D02*
G01*
X10034270Y-678942D01*
X10028936Y-694689D01*
X10023856Y-699770D01*
X10013441Y-704850D01*
X10003027Y-704850D01*
X9992613Y-699770D01*
X9987279Y-694689D01*
X9982200Y-678942D01*
X9982200Y-668528D01*
X10073640Y-621792D02*
G01*
X10073640Y-616712D01*
X10078720Y-606297D01*
X10084054Y-600963D01*
X10094468Y-595884D01*
X10115295Y-595884D01*
X10125709Y-600963D01*
X10130790Y-606297D01*
X10135870Y-616712D01*
X10135870Y-627126D01*
X10130790Y-637539D01*
X10120375Y-653034D01*
X10068559Y-704850D01*
X10141204Y-704850D01*
X9399270Y-595884D02*
G01*
X9399270Y-678942D01*
X9393936Y-694689D01*
X9388856Y-699770D01*
X9378441Y-704850D01*
X9368027Y-704850D01*
X9357613Y-699770D01*
X9352279Y-694689D01*
X9347200Y-678942D01*
X9347200Y-668528D01*
X9443720Y-595884D02*
G01*
X9500870Y-595884D01*
X9469881Y-637539D01*
X9485375Y-637539D01*
X9495790Y-642620D01*
X9500870Y-647700D01*
X9506204Y-663447D01*
X9506204Y-673862D01*
X9500870Y-689355D01*
X9490709Y-699770D01*
X9474961Y-704850D01*
X9459468Y-704850D01*
X9443720Y-699770D01*
X9438640Y-694689D01*
X9433559Y-684276D01*
X10999470Y-5815584D02*
G01*
X10999470Y-5898642D01*
X10994136Y-5914389D01*
X10989056Y-5919470D01*
X10978641Y-5924550D01*
X10968227Y-5924550D01*
X10957813Y-5919470D01*
X10952479Y-5914389D01*
X10947400Y-5898642D01*
X10947400Y-5888228D01*
X11085575Y-5815584D02*
G01*
X11033759Y-5888228D01*
X11111484Y-5888228D01*
X11085575Y-5815584D02*
G01*
X11085575Y-5924550D01*
X10986770Y-6425184D02*
G01*
X10986770Y-6508242D01*
X10981436Y-6523989D01*
X10976356Y-6529070D01*
X10965941Y-6534150D01*
X10955527Y-6534150D01*
X10945113Y-6529070D01*
X10939779Y-6523989D01*
X10934700Y-6508242D01*
X10934700Y-6497828D01*
X11083290Y-6425184D02*
G01*
X11031220Y-6425184D01*
X11026140Y-6471920D01*
X11031220Y-6466839D01*
X11046968Y-6461505D01*
X11062461Y-6461505D01*
X11078209Y-6466839D01*
X11088370Y-6477000D01*
X11093704Y-6492747D01*
X11093704Y-6503162D01*
X11088370Y-6518655D01*
X11078209Y-6529070D01*
X11062461Y-6534150D01*
X11046968Y-6534150D01*
X11031220Y-6529070D01*
X11026140Y-6523989D01*
X11021059Y-6513576D01*
X8432800Y-5675884D02*
G01*
X8432800Y-5784850D01*
X8432800Y-5675884D02*
G01*
X8479536Y-5675884D01*
X8495029Y-5680963D01*
X8500363Y-5686297D01*
X8505443Y-5696712D01*
X8505443Y-5712205D01*
X8500363Y-5722620D01*
X8495029Y-5727700D01*
X8479536Y-5733034D01*
X8432800Y-5733034D01*
X8539734Y-5696712D02*
G01*
X8550147Y-5691378D01*
X8565895Y-5675884D01*
X8565895Y-5784850D01*
X3824477Y-672592D02*
G01*
X3819143Y-662178D01*
X3808729Y-651763D01*
X3798570Y-646684D01*
X3777741Y-646684D01*
X3767327Y-651763D01*
X3756913Y-662178D01*
X3751579Y-672592D01*
X3746500Y-688339D01*
X3746500Y-714247D01*
X3751579Y-729742D01*
X3756913Y-740155D01*
X3767327Y-750570D01*
X3777741Y-755650D01*
X3798570Y-755650D01*
X3808729Y-750570D01*
X3819143Y-740155D01*
X3824477Y-729742D01*
X3863847Y-672592D02*
G01*
X3863847Y-667512D01*
X3869181Y-657097D01*
X3874261Y-651763D01*
X3884675Y-646684D01*
X3905504Y-646684D01*
X3915918Y-651763D01*
X3920997Y-657097D01*
X3926331Y-667512D01*
X3926331Y-677926D01*
X3920997Y-688339D01*
X3910584Y-703834D01*
X3858768Y-755650D01*
X3931411Y-755650D01*
X1371600Y-684784D02*
G01*
X1371600Y-793750D01*
X1371600Y-684784D02*
G01*
X1407921Y-684784D01*
X1423670Y-689863D01*
X1433829Y-700278D01*
X1439163Y-710692D01*
X1444244Y-726439D01*
X1444244Y-752347D01*
X1439163Y-767842D01*
X1433829Y-778255D01*
X1423670Y-788670D01*
X1407921Y-793750D01*
X1371600Y-793750D01*
X1478534Y-705612D02*
G01*
X1488947Y-700278D01*
X1504695Y-684784D01*
X1504695Y-793750D01*
X10388600Y-2894584D02*
G01*
X10388600Y-2972562D01*
X10393679Y-2988055D01*
X10404093Y-2998470D01*
X10419841Y-3003550D01*
X10430256Y-3003550D01*
X10445750Y-2998470D01*
X10456163Y-2988055D01*
X10461243Y-2972562D01*
X10461243Y-2894584D01*
X10505947Y-2894584D02*
G01*
X10563097Y-2894584D01*
X10532109Y-2936239D01*
X10547604Y-2936239D01*
X10558018Y-2941320D01*
X10563097Y-2946400D01*
X10568431Y-2962147D01*
X10568431Y-2972562D01*
X10563097Y-2988055D01*
X10552684Y-2998470D01*
X10537190Y-3003550D01*
X10521695Y-3003550D01*
X10505947Y-2998470D01*
X10500868Y-2993389D01*
X10495534Y-2982976D01*
X11188700Y-2869184D02*
G01*
X11188700Y-2978150D01*
X11188700Y-2869184D02*
G01*
X11225022Y-2869184D01*
X11240770Y-2874263D01*
X11250929Y-2884678D01*
X11256263Y-2895092D01*
X11261343Y-2910839D01*
X11261343Y-2936747D01*
X11256263Y-2952242D01*
X11250929Y-2962655D01*
X11240770Y-2973070D01*
X11225022Y-2978150D01*
X11188700Y-2978150D01*
X11300968Y-2895092D02*
G01*
X11300968Y-2890012D01*
X11306047Y-2879597D01*
X11311381Y-2874263D01*
X11321795Y-2869184D01*
X11342370Y-2869184D01*
X11352784Y-2874263D01*
X11358118Y-2879597D01*
X11363197Y-2890012D01*
X11363197Y-2900426D01*
X11358118Y-2910839D01*
X11347704Y-2926334D01*
X11295634Y-2978150D01*
X11368531Y-2978150D01*
G36*
X6045200Y-3708400D02*
G01*
X6045200Y-4577080D01*
X6131560Y-4503420D01*
X6210300Y-4422140D01*
X6263640Y-4305300D01*
X6283960Y-4224020D01*
X6296660Y-4140200D01*
X6273800Y-4010660D01*
X6223000Y-3888740D01*
X6144260Y-3784600D01*
G37*
G36*
X2971800Y-3919220D02*
G01*
X2885440Y-3992879D01*
X2806700Y-4074160D01*
X2753360Y-4191000D01*
X2733040Y-4272280D01*
X2720340Y-4356100D01*
X2743200Y-4485640D01*
X2794000Y-4607560D01*
X2872740Y-4711700D01*
X2971800Y-4787900D01*
G37*
G36*
X3417925Y-252577D02*
G01*
X3367887Y-282600D01*
X3317900Y-332587D01*
X3287877Y-402590D01*
X3267913Y-482600D01*
X3277920Y-552602D01*
X3307892Y-612597D01*
X3357879Y-672592D01*
X3417925Y-712622D01*
G37*
D12*
X1600400Y-5355800D02*
G01*
X1540400Y-5355800D01*
X1600400Y-5110800D02*
G01*
X1600400Y-5355800D01*
X1600400Y-4690800D02*
G01*
X1600400Y-4455800D01*
X1600400Y-4455800D02*
G01*
X230403Y-4455800D01*
X230403Y-4455800D02*
G01*
X230403Y-5355800D01*
X230403Y-5355800D02*
G01*
X1130401Y-5355800D01*
X3505200Y-5634101D02*
G01*
X3505200Y-6634098D01*
X914400Y-5634101D02*
G01*
X914400Y-6634098D01*
X809802Y-5634101D02*
G01*
X3609797Y-5634101D01*
X3609797Y-6634098D01*
X809802Y-6634098D01*
X809802Y-5634101D01*
X3949700Y-6745500D02*
G01*
X6159500Y-6745500D01*
X3949700Y-5065501D02*
G01*
X6159500Y-5065501D01*
X3949700Y-5065501D02*
G01*
X3949700Y-6745500D01*
X6159500Y-5065501D02*
G01*
X6159500Y-6745500D01*
X8115300Y-889000D02*
G01*
X7886700Y-889000D01*
X8623300Y-889000D02*
G01*
X8877300Y-889000D01*
X8623300Y-965200D02*
G01*
X8115300Y-965200D01*
X8623300Y-889000D02*
G01*
X8623300Y-965200D01*
X8115300Y-889000D02*
G01*
X8115300Y-812800D01*
X8115300Y-965200D02*
G01*
X8115300Y-889000D01*
X8623300Y-812800D02*
G01*
X8623300Y-889000D01*
X8115300Y-812800D02*
G01*
X8623300Y-812800D01*
X4965700Y-482600D02*
G01*
X5194300Y-482600D01*
X4457700Y-482600D02*
G01*
X4203700Y-482600D01*
X4457700Y-406400D02*
G01*
X4965700Y-406400D01*
X4457700Y-482600D02*
G01*
X4457700Y-406400D01*
X4965700Y-482600D02*
G01*
X4965700Y-558800D01*
X4965700Y-406400D02*
G01*
X4965700Y-482600D01*
X4457700Y-558800D02*
G01*
X4457700Y-482600D01*
X4965700Y-558800D02*
G01*
X4457700Y-558800D01*
X2120900Y-495300D02*
G01*
X1892300Y-495300D01*
X2628900Y-495300D02*
G01*
X2882900Y-495300D01*
X2628900Y-571500D02*
G01*
X2120900Y-571500D01*
X2628900Y-495300D02*
G01*
X2628900Y-571500D01*
X2120900Y-495300D02*
G01*
X2120900Y-419100D01*
X2120900Y-571500D02*
G01*
X2120900Y-495300D01*
X2628900Y-419100D02*
G01*
X2628900Y-495300D01*
X2120900Y-419100D02*
G01*
X2628900Y-419100D01*
X1587500Y-3759200D02*
G01*
X1816100Y-3759200D01*
X1079500Y-3759200D02*
G01*
X825500Y-3759200D01*
X1079500Y-3683000D02*
G01*
X1587500Y-3683000D01*
X1079500Y-3759200D02*
G01*
X1079500Y-3683000D01*
X1587500Y-3759200D02*
G01*
X1587500Y-3835400D01*
X1587500Y-3683000D02*
G01*
X1587500Y-3759200D01*
X1079500Y-3835400D02*
G01*
X1079500Y-3759200D01*
X1587500Y-3835400D02*
G01*
X1079500Y-3835400D01*
X10731500Y-4546600D02*
G01*
X10731500Y-4318000D01*
X10731500Y-5054600D02*
G01*
X10731500Y-5308600D01*
X10655300Y-5054600D02*
G01*
X10655300Y-4546600D01*
X10731500Y-5054600D02*
G01*
X10655300Y-5054600D01*
X10731500Y-4546600D02*
G01*
X10807700Y-4546600D01*
X10655300Y-4546600D02*
G01*
X10731500Y-4546600D01*
X10807700Y-5054600D02*
G01*
X10731500Y-5054600D01*
X10807700Y-4546600D02*
G01*
X10807700Y-5054600D01*
X10312400Y-5080000D02*
G01*
X10312400Y-5308600D01*
X10312400Y-4572000D02*
G01*
X10312400Y-4318000D01*
X10388600Y-4572000D02*
G01*
X10388600Y-5080000D01*
X10312400Y-4572000D02*
G01*
X10388600Y-4572000D01*
X10312400Y-5080000D02*
G01*
X10236200Y-5080000D01*
X10388600Y-5080000D02*
G01*
X10312400Y-5080000D01*
X10236200Y-4572000D02*
G01*
X10312400Y-4572000D01*
X10236200Y-5080000D02*
G01*
X10236200Y-4572000D01*
X9207500Y-3302000D02*
G01*
X8978900Y-3302000D01*
X9715500Y-3302000D02*
G01*
X9969500Y-3302000D01*
X9715500Y-3378200D02*
G01*
X9207500Y-3378200D01*
X9715500Y-3302000D02*
G01*
X9715500Y-3378200D01*
X9207500Y-3302000D02*
G01*
X9207500Y-3225800D01*
X9207500Y-3378200D02*
G01*
X9207500Y-3302000D01*
X9715500Y-3225800D02*
G01*
X9715500Y-3302000D01*
X9207500Y-3225800D02*
G01*
X9715500Y-3225800D01*
X5486400Y-3937000D02*
G01*
X5588000Y-3937000D01*
X5537200Y-3886200D02*
G01*
X5537200Y-3987800D01*
X3530600Y-4559300D02*
G01*
X3429000Y-4559300D01*
X3479800Y-4610100D02*
G01*
X3479800Y-4508500D01*
X5118100Y-3416300D02*
G01*
X292100Y-3416300D01*
X292100Y-3162300D01*
X5118100Y-3162300D01*
X5118100Y-3416300D01*
X5118100Y-1155700D02*
G01*
X292100Y-1155700D01*
X292100Y-876300D01*
X5118100Y-876300D01*
X5118100Y-1155700D01*
X10553700Y-774700D02*
G01*
X10803712Y-774700D01*
X10803712Y-1024712D01*
X10553700Y-1024712D01*
X10553700Y-774700D01*
X10553700Y-1028700D02*
G01*
X10803712Y-1028700D01*
X10803712Y-1278712D01*
X10553700Y-1278712D01*
X10553700Y-1028700D01*
X10553700Y-1282700D02*
G01*
X10803712Y-1282700D01*
X10803712Y-1532712D01*
X10553700Y-1532712D01*
X10553700Y-1282700D01*
X9931400Y-774700D02*
G01*
X10181412Y-774700D01*
X10181412Y-1024712D01*
X9931400Y-1024712D01*
X9931400Y-774700D01*
X9931400Y-1028700D02*
G01*
X10181412Y-1028700D01*
X10181412Y-1278712D01*
X9931400Y-1278712D01*
X9931400Y-1028700D01*
X9931400Y-1282700D02*
G01*
X10181412Y-1282700D01*
X10181412Y-1532712D01*
X9931400Y-1532712D01*
X9931400Y-1282700D01*
X9296400Y-774700D02*
G01*
X9546412Y-774700D01*
X9546412Y-1024712D01*
X9296400Y-1024712D01*
X9296400Y-774700D01*
X9296400Y-1028700D02*
G01*
X9546412Y-1028700D01*
X9546412Y-1278712D01*
X9296400Y-1278712D01*
X9296400Y-1028700D01*
X9296400Y-1282700D02*
G01*
X9546412Y-1282700D01*
X9546412Y-1532712D01*
X9296400Y-1532712D01*
X9296400Y-1282700D01*
X9804400Y-5727700D02*
G01*
X10071100Y-5727700D01*
X10071100Y-6032500D01*
X9804400Y-6032500D01*
X9804400Y-5727700D01*
X10071100Y-5727700D02*
G01*
X10325100Y-5727700D01*
X10325100Y-6032500D01*
X10071100Y-6032500D01*
X10071100Y-5727700D01*
X10325100Y-5727700D02*
G01*
X10579100Y-5727700D01*
X10579100Y-6032500D01*
X10325100Y-6032500D01*
X10325100Y-5727700D01*
X10579100Y-5727700D02*
G01*
X10833100Y-5727700D01*
X10833100Y-6032500D01*
X10579100Y-6032500D01*
X10579100Y-5727700D01*
X9804400Y-6362700D02*
G01*
X10071100Y-6362700D01*
X10071100Y-6667500D01*
X9804400Y-6667500D01*
X9804400Y-6362700D01*
X10071100Y-6362700D02*
G01*
X10325100Y-6362700D01*
X10325100Y-6667500D01*
X10071100Y-6667500D01*
X10071100Y-6362700D01*
X10325100Y-6362700D02*
G01*
X10579100Y-6362700D01*
X10579100Y-6667500D01*
X10325100Y-6667500D01*
X10325100Y-6362700D01*
X10579100Y-6362700D02*
G01*
X10833100Y-6362700D01*
X10833100Y-6667500D01*
X10579100Y-6667500D01*
X10579100Y-6362700D01*
D13*
X8953500Y-5080000D02*
G01*
X7429500Y-5080000D01*
X7429500Y-6350000D01*
X8953500Y-6350000D01*
X8953500Y-5080000D01*
D12*
X3619500Y-622300D02*
G01*
X3543300Y-622300D01*
X3581400Y-660400D02*
G01*
X3581400Y-584200D01*
X1517650Y-368300D02*
G01*
X1517650Y-622300D01*
X996950Y-622300D01*
X996950Y-368300D01*
X1517650Y-368300D01*
D14*
X10637900Y-3481999D02*
G01*
X10637900Y-3122000D01*
D12*
X11163300Y-3054350D02*
G01*
X11417300Y-3054350D01*
X11417300Y-3575050D01*
X11163300Y-3575050D01*
X11163300Y-3054350D01*
G75*
G01*
X4156901Y-4070368D02*
G03*
X4656899Y-4070368I249999J460687D01*
G75*
G01*
X4656899Y-3880698D02*
G03*
X4156901Y-3880698I-249999J-446735D01*
G75*
G01*
X2180399Y-4171932D02*
G03*
X1680400Y-4171932I-249999J-460687D01*
G75*
G01*
X1680400Y-4361602D02*
G03*
X2180399Y-4361602I250000J446735D01*
D14*
G75*
G01*
X10637495Y-3122508D02*
G03*
X10637850Y-3481398I-140819J-179585D01*
D12*
G75*
G01
X6291199Y-4140200D02*
G03X6291199Y-4140200I-499999J0D01*
G75*
G01
X3725799Y-4356100D02*
G03X3725799Y-4356100I-499999J0D01*
G75*
G01
X3767912Y-482600D02*
G03X3767912Y-482600I-250012J0D01*
M02*
