G04 Layer: BottomSilkscreenLayer*
G04 EasyEDA v6.5.57, 2026-08-21 18:24:28*
G04 95df02b17ae24060b49c9fd1e424970a,73b71592eb5d450092b712373c5d4a3f,10*
G04 Gerber Generator version 0.2*
G04 Scale: 100 percent, Rotated: No, Reflected: No *
G04 Dimensions in millimeters *
G04 leading zeros omitted , absolute positions ,4 integer and 5 decimal *
%FSLAX45Y45*%
%MOMM*%

%ADD10C,0.0100*%

%LPD*%
G36*
X8506002Y-1855419D02*
G01*
X8506002Y-1903780D01*
X8547100Y-1903780D01*
X8547100Y-1855419D01*
G37*
G36*
X9418523Y-1871522D02*
G01*
X9417761Y-1985060D01*
X9369704Y-1933143D01*
X9319463Y-1933143D01*
X9379508Y-1991258D01*
X9317278Y-2088896D01*
X9317278Y-2090115D01*
X9362033Y-2090115D01*
X9404553Y-2017217D01*
X9418472Y-2029256D01*
X9418472Y-2090115D01*
X9459569Y-2090115D01*
X9459569Y-1871522D01*
G37*
G36*
X9984740Y-1878533D02*
G01*
X9901885Y-1879955D01*
X9878669Y-1886204D01*
X9864344Y-1895398D01*
X9856012Y-1907489D01*
X9850932Y-1922119D01*
X9849408Y-1948942D01*
X9851062Y-1954428D01*
X9893046Y-1954428D01*
X9893046Y-1930958D01*
X9898989Y-1920697D01*
X9910673Y-1914855D01*
X9943693Y-1913737D01*
X9943693Y-1971598D01*
X9909200Y-1970532D01*
X9899040Y-1964588D01*
X9893046Y-1954428D01*
X9851062Y-1954428D01*
X9855555Y-1969160D01*
X9865918Y-1981301D01*
X9881158Y-1988870D01*
X9887915Y-1988870D01*
X9887915Y-1991817D01*
X9883851Y-1991817D01*
X9874656Y-2002282D01*
X9832187Y-2087168D01*
X9832187Y-2090115D01*
X9875672Y-2090115D01*
X9908895Y-2021332D01*
X9917785Y-2010511D01*
X9927437Y-2006498D01*
X9943642Y-2006498D01*
X9944404Y-2089404D01*
X9984740Y-2090216D01*
G37*
G36*
X8976918Y-1880260D02*
G01*
X8976918Y-2090115D01*
X9013596Y-2090115D01*
X9014358Y-1927453D01*
X9034932Y-2013102D01*
X9067901Y-2013915D01*
X9089644Y-1926539D01*
X9089898Y-2090115D01*
X9126575Y-2090115D01*
X9126575Y-1880311D01*
X9076893Y-1880311D01*
X9072829Y-1894281D01*
X9052560Y-1969820D01*
X9050985Y-1969770D01*
X9027261Y-1881073D01*
G37*
G36*
X8349081Y-1887677D02*
G01*
X8349081Y-1931619D01*
X8295487Y-1932432D01*
X8294674Y-1963928D01*
X8349183Y-1963928D01*
X8348319Y-2048967D01*
X8340191Y-2057095D01*
X8295487Y-2058568D01*
X8294674Y-2090470D01*
X8354212Y-2088997D01*
X8370976Y-2083866D01*
X8382609Y-2073910D01*
X8389315Y-2057095D01*
X8390331Y-1963928D01*
X8429752Y-1963928D01*
X8429752Y-1931670D01*
X8390128Y-1931670D01*
X8390128Y-1887677D01*
G37*
G36*
X10717530Y-1915566D02*
G01*
X10706608Y-1918563D01*
X10697616Y-1926183D01*
X10692993Y-1935124D01*
X10692993Y-1949145D01*
X10698581Y-1958797D01*
X10708538Y-1965502D01*
X10714583Y-1966620D01*
X10754207Y-1969820D01*
X10776000Y-1976018D01*
X10798556Y-1985518D01*
X10823600Y-2001875D01*
X10846358Y-2023364D01*
X10863072Y-2045817D01*
X10876889Y-2074062D01*
X10885830Y-2108454D01*
X10886186Y-2148078D01*
X10882172Y-2170074D01*
X10875010Y-2192070D01*
X10861649Y-2220518D01*
X10862970Y-2236368D01*
X10869777Y-2245969D01*
X10881817Y-2251405D01*
X10892942Y-2251506D01*
X10904321Y-2245664D01*
X10910062Y-2237536D01*
X10918901Y-2219858D01*
X10926470Y-2201316D01*
X10933633Y-2174443D01*
X10937392Y-2152446D01*
X10937392Y-2109927D01*
X10932160Y-2080564D01*
X10922101Y-2049373D01*
X10906455Y-2018588D01*
X10887862Y-1992579D01*
X10858347Y-1963115D01*
X10828782Y-1943455D01*
X10801146Y-1930552D01*
X10772851Y-1921510D01*
X10745368Y-1917039D01*
X10733633Y-1916023D01*
G37*
G36*
X9547453Y-1928723D02*
G01*
X9524847Y-1933397D01*
X9508693Y-1941220D01*
X9507880Y-1977136D01*
X9509760Y-1977136D01*
X9526320Y-1966975D01*
X9545320Y-1962150D01*
X9563862Y-1963623D01*
X9577628Y-1970735D01*
X9587179Y-1983232D01*
X9591903Y-1999538D01*
X9590684Y-2030679D01*
X9583826Y-2046224D01*
X9571939Y-2056434D01*
X9557308Y-2060752D01*
X9543796Y-2060752D01*
X9526320Y-2056282D01*
X9509760Y-2046122D01*
X9507982Y-2046122D01*
X9507982Y-2081377D01*
X9517532Y-2087270D01*
X9538055Y-2093772D01*
X9573260Y-2093772D01*
X9587941Y-2089657D01*
X9602419Y-2082444D01*
X9619132Y-2066543D01*
X9628022Y-2049780D01*
X9633254Y-2030679D01*
X9633407Y-1994001D01*
X9629343Y-1977898D01*
X9621113Y-1959508D01*
X9604298Y-1941880D01*
X9586468Y-1933092D01*
X9567367Y-1928977D01*
G37*
G36*
X8679688Y-1928723D02*
G01*
X8664295Y-1933295D01*
X8652510Y-1943963D01*
X8646414Y-1955901D01*
X8642146Y-1970532D01*
X8640622Y-2090115D01*
X8681821Y-2090115D01*
X8682837Y-1979371D01*
X8687511Y-1969109D01*
X8693861Y-1963470D01*
X8709202Y-1962302D01*
X8718956Y-1968449D01*
X8726830Y-1985213D01*
X8727744Y-2090115D01*
X8768638Y-2090115D01*
X8768638Y-1933143D01*
X8727694Y-1933143D01*
X8726830Y-1954428D01*
X8718702Y-1940661D01*
X8709253Y-1933956D01*
X8694521Y-1928825D01*
G37*
G36*
X7978648Y-1928723D02*
G01*
X7955178Y-1929892D01*
X7938312Y-1936292D01*
X7938312Y-1975612D01*
X7948980Y-1968347D01*
X7963763Y-1963928D01*
X7983220Y-1963928D01*
X7998612Y-1968500D01*
X8010652Y-1979371D01*
X8016798Y-1992579D01*
X8017713Y-2090115D01*
X8058607Y-2090115D01*
X8058607Y-1933143D01*
X8017509Y-1933143D01*
X8017509Y-1955800D01*
X8012684Y-1948535D01*
X8003590Y-1938832D01*
X7994548Y-1933193D01*
G37*
G36*
X8872016Y-1928774D02*
G01*
X8852154Y-1932990D01*
X8834729Y-1942338D01*
X8820251Y-1957628D01*
X8811107Y-1975662D01*
X8806383Y-1995474D01*
X8806479Y-2011527D01*
X8846362Y-2011527D01*
X8849258Y-1988667D01*
X8855303Y-1975002D01*
X8861755Y-1967941D01*
X8873490Y-1962556D01*
X8883751Y-1962556D01*
X8895486Y-1967941D01*
X8901988Y-1975002D01*
X8908034Y-1988667D01*
X8910929Y-2011527D01*
X8908034Y-2034539D01*
X8901938Y-2048306D01*
X8894064Y-2056739D01*
X8884615Y-2060752D01*
X8872677Y-2060752D01*
X8863228Y-2056739D01*
X8855303Y-2048306D01*
X8849258Y-2034539D01*
X8846362Y-2011527D01*
X8806479Y-2011527D01*
X8806535Y-2029256D01*
X8812580Y-2052269D01*
X8821267Y-2067356D01*
X8836202Y-2082393D01*
X8850680Y-2090267D01*
X8870594Y-2094484D01*
X8888171Y-2094484D01*
X8906967Y-2090013D01*
X8921699Y-2082038D01*
X8935872Y-2067661D01*
X8944711Y-2052269D01*
X8950807Y-2029256D01*
X8950909Y-1995474D01*
X8946184Y-1975662D01*
X8936990Y-1957527D01*
X8921191Y-1940966D01*
X8904732Y-1932889D01*
X8886698Y-1928977D01*
G37*
G36*
X8179612Y-1928774D02*
G01*
X8159750Y-1932990D01*
X8142274Y-1942338D01*
X8127847Y-1957628D01*
X8118703Y-1975662D01*
X8113979Y-1995474D01*
X8114027Y-2011527D01*
X8153958Y-2011527D01*
X8156854Y-1988667D01*
X8162899Y-1975002D01*
X8169351Y-1967941D01*
X8181086Y-1962556D01*
X8191347Y-1962556D01*
X8203082Y-1967941D01*
X8209534Y-1975002D01*
X8215630Y-1988667D01*
X8218525Y-2011527D01*
X8215630Y-2034539D01*
X8209534Y-2048306D01*
X8201609Y-2056739D01*
X8192160Y-2060752D01*
X8180273Y-2060752D01*
X8170824Y-2056739D01*
X8162899Y-2048306D01*
X8156803Y-2034539D01*
X8153958Y-2011527D01*
X8114027Y-2011527D01*
X8114131Y-2029256D01*
X8120176Y-2052269D01*
X8128812Y-2067356D01*
X8143798Y-2082393D01*
X8158276Y-2090267D01*
X8178139Y-2094484D01*
X8195767Y-2094484D01*
X8214563Y-2090013D01*
X8229295Y-2082038D01*
X8243468Y-2067661D01*
X8252256Y-2052269D01*
X8258403Y-2029256D01*
X8258454Y-1995474D01*
X8253730Y-1975662D01*
X8244586Y-1957527D01*
X8228787Y-1940966D01*
X8212277Y-1932889D01*
X8194294Y-1928977D01*
G37*
G36*
X9755174Y-1928977D02*
G01*
X9722916Y-1930146D01*
X9705289Y-1934718D01*
X9692182Y-1942744D01*
X9682632Y-1955292D01*
X9676079Y-1974951D01*
X9675710Y-2016760D01*
X9746386Y-2017064D01*
X9759137Y-2019604D01*
X9768027Y-2024837D01*
X9773513Y-2035048D01*
X9773513Y-2049322D01*
X9768789Y-2059279D01*
X9758730Y-2065477D01*
X9741966Y-2065426D01*
X9734245Y-2062429D01*
X9723983Y-2053437D01*
X9717481Y-2038350D01*
X9715855Y-2016760D01*
X9675710Y-2016760D01*
X9675012Y-2090115D01*
X9716312Y-2090115D01*
X9716312Y-2073859D01*
X9727285Y-2084679D01*
X9745370Y-2093214D01*
X9765995Y-2094941D01*
X9784384Y-2091283D01*
X9798354Y-2084222D01*
X9808667Y-2073910D01*
X9814306Y-2062886D01*
X9817912Y-2044496D01*
X9816185Y-2026310D01*
X9811512Y-2012696D01*
X9801047Y-2000504D01*
X9785959Y-1992833D01*
X9771329Y-1988616D01*
X9716312Y-1987092D01*
X9716312Y-1972868D01*
X9725101Y-1962810D01*
X9738106Y-1959559D01*
X9754565Y-1959559D01*
X9777171Y-1964182D01*
X9801402Y-1974545D01*
X9801402Y-1939442D01*
X9782708Y-1933295D01*
G37*
G36*
X8586165Y-1931619D02*
G01*
X8506764Y-1932432D01*
X8506002Y-2057755D01*
X8455406Y-2058568D01*
X8454593Y-2090115D01*
X8598458Y-2090115D01*
X8598458Y-2057857D01*
X8547100Y-2057857D01*
X8547100Y-1963928D01*
X8588197Y-1963928D01*
X8588197Y-1933651D01*
G37*
G36*
X10713974Y-2084222D02*
G01*
X10697667Y-2090318D01*
X10683646Y-2104034D01*
X10676432Y-2118715D01*
X10676432Y-2143658D01*
X10683595Y-2158238D01*
X10695584Y-2170226D01*
X10710164Y-2177389D01*
X10735106Y-2177389D01*
X10749788Y-2170226D01*
X10763504Y-2156155D01*
X10769600Y-2139899D01*
X10769600Y-2122474D01*
X10763250Y-2105609D01*
X10748213Y-2090572D01*
X10732160Y-2084374D01*
G37*
G36*
X10406227Y-2106269D02*
G01*
X10396321Y-2112924D01*
X10389616Y-2122830D01*
X10389616Y-2157323D01*
X10394289Y-2193544D01*
X10404144Y-2232101D01*
X10414863Y-2261006D01*
X10432084Y-2296363D01*
X10455351Y-2331415D01*
X10478922Y-2359558D01*
X10507573Y-2386634D01*
X10534396Y-2406853D01*
X10558170Y-2421585D01*
X10589869Y-2437485D01*
X10616285Y-2447645D01*
X10642701Y-2455214D01*
X10672013Y-2461107D01*
X10705338Y-2464562D01*
X10765942Y-2462987D01*
X10809274Y-2453894D01*
X10845139Y-2441956D01*
X10868761Y-2430932D01*
X10875213Y-2422753D01*
X10878210Y-2411526D01*
X10874756Y-2397861D01*
X10864951Y-2388006D01*
X10852962Y-2384806D01*
X10843666Y-2386787D01*
X10820196Y-2396388D01*
X10792307Y-2405227D01*
X10768838Y-2409850D01*
X10743996Y-2412847D01*
X10695482Y-2412847D01*
X10666171Y-2408428D01*
X10633100Y-2399588D01*
X10611154Y-2390902D01*
X10584789Y-2377643D01*
X10565028Y-2365552D01*
X10543844Y-2349906D01*
X10520934Y-2329027D01*
X10499445Y-2305050D01*
X10477804Y-2272741D01*
X10461752Y-2240483D01*
X10449661Y-2205329D01*
X10442295Y-2168906D01*
X10439755Y-2124202D01*
X10435386Y-2115769D01*
X10428528Y-2109571D01*
X10422636Y-2106320D01*
G37*
G36*
X9926066Y-2260295D02*
G01*
X9926066Y-2350516D01*
X9939985Y-2350516D01*
X9940086Y-2319680D01*
X9946640Y-2307285D01*
X9955276Y-2302814D01*
X9964928Y-2302916D01*
X9973106Y-2307945D01*
X9979558Y-2321153D01*
X9979558Y-2350516D01*
X9973056Y-2363774D01*
X9964470Y-2368854D01*
X9955276Y-2368854D01*
X9946335Y-2364232D01*
X9939985Y-2350516D01*
X9926066Y-2350516D01*
X9926066Y-2377643D01*
X9939274Y-2377643D01*
X9939274Y-2368092D01*
X9945878Y-2376119D01*
X9956800Y-2380589D01*
X9967264Y-2380589D01*
X9978136Y-2376017D01*
X9987686Y-2366772D01*
X9993223Y-2351989D01*
X9995204Y-2334361D01*
X9991953Y-2314244D01*
X9986467Y-2303576D01*
X9978136Y-2295652D01*
X9967264Y-2291080D01*
X9956139Y-2291130D01*
X9944049Y-2296617D01*
X9939274Y-2303475D01*
X9939274Y-2260295D01*
G37*
G36*
X9662007Y-2260295D02*
G01*
X9662007Y-2277872D01*
X9675215Y-2277872D01*
X9675215Y-2260295D01*
G37*
G36*
X9254185Y-2260295D02*
G01*
X9254185Y-2347569D01*
X9268968Y-2347569D01*
X9268968Y-2324100D01*
X9273997Y-2309520D01*
X9283954Y-2302814D01*
X9293047Y-2303018D01*
X9298940Y-2305405D01*
X9303969Y-2310993D01*
X9308490Y-2321814D01*
X9308388Y-2350516D01*
X9303004Y-2362250D01*
X9296857Y-2367737D01*
X9284258Y-2369108D01*
X9273997Y-2362149D01*
X9268968Y-2347569D01*
X9254185Y-2347569D01*
X9254185Y-2377643D01*
X9268866Y-2377643D01*
X9268866Y-2368194D01*
X9273641Y-2375052D01*
X9285732Y-2380488D01*
X9296806Y-2380589D01*
X9307677Y-2376017D01*
X9314637Y-2369566D01*
X9322257Y-2354884D01*
X9323476Y-2323490D01*
X9318447Y-2307539D01*
X9309404Y-2296566D01*
X9297466Y-2291130D01*
X9285732Y-2291130D01*
X9273641Y-2296617D01*
X9268866Y-2303475D01*
X9268866Y-2260295D01*
G37*
G36*
X9113367Y-2260295D02*
G01*
X9113367Y-2303068D01*
X9104579Y-2294229D01*
X9093860Y-2290724D01*
X9079179Y-2292451D01*
X9068308Y-2300020D01*
X9060688Y-2313990D01*
X9057132Y-2335377D01*
X9059478Y-2350516D01*
X9073032Y-2350516D01*
X9073083Y-2321153D01*
X9079941Y-2307132D01*
X9088272Y-2302814D01*
X9097975Y-2302814D01*
X9107170Y-2308453D01*
X9112605Y-2322626D01*
X9112554Y-2350516D01*
X9106306Y-2364232D01*
X9097365Y-2368854D01*
X9088272Y-2368854D01*
X9079941Y-2364536D01*
X9073032Y-2350516D01*
X9059478Y-2350516D01*
X9060535Y-2357170D01*
X9066174Y-2368092D01*
X9075928Y-2377236D01*
X9085935Y-2380589D01*
X9095841Y-2380589D01*
X9106001Y-2376322D01*
X9113367Y-2368397D01*
X9113367Y-2377643D01*
X9126575Y-2377643D01*
X9126575Y-2260295D01*
G37*
G36*
X8511895Y-2260295D02*
G01*
X8511895Y-2277872D01*
X8525103Y-2277872D01*
X8525103Y-2260295D01*
G37*
G36*
X8327034Y-2260295D02*
G01*
X8326881Y-2351989D01*
X8323376Y-2362149D01*
X8316061Y-2365857D01*
X8296249Y-2365908D01*
X8296249Y-2377643D01*
X8320582Y-2377643D01*
X8333486Y-2371039D01*
X8339531Y-2359304D01*
X8340394Y-2270556D01*
X8362238Y-2270556D01*
X8362238Y-2260295D01*
G37*
G36*
X8843416Y-2264359D02*
G01*
X8804554Y-2265629D01*
X8789060Y-2272436D01*
X8777630Y-2285390D01*
X8772652Y-2299157D01*
X8771810Y-2321153D01*
X8786672Y-2321153D01*
X8789162Y-2296566D01*
X8795766Y-2284476D01*
X8808872Y-2277872D01*
X8828786Y-2277872D01*
X8828786Y-2364435D01*
X8808872Y-2364435D01*
X8795766Y-2357831D01*
X8789111Y-2345690D01*
X8786672Y-2321153D01*
X8771810Y-2321153D01*
X8771229Y-2336393D01*
X8777376Y-2356612D01*
X8789060Y-2369921D01*
X8804554Y-2376728D01*
X8843416Y-2377998D01*
G37*
G36*
X9771329Y-2289708D02*
G01*
X9748723Y-2290978D01*
X9738309Y-2295347D01*
X9738309Y-2307234D01*
X9740493Y-2307132D01*
X9756648Y-2301443D01*
X9769856Y-2301341D01*
X9779965Y-2306472D01*
X9782149Y-2314854D01*
X9779406Y-2322017D01*
X9769856Y-2325928D01*
X9746386Y-2331059D01*
X9735362Y-2342083D01*
X9734905Y-2351989D01*
X9735362Y-2357831D01*
X9736886Y-2364384D01*
X9745929Y-2374696D01*
X9760813Y-2379116D01*
X9775139Y-2379116D01*
X9795510Y-2374493D01*
X9795510Y-2359710D01*
X9790379Y-2361946D01*
X9775698Y-2367280D01*
X9761677Y-2367381D01*
X9752025Y-2363317D01*
X9748215Y-2354224D01*
X9750094Y-2346858D01*
X9756800Y-2342489D01*
X9781590Y-2336342D01*
X9791446Y-2330246D01*
X9795510Y-2320544D01*
X9795510Y-2308352D01*
X9789363Y-2297430D01*
X9780320Y-2292096D01*
G37*
G36*
X9477908Y-2290978D02*
G01*
X9460992Y-2291994D01*
X9452965Y-2297988D01*
X9447123Y-2307945D01*
X9446158Y-2377643D01*
X9459569Y-2377643D01*
X9459722Y-2318207D01*
X9463227Y-2307945D01*
X9474352Y-2302510D01*
X9484410Y-2304389D01*
X9492792Y-2311450D01*
X9496247Y-2322982D01*
X9496247Y-2377643D01*
X9510979Y-2377643D01*
X9510166Y-2293315D01*
X9496247Y-2292400D01*
X9496247Y-2304694D01*
X9489897Y-2296566D01*
G37*
G36*
X8615324Y-2290978D02*
G01*
X8598408Y-2291994D01*
X8590381Y-2297988D01*
X8584488Y-2307945D01*
X8583574Y-2377643D01*
X8596985Y-2377643D01*
X8597138Y-2318207D01*
X8600643Y-2307945D01*
X8611768Y-2302510D01*
X8621826Y-2304389D01*
X8630208Y-2311450D01*
X8633663Y-2322982D01*
X8633663Y-2377643D01*
X8648344Y-2377643D01*
X8647582Y-2293315D01*
X8633663Y-2292400D01*
X8633663Y-2304694D01*
X8627262Y-2296566D01*
G37*
G36*
X9572244Y-2291080D02*
G01*
X9562185Y-2295855D01*
X9556394Y-2303221D01*
X9556394Y-2294026D01*
X9541713Y-2294026D01*
X9541713Y-2344623D01*
X9556394Y-2344623D01*
X9556394Y-2324100D01*
X9559493Y-2312924D01*
X9567468Y-2303983D01*
X9580575Y-2302865D01*
X9586468Y-2305405D01*
X9591497Y-2310993D01*
X9596018Y-2321814D01*
X9595916Y-2347569D01*
X9590532Y-2359304D01*
X9584283Y-2364892D01*
X9569653Y-2366264D01*
X9559645Y-2356256D01*
X9556394Y-2344623D01*
X9541713Y-2344623D01*
X9541713Y-2374290D01*
X9544710Y-2390038D01*
X9550044Y-2400401D01*
X9562490Y-2409190D01*
X9586315Y-2410256D01*
X9601860Y-2406751D01*
X9601860Y-2392476D01*
X9588246Y-2398522D01*
X9571786Y-2399842D01*
X9561525Y-2394508D01*
X9556394Y-2384247D01*
X9556394Y-2365197D01*
X9562998Y-2373172D01*
X9573920Y-2377643D01*
X9584994Y-2377592D01*
X9596932Y-2372156D01*
X9606330Y-2360777D01*
X9610648Y-2346299D01*
X9610648Y-2322423D01*
X9606330Y-2307945D01*
X9596932Y-2296566D01*
X9584994Y-2291130D01*
G37*
G36*
X9374073Y-2291080D02*
G01*
X9362897Y-2294432D01*
X9352838Y-2302764D01*
X9346336Y-2316581D01*
X9345488Y-2327757D01*
X9359798Y-2327757D01*
X9359798Y-2318207D01*
X9364929Y-2307945D01*
X9375241Y-2302814D01*
X9385503Y-2302916D01*
X9394291Y-2306828D01*
X9400692Y-2313838D01*
X9403842Y-2322068D01*
X9403842Y-2327757D01*
X9345488Y-2327757D01*
X9344710Y-2338019D01*
X9405315Y-2338019D01*
X9405264Y-2343150D01*
X9402216Y-2354275D01*
X9393275Y-2364384D01*
X9381083Y-2367686D01*
X9365996Y-2366162D01*
X9348063Y-2358898D01*
X9348063Y-2372817D01*
X9364929Y-2378354D01*
X9391345Y-2378354D01*
X9406788Y-2369820D01*
X9414205Y-2360066D01*
X9418116Y-2348992D01*
X9420199Y-2334006D01*
X9417100Y-2317343D01*
X9412020Y-2306624D01*
X9400540Y-2295448D01*
X9386925Y-2291283D01*
G37*
G36*
X8416137Y-2291080D02*
G01*
X8404961Y-2294432D01*
X8394903Y-2302764D01*
X8388400Y-2316581D01*
X8387553Y-2327757D01*
X8401862Y-2327757D01*
X8401862Y-2318207D01*
X8406993Y-2307945D01*
X8417255Y-2302814D01*
X8427516Y-2302916D01*
X8436356Y-2306828D01*
X8442756Y-2313838D01*
X8445855Y-2322068D01*
X8445855Y-2327757D01*
X8387553Y-2327757D01*
X8386775Y-2338019D01*
X8447328Y-2338019D01*
X8447328Y-2343150D01*
X8444230Y-2354275D01*
X8435340Y-2364384D01*
X8423148Y-2367686D01*
X8408060Y-2366162D01*
X8390128Y-2358898D01*
X8390128Y-2372817D01*
X8406993Y-2378354D01*
X8433409Y-2378354D01*
X8448802Y-2369820D01*
X8456269Y-2360066D01*
X8460181Y-2348992D01*
X8462213Y-2334006D01*
X8459165Y-2317343D01*
X8454034Y-2306624D01*
X8442553Y-2295448D01*
X8428990Y-2291283D01*
G37*
G36*
X9853472Y-2291130D02*
G01*
X9842246Y-2294229D01*
X9830866Y-2304542D01*
X9824872Y-2320544D01*
X9824872Y-2327757D01*
X9837724Y-2327757D01*
X9839756Y-2316886D01*
X9844074Y-2308555D01*
X9853472Y-2302814D01*
X9865207Y-2302916D01*
X9873996Y-2306828D01*
X9879025Y-2312466D01*
X9883546Y-2323287D01*
X9883546Y-2327757D01*
X9824872Y-2327757D01*
X9824872Y-2338019D01*
X9885222Y-2338019D01*
X9883343Y-2347569D01*
X9880396Y-2357018D01*
X9871862Y-2364181D01*
X9861092Y-2367737D01*
X9843414Y-2365908D01*
X9827768Y-2358745D01*
X9827768Y-2373122D01*
X9843211Y-2377795D01*
X9862413Y-2379472D01*
X9879228Y-2374595D01*
X9891064Y-2363927D01*
X9897465Y-2351989D01*
X9897465Y-2318207D01*
X9891979Y-2307945D01*
X9882784Y-2298192D01*
X9873996Y-2293569D01*
X9866680Y-2291334D01*
G37*
G36*
X8706256Y-2291130D02*
G01*
X8695639Y-2294077D01*
X8685733Y-2300630D01*
X8679129Y-2313736D01*
X8679129Y-2336698D01*
X8692083Y-2336698D01*
X8693962Y-2333650D01*
X8713622Y-2333955D01*
X8724341Y-2336088D01*
X8731504Y-2340762D01*
X8735212Y-2349703D01*
X8733383Y-2359558D01*
X8726119Y-2366416D01*
X8710676Y-2367635D01*
X8700465Y-2360726D01*
X8694064Y-2351227D01*
X8692083Y-2336698D01*
X8679129Y-2336698D01*
X8679129Y-2377643D01*
X8692337Y-2377643D01*
X8692337Y-2365552D01*
X8703868Y-2375966D01*
X8715095Y-2379116D01*
X8725611Y-2379116D01*
X8735618Y-2375763D01*
X8744051Y-2368092D01*
X8748064Y-2358644D01*
X8748064Y-2345537D01*
X8744966Y-2337308D01*
X8738565Y-2330399D01*
X8726830Y-2324303D01*
X8692337Y-2322982D01*
X8692337Y-2317394D01*
X8696604Y-2307132D01*
X8707729Y-2302459D01*
X8726830Y-2304084D01*
X8742375Y-2310180D01*
X8741460Y-2296210D01*
X8722410Y-2291283D01*
G37*
G36*
X9037066Y-2292400D02*
G01*
X9023146Y-2293315D01*
X8998000Y-2359152D01*
X8975140Y-2297684D01*
X8972397Y-2292553D01*
X8959342Y-2292553D01*
X8959342Y-2294534D01*
X8997492Y-2394204D01*
X9003639Y-2404160D01*
X9014968Y-2409901D01*
X9031224Y-2409901D01*
X9031224Y-2398166D01*
X9018676Y-2398166D01*
X9012631Y-2393950D01*
X9004909Y-2376779D01*
X9037066Y-2295042D01*
G37*
G36*
X9662058Y-2294026D02*
G01*
X9661296Y-2366619D01*
X9634118Y-2367483D01*
X9634118Y-2377643D01*
X9703104Y-2377643D01*
X9703104Y-2367381D01*
X9675215Y-2367381D01*
X9675215Y-2304288D01*
X9697212Y-2304288D01*
X9697212Y-2294026D01*
G37*
G36*
X8511895Y-2294026D02*
G01*
X8511895Y-2367381D01*
X8484006Y-2367381D01*
X8484006Y-2377643D01*
X8552942Y-2377643D01*
X8552942Y-2367483D01*
X8525814Y-2366619D01*
X8525052Y-2304288D01*
X8547100Y-2304288D01*
X8547100Y-2294026D01*
G37*
G36*
X9823196Y-2556357D02*
G01*
X9823196Y-2691282D01*
X9792919Y-2691282D01*
X9792919Y-2705100D01*
X9872980Y-2705100D01*
X9839655Y-2691282D01*
X9839655Y-2577287D01*
X9865868Y-2577287D01*
X9865868Y-2566517D01*
X9856876Y-2564638D01*
X9848900Y-2562352D01*
X9841941Y-2559608D01*
X9835794Y-2556357D01*
G37*
G36*
X9656775Y-2556357D02*
G01*
X9656775Y-2691282D01*
X9626498Y-2691282D01*
X9626498Y-2705100D01*
X9706559Y-2705100D01*
X9673234Y-2691282D01*
X9673234Y-2577287D01*
X9699447Y-2577287D01*
X9699447Y-2566517D01*
X9690455Y-2564638D01*
X9682530Y-2562352D01*
X9675520Y-2559608D01*
X9669373Y-2556357D01*
G37*
G36*
X9893706Y-2595372D02*
G01*
X9932924Y-2705100D01*
X9952228Y-2705100D01*
X9992258Y-2595372D01*
X9974986Y-2595372D01*
X9953244Y-2659176D01*
X9942880Y-2691485D01*
X9942068Y-2691485D01*
X9936784Y-2675483D01*
X9931704Y-2659176D01*
X9909962Y-2595372D01*
G37*
G36*
X9752279Y-2681325D02*
G01*
X9747402Y-2682290D01*
X9743389Y-2684983D01*
X9740696Y-2689199D01*
X9739680Y-2694736D01*
X9740696Y-2700020D01*
X9743389Y-2704134D01*
X9747402Y-2706776D01*
X9752279Y-2707741D01*
X9757054Y-2706776D01*
X9761016Y-2704134D01*
X9763658Y-2700020D01*
X9764674Y-2694736D01*
X9763658Y-2689199D01*
X9761016Y-2684983D01*
X9757054Y-2682290D01*
G37*
M02*
