G04 Layer: TopLayer*
G04 EasyEDA v6.5.57, 2026-08-21 14:04:48*
G04 4544f54adda74ab4921c695ef824c403,73b71592eb5d450092b712373c5d4a3f,10*
G04 Gerber Generator version 0.2*
G04 Scale: 100 percent, Rotated: No, Reflected: No *
G04 Dimensions in millimeters *
G04 leading zeros omitted , absolute positions ,4 integer and 5 decimal *
%FSLAX45Y45*%
%MOMM*%

%ADD10C,2.0000*%
%ADD11C,0.8000*%
%ADD12C,0.3000*%
%ADD13O,3.799992X4.99999*%
%ADD14C,1.6000*%
%ADD15O,3.699993X1.499997*%
%ADD16O,1.499997X3.799992*%
%ADD17O,0.0193X3.799992*%
%ADD18C,1.7780*%
%ADD19C,1.8796*%
%ADD20C,1.5000*%
%ADD21C,1.5240*%
%ADD22R,1.5240X1.5240*%
%ADD23C,1.4000*%
%ADD24R,1.8796X1.8796*%
%ADD25R,1.0000X1.0000*%
%ADD26C,1.0000*%

%LPD*%
D10*
X10452100Y-6515100D02*
G01*
X10452100Y-5880100D01*
X4127500Y-6565897D02*
G01*
X4368802Y-6807200D01*
X10198100Y-6807200D01*
X10452100Y-6553200D01*
X10452100Y-6515100D01*
X4127500Y-6565897D02*
G01*
X4127500Y-6311897D01*
D11*
X5981700Y-6565897D02*
G01*
X5981700Y-6311897D01*
X5981700Y-6565897D02*
G01*
X7975602Y-6565897D01*
X8318500Y-6223000D01*
D10*
X5537200Y-4140200D02*
G01*
X5537200Y-4902197D01*
X4127500Y-6311897D01*
X4130700Y-3975100D02*
G01*
X4473600Y-4318000D01*
X4940300Y-4318000D01*
X5118100Y-4140200D01*
X5537200Y-4140200D01*
X3289300Y-6134100D02*
G01*
X3289300Y-5372100D01*
X4130700Y-4530699D01*
X4130700Y-3975100D01*
X1519173Y-4898136D02*
G01*
X1765300Y-5143500D01*
X1765300Y-5499100D01*
X1130300Y-6134100D01*
D11*
X1651000Y-4267200D02*
G01*
X2082800Y-4699000D01*
X3479800Y-4699000D01*
X3479800Y-4356100D01*
D12*
X3467100Y-1019302D02*
G01*
X4492497Y-2044700D01*
X6134100Y-2044700D01*
X8267700Y-4178300D01*
X9448800Y-4178300D01*
X10579100Y-5308600D01*
X10731500Y-5308600D01*
D10*
X8064500Y-6223000D02*
G01*
X8064500Y-5207000D01*
D12*
X7886700Y-889000D02*
G01*
X7035800Y-1739900D01*
X4597400Y-1739900D01*
X2959100Y-1019302D02*
G01*
X4301997Y-2362200D01*
X5981700Y-2362200D01*
X8826500Y-5207000D01*
X8978900Y-3302000D02*
G01*
X7594600Y-3302000D01*
X6184900Y-1892300D01*
X4597400Y-1892300D01*
X11290300Y-3187700D02*
G01*
X11607800Y-2870200D01*
X11607800Y-1701800D01*
X11315700Y-1409700D01*
X10680700Y-1409700D01*
X2971800Y-368300D02*
G01*
X2349500Y-368300D01*
X2349500Y-612902D01*
X1943100Y-1019302D01*
X4737100Y-1019302D02*
G01*
X4737100Y-711200D01*
X4406900Y-381000D01*
X5397500Y-381000D02*
G01*
X4991100Y-787400D01*
X4991100Y-1019302D01*
X9423400Y-1409700D02*
G01*
X8750300Y-1409700D01*
X7721600Y-381000D01*
X7302500Y-800100D01*
X6997700Y-800100D01*
X8572500Y-6223000D02*
G01*
X8864600Y-6515100D01*
X9944100Y-6515100D01*
X8826500Y-6223000D02*
G01*
X9601200Y-6223000D01*
X9944100Y-5880100D01*
X11290300Y-3187700D02*
G01*
X11379200Y-3187700D01*
X11531600Y-3340100D01*
X11531600Y-3886200D01*
X11099800Y-4318000D01*
X10731500Y-4318000D01*
X11290300Y-3441700D02*
G01*
X10998200Y-3441700D01*
X10731500Y-3175000D01*
X10502900Y-3175000D01*
X6997700Y-800100D02*
G01*
X6578600Y-381000D01*
X5397500Y-381000D01*
X10502900Y-3302000D02*
G01*
X9969500Y-3302000D01*
X1460500Y-3835400D02*
G01*
X1460500Y-3517900D01*
X1689100Y-3289300D01*
X10731500Y-4318000D02*
G01*
X10312400Y-4318000D01*
X10312400Y-5308600D02*
G01*
X10312400Y-5334000D01*
X10071100Y-5575300D01*
X10071100Y-6388100D01*
X10198100Y-6515100D01*
X9423400Y-901700D02*
G01*
X9410700Y-889000D01*
X8877300Y-889000D01*
X1981200Y-368300D02*
G01*
X1295400Y-368300D01*
X3795699Y-381000D02*
G01*
X4406900Y-381000D01*
X10058400Y-901700D02*
G01*
X10680700Y-901700D01*
X9423400Y-901700D02*
G01*
X10058400Y-901700D01*
X10680700Y-1409700D02*
G01*
X10058400Y-1409700D01*
X10058400Y-1409700D02*
G01*
X9423400Y-1409700D01*
X10198100Y-5880100D02*
G01*
X10198100Y-5676900D01*
X10566400Y-5308600D01*
X10731500Y-5308600D01*
D11*
X1651000Y-4267200D02*
G01*
X1473200Y-4089400D01*
X647700Y-4089400D01*
X165100Y-3606800D01*
X177800Y-1295400D01*
X419100Y-1019299D01*
D12*
X3213100Y-1019302D02*
G01*
X4390897Y-2197100D01*
X6045200Y-2197100D01*
X8178800Y-4330700D01*
X9334500Y-4330700D01*
X10312400Y-5308600D01*
X2705100Y-1019302D02*
G01*
X4213097Y-2527300D01*
X5892800Y-2527300D01*
X8572500Y-5207000D01*
D13*
G01*
X1130300Y-6134100D03*
G01*
X3289300Y-6134100D03*
D14*
G01*
X4127500Y-6565897D03*
G01*
X4127500Y-6311897D03*
G01*
X4127500Y-5499097D03*
G01*
X4127500Y-5245097D03*
G01*
X5981700Y-5245097D03*
G01*
X5981700Y-5499097D03*
G01*
X5981700Y-6311897D03*
G01*
X5981700Y-6565897D03*
D15*
G01*
X1259204Y-5350789D03*
D16*
G01*
X889203Y-4895799D03*
G01*
X1519173Y-4898262D03*
D18*
G01*
X4686300Y-3975100D03*
G01*
X4130700Y-3975100D03*
G01*
X1651000Y-4267200D03*
G01*
X2206599Y-4267200D03*
D19*
G01*
X7886700Y-889000D03*
G01*
X8877300Y-889000D03*
G01*
X5397500Y-381000D03*
G01*
X4406900Y-381000D03*
G01*
X1981200Y-368300D03*
G01*
X2971800Y-368300D03*
G01*
X2451100Y-3835400D03*
G01*
X1460500Y-3835400D03*
G01*
X10731500Y-4318000D03*
G01*
X10731500Y-5308600D03*
G01*
X10312400Y-5308600D03*
G01*
X10312400Y-4318000D03*
G01*
X8978900Y-3302000D03*
G01*
X9969500Y-3302000D03*
D20*
G01*
X6997700Y-800100D03*
G01*
X6997700Y-1054100D03*
D14*
G01*
X5537200Y-4140200D03*
G01*
X6045200Y-4140200D03*
G01*
X3479800Y-4356100D03*
G01*
X2971800Y-4356100D03*
D20*
G01*
X4991100Y-1019302D03*
G01*
X4737100Y-1019302D03*
G01*
X4483100Y-1019302D03*
G01*
X4229100Y-1019302D03*
G01*
X3975100Y-1019302D03*
G01*
X3721100Y-1019302D03*
G01*
X3467100Y-1019302D03*
G01*
X3213100Y-1019302D03*
G01*
X2959100Y-1019302D03*
G01*
X2705100Y-1019302D03*
G01*
X2451100Y-1019302D03*
G01*
X2197100Y-1019302D03*
G01*
X1943100Y-1019302D03*
G01*
X1689100Y-1019302D03*
G01*
X1435100Y-1019302D03*
G01*
X1181100Y-1019302D03*
G01*
X927100Y-1019302D03*
G01*
X673100Y-1019302D03*
G01*
X419100Y-1019302D03*
G01*
X4991100Y-3289300D03*
G01*
X4737100Y-3289300D03*
G01*
X4483100Y-3289300D03*
G01*
X4229100Y-3289300D03*
G01*
X3975100Y-3289300D03*
G01*
X3721100Y-3289300D03*
G01*
X3467100Y-3289300D03*
G01*
X3213100Y-3289300D03*
G01*
X2959100Y-3289300D03*
G01*
X2705100Y-3289300D03*
G01*
X2451100Y-3289300D03*
G01*
X2197100Y-3289300D03*
G01*
X1943100Y-3289300D03*
G01*
X1689100Y-3289300D03*
G01*
X1435100Y-3289300D03*
G01*
X1181100Y-3289300D03*
G01*
X927100Y-3289300D03*
G01*
X673100Y-3289300D03*
G01*
X419100Y-3289300D03*
D21*
G01*
X10680700Y-901700D03*
G01*
X10680700Y-1155700D03*
D22*
G01*
X10680700Y-1409700D03*
D21*
G01*
X10058400Y-901700D03*
G01*
X10058400Y-1155700D03*
D22*
G01*
X10058400Y-1409700D03*
D21*
G01*
X9423400Y-901700D03*
G01*
X9423400Y-1155700D03*
D22*
G01*
X9423400Y-1409700D03*
D21*
G01*
X9944100Y-5880100D03*
G01*
X10198100Y-5880100D03*
D22*
G01*
X10452100Y-5880100D03*
D21*
G01*
X10706100Y-5880100D03*
G01*
X9944100Y-6515100D03*
G01*
X10198100Y-6515100D03*
D22*
G01*
X10452100Y-6515100D03*
D21*
G01*
X10706100Y-6515100D03*
D19*
G01*
X8826500Y-6223000D03*
G01*
X8572500Y-6223000D03*
G01*
X8318500Y-6223000D03*
G01*
X8064500Y-6223000D03*
G01*
X7810500Y-6223000D03*
G01*
X7556500Y-6223000D03*
G01*
X7556500Y-5207000D03*
G01*
X7810500Y-5207000D03*
G01*
X8064500Y-5207000D03*
G01*
X8318500Y-5207000D03*
G01*
X8572500Y-5207000D03*
G01*
X8826500Y-5207000D03*
D23*
G01*
X3795699Y-381000D03*
G01*
X3595700Y-381000D03*
D19*
G01*
X1041400Y-368300D03*
D24*
G01*
X1295400Y-368300D03*
D25*
G01*
X10502900Y-3429000D03*
D26*
G01*
X10502900Y-3302000D03*
G01*
X10502900Y-3175000D03*
D19*
G01*
X11290300Y-3441700D03*
D24*
G01*
X11290300Y-3187700D03*
D26*
G01*
X4597400Y-1739900D03*
G01*
X4597400Y-1892300D03*
M02*
