G04 Layer: BottomLayer*
G04 EasyEDA v6.5.57, 2026-08-21 14:04:48*
G04 21a24ddf59d74a2ebcaba67e444f0a9e,73b71592eb5d450092b712373c5d4a3f,10*
G04 Gerber Generator version 0.2*
G04 Scale: 100 percent, Rotated: No, Reflected: No *
G04 Dimensions in millimeters *
G04 leading zeros omitted , absolute positions ,4 integer and 5 decimal *
%FSLAX45Y45*%
%MOMM*%

%ADD10C,0.3000*%
%ADD11C,2.0000*%
%ADD12C,0.8000*%
%ADD13O,3.799992X4.99999*%
%ADD14C,1.6000*%
%ADD15O,3.699993X1.499997*%
%ADD16O,1.499997X3.799992*%
%ADD17O,0.0129X3.799992*%
%ADD18C,1.7780*%
%ADD19C,1.8796*%
%ADD20C,1.5000*%
%ADD21C,1.5240*%
%ADD22R,1.5240X1.5240*%
%ADD23C,1.4000*%
%ADD24R,1.8796X1.8796*%
%ADD25R,1.0000X1.0000*%
%ADD26C,1.0000*%

%LPD*%
D10*
X1816100Y-3759200D02*
G01*
X1816100Y-3581400D01*
X1816100Y-3086100D01*
X3251200Y-1651000D01*
X4597400Y-1651000D01*
X4597400Y-1955800D02*
G01*
X3530600Y-1955800D01*
X2197100Y-3289300D01*
X4597400Y-1803400D02*
G01*
X3429000Y-1803400D01*
X1943100Y-3289300D01*
D11*
X1689100Y-1019302D02*
G01*
X1689100Y-1308100D01*
X1765300Y-1384300D01*
X4711700Y-1384300D01*
X4889500Y-1562100D01*
X4889500Y-2171700D01*
X4686300Y-2374900D01*
X4216400Y-2374900D01*
X3467100Y-3124200D01*
X3467100Y-3289300D01*
D10*
X10312400Y-4318000D02*
G01*
X9931400Y-4318000D01*
X9512300Y-4737100D01*
D11*
X10680700Y-1155700D02*
G01*
X11176000Y-1155700D01*
X11709400Y-1689100D01*
X11709400Y-4013200D01*
X11023600Y-4013200D01*
X10502900Y-3479800D01*
X10058400Y-1155700D02*
G01*
X10680700Y-1155700D01*
X9423400Y-1155700D02*
G01*
X10058400Y-1155700D01*
X4991100Y-3289300D02*
G01*
X7124700Y-1155700D01*
X9423400Y-1155700D01*
X5981700Y-5245097D02*
G01*
X6400797Y-4826000D01*
X7772400Y-4826000D01*
X8064500Y-5118100D01*
X8064500Y-5207000D01*
X5981700Y-5499097D02*
G01*
X5981700Y-5245097D01*
X5981700Y-5245097D02*
G01*
X5397502Y-4660900D01*
X4686300Y-4660900D01*
X4686300Y-3975100D02*
G01*
X4686300Y-4660900D01*
X4127500Y-5499097D02*
G01*
X4127500Y-5245097D01*
X4686300Y-3975100D02*
G01*
X4686300Y-4660900D01*
X4127500Y-5219700D01*
X4127500Y-5245097D01*
X4991100Y-3289300D02*
G01*
X5359400Y-3657600D01*
X5499100Y-3657600D01*
X5981700Y-4140200D01*
X6045200Y-4140200D01*
X4991100Y-3289300D02*
G01*
X4991100Y-3670300D01*
X4686300Y-3975100D01*
X4991100Y-3289300D02*
G01*
X4991100Y-3162300D01*
X4762500Y-2933700D01*
X3657600Y-2933700D01*
X3467100Y-3124200D01*
X4686300Y-3975100D02*
G01*
X4432300Y-3721100D01*
X3733800Y-3721100D01*
X3467100Y-3454400D01*
X3467100Y-3289300D01*
X2206599Y-4267200D02*
G01*
X1952599Y-4521200D01*
X1263802Y-4521200D01*
X889203Y-4895799D01*
X2971800Y-4356100D02*
G01*
X2882900Y-4267200D01*
X2206599Y-4267200D01*
X3467100Y-3289300D02*
G01*
X3467100Y-3860800D01*
X2971800Y-4356100D01*
X1689100Y-1019302D02*
G01*
X1689100Y-876300D01*
X1892300Y-673100D01*
X3303600Y-673100D01*
X3595700Y-381000D01*
X1041400Y-368300D02*
G01*
X1041400Y-558800D01*
X1143000Y-660400D01*
X1371600Y-660400D01*
X1689100Y-977900D01*
X1689100Y-1019302D01*
D12*
X5981700Y-6311897D02*
G01*
X5626102Y-5956300D01*
X4127500Y-5956300D01*
X3479800Y-5308600D01*
X3479800Y-4356100D01*
D11*
X10706100Y-6515100D02*
G01*
X10706100Y-5880100D01*
X8064500Y-6223000D02*
G01*
X8064500Y-6477000D01*
X8343900Y-6756400D01*
X10617200Y-6756400D01*
X10706100Y-6515100D01*
D13*
G01*
X1130300Y-6134100D03*
G01*
X3289300Y-6134100D03*
D14*
G01*
X4127500Y-6565897D03*
G01*
X4127500Y-6311897D03*
G01*
X4127500Y-5499097D03*
G01*
X4127500Y-5245097D03*
G01*
X5981700Y-5245097D03*
G01*
X5981700Y-5499097D03*
G01*
X5981700Y-6311897D03*
G01*
X5981700Y-6565897D03*
D15*
G01*
X1259204Y-5350789D03*
D16*
G01*
X889203Y-4895799D03*
G01*
X1519173Y-4898262D03*
D18*
G01*
X4686300Y-3975100D03*
G01*
X4130700Y-3975100D03*
G01*
X1651000Y-4267200D03*
G01*
X2206599Y-4267200D03*
D19*
G01*
X7886700Y-889000D03*
G01*
X8877300Y-889000D03*
G01*
X5397500Y-381000D03*
G01*
X4406900Y-381000D03*
G01*
X1981200Y-368300D03*
G01*
X2971800Y-368300D03*
G01*
X1816100Y-3759200D03*
G01*
X825500Y-3759200D03*
G01*
X10731500Y-4318000D03*
G01*
X10731500Y-5308600D03*
G01*
X10312400Y-5308600D03*
G01*
X10312400Y-4318000D03*
G01*
X8978900Y-3302000D03*
G01*
X9969500Y-3302000D03*
D14*
G01*
X5537200Y-4140200D03*
G01*
X6045200Y-4140200D03*
G01*
X3479800Y-4356100D03*
G01*
X2971800Y-4356100D03*
D20*
G01*
X4991100Y-1019302D03*
G01*
X4737100Y-1019302D03*
G01*
X4483100Y-1019302D03*
G01*
X4229100Y-1019302D03*
G01*
X3975100Y-1019302D03*
G01*
X3721100Y-1019302D03*
G01*
X3467100Y-1019302D03*
G01*
X3213100Y-1019302D03*
G01*
X2959100Y-1019302D03*
G01*
X2705100Y-1019302D03*
G01*
X2451100Y-1019302D03*
G01*
X2197100Y-1019302D03*
G01*
X1943100Y-1019302D03*
G01*
X1689100Y-1019302D03*
G01*
X1435100Y-1019302D03*
G01*
X1181100Y-1019302D03*
G01*
X927100Y-1019302D03*
G01*
X673100Y-1019302D03*
G01*
X419100Y-1019302D03*
G01*
X4991100Y-3289300D03*
G01*
X4737100Y-3289300D03*
G01*
X4483100Y-3289300D03*
G01*
X4229100Y-3289300D03*
G01*
X3975100Y-3289300D03*
G01*
X3721100Y-3289300D03*
G01*
X3467100Y-3289300D03*
G01*
X3213100Y-3289300D03*
G01*
X2959100Y-3289300D03*
G01*
X2705100Y-3289300D03*
G01*
X2451100Y-3289300D03*
G01*
X2197100Y-3289300D03*
G01*
X1943100Y-3289300D03*
G01*
X1689100Y-3289300D03*
G01*
X1435100Y-3289300D03*
G01*
X1181100Y-3289300D03*
G01*
X927100Y-3289300D03*
G01*
X673100Y-3289300D03*
G01*
X419100Y-3289300D03*
D21*
G01*
X10680700Y-901700D03*
G01*
X10680700Y-1155700D03*
D22*
G01*
X10680700Y-1409700D03*
D21*
G01*
X10058400Y-901700D03*
G01*
X10058400Y-1155700D03*
D22*
G01*
X10058400Y-1409700D03*
D21*
G01*
X9423400Y-901700D03*
G01*
X9423400Y-1155700D03*
D22*
G01*
X9423400Y-1409700D03*
D21*
G01*
X9944100Y-5880100D03*
G01*
X10198100Y-5880100D03*
D22*
G01*
X10452100Y-5880100D03*
D21*
G01*
X10706100Y-5880100D03*
G01*
X9944100Y-6515100D03*
G01*
X10198100Y-6515100D03*
D22*
G01*
X10452100Y-6515100D03*
D21*
G01*
X10706100Y-6515100D03*
D19*
G01*
X8826500Y-6223000D03*
G01*
X8572500Y-6223000D03*
G01*
X8318500Y-6223000D03*
G01*
X8064500Y-6223000D03*
G01*
X7810500Y-6223000D03*
G01*
X7556500Y-6223000D03*
G01*
X7556500Y-5207000D03*
G01*
X7810500Y-5207000D03*
G01*
X8064500Y-5207000D03*
G01*
X8318500Y-5207000D03*
G01*
X8572500Y-5207000D03*
G01*
X8826500Y-5207000D03*
D23*
G01*
X3795699Y-381000D03*
G01*
X3595700Y-381000D03*
D19*
G01*
X1041400Y-368300D03*
D24*
G01*
X1295400Y-368300D03*
D25*
G01*
X10502900Y-3429000D03*
D26*
G01*
X10502900Y-3302000D03*
G01*
X10502900Y-3175000D03*
D19*
G01*
X11290300Y-3441700D03*
D24*
G01*
X11290300Y-3187700D03*
D26*
G01*
X4597400Y-1803400D03*
G01*
X4597400Y-1955800D03*
G01*
X9512300Y-4737100D03*
G01*
X4597400Y-1651000D03*
M02*
